<svg xmlns="http://www.w3.org/2000/svg" width="20.272" height="20.274" viewBox="0 0 20.272 20.274">
  <g id="Grupo_13388" data-name="Grupo 13388" transform="translate(-188.692 -2973.97)">
    <g id="Grupo_13386" data-name="Grupo 13386">
      <path id="Trazado_10748" data-name="Trazado 10748" d="M208.823,2986.362a1.675,1.675,0,0,1-.431.626l-.025.025a1.75,1.75,0,0,1-1.208.473h-2.416a.42.42,0,0,1-.355-.194l-.406-.651-1.706-2.728a.387.387,0,0,1-.051-.33.413.413,0,0,1,.2-.27l3.8-2.112a.431.431,0,0,1,.575.169l1.96,3.5A1.738,1.738,0,0,1,208.823,2986.362Z" fill="#4caf8c"/>
      <path id="Trazado_10749" data-name="Trazado 10749" d="M199.725,2977.425l-.355.5-1.884,2.627a.416.416,0,0,1-.346.177.449.449,0,0,1-.2-.051l-4.646-2.534a.415.415,0,0,1-.211-.278.425.425,0,0,1,.076-.347l1.808-2.407a2.5,2.5,0,0,1,.236-.279,2.766,2.766,0,0,1,1.952-.862.583.583,0,0,1,.118.009,2.845,2.845,0,0,1,2.255,1.225l1.2,1.74A.423.423,0,0,1,199.725,2977.425Z" fill="#4caf8c"/>
      <path id="Trazado_10750" data-name="Trazado 10750" d="M197.005,2985.687a.422.422,0,0,1-.473.067l-1.318-.659-.769,1.546-.3.608a.432.432,0,0,1-.38.237H190.5a1.729,1.729,0,0,1-1.217-.482l-.017-.016a1.748,1.748,0,0,1-.532-1.681,1.873,1.873,0,0,1,.152-.431l1.4-2.8-1.47-1.479a.4.4,0,0,1-.092-.456.423.423,0,0,1,.388-.262h5.491a.423.423,0,0,1,.388.262l2.112,5.069A.433.433,0,0,1,197.005,2985.687Z" fill="#4caf8c"/>
    </g>
    <g id="Grupo_13387" data-name="Grupo 13387">
      <path id="Trazado_10751" data-name="Trazado 10751" d="M197.14,2987.064v5.068a.422.422,0,0,1-.422.422h-2.053a2.926,2.926,0,0,1-2.424-1.275c-.119-.169-.22-.321-.313-.456l-.034-.034c.009,0-.16-.237-.321-.473-.076-.1-.135-.2-.194-.279-.22-.321-.338-.481-.287-.414-.042-.067-.085-.118-.1-.152l-.008-.008a.723.723,0,0,1-.046-.072l-.013-.013-.009-.017c-.591-.853-1.14-1.647-1.63-2.357l-.017-.016c-.16-.22-.3-.44-.447-.642a1.809,1.809,0,0,1-.085-1.039l1.14,1.089a.865.865,0,0,0,.626.245h6.217A.422.422,0,0,1,197.14,2987.064Z" fill="#388e71"/>
      <path id="Trazado_10752" data-name="Trazado 10752" d="M206.4,2976.243l-2.112,5.068a.421.421,0,0,1-.388.262.242.242,0,0,1-.076-.009l-4.646-.844a.443.443,0,0,1-.346-.355.421.421,0,0,1,.236-.439l1.25-.625-.946-1.377-1.537-2.247a1.992,1.992,0,0,0-1.622-.845H194.2a2.756,2.756,0,0,1,1.572-.828l.38-.025h.118l5.457-.009a2.111,2.111,0,0,1,1.765.938l.972,1.47,1.36-.676a.422.422,0,0,1,.473.068A.432.432,0,0,1,206.4,2976.243Z" fill="#388e71"/>
      <path id="Trazado_10753" data-name="Trazado 10753" d="M208.823,2986.362l-.4.575-.034.051-.025.025-2.94,4.266a2.944,2.944,0,0,1-2.433,1.275h-.786v1.267a.43.43,0,0,1-.27.4.46.46,0,0,1-.152.026.4.4,0,0,1-.312-.144l-3.379-3.8a.41.41,0,0,1-.026-.524l3.379-4.646a.418.418,0,0,1,.76.245v1.267h4.951a.864.864,0,0,0,.625-.245l1.14-1.089A1.729,1.729,0,0,1,208.823,2986.362Z" fill="#388e71"/>
    </g>
  </g>
</svg>
