<svg xmlns="http://www.w3.org/2000/svg" width="503.6" height="266.058" viewBox="0 0 503.6 266.058">
  <g id="Grupo_10945" data-name="Grupo 10945" transform="translate(-750.2 -2288.457)">
    <g id="Grupo_10932" data-name="Grupo 10932">
      <rect id="Rectángulo_3745" data-name="Rectángulo 3745" width="134.018" height="52.8" rx="12" transform="translate(1119.782 2395.086)" fill="#85cde9"/>
      <g id="Grupo_10931" data-name="Grupo 10931">
        <g id="Grupo_10930" data-name="Grupo 10930">
          <path id="Trazado_4597" data-name="Trazado 4597" d="M1150.575,2421.554a5.462,5.462,0,0,1-1.7,4.324,7.152,7.152,0,0,1-4.883,1.5h-3.45v-11.422h3.812a6.617,6.617,0,0,1,4.58,1.469A5.267,5.267,0,0,1,1150.575,2421.554Zm-2.126.062q0-4.1-4.141-4.1h-1.746v8.289H1144Q1148.449,2425.8,1148.449,2421.616Z" fill="#00223d"/>
          <path id="Trazado_4598" data-name="Trazado 4598" d="M1157.086,2427.53a4.716,4.716,0,0,1-3.4-1.175,4.275,4.275,0,0,1-1.227-3.239,4.666,4.666,0,0,1,1.138-3.328,4.088,4.088,0,0,1,3.129-1.211,4.015,4.015,0,0,1,2.918,1.039,3.8,3.8,0,0,1,1.072,2.86v.992H1154.5a2.713,2.713,0,0,0,.733,1.933,2.67,2.67,0,0,0,1.949.676,7.773,7.773,0,0,0,1.539-.144,8.6,8.6,0,0,0,1.531-.481v1.492a6.438,6.438,0,0,1-1.468.454A9.743,9.743,0,0,1,1157.086,2427.53Zm-.363-7.562a2.077,2.077,0,0,0-1.514.555,2.544,2.544,0,0,0-.679,1.617h4.234a2.28,2.28,0,0,0-.556-1.621A1.981,1.981,0,0,0,1156.723,2419.968Z" fill="#00223d"/>
          <path id="Trazado_4599" data-name="Trazado 4599" d="M1167.73,2418.577a3.342,3.342,0,0,1,2.72,1.172,6.04,6.04,0,0,1-.013,6.6,3.781,3.781,0,0,1-5.49,0h-.135l-.363,1.023h-1.484v-12.156h1.982v2.89c0,.214-.012.532-.034.954s-.039.69-.051.8h.085A3.231,3.231,0,0,1,1167.73,2418.577Zm-.514,1.5a2.091,2.091,0,0,0-1.725.653,3.573,3.573,0,0,0-.544,2.183v.125a3.8,3.8,0,0,0,.54,2.285,2.074,2.074,0,0,0,1.762.707,1.83,1.83,0,0,0,1.6-.773,3.867,3.867,0,0,0,.544-2.234Q1169.392,2420.077,1167.216,2420.077Z" fill="#00223d"/>
          <path id="Trazado_4600" data-name="Trazado 4600" d="M1173.609,2416.444a.972.972,0,0,1,.291-.757,1.189,1.189,0,0,1,.83-.266,1.163,1.163,0,0,1,.814.266.972.972,0,0,1,.291.757.958.958,0,0,1-.291.739,1.155,1.155,0,0,1-.814.269,1.181,1.181,0,0,1-.83-.269A.959.959,0,0,1,1173.609,2416.444Zm2.1,10.93h-1.982v-8.641h1.982Z" fill="#00223d"/>
          <path id="Trazado_4601" data-name="Trazado 4601" d="M1180.525,2427.374h-1.982v-12.156h1.982Z" fill="#00223d"/>
          <path id="Trazado_4602" data-name="Trazado 4602" d="M1183.24,2416.444a.976.976,0,0,1,.291-.757,1.192,1.192,0,0,1,.831-.266,1.163,1.163,0,0,1,.814.266.972.972,0,0,1,.291.757.959.959,0,0,1-.291.739,1.155,1.155,0,0,1-.814.269,1.183,1.183,0,0,1-.831-.269A.962.962,0,0,1,1183.24,2416.444Zm2.1,10.93h-1.982v-8.641h1.982Z" fill="#00223d"/>
          <path id="Trazado_4603" data-name="Trazado 4603" d="M1191.321,2427.53a3.353,3.353,0,0,1-2.725-1.172,6.018,6.018,0,0,1,.013-6.6,3.386,3.386,0,0,1,2.745-1.184,3.311,3.311,0,0,1,2.8,1.258h.1a10.173,10.173,0,0,1-.144-1.469v-3.148h1.991v12.156h-1.552l-.346-1.133h-.093A3.252,3.252,0,0,1,1191.321,2427.53Zm.531-1.484a2.248,2.248,0,0,0,1.78-.637,3.167,3.167,0,0,0,.573-2.066v-.258a3.653,3.653,0,0,0-.573-2.32,2.212,2.212,0,0,0-1.8-.688,1.868,1.868,0,0,0-1.611.785,3.792,3.792,0,0,0-.565,2.239,3.7,3.7,0,0,0,.548,2.191A1.9,1.9,0,0,0,1191.852,2426.046Z" fill="#00223d"/>
          <path id="Trazado_4604" data-name="Trazado 4604" d="M1204.773,2427.374l-.4-1.2h-.068a3.762,3.762,0,0,1-1.358,1.074,4.6,4.6,0,0,1-1.754.285,3.118,3.118,0,0,1-2.147-.687,2.47,2.47,0,0,1-.771-1.945,2.234,2.234,0,0,1,1.071-2.016,6.566,6.566,0,0,1,3.264-.742l1.611-.047v-.461a1.664,1.664,0,0,0-.417-1.238,1.785,1.785,0,0,0-1.3-.411,4.821,4.821,0,0,0-1.375.2,10.855,10.855,0,0,0-1.265.461l-.641-1.313a7.314,7.314,0,0,1,1.662-.558,8.2,8.2,0,0,1,1.7-.192,4.262,4.262,0,0,1,2.686.719,2.705,2.705,0,0,1,.907,2.258v5.82Zm-2.952-1.25a2.571,2.571,0,0,0,1.733-.559,1.947,1.947,0,0,0,.654-1.566v-.75l-1.2.047a4.35,4.35,0,0,0-2.036.434,1.288,1.288,0,0,0-.637,1.183,1.11,1.11,0,0,0,.371.9A1.678,1.678,0,0,0,1201.821,2426.124Z" fill="#00223d"/>
          <path id="Trazado_4605" data-name="Trazado 4605" d="M1212.1,2427.53a3.355,3.355,0,0,1-2.725-1.172,6.018,6.018,0,0,1,.013-6.6,3.387,3.387,0,0,1,2.745-1.184,3.312,3.312,0,0,1,2.8,1.258h.1a10.173,10.173,0,0,1-.144-1.469v-3.148h1.991v12.156h-1.552l-.346-1.133h-.093A3.252,3.252,0,0,1,1212.1,2427.53Zm.531-1.484a2.246,2.246,0,0,0,1.78-.637,3.167,3.167,0,0,0,.573-2.066v-.258a3.653,3.653,0,0,0-.573-2.32,2.212,2.212,0,0,0-1.8-.688,1.868,1.868,0,0,0-1.611.785,3.792,3.792,0,0,0-.565,2.239,3.7,3.7,0,0,0,.548,2.191A1.9,1.9,0,0,0,1212.634,2426.046Z" fill="#00223d"/>
          <path id="Trazado_4606" data-name="Trazado 4606" d="M1223.793,2427.53a4.718,4.718,0,0,1-3.4-1.175,4.275,4.275,0,0,1-1.227-3.239,4.666,4.666,0,0,1,1.139-3.328,4.088,4.088,0,0,1,3.129-1.211,4.016,4.016,0,0,1,2.918,1.039,3.8,3.8,0,0,1,1.071,2.86v.992H1221.2a2.712,2.712,0,0,0,.734,1.933,2.668,2.668,0,0,0,1.948.676,7.792,7.792,0,0,0,1.54-.144,8.6,8.6,0,0,0,1.531-.481v1.492a6.438,6.438,0,0,1-1.468.454A9.743,9.743,0,0,1,1223.793,2427.53Zm-.363-7.562a2.077,2.077,0,0,0-1.514.555,2.544,2.544,0,0,0-.679,1.617h4.234a2.28,2.28,0,0,0-.556-1.621A1.981,1.981,0,0,0,1223.43,2419.968Z" fill="#00223d"/>
          <path id="Trazado_4607" data-name="Trazado 4607" d="M1235.938,2424.913a2.207,2.207,0,0,1-.995,1.942,5.063,5.063,0,0,1-2.851.675,7.2,7.2,0,0,1-2.994-.523v-1.586a7.823,7.823,0,0,0,3.061.7q1.831,0,1.831-1.023a.775.775,0,0,0-.2-.547,2.384,2.384,0,0,0-.666-.453,11.956,11.956,0,0,0-1.29-.532,6.081,6.081,0,0,1-2.181-1.156,2.047,2.047,0,0,1-.569-1.5,1.935,1.935,0,0,1,.966-1.723,4.87,4.87,0,0,1,2.627-.613,7.951,7.951,0,0,1,3.112.617l-.641,1.383a7.386,7.386,0,0,0-2.539-.578q-1.569,0-1.568.828a.82.82,0,0,0,.409.688,9.327,9.327,0,0,0,1.784.773,8.449,8.449,0,0,1,1.678.758,2.338,2.338,0,0,1,.776.793A2.154,2.154,0,0,1,1235.938,2424.913Z" fill="#00223d"/>
        </g>
      </g>
    </g>
    <g id="Grupo_10935" data-name="Grupo 10935">
      <rect id="Rectángulo_3746" data-name="Rectángulo 3746" width="134.018" height="52.8" rx="12" transform="translate(750.2 2395.086)" fill="#cdea70"/>
      <g id="Grupo_10934" data-name="Grupo 10934">
        <g id="Grupo_10933" data-name="Grupo 10933">
          <path id="Trazado_4608" data-name="Trazado 4608" d="M782.152,2427.4l-.894-2.719h-4.5l-.894,2.719h-2.817l4.352-11.469h3.2l4.369,11.469Zm-1.518-4.75q-1.24-3.694-1.4-4.18c-.1-.322-.179-.578-.224-.765q-.277,1-1.594,4.945Z" fill="#00223d"/>
          <path id="Trazado_4609" data-name="Trazado 4609" d="M794.761,2427.4h-2.572v-5.1a2.415,2.415,0,0,0-.342-1.417,1.237,1.237,0,0,0-1.075-.473,1.6,1.6,0,0,0-1.434.672,4.133,4.133,0,0,0-.447,2.211v4.109h-2.573v-8.734h1.966l.345,1.117h.144a2.548,2.548,0,0,1,1.1-.942,3.807,3.807,0,0,1,1.645-.339,3.041,3.041,0,0,1,2.868,1.281h.227a2.489,2.489,0,0,1,1.118-.945,3.978,3.978,0,0,1,1.666-.336,3.452,3.452,0,0,1,2.424.761,3.188,3.188,0,0,1,.823,2.442v5.7h-2.581v-5.1a2.415,2.415,0,0,0-.342-1.417,1.236,1.236,0,0,0-1.075-.473,1.651,1.651,0,0,0-1.413.625,3.337,3.337,0,0,0-.468,1.984Z" fill="#00223d"/>
          <path id="Trazado_4610" data-name="Trazado 4610" d="M807.547,2427.552a5.1,5.1,0,0,1-3.559-1.164,4.225,4.225,0,0,1-1.282-3.3,4.624,4.624,0,0,1,1.185-3.394,4.4,4.4,0,0,1,3.277-1.2,4.347,4.347,0,0,1,3.112,1.054,3.822,3.822,0,0,1,1.113,2.914v1.157h-6.081a2.2,2.2,0,0,0,.65,1.586,2.391,2.391,0,0,0,1.7.57,7.628,7.628,0,0,0,1.611-.164,8.525,8.525,0,0,0,1.586-.524v1.844a6.359,6.359,0,0,1-1.442.465A9.764,9.764,0,0,1,807.547,2427.552Zm-.362-7.359a1.7,1.7,0,0,0-1.282.48,2.128,2.128,0,0,0-.532,1.364h3.61a1.9,1.9,0,0,0-.5-1.364A1.758,1.758,0,0,0,807.185,2420.193Z" fill="#00223d"/>
          <path id="Trazado_4611" data-name="Trazado 4611" d="M822.189,2427.4h-2.572v-5.1a2.308,2.308,0,0,0-.363-1.417,1.365,1.365,0,0,0-1.155-.473,1.793,1.793,0,0,0-1.561.668,3.894,3.894,0,0,0-.48,2.215v4.109h-2.573v-8.734h1.965l.346,1.117h.143a2.667,2.667,0,0,1,1.185-.957,4.319,4.319,0,0,1,1.717-.324,3.454,3.454,0,0,1,2.5.824,3.16,3.16,0,0,1,.852,2.379Z" fill="#00223d"/>
          <path id="Trazado_4612" data-name="Trazado 4612" d="M830.826,2427.4l-.5-1.187h-.067a3.743,3.743,0,0,1-1.337,1.05,4.611,4.611,0,0,1-1.792.293,3.033,3.033,0,0,1-2.138-.718,2.642,2.642,0,0,1-.781-2.047,2.249,2.249,0,0,1,1.051-2.051,6.463,6.463,0,0,1,3.167-.731l1.636-.046v-.383q0-1.329-1.468-1.328a7.14,7.14,0,0,0-2.657.632l-.851-1.609a8.166,8.166,0,0,1,3.61-.789,4.746,4.746,0,0,1,2.909.766,2.731,2.731,0,0,1,1.013,2.328v5.82Zm-.759-4.047-.995.031a3.39,3.39,0,0,0-1.67.375,1.153,1.153,0,0,0-.549,1.047q0,1.008,1.249,1.008a2.073,2.073,0,0,0,1.429-.476,1.613,1.613,0,0,0,.536-1.266Z" fill="#00223d"/>
          <path id="Trazado_4613" data-name="Trazado 4613" d="M841.833,2427.4h-7.448v-1.406l4.369-5.508h-4.107v-1.82h7.034v1.547l-4.251,5.367h4.4Z" fill="#00223d"/>
          <path id="Trazado_4614" data-name="Trazado 4614" d="M849.685,2427.4l-.5-1.187h-.067a3.743,3.743,0,0,1-1.337,1.05,4.611,4.611,0,0,1-1.792.293,3.035,3.035,0,0,1-2.138-.718,2.645,2.645,0,0,1-.78-2.047,2.25,2.25,0,0,1,1.05-2.051,6.463,6.463,0,0,1,3.167-.731l1.636-.046v-.383q0-1.329-1.468-1.328a7.131,7.131,0,0,0-2.656.632l-.852-1.609a8.166,8.166,0,0,1,3.61-.789,4.746,4.746,0,0,1,2.909.766,2.731,2.731,0,0,1,1.013,2.328v5.82Zm-.759-4.047-.995.031a3.39,3.39,0,0,0-1.67.375,1.153,1.153,0,0,0-.549,1.047q0,1.008,1.249,1.008a2.073,2.073,0,0,0,1.429-.476,1.613,1.613,0,0,0,.536-1.266Z" fill="#00223d"/>
          <path id="Trazado_4615" data-name="Trazado 4615" d="M860.709,2424.8a2.34,2.34,0,0,1-1.008,2.047,5.284,5.284,0,0,1-3.016.7,10.205,10.205,0,0,1-1.754-.129,7.046,7.046,0,0,1-1.358-.379v-1.968a9.465,9.465,0,0,0,1.615.523,7.016,7.016,0,0,0,1.582.211q1.4,0,1.4-.75a.6.6,0,0,0-.186-.457,2.681,2.681,0,0,0-.641-.4q-.455-.224-1.214-.52a7.813,7.813,0,0,1-1.6-.781,2.241,2.241,0,0,1-.743-.824,2.558,2.558,0,0,1-.232-1.145,2.031,2.031,0,0,1,.975-1.8,5.041,5.041,0,0,1,2.762-.636,8.367,8.367,0,0,1,3.314.687l-.776,1.719q-.708-.282-1.324-.461a4.447,4.447,0,0,0-1.256-.18q-1.138,0-1.139.571a.663.663,0,0,0,.367.554,10.392,10.392,0,0,0,1.607.7,7.736,7.736,0,0,1,1.619.773,2.349,2.349,0,0,1,.759.828A2.388,2.388,0,0,1,860.709,2424.8Z" fill="#00223d"/>
        </g>
      </g>
    </g>
    <g id="Grupo_10938" data-name="Grupo 10938">
      <rect id="Rectángulo_3747" data-name="Rectángulo 3747" width="134.018" height="52.8" rx="12" transform="translate(934.991 2288.457)" fill="#ff9ea5"/>
      <g id="Grupo_10937" data-name="Grupo 10937">
        <g id="Grupo_10936" data-name="Grupo 10936">
          <path id="Trazado_4616" data-name="Trazado 4616" d="M967.441,2319.467h-1.767v-10.095h6.15v1.4h-4.383v3.155h4.108v1.4h-4.108Z" fill="#00223d"/>
          <path id="Trazado_4617" data-name="Trazado 4617" d="M980.926,2315.635a3.974,3.974,0,0,1-1.036,2.92,3.87,3.87,0,0,1-2.885,1.05,4.2,4.2,0,0,1-2.042-.483,3.3,3.3,0,0,1-1.365-1.388,4.435,4.435,0,0,1-.477-2.1,3.954,3.954,0,0,1,1.029-2.9,3.9,3.9,0,0,1,2.9-1.042,3.779,3.779,0,0,1,2.833,1.067A3.938,3.938,0,0,1,980.926,2315.635Zm-6,0q0,2.644,2.11,2.644,2.087,0,2.087-2.644,0-2.618-2.1-2.617a1.849,1.849,0,0,0-1.6.676A3.251,3.251,0,0,0,974.925,2315.635Z" fill="#00223d"/>
          <path id="Trazado_4618" data-name="Trazado 4618" d="M987.121,2311.692a4.553,4.553,0,0,1,.872.069l-.171,1.512a3.588,3.588,0,0,0-.776-.083,2.337,2.337,0,0,0-1.7.636,2.2,2.2,0,0,0-.652,1.65v3.991h-1.752v-7.637h1.372l.231,1.346h.089a3.127,3.127,0,0,1,1.07-1.084A2.687,2.687,0,0,1,987.121,2311.692Z" fill="#00223d"/>
          <path id="Trazado_4619" data-name="Trazado 4619" d="M992.592,2318.293a4.553,4.553,0,0,0,1.283-.187v1.223a3.728,3.728,0,0,1-.75.2,5.546,5.546,0,0,1-.95.08,2.175,2.175,0,0,1-2.49-2.431v-4.115H988.56v-.718l1.207-.594.6-1.616h1.081v1.7h2.348v1.229h-2.348v4.088a1.1,1.1,0,0,0,.316.866A1.208,1.208,0,0,0,992.592,2318.293Z" fill="#00223d"/>
          <path id="Trazado_4620" data-name="Trazado 4620" d="M1000.681,2319.467l-.351-1.064h-.059a3.321,3.321,0,0,1-1.2.95,4.06,4.06,0,0,1-1.55.252,2.752,2.752,0,0,1-1.9-.608,2.181,2.181,0,0,1-.682-1.719,1.973,1.973,0,0,1,.946-1.781,5.793,5.793,0,0,1,2.885-.657l1.424-.041v-.407a1.473,1.473,0,0,0-.369-1.095,1.579,1.579,0,0,0-1.144-.362,4.243,4.243,0,0,0-1.215.172,9.613,9.613,0,0,0-1.118.408l-.567-1.16a6.39,6.39,0,0,1,1.469-.494,7.308,7.308,0,0,1,1.505-.169,3.774,3.774,0,0,1,2.375.635,2.394,2.394,0,0,1,.8,2v5.144Zm-2.61-1.1a2.276,2.276,0,0,0,1.532-.494,1.722,1.722,0,0,0,.578-1.384v-.663l-1.058.041a3.857,3.857,0,0,0-1.8.384,1.14,1.14,0,0,0-.563,1.046.987.987,0,0,0,.328.791A1.489,1.489,0,0,0,998.071,2318.362Z" fill="#00223d"/>
          <path id="Trazado_4621" data-name="Trazado 4621" d="M1006.13,2319.467h-1.752v-10.744h1.752Z" fill="#00223d"/>
          <path id="Trazado_4622" data-name="Trazado 4622" d="M1012.235,2319.6a4.168,4.168,0,0,1-3.008-1.039,3.776,3.776,0,0,1-1.084-2.862,4.124,4.124,0,0,1,1.006-2.942,3.615,3.615,0,0,1,2.766-1.07,3.548,3.548,0,0,1,2.579.918,3.358,3.358,0,0,1,.946,2.527v.877h-5.494a2.4,2.4,0,0,0,.649,1.709,2.357,2.357,0,0,0,1.722.6,6.855,6.855,0,0,0,1.36-.128,7.531,7.531,0,0,0,1.353-.425v1.319a5.645,5.645,0,0,1-1.3.4A8.5,8.5,0,0,1,1012.235,2319.6Zm-.32-6.684a1.841,1.841,0,0,0-1.339.49,2.251,2.251,0,0,0-.6,1.429h3.742a2.017,2.017,0,0,0-.491-1.432A1.754,1.754,0,0,0,1011.915,2312.921Z" fill="#00223d"/>
          <path id="Trazado_4623" data-name="Trazado 4623" d="M1022.94,2319.467h-6.255v-1l4.167-5.393h-3.913v-1.243h5.881v1.132l-4.077,5.262h4.2Z" fill="#00223d"/>
          <path id="Trazado_4624" data-name="Trazado 4624" d="M1029.887,2319.467l-.35-1.064h-.06a3.311,3.311,0,0,1-1.2.95,4.06,4.06,0,0,1-1.55.252,2.755,2.755,0,0,1-1.9-.608,2.184,2.184,0,0,1-.682-1.719,1.974,1.974,0,0,1,.947-1.781,5.793,5.793,0,0,1,2.885-.657l1.424-.041v-.407a1.473,1.473,0,0,0-.369-1.095,1.582,1.582,0,0,0-1.145-.362,4.254,4.254,0,0,0-1.215.172,9.744,9.744,0,0,0-1.118.408l-.566-1.16a6.384,6.384,0,0,1,1.468-.494,7.324,7.324,0,0,1,1.506-.169,3.77,3.77,0,0,1,2.374.635,2.4,2.4,0,0,1,.8,2v5.144Zm-2.609-1.1a2.278,2.278,0,0,0,1.532-.494,1.722,1.722,0,0,0,.578-1.384v-.663l-1.059.041a3.852,3.852,0,0,0-1.8.384,1.14,1.14,0,0,0-.563,1.046.984.984,0,0,0,.328.791A1.488,1.488,0,0,0,1027.278,2318.362Z" fill="#00223d"/>
          <path id="Trazado_4625" data-name="Trazado 4625" d="M1039.123,2317.292a1.95,1.95,0,0,1-.879,1.716,4.474,4.474,0,0,1-2.52.6,6.356,6.356,0,0,1-2.646-.463v-1.4a6.923,6.923,0,0,0,2.706.621q1.617,0,1.617-.9a.681.681,0,0,0-.179-.484,2.1,2.1,0,0,0-.588-.4,10.684,10.684,0,0,0-1.141-.47,5.371,5.371,0,0,1-1.927-1.022,1.809,1.809,0,0,1-.5-1.326,1.708,1.708,0,0,1,.853-1.522,4.305,4.305,0,0,1,2.322-.542,7.033,7.033,0,0,1,2.751.545l-.566,1.223a6.516,6.516,0,0,0-2.244-.511q-1.387,0-1.387.732a.724.724,0,0,0,.362.607,8.2,8.2,0,0,0,1.577.684,7.439,7.439,0,0,1,1.483.67,2.063,2.063,0,0,1,.686.7A1.908,1.908,0,0,1,1039.123,2317.292Z" fill="#00223d"/>
        </g>
      </g>
    </g>
    <g id="Grupo_10941" data-name="Grupo 10941">
      <rect id="Rectángulo_3748" data-name="Rectángulo 3748" width="134.018" height="52.8" rx="12" transform="translate(934.991 2395.086)" fill="#bf5239"/>
      <g id="Grupo_10940" data-name="Grupo 10940">
        <g id="Grupo_10939" data-name="Grupo 10939">
          <path id="Trazado_4626" data-name="Trazado 4626" d="M985.079,2420.118a7.5,7.5,0,0,1-2.408,6q-2.406,2.084-6.952,2.084h-4.85v-15.864h5.377a9.506,9.506,0,0,1,6.513,2.051A7.245,7.245,0,0,1,985.079,2420.118Zm-3.772.087q0-5.11-4.873-5.111H974.5v10.33h1.558Q981.306,2425.424,981.307,2420.205Z" fill="#fff"/>
          <path id="Trazado_4627" data-name="Trazado 4627" d="M1004.173,2420.248a7.336,7.336,0,1,1-2.091-6.055A8.21,8.21,0,0,1,1004.173,2420.248Zm-12.5,0a6.261,6.261,0,0,0,1.089,4,3.944,3.944,0,0,0,3.257,1.346q4.345,0,4.346-5.35t-4.323-5.36a3.966,3.966,0,0,0-3.268,1.351A6.237,6.237,0,0,0,991.674,2420.248Z" fill="#fff"/>
          <path id="Trazado_4628" data-name="Trazado 4628" d="M1011.295,2428.2h-3.573v-15.864h9.817v2.756h-6.244v4.091h5.81v2.745h-5.81Z" fill="#fff"/>
          <path id="Trazado_4629" data-name="Trazado 4629" d="M1031.373,2428.2l-1.241-3.776h-6.244l-1.242,3.776h-3.912l6.044-15.929h4.44l6.068,15.929Zm-2.108-6.6q-1.722-5.133-1.939-5.806t-.31-1.063q-.387,1.389-2.214,6.869Z" fill="#fff"/>
        </g>
      </g>
    </g>
    <g id="Grupo_10944" data-name="Grupo 10944">
      <rect id="Rectángulo_3749" data-name="Rectángulo 3749" width="134.018" height="52.8" rx="12" transform="translate(934.991 2501.715)" fill="#ffd358"/>
      <g id="Grupo_10943" data-name="Grupo 10943">
        <g id="Grupo_10942" data-name="Grupo 10942">
          <path id="Trazado_4630" data-name="Trazado 4630" d="M957.523,2528.106a5.267,5.267,0,0,1-1.331,3.833,5.924,5.924,0,0,1-7.558.01,5.293,5.293,0,0,1-1.324-3.857,5.219,5.219,0,0,1,1.331-3.839,5.119,5.119,0,0,1,3.8-1.339,5.008,5.008,0,0,1,3.757,1.36A5.258,5.258,0,0,1,957.523,2528.106Zm-8.319,0a4.289,4.289,0,0,0,.812,2.828,3.492,3.492,0,0,0,4.8.01,5.365,5.365,0,0,0,.007-5.655,2.933,2.933,0,0,0-2.389-.96,3,3,0,0,0-2.419.96A4.245,4.245,0,0,0,949.2,2528.106Z" fill="#00223d"/>
          <path id="Trazado_4631" data-name="Trazado 4631" d="M963.859,2533.306a2.983,2.983,0,0,1-2.43-1.043h-.1c.069.644.1,1.036.1,1.174v3.128h-1.752v-11.034h1.417q.059.213.246,1.022h.089a2.813,2.813,0,0,1,2.46-1.16,2.955,2.955,0,0,1,2.4,1.035,5.323,5.323,0,0,1-.015,5.828A2.98,2.98,0,0,1,963.859,2533.306Zm-.425-6.588a1.893,1.893,0,0,0-1.524.567,2.768,2.768,0,0,0-.481,1.809v.241a3.362,3.362,0,0,0,.477,2.02,1.836,1.836,0,0,0,1.558.625,1.619,1.619,0,0,0,1.4-.69,3.363,3.363,0,0,0,.492-1.969,3.236,3.236,0,0,0-.489-1.943A1.671,1.671,0,0,0,963.434,2526.718Z" fill="#00223d"/>
          <path id="Trazado_4632" data-name="Trazado 4632" d="M976.5,2529.335a3.977,3.977,0,0,1-1.036,2.921,3.87,3.87,0,0,1-2.885,1.05,4.19,4.19,0,0,1-2.042-.484,3.29,3.29,0,0,1-1.365-1.387,4.437,4.437,0,0,1-.477-2.1,3.949,3.949,0,0,1,1.029-2.9,3.89,3.89,0,0,1,2.9-1.042,3.779,3.779,0,0,1,2.833,1.067A3.934,3.934,0,0,1,976.5,2529.335Zm-6,0q0,2.644,2.11,2.645,2.086,0,2.087-2.645,0-2.616-2.1-2.617a1.849,1.849,0,0,0-1.6.677A3.241,3.241,0,0,0,970.5,2529.335Z" fill="#00223d"/>
          <path id="Trazado_4633" data-name="Trazado 4633" d="M982.7,2525.393a4.647,4.647,0,0,1,.872.068l-.171,1.513a3.513,3.513,0,0,0-.776-.083,2.341,2.341,0,0,0-1.7.635,2.2,2.2,0,0,0-.652,1.65v3.992h-1.752v-7.637h1.372l.231,1.346h.089a3.121,3.121,0,0,1,1.07-1.084A2.687,2.687,0,0,1,982.7,2525.393Z" fill="#00223d"/>
          <path id="Trazado_4634" data-name="Trazado 4634" d="M988.168,2531.994a4.553,4.553,0,0,0,1.283-.187v1.222a3.72,3.72,0,0,1-.75.2,5.546,5.546,0,0,1-.95.08,2.175,2.175,0,0,1-2.49-2.431v-4.115h-1.125v-.718l1.207-.594.6-1.616h1.08v1.7h2.349v1.229H987.02v4.088a1.1,1.1,0,0,0,.317.866A1.214,1.214,0,0,0,988.168,2531.994Z" fill="#00223d"/>
          <path id="Trazado_4635" data-name="Trazado 4635" d="M996.913,2533.168l-.247-1h-.089a2.446,2.446,0,0,1-1.04.835,3.719,3.719,0,0,1-1.539.3,3.172,3.172,0,0,1-2.237-.691,2.731,2.731,0,0,1-.737-2.092v-4.992h1.766v4.709a1.932,1.932,0,0,0,.388,1.315,1.538,1.538,0,0,0,1.215.439,2.008,2.008,0,0,0,1.621-.612,3.171,3.171,0,0,0,.518-2.047v-3.8h1.76v7.637Z" fill="#00223d"/>
          <path id="Trazado_4636" data-name="Trazado 4636" d="M1008.042,2533.168h-1.759v-4.7a1.947,1.947,0,0,0-.384-1.319,1.546,1.546,0,0,0-1.219-.435,2.015,2.015,0,0,0-1.625.608,3.164,3.164,0,0,0-.514,2.037v3.8h-1.752v-7.637h1.371l.246,1h.09a2.392,2.392,0,0,1,1.058-.843,3.81,3.81,0,0,1,1.521-.3q2.967,0,2.967,2.8Z" fill="#00223d"/>
          <path id="Trazado_4637" data-name="Trazado 4637" d="M1010.375,2523.507a.86.86,0,0,1,.257-.669,1.052,1.052,0,0,1,.735-.235,1.024,1.024,0,0,1,.719.235.857.857,0,0,1,.257.669.844.844,0,0,1-.257.653,1.015,1.015,0,0,1-.719.238,1.043,1.043,0,0,1-.735-.238A.847.847,0,0,1,1010.375,2523.507Zm1.856,9.661h-1.751v-7.637h1.751Z" fill="#00223d"/>
          <path id="Trazado_4638" data-name="Trazado 4638" d="M1017.517,2533.306a2.966,2.966,0,0,1-2.408-1.036,5.318,5.318,0,0,1,.011-5.831,2.991,2.991,0,0,1,2.426-1.046,2.923,2.923,0,0,1,2.475,1.111h.09a8.941,8.941,0,0,1-.127-1.3v-2.783h1.759v10.745h-1.371l-.306-1h-.082A2.878,2.878,0,0,1,1017.517,2533.306Zm.469-1.312a1.987,1.987,0,0,0,1.573-.563,2.8,2.8,0,0,0,.507-1.826v-.228a3.228,3.228,0,0,0-.507-2.051,1.952,1.952,0,0,0-1.588-.608,1.648,1.648,0,0,0-1.423.694,3.352,3.352,0,0,0-.5,1.979,3.265,3.265,0,0,0,.485,1.936A1.678,1.678,0,0,0,1017.986,2531.994Z" fill="#00223d"/>
          <path id="Trazado_4639" data-name="Trazado 4639" d="M1029.406,2533.168l-.35-1.064H1029a3.318,3.318,0,0,1-1.2.95,4.061,4.061,0,0,1-1.55.252,2.752,2.752,0,0,1-1.9-.608,2.181,2.181,0,0,1-.683-1.719,1.975,1.975,0,0,1,.947-1.782,5.808,5.808,0,0,1,2.885-.656l1.424-.041v-.408a1.472,1.472,0,0,0-.369-1.094,1.577,1.577,0,0,0-1.144-.363,4.244,4.244,0,0,0-1.215.173,9.7,9.7,0,0,0-1.119.407l-.566-1.159a6.411,6.411,0,0,1,1.468-.494,7.256,7.256,0,0,1,1.506-.169,3.768,3.768,0,0,1,2.374.635,2.389,2.389,0,0,1,.8,1.995v5.145Zm-2.609-1.1a2.279,2.279,0,0,0,1.532-.494,1.723,1.723,0,0,0,.578-1.384v-.663l-1.059.041a3.857,3.857,0,0,0-1.8.383,1.142,1.142,0,0,0-.563,1.047.983.983,0,0,0,.328.79A1.488,1.488,0,0,0,1026.8,2532.063Z" fill="#00223d"/>
          <path id="Trazado_4640" data-name="Trazado 4640" d="M1035.884,2533.306a2.965,2.965,0,0,1-2.407-1.036,5.318,5.318,0,0,1,.011-5.831,2.99,2.99,0,0,1,2.426-1.046,2.924,2.924,0,0,1,2.475,1.111h.09a8.948,8.948,0,0,1-.127-1.3v-2.783h1.759v10.745h-1.372l-.305-1h-.082A2.878,2.878,0,0,1,1035.884,2533.306Zm.47-1.312a1.987,1.987,0,0,0,1.573-.563,2.8,2.8,0,0,0,.507-1.826v-.228a3.228,3.228,0,0,0-.507-2.051,1.952,1.952,0,0,0-1.588-.608,1.651,1.651,0,0,0-1.424.694,3.351,3.351,0,0,0-.5,1.979,3.265,3.265,0,0,0,.484,1.936A1.679,1.679,0,0,0,1036.354,2531.994Z" fill="#00223d"/>
          <path id="Trazado_4641" data-name="Trazado 4641" d="M1046.216,2533.306a4.171,4.171,0,0,1-3.008-1.039,3.778,3.778,0,0,1-1.084-2.863,4.121,4.121,0,0,1,1.006-2.941,3.615,3.615,0,0,1,2.766-1.07,3.547,3.547,0,0,1,2.579.918,3.358,3.358,0,0,1,.947,2.527v.877h-5.494a2.4,2.4,0,0,0,.648,1.709,2.363,2.363,0,0,0,1.722.6,6.866,6.866,0,0,0,1.361-.128,7.509,7.509,0,0,0,1.353-.425v1.319a5.662,5.662,0,0,1-1.3.4A8.5,8.5,0,0,1,1046.216,2533.306Zm-.32-6.684a1.832,1.832,0,0,0-1.338.49,2.239,2.239,0,0,0-.6,1.429h3.742a2.018,2.018,0,0,0-.492-1.433A1.755,1.755,0,0,0,1045.9,2526.622Z" fill="#00223d"/>
          <path id="Trazado_4642" data-name="Trazado 4642" d="M1056.951,2530.993a1.952,1.952,0,0,1-.88,1.716,4.477,4.477,0,0,1-2.519.6,6.373,6.373,0,0,1-2.647-.463v-1.4a6.908,6.908,0,0,0,2.706.622q1.618,0,1.618-.905a.686.686,0,0,0-.179-.483,2.133,2.133,0,0,0-.589-.4,10.62,10.62,0,0,0-1.141-.469,5.368,5.368,0,0,1-1.926-1.022,1.807,1.807,0,0,1-.5-1.326,1.708,1.708,0,0,1,.854-1.522,4.294,4.294,0,0,1,2.322-.542,7.019,7.019,0,0,1,2.751.545l-.567,1.222a6.54,6.54,0,0,0-2.244-.511q-1.386,0-1.386.732a.724.724,0,0,0,.361.608,8.312,8.312,0,0,0,1.577.683,7.514,7.514,0,0,1,1.483.67,2.067,2.067,0,0,1,.686.7A1.908,1.908,0,0,1,1056.951,2530.993Z" fill="#00223d"/>
        </g>
      </g>
    </g>
    <path id="Trazado_4643" data-name="Trazado 4643" d="M1006.907,2477.73h-1.735v-17.366a2.672,2.672,0,0,0-2.672-2.672h-1a2.672,2.672,0,0,0-2.673,2.672v17.366h-1.734a2.182,2.182,0,0,0-1.952,3.159l4.907,9.814a2.182,2.182,0,0,0,3.9,0l4.907-9.814A2.183,2.183,0,0,0,1006.907,2477.73Z" fill="#8fccd2"/>
    <path id="Trazado_4644" data-name="Trazado 4644" d="M997.093,2365.242h1.735v17.366a2.672,2.672,0,0,0,2.672,2.673h1a2.673,2.673,0,0,0,2.673-2.673v-17.366h1.734a2.182,2.182,0,0,0,1.952-3.158l-4.907-9.815a2.183,2.183,0,0,0-3.9,0l-4.907,9.815A2.182,2.182,0,0,0,997.093,2365.242Z" fill="#8fccd2"/>
    <path id="Trazado_4645" data-name="Trazado 4645" d="M1097.325,2416.579v1.735h-17.366a2.672,2.672,0,0,0-2.672,2.672v1a2.672,2.672,0,0,0,2.672,2.673h17.366v1.734a2.182,2.182,0,0,0,3.159,1.952l9.814-4.906a2.183,2.183,0,0,0,0-3.905l-9.814-4.907A2.183,2.183,0,0,0,1097.325,2416.579Z" fill="#8fccd2"/>
    <path id="Trazado_4646" data-name="Trazado 4646" d="M906.675,2426.393v-1.735h17.366a2.672,2.672,0,0,0,2.672-2.672v-1a2.672,2.672,0,0,0-2.672-2.672H906.675v-1.735a2.183,2.183,0,0,0-3.159-1.952l-9.814,4.907a2.182,2.182,0,0,0,0,3.9l9.814,4.908A2.183,2.183,0,0,0,906.675,2426.393Z" fill="#8fccd2"/>
  </g>
</svg>
