<svg xmlns="http://www.w3.org/2000/svg" width="730.314" height="174.199" viewBox="0 0 730.314 174.199">
  <g id="Grupo_10955" data-name="Grupo 10955" transform="translate(-354.843 -3427.795)">
    <rect id="Rectángulo_3750" data-name="Rectángulo 3750" width="556.8" height="128.4" rx="4.349" transform="translate(354.843 3450.602)" fill="#ff868e"/>
    <path id="Trazado_4647" data-name="Trazado 4647" d="M887.643,3597.64V3432.148a4.348,4.348,0,0,1,6.144-3.96L1082.6,3513.8a4.348,4.348,0,0,1-.1,7.965l-188.817,79.879A4.348,4.348,0,0,1,887.643,3597.64Z" fill="#ff868e"/>
    <g id="Grupo_10948" data-name="Grupo 10948">
      <rect id="Rectángulo_3751" data-name="Rectángulo 3751" width="216.487" height="89.006" rx="12" transform="translate(365.143 3468.396)" fill="#ffb6bb"/>
      <g id="Grupo_10947" data-name="Grupo 10947">
        <g id="Grupo_10946" data-name="Grupo 10946">
          <path id="Trazado_4648" data-name="Trazado 4648" d="M415.186,3498.708v-11.422h1.434v11.422Z" fill="#00223d"/>
          <path id="Trazado_4649" data-name="Trazado 4649" d="M431.574,3498.708v-5.571a2.2,2.2,0,0,0-.473-1.535,1.906,1.906,0,0,0-1.467-.512,2.471,2.471,0,0,0-1.932.7,3.131,3.131,0,0,0-.624,2.14v4.782h-1.4v-5.571a2.2,2.2,0,0,0-.472-1.535,1.919,1.919,0,0,0-1.476-.512,2.376,2.376,0,0,0-1.927.731,3.727,3.727,0,0,0-.612,2.394v4.493h-1.4v-8.563h1.139l.227,1.172h.068a2.686,2.686,0,0,1,1.117-.977,3.645,3.645,0,0,1,1.616-.351,2.785,2.785,0,0,1,2.833,1.453h.068a2.871,2.871,0,0,1,1.2-1.063,3.977,3.977,0,0,1,1.788-.39,3.284,3.284,0,0,1,2.349.746,3.179,3.179,0,0,1,.78,2.387v5.586Z" fill="#00223d"/>
          <path id="Trazado_4650" data-name="Trazado 4650" d="M440.16,3498.864a4.271,4.271,0,0,1-1.649-.309,3.052,3.052,0,0,1-1.253-.949h-.1a10.577,10.577,0,0,1,.1,1.422v3.523h-1.4v-12.406H437l.194,1.172h.067a3.2,3.2,0,0,1,1.257-1.016,4.087,4.087,0,0,1,1.645-.312,3.536,3.536,0,0,1,2.838,1.164,5.811,5.811,0,0,1-.017,6.543A3.54,3.54,0,0,1,440.16,3498.864Zm-.2-7.774a2.587,2.587,0,0,0-2.049.727,3.54,3.54,0,0,0-.65,2.312v.289a4.042,4.042,0,0,0,.65,2.583,2.567,2.567,0,0,0,2.083.777,2.219,2.219,0,0,0,1.877-.9,4.021,4.021,0,0,0,.679-2.476,3.877,3.877,0,0,0-.679-2.457A2.3,2.3,0,0,0,439.957,3491.09Z" fill="#00223d"/>
          <path id="Trazado_4651" data-name="Trazado 4651" d="M452.128,3498.708l-.278-1.219h-.068a3.824,3.824,0,0,1-1.379,1.09,4.5,4.5,0,0,1-1.716.285,3.248,3.248,0,0,1-2.155-.656,2.306,2.306,0,0,1-.78-1.868q0-2.592,4.479-2.718l1.568-.047v-.532a2.065,2.065,0,0,0-.468-1.488,2.018,2.018,0,0,0-1.5-.48,6.479,6.479,0,0,0-2.615.656l-.43-.992a7.169,7.169,0,0,1,3.129-.735,3.717,3.717,0,0,1,2.451.68,2.717,2.717,0,0,1,.8,2.18v5.844Zm-3.163-.915a2.975,2.975,0,0,0,2.054-.664,2.356,2.356,0,0,0,.747-1.859v-.773l-1.4.054a5.447,5.447,0,0,0-2.408.481,1.422,1.422,0,0,0-.738,1.324,1.288,1.288,0,0,0,.46,1.07A2.012,2.012,0,0,0,448.965,3497.793Z" fill="#00223d"/>
          <path id="Trazado_4652" data-name="Trazado 4652" d="M459.744,3498.864a4.107,4.107,0,0,1-3.108-1.145,4.484,4.484,0,0,1-1.1-3.238,4.621,4.621,0,0,1,1.117-3.32,4.19,4.19,0,0,1,3.184-1.172,6.837,6.837,0,0,1,1.333.133,4.647,4.647,0,0,1,1.046.312l-.431,1.1a6.948,6.948,0,0,0-1.012-.285,4.827,4.827,0,0,0-.97-.114q-2.817,0-2.817,3.328a3.741,3.741,0,0,0,.688,2.422,2.471,2.471,0,0,0,2.037.844,6.646,6.646,0,0,0,2.37-.461v1.148A5.394,5.394,0,0,1,459.744,3498.864Z" fill="#00223d"/>
          <path id="Trazado_4653" data-name="Trazado 4653" d="M467.259,3497.793a4.877,4.877,0,0,0,.717-.05,4.587,4.587,0,0,0,.548-.106v.992a2.641,2.641,0,0,1-.67.168,5.476,5.476,0,0,1-.8.067q-2.682,0-2.682-2.617v-5.094h-1.324v-.625l1.324-.539.59-1.828h.81v1.984h2.682v1.008h-2.682v5.039a1.647,1.647,0,0,0,.4,1.187A1.431,1.431,0,0,0,467.259,3497.793Z" fill="#00223d"/>
          <path id="Trazado_4654" data-name="Trazado 4654" d="M478.35,3494.418a4.5,4.5,0,0,1-1.138,3.27,4.175,4.175,0,0,1-3.146,1.176,4.428,4.428,0,0,1-2.2-.539,3.669,3.669,0,0,1-1.484-1.547,5.051,5.051,0,0,1-.523-2.36,4.5,4.5,0,0,1,1.13-3.261,4.163,4.163,0,0,1,3.138-1.168,4.065,4.065,0,0,1,3.083,1.2A4.489,4.489,0,0,1,478.35,3494.418Zm-7.042,0a3.844,3.844,0,0,0,.708,2.5,2.964,2.964,0,0,0,4.171,0,3.825,3.825,0,0,0,.713-2.5,3.767,3.767,0,0,0-.713-2.48,2.6,2.6,0,0,0-2.1-.848,2.557,2.557,0,0,0-2.075.836A3.806,3.806,0,0,0,471.308,3494.418Z" fill="#00223d"/>
          <path id="Trazado_4655" data-name="Trazado 4655" d="M491.255,3496.372a2.093,2.093,0,0,1-.962,1.843,4.787,4.787,0,0,1-2.7.649,6.267,6.267,0,0,1-2.867-.539v-1.2a7.178,7.178,0,0,0,1.429.492,6.417,6.417,0,0,0,1.472.179,3.551,3.551,0,0,0,1.687-.324,1.071,1.071,0,0,0,.122-1.843,7.583,7.583,0,0,0-1.826-.84,10.215,10.215,0,0,1-1.834-.778,2.4,2.4,0,0,1-.81-.754,1.851,1.851,0,0,1-.266-1.007,1.886,1.886,0,0,1,.92-1.653,4.549,4.549,0,0,1,2.522-.6,7.883,7.883,0,0,1,2.918.562l-.5,1.055a7.148,7.148,0,0,0-2.522-.531,3.091,3.091,0,0,0-1.5.289.886.886,0,0,0-.506.8.921.921,0,0,0,.19.586,1.839,1.839,0,0,0,.611.461,14.072,14.072,0,0,0,1.62.632,6.2,6.2,0,0,1,2.222,1.118A1.891,1.891,0,0,1,491.255,3496.372Z" fill="#00223d"/>
          <path id="Trazado_4656" data-name="Trazado 4656" d="M501.511,3494.418a4.5,4.5,0,0,1-1.138,3.27,4.177,4.177,0,0,1-3.146,1.176,4.428,4.428,0,0,1-2.2-.539,3.664,3.664,0,0,1-1.484-1.547,5.051,5.051,0,0,1-.523-2.36,4.493,4.493,0,0,1,1.13-3.261,4.159,4.159,0,0,1,3.137-1.168,4.063,4.063,0,0,1,3.083,1.2A4.485,4.485,0,0,1,501.511,3494.418Zm-7.043,0a3.844,3.844,0,0,0,.709,2.5,2.963,2.963,0,0,0,4.171,0,3.824,3.824,0,0,0,.712-2.5,3.767,3.767,0,0,0-.712-2.48,2.6,2.6,0,0,0-2.1-.848,2.555,2.555,0,0,0-2.074.836A3.805,3.805,0,0,0,494.468,3494.418Z" fill="#00223d"/>
          <path id="Trazado_4657" data-name="Trazado 4657" d="M507.66,3498.864a4.1,4.1,0,0,1-3.108-1.145,4.48,4.48,0,0,1-1.1-3.238,4.617,4.617,0,0,1,1.118-3.32,4.188,4.188,0,0,1,3.184-1.172,6.827,6.827,0,0,1,1.332.133,4.647,4.647,0,0,1,1.046.312l-.43,1.1a7.021,7.021,0,0,0-1.012-.285,4.843,4.843,0,0,0-.97-.114q-2.817,0-2.817,3.328a3.747,3.747,0,0,0,.687,2.422,2.471,2.471,0,0,0,2.037.844,6.646,6.646,0,0,0,2.37-.461v1.148A5.389,5.389,0,0,1,507.66,3498.864Z" fill="#00223d"/>
          <path id="Trazado_4658" data-name="Trazado 4658" d="M512.071,3487.825a.824.824,0,0,1,.236-.653.926.926,0,0,1,1.172,0,.986.986,0,0,1,0,1.3.849.849,0,0,1-.582.215.781.781,0,0,1-.826-.867Zm1.518,10.883h-1.4v-8.563h1.4Z" fill="#00223d"/>
          <path id="Trazado_4659" data-name="Trazado 4659" d="M522.243,3498.708l-.279-1.219H521.9a3.832,3.832,0,0,1-1.379,1.09,4.509,4.509,0,0,1-1.717.285,3.25,3.25,0,0,1-2.155-.656,2.306,2.306,0,0,1-.78-1.868q0-2.592,4.479-2.718l1.569-.047v-.532a2.065,2.065,0,0,0-.468-1.488,2.022,2.022,0,0,0-1.5-.48,6.475,6.475,0,0,0-2.614.656l-.43-.992a7.169,7.169,0,0,1,3.129-.735,3.712,3.712,0,0,1,2.45.68,2.717,2.717,0,0,1,.8,2.18v5.844Zm-3.163-.915a2.972,2.972,0,0,0,2.053-.664,2.356,2.356,0,0,0,.747-1.859v-.773l-1.4.054a5.447,5.447,0,0,0-2.408.481,1.422,1.422,0,0,0-.738,1.324,1.286,1.286,0,0,0,.46,1.07A2.01,2.01,0,0,0,519.08,3497.793Z" fill="#00223d"/>
          <path id="Trazado_4660" data-name="Trazado 4660" d="M527.565,3498.708h-1.4v-12.157h1.4Z" fill="#00223d"/>
          <path id="Trazado_4661" data-name="Trazado 4661" d="M532,3496.848l.127.18a18.681,18.681,0,0,1-.633,1.816q-.414,1.036-.86,1.926H529.58q.228-.813.5-2.008t.384-1.914Z" fill="#00223d"/>
          <path id="Trazado_4662" data-name="Trazado 4662" d="M387.564,3518.064a4.432,4.432,0,0,1-3.235-1.156,4.28,4.28,0,0,1-1.185-3.211,4.721,4.721,0,0,1,1.1-3.289,3.785,3.785,0,0,1,2.956-1.219,3.629,3.629,0,0,1,2.75,1.059,3.876,3.876,0,0,1,1.012,2.793v.82H384.6a3.239,3.239,0,0,0,.822,2.289,2.968,2.968,0,0,0,2.2.781,7.941,7.941,0,0,0,2.952-.578v1.156a7.761,7.761,0,0,1-1.4.426A8.5,8.5,0,0,1,387.564,3518.064Zm-.38-7.789a2.382,2.382,0,0,0-1.775.672,2.975,2.975,0,0,0-.781,1.859h4.833a2.714,2.714,0,0,0-.59-1.879A2.162,2.162,0,0,0,387.184,3510.275Z" fill="#00223d"/>
          <path id="Trazado_4663" data-name="Trazado 4663" d="M397.044,3518.064a4.106,4.106,0,0,1-3.108-1.145,4.478,4.478,0,0,1-1.1-3.238,4.622,4.622,0,0,1,1.118-3.32,4.192,4.192,0,0,1,3.184-1.172,6.827,6.827,0,0,1,1.332.133,4.7,4.7,0,0,1,1.046.312l-.43,1.1a7.142,7.142,0,0,0-1.012-.285,4.915,4.915,0,0,0-.97-.114q-2.817,0-2.817,3.329a3.746,3.746,0,0,0,.687,2.421,2.471,2.471,0,0,0,2.037.844,6.636,6.636,0,0,0,2.37-.461v1.149A5.387,5.387,0,0,1,397.044,3518.064Z" fill="#00223d"/>
          <path id="Trazado_4664" data-name="Trazado 4664" d="M409.552,3513.619a4.5,4.5,0,0,1-1.139,3.269,4.174,4.174,0,0,1-3.146,1.176,4.427,4.427,0,0,1-2.2-.539,3.666,3.666,0,0,1-1.485-1.547,5.062,5.062,0,0,1-.522-2.359,4.494,4.494,0,0,1,1.13-3.262,4.164,4.164,0,0,1,3.137-1.168,4.065,4.065,0,0,1,3.083,1.2A4.486,4.486,0,0,1,409.552,3513.619Zm-7.043,0a3.842,3.842,0,0,0,.709,2.5,2.966,2.966,0,0,0,4.171,0,3.828,3.828,0,0,0,.712-2.5,3.77,3.77,0,0,0-.712-2.481,2.6,2.6,0,0,0-2.105-.847,2.555,2.555,0,0,0-2.075.836A3.808,3.808,0,0,0,402.509,3513.619Z" fill="#00223d"/>
          <path id="Trazado_4665" data-name="Trazado 4665" d="M418.332,3517.908v-5.539a2.129,2.129,0,0,0-.515-1.563,2.2,2.2,0,0,0-1.611-.515,2.775,2.775,0,0,0-2.125.726,3.473,3.473,0,0,0-.675,2.4v4.492h-1.4v-8.563h1.139l.228,1.172h.067a2.8,2.8,0,0,1,1.206-.98,4.176,4.176,0,0,1,1.729-.348,3.7,3.7,0,0,1,2.514.746,3.036,3.036,0,0,1,.843,2.387v5.586Z" fill="#00223d"/>
          <path id="Trazado_4666" data-name="Trazado 4666" d="M430.587,3513.619a4.5,4.5,0,0,1-1.139,3.269,4.173,4.173,0,0,1-3.146,1.176,4.427,4.427,0,0,1-2.2-.539,3.658,3.658,0,0,1-1.484-1.547,5.05,5.05,0,0,1-.523-2.359,4.494,4.494,0,0,1,1.13-3.262,4.164,4.164,0,0,1,3.137-1.168,4.063,4.063,0,0,1,3.083,1.2A4.486,4.486,0,0,1,430.587,3513.619Zm-7.043,0a3.848,3.848,0,0,0,.709,2.5,2.966,2.966,0,0,0,4.171,0,3.828,3.828,0,0,0,.712-2.5,3.771,3.771,0,0,0-.712-2.481,2.6,2.6,0,0,0-2.105-.847,2.555,2.555,0,0,0-2.075.836A3.808,3.808,0,0,0,423.544,3513.619Zm1.62-5.6q.4-.483.873-1.172a13.091,13.091,0,0,0,.738-1.2h1.7v.164a11.5,11.5,0,0,1-1.105,1.25,12,12,0,0,1-1.273,1.148h-.936Z" fill="#00223d"/>
          <path id="Trazado_4667" data-name="Trazado 4667" d="M444.824,3517.908v-5.571a2.2,2.2,0,0,0-.472-1.535,1.907,1.907,0,0,0-1.468-.511,2.469,2.469,0,0,0-1.931.7,3.133,3.133,0,0,0-.624,2.141v4.781h-1.4v-5.571a2.2,2.2,0,0,0-.473-1.535,1.919,1.919,0,0,0-1.476-.511,2.377,2.377,0,0,0-1.927.73,3.728,3.728,0,0,0-.612,2.4v4.492h-1.4v-8.563h1.139l.228,1.172h.067a2.674,2.674,0,0,1,1.118-.976,3.628,3.628,0,0,1,1.615-.352,2.787,2.787,0,0,1,2.834,1.453h.067a2.867,2.867,0,0,1,1.2-1.062,3.964,3.964,0,0,1,1.788-.391,3.284,3.284,0,0,1,2.349.746,3.18,3.18,0,0,1,.78,2.387v5.586Z" fill="#00223d"/>
          <path id="Trazado_4668" data-name="Trazado 4668" d="M448.991,3507.025a.821.821,0,0,1,.236-.652.926.926,0,0,1,1.172,0,.81.81,0,0,1,.245.648.821.821,0,0,1-.245.652.849.849,0,0,1-.582.215.781.781,0,0,1-.826-.867Zm1.518,10.883h-1.4v-8.563h1.4Z" fill="#00223d"/>
          <path id="Trazado_4669" data-name="Trazado 4669" d="M457.172,3518.064a4.1,4.1,0,0,1-3.108-1.145,4.478,4.478,0,0,1-1.1-3.238,4.622,4.622,0,0,1,1.118-3.32,4.192,4.192,0,0,1,3.184-1.172,6.827,6.827,0,0,1,1.332.133,4.7,4.7,0,0,1,1.046.312l-.43,1.1a7.143,7.143,0,0,0-1.012-.285,4.915,4.915,0,0,0-.97-.114q-2.817,0-2.817,3.329a3.746,3.746,0,0,0,.687,2.421,2.471,2.471,0,0,0,2.037.844,6.641,6.641,0,0,0,2.37-.461v1.149A5.39,5.39,0,0,1,457.172,3518.064Z" fill="#00223d"/>
          <path id="Trazado_4670" data-name="Trazado 4670" d="M469.68,3513.619a4.5,4.5,0,0,1-1.139,3.269,4.174,4.174,0,0,1-3.146,1.176,4.427,4.427,0,0,1-2.2-.539,3.666,3.666,0,0,1-1.485-1.547,5.062,5.062,0,0,1-.523-2.359,4.5,4.5,0,0,1,1.131-3.262,4.164,4.164,0,0,1,3.137-1.168,4.065,4.065,0,0,1,3.083,1.2A4.486,4.486,0,0,1,469.68,3513.619Zm-7.043,0a3.842,3.842,0,0,0,.709,2.5,2.965,2.965,0,0,0,4.17,0,3.822,3.822,0,0,0,.713-2.5,3.765,3.765,0,0,0-.713-2.481,2.6,2.6,0,0,0-2.1-.847,2.554,2.554,0,0,0-2.075.836A3.8,3.8,0,0,0,462.637,3513.619Z" fill="#00223d"/>
          <path id="Trazado_4671" data-name="Trazado 4671" d="M473.6,3516.048l.126.18a18.309,18.309,0,0,1-.632,1.816q-.414,1.037-.861,1.926h-1.054q.228-.813.5-2.008t.384-1.914Z" fill="#00223d"/>
          <path id="Trazado_4672" data-name="Trazado 4672" d="M486.54,3517.908l-.278-1.219h-.068a3.826,3.826,0,0,1-1.379,1.09,4.5,4.5,0,0,1-1.716.285,3.248,3.248,0,0,1-2.155-.656,2.305,2.305,0,0,1-.78-1.867q0-2.594,4.478-2.719l1.569-.047v-.531a2.066,2.066,0,0,0-.468-1.489,2.018,2.018,0,0,0-1.5-.48,6.491,6.491,0,0,0-2.615.656l-.43-.992a7.146,7.146,0,0,1,3.129-.734,3.712,3.712,0,0,1,2.45.679,2.714,2.714,0,0,1,.8,2.18v5.844Zm-3.163-.914a2.98,2.98,0,0,0,2.054-.664,2.363,2.363,0,0,0,.746-1.86v-.773l-1.4.055a5.453,5.453,0,0,0-2.408.48,1.424,1.424,0,0,0-.738,1.324,1.289,1.289,0,0,0,.46,1.071A2.008,2.008,0,0,0,483.377,3516.994Z" fill="#00223d"/>
          <path id="Trazado_4673" data-name="Trazado 4673" d="M502.245,3517.908v-5.571a2.2,2.2,0,0,0-.473-1.535,1.906,1.906,0,0,0-1.467-.511,2.47,2.47,0,0,0-1.932.7,3.133,3.133,0,0,0-.624,2.141v4.781h-1.4v-5.571a2.2,2.2,0,0,0-.472-1.535,1.919,1.919,0,0,0-1.476-.511,2.38,2.38,0,0,0-1.928.73,3.735,3.735,0,0,0-.611,2.4v4.492h-1.4v-8.563H491.6l.227,1.172h.068a2.678,2.678,0,0,1,1.117-.976,3.627,3.627,0,0,1,1.615-.352,2.786,2.786,0,0,1,2.834,1.453h.068a2.864,2.864,0,0,1,1.2-1.062,3.965,3.965,0,0,1,1.789-.391,3.287,3.287,0,0,1,2.349.746,3.18,3.18,0,0,1,.78,2.387v5.586Z" fill="#00223d"/>
          <path id="Trazado_4674" data-name="Trazado 4674" d="M510.831,3509.205a3.56,3.56,0,0,1,2.829,1.152,5.787,5.787,0,0,1-.008,6.539,3.541,3.541,0,0,1-2.821,1.168,4.27,4.27,0,0,1-1.649-.309,3.052,3.052,0,0,1-1.253-.949h-.1l-.3,1.1h-1v-12.156h1.4v2.953q0,.993-.067,1.781h.067A3.426,3.426,0,0,1,510.831,3509.205Zm-.2,1.086a2.54,2.54,0,0,0-2.066.761,5.487,5.487,0,0,0,.017,5.149,2.567,2.567,0,0,0,2.083.777,2.22,2.22,0,0,0,1.923-.871,4.214,4.214,0,0,0,.633-2.5,4.055,4.055,0,0,0-.633-2.492A2.315,2.315,0,0,0,510.628,3510.291Z" fill="#00223d"/>
          <path id="Trazado_4675" data-name="Trazado 4675" d="M517,3507.025a.824.824,0,0,1,.236-.652.927.927,0,0,1,1.173,0,.81.81,0,0,1,.244.648.82.82,0,0,1-.244.652.907.907,0,0,1-1.173,0A.838.838,0,0,1,517,3507.025Zm1.518,10.883h-1.4v-8.563h1.4Z" fill="#00223d"/>
          <path id="Trazado_4676" data-name="Trazado 4676" d="M525.389,3518.064a4.432,4.432,0,0,1-3.235-1.156,4.28,4.28,0,0,1-1.185-3.211,4.721,4.721,0,0,1,1.1-3.289,3.784,3.784,0,0,1,2.956-1.219,3.625,3.625,0,0,1,2.749,1.059,3.872,3.872,0,0,1,1.013,2.793v.82H522.42a3.239,3.239,0,0,0,.822,2.289,2.967,2.967,0,0,0,2.2.781,7.945,7.945,0,0,0,2.952-.578v1.156a7.762,7.762,0,0,1-1.4.426A8.5,8.5,0,0,1,525.389,3518.064Zm-.38-7.789a2.386,2.386,0,0,0-1.776.672,2.979,2.979,0,0,0-.78,1.859h4.833a2.714,2.714,0,0,0-.59-1.879A2.162,2.162,0,0,0,525.009,3510.275Z" fill="#00223d"/>
          <path id="Trazado_4677" data-name="Trazado 4677" d="M537.5,3517.908v-5.539a2.129,2.129,0,0,0-.514-1.563,2.2,2.2,0,0,0-1.611-.515,2.777,2.777,0,0,0-2.126.726,3.473,3.473,0,0,0-.674,2.4v4.492h-1.4v-8.563h1.138l.228,1.172h.067a2.8,2.8,0,0,1,1.206-.98,4.179,4.179,0,0,1,1.729-.348,3.7,3.7,0,0,1,2.514.746,3.036,3.036,0,0,1,.843,2.387v5.586Z" fill="#00223d"/>
          <path id="Trazado_4678" data-name="Trazado 4678" d="M544.762,3516.994a4.929,4.929,0,0,0,.717-.051,4.435,4.435,0,0,0,.548-.106v.993a2.7,2.7,0,0,1-.67.168,5.464,5.464,0,0,1-.8.066q-2.682,0-2.682-2.617v-5.094h-1.325v-.625l1.325-.539.59-1.828h.81v1.984h2.682v1.008h-2.682v5.039a1.652,1.652,0,0,0,.4,1.188A1.435,1.435,0,0,0,544.762,3516.994Z" fill="#00223d"/>
          <path id="Trazado_4679" data-name="Trazado 4679" d="M553.559,3517.908l-.278-1.219h-.068a3.818,3.818,0,0,1-1.379,1.09,4.5,4.5,0,0,1-1.716.285,3.248,3.248,0,0,1-2.155-.656,2.305,2.305,0,0,1-.78-1.867q0-2.594,4.478-2.719l1.569-.047v-.531a2.067,2.067,0,0,0-.468-1.489,2.018,2.018,0,0,0-1.5-.48,6.5,6.5,0,0,0-2.615.656l-.43-.992a7.146,7.146,0,0,1,3.129-.734,3.717,3.717,0,0,1,2.451.679,2.717,2.717,0,0,1,.8,2.18v5.844Zm-3.163-.914a2.98,2.98,0,0,0,2.054-.664,2.36,2.36,0,0,0,.746-1.86v-.773l-1.4.055a5.453,5.453,0,0,0-2.408.48,1.424,1.424,0,0,0-.738,1.324,1.291,1.291,0,0,0,.46,1.071A2.008,2.008,0,0,0,550.4,3516.994Z" fill="#00223d"/>
          <path id="Trazado_4680" data-name="Trazado 4680" d="M558.881,3517.908h-1.4v-12.156h1.4Z" fill="#00223d"/>
          <path id="Trazado_4681" data-name="Trazado 4681" d="M563.318,3516.048l.126.18a18.316,18.316,0,0,1-.632,1.816q-.414,1.037-.861,1.926H560.9q.228-.813.5-2.008t.384-1.914Z" fill="#00223d"/>
          <path id="Trazado_4682" data-name="Trazado 4682" d="M449.733,3537.264a4.293,4.293,0,0,1-1.649-.308,3.073,3.073,0,0,1-1.253-.95h-.1a10.563,10.563,0,0,1,.1,1.422v3.524h-1.4v-12.407h1.139l.194,1.172h.067a3.2,3.2,0,0,1,1.257-1.015,4.087,4.087,0,0,1,1.645-.313,3.537,3.537,0,0,1,2.838,1.164,5.81,5.81,0,0,1-.017,6.543A3.54,3.54,0,0,1,449.733,3537.264Zm-.2-7.773a2.586,2.586,0,0,0-2.049.726,3.54,3.54,0,0,0-.65,2.313v.289a4.042,4.042,0,0,0,.65,2.582,2.567,2.567,0,0,0,2.083.777,2.224,2.224,0,0,0,1.877-.9,4.029,4.029,0,0,0,.679-2.477,3.882,3.882,0,0,0-.679-2.457A2.3,2.3,0,0,0,449.53,3529.491Z" fill="#00223d"/>
          <path id="Trazado_4683" data-name="Trazado 4683" d="M463.995,3532.819a4.5,4.5,0,0,1-1.138,3.269,4.171,4.171,0,0,1-3.146,1.176,4.42,4.42,0,0,1-2.2-.539,3.658,3.658,0,0,1-1.484-1.547,5.049,5.049,0,0,1-.523-2.359,4.5,4.5,0,0,1,1.13-3.262,4.166,4.166,0,0,1,3.138-1.168,4.062,4.062,0,0,1,3.082,1.2A4.484,4.484,0,0,1,463.995,3532.819Zm-7.042,0a3.846,3.846,0,0,0,.708,2.5,2.966,2.966,0,0,0,4.171,0,3.828,3.828,0,0,0,.713-2.5,3.769,3.769,0,0,0-.713-2.481,2.594,2.594,0,0,0-2.1-.847,2.55,2.55,0,0,0-2.075.836A3.8,3.8,0,0,0,456.953,3532.819Z" fill="#00223d"/>
          <path id="Trazado_4684" data-name="Trazado 4684" d="M467.85,3537.108h-1.4v-12.156h1.4Z" fill="#00223d"/>
          <path id="Trazado_4685" data-name="Trazado 4685" d="M470.76,3527.217q.4-.484.873-1.172a13.124,13.124,0,0,0,.738-1.195h1.7v.164a11.591,11.591,0,0,1-1.105,1.25,12.14,12.14,0,0,1-1.273,1.149h-.936Zm1.459,9.891h-1.4v-8.563h1.4Z" fill="#00223d"/>
          <path id="Trazado_4686" data-name="Trazado 4686" d="M478.173,3536.194a4.919,4.919,0,0,0,.717-.051,5.176,5.176,0,0,0,.548-.1v.992a2.774,2.774,0,0,1-.67.168,5.465,5.465,0,0,1-.8.066q-2.682,0-2.682-2.617v-5.094h-1.324v-.625l1.324-.539.59-1.828h.81v1.984h2.682v1.008h-2.682v5.039a1.654,1.654,0,0,0,.4,1.188A1.435,1.435,0,0,0,478.173,3536.194Z" fill="#00223d"/>
          <path id="Trazado_4687" data-name="Trazado 4687" d="M481.167,3526.225a.82.82,0,0,1,.237-.652.926.926,0,0,1,1.172,0,.809.809,0,0,1,.245.648.821.821,0,0,1-.245.652.849.849,0,0,1-.582.215.782.782,0,0,1-.827-.867Zm1.519,10.883h-1.4v-8.563h1.4Z" fill="#00223d"/>
          <path id="Trazado_4688" data-name="Trazado 4688" d="M489.349,3537.264a4.113,4.113,0,0,1-3.108-1.144,4.484,4.484,0,0,1-1.1-3.239,4.621,4.621,0,0,1,1.118-3.32,4.192,4.192,0,0,1,3.184-1.172,6.771,6.771,0,0,1,1.332.133,4.616,4.616,0,0,1,1.046.313l-.43,1.1a7.015,7.015,0,0,0-1.012-.285,4.905,4.905,0,0,0-.97-.113q-2.817,0-2.817,3.328a3.751,3.751,0,0,0,.687,2.422,2.473,2.473,0,0,0,2.037.843,6.641,6.641,0,0,0,2.37-.461v1.149A5.394,5.394,0,0,1,489.349,3537.264Z" fill="#00223d"/>
          <path id="Trazado_4689" data-name="Trazado 4689" d="M501.857,3532.819a4.5,4.5,0,0,1-1.139,3.269,4.171,4.171,0,0,1-3.146,1.176,4.419,4.419,0,0,1-2.2-.539,3.667,3.667,0,0,1-1.485-1.547,5.061,5.061,0,0,1-.523-2.359,4.494,4.494,0,0,1,1.131-3.262,4.164,4.164,0,0,1,3.137-1.168,4.066,4.066,0,0,1,3.083,1.2A4.484,4.484,0,0,1,501.857,3532.819Zm-7.043,0a3.84,3.84,0,0,0,.709,2.5,2.965,2.965,0,0,0,4.17,0,3.822,3.822,0,0,0,.713-2.5,3.763,3.763,0,0,0-.713-2.481,2.593,2.593,0,0,0-2.1-.847,2.551,2.551,0,0,0-2.075.836A3.8,3.8,0,0,0,494.814,3532.819Z" fill="#00223d"/>
        </g>
      </g>
    </g>
    <g id="Grupo_10951" data-name="Grupo 10951">
      <rect id="Rectángulo_3752" data-name="Rectángulo 3752" width="216.487" height="89.006" rx="12" transform="translate(610.74 3468.396)" fill="#ffb6bb"/>
      <g id="Grupo_10950" data-name="Grupo 10950">
        <g id="Grupo_10949" data-name="Grupo 10949">
          <path id="Trazado_4690" data-name="Trazado 4690" d="M649.13,3507.708h-1.636l-6.739-9.586h-.068q.135,1.688.135,3.093v6.493H639.5v-11.422h1.62l6.722,9.547h.067c-.011-.141-.036-.592-.076-1.356s-.053-1.309-.042-1.637v-6.554h1.341Z" fill="#00223d"/>
          <path id="Trazado_4691" data-name="Trazado 4691" d="M652.192,3496.825a.828.828,0,0,1,.236-.653.926.926,0,0,1,1.172,0,.986.986,0,0,1,0,1.3.848.848,0,0,1-.582.215.78.78,0,0,1-.826-.867Zm1.518,10.883h-1.4v-8.563h1.4Z" fill="#00223d"/>
          <path id="Trazado_4692" data-name="Trazado 4692" d="M658.7,3507.708l-3.508-8.563h1.5l1.99,5.078a22.851,22.851,0,0,1,.793,2.313h.068a16.282,16.282,0,0,1,.586-1.715q.493-1.3,2.214-5.676h1.5l-3.509,8.563Z" fill="#00223d"/>
          <path id="Trazado_4693" data-name="Trazado 4693" d="M669.238,3507.864a4.432,4.432,0,0,1-3.235-1.156,4.28,4.28,0,0,1-1.185-3.211,4.721,4.721,0,0,1,1.1-3.289,3.785,3.785,0,0,1,2.956-1.219,3.625,3.625,0,0,1,2.749,1.058,3.873,3.873,0,0,1,1.013,2.793v.821h-6.368a3.239,3.239,0,0,0,.822,2.289,2.968,2.968,0,0,0,2.2.781,7.941,7.941,0,0,0,2.952-.578v1.156a7.861,7.861,0,0,1-1.4.426A8.5,8.5,0,0,1,669.238,3507.864Zm-.38-7.789a2.378,2.378,0,0,0-1.775.672,2.974,2.974,0,0,0-.781,1.859h4.833a2.714,2.714,0,0,0-.59-1.879A2.162,2.162,0,0,0,668.858,3500.075Z" fill="#00223d"/>
          <path id="Trazado_4694" data-name="Trazado 4694" d="M676.424,3507.708h-1.4v-12.157h1.4Z" fill="#00223d"/>
          <path id="Trazado_4695" data-name="Trazado 4695" d="M685.28,3507.708h-1.4v-12.157h1.4Z" fill="#00223d"/>
          <path id="Trazado_4696" data-name="Trazado 4696" d="M696.227,3503.418a4.5,4.5,0,0,1-1.138,3.27,4.175,4.175,0,0,1-3.146,1.176,4.428,4.428,0,0,1-2.2-.539,3.669,3.669,0,0,1-1.484-1.547,5.051,5.051,0,0,1-.523-2.36,4.5,4.5,0,0,1,1.13-3.261,4.163,4.163,0,0,1,3.138-1.168,4.065,4.065,0,0,1,3.083,1.2A4.489,4.489,0,0,1,696.227,3503.418Zm-7.042,0a3.844,3.844,0,0,0,.708,2.5,2.964,2.964,0,0,0,4.171,0,3.825,3.825,0,0,0,.713-2.5,3.767,3.767,0,0,0-.713-2.48,2.6,2.6,0,0,0-2.1-.848,2.557,2.557,0,0,0-2.075.836A3.806,3.806,0,0,0,689.185,3503.418Z" fill="#00223d"/>
          <path id="Trazado_4697" data-name="Trazado 4697" d="M702.376,3507.864a4.107,4.107,0,0,1-3.108-1.145,4.48,4.48,0,0,1-1.1-3.238,4.621,4.621,0,0,1,1.118-3.32,4.188,4.188,0,0,1,3.184-1.172,6.828,6.828,0,0,1,1.332.133,4.631,4.631,0,0,1,1.046.312l-.43,1.1a6.985,6.985,0,0,0-1.012-.285,4.843,4.843,0,0,0-.97-.114q-2.817,0-2.817,3.328a3.747,3.747,0,0,0,.687,2.422,2.474,2.474,0,0,0,2.037.844,6.637,6.637,0,0,0,2.37-.461v1.148A5.386,5.386,0,0,1,702.376,3507.864Z" fill="#00223d"/>
          <path id="Trazado_4698" data-name="Trazado 4698" d="M712.59,3507.708l-.278-1.219h-.068a3.832,3.832,0,0,1-1.379,1.09,4.5,4.5,0,0,1-1.716.285,3.248,3.248,0,0,1-2.155-.656,2.306,2.306,0,0,1-.78-1.868q0-2.592,4.478-2.718l1.569-.047v-.532a2.065,2.065,0,0,0-.468-1.488,2.018,2.018,0,0,0-1.5-.48,6.475,6.475,0,0,0-2.615.656l-.43-.992a7.169,7.169,0,0,1,3.129-.735,3.712,3.712,0,0,1,2.45.68,2.714,2.714,0,0,1,.8,2.18v5.844Zm-3.163-.915a2.975,2.975,0,0,0,2.054-.664,2.359,2.359,0,0,0,.746-1.859v-.773l-1.4.054a5.447,5.447,0,0,0-2.408.481,1.422,1.422,0,0,0-.738,1.324,1.286,1.286,0,0,0,.46,1.07A2.01,2.01,0,0,0,709.427,3506.793Z" fill="#00223d"/>
          <path id="Trazado_4699" data-name="Trazado 4699" d="M717.912,3507.708h-1.4v-12.157h1.4Z" fill="#00223d"/>
          <path id="Trazado_4700" data-name="Trazado 4700" d="M722.348,3505.848l.127.18a18.171,18.171,0,0,1-.633,1.816q-.412,1.036-.86,1.926h-1.054q.228-.813.5-2.008t.383-1.914Z" fill="#00223d"/>
          <path id="Trazado_4701" data-name="Trazado 4701" d="M735.928,3507.708v-5.54a2.128,2.128,0,0,0-.515-1.562,2.2,2.2,0,0,0-1.611-.516,2.776,2.776,0,0,0-2.125.727,3.472,3.472,0,0,0-.675,2.4v4.493h-1.4v-8.563h1.139l.227,1.172h.068a2.81,2.81,0,0,1,1.206-.981,4.192,4.192,0,0,1,1.729-.347,3.694,3.694,0,0,1,2.513.746,3.033,3.033,0,0,1,.844,2.387v5.586Z" fill="#00223d"/>
          <path id="Trazado_4702" data-name="Trazado 4702" d="M745.889,3507.708l-.279-1.219h-.067a3.832,3.832,0,0,1-1.379,1.09,4.509,4.509,0,0,1-1.717.285,3.25,3.25,0,0,1-2.155-.656,2.306,2.306,0,0,1-.78-1.868q0-2.592,4.479-2.718l1.569-.047v-.532a2.065,2.065,0,0,0-.468-1.488,2.022,2.022,0,0,0-1.5-.48,6.475,6.475,0,0,0-2.614.656l-.43-.992a7.169,7.169,0,0,1,3.129-.735,3.712,3.712,0,0,1,2.45.68,2.717,2.717,0,0,1,.8,2.18v5.844Zm-3.163-.915a2.972,2.972,0,0,0,2.053-.664,2.356,2.356,0,0,0,.747-1.859v-.773l-1.4.054a5.447,5.447,0,0,0-2.408.481,1.422,1.422,0,0,0-.738,1.324,1.286,1.286,0,0,0,.46,1.07A2.01,2.01,0,0,0,742.726,3506.793Z" fill="#00223d"/>
          <path id="Trazado_4703" data-name="Trazado 4703" d="M753.505,3507.864a4.106,4.106,0,0,1-3.108-1.145,4.48,4.48,0,0,1-1.1-3.238,4.621,4.621,0,0,1,1.118-3.32,4.188,4.188,0,0,1,3.184-1.172,6.827,6.827,0,0,1,1.332.133,4.646,4.646,0,0,1,1.046.312l-.43,1.1a6.986,6.986,0,0,0-1.012-.285,4.843,4.843,0,0,0-.97-.114q-2.817,0-2.817,3.328a3.747,3.747,0,0,0,.687,2.422,2.471,2.471,0,0,0,2.037.844,6.646,6.646,0,0,0,2.37-.461v1.148A5.389,5.389,0,0,1,753.505,3507.864Z" fill="#00223d"/>
          <path id="Trazado_4704" data-name="Trazado 4704" d="M757.916,3496.825a.828.828,0,0,1,.236-.653.926.926,0,0,1,1.172,0,.986.986,0,0,1,0,1.3.848.848,0,0,1-.582.215.78.78,0,0,1-.826-.867Zm1.518,10.883h-1.4v-8.563h1.4Z" fill="#00223d"/>
          <path id="Trazado_4705" data-name="Trazado 4705" d="M770.382,3503.418a4.5,4.5,0,0,1-1.139,3.27,4.175,4.175,0,0,1-3.146,1.176,4.424,4.424,0,0,1-2.2-.539,3.672,3.672,0,0,1-1.485-1.547,5.063,5.063,0,0,1-.523-2.36,4.494,4.494,0,0,1,1.131-3.261,4.159,4.159,0,0,1,3.137-1.168,4.065,4.065,0,0,1,3.083,1.2A4.485,4.485,0,0,1,770.382,3503.418Zm-7.043,0a3.838,3.838,0,0,0,.709,2.5,2.962,2.962,0,0,0,4.17,0,3.825,3.825,0,0,0,.713-2.5,3.767,3.767,0,0,0-.713-2.48,2.6,2.6,0,0,0-2.1-.848,2.557,2.557,0,0,0-2.075.836A3.806,3.806,0,0,0,763.339,3503.418Z" fill="#00223d"/>
          <path id="Trazado_4706" data-name="Trazado 4706" d="M779.162,3507.708v-5.54a2.128,2.128,0,0,0-.515-1.562,2.2,2.2,0,0,0-1.611-.516,2.776,2.776,0,0,0-2.125.727,3.472,3.472,0,0,0-.675,2.4v4.493h-1.4v-8.563h1.139l.227,1.172h.068a2.815,2.815,0,0,1,1.206-.981,4.2,4.2,0,0,1,1.729-.347,3.694,3.694,0,0,1,2.513.746,3.033,3.033,0,0,1,.844,2.387v5.586Z" fill="#00223d"/>
          <path id="Trazado_4707" data-name="Trazado 4707" d="M789.123,3507.708l-.279-1.219h-.067a3.832,3.832,0,0,1-1.379,1.09,4.5,4.5,0,0,1-1.717.285,3.248,3.248,0,0,1-2.154-.656,2.3,2.3,0,0,1-.781-1.868q0-2.592,4.479-2.718l1.569-.047v-.532a2.065,2.065,0,0,0-.468-1.488,2.02,2.02,0,0,0-1.5-.48,6.475,6.475,0,0,0-2.615.656l-.43-.992a7.169,7.169,0,0,1,3.129-.735,3.712,3.712,0,0,1,2.45.68,2.717,2.717,0,0,1,.8,2.18v5.844Zm-3.163-.915a2.976,2.976,0,0,0,2.054-.664,2.359,2.359,0,0,0,.746-1.859v-.773l-1.4.054a5.447,5.447,0,0,0-2.408.481,1.422,1.422,0,0,0-.738,1.324,1.286,1.286,0,0,0,.46,1.07A2.01,2.01,0,0,0,785.96,3506.793Z" fill="#00223d"/>
          <path id="Trazado_4708" data-name="Trazado 4708" d="M794.445,3507.708h-1.4v-12.157h1.4Z" fill="#00223d"/>
          <path id="Trazado_4709" data-name="Trazado 4709" d="M798.881,3505.848l.127.18a18.422,18.422,0,0,1-.633,1.816q-.413,1.036-.86,1.926h-1.054q.227-.813.5-2.008t.384-1.914Z" fill="#00223d"/>
          <path id="Trazado_4710" data-name="Trazado 4710" d="M703.62,3518.345v.821l-1.712.187a2.679,2.679,0,0,1,.421.715,2.547,2.547,0,0,1,.186,1,2.448,2.448,0,0,1-.928,2.008,3.939,3.939,0,0,1-2.547.75,4.534,4.534,0,0,1-.776-.063q-.894.438-.894,1.1a.551.551,0,0,0,.312.519,2.422,2.422,0,0,0,1.071.168h1.637a3.881,3.881,0,0,1,2.306.586,1.975,1.975,0,0,1,.806,1.7A2.387,2.387,0,0,1,702.27,3530a7.018,7.018,0,0,1-3.593.747,5.223,5.223,0,0,1-2.8-.625,1.979,1.979,0,0,1-.982-1.766,1.9,1.9,0,0,1,.54-1.352,2.813,2.813,0,0,1,1.518-.773,1.441,1.441,0,0,1-.595-.461,1.158,1.158,0,0,1-.24-.727,1.308,1.308,0,0,1,.27-.82,2.794,2.794,0,0,1,.852-.68,2.452,2.452,0,0,1-1.169-.929,2.592,2.592,0,0,1-.451-1.5,2.669,2.669,0,0,1,.911-2.168,3.916,3.916,0,0,1,2.581-.762,5.09,5.09,0,0,1,1.307.156Zm-7.372,10a1.146,1.146,0,0,0,.633,1.055,3.728,3.728,0,0,0,1.813.359,5.408,5.408,0,0,0,2.611-.488,1.48,1.48,0,0,0,.847-1.324,1.019,1.019,0,0,0-.464-.965,3.846,3.846,0,0,0-1.745-.27h-1.679a2.331,2.331,0,0,0-1.484.422A1.455,1.455,0,0,0,696.248,3528.345Zm.759-7.258a1.674,1.674,0,0,0,.549,1.36,2.3,2.3,0,0,0,1.526.461q2.051,0,2.05-1.844,0-1.929-2.075-1.93a2.149,2.149,0,0,0-1.518.493A1.9,1.9,0,0,0,697.007,3521.087Z" fill="#00223d"/>
          <path id="Trazado_4711" data-name="Trazado 4711" d="M706.918,3526.908h-1.4v-12.156h1.4Z" fill="#00223d"/>
          <path id="Trazado_4712" data-name="Trazado 4712" d="M717.865,3522.619a4.5,4.5,0,0,1-1.138,3.269,4.174,4.174,0,0,1-3.146,1.176,4.428,4.428,0,0,1-2.2-.539,3.657,3.657,0,0,1-1.484-1.547,5.05,5.05,0,0,1-.523-2.359,4.5,4.5,0,0,1,1.13-3.262,4.166,4.166,0,0,1,3.138-1.168,4.061,4.061,0,0,1,3.082,1.2A4.486,4.486,0,0,1,717.865,3522.619Zm-7.042,0a3.848,3.848,0,0,0,.708,2.5,2.966,2.966,0,0,0,4.171,0,3.828,3.828,0,0,0,.713-2.5,3.771,3.771,0,0,0-.713-2.481,2.6,2.6,0,0,0-2.1-.847,2.553,2.553,0,0,0-2.075.836A3.8,3.8,0,0,0,710.823,3522.619Z" fill="#00223d"/>
          <path id="Trazado_4713" data-name="Trazado 4713" d="M724.621,3518.205a3.561,3.561,0,0,1,2.83,1.152,5.785,5.785,0,0,1-.009,6.539,3.54,3.54,0,0,1-2.821,1.168,4.27,4.27,0,0,1-1.649-.309,3.049,3.049,0,0,1-1.252-.949h-.1l-.3,1.1h-1v-12.156h1.4v2.953q0,.993-.068,1.781h.068A3.422,3.422,0,0,1,724.621,3518.205Zm-.2,1.086a2.543,2.543,0,0,0-2.067.761,5.494,5.494,0,0,0,.017,5.149,2.568,2.568,0,0,0,2.083.777,2.22,2.22,0,0,0,1.924-.871,4.221,4.221,0,0,0,.632-2.5,4.062,4.062,0,0,0-.632-2.492A2.316,2.316,0,0,0,724.419,3519.291Z" fill="#00223d"/>
          <path id="Trazado_4714" data-name="Trazado 4714" d="M736.59,3526.908l-.279-1.219h-.067a3.827,3.827,0,0,1-1.379,1.09,4.509,4.509,0,0,1-1.717.285,3.25,3.25,0,0,1-2.155-.656,2.305,2.305,0,0,1-.78-1.867q0-2.594,4.479-2.719l1.569-.047v-.531a2.062,2.062,0,0,0-.469-1.489,2.018,2.018,0,0,0-1.5-.48,6.491,6.491,0,0,0-2.614.656l-.43-.992a7.146,7.146,0,0,1,3.129-.734,3.712,3.712,0,0,1,2.45.679,2.717,2.717,0,0,1,.8,2.18v5.844Zm-3.163-.914a2.978,2.978,0,0,0,2.053-.664,2.36,2.36,0,0,0,.747-1.86v-.773l-1.4.055a5.45,5.45,0,0,0-2.408.48,1.424,1.424,0,0,0-.738,1.324,1.291,1.291,0,0,0,.459,1.071A2.013,2.013,0,0,0,733.427,3525.994Z" fill="#00223d"/>
          <path id="Trazado_4715" data-name="Trazado 4715" d="M741.912,3526.908h-1.4v-12.156h1.4Z" fill="#00223d"/>
        </g>
      </g>
    </g>
    <g id="Grupo_10954" data-name="Grupo 10954">
      <rect id="Rectángulo_3753" data-name="Rectángulo 3753" width="216.487" height="89.006" rx="12" transform="translate(854.34 3468.396)" fill="#ffb6bb"/>
      <g id="Grupo_10953" data-name="Grupo 10953">
        <g id="Grupo_10952" data-name="Grupo 10952">
          <path id="Trazado_4716" data-name="Trazado 4716" d="M918.231,3488.309a4.187,4.187,0,0,0-3.209,1.254,4.819,4.819,0,0,0-1.176,3.434,4.9,4.9,0,0,0,1.134,3.464,4.189,4.189,0,0,0,3.234,1.223,11.781,11.781,0,0,0,2.944-.43v1.164a9.719,9.719,0,0,1-3.163.446,5.575,5.575,0,0,1-4.2-1.531,6.007,6.007,0,0,1-1.481-4.352,6.45,6.45,0,0,1,.713-3.094,4.912,4.912,0,0,1,2.058-2.047,6.641,6.641,0,0,1,3.167-.718,8.154,8.154,0,0,1,3.391.656l-.607,1.14A6.974,6.974,0,0,0,918.231,3488.309Z" fill="#00223d"/>
          <path id="Trazado_4717" data-name="Trazado 4717" d="M931.617,3494.418a4.5,4.5,0,0,1-1.139,3.27,4.175,4.175,0,0,1-3.146,1.176,4.424,4.424,0,0,1-2.2-.539,3.672,3.672,0,0,1-1.485-1.547,5.051,5.051,0,0,1-.523-2.36,4.5,4.5,0,0,1,1.13-3.261,4.163,4.163,0,0,1,3.138-1.168,4.065,4.065,0,0,1,3.083,1.2A4.485,4.485,0,0,1,931.617,3494.418Zm-7.043,0a3.844,3.844,0,0,0,.708,2.5,2.964,2.964,0,0,0,4.171,0,3.825,3.825,0,0,0,.713-2.5,3.767,3.767,0,0,0-.713-2.48,2.6,2.6,0,0,0-2.1-.848,2.557,2.557,0,0,0-2.075.836A3.806,3.806,0,0,0,924.574,3494.418Z" fill="#00223d"/>
          <path id="Trazado_4718" data-name="Trazado 4718" d="M945.854,3498.708v-5.571a2.2,2.2,0,0,0-.473-1.535,1.906,1.906,0,0,0-1.467-.512,2.471,2.471,0,0,0-1.932.7,3.131,3.131,0,0,0-.624,2.14v4.782h-1.4v-5.571a2.2,2.2,0,0,0-.472-1.535,1.919,1.919,0,0,0-1.476-.512,2.38,2.38,0,0,0-1.928.731,3.733,3.733,0,0,0-.611,2.394v4.493h-1.4v-8.563h1.139l.227,1.172h.068a2.686,2.686,0,0,1,1.117-.977,3.642,3.642,0,0,1,1.616-.351,2.785,2.785,0,0,1,2.833,1.453h.068a2.875,2.875,0,0,1,1.2-1.063,3.981,3.981,0,0,1,1.789-.39,3.287,3.287,0,0,1,2.349.746,3.179,3.179,0,0,1,.78,2.387v5.586Z" fill="#00223d"/>
          <path id="Trazado_4719" data-name="Trazado 4719" d="M954.44,3498.864a4.267,4.267,0,0,1-1.649-.309,3.051,3.051,0,0,1-1.253-.949h-.1a10.578,10.578,0,0,1,.1,1.422v3.523h-1.4v-12.406h1.139l.194,1.172h.067a3.2,3.2,0,0,1,1.257-1.016,4.087,4.087,0,0,1,1.645-.312,3.537,3.537,0,0,1,2.838,1.164,5.815,5.815,0,0,1-.017,6.543A3.541,3.541,0,0,1,954.44,3498.864Zm-.2-7.774a2.586,2.586,0,0,0-2.049.727,3.54,3.54,0,0,0-.65,2.312v.289a4.042,4.042,0,0,0,.65,2.583,2.567,2.567,0,0,0,2.083.777,2.221,2.221,0,0,0,1.877-.9,4.021,4.021,0,0,0,.679-2.476,3.878,3.878,0,0,0-.679-2.457A2.3,2.3,0,0,0,954.237,3491.09Z" fill="#00223d"/>
          <path id="Trazado_4720" data-name="Trazado 4720" d="M964.94,3489.989a5.855,5.855,0,0,1,1.1.094l-.194,1.2a5.146,5.146,0,0,0-1.012-.118,2.548,2.548,0,0,0-1.919.844,2.946,2.946,0,0,0-.8,2.1v4.594h-1.4v-8.563h1.156l.16,1.586h.068a3.888,3.888,0,0,1,1.239-1.289A2.952,2.952,0,0,1,964.94,3489.989Z" fill="#00223d"/>
          <path id="Trazado_4721" data-name="Trazado 4721" d="M971.679,3498.864a4.431,4.431,0,0,1-3.234-1.156,4.28,4.28,0,0,1-1.185-3.211,4.721,4.721,0,0,1,1.1-3.289,3.784,3.784,0,0,1,2.956-1.219,3.624,3.624,0,0,1,2.749,1.058,3.872,3.872,0,0,1,1.012,2.793v.821h-6.367a3.239,3.239,0,0,0,.822,2.289,2.966,2.966,0,0,0,2.2.781,7.945,7.945,0,0,0,2.952-.578v1.156a7.861,7.861,0,0,1-1.4.426A8.509,8.509,0,0,1,971.679,3498.864Zm-.379-7.789a2.382,2.382,0,0,0-1.776.672,2.979,2.979,0,0,0-.78,1.859h4.833a2.714,2.714,0,0,0-.59-1.879A2.162,2.162,0,0,0,971.3,3491.075Z" fill="#00223d"/>
          <path id="Trazado_4722" data-name="Trazado 4722" d="M983.791,3498.708v-5.54a2.132,2.132,0,0,0-.514-1.562,2.2,2.2,0,0,0-1.611-.516,2.777,2.777,0,0,0-2.126.727,3.472,3.472,0,0,0-.675,2.4v4.493h-1.4v-8.563H978.6l.228,1.172h.067a2.816,2.816,0,0,1,1.206-.981,4.2,4.2,0,0,1,1.729-.347,3.7,3.7,0,0,1,2.514.746,3.036,3.036,0,0,1,.843,2.387v5.586Z" fill="#00223d"/>
          <path id="Trazado_4723" data-name="Trazado 4723" d="M994.359,3497.559h-.076a3.382,3.382,0,0,1-2.9,1.3,3.553,3.553,0,0,1-2.821-1.149,4.792,4.792,0,0,1-1.008-3.265,4.875,4.875,0,0,1,1.012-3.289,3.522,3.522,0,0,1,2.817-1.172,3.465,3.465,0,0,1,2.884,1.265h.11l-.059-.617-.034-.6v-3.485h1.4v12.157h-1.138Zm-2.8.219a2.654,2.654,0,0,0,2.079-.723,3.454,3.454,0,0,0,.645-2.332v-.273a4.061,4.061,0,0,0-.653-2.6,2.585,2.585,0,0,0-2.088-.777,2.2,2.2,0,0,0-1.885.886,4.159,4.159,0,0,0-.654,2.5,3.987,3.987,0,0,0,.65,2.477A2.264,2.264,0,0,0,991.559,3497.778Z" fill="#00223d"/>
          <path id="Trazado_4724" data-name="Trazado 4724" d="M1002.557,3498.864a4.431,4.431,0,0,1-3.234-1.156,4.28,4.28,0,0,1-1.185-3.211,4.721,4.721,0,0,1,1.1-3.289,3.784,3.784,0,0,1,2.956-1.219,3.624,3.624,0,0,1,2.749,1.058,3.872,3.872,0,0,1,1.012,2.793v.821h-6.367a3.239,3.239,0,0,0,.822,2.289,2.967,2.967,0,0,0,2.2.781,7.945,7.945,0,0,0,2.952-.578v1.156a7.861,7.861,0,0,1-1.4.426A8.509,8.509,0,0,1,1002.557,3498.864Zm-.379-7.789a2.382,2.382,0,0,0-1.776.672,2.979,2.979,0,0,0-.78,1.859h4.833a2.714,2.714,0,0,0-.59-1.879A2.162,2.162,0,0,0,1002.178,3491.075Z" fill="#00223d"/>
          <path id="Trazado_4725" data-name="Trazado 4725" d="M1012.56,3489.989a5.855,5.855,0,0,1,1.1.094l-.193,1.2a5.163,5.163,0,0,0-1.013-.118,2.548,2.548,0,0,0-1.919.844,2.946,2.946,0,0,0-.8,2.1v4.594h-1.4v-8.563h1.156l.16,1.586h.068a3.891,3.891,0,0,1,1.24-1.289A2.946,2.946,0,0,1,1012.56,3489.989Z" fill="#00223d"/>
          <path id="Trazado_4726" data-name="Trazado 4726" d="M916.342,3517.908h-1.636l-6.739-9.586H907.9q.135,1.688.135,3.094v6.492H906.71v-11.422h1.62l6.722,9.547h.067c-.011-.141-.037-.592-.076-1.356s-.053-1.308-.042-1.636v-6.555h1.341Z" fill="#00223d"/>
          <path id="Trazado_4727" data-name="Trazado 4727" d="M923.427,3518.064a4.434,4.434,0,0,1-3.235-1.156,4.279,4.279,0,0,1-1.185-3.211,4.722,4.722,0,0,1,1.1-3.289,3.785,3.785,0,0,1,2.956-1.219,3.629,3.629,0,0,1,2.75,1.059,3.871,3.871,0,0,1,1.012,2.793v.82h-6.368a3.239,3.239,0,0,0,.822,2.289,2.968,2.968,0,0,0,2.2.781,7.946,7.946,0,0,0,2.953-.578v1.156a7.747,7.747,0,0,1-1.4.426A8.5,8.5,0,0,1,923.427,3518.064Zm-.38-7.789a2.382,2.382,0,0,0-1.775.672,2.979,2.979,0,0,0-.78,1.859h4.833a2.709,2.709,0,0,0-.591-1.879A2.161,2.161,0,0,0,923.047,3510.275Z" fill="#00223d"/>
          <path id="Trazado_4728" data-name="Trazado 4728" d="M932.907,3518.064a4.106,4.106,0,0,1-3.108-1.145,4.478,4.478,0,0,1-1.1-3.238,4.622,4.622,0,0,1,1.118-3.32,4.192,4.192,0,0,1,3.184-1.172,6.827,6.827,0,0,1,1.332.133,4.682,4.682,0,0,1,1.046.312l-.43,1.1a7.1,7.1,0,0,0-1.012-.285,4.907,4.907,0,0,0-.97-.114q-2.817,0-2.817,3.329a3.746,3.746,0,0,0,.687,2.421,2.474,2.474,0,0,0,2.037.844,6.632,6.632,0,0,0,2.37-.461v1.149A5.387,5.387,0,0,1,932.907,3518.064Z" fill="#00223d"/>
          <path id="Trazado_4729" data-name="Trazado 4729" d="M941.341,3518.064a4.431,4.431,0,0,1-3.234-1.156,4.28,4.28,0,0,1-1.185-3.211,4.721,4.721,0,0,1,1.1-3.289,3.784,3.784,0,0,1,2.956-1.219,3.625,3.625,0,0,1,2.749,1.059,3.871,3.871,0,0,1,1.012,2.793v.82h-6.367a3.239,3.239,0,0,0,.822,2.289,2.967,2.967,0,0,0,2.2.781,7.945,7.945,0,0,0,2.952-.578v1.156a7.762,7.762,0,0,1-1.4.426A8.509,8.509,0,0,1,941.341,3518.064Zm-.379-7.789a2.386,2.386,0,0,0-1.776.672,2.979,2.979,0,0,0-.78,1.859h4.833a2.714,2.714,0,0,0-.59-1.879A2.162,2.162,0,0,0,940.962,3510.275Z" fill="#00223d"/>
          <path id="Trazado_4730" data-name="Trazado 4730" d="M953.09,3515.572a2.094,2.094,0,0,1-.961,1.844,4.8,4.8,0,0,1-2.7.648,6.268,6.268,0,0,1-2.868-.539v-1.2a7.186,7.186,0,0,0,1.43.492,6.4,6.4,0,0,0,1.472.18,3.543,3.543,0,0,0,1.686-.325,1.071,1.071,0,0,0,.123-1.843,7.615,7.615,0,0,0-1.826-.84,10.333,10.333,0,0,1-1.835-.777,2.419,2.419,0,0,1-.809-.754,1.849,1.849,0,0,1-.266-1.008,1.886,1.886,0,0,1,.919-1.653,4.553,4.553,0,0,1,2.522-.6,7.884,7.884,0,0,1,2.918.563l-.5,1.054a7.179,7.179,0,0,0-2.522-.531,3.1,3.1,0,0,0-1.5.289.885.885,0,0,0-.506.8.923.923,0,0,0,.189.586,1.855,1.855,0,0,0,.612.461,14.249,14.249,0,0,0,1.619.633,6.2,6.2,0,0,1,2.223,1.117A1.891,1.891,0,0,1,953.09,3515.572Z" fill="#00223d"/>
          <path id="Trazado_4731" data-name="Trazado 4731" d="M955.25,3507.025a.821.821,0,0,1,.236-.652.926.926,0,0,1,1.172,0,.81.81,0,0,1,.245.648.821.821,0,0,1-.245.652.849.849,0,0,1-.582.215.781.781,0,0,1-.826-.867Zm1.518,10.883h-1.4v-8.563h1.4Z" fill="#00223d"/>
          <path id="Trazado_4732" data-name="Trazado 4732" d="M966.029,3516.759h-.076a3.385,3.385,0,0,1-2.9,1.3,3.557,3.557,0,0,1-2.821-1.148,4.8,4.8,0,0,1-1.008-3.266,4.879,4.879,0,0,1,1.012-3.289,3.525,3.525,0,0,1,2.817-1.172,3.465,3.465,0,0,1,2.885,1.266h.109l-.059-.618-.033-.6v-3.484h1.4v12.156h-1.139Zm-2.8.219a2.654,2.654,0,0,0,2.079-.723,3.446,3.446,0,0,0,.646-2.332v-.273a4.055,4.055,0,0,0-.654-2.6,2.585,2.585,0,0,0-2.088-.777,2.2,2.2,0,0,0-1.885.887,4.161,4.161,0,0,0-.653,2.5,3.987,3.987,0,0,0,.649,2.476A2.265,2.265,0,0,0,963.228,3516.978Z" fill="#00223d"/>
          <path id="Trazado_4733" data-name="Trazado 4733" d="M976.006,3517.908l-.278-1.219h-.067a3.835,3.835,0,0,1-1.379,1.09,4.509,4.509,0,0,1-1.717.285,3.25,3.25,0,0,1-2.155-.656,2.305,2.305,0,0,1-.78-1.867q0-2.594,4.479-2.719l1.568-.047v-.531a2.066,2.066,0,0,0-.468-1.489,2.018,2.018,0,0,0-1.5-.48,6.487,6.487,0,0,0-2.614.656l-.431-.992a7.154,7.154,0,0,1,3.13-.734,3.714,3.714,0,0,1,2.45.679,2.717,2.717,0,0,1,.8,2.18v5.844Zm-3.162-.914a2.977,2.977,0,0,0,2.053-.664,2.36,2.36,0,0,0,.747-1.86v-.773l-1.4.055a5.45,5.45,0,0,0-2.408.48,1.424,1.424,0,0,0-.738,1.324,1.291,1.291,0,0,0,.459,1.071A2.011,2.011,0,0,0,972.844,3516.994Z" fill="#00223d"/>
          <path id="Trazado_4734" data-name="Trazado 4734" d="M986.22,3516.759h-.076a3.382,3.382,0,0,1-2.9,1.3,3.557,3.557,0,0,1-2.821-1.148,4.8,4.8,0,0,1-1.008-3.266,4.874,4.874,0,0,1,1.012-3.289,3.525,3.525,0,0,1,2.817-1.172,3.467,3.467,0,0,1,2.885,1.266h.109l-.059-.618-.034-.6v-3.484h1.4v12.156h-1.139Zm-2.8.219a2.654,2.654,0,0,0,2.079-.723,3.451,3.451,0,0,0,.645-2.332v-.273a4.061,4.061,0,0,0-.653-2.6,2.585,2.585,0,0,0-2.088-.777,2.2,2.2,0,0,0-1.885.887,4.154,4.154,0,0,0-.653,2.5,3.988,3.988,0,0,0,.649,2.476A2.265,2.265,0,0,0,983.42,3516.978Z" fill="#00223d"/>
          <path id="Trazado_4735" data-name="Trazado 4735" d="M994.419,3518.064a4.432,4.432,0,0,1-3.235-1.156A4.279,4.279,0,0,1,990,3513.7a4.722,4.722,0,0,1,1.1-3.289,3.784,3.784,0,0,1,2.956-1.219,3.625,3.625,0,0,1,2.749,1.059,3.872,3.872,0,0,1,1.013,2.793v.82H991.45a3.239,3.239,0,0,0,.822,2.289,2.967,2.967,0,0,0,2.2.781,7.945,7.945,0,0,0,2.952-.578v1.156a7.762,7.762,0,0,1-1.4.426A8.5,8.5,0,0,1,994.419,3518.064Zm-.38-7.789a2.382,2.382,0,0,0-1.775.672,2.975,2.975,0,0,0-.781,1.859h4.833a2.714,2.714,0,0,0-.59-1.879A2.162,2.162,0,0,0,994.039,3510.275Z" fill="#00223d"/>
          <path id="Trazado_4736" data-name="Trazado 4736" d="M1006.168,3515.572a2.1,2.1,0,0,1-.962,1.844,4.8,4.8,0,0,1-2.7.648,6.269,6.269,0,0,1-2.868-.539v-1.2a7.188,7.188,0,0,0,1.43.492,6.4,6.4,0,0,0,1.472.18,3.551,3.551,0,0,0,1.687-.325,1.071,1.071,0,0,0,.122-1.843,7.612,7.612,0,0,0-1.826-.84,10.367,10.367,0,0,1-1.835-.777,2.419,2.419,0,0,1-.809-.754,1.858,1.858,0,0,1-.266-1.008,1.886,1.886,0,0,1,.919-1.653,4.553,4.553,0,0,1,2.522-.6,7.894,7.894,0,0,1,2.919.563l-.5,1.054a7.179,7.179,0,0,0-2.522-.531,3.1,3.1,0,0,0-1.5.289.885.885,0,0,0-.506.8.923.923,0,0,0,.189.586,1.855,1.855,0,0,0,.612.461,14.246,14.246,0,0,0,1.619.633,6.2,6.2,0,0,1,2.223,1.117A1.892,1.892,0,0,1,1006.168,3515.572Z" fill="#00223d"/>
          <path id="Trazado_4737" data-name="Trazado 4737" d="M1011.464,3509.345h1.5l2.024,4.883a17.512,17.512,0,0,1,.826,2.414h.068q.109-.4.46-1.363t2.289-5.934h1.5l-3.973,9.75a4.823,4.823,0,0,1-1.379,2.051,3.088,3.088,0,0,1-1.935.606,6.027,6.027,0,0,1-1.266-.133v-1.039a5.3,5.3,0,0,0,1.038.093,2.119,2.119,0,0,0,2.058-1.5l.514-1.218Z" fill="#00223d"/>
          <path id="Trazado_4738" data-name="Trazado 4738" d="M918.016,3537.264a4.436,4.436,0,0,1-3.234-1.156,4.279,4.279,0,0,1-1.185-3.211,4.726,4.726,0,0,1,1.1-3.289,3.787,3.787,0,0,1,2.957-1.219,3.623,3.623,0,0,1,2.749,1.059,3.873,3.873,0,0,1,1.012,2.793v.82h-6.368a3.244,3.244,0,0,0,.823,2.289,2.967,2.967,0,0,0,2.2.781,7.945,7.945,0,0,0,2.952-.578v1.157a7.832,7.832,0,0,1-1.4.425A8.516,8.516,0,0,1,918.016,3537.264Zm-.379-7.789a2.38,2.38,0,0,0-1.776.672,2.977,2.977,0,0,0-.78,1.859h4.833a2.712,2.712,0,0,0-.59-1.879A2.163,2.163,0,0,0,917.637,3529.475Z" fill="#00223d"/>
          <path id="Trazado_4739" data-name="Trazado 4739" d="M926.029,3532.725l-3.213-4.18h1.593l2.438,3.282,2.429-3.282h1.577l-3.213,4.18,3.382,4.383h-1.586l-2.589-3.469-2.615,3.469h-1.585Z" fill="#00223d"/>
          <path id="Trazado_4740" data-name="Trazado 4740" d="M937.154,3537.264a4.293,4.293,0,0,1-1.649-.308,3.073,3.073,0,0,1-1.253-.95h-.1a10.563,10.563,0,0,1,.1,1.422v3.524h-1.4v-12.407h1.139l.194,1.172h.067a3.2,3.2,0,0,1,1.257-1.015,4.087,4.087,0,0,1,1.645-.313,3.537,3.537,0,0,1,2.838,1.164,5.815,5.815,0,0,1-.017,6.543A3.541,3.541,0,0,1,937.154,3537.264Zm-.2-7.773a2.586,2.586,0,0,0-2.049.726,3.54,3.54,0,0,0-.65,2.313v.289a4.042,4.042,0,0,0,.65,2.582,2.567,2.567,0,0,0,2.083.777,2.224,2.224,0,0,0,1.877-.9,4.029,4.029,0,0,0,.679-2.477,3.881,3.881,0,0,0-.679-2.457A2.3,2.3,0,0,0,936.951,3529.491Z" fill="#00223d"/>
          <path id="Trazado_4741" data-name="Trazado 4741" d="M947.342,3537.264a4.436,4.436,0,0,1-3.234-1.156,4.279,4.279,0,0,1-1.185-3.211,4.722,4.722,0,0,1,1.1-3.289,3.784,3.784,0,0,1,2.956-1.219,3.622,3.622,0,0,1,2.749,1.059,3.874,3.874,0,0,1,1.013,2.793v.82h-6.368a3.239,3.239,0,0,0,.822,2.289,2.967,2.967,0,0,0,2.2.781,7.945,7.945,0,0,0,2.952-.578v1.157a7.832,7.832,0,0,1-1.4.425A8.508,8.508,0,0,1,947.342,3537.264Zm-.379-7.789a2.382,2.382,0,0,0-1.776.672,2.978,2.978,0,0,0-.78,1.859h4.833a2.712,2.712,0,0,0-.59-1.879A2.163,2.163,0,0,0,946.963,3529.475Z" fill="#00223d"/>
          <path id="Trazado_4742" data-name="Trazado 4742" d="M956.823,3537.264a4.111,4.111,0,0,1-3.108-1.144,4.484,4.484,0,0,1-1.1-3.239,4.616,4.616,0,0,1,1.118-3.32,4.191,4.191,0,0,1,3.183-1.172,6.773,6.773,0,0,1,1.333.133,4.615,4.615,0,0,1,1.046.313l-.43,1.1a7.052,7.052,0,0,0-1.012-.285,4.9,4.9,0,0,0-.97-.113q-2.817,0-2.817,3.328a3.751,3.751,0,0,0,.687,2.422,2.473,2.473,0,0,0,2.037.843,6.641,6.641,0,0,0,2.37-.461v1.149A5.394,5.394,0,0,1,956.823,3537.264Z" fill="#00223d"/>
          <path id="Trazado_4743" data-name="Trazado 4743" d="M964.338,3536.194a4.928,4.928,0,0,0,.717-.051,5.231,5.231,0,0,0,.548-.1v.992a2.8,2.8,0,0,1-.671.168,5.465,5.465,0,0,1-.8.066q-2.682,0-2.682-2.617v-5.094h-1.324v-.625l1.324-.539.59-1.828h.81v1.984h2.682v1.008h-2.682v5.039a1.65,1.65,0,0,0,.4,1.188A1.434,1.434,0,0,0,964.338,3536.194Z" fill="#00223d"/>
          <path id="Trazado_4744" data-name="Trazado 4744" d="M973.135,3537.108l-.279-1.219h-.067a3.837,3.837,0,0,1-1.379,1.09,4.527,4.527,0,0,1-1.717.285,3.25,3.25,0,0,1-2.155-.656,2.3,2.3,0,0,1-.78-1.867q0-2.595,4.479-2.719l1.569-.047v-.531a2.057,2.057,0,0,0-.469-1.488,2.013,2.013,0,0,0-1.5-.481,6.491,6.491,0,0,0-2.614.656l-.43-.992a6.874,6.874,0,0,1,1.5-.539,6.968,6.968,0,0,1,1.632-.2,3.708,3.708,0,0,1,2.45.68,2.715,2.715,0,0,1,.8,2.179v5.844Zm-3.163-.914a2.983,2.983,0,0,0,2.053-.664,2.36,2.36,0,0,0,.747-1.86v-.773l-1.4.055a5.422,5.422,0,0,0-2.408.48,1.424,1.424,0,0,0-.738,1.324,1.29,1.29,0,0,0,.459,1.071A2.013,2.013,0,0,0,969.972,3536.194Z" fill="#00223d"/>
          <path id="Trazado_4745" data-name="Trazado 4745" d="M980.042,3536.194a4.908,4.908,0,0,0,.717-.051,5.177,5.177,0,0,0,.548-.1v.992a2.774,2.774,0,0,1-.67.168,5.465,5.465,0,0,1-.8.066q-2.682,0-2.682-2.617v-5.094h-1.324v-.625l1.324-.539.59-1.828h.81v1.984h2.682v1.008h-2.682v5.039a1.654,1.654,0,0,0,.4,1.188A1.435,1.435,0,0,0,980.042,3536.194Z" fill="#00223d"/>
          <path id="Trazado_4746" data-name="Trazado 4746" d="M983.036,3526.225a.82.82,0,0,1,.237-.652.926.926,0,0,1,1.172,0,.809.809,0,0,1,.245.648.822.822,0,0,1-.245.652.849.849,0,0,1-.582.215.782.782,0,0,1-.827-.867Zm1.519,10.883h-1.4v-8.563h1.4Z" fill="#00223d"/>
          <path id="Trazado_4747" data-name="Trazado 4747" d="M989.548,3537.108l-3.509-8.563h1.5l1.991,5.079a22.773,22.773,0,0,1,.793,2.312h.067a16.52,16.52,0,0,1,.586-1.715q.494-1.3,2.214-5.676h1.5l-3.509,8.563Z" fill="#00223d"/>
          <path id="Trazado_4748" data-name="Trazado 4748" d="M1001.862,3537.108l-.279-1.219h-.067a3.838,3.838,0,0,1-1.379,1.09,4.521,4.521,0,0,1-1.717.285,3.247,3.247,0,0,1-2.154-.656,2.3,2.3,0,0,1-.781-1.867q0-2.595,4.479-2.719l1.569-.047v-.531a2.061,2.061,0,0,0-.468-1.488,2.015,2.015,0,0,0-1.5-.481,6.491,6.491,0,0,0-2.615.656l-.43-.992a6.876,6.876,0,0,1,1.5-.539,6.974,6.974,0,0,1,1.632-.2,3.708,3.708,0,0,1,2.45.68,2.715,2.715,0,0,1,.8,2.179v5.844Zm-3.163-.914a2.987,2.987,0,0,0,2.054-.664,2.363,2.363,0,0,0,.746-1.86v-.773l-1.4.055a5.426,5.426,0,0,0-2.408.48,1.424,1.424,0,0,0-.738,1.324,1.288,1.288,0,0,0,.46,1.071A2.008,2.008,0,0,0,998.7,3536.194Z" fill="#00223d"/>
          <path id="Trazado_4749" data-name="Trazado 4749" d="M1011.747,3534.772a2.1,2.1,0,0,1-.962,1.844,4.794,4.794,0,0,1-2.7.648,6.252,6.252,0,0,1-2.867-.539v-1.2a7.3,7.3,0,0,0,1.429.492,6.407,6.407,0,0,0,1.472.18,3.578,3.578,0,0,0,1.687-.324,1.059,1.059,0,0,0,.59-.989,1.048,1.048,0,0,0-.468-.855,7.615,7.615,0,0,0-1.826-.84,10.316,10.316,0,0,1-1.834-.777,2.424,2.424,0,0,1-.81-.754,1.852,1.852,0,0,1-.266-1.008,1.882,1.882,0,0,1,.92-1.652,4.537,4.537,0,0,1,2.521-.606,7.89,7.89,0,0,1,2.919.563l-.5,1.054a7.153,7.153,0,0,0-2.522-.531,3.1,3.1,0,0,0-1.5.289.886.886,0,0,0-.506.8.916.916,0,0,0,.19.586,1.849,1.849,0,0,0,.611.461,14.543,14.543,0,0,0,1.62.633,6.2,6.2,0,0,1,2.222,1.117A1.893,1.893,0,0,1,1011.747,3534.772Z" fill="#00223d"/>
        </g>
      </g>
    </g>
  </g>
</svg>
