<svg xmlns="http://www.w3.org/2000/svg" width="706.274" height="207.24" viewBox="0 0 706.274 207.24">
  <g id="Grupo_11175" data-name="Grupo 11175" transform="translate(-356.763 -2054.999)">
    <rect id="Rectángulo_3886" data-name="Rectángulo 3886" width="426.4" height="167.422" rx="13.311" transform="translate(356.763 2054.999)" fill="#bce0e4"/>
    <text id="Una_vez_este_allí_diríjase_a_Consulta_Bibliográfica_Bases_de_Datos_Icontec_ingrese_con_su_número_de_identificación_tanto_en_el_usuario_como_en_la_contraseña_-_digite_el_número_de_la_norma_y_de_clic_en_Buscar_cuando_la_encuentre_de_clic_y_luego_en_v" data-name="Una vez este allí diríjase a Consulta Bibliográfica – Bases de Datos – Icontec, ingrese con su número de identificación tanto en el usuario como en la contraseña - digite el número de la norma y de clic en Buscar – cuando la encuentre de clic y luego en “v" transform="translate(374.663 2069.933)" fill="#00223d" font-size="16" font-family="OpenSans, Open Sans" style="isolation: isolate"><tspan x="10.784" y="17">Una vez este allí diríjase a Consulta Bibliográfica – </tspan><tspan x="1.945" y="39">Bases de Datos – Icontec, ingrese con su número de </tspan><tspan x="30.273" y="61">identificación tanto en el usuario como en la </tspan><tspan x="7.339" y="83">contraseña - digite el número de la norma y de clic </tspan><tspan x="8.187" y="105">en Buscar – cuando la encuentre de clic y luego en </tspan><tspan x="108.226" y="127">“visualizar esta norma”.</tspan></text>
    <g id="Grupo_11174" data-name="Grupo 11174">
      <path id="Trazado_7657" data-name="Trazado 7657" d="M984.985,2262.239c-1.74-15.738-6.773-29.594-17.436-39.394l-42.9-.568s-7.451,7.416-11.985,39.962Z" fill="#3f464f"/>
      <g id="Grupo_11159" data-name="Grupo 11159">
        <path id="Trazado_7658" data-name="Trazado 7658" d="M834.463,2167.416a2.013,2.013,0,0,1,2.467-1.31l-3.429-.647c-1.182-.224-2.02-1.05-1.818-2.119a1.917,1.917,0,0,1,2.466-1.309l-3-.568a1.973,1.973,0,1,1,.729-3.857l2.571.487a1.974,1.974,0,1,1,.73-3.857l15.981,3.021-2.981-4.575a2.257,2.257,0,0,1,.484-3.177l.056-.012a2.322,2.322,0,0,1,3.127.952l6.933,8.079c2.214,2.082,4.447,4.651,3.714,8.528a7.324,7.324,0,0,1-8.643,5.8l-3.856-.729-2.785-.526-10.928-2.066A2.01,2.01,0,0,1,834.463,2167.416Z" fill="#faa284"/>
        <path id="Trazado_7659" data-name="Trazado 7659" d="M921.355,2185.021s-13.941,18.609-24.116,21.807c0,0-12.94,5.476-41.882-31.764,0,0,.389-7.392,9.718-10.976l28.806,20.5c23.714-35.118,28.319-35.5,28.319-35.5S927.648,2170.5,921.355,2185.021Z" fill="#dedfe2"/>
      </g>
      <g id="Grupo_11166" data-name="Grupo 11166">
        <path id="Trazado_7660" data-name="Trazado 7660" d="M977.828,2150.153s6.11,0,31.76,34.544l-10.575,16.235-22.674-20.2A250.129,250.129,0,0,1,977.828,2150.153Z" fill="#e8ebef"/>
        <path id="Trazado_7661" data-name="Trazado 7661" d="M1053.145,2190.6a8.769,8.769,0,1,0-4.691,11.479A8.769,8.769,0,0,0,1053.145,2190.6Z" fill="#e8ebef"/>
        <path id="Trazado_7662" data-name="Trazado 7662" d="M1055.953,2195.388c-4.786,4.374-7.967,3.868-9.823,3.051h0c-3.61-1.931-2.48-6.414-.438-10.231l3.591-6.71c2.042-3.817,5.428-3.11,9.039-1.177h0c3.61,1.931,6.148,4.278,3.817,8.58Z" fill="#faa284"/>
        <g id="Grupo_11160" data-name="Grupo 11160">
          <path id="Trazado_7663" data-name="Trazado 7663" d="M1058.195,2152.6l1.237,1.566-20.735,69.021-47.615-14.3-1.586-2.3Z" fill="#6b7277"/>
          <rect id="Rectángulo_3887" data-name="Rectángulo 3887" width="71.524" height="50.154" transform="translate(989.495 2206.581) rotate(-73.278)" fill="#8c949b"/>
          <rect id="Rectángulo_3888" data-name="Rectángulo 3888" width="60.184" height="41.867" transform="translate(994.509 2203.534) rotate(-73.28)" fill="#e9f3ff"/>
          <path id="Trazado_7664" data-name="Trazado 7664" d="M1035.385,2144.776l.219-.732a1.419,1.419,0,0,0-.949-1.766l-.209-.062a1.415,1.415,0,0,0-1.765.95l-.22.73-5.848-1.756-2.885,9.606,15.036,4.518,2.886-9.607Z" fill="#aebdce"/>
          <rect id="Rectángulo_3889" data-name="Rectángulo 3889" width="2.181" height="15.701" transform="matrix(0.288, -0.958, 0.958, 0.288, 1021.719, 2158.43)" fill="#cbdaed"/>
          <rect id="Rectángulo_3890" data-name="Rectángulo 3890" width="1.309" height="24.859" transform="translate(1016.079 2163.566) rotate(-73.28)" fill="#cbdaed"/>
          <rect id="Rectángulo_3891" data-name="Rectángulo 3891" width="1.309" height="29.22" transform="matrix(0.288, -0.958, 0.958, 0.288, 1012.861, 2166.697)" fill="#cbdaed"/>
          <rect id="Rectángulo_3892" data-name="Rectángulo 3892" width="1.31" height="19.626" transform="translate(1016.326 2171.837) rotate(-73.279)" fill="#cbdaed"/>
          <rect id="Rectángulo_3893" data-name="Rectángulo 3893" width="1.308" height="29.22" transform="matrix(0.288, -0.958, 0.958, 0.288, 1010.602, 2174.216)" fill="#cbdaed"/>
          <rect id="Rectángulo_3894" data-name="Rectángulo 3894" width="1.309" height="24.858" transform="matrix(0.288, -0.958, 0.958, 0.288, 1011.562, 2178.602)" fill="#cbdaed"/>
          <rect id="Rectángulo_3895" data-name="Rectángulo 3895" width="1.309" height="29.22" transform="translate(1008.344 2181.734) rotate(-73.281)" fill="#cbdaed"/>
          <rect id="Rectángulo_3896" data-name="Rectángulo 3896" width="1.309" height="27.475" transform="matrix(0.288, -0.958, 0.958, 0.288, 1008.05, 2185.744)" fill="#cbdaed"/>
          <rect id="Rectángulo_3897" data-name="Rectángulo 3897" width="1.308" height="29.22" transform="translate(1006.085 2189.251) rotate(-73.279)" fill="#cbdaed"/>
          <rect id="Rectángulo_3898" data-name="Rectángulo 3898" width="1.308" height="21.37" transform="matrix(0.288, -0.958, 0.958, 0.288, 1008.715, 2194.14)" fill="#cbdaed"/>
        </g>
        <g id="Grupo_11165" data-name="Grupo 11165">
          <g id="Grupo_11161" data-name="Grupo 11161">
            <path id="Trazado_7665" data-name="Trazado 7665" d="M1059.848,2185.874a2.129,2.129,0,0,1-.776-.869c-1.845-3.842-9.655-8.134-12.506-9.463a1.94,1.94,0,0,1-1.1-2.426,1.77,1.77,0,0,1,2.444-.771c1.2.557,11.765,5.614,14.59,11.494a1.6,1.6,0,0,1-.894,2.285A2.052,2.052,0,0,1,1059.848,2185.874Z" fill="#faa284"/>
          </g>
          <g id="Grupo_11162" data-name="Grupo 11162">
            <path id="Trazado_7666" data-name="Trazado 7666" d="M1057.381,2187.852a2.036,2.036,0,0,1-.732-.667c-3.7-5.608-14.058-9.261-14.162-9.3a1.957,1.957,0,0,1-1.252-2.438,1.9,1.9,0,0,1,2.449-1.152c.478.165,11.76,4.134,16.216,10.888a1.855,1.855,0,0,1-.553,2.624A1.978,1.978,0,0,1,1057.381,2187.852Z" fill="#faa284"/>
          </g>
          <g id="Grupo_11163" data-name="Grupo 11163">
            <path id="Trazado_7667" data-name="Trazado 7667" d="M1052.984,2187.955a2.286,2.286,0,0,1-.578-.417c-3.83-3.838-9.773-6.087-9.832-6.11a1.929,1.929,0,0,1-1.3-2.292,1.756,1.756,0,0,1,2.365-.917c.281.1,6.936,2.626,11.446,7.145a1.622,1.622,0,0,1,.025,2.451A1.98,1.98,0,0,1,1052.984,2187.955Z" fill="#faa284"/>
          </g>
          <g id="Grupo_11164" data-name="Grupo 11164">
            <path id="Trazado_7668" data-name="Trazado 7668" d="M1050.836,2190.673a2.064,2.064,0,0,1-.463-.325,27.4,27.4,0,0,0-7.516-4.914,1.935,1.935,0,0,1-1.171-2.434,1.864,1.864,0,0,1,2.472-.981,31.585,31.585,0,0,1,8.821,5.739,1.808,1.808,0,0,1,.126,2.624A1.952,1.952,0,0,1,1050.836,2190.673Z" fill="#faa284"/>
          </g>
        </g>
      </g>
      <g id="Grupo_11168" data-name="Grupo 11168">
        <path id="Trazado_7669" data-name="Trazado 7669" d="M962.281,2145.371s-8.915-1.989-13.817-2.043-12.4,1.752-12.4,1.752c-7.518,2.006-13.859,4-13.859,4l-1.956,13.03c-7.686,9.837-8.112,13.082-8.112,17.436,0,7.535,6.67,13.134,6.67,13.134l5.84,29.6c25.562,9.935,42.949.568,42.949.568,2.835-19.312,10.307-44.07,10.307-44.07v-28.7C973.982,2148.281,966.266,2146.521,962.281,2145.371Z" fill="#e8ebef"/>
        <path id="Trazado_7670" data-name="Trazado 7670" d="M938.018,2161.672l7.435-6.945,3.888,8.579s11.974-6.99,12.866-17.942c-.535-.117-9.02-1.984-13.766-2.036-4.9-.054-12.388,1.752-12.388,1.752l-.273.074C935.448,2148.351,935.194,2155.241,938.018,2161.672Z" fill="#b8bbbf"/>
        <g id="Grupo_11167" data-name="Grupo 11167">
          <path id="Trazado_7671" data-name="Trazado 7671" d="M941.887,2139.4l-.047,12.134,14.846.058.062-15.785A22.568,22.568,0,0,1,941.887,2139.4Z" fill="#faa284"/>
          <path id="Trazado_7672" data-name="Trazado 7672" d="M956.748,2135.81l.048-12.159-14.847-.059-.062,15.811A22.568,22.568,0,0,0,956.748,2135.81Z" fill="#ef8d72"/>
        </g>
        <path id="Trazado_7673" data-name="Trazado 7673" d="M941.887,2139.4s-.31,7.635,4.573,10.447c0,0,9.587-2.617,10.274-10.447l5.5,5.968s-3.482,10.213-12.43,14.38l-3.651-8.185L938.63,2159s-3.052-8.681-2.544-14.385Z" fill="#e8ebef"/>
        <path id="Trazado_7674" data-name="Trazado 7674" d="M914.534,2184.218s1.941,1.643,6.162,2.007c8.518.735,22.49,2.267,34.808.288,5.166-.83,8.965-3.44,12.857-6.491,0,0-2.32,13.244-18.512,12.977S915.549,2194.722,914.534,2184.218Z" opacity="0.1"/>
      </g>
      <g id="Grupo_11173" data-name="Grupo 11173">
        <path id="Trazado_7675" data-name="Trazado 7675" d="M926.684,2103.25s-12.607,7.149-4.109,18.131C922.575,2121.381,920.171,2110.529,926.684,2103.25Z" fill="#72382a"/>
        <path id="Trazado_7676" data-name="Trazado 7676" d="M960.883,2064.622s9.471-17.681,24.5-4.378c0,0,11.747,9.018,7.274,15.278s11.7,13.537.038,26.935,13.391,16.7-5.315,32.989a9.473,9.473,0,0,0-.641,12.182s-19.049-2.669-16.98-18.541a15.431,15.431,0,0,0-.374,12s-10.2-9.736-6.745-18.64,3.376-17.342.171-20.9S952.056,2081.7,960.883,2064.622Z" fill="#5b2a21"/>
        <path id="Trazado_7677" data-name="Trazado 7677" d="M956.9,2064.3s3.725-5.382,10.439-.433,1.865,8.494,1.865,8.494Z" fill="#e0b155"/>
        <path id="Trazado_7678" data-name="Trazado 7678" d="M925.213,2103.74l-1.109-3.933a22.739,22.739,0,0,0-4.818.135s-10.479-25.74,13.235-30.291a29.51,29.51,0,0,1,32.2-3.17s21.419,8.412,11.132,35.365L961.3,2114.525Z" fill="#72382a"/>
        <path id="Trazado_7679" data-name="Trazado 7679" d="M970.8,2084.784c-24.468,4.32-40.307-7.615-45.64-12.533-6.514,3.733-8.213,10.046-8.18,15.7C947.708,2096.935,970.8,2084.784,970.8,2084.784Z" fill="#89493d"/>
        <path id="Trazado_7680" data-name="Trazado 7680" d="M971.023,2101.689l-.392.132h0s-10.059,6.209-11.53-18.549c-3.922,4.412-3.984,15.255-3.984,15.255-5.124-1.044-15.669-.254-15.669-.254-1.822-17.649,3.064-23.38,3.064-23.38-8.942,4.212-6.757,23.322-6.757,23.322a15.228,15.228,0,0,0-6.894.812l-3.573.38s-.1,11.578.338,16.339c.853,9.314,5.694,16.129,14.831,18.283,22.032,5.194,28.242-15.736,28.242-15.736s8.282.175,9.244-10.538C978.728,2099,971.023,2101.689,971.023,2101.689Z" fill="#faa284"/>
        <path id="Trazado_7681" data-name="Trazado 7681" d="M966.762,2116.022s-5.972,15.476-18.321,17.145c-7.518,1.017-13.981-2.191-17.89-4.858a18.456,18.456,0,0,0,9.906,5.72c22.032,5.194,28.242-15.736,28.242-15.736s6.561.086,8.674-7.358C971.867,2118.575,966.762,2116.022,966.762,2116.022Z" fill="#ef8d72"/>
        <g id="Grupo_11169" data-name="Grupo 11169" opacity="0.9">
          <path id="Trazado_7682" data-name="Trazado 7682" d="M941.933,2116.724a8.915,8.915,0,1,1-8.866-8.964A8.917,8.917,0,0,1,941.933,2116.724Z" fill="#ea7460" opacity="0"/>
          <path id="Trazado_7683" data-name="Trazado 7683" d="M933.063,2108.543a8.131,8.131,0,1,1-8.176,8.087A8.131,8.131,0,0,1,933.063,2108.543Z" fill="#ea7460" opacity="0.091"/>
          <path id="Trazado_7684" data-name="Trazado 7684" d="M933.059,2109.326a7.348,7.348,0,1,1-7.389,7.308A7.348,7.348,0,0,1,933.059,2109.326Z" fill="#ea7460" opacity="0.182"/>
          <path id="Trazado_7685" data-name="Trazado 7685" d="M933.054,2110.109a6.565,6.565,0,1,1-6.6,6.529A6.566,6.566,0,0,1,933.054,2110.109Z" fill="#ea7460" opacity="0.273"/>
          <path id="Trazado_7686" data-name="Trazado 7686" d="M933.05,2110.893a5.782,5.782,0,1,1-5.814,5.749A5.782,5.782,0,0,1,933.05,2110.893Z" fill="#ea7460" opacity="0.364"/>
          <path id="Trazado_7687" data-name="Trazado 7687" d="M933.046,2111.676a5,5,0,1,1-5.026,4.971A5,5,0,0,1,933.046,2111.676Z" fill="#ea7460" opacity="0.455"/>
          <path id="Trazado_7688" data-name="Trazado 7688" d="M933.041,2112.459a4.215,4.215,0,1,1-4.238,4.192A4.215,4.215,0,0,1,933.041,2112.459Z" fill="#ea7460" opacity="0.545"/>
          <path id="Trazado_7689" data-name="Trazado 7689" d="M933.037,2113.242a3.432,3.432,0,1,1-3.451,3.413A3.433,3.433,0,0,1,933.037,2113.242Z" fill="#ea7460" opacity="0.636"/>
          <path id="Trazado_7690" data-name="Trazado 7690" d="M933.033,2114.026a2.649,2.649,0,1,1-2.664,2.633A2.649,2.649,0,0,1,933.033,2114.026Z" fill="#ea7460" opacity="0.727"/>
          <path id="Trazado_7691" data-name="Trazado 7691" d="M933.028,2114.809a1.865,1.865,0,1,1-1.876,1.855A1.867,1.867,0,0,1,933.028,2114.809Z" fill="#ea7460" opacity="0.818"/>
          <path id="Trazado_7692" data-name="Trazado 7692" d="M933.024,2115.592a1.082,1.082,0,1,1-1.088,1.076A1.081,1.081,0,0,1,933.024,2115.592Z" fill="#ea7460" opacity="0.909"/>
          <path id="Trazado_7693" data-name="Trazado 7693" d="M933.317,2116.676a.3.3,0,1,1-.3-.3A.3.3,0,0,1,933.317,2116.676Z" fill="#ea7460"/>
        </g>
        <g id="Grupo_11170" data-name="Grupo 11170" opacity="0.9">
          <path id="Trazado_7694" data-name="Trazado 7694" d="M966.848,2116.371a10.3,10.3,0,1,1-10.239-10.352A10.3,10.3,0,0,1,966.848,2116.371Z" fill="#ea7460" opacity="0"/>
          <path id="Trazado_7695" data-name="Trazado 7695" d="M956.6,2106.923a9.391,9.391,0,1,1-9.442,9.34A9.391,9.391,0,0,1,956.6,2106.923Z" fill="#ea7460" opacity="0.091"/>
          <path id="Trazado_7696" data-name="Trazado 7696" d="M956.6,2107.828a8.486,8.486,0,1,1-8.533,8.439A8.487,8.487,0,0,1,956.6,2107.828Z" fill="#ea7460" opacity="0.182"/>
          <path id="Trazado_7697" data-name="Trazado 7697" d="M956.594,2108.732a7.582,7.582,0,1,1-7.623,7.54A7.583,7.583,0,0,1,956.594,2108.732Z" fill="#ea7460" opacity="0.273"/>
          <path id="Trazado_7698" data-name="Trazado 7698" d="M956.589,2109.637a6.677,6.677,0,1,1-6.714,6.64A6.678,6.678,0,0,1,956.589,2109.637Z" fill="#ea7460" opacity="0.364"/>
          <path id="Trazado_7699" data-name="Trazado 7699" d="M956.584,2110.541a5.773,5.773,0,1,1-5.8,5.741A5.773,5.773,0,0,1,956.584,2110.541Z" fill="#ea7460" opacity="0.455"/>
          <path id="Trazado_7700" data-name="Trazado 7700" d="M956.579,2111.446a4.868,4.868,0,1,1-4.895,4.841A4.869,4.869,0,0,1,956.579,2111.446Z" fill="#ea7460" opacity="0.545"/>
          <path id="Trazado_7701" data-name="Trazado 7701" d="M956.574,2112.35a3.964,3.964,0,1,1-3.985,3.942A3.964,3.964,0,0,1,956.574,2112.35Z" fill="#ea7460" opacity="0.636"/>
          <path id="Trazado_7702" data-name="Trazado 7702" d="M956.569,2113.255a3.059,3.059,0,1,1-3.076,3.042A3.058,3.058,0,0,1,956.569,2113.255Z" fill="#ea7460" opacity="0.727"/>
          <path id="Trazado_7703" data-name="Trazado 7703" d="M956.564,2114.159a2.155,2.155,0,1,1-2.166,2.143A2.155,2.155,0,0,1,956.564,2114.159Z" fill="#ea7460" opacity="0.818"/>
          <path id="Trazado_7704" data-name="Trazado 7704" d="M956.559,2115.064a1.25,1.25,0,1,1-1.257,1.243A1.249,1.249,0,0,1,956.559,2115.064Z" fill="#ea7460" opacity="0.909"/>
          <path id="Trazado_7705" data-name="Trazado 7705" d="M956.9,2116.316a.346.346,0,1,1-.343-.348A.345.345,0,0,1,956.9,2116.316Z" fill="#ea7460"/>
        </g>
        <g id="Grupo_11171" data-name="Grupo 11171">
          <path id="Trazado_7706" data-name="Trazado 7706" d="M937.676,2120.858s5.683,1.775,14.787-.026c0,0-2.205,7.381-8.406,6.9C938.535,2127.312,937.676,2120.858,937.676,2120.858Z" fill="#b22828"/>
          <path id="Trazado_7707" data-name="Trazado 7707" d="M937.891,2121.23s5.909,2.017,14.2-.026c0,0-1.392,3.084-7.921,2.886C938.367,2123.915,937.891,2121.23,937.891,2121.23Z" fill="#fff"/>
        </g>
        <path id="Trazado_7708" data-name="Trazado 7708" d="M936.962,2099.862a10,10,0,0,0-9.017,1.714s-.05-.58.916-1.569a8.1,8.1,0,0,1,6.894-1.792S937.6,2099.26,936.962,2099.862Z" fill="#72382a"/>
        <path id="Trazado_7709" data-name="Trazado 7709" d="M948.648,2100.219a11.655,11.655,0,0,1,10.453,1.627s.046-.664-1.091-1.753a9.366,9.366,0,0,0-8-1.792S947.9,2099.556,948.648,2100.219Z" fill="#72382a"/>
        <g id="Grupo_11172" data-name="Grupo 11172">
          <path id="Trazado_7710" data-name="Trazado 7710" d="M944.5,2118.113c-4.39,1.977-6.876-.029-7.136-2.132a3.028,3.028,0,0,1,1.86-3.189c2.677-1.166,4.431-5.418,4.448-5.462h0a8.976,8.976,0,0,1-4.15,6.748c-.728.463-1.175.938-1.092,1.615.146,1.179,1.925,2.88,6.07,2.42Z" fill="#d3755f"/>
        </g>
        <path id="Trazado_7711" data-name="Trazado 7711" d="M954.424,2103.907s-2.746-.1-3.079-1.143a1.642,1.642,0,0,0,1.224,2,4.151,4.151,0,0,0-.986,2.566c-.094,1.961,1.026,3.606,2.5,3.676s2.746-1.462,2.841-3.423S955.9,2103.978,954.424,2103.907Z" fill="#754439"/>
        <path id="Trazado_7712" data-name="Trazado 7712" d="M934.324,2103.8s-2.746-.1-3.08-1.143a1.643,1.643,0,0,0,1.225,2,4.15,4.15,0,0,0-.986,2.566c-.094,1.96,1.027,3.607,2.5,3.676s2.746-1.462,2.841-3.423S935.8,2103.867,934.324,2103.8Z" fill="#754439"/>
        <path id="Trazado_7713" data-name="Trazado 7713" d="M970.8,2101.033s-10.027,3.258-5.41,18.881C965.391,2119.914,953.933,2106.756,970.8,2101.033Z" fill="#72382a"/>
      </g>
    </g>
    <path id="Trazado_7714" data-name="Trazado 7714" d="M804.193,2121.316h-21.03v-21.03Z" fill="#bce0e4"/>
  </g>
</svg>
