<svg xmlns="http://www.w3.org/2000/svg" viewBox="0 0 940.99 319.65"><defs><style>.cls-1{fill:#bfe8ff;}.cls-2{fill:#00223d;}.cls-3{fill:#67c1e3;}</style></defs><g id="Capa_2" data-name="Capa 2"><g id="CONTENIDO"><path class="cls-1" d="M793.88,157.82V34.56a3.25,3.25,0,0,1,4.58-3L939.09,95.38a3.24,3.24,0,0,1-.08,5.93L798.38,160.8A3.24,3.24,0,0,1,793.88,157.82Z"/><path class="cls-1" d="M803.2,133.79c-82.09,0-299.43-1.35-449.6,32.58C85.52,226.94,0,319.65,0,319.65S135.2,66.59,809.6,57Z"/><path class="cls-2" d="M46.31,157.16a5.39,5.39,0,0,1-1.73,4.32,7.44,7.44,0,0,1-5,1.5H36.08V151.56H40A6.8,6.8,0,0,1,44.64,153,5.19,5.19,0,0,1,46.31,157.16Zm-2.71.07c0-2.46-1.17-3.68-3.51-3.68H38.7V161h1.12Q43.6,161,43.6,157.23Z"/><path class="cls-2" d="M48.56,152c0-.77.46-1.16,1.4-1.16s1.4.39,1.4,1.16a1.09,1.09,0,0,1-.35.86,1.55,1.55,0,0,1-1,.31C49,153.16,48.56,152.77,48.56,152Zm2.68,11H48.67v-8.73h2.57Z"/><path class="cls-2" d="M59.2,154.08a4.16,4.16,0,0,1,.87.08l-.19,2.23a3.34,3.34,0,0,0-.76-.08,2.88,2.88,0,0,0-1.92.59,2,2,0,0,0-.69,1.64V163H53.94v-8.73h2l.38,1.47h.12a3.39,3.39,0,0,1,1.19-1.19A3.19,3.19,0,0,1,59.2,154.08Z"/><path class="cls-2" d="M61.67,152c0-.77.47-1.16,1.4-1.16s1.4.39,1.4,1.16a1.05,1.05,0,0,1-.35.86,1.51,1.51,0,0,1-1.05.31C62.14,153.16,61.67,152.77,61.67,152Zm2.68,11H61.78v-8.73h2.57Z"/><path class="cls-2" d="M75.26,154.25v1.21l-1.48.35a2.26,2.26,0,0,1,.41,1.31,2.58,2.58,0,0,1-1.06,2.2,4.89,4.89,0,0,1-2.94.78l-.46,0-.38,0a.77.77,0,0,0-.4.62c0,.35.47.52,1.42.52H72a3.83,3.83,0,0,1,2.37.62,2.13,2.13,0,0,1,.81,1.81A2.63,2.63,0,0,1,73.77,166a7.57,7.57,0,0,1-4,.85,5.86,5.86,0,0,1-3-.64,2,2,0,0,1-1-1.78,1.8,1.8,0,0,1,.54-1.33,3.08,3.08,0,0,1,1.56-.75,1.83,1.83,0,0,1-.7-.51,1.21,1.21,0,0,1-.29-.76,1.16,1.16,0,0,1,.31-.83,3.61,3.61,0,0,1,.9-.65,2.5,2.5,0,0,1-1.17-1,2.71,2.71,0,0,1-.44-1.54,2.63,2.63,0,0,1,1-2.21,4.57,4.57,0,0,1,2.86-.79,8.88,8.88,0,0,1,.94.07l.7.1Zm-7.28,10a.85.85,0,0,0,.51.77,3,3,0,0,0,1.43.28,5.34,5.34,0,0,0,2.17-.35q.78-.34.78-1a.68.68,0,0,0-.46-.68,4.19,4.19,0,0,0-1.43-.19H69.64a2.18,2.18,0,0,0-1.18.31A.94.94,0,0,0,68,164.22Zm.94-7.11a1.64,1.64,0,0,0,.35,1.12,1.56,1.56,0,0,0,2.13,0,1.74,1.74,0,0,0,.33-1.12c0-1.05-.46-1.58-1.4-1.58S68.92,156.06,68.92,157.11Z"/><path class="cls-2" d="M76.7,152c0-.77.47-1.16,1.4-1.16s1.4.39,1.4,1.16a1.05,1.05,0,0,1-.35.86,1.51,1.51,0,0,1-1.05.31C77.17,153.16,76.7,152.77,76.7,152Zm2.68,11H76.81v-8.73h2.57Z"/><path class="cls-2" d="M87.35,154.08a4.12,4.12,0,0,1,.86.08L88,156.39a3.28,3.28,0,0,0-.76-.08,2.88,2.88,0,0,0-1.92.59,2,2,0,0,0-.68,1.64V163H82.08v-8.73h2l.38,1.47h.13a3.36,3.36,0,0,1,1.18-1.19A3.2,3.2,0,0,1,87.35,154.08Z"/><path class="cls-2" d="M93.06,154.25h2.82l1.78,4.91a6.27,6.27,0,0,1,.31,1.52h0a6.76,6.76,0,0,1,.37-1.52l1.74-4.91h2.76l-4,9.85a4.35,4.35,0,0,1-1.56,2.05,4.21,4.21,0,0,1-2.38.68,6.24,6.24,0,0,1-1.3-.14V164.8a4.46,4.46,0,0,0,1,.11,1.91,1.91,0,0,0,1.19-.39,2.51,2.51,0,0,0,.8-1.17l.15-.43Z"/><path class="cls-2" d="M114.72,163l-.5-1.18h-.07a3.82,3.82,0,0,1-1.34,1,4.68,4.68,0,0,1-1.79.29,3,3,0,0,1-2.14-.72,2.65,2.65,0,0,1-.78-2,2.26,2.26,0,0,1,1.05-2.05,6.52,6.52,0,0,1,3.17-.73l1.64,0v-.39c0-.88-.49-1.33-1.47-1.33a7.22,7.22,0,0,0-2.66.64l-.85-1.61a8.13,8.13,0,0,1,3.61-.79,4.81,4.81,0,0,1,2.91.76,2.76,2.76,0,0,1,1,2.33V163Zm-.76-4-1,0a3.38,3.38,0,0,0-1.67.37,1.17,1.17,0,0,0-.55,1c0,.67.42,1,1.25,1a2.06,2.06,0,0,0,1.43-.48,1.61,1.61,0,0,0,.54-1.26Z"/><path class="cls-2" d="M124.34,163.14a3.22,3.22,0,0,1-2.61-1.12h-.13c.09.73.13,1.15.13,1.27v3.54h-2.57V154.25h2.09l.36,1.13h.12a3.07,3.07,0,0,1,2.68-1.3,3.14,3.14,0,0,1,2.61,1.2,5.23,5.23,0,0,1,1,3.32,6.06,6.06,0,0,1-.45,2.43,3.28,3.28,0,0,1-3.18,2.11Zm-.76-7.15a1.68,1.68,0,0,0-1.39.54,3,3,0,0,0-.46,1.8v.25a3.49,3.49,0,0,0,.45,2,1.65,1.65,0,0,0,1.43.61c1.16,0,1.73-.88,1.73-2.64a3.57,3.57,0,0,0-.42-1.93A1.5,1.5,0,0,0,123.58,156Z"/><path class="cls-2" d="M138.66,158.6a4.51,4.51,0,0,1-1.21,3.34,4.62,4.62,0,0,1-3.39,1.2,5,5,0,0,1-2.39-.55,3.93,3.93,0,0,1-1.6-1.58,5,5,0,0,1-.55-2.41,4.47,4.47,0,0,1,1.2-3.33,4.65,4.65,0,0,1,3.39-1.19,5.12,5.12,0,0,1,2.4.55,3.82,3.82,0,0,1,1.59,1.57A5,5,0,0,1,138.66,158.6Zm-6.52,0a3.4,3.4,0,0,0,.46,2,1.71,1.71,0,0,0,1.5.67,1.67,1.67,0,0,0,1.48-.66,3.52,3.52,0,0,0,.45-2,3.33,3.33,0,0,0-.46-1.94,2,2,0,0,0-3,0A3.34,3.34,0,0,0,132.14,158.6Z"/><path class="cls-2" d="M139.44,154.25h2.81l1.78,4.91a6.76,6.76,0,0,1,.32,1.52h.05a6.25,6.25,0,0,1,.36-1.52l1.74-4.91h2.76l-4,9.85a4.29,4.29,0,0,1-1.56,2.05,4.21,4.21,0,0,1-2.38.68,6.24,6.24,0,0,1-1.3-.14V164.8a4.53,4.53,0,0,0,1,.11,1.91,1.91,0,0,0,1.19-.39,2.51,2.51,0,0,0,.8-1.17l.15-.43Z"/><path class="cls-2" d="M156.6,163l-.5-1.18H156a3.91,3.91,0,0,1-1.34,1,4.75,4.75,0,0,1-1.79.29,3,3,0,0,1-2.14-.72,2.65,2.65,0,0,1-.78-2,2.26,2.26,0,0,1,1-2.05,6.47,6.47,0,0,1,3.16-.73l1.64,0v-.39c0-.88-.49-1.33-1.47-1.33a7.13,7.13,0,0,0-2.65.64l-.86-1.61a8.13,8.13,0,0,1,3.61-.79,4.81,4.81,0,0,1,2.91.76,2.74,2.74,0,0,1,1,2.33V163Zm-.76-4-1,0a3.35,3.35,0,0,0-1.67.37,1.15,1.15,0,0,0-.55,1c0,.67.41,1,1.25,1a2.08,2.08,0,0,0,1.43-.48,1.63,1.63,0,0,0,.53-1.26Z"/><path class="cls-2" d="M166.31,154.08a4.16,4.16,0,0,1,.87.08l-.2,2.23a3.28,3.28,0,0,0-.76-.08,2.88,2.88,0,0,0-1.92.59,2,2,0,0,0-.68,1.64V163h-2.57v-8.73H163l.38,1.47h.13a3.45,3.45,0,0,1,1.18-1.19A3.2,3.2,0,0,1,166.31,154.08Z"/><path class="cls-2" d="M47.21,180.56l-.5-1.19h-.07a3.66,3.66,0,0,1-1.33,1,4.56,4.56,0,0,1-1.8.3,3,3,0,0,1-2.13-.72,2.62,2.62,0,0,1-.79-2.05,2.24,2.24,0,0,1,1.06-2,6.47,6.47,0,0,1,3.16-.73l1.64,0v-.38c0-.88-.49-1.33-1.47-1.33a7,7,0,0,0-2.66.64l-.85-1.61a8.13,8.13,0,0,1,3.61-.79,4.74,4.74,0,0,1,2.91.76,2.72,2.72,0,0,1,1,2.33v5.82Zm-.76-4.05-1,0a3.41,3.41,0,0,0-1.67.37,1.17,1.17,0,0,0-.55,1.05c0,.67.42,1,1.25,1a2,2,0,0,0,1.43-.48,1.61,1.61,0,0,0,.54-1.27Z"/><path class="cls-2" d="M58.71,180.56H56.14V168.41h2.57Z"/><path class="cls-2" d="M67.4,180.56l-.5-1.19h-.07a3.58,3.58,0,0,1-1.33,1,4.56,4.56,0,0,1-1.8.3,3,3,0,0,1-2.13-.72,2.65,2.65,0,0,1-.78-2.05,2.26,2.26,0,0,1,1.05-2,6.47,6.47,0,0,1,3.16-.73l1.64,0v-.38c0-.88-.49-1.33-1.47-1.33a6.94,6.94,0,0,0-2.65.64l-.86-1.61a8.13,8.13,0,0,1,3.61-.79,4.74,4.74,0,0,1,2.91.76,2.73,2.73,0,0,1,1,2.33v5.82Zm-.76-4.05-1,0a3.41,3.41,0,0,0-1.67.37,1.16,1.16,0,0,0-.54,1.05c0,.67.41,1,1.24,1a2,2,0,0,0,1.43-.48,1.61,1.61,0,0,0,.54-1.27Z"/><path class="cls-2" d="M78.42,178a2.31,2.31,0,0,1-1,2,5.24,5.24,0,0,1-3,.71,10.7,10.7,0,0,1-1.75-.13,7,7,0,0,1-1.36-.38v-2a9.22,9.22,0,0,0,1.61.52,6.62,6.62,0,0,0,1.58.22c.94,0,1.4-.25,1.4-.75a.62.62,0,0,0-.18-.46,2.87,2.87,0,0,0-.64-.4c-.31-.15-.71-.32-1.22-.52a7.93,7.93,0,0,1-1.6-.78,2.28,2.28,0,0,1-.74-.82,2.65,2.65,0,0,1-.23-1.15,2.06,2.06,0,0,1,1-1.8,5.09,5.09,0,0,1,2.77-.64,8.32,8.32,0,0,1,3.31.69l-.77,1.72c-.48-.19-.92-.34-1.33-.46a4.46,4.46,0,0,0-1.26-.18c-.75,0-1.13.19-1.13.57a.66.66,0,0,0,.36.55,10.28,10.28,0,0,0,1.61.7,7.74,7.74,0,0,1,1.62.77,2.37,2.37,0,0,1,.76.83A2.44,2.44,0,0,1,78.42,178Z"/><path class="cls-2" d="M90.1,180.72a3.22,3.22,0,0,1-2.61-1.12h-.14c.09.73.14,1.15.14,1.27v3.54H84.92V171.83H87l.36,1.13h.12a3.05,3.05,0,0,1,2.67-1.3,3.14,3.14,0,0,1,2.62,1.2,5.22,5.22,0,0,1,.94,3.32,6.24,6.24,0,0,1-.44,2.43A3.5,3.5,0,0,1,92,180.18,3.43,3.43,0,0,1,90.1,180.72Zm-.76-7.15a1.68,1.68,0,0,0-1.39.54,2.9,2.9,0,0,0-.46,1.8v.25a3.49,3.49,0,0,0,.45,2,1.68,1.68,0,0,0,1.43.61c1.15,0,1.73-.88,1.73-2.64a3.51,3.51,0,0,0-.43-1.94A1.48,1.48,0,0,0,89.34,173.57Z"/><path class="cls-2" d="M100.12,180.72a5.08,5.08,0,0,1-3.56-1.17,4.19,4.19,0,0,1-1.29-3.29,4.63,4.63,0,0,1,1.19-3.4,4.4,4.4,0,0,1,3.28-1.2,4.31,4.31,0,0,1,3.11,1.06,3.81,3.81,0,0,1,1.11,2.91v1.16H97.88a2.19,2.19,0,0,0,.65,1.58,2.38,2.38,0,0,0,1.7.57,7.51,7.51,0,0,0,1.61-.16,8.4,8.4,0,0,0,1.59-.52v1.84a6.75,6.75,0,0,1-1.44.47A10,10,0,0,1,100.12,180.72Zm-.37-7.36a1.7,1.7,0,0,0-1.28.48,2.09,2.09,0,0,0-.53,1.36h3.61a1.88,1.88,0,0,0-.5-1.36A1.75,1.75,0,0,0,99.75,173.36Z"/><path class="cls-2" d="M111.32,171.66a5.18,5.18,0,0,1,.87.07L112,174a3.28,3.28,0,0,0-.76-.08,2.83,2.83,0,0,0-1.92.59,2,2,0,0,0-.68,1.64v4.44h-2.58v-8.73h2l.38,1.47h.13a3.45,3.45,0,0,1,1.18-1.19A3.1,3.1,0,0,1,111.32,171.66Z"/><path class="cls-2" d="M120.48,178a2.33,2.33,0,0,1-1,2,5.28,5.28,0,0,1-3,.71,10.79,10.79,0,0,1-1.75-.13,7,7,0,0,1-1.36-.38v-2a9.34,9.34,0,0,0,1.62.52,6.49,6.49,0,0,0,1.58.22c.93,0,1.4-.25,1.4-.75a.59.59,0,0,0-.19-.46,2.65,2.65,0,0,0-.64-.4c-.3-.15-.71-.32-1.21-.52a7.66,7.66,0,0,1-1.6-.78,2.19,2.19,0,0,1-.74-.82,2.51,2.51,0,0,1-.24-1.15,2,2,0,0,1,1-1.8,5.07,5.07,0,0,1,2.76-.64,8.29,8.29,0,0,1,3.31.69l-.77,1.72a13.24,13.24,0,0,0-1.33-.46,4.39,4.39,0,0,0-1.25-.18q-1.14,0-1.14.57a.65.65,0,0,0,.37.55,10,10,0,0,0,1.6.7,7.74,7.74,0,0,1,1.62.77,2.28,2.28,0,0,1,.76.83A2.44,2.44,0,0,1,120.48,178Z"/><path class="cls-2" d="M131.05,176.18a4.47,4.47,0,0,1-1.21,3.33,4.57,4.57,0,0,1-3.38,1.21,5.12,5.12,0,0,1-2.4-.55,3.81,3.81,0,0,1-1.59-1.59,5,5,0,0,1-.56-2.4,4.44,4.44,0,0,1,1.21-3.33,4.62,4.62,0,0,1,3.39-1.19,5.11,5.11,0,0,1,2.39.55,3.9,3.9,0,0,1,1.6,1.57A5,5,0,0,1,131.05,176.18Zm-6.52,0a3.5,3.5,0,0,0,.46,2,1.71,1.71,0,0,0,1.5.66,1.66,1.66,0,0,0,1.48-.66,4.47,4.47,0,0,0,0-3.91,1.73,1.73,0,0,0-1.5-.65,1.69,1.69,0,0,0-1.48.65A3.34,3.34,0,0,0,124.53,176.18Z"/><path class="cls-2" d="M141.88,180.56h-2.57v-5.1A2.34,2.34,0,0,0,139,174a1.38,1.38,0,0,0-1.16-.47,1.78,1.78,0,0,0-1.56.67,3.87,3.87,0,0,0-.48,2.21v4.11h-2.57v-8.73h2l.35,1.11h.14a2.62,2.62,0,0,1,1.19-.95,4.21,4.21,0,0,1,1.71-.33,3.46,3.46,0,0,1,2.5.83,3.15,3.15,0,0,1,.85,2.38Z"/><path class="cls-2" d="M150.52,180.56l-.5-1.19H150a3.58,3.58,0,0,1-1.33,1,4.56,4.56,0,0,1-1.8.3,3,3,0,0,1-2.13-.72,2.65,2.65,0,0,1-.78-2.05,2.26,2.26,0,0,1,1.05-2,6.47,6.47,0,0,1,3.16-.73l1.64,0v-.38c0-.88-.49-1.33-1.47-1.33a6.94,6.94,0,0,0-2.65.64l-.86-1.61a8.13,8.13,0,0,1,3.61-.79,4.74,4.74,0,0,1,2.91.76,2.73,2.73,0,0,1,1,2.33v5.82Zm-.76-4.05-1,0a3.41,3.41,0,0,0-1.67.37,1.16,1.16,0,0,0-.54,1.05c0,.67.41,1,1.24,1a2,2,0,0,0,1.43-.48,1.61,1.61,0,0,0,.54-1.27Z"/><path class="cls-2" d="M161.54,178a2.31,2.31,0,0,1-1,2,5.24,5.24,0,0,1-3,.71,10.7,10.7,0,0,1-1.75-.13,7,7,0,0,1-1.36-.38v-2a9.22,9.22,0,0,0,1.61.52,6.62,6.62,0,0,0,1.58.22c.94,0,1.4-.25,1.4-.75a.62.62,0,0,0-.18-.46,2.87,2.87,0,0,0-.64-.4c-.31-.15-.71-.32-1.22-.52a7.93,7.93,0,0,1-1.6-.78,2.28,2.28,0,0,1-.74-.82,2.65,2.65,0,0,1-.23-1.15,2.06,2.06,0,0,1,1-1.8,5.09,5.09,0,0,1,2.77-.64,8.32,8.32,0,0,1,3.31.69l-.77,1.72c-.48-.19-.92-.34-1.33-.46a4.46,4.46,0,0,0-1.26-.18c-.75,0-1.13.19-1.13.57a.66.66,0,0,0,.36.55,10.28,10.28,0,0,0,1.61.7,7.74,7.74,0,0,1,1.62.77,2.47,2.47,0,0,1,.76.83A2.44,2.44,0,0,1,161.54,178Z"/><path class="cls-2" d="M223.43,84.79a3,3,0,0,1-1.09,2.49,5,5,0,0,1-3.13.87h-1v3.59h-2.31V81.64h3.48a4.93,4.93,0,0,1,3,.79A2.79,2.79,0,0,1,223.43,84.79Zm-5.21,1.6H219a2.66,2.66,0,0,0,1.59-.39,1.3,1.3,0,0,0,.53-1.13,1.4,1.4,0,0,0-.44-1.12,2.27,2.27,0,0,0-1.39-.35h-1.05Z"/><path class="cls-2" d="M230,83.87a4,4,0,0,1,.76.06l-.17,2a2.6,2.6,0,0,0-.67-.07,2.52,2.52,0,0,0-1.7.52,1.81,1.81,0,0,0-.6,1.45v3.93h-2.28V84H227l.33,1.3h.11a2.94,2.94,0,0,1,1.05-1A2.7,2.7,0,0,1,230,83.87Z"/><path class="cls-2" d="M239.82,87.86a4,4,0,0,1-1.07,3,4.08,4.08,0,0,1-3,1.07,4.51,4.51,0,0,1-2.12-.49,3.4,3.4,0,0,1-1.41-1.4,4.41,4.41,0,0,1-.49-2.13,3.91,3.91,0,0,1,1.07-2.94,4.07,4.07,0,0,1,3-1,4.39,4.39,0,0,1,2.12.49,3.35,3.35,0,0,1,1.41,1.38A4.37,4.37,0,0,1,239.82,87.86Zm-5.76,0a3.07,3.07,0,0,0,.4,1.74,1.51,1.51,0,0,0,1.33.58,1.48,1.48,0,0,0,1.31-.58,3.16,3.16,0,0,0,.39-1.74,3,3,0,0,0-.4-1.72,1.8,1.8,0,0,0-2.63,0A3,3,0,0,0,234.06,87.86Z"/><path class="cls-2" d="M249.16,91.74h-2.27V87.23a2,2,0,0,0-.31-1.25,1.08,1.08,0,0,0-1-.42,1.38,1.38,0,0,0-1.26.59,3.61,3.61,0,0,0-.4,2v3.63H241.7V84h1.74l.3,1h.13a2.21,2.21,0,0,1,1-.83,3.32,3.32,0,0,1,1.45-.3A2.68,2.68,0,0,1,248.82,85H249a2.24,2.24,0,0,1,1-.83,3.53,3.53,0,0,1,1.48-.3,3.05,3.05,0,0,1,2.14.68,2.82,2.82,0,0,1,.73,2.15v5h-2.29V87.23a2.11,2.11,0,0,0-.3-1.25,1.08,1.08,0,0,0-1-.42,1.47,1.47,0,0,0-1.25.55,3,3,0,0,0-.41,1.75Z"/><path class="cls-2" d="M264.26,87.86a3.94,3.94,0,0,1-1.07,3,4.07,4.07,0,0,1-3,1.07,4.51,4.51,0,0,1-2.12-.49,3.4,3.4,0,0,1-1.41-1.4,4.52,4.52,0,0,1-.49-2.13,3.94,3.94,0,0,1,1.07-2.94,4.09,4.09,0,0,1,3-1,4.35,4.35,0,0,1,2.11.49,3.35,3.35,0,0,1,1.41,1.38A4.37,4.37,0,0,1,264.26,87.86Zm-5.76,0a3.06,3.06,0,0,0,.41,1.74,1.49,1.49,0,0,0,1.32.58,1.47,1.47,0,0,0,1.31-.58,3.15,3.15,0,0,0,.4-1.74,3,3,0,0,0-.41-1.72,1.48,1.48,0,0,0-1.31-.57,1.51,1.51,0,0,0-1.32.57A3,3,0,0,0,258.5,87.86Z"/><path class="cls-2" d="M268.12,91.74,265,84h2.38l1.61,4.4a6.86,6.86,0,0,1,.33,1.58h.05a6.11,6.11,0,0,1,.33-1.58l1.61-4.4h2.37l-3.17,7.72Z"/><path class="cls-2" d="M278.6,91.88a4.56,4.56,0,0,1-3.15-1,3.77,3.77,0,0,1-1.13-2.92,4.09,4.09,0,0,1,1.05-3,3.89,3.89,0,0,1,2.89-1.06,3.83,3.83,0,0,1,2.75.93,3.38,3.38,0,0,1,1,2.58v1h-5.38a2,2,0,0,0,.58,1.4,2.08,2.08,0,0,0,1.5.51,6.6,6.6,0,0,0,1.43-.15,7.36,7.36,0,0,0,1.4-.46v1.63a5.81,5.81,0,0,1-1.28.41A8.53,8.53,0,0,1,278.6,91.88Zm-.32-6.51a1.51,1.51,0,0,0-1.14.43,1.88,1.88,0,0,0-.47,1.2h3.2a1.67,1.67,0,0,0-.44-1.2A1.55,1.55,0,0,0,278.28,85.37Z"/><path class="cls-2" d="M288.5,83.87a4.15,4.15,0,0,1,.77.06l-.18,2a2.55,2.55,0,0,0-.67-.07,2.49,2.49,0,0,0-1.69.52,1.78,1.78,0,0,0-.61,1.45v3.93h-2.27V84h1.72l.33,1.3H286a2.83,2.83,0,0,1,1-1A2.7,2.7,0,0,1,288.5,83.87Z"/><path class="cls-2" d="M297,91.74h-2.28V81H297Z"/><path class="cls-2" d="M304.7,91.74l-.44-1h-.06a3.6,3.6,0,0,1-1.18.93,4.19,4.19,0,0,1-1.59.26,2.7,2.7,0,0,1-1.89-.64,2.34,2.34,0,0,1-.69-1.81,2,2,0,0,1,.93-1.81,5.68,5.68,0,0,1,2.8-.65l1.45,0v-.34c0-.78-.44-1.17-1.3-1.17a6.34,6.34,0,0,0-2.35.56l-.75-1.42a7.14,7.14,0,0,1,3.19-.7,4.14,4.14,0,0,1,2.57.68,2.39,2.39,0,0,1,.89,2v5.15ZM304,88.16l-.88,0a3,3,0,0,0-1.48.33,1,1,0,0,0-.48.92c0,.6.36.89,1.1.89a1.82,1.82,0,0,0,1.26-.41A1.44,1.44,0,0,0,304,88.8Z"/><path class="cls-2" d="M206.56,109.32h-2.27v-4.51a2.17,2.17,0,0,0-.3-1.26,1.12,1.12,0,0,0-1-.41,1.39,1.39,0,0,0-1.27.59,3.69,3.69,0,0,0-.4,2v3.64H199.1V101.6h1.74l.3,1h.13a2.27,2.27,0,0,1,1-.83,3.36,3.36,0,0,1,1.45-.3,2.71,2.71,0,0,1,2.54,1.13h.2a2.15,2.15,0,0,1,1-.83,3.45,3.45,0,0,1,1.47-.3,3.08,3.08,0,0,1,2.14.67,2.81,2.81,0,0,1,.73,2.16v5h-2.28v-4.51a2.09,2.09,0,0,0-.31-1.26,1.1,1.1,0,0,0-.95-.41,1.44,1.44,0,0,0-1.24.55,2.91,2.91,0,0,0-.42,1.75Z"/><path class="cls-2" d="M217.86,109.45a4.47,4.47,0,0,1-3.14-1,3.7,3.7,0,0,1-1.14-2.91,4.09,4.09,0,0,1,1-3,4.51,4.51,0,0,1,5.65-.13,3.4,3.4,0,0,1,1,2.58v1h-5.37a1.9,1.9,0,0,0,.57,1.4,2.11,2.11,0,0,0,1.51.51,6.51,6.51,0,0,0,1.42-.15,6.93,6.93,0,0,0,1.4-.46v1.63a5.9,5.9,0,0,1-1.27.41A8.73,8.73,0,0,1,217.86,109.45Zm-.32-6.5a1.5,1.5,0,0,0-1.13.42,1.93,1.93,0,0,0-.47,1.21h3.19a1.72,1.72,0,0,0-.44-1.21A1.56,1.56,0,0,0,217.54,103Z"/><path class="cls-2" d="M222.44,112.71a5.53,5.53,0,0,1-1.5-.17v-1.66A4.24,4.24,0,0,0,222,111a1.07,1.07,0,0,0,.84-.29,1.32,1.32,0,0,0,.26-.88V101.6h2.27v8.55a2.39,2.39,0,0,1-.76,1.9A3.26,3.26,0,0,1,222.44,112.71ZM223,99.6c0-.68.42-1,1.24-1s1.24.35,1.24,1a.94.94,0,0,1-.31.76,1.34,1.34,0,0,1-.93.28C223.43,100.64,223,100.29,223,99.6Z"/><path class="cls-2" d="M235.34,105.44a3.94,3.94,0,0,1-1.07,3,4.06,4.06,0,0,1-3,1.06,4.54,4.54,0,0,1-2.12-.48,3.4,3.4,0,0,1-1.41-1.4,4.52,4.52,0,0,1-.49-2.13,3.94,3.94,0,0,1,1.07-2.94,4.09,4.09,0,0,1,3-1,4.47,4.47,0,0,1,2.11.48,3.43,3.43,0,0,1,1.41,1.39A4.37,4.37,0,0,1,235.34,105.44Zm-5.76,0a3,3,0,0,0,.41,1.73,1.77,1.77,0,0,0,2.63,0,3.15,3.15,0,0,0,.4-1.74,3.08,3.08,0,0,0-.4-1.72,1.81,1.81,0,0,0-2.64,0A3.05,3.05,0,0,0,229.58,105.44Z"/><path class="cls-2" d="M241.87,101.45a4.07,4.07,0,0,1,.77.06l-.17,2a2.6,2.6,0,0,0-.67-.07,2.52,2.52,0,0,0-1.7.52,1.81,1.81,0,0,0-.6,1.45v3.93h-2.28V101.6h1.72l.34,1.29h.11a3,3,0,0,1,1.05-1A2.69,2.69,0,0,1,241.87,101.45Z"/><path class="cls-2" d="M249.45,109.32l-.44-1H249a3.5,3.5,0,0,1-1.18.93,4.21,4.21,0,0,1-1.59.25,2.7,2.7,0,0,1-1.89-.63,2.34,2.34,0,0,1-.69-1.81,2,2,0,0,1,.93-1.81,5.68,5.68,0,0,1,2.8-.65l1.45,0v-.34c0-.78-.44-1.17-1.3-1.17a6.15,6.15,0,0,0-2.35.56l-.75-1.43a7.28,7.28,0,0,1,3.19-.69,4.21,4.21,0,0,1,2.57.67,2.43,2.43,0,0,1,.9,2.06v5.15Zm-.67-3.58-.88,0a3.05,3.05,0,0,0-1.48.33,1,1,0,0,0-.48.92c0,.6.36.89,1.1.89a1.81,1.81,0,0,0,1.26-.42,1.41,1.41,0,0,0,.48-1.12Z"/><path class="cls-2" d="M260.73,109.45c-2.6,0-3.9-1.31-3.9-4a4.06,4.06,0,0,1,1.06-3,4.18,4.18,0,0,1,3-1,6.15,6.15,0,0,1,2.59.53l-.67,1.63a8.94,8.94,0,0,0-1-.33,3.25,3.25,0,0,0-.92-.13c-1.19,0-1.78.78-1.78,2.33s.59,2.27,1.78,2.27a4.66,4.66,0,0,0,1.21-.16,4.47,4.47,0,0,0,1.12-.51v1.8a3.71,3.71,0,0,1-1.11.45A7,7,0,0,1,260.73,109.45Z"/><path class="cls-2" d="M272.77,105.44a4,4,0,0,1-1.08,3,4,4,0,0,1-3,1.06,4.47,4.47,0,0,1-2.11-.48,3.29,3.29,0,0,1-1.41-1.4,4.41,4.41,0,0,1-.5-2.13,3.94,3.94,0,0,1,1.07-2.94,4.09,4.09,0,0,1,3-1,4.47,4.47,0,0,1,2.11.48,3.38,3.38,0,0,1,1.41,1.39A4.37,4.37,0,0,1,272.77,105.44Zm-5.77,0a3,3,0,0,0,.41,1.73,1.77,1.77,0,0,0,2.63,0,3.07,3.07,0,0,0,.4-1.74,3,3,0,0,0-.4-1.72,1.51,1.51,0,0,0-1.32-.57,1.48,1.48,0,0,0-1.31.57A3,3,0,0,0,267,105.44Z"/><path class="cls-2" d="M282.34,109.32h-2.28v-4.51a2,2,0,0,0-.32-1.26,1.21,1.21,0,0,0-1-.41,1.57,1.57,0,0,0-1.38.59,3.44,3.44,0,0,0-.42,2v3.64h-2.28V101.6h1.74l.31,1h.12a2.43,2.43,0,0,1,1.05-.84,3.82,3.82,0,0,1,1.52-.29,3,3,0,0,1,2.2.73,2.77,2.77,0,0,1,.76,2.1Z"/><path class="cls-2" d="M288.19,107.78a5,5,0,0,0,1.43-.25v1.57a5.37,5.37,0,0,1-2.09.35,2.67,2.67,0,0,1-2-.63,2.64,2.64,0,0,1-.63-1.92v-3.72h-1.09v-.89l1.26-.71.65-1.63h1.46v1.65h2.33v1.58H287.2v3.72a.78.78,0,0,0,.27.66A1.14,1.14,0,0,0,288.19,107.78Z"/><path class="cls-2" d="M291.21,99.6c0-.68.41-1,1.23-1s1.24.35,1.24,1a.94.94,0,0,1-.31.76,1.31,1.31,0,0,1-.93.28C291.62,100.64,291.21,100.29,291.21,99.6Zm2.37,9.72H291.3V101.6h2.28Z"/><path class="cls-2" d="M303.66,109.32h-2.28v-4.51a2,2,0,0,0-.32-1.26,1.21,1.21,0,0,0-1-.41,1.57,1.57,0,0,0-1.38.59,3.44,3.44,0,0,0-.42,2v3.64H296V101.6h1.74l.31,1h.12a2.43,2.43,0,0,1,1.05-.84,3.82,3.82,0,0,1,1.52-.29,3,3,0,0,1,2.2.73,2.77,2.77,0,0,1,.76,2.1Z"/><path class="cls-2" d="M311.9,109.32l-.3-1h-.12a2.41,2.41,0,0,1-1,.83,3.73,3.73,0,0,1-1.53.29,3,3,0,0,1-2.21-.72,2.81,2.81,0,0,1-.75-2.1v-5h2.28v4.5a2,2,0,0,0,.32,1.26,1.19,1.19,0,0,0,1,.42,1.61,1.61,0,0,0,1.38-.59,3.5,3.5,0,0,0,.42-2V101.6h2.28v7.72Z"/><path class="cls-2" d="M321.32,109.32l-.44-1h-.06a3.4,3.4,0,0,1-1.18.93,4.12,4.12,0,0,1-1.58.25,2.7,2.7,0,0,1-1.89-.63,2.34,2.34,0,0,1-.69-1.81,2,2,0,0,1,.93-1.81,5.68,5.68,0,0,1,2.8-.65l1.44,0v-.34q0-1.17-1.29-1.17a6.15,6.15,0,0,0-2.35.56l-.76-1.43a7.31,7.31,0,0,1,3.19-.69,4.24,4.24,0,0,1,2.58.67,2.45,2.45,0,0,1,.89,2.06v5.15Zm-.67-3.58-.88,0a3,3,0,0,0-1.47.33,1,1,0,0,0-.49.92c0,.6.37.89,1.11.89a1.84,1.84,0,0,0,1.26-.42,1.43,1.43,0,0,0,.47-1.12Z"/><path class="cls-2" d="M614.58,12.16V.73h2.61v9.43h5v2Z"/><path class="cls-2" d="M632.7,7.77a4.47,4.47,0,0,1-1.21,3.34,4.62,4.62,0,0,1-3.39,1.2,5,5,0,0,1-2.39-.55,3.87,3.87,0,0,1-1.6-1.58,5,5,0,0,1-.55-2.41,4.46,4.46,0,0,1,1.2-3.32,4.61,4.61,0,0,1,3.39-1.19,5.12,5.12,0,0,1,2.4.54,3.79,3.79,0,0,1,1.59,1.58A4.83,4.83,0,0,1,632.7,7.77Zm-6.52,0a3.4,3.4,0,0,0,.46,2,1.69,1.69,0,0,0,1.5.67,1.67,1.67,0,0,0,1.48-.66,3.52,3.52,0,0,0,.45-2,3.33,3.33,0,0,0-.46-1.94,1.69,1.69,0,0,0-1.49-.65,1.67,1.67,0,0,0-1.48.64A3.34,3.34,0,0,0,626.18,7.77Z"/><path class="cls-2" d="M643,3.42V4.63L641.56,5A2.28,2.28,0,0,1,642,6.3a2.58,2.58,0,0,1-1.06,2.19,4.85,4.85,0,0,1-2.94.78l-.46,0-.38,0a.81.81,0,0,0-.4.63c0,.34.48.51,1.42.51h1.6a3.87,3.87,0,0,1,2.37.62,2.13,2.13,0,0,1,.81,1.81,2.66,2.66,0,0,1-1.38,2.38,7.67,7.67,0,0,1-4,.84,5.76,5.76,0,0,1-3-.64,2,2,0,0,1-1-1.78,1.76,1.76,0,0,1,.53-1.32,3,3,0,0,1,1.56-.76,1.56,1.56,0,0,1-.69-.51,1.16,1.16,0,0,1-.3-.76,1.2,1.2,0,0,1,.31-.83,3.5,3.5,0,0,1,.91-.65,2.52,2.52,0,0,1-1.18-1,2.76,2.76,0,0,1-.43-1.55,2.63,2.63,0,0,1,1-2.21,4.58,4.58,0,0,1,2.87-.78,8.92,8.92,0,0,1,.94.06l.69.1Zm-7.28,10a.84.84,0,0,0,.51.77,3,3,0,0,0,1.43.29,5.28,5.28,0,0,0,2.17-.36c.52-.23.79-.55.79-1a.69.69,0,0,0-.47-.68,4.24,4.24,0,0,0-1.43-.18h-1.33a2.19,2.19,0,0,0-1.19.3A.94.94,0,0,0,635.75,13.39Zm.94-7.11A1.73,1.73,0,0,0,637,7.41a1.34,1.34,0,0,0,1.07.41,1.31,1.31,0,0,0,1.06-.41,1.79,1.79,0,0,0,.34-1.13c0-1-.47-1.58-1.4-1.58S636.69,5.23,636.69,6.28Z"/><path class="cls-2" d="M649.85,3.26a4.24,4.24,0,0,1,.87.07l-.2,2.23a3.28,3.28,0,0,0-.76-.08,2.88,2.88,0,0,0-1.92.59,2.06,2.06,0,0,0-.68,1.64v4.45h-2.58V3.42h1.95l.38,1.47H647a3.42,3.42,0,0,1,1.18-1.18A3.1,3.1,0,0,1,649.85,3.26Z"/><path class="cls-2" d="M658.42,12.16l-.5-1.19h-.07a3.82,3.82,0,0,1-1.34,1,4.68,4.68,0,0,1-1.79.29,3,3,0,0,1-2.14-.72,2.64,2.64,0,0,1-.78-2,2.25,2.25,0,0,1,1.05-2.05A6.41,6.41,0,0,1,656,6.77l1.64,0V6.34c0-.89-.49-1.33-1.47-1.33a7.19,7.19,0,0,0-2.66.63L652.68,4a8.13,8.13,0,0,1,3.61-.79A4.74,4.74,0,0,1,659.2,4a2.71,2.71,0,0,1,1,2.33v5.82Zm-.76-4.05-1,0a3.37,3.37,0,0,0-1.67.38,1.15,1.15,0,0,0-.55,1c0,.67.42,1,1.25,1a2,2,0,0,0,1.43-.48,1.59,1.59,0,0,0,.54-1.26Z"/><path class="cls-2" d="M668.12,3.26a4.24,4.24,0,0,1,.87.07l-.19,2.23a3.28,3.28,0,0,0-.76-.08,2.88,2.88,0,0,0-1.92.59,2,2,0,0,0-.69,1.64v4.45h-2.57V3.42h1.95l.38,1.47h.13a3.33,3.33,0,0,1,1.18-1.18A3.09,3.09,0,0,1,668.12,3.26Z"/><path class="cls-2" d="M677.77,12.16h-2.58V0h2.58Z"/><path class="cls-2" d="M689,7.77a4.47,4.47,0,0,1-1.21,3.34,4.61,4.61,0,0,1-3.38,1.2,5,5,0,0,1-2.4-.55,3.79,3.79,0,0,1-1.59-1.58,5,5,0,0,1-.56-2.41,4.43,4.43,0,0,1,1.21-3.32,4.58,4.58,0,0,1,3.39-1.19,5.1,5.1,0,0,1,2.39.54,3.81,3.81,0,0,1,1.6,1.58A4.93,4.93,0,0,1,689,7.77Zm-6.52,0a3.48,3.48,0,0,0,.46,2,1.69,1.69,0,0,0,1.5.67A1.66,1.66,0,0,0,686,9.74a3.52,3.52,0,0,0,.45-2A3.41,3.41,0,0,0,686,5.83a1.71,1.71,0,0,0-1.5-.65,1.68,1.68,0,0,0-1.48.64A3.42,3.42,0,0,0,682.51,7.77Z"/><path class="cls-2" d="M697.74,9.56a2.35,2.35,0,0,1-1,2,5.29,5.29,0,0,1-3,.7,9.77,9.77,0,0,1-1.75-.13,6.48,6.48,0,0,1-1.36-.38v-2a10.29,10.29,0,0,0,1.62.52,7,7,0,0,0,1.58.21c.93,0,1.4-.25,1.4-.75a.59.59,0,0,0-.19-.46,2.76,2.76,0,0,0-.64-.4c-.3-.14-.71-.32-1.21-.51a8.13,8.13,0,0,1-1.6-.79,2.19,2.19,0,0,1-.74-.82,2.47,2.47,0,0,1-.23-1.14,2,2,0,0,1,1-1.81,5.08,5.08,0,0,1,2.76-.63,8.37,8.37,0,0,1,3.32.69l-.78,1.71c-.47-.18-.91-.34-1.32-.46A4.46,4.46,0,0,0,694.28,5q-1.14,0-1.14.57a.66.66,0,0,0,.37.56,10.31,10.31,0,0,0,1.6.69,7.67,7.67,0,0,1,1.62.78,2.21,2.21,0,0,1,.76.83A2.28,2.28,0,0,1,697.74,9.56Z"/><path class="cls-2" d="M616.62,20.84a4.24,4.24,0,0,1,.87.07l-.19,2.23a3.34,3.34,0,0,0-.76-.08,2.88,2.88,0,0,0-1.92.59,2,2,0,0,0-.69,1.64v4.45h-2.57V21h1.95l.38,1.47h.12A3.28,3.28,0,0,1,615,21.29,3.07,3.07,0,0,1,616.62,20.84Z"/><path class="cls-2" d="M623.47,29.89a5.12,5.12,0,0,1-3.56-1.16,4.26,4.26,0,0,1-1.28-3.3A4.6,4.6,0,0,1,619.81,22a4.41,4.41,0,0,1,3.28-1.2,4.35,4.35,0,0,1,3.11,1.05,3.84,3.84,0,0,1,1.12,2.92V26h-6.09a2.24,2.24,0,0,0,.65,1.59,2.42,2.42,0,0,0,1.71.57A7.57,7.57,0,0,0,625.2,28a8.56,8.56,0,0,0,1.58-.52v1.84a6.23,6.23,0,0,1-1.44.47A9.88,9.88,0,0,1,623.47,29.89Zm-.36-7.36a1.71,1.71,0,0,0-1.29.48,2.22,2.22,0,0,0-.53,1.37h3.61a1.9,1.9,0,0,0-.49-1.37A1.77,1.77,0,0,0,623.11,22.53Z"/><path class="cls-2" d="M636,27.14a2.35,2.35,0,0,1-1,2.05,5.29,5.29,0,0,1-3,.7,9.77,9.77,0,0,1-1.75-.13,6.32,6.32,0,0,1-1.36-.38v-2a10.29,10.29,0,0,0,1.62.52,7,7,0,0,0,1.58.21c.93,0,1.4-.25,1.4-.75a.59.59,0,0,0-.19-.46,3,3,0,0,0-.64-.4c-.3-.14-.71-.32-1.21-.52a7.66,7.66,0,0,1-1.6-.78,2.19,2.19,0,0,1-.74-.82,2.48,2.48,0,0,1-.24-1.15,2,2,0,0,1,1-1.8,5.08,5.08,0,0,1,2.76-.63,8.45,8.45,0,0,1,3.31.68l-.77,1.72c-.47-.18-.92-.34-1.33-.46a4.39,4.39,0,0,0-1.25-.18q-1.14,0-1.14.57a.66.66,0,0,0,.37.56,10.31,10.31,0,0,0,1.6.69,7.67,7.67,0,0,1,1.62.78,2.26,2.26,0,0,1,.76.82A2.47,2.47,0,0,1,636,27.14Z"/><path class="cls-2" d="M644.67,29.74l-.34-1.12h-.14a2.63,2.63,0,0,1-1.17.94,4.3,4.3,0,0,1-1.73.33,3.42,3.42,0,0,1-2.5-.82,3.14,3.14,0,0,1-.85-2.37V21h2.58v5.1a2.32,2.32,0,0,0,.36,1.42A1.36,1.36,0,0,0,642,28a1.8,1.8,0,0,0,1.56-.66,3.93,3.93,0,0,0,.48-2.22V21h2.58v8.74Z"/><path class="cls-2" d="M651.92,29.74h-2.57V17.58h2.57Z"/><path class="cls-2" d="M658.59,28a6.05,6.05,0,0,0,1.62-.27v1.77a6.09,6.09,0,0,1-2.36.4,3,3,0,0,1-2.25-.72,3,3,0,0,1-.7-2.17V22.79h-1.24v-1l1.42-.79.74-1.85h1.65V21h2.64v1.79h-2.64V27a.88.88,0,0,0,.31.75A1.26,1.26,0,0,0,658.59,28Z"/><path class="cls-2" d="M668.1,29.74l-.49-1.19h-.07a3.82,3.82,0,0,1-1.34,1.05,4.71,4.71,0,0,1-1.79.29,3,3,0,0,1-2.14-.72,2.64,2.64,0,0,1-.78-2,2.23,2.23,0,0,1,1-2.05,6.4,6.4,0,0,1,3.17-.74l1.63,0v-.38c0-.89-.48-1.33-1.46-1.33a7.14,7.14,0,0,0-2.66.63l-.85-1.61a8.1,8.1,0,0,1,3.61-.79,4.78,4.78,0,0,1,2.91.77,2.74,2.74,0,0,1,1,2.33v5.82Zm-.76-4-1,0a3.47,3.47,0,0,0-1.67.37,1.15,1.15,0,0,0-.55,1.05c0,.67.42,1,1.25,1a2.06,2.06,0,0,0,1.43-.48,1.6,1.6,0,0,0,.53-1.26Z"/><path class="cls-2" d="M675.53,29.89a3.18,3.18,0,0,1-2.61-1.19,5.24,5.24,0,0,1-.95-3.32,5.19,5.19,0,0,1,1-3.34,3.22,3.22,0,0,1,2.66-1.2,3.15,3.15,0,0,1,2.72,1.28h.08a8.94,8.94,0,0,1-.19-1.74v-2.8h2.58V29.74h-2l-.5-1.14h-.11A3,3,0,0,1,675.53,29.89Zm.91-1.9a1.78,1.78,0,0,0,1.44-.53,2.82,2.82,0,0,0,.5-1.8V25.4a3.4,3.4,0,0,0-.46-2,1.83,1.83,0,0,0-1.53-.61,1.54,1.54,0,0,0-1.33.68,3.39,3.39,0,0,0-.48,2,3.23,3.23,0,0,0,.48,1.93A1.61,1.61,0,0,0,676.44,28Z"/><path class="cls-2" d="M692.05,25.35a4.5,4.5,0,0,1-1.22,3.34,4.59,4.59,0,0,1-3.38,1.2,5,5,0,0,1-2.39-.55,3.75,3.75,0,0,1-1.6-1.58,5,5,0,0,1-.55-2.41,4.49,4.49,0,0,1,1.2-3.33,4.65,4.65,0,0,1,3.39-1.18,5.12,5.12,0,0,1,2.4.54A3.82,3.82,0,0,1,691.49,23,5,5,0,0,1,692.05,25.35Zm-6.52,0a3.4,3.4,0,0,0,.46,2,2,2,0,0,0,3,0,3.52,3.52,0,0,0,.45-2,3.33,3.33,0,0,0-.46-1.94,1.67,1.67,0,0,0-1.49-.65,1.7,1.7,0,0,0-1.49.64A3.43,3.43,0,0,0,685.53,25.35Z"/><path class="cls-2" d="M700.75,27.14a2.32,2.32,0,0,1-1,2.05,5.25,5.25,0,0,1-3,.7,9.69,9.69,0,0,1-1.75-.13,6.32,6.32,0,0,1-1.36-.38v-2a9.83,9.83,0,0,0,1.61.52,7.09,7.09,0,0,0,1.58.21c.94,0,1.4-.25,1.4-.75a.62.62,0,0,0-.18-.46,3.3,3.3,0,0,0-.64-.4c-.31-.14-.71-.32-1.22-.52a7.93,7.93,0,0,1-1.6-.78,2.28,2.28,0,0,1-.74-.82,2.62,2.62,0,0,1-.23-1.15,2.06,2.06,0,0,1,1-1.8,5.09,5.09,0,0,1,2.77-.63,8.49,8.49,0,0,1,3.31.68l-.77,1.72c-.48-.18-.92-.34-1.33-.46a4.46,4.46,0,0,0-1.26-.18c-.75,0-1.13.19-1.13.57a.67.67,0,0,0,.36.56,10.58,10.58,0,0,0,1.61.69,7.67,7.67,0,0,1,1.62.78,2.14,2.14,0,0,1,1,1.94Z"/><path class="cls-2" d="M622.52,47.47a3.22,3.22,0,0,1-2.61-1.12h-.13c.09.73.13,1.15.13,1.27v3.54h-2.57V38.58h2.09l.36,1.13h.12a3,3,0,0,1,2.67-1.29,3.14,3.14,0,0,1,2.62,1.19,5.22,5.22,0,0,1,.94,3.32,6.06,6.06,0,0,1-.44,2.43,3.28,3.28,0,0,1-3.18,2.11Zm-.76-7.15a1.68,1.68,0,0,0-1.39.54,2.9,2.9,0,0,0-.46,1.8v.26a3.47,3.47,0,0,0,.45,2,1.65,1.65,0,0,0,1.43.61c1.15,0,1.73-.88,1.73-2.64a3.47,3.47,0,0,0-.43-1.93A1.48,1.48,0,0,0,621.76,40.32Z"/><path class="cls-2" d="M633.53,38.42a4.24,4.24,0,0,1,.87.07l-.19,2.23a3.28,3.28,0,0,0-.76-.08,2.88,2.88,0,0,0-1.92.59,2,2,0,0,0-.69,1.64v4.44h-2.57V38.58h2l.38,1.47h.12a3.48,3.48,0,0,1,1.19-1.19A3.18,3.18,0,0,1,633.53,38.42Z"/><path class="cls-2" d="M640.38,47.47a5.14,5.14,0,0,1-3.56-1.16,4.26,4.26,0,0,1-1.28-3.3,4.64,4.64,0,0,1,1.18-3.4A4.45,4.45,0,0,1,640,38.42a4.35,4.35,0,0,1,3.11,1,3.82,3.82,0,0,1,1.12,2.91v1.16h-6.08a2.19,2.19,0,0,0,.64,1.59,2.42,2.42,0,0,0,1.71.57,7.57,7.57,0,0,0,1.61-.17,8.32,8.32,0,0,0,1.58-.52v1.84a6.23,6.23,0,0,1-1.44.47A9.88,9.88,0,0,1,640.38,47.47ZM640,40.11a1.67,1.67,0,0,0-1.28.48A2.17,2.17,0,0,0,638.2,42h3.61a1.9,1.9,0,0,0-.49-1.36A1.77,1.77,0,0,0,640,40.11Z"/><path class="cls-2" d="M648.56,47.31,645,38.58h2.69l1.82,5a8.37,8.37,0,0,1,.38,1.78h0a7.52,7.52,0,0,1,.38-1.78l1.81-5h2.69l-3.59,8.73Z"/><path class="cls-2" d="M656,36.32c0-.77.47-1.16,1.4-1.16s1.4.39,1.4,1.16a1.05,1.05,0,0,1-.35.86,1.51,1.51,0,0,1-1.05.31C656.5,37.49,656,37.1,656,36.32Zm2.69,11h-2.58V38.58h2.58Z"/><path class="cls-2" d="M668,44.72a2.34,2.34,0,0,1-1,2.05,5.31,5.31,0,0,1-3,.7,9.69,9.69,0,0,1-1.75-.13,7,7,0,0,1-1.36-.38V45a9.21,9.21,0,0,0,1.61.53,7.1,7.1,0,0,0,1.59.21c.93,0,1.4-.25,1.4-.75a.63.63,0,0,0-.19-.46,2.65,2.65,0,0,0-.64-.4c-.31-.15-.71-.32-1.22-.52a7.8,7.8,0,0,1-1.59-.78,2.31,2.31,0,0,1-.75-.82,2.62,2.62,0,0,1-.23-1.15,2,2,0,0,1,1-1.8,5.08,5.08,0,0,1,2.76-.63,8.31,8.31,0,0,1,3.31.68l-.77,1.72c-.48-.19-.92-.34-1.33-.46a4.45,4.45,0,0,0-1.25-.18q-1.14,0-1.14.57a.68.68,0,0,0,.36.56,11.76,11.76,0,0,0,1.61.69,8.28,8.28,0,0,1,1.62.77,2.37,2.37,0,0,1,.76.83A2.46,2.46,0,0,1,668,44.72Z"/><path class="cls-2" d="M674,45.57a6.05,6.05,0,0,0,1.62-.27v1.77a6.09,6.09,0,0,1-2.36.4,3,3,0,0,1-2.25-.72,3,3,0,0,1-.7-2.17V40.37h-1.23v-1l1.42-.8.74-1.84h1.64v1.86h2.64v1.79h-2.64v4.21a.88.88,0,0,0,.31.75A1.3,1.3,0,0,0,674,45.57Z"/><path class="cls-2" d="M686.07,42.93a4.51,4.51,0,0,1-1.22,3.34,4.59,4.59,0,0,1-3.38,1.2,5,5,0,0,1-2.39-.55,3.81,3.81,0,0,1-1.6-1.58,5,5,0,0,1-.55-2.41,4.47,4.47,0,0,1,1.2-3.33,4.65,4.65,0,0,1,3.39-1.18,5.12,5.12,0,0,1,2.4.54,3.82,3.82,0,0,1,1.59,1.57A5,5,0,0,1,686.07,42.93Zm-6.52,0a3.4,3.4,0,0,0,.46,2,2,2,0,0,0,3,0,3.52,3.52,0,0,0,.45-2A3.33,3.33,0,0,0,683,41a1.67,1.67,0,0,0-1.49-.65A1.7,1.7,0,0,0,680,41,3.43,3.43,0,0,0,679.55,42.93Z"/><path class="cls-2" d="M694.77,44.72a2.32,2.32,0,0,1-1,2.05,5.25,5.25,0,0,1-3,.7,9.69,9.69,0,0,1-1.75-.13,7,7,0,0,1-1.36-.38V45a9.21,9.21,0,0,0,1.61.53,7.09,7.09,0,0,0,1.58.21c.94,0,1.4-.25,1.4-.75a.62.62,0,0,0-.18-.46,2.87,2.87,0,0,0-.64-.4c-.31-.15-.71-.32-1.22-.52a7.93,7.93,0,0,1-1.6-.78,2.28,2.28,0,0,1-.74-.82,2.62,2.62,0,0,1-.23-1.15,2.06,2.06,0,0,1,1-1.8,5.09,5.09,0,0,1,2.77-.63,8.31,8.31,0,0,1,3.31.68l-.77,1.72c-.48-.19-.92-.34-1.33-.46a4.46,4.46,0,0,0-1.26-.18c-.75,0-1.13.19-1.13.57a.68.68,0,0,0,.36.56,11.76,11.76,0,0,0,1.61.69,8.28,8.28,0,0,1,1.62.77,2.37,2.37,0,0,1,.76.83A2.46,2.46,0,0,1,694.77,44.72Z"/><path class="cls-2" d="M122.36,268.7l-1.53-3.63h-4.94l-1.52,3.63h-1.45l4.87-11.47H119l4.85,11.47Zm-2-4.82L119,260.34c-.19-.45-.38-1-.58-1.65a13.47,13.47,0,0,1-.53,1.65l-1.45,3.54Z"/><path class="cls-2" d="M131.3,266.37a2.1,2.1,0,0,1-1,1.84,4.81,4.81,0,0,1-2.7.65,6.22,6.22,0,0,1-2.86-.54v-1.2a7.08,7.08,0,0,0,1.43.49,6.42,6.42,0,0,0,1.47.18,3.54,3.54,0,0,0,1.69-.33,1.07,1.07,0,0,0,.12-1.84,7.29,7.29,0,0,0-1.83-.84,9.71,9.71,0,0,1-1.83-.78,2.28,2.28,0,0,1-.81-.75,1.84,1.84,0,0,1-.27-1,1.88,1.88,0,0,1,.92-1.65,4.56,4.56,0,0,1,2.52-.61,7.78,7.78,0,0,1,2.92.57l-.5,1.05a7.17,7.17,0,0,0-2.52-.53,3.14,3.14,0,0,0-1.5.29.88.88,0,0,0-.51.8.94.94,0,0,0,.19.58,1.78,1.78,0,0,0,.62.46,13.68,13.68,0,0,0,1.62.64,6.39,6.39,0,0,1,2.22,1.11A1.93,1.93,0,0,1,131.3,266.37Z"/><path class="cls-2" d="M137.48,268.86a4.45,4.45,0,0,1-3.24-1.16,4.27,4.27,0,0,1-1.18-3.21,4.71,4.71,0,0,1,1.1-3.29,3.79,3.79,0,0,1,3-1.22,3.63,3.63,0,0,1,2.74,1.06,3.87,3.87,0,0,1,1,2.8v.82h-6.37a3.28,3.28,0,0,0,.82,2.29,3,3,0,0,0,2.2.78,8.07,8.07,0,0,0,2.95-.58v1.15a7.91,7.91,0,0,1-1.4.43A8.27,8.27,0,0,1,137.48,268.86Zm-.38-7.79a2.38,2.38,0,0,0-1.78.67,3,3,0,0,0-.78,1.86h4.84a2.69,2.69,0,0,0-.6-1.88A2.15,2.15,0,0,0,137.1,261.07Z"/><path class="cls-2" d="M150.83,260.14V261l-1.71.19a2.77,2.77,0,0,1,.42.71,2.66,2.66,0,0,1,.18,1,2.44,2.44,0,0,1-.92,2,4,4,0,0,1-2.55.75,3.9,3.9,0,0,1-.78-.07c-.59.3-.89.66-.89,1.11a.56.56,0,0,0,.31.52,2.51,2.51,0,0,0,1.07.16h1.64a3.9,3.9,0,0,1,2.31.59,2,2,0,0,1,.8,1.7,2.39,2.39,0,0,1-1.23,2.17,7,7,0,0,1-3.59.75,5.21,5.21,0,0,1-2.8-.63,2,2,0,0,1-1-1.76,1.92,1.92,0,0,1,.54-1.36,2.82,2.82,0,0,1,1.52-.77,1.43,1.43,0,0,1-.6-.46,1.16,1.16,0,0,1-.24-.73,1.32,1.32,0,0,1,.27-.82,2.83,2.83,0,0,1,.85-.68,2.46,2.46,0,0,1-1.17-.93,2.56,2.56,0,0,1-.45-1.5,2.67,2.67,0,0,1,.91-2.16,3.92,3.92,0,0,1,2.59-.77,5.2,5.2,0,0,1,1.3.16Zm-7.37,10a1.16,1.16,0,0,0,.63,1.06,3.85,3.85,0,0,0,1.81.35,5.45,5.45,0,0,0,2.61-.48,1.48,1.48,0,0,0,.85-1.33,1,1,0,0,0-.46-1,3.86,3.86,0,0,0-1.75-.27h-1.68a2.33,2.33,0,0,0-1.48.42A1.43,1.43,0,0,0,143.46,270.14Zm.76-7.26a1.69,1.69,0,0,0,.54,1.36,2.31,2.31,0,0,0,1.53.46c1.37,0,2.05-.61,2.05-1.84s-.69-1.93-2.07-1.93a2.14,2.14,0,0,0-1.52.49A1.88,1.88,0,0,0,144.22,262.88Z"/><path class="cls-2" d="M154,260.14v5.56a2.12,2.12,0,0,0,.52,1.56,2.21,2.21,0,0,0,1.61.51,2.74,2.74,0,0,0,2.12-.73,3.49,3.49,0,0,0,.67-2.4v-4.5h1.4v8.56H159.2l-.2-1.15h-.07a2.69,2.69,0,0,1-1.2,1,4.19,4.19,0,0,1-1.74.34,3.76,3.76,0,0,1-2.53-.74,3.07,3.07,0,0,1-.83-2.38v-5.6Z"/><path class="cls-2" d="M167.55,260a6.07,6.07,0,0,1,1.1.1l-.19,1.2a5.09,5.09,0,0,0-1-.12,2.55,2.55,0,0,0-1.91.85,2.9,2.9,0,0,0-.8,2.1v4.59h-1.4v-8.56h1.15l.16,1.59h.07a3.84,3.84,0,0,1,1.24-1.29A3,3,0,0,1,167.55,260Z"/><path class="cls-2" d="M176.06,268.7l-.27-1.22h-.07a3.77,3.77,0,0,1-1.38,1.09,4.51,4.51,0,0,1-1.72.29,3.23,3.23,0,0,1-2.15-.66,2.29,2.29,0,0,1-.78-1.86q0-2.59,4.48-2.72l1.57-.05V263a2.08,2.08,0,0,0-.47-1.49,2,2,0,0,0-1.5-.48,6.43,6.43,0,0,0-2.61.66l-.43-1a6.72,6.72,0,0,1,1.49-.53,7.06,7.06,0,0,1,1.63-.2,3.71,3.71,0,0,1,2.45.68,2.69,2.69,0,0,1,.8,2.18v5.84Zm-3.16-.91a3,3,0,0,0,2.06-.66,2.4,2.4,0,0,0,.74-1.86v-.78l-1.4.06a5.3,5.3,0,0,0-2.41.48,1.41,1.41,0,0,0-.73,1.32,1.27,1.27,0,0,0,.46,1.07A2,2,0,0,0,172.9,267.79Z"/><path class="cls-2" d="M184.2,260a6.18,6.18,0,0,1,1.11.1l-.2,1.2a5,5,0,0,0-1-.12,2.56,2.56,0,0,0-1.92.85,2.93,2.93,0,0,0-.79,2.1v4.59H180v-8.56h1.15l.16,1.59h.07a3.84,3.84,0,0,1,1.24-1.29A3,3,0,0,1,184.2,260Z"/><path class="cls-2" d="M192.92,268.7h-1.4V256.55h1.4Z"/><path class="cls-2" d="M203.87,264.41a4.49,4.49,0,0,1-1.14,3.27,4.14,4.14,0,0,1-3.14,1.18,4.4,4.4,0,0,1-2.2-.54,3.66,3.66,0,0,1-1.49-1.55,5,5,0,0,1-.52-2.36,4.52,4.52,0,0,1,1.13-3.26,4.16,4.16,0,0,1,3.14-1.17,4.05,4.05,0,0,1,3.08,1.2A4.49,4.49,0,0,1,203.87,264.41Zm-7,0a3.84,3.84,0,0,0,.71,2.5,2.51,2.51,0,0,0,2.08.86,2.57,2.57,0,0,0,2.09-.85,3.87,3.87,0,0,0,.71-2.51,3.82,3.82,0,0,0-.71-2.48,2.62,2.62,0,0,0-2.11-.84,2.54,2.54,0,0,0-2.07.83A3.79,3.79,0,0,0,196.83,264.41Z"/><path class="cls-2" d="M212.29,266.37a2.09,2.09,0,0,1-1,1.84,4.81,4.81,0,0,1-2.7.65,6.27,6.27,0,0,1-2.87-.54v-1.2a7.3,7.3,0,0,0,1.43.49,6.42,6.42,0,0,0,1.47.18,3.51,3.51,0,0,0,1.69-.33,1.07,1.07,0,0,0,.12-1.84,7.36,7.36,0,0,0-1.82-.84,9.87,9.87,0,0,1-1.84-.78,2.46,2.46,0,0,1-.81-.75,1.83,1.83,0,0,1-.26-1,1.86,1.86,0,0,1,.92-1.65,4.56,4.56,0,0,1,2.52-.61,7.82,7.82,0,0,1,2.92.57l-.5,1.05a7.26,7.26,0,0,0-2.52-.53,3.08,3.08,0,0,0-1.5.29.92.92,0,0,0-.32,1.38,1.83,1.83,0,0,0,.61.46,13.68,13.68,0,0,0,1.62.64,6.2,6.2,0,0,1,2.22,1.11A1.89,1.89,0,0,1,212.29,266.37Z"/><path class="cls-2" d="M133.94,277.56a5.29,5.29,0,0,1,1.1.1l-.19,1.2a5.09,5.09,0,0,0-1-.12,2.52,2.52,0,0,0-1.91.85,2.9,2.9,0,0,0-.8,2.1v4.59h-1.4v-8.56h1.15l.16,1.59h.07a3.84,3.84,0,0,1,1.24-1.29A2.9,2.9,0,0,1,133.94,277.56Z"/><path class="cls-2" d="M140.67,286.44a4.44,4.44,0,0,1-3.23-1.16,4.28,4.28,0,0,1-1.19-3.21,4.7,4.7,0,0,1,1.11-3.29,3.77,3.77,0,0,1,2.95-1.22,3.64,3.64,0,0,1,2.75,1.06,3.87,3.87,0,0,1,1,2.8v.82h-6.36a3.19,3.19,0,0,0,.82,2.28,3,3,0,0,0,2.19.79,8.12,8.12,0,0,0,3-.58v1.15a8.26,8.26,0,0,1-1.41.43A8.13,8.13,0,0,1,140.67,286.44Zm-.38-7.79a2.36,2.36,0,0,0-1.77.67,3,3,0,0,0-.78,1.86h4.83a2.68,2.68,0,0,0-.59-1.88A2.16,2.16,0,0,0,140.29,278.65Z"/><path class="cls-2" d="M150.15,286.44a4.07,4.07,0,0,1-3.1-1.15,4.44,4.44,0,0,1-1.1-3.23,4.63,4.63,0,0,1,1.11-3.32,4.18,4.18,0,0,1,3.19-1.18,6.68,6.68,0,0,1,1.33.14,4.44,4.44,0,0,1,1,.31l-.43,1.1a6.85,6.85,0,0,0-1-.28,4.57,4.57,0,0,0-1-.12q-2.81,0-2.81,3.33a3.79,3.79,0,0,0,.68,2.42,2.49,2.49,0,0,0,2,.85,6.62,6.62,0,0,0,2.37-.47V286A5.36,5.36,0,0,1,150.15,286.44Z"/><path class="cls-2" d="M156,277.72v5.55a2.17,2.17,0,0,0,.51,1.57,2.22,2.22,0,0,0,1.61.51,2.76,2.76,0,0,0,2.13-.73,3.55,3.55,0,0,0,.67-2.4v-4.5h1.4v8.56h-1.16l-.2-1.15h-.08a2.61,2.61,0,0,1-1.19,1,4.19,4.19,0,0,1-1.74.34,3.75,3.75,0,0,1-2.53-.74,3,3,0,0,1-.84-2.38v-5.6Z"/><path class="cls-2" d="M169.5,277.56a5.39,5.39,0,0,1,1.11.1l-.2,1.2a5,5,0,0,0-1-.12,2.52,2.52,0,0,0-1.92.85,2.93,2.93,0,0,0-.79,2.1v4.59h-1.4v-8.56h1.15l.16,1.59h.07a3.84,3.84,0,0,1,1.24-1.29A2.87,2.87,0,0,1,169.5,277.56Z"/><path class="cls-2" d="M178.3,284a2.09,2.09,0,0,1-1,1.84,4.81,4.81,0,0,1-2.7.65,6.27,6.27,0,0,1-2.87-.54v-1.2a8,8,0,0,0,1.43.49,6.42,6.42,0,0,0,1.47.18,3.51,3.51,0,0,0,1.69-.33,1.07,1.07,0,0,0,.12-1.84,7.36,7.36,0,0,0-1.82-.84,10.61,10.61,0,0,1-1.84-.78,2.46,2.46,0,0,1-.81-.75,1.83,1.83,0,0,1-.26-1,1.86,1.86,0,0,1,.92-1.65,4.47,4.47,0,0,1,2.52-.61,7.82,7.82,0,0,1,2.92.57l-.5,1.05a7.26,7.26,0,0,0-2.52-.53,3.15,3.15,0,0,0-1.51.29.92.92,0,0,0-.31,1.38,1.83,1.83,0,0,0,.61.46,13.68,13.68,0,0,0,1.62.64,6,6,0,0,1,2.22,1.11A1.89,1.89,0,0,1,178.3,284Z"/><path class="cls-2" d="M188.56,282a4.49,4.49,0,0,1-1.14,3.27,4.16,4.16,0,0,1-3.15,1.18,4.4,4.4,0,0,1-2.2-.54,3.63,3.63,0,0,1-1.48-1.55,5,5,0,0,1-.53-2.36,4.52,4.52,0,0,1,1.13-3.26,4.17,4.17,0,0,1,3.14-1.17,4.05,4.05,0,0,1,3.08,1.2A4.49,4.49,0,0,1,188.56,282Zm-7.05,0a3.84,3.84,0,0,0,.71,2.5,2.52,2.52,0,0,0,2.08.86,2.55,2.55,0,0,0,2.09-.85,3.81,3.81,0,0,0,.72-2.51,3.74,3.74,0,0,0-.72-2.48,2.59,2.59,0,0,0-2.1-.84,2.55,2.55,0,0,0-2.08.83A3.85,3.85,0,0,0,181.51,282Z"/><path class="cls-2" d="M197,284a2.09,2.09,0,0,1-1,1.84,4.81,4.81,0,0,1-2.7.65,6.22,6.22,0,0,1-2.86-.54v-1.2a7.92,7.92,0,0,0,1.42.49,6.43,6.43,0,0,0,1.48.18A3.47,3.47,0,0,0,195,285a1,1,0,0,0,.59-1,1,1,0,0,0-.46-.86,7.67,7.67,0,0,0-1.83-.84,10.43,10.43,0,0,1-1.83-.78,2.28,2.28,0,0,1-.81-.75,1.84,1.84,0,0,1-.27-1,1.88,1.88,0,0,1,.92-1.65,4.47,4.47,0,0,1,2.52-.61,7.78,7.78,0,0,1,2.92.57l-.5,1.05a7.26,7.26,0,0,0-2.52-.53,3.14,3.14,0,0,0-1.5.29.88.88,0,0,0-.51.8,1,1,0,0,0,.19.58,1.83,1.83,0,0,0,.61.46,13.68,13.68,0,0,0,1.62.64,6.19,6.19,0,0,1,2.23,1.11A1.92,1.92,0,0,1,197,284Z"/><path class="cls-2" d="M284.14,216.3l-1.54-3.63h-4.94l-1.52,3.63h-1.45l4.88-11.47h1.2l4.85,11.47Zm-2-4.83-1.44-3.53c-.18-.45-.38-1-.57-1.65a15.46,15.46,0,0,1-.53,1.65l-1.45,3.53Z"/><path class="cls-2" d="M293.07,214a2.09,2.09,0,0,1-1,1.84,4.81,4.81,0,0,1-2.7.65,6.27,6.27,0,0,1-2.87-.54v-1.2a8,8,0,0,0,1.43.49,6.42,6.42,0,0,0,1.47.18,3.51,3.51,0,0,0,1.69-.33,1.07,1.07,0,0,0,.12-1.84,7.36,7.36,0,0,0-1.82-.84,9.87,9.87,0,0,1-1.84-.78,2.46,2.46,0,0,1-.81-.75,1.83,1.83,0,0,1-.26-1,1.86,1.86,0,0,1,.92-1.65,4.56,4.56,0,0,1,2.52-.61,7.82,7.82,0,0,1,2.92.57l-.5,1a7.26,7.26,0,0,0-2.52-.53,3.15,3.15,0,0,0-1.51.29.89.89,0,0,0-.5.8.88.88,0,0,0,.19.58,1.83,1.83,0,0,0,.61.46,13.68,13.68,0,0,0,1.62.64,6.2,6.2,0,0,1,2.22,1.11A1.89,1.89,0,0,1,293.07,214Z"/><path class="cls-2" d="M296.66,207.74v5.55a2.13,2.13,0,0,0,.52,1.57,2.21,2.21,0,0,0,1.61.51,2.74,2.74,0,0,0,2.12-.73,3.49,3.49,0,0,0,.67-2.4v-4.5H303v8.56h-1.16l-.2-1.15h-.07a2.69,2.69,0,0,1-1.2,1,4.19,4.19,0,0,1-1.74.34,3.76,3.76,0,0,1-2.53-.74,3.07,3.07,0,0,1-.83-2.38v-5.6Z"/><path class="cls-2" d="M317.73,216.3v-5.57a2.21,2.21,0,0,0-.47-1.53,1.93,1.93,0,0,0-1.47-.51,2.48,2.48,0,0,0-1.93.69,3.11,3.11,0,0,0-.62,2.14v4.78h-1.4v-5.57a2.16,2.16,0,0,0-.48-1.53,1.9,1.9,0,0,0-1.47-.51,2.37,2.37,0,0,0-1.93.73,3.69,3.69,0,0,0-.61,2.39v4.49H306v-8.56h1.14l.23,1.17h.06a2.73,2.73,0,0,1,1.12-1,3.57,3.57,0,0,1,1.62-.36A2.79,2.79,0,0,1,313,209H313a2.89,2.89,0,0,1,1.19-1.07,4,4,0,0,1,1.79-.39,3.27,3.27,0,0,1,2.35.75,3.18,3.18,0,0,1,.78,2.39v5.58Z"/><path class="cls-2" d="M321.9,205.42a.84.84,0,0,1,.23-.65.87.87,0,0,1,.59-.21.89.89,0,0,1,.59.21,1,1,0,0,1,0,1.3.85.85,0,0,1-.59.22.83.83,0,0,1-.59-.22A.86.86,0,0,1,321.9,205.42Zm1.52,10.88H322v-8.56h1.4Z"/><path class="cls-2" d="M330.6,207.58a6.18,6.18,0,0,1,1.11.1l-.2,1.2a5,5,0,0,0-1-.12,2.52,2.52,0,0,0-1.92.85,2.94,2.94,0,0,0-.8,2.1v4.59h-1.4v-8.56h1.16l.16,1.59h.07A3.75,3.75,0,0,1,329,208,3,3,0,0,1,330.6,207.58Z"/><path class="cls-2" d="M339.32,216.3h-1.4V204.15h1.4Z"/><path class="cls-2" d="M348,216.3l-.28-1.22h-.07a3.77,3.77,0,0,1-1.38,1.09,4.49,4.49,0,0,1-1.71.29,3.24,3.24,0,0,1-2.16-.66,2.29,2.29,0,0,1-.78-1.86q0-2.59,4.48-2.72l1.57-.05v-.53a2.08,2.08,0,0,0-.47-1.49,2,2,0,0,0-1.5-.48,6.43,6.43,0,0,0-2.61.66l-.43-1a6.73,6.73,0,0,1,1.49-.54,7.64,7.64,0,0,1,1.64-.19,3.73,3.73,0,0,1,2.45.68,2.71,2.71,0,0,1,.79,2.18v5.84Zm-3.17-.91a3,3,0,0,0,2.06-.67,2.33,2.33,0,0,0,.74-1.85v-.78l-1.4.06a5.22,5.22,0,0,0-2.4.48,1.4,1.4,0,0,0-.74,1.32,1.27,1.27,0,0,0,.46,1.07A2,2,0,0,0,344.81,215.39Z"/><path class="cls-2" d="M253.8,225.16a5.29,5.29,0,0,1,1.1.1l-.19,1.2a5.09,5.09,0,0,0-1-.12,2.52,2.52,0,0,0-1.91.85,2.9,2.9,0,0,0-.8,2.1v4.59h-1.4v-8.56h1.15l.16,1.59H251a3.84,3.84,0,0,1,1.24-1.29A2.9,2.9,0,0,1,253.8,225.16Z"/><path class="cls-2" d="M260.53,234a4.44,4.44,0,0,1-3.23-1.16,4.28,4.28,0,0,1-1.19-3.21,4.7,4.7,0,0,1,1.11-3.29,3.77,3.77,0,0,1,2.95-1.22,3.64,3.64,0,0,1,2.75,1.06,3.86,3.86,0,0,1,1,2.79v.82h-6.36a3.2,3.2,0,0,0,.82,2.29,3,3,0,0,0,2.19.79,8.12,8.12,0,0,0,3-.58v1.15a8.26,8.26,0,0,1-1.41.43A8.13,8.13,0,0,1,260.53,234Zm-.38-7.79a2.36,2.36,0,0,0-1.77.67,3,3,0,0,0-.78,1.86h4.83a2.68,2.68,0,0,0-.59-1.88A2.16,2.16,0,0,0,260.15,226.25Z"/><path class="cls-2" d="M272.28,231.55a2.09,2.09,0,0,1-1,1.84,4.81,4.81,0,0,1-2.7.65,6.22,6.22,0,0,1-2.86-.54v-1.2a7.92,7.92,0,0,0,1.42.49,6.43,6.43,0,0,0,1.48.18,3.47,3.47,0,0,0,1.68-.33,1,1,0,0,0,.59-1,1,1,0,0,0-.46-.86,7.67,7.67,0,0,0-1.83-.84,10.43,10.43,0,0,1-1.83-.78,2.28,2.28,0,0,1-.81-.75,1.84,1.84,0,0,1-.27-1,1.88,1.88,0,0,1,.92-1.65,4.47,4.47,0,0,1,2.52-.61,7.78,7.78,0,0,1,2.92.57l-.5,1.05a7.26,7.26,0,0,0-2.52-.53,3,3,0,0,0-1.5.29.88.88,0,0,0-.51.79,1,1,0,0,0,.19.59,1.83,1.83,0,0,0,.61.46,12.48,12.48,0,0,0,1.62.63,6.34,6.34,0,0,1,2.23,1.12A1.92,1.92,0,0,1,272.28,231.55Z"/><path class="cls-2" d="M278.86,234a4.41,4.41,0,0,1-1.65-.31,3.14,3.14,0,0,1-1.25-.95h-.1a10.19,10.19,0,0,1,.1,1.42v3.53h-1.4V225.32h1.14l.19,1.17H276a3.09,3.09,0,0,1,1.26-1,4,4,0,0,1,1.64-.32,3.53,3.53,0,0,1,2.84,1.17,5.8,5.8,0,0,1,0,6.54A3.52,3.52,0,0,1,278.86,234Zm-.2-7.78a2.61,2.61,0,0,0-2.05.73,3.56,3.56,0,0,0-.65,2.31v.29a4,4,0,0,0,.65,2.58,2.56,2.56,0,0,0,2.08.78,2.22,2.22,0,0,0,1.88-.9,4,4,0,0,0,.68-2.47,3.9,3.9,0,0,0-.68-2.46A2.3,2.3,0,0,0,278.66,226.26Z"/><path class="cls-2" d="M293.12,229.59a4.48,4.48,0,0,1-1.13,3.27,4.16,4.16,0,0,1-3.15,1.18,4.4,4.4,0,0,1-2.2-.54,3.71,3.71,0,0,1-1.49-1.55,5.16,5.16,0,0,1-.52-2.36,4.52,4.52,0,0,1,1.13-3.26,4.16,4.16,0,0,1,3.14-1.17,4.05,4.05,0,0,1,3.08,1.2A4.49,4.49,0,0,1,293.12,229.59Zm-7,0a3.84,3.84,0,0,0,.71,2.5,2.52,2.52,0,0,0,2.08.86,2.55,2.55,0,0,0,2.09-.85,3.81,3.81,0,0,0,.71-2.51,3.74,3.74,0,0,0-.71-2.48,2.61,2.61,0,0,0-2.1-.85,2.56,2.56,0,0,0-2.08.84A3.85,3.85,0,0,0,286.08,229.59Z"/><path class="cls-2" d="M301.9,233.88v-5.54a2.12,2.12,0,0,0-.51-1.56,2.21,2.21,0,0,0-1.61-.52,2.8,2.8,0,0,0-2.13.73,3.48,3.48,0,0,0-.67,2.4v4.49h-1.4v-8.56h1.14l.23,1.17H297a2.82,2.82,0,0,1,1.21-1,4.21,4.21,0,0,1,1.73-.35,3.67,3.67,0,0,1,2.51.75,3,3,0,0,1,.84,2.39v5.58Z"/><path class="cls-2" d="M312.14,231.55a2.09,2.09,0,0,1-1,1.84,4.81,4.81,0,0,1-2.7.65,6.22,6.22,0,0,1-2.86-.54v-1.2a7.76,7.76,0,0,0,1.43.49,6.29,6.29,0,0,0,1.47.18,3.47,3.47,0,0,0,1.68-.33,1,1,0,0,0,.59-1,1,1,0,0,0-.46-.86,7.48,7.48,0,0,0-1.83-.84,10.43,10.43,0,0,1-1.83-.78,2.28,2.28,0,0,1-.81-.75,1.84,1.84,0,0,1-.27-1,1.88,1.88,0,0,1,.92-1.65,4.47,4.47,0,0,1,2.52-.61,7.78,7.78,0,0,1,2.92.57l-.5,1.05a7.26,7.26,0,0,0-2.52-.53,3,3,0,0,0-1.5.29.88.88,0,0,0-.51.79,1,1,0,0,0,.19.59,1.83,1.83,0,0,0,.61.46,13.83,13.83,0,0,0,1.62.63,6.34,6.34,0,0,1,2.23,1.12A1.92,1.92,0,0,1,312.14,231.55Z"/><path class="cls-2" d="M320.11,233.88l-.28-1.22h-.07a3.77,3.77,0,0,1-1.38,1.09,4.51,4.51,0,0,1-1.72.29,3.23,3.23,0,0,1-2.15-.66,2.31,2.31,0,0,1-.78-1.87c0-1.72,1.49-2.63,4.48-2.71l1.57-.05v-.53a2.08,2.08,0,0,0-.47-1.49,2,2,0,0,0-1.5-.48,6.43,6.43,0,0,0-2.61.66l-.43-1a6.73,6.73,0,0,1,1.49-.54,7.06,7.06,0,0,1,1.64-.19,3.75,3.75,0,0,1,2.45.68,2.71,2.71,0,0,1,.79,2.18v5.84Zm-3.17-.91a3,3,0,0,0,2.06-.67,2.37,2.37,0,0,0,.74-1.86v-.77l-1.4.06a5.22,5.22,0,0,0-2.4.48,1.4,1.4,0,0,0-.74,1.32,1.27,1.27,0,0,0,.46,1.07A2,2,0,0,0,316.94,233Z"/><path class="cls-2" d="M328.33,225.18a3.56,3.56,0,0,1,2.83,1.15,5.77,5.77,0,0,1,0,6.54,3.54,3.54,0,0,1-2.82,1.17,4.41,4.41,0,0,1-1.65-.31,3.07,3.07,0,0,1-1.25-.95h-.1l-.3,1.1h-1V221.73h1.4v3c0,.66,0,1.25-.07,1.78h.07A3.43,3.43,0,0,1,328.33,225.18Zm-.2,1.08a2.54,2.54,0,0,0-2.07.77,4,4,0,0,0-.63,2.56,4,4,0,0,0,.65,2.58,2.55,2.55,0,0,0,2.08.78,2.21,2.21,0,0,0,1.92-.87,4.14,4.14,0,0,0,.64-2.5,4,4,0,0,0-.64-2.5A2.32,2.32,0,0,0,328.13,226.26Z"/><path class="cls-2" d="M334.49,223a.8.8,0,0,1,.24-.65.87.87,0,0,1,.59-.21.84.84,0,0,1,.58.21,1,1,0,0,1,0,1.3.85.85,0,0,1-.58.22.88.88,0,0,1-.59-.22A.82.82,0,0,1,334.49,223ZM336,233.88h-1.4v-8.56H336Z"/><path class="cls-2" d="M340.38,233.88H339V221.73h1.4Z"/><path class="cls-2" d="M343.23,223a.8.8,0,0,1,.24-.65.85.85,0,0,1,.59-.21.86.86,0,0,1,.58.21,1,1,0,0,1,0,1.3.87.87,0,0,1-.58.22.86.86,0,0,1-.59-.22A.82.82,0,0,1,343.23,223Zm1.52,10.88h-1.4v-8.56h1.4Z"/><path class="cls-2" d="M354,232.73h-.07A3.4,3.4,0,0,1,351,234a3.56,3.56,0,0,1-2.82-1.15,4.81,4.81,0,0,1-1-3.27,4.87,4.87,0,0,1,1-3.29,3.51,3.51,0,0,1,2.81-1.17,3.45,3.45,0,0,1,2.89,1.27H354l-.06-.62,0-.6v-3.48h1.4v12.15H354.2Zm-2.8.22a2.66,2.66,0,0,0,2.08-.72,3.45,3.45,0,0,0,.65-2.33v-.28a4,4,0,0,0-.66-2.59,2.57,2.57,0,0,0-2.09-.78,2.18,2.18,0,0,0-1.88.89,4.11,4.11,0,0,0-.65,2.5,4,4,0,0,0,.65,2.48A2.26,2.26,0,0,0,351.21,233Z"/><path class="cls-2" d="M364,233.88l-.28-1.22h-.07a3.77,3.77,0,0,1-1.38,1.09,4.45,4.45,0,0,1-1.71.29,3.24,3.24,0,0,1-2.16-.66,2.31,2.31,0,0,1-.78-1.87c0-1.72,1.5-2.63,4.48-2.71l1.57-.05v-.53a2.08,2.08,0,0,0-.47-1.49,2,2,0,0,0-1.49-.48,6.47,6.47,0,0,0-2.62.66l-.43-1a7,7,0,0,1,1.5-.54,6.91,6.91,0,0,1,1.63-.19,3.73,3.73,0,0,1,2.45.68A2.72,2.72,0,0,1,365,228v5.84Zm-3.16-.91a2.94,2.94,0,0,0,2.05-.67,2.35,2.35,0,0,0,.75-1.86v-.77l-1.4.06a5.24,5.24,0,0,0-2.41.48,1.42,1.42,0,0,0-.74,1.32,1.27,1.27,0,0,0,.46,1.07A2.06,2.06,0,0,0,360.83,233Z"/><path class="cls-2" d="M374.2,232.73h-.07a3.4,3.4,0,0,1-2.9,1.31,3.57,3.57,0,0,1-2.83-1.15,4.81,4.81,0,0,1-1-3.27,4.87,4.87,0,0,1,1-3.29,3.52,3.52,0,0,1,2.82-1.17,3.45,3.45,0,0,1,2.88,1.27h.11l-.06-.62,0-.6v-3.48h1.4v12.15h-1.14Zm-2.8.22a2.66,2.66,0,0,0,2.08-.72,3.45,3.45,0,0,0,.65-2.33v-.28a4,4,0,0,0-.66-2.59,2.56,2.56,0,0,0-2.08-.78,2.19,2.19,0,0,0-1.89.89,4.18,4.18,0,0,0-.65,2.5,4,4,0,0,0,.65,2.48A2.28,2.28,0,0,0,371.4,233Z"/><path class="cls-2" d="M255.63,242.9h1.5l2,4.88a17.4,17.4,0,0,1,.82,2.41h.07c.07-.26.23-.72.46-1.36s1-2.62,2.29-5.93h1.5l-4,9.75a5,5,0,0,1-1.38,2,3.11,3.11,0,0,1-1.94.6,5.92,5.92,0,0,1-1.26-.13v-1a5.4,5.4,0,0,0,1,.1,2.11,2.11,0,0,0,2-1.5l.52-1.22Z"/><path class="cls-2" d="M274.51,242.74a6.12,6.12,0,0,1,1.1.09l-.19,1.21a5.09,5.09,0,0,0-1-.12,2.54,2.54,0,0,0-1.91.84,2.94,2.94,0,0,0-.8,2.11v4.59h-1.4V242.9h1.15l.16,1.58h.07a4,4,0,0,1,1.24-1.29A3,3,0,0,1,274.51,242.74Z"/><path class="cls-2" d="M281.24,251.62a4.44,4.44,0,0,1-3.23-1.16,4.27,4.27,0,0,1-1.18-3.21,4.69,4.69,0,0,1,1.1-3.29,3.79,3.79,0,0,1,2.95-1.22,3.6,3.6,0,0,1,2.75,1.06,3.86,3.86,0,0,1,1,2.79v.82h-6.36a3.2,3.2,0,0,0,.82,2.29,3,3,0,0,0,2.2.78,8.09,8.09,0,0,0,2.95-.57v1.15a8.26,8.26,0,0,1-1.41.43A9,9,0,0,1,281.24,251.62Zm-.37-7.79a2.37,2.37,0,0,0-1.78.67,3,3,0,0,0-.78,1.86h4.83a2.68,2.68,0,0,0-.59-1.88A2.12,2.12,0,0,0,280.87,243.83Z"/><path class="cls-2" d="M293.36,251.46v-5.54a2.13,2.13,0,0,0-.52-1.56,2.17,2.17,0,0,0-1.61-.52,2.74,2.74,0,0,0-2.12.73,3.46,3.46,0,0,0-.68,2.4v4.49H287V242.9h1.14l.23,1.17h.06a2.82,2.82,0,0,1,1.21-1,4.21,4.21,0,0,1,1.73-.35,3.67,3.67,0,0,1,2.51.75,3,3,0,0,1,.85,2.38v5.59Z"/><path class="cls-2" d="M303.92,250.31h-.07a3.4,3.4,0,0,1-2.9,1.31,3.57,3.57,0,0,1-2.82-1.15,4.78,4.78,0,0,1-1-3.27,4.9,4.9,0,0,1,1-3.29,3.53,3.53,0,0,1,2.82-1.17,3.45,3.45,0,0,1,2.88,1.27h.11l-.06-.62,0-.6V239.3h1.4v12.16h-1.14Zm-2.8.22a2.66,2.66,0,0,0,2.08-.72,3.45,3.45,0,0,0,.65-2.33v-.28a4.11,4.11,0,0,0-.65-2.6,2.62,2.62,0,0,0-2.09-.77,2.21,2.21,0,0,0-1.89.88,4.23,4.23,0,0,0-.65,2.51,4,4,0,0,0,.65,2.47A2.26,2.26,0,0,0,301.12,250.53Z"/><path class="cls-2" d="M308.1,240.58a.83.83,0,0,1,.24-.66.88.88,0,0,1,.59-.2.86.86,0,0,1,.58.21,1,1,0,0,1,0,1.3.86.86,0,0,1-.58.21.84.84,0,0,1-.59-.21A.82.82,0,0,1,308.1,240.58Zm1.52,10.88h-1.4V242.9h1.4Z"/><path class="cls-2" d="M316.28,251.62a4.1,4.1,0,0,1-3.11-1.15,4.49,4.49,0,0,1-1.1-3.24,4.6,4.6,0,0,1,1.12-3.32,4.19,4.19,0,0,1,3.18-1.17,7.6,7.6,0,0,1,1.34.13,4.62,4.62,0,0,1,1,.32l-.43,1.1a6.69,6.69,0,0,0-1-.29,5.33,5.33,0,0,0-1-.11q-2.82,0-2.82,3.33a3.73,3.73,0,0,0,.69,2.42,2.49,2.49,0,0,0,2,.84,6.6,6.6,0,0,0,2.37-.46v1.15A5.36,5.36,0,0,1,316.28,251.62Z"/><path class="cls-2" d="M320.69,240.58a.83.83,0,0,1,.24-.66.9.9,0,0,1,.59-.2.86.86,0,0,1,.58.21,1,1,0,0,1,0,1.3.86.86,0,0,1-.58.21.85.85,0,0,1-.59-.21A.82.82,0,0,1,320.69,240.58Zm1.52,10.88h-1.4V242.9h1.4Z"/><path class="cls-2" d="M333.16,247.17a4.49,4.49,0,0,1-1.14,3.27,4.2,4.2,0,0,1-3.15,1.18,4.43,4.43,0,0,1-2.2-.54,3.69,3.69,0,0,1-1.48-1.55,5,5,0,0,1-.53-2.36,4.52,4.52,0,0,1,1.13-3.26,4.17,4.17,0,0,1,3.14-1.17,4.07,4.07,0,0,1,3.09,1.2A4.47,4.47,0,0,1,333.16,247.17Zm-7,0a3.86,3.86,0,0,0,.7,2.5,2.57,2.57,0,0,0,2.09.86,2.52,2.52,0,0,0,2.08-.86,3.78,3.78,0,0,0,.72-2.5,3.74,3.74,0,0,0-.72-2.48,2.59,2.59,0,0,0-2.1-.85,2.52,2.52,0,0,0-2.07.84A3.79,3.79,0,0,0,326.12,247.17Zm1.61-5.6a13.63,13.63,0,0,0,.88-1.17,13.79,13.79,0,0,0,.74-1.2h1.7v.17a12.54,12.54,0,0,1-1.11,1.25,11.51,11.51,0,0,1-1.27,1.14h-.94Z"/><path class="cls-2" d="M341.94,251.46v-5.54a2.08,2.08,0,0,0-.52-1.56,2.17,2.17,0,0,0-1.61-.52,2.75,2.75,0,0,0-2.12.73A3.46,3.46,0,0,0,337,247v4.49h-1.4V242.9h1.14l.23,1.17h.07a2.73,2.73,0,0,1,1.2-1,4.24,4.24,0,0,1,1.73-.35,3.67,3.67,0,0,1,2.51.75,3,3,0,0,1,.85,2.38v5.59Z"/><path class="cls-2" d="M357,250.31h-.07a3.4,3.4,0,0,1-2.9,1.31,3.6,3.6,0,0,1-2.83-1.15,5.85,5.85,0,0,1,0-6.56,3.52,3.52,0,0,1,2.82-1.17A3.45,3.45,0,0,1,356.9,244H357l-.06-.62,0-.6V239.3h1.4v12.16h-1.14Zm-2.8.22a2.66,2.66,0,0,0,2.08-.72,3.45,3.45,0,0,0,.65-2.33v-.28a4,4,0,0,0-.66-2.6,2.59,2.59,0,0,0-2.08-.77,2.21,2.21,0,0,0-1.89.88,4.23,4.23,0,0,0-.65,2.51,3.92,3.92,0,0,0,.65,2.47A2.26,2.26,0,0,0,354.19,250.53Z"/><path class="cls-2" d="M365.19,251.62a4.44,4.44,0,0,1-3.23-1.16,4.28,4.28,0,0,1-1.19-3.21,4.74,4.74,0,0,1,1.1-3.29,3.81,3.81,0,0,1,3-1.22,3.62,3.62,0,0,1,2.75,1.06,3.9,3.9,0,0,1,1,2.79v.82h-6.37a3.24,3.24,0,0,0,.82,2.29,3,3,0,0,0,2.2.78,8,8,0,0,0,2.95-.57v1.15a7.91,7.91,0,0,1-1.4.43A9,9,0,0,1,365.19,251.62Zm-.38-7.79a2.36,2.36,0,0,0-1.77.67,2.89,2.89,0,0,0-.78,1.86h4.83a2.73,2.73,0,0,0-.59-1.88A2.14,2.14,0,0,0,364.81,243.83Z"/><path class="cls-2" d="M286.2,269.19a4.13,4.13,0,0,1-3.11-1.14,4.49,4.49,0,0,1-1.1-3.24,4.6,4.6,0,0,1,1.12-3.32,4.19,4.19,0,0,1,3.18-1.17,6.76,6.76,0,0,1,1.34.13,5.28,5.28,0,0,1,1,.31l-.43,1.11a7,7,0,0,0-1-.29,5.33,5.33,0,0,0-1-.11q-2.82,0-2.82,3.33a3.73,3.73,0,0,0,.69,2.42,2.49,2.49,0,0,0,2,.84,6.6,6.6,0,0,0,2.37-.46v1.15A5.37,5.37,0,0,1,286.2,269.19Z"/><path class="cls-2" d="M292,260.48V266a2.13,2.13,0,0,0,.52,1.56,2.17,2.17,0,0,0,1.61.52,2.74,2.74,0,0,0,2.12-.74A3.47,3.47,0,0,0,297,265v-4.5h1.4V269h-1.15l-.21-1.15h-.07a2.75,2.75,0,0,1-1.2,1,4.29,4.29,0,0,1-1.74.33,3.68,3.68,0,0,1-2.52-.74,3,3,0,0,1-.84-2.37v-5.6Z"/><path class="cls-2" d="M305.24,269.19A4.44,4.44,0,0,1,302,268a4.27,4.27,0,0,1-1.18-3.21,4.69,4.69,0,0,1,1.1-3.29,3.79,3.79,0,0,1,2.95-1.22,3.6,3.6,0,0,1,2.75,1.06,3.83,3.83,0,0,1,1,2.79V265h-6.37a3.24,3.24,0,0,0,.82,2.29,3,3,0,0,0,2.2.78,7.87,7.87,0,0,0,2.95-.58v1.16a8,8,0,0,1-1.41.43A9,9,0,0,1,305.24,269.19Zm-.38-7.78a2.37,2.37,0,0,0-1.78.67,3,3,0,0,0-.78,1.86h4.83a2.67,2.67,0,0,0-.59-1.88A2.12,2.12,0,0,0,304.86,261.41Z"/><path class="cls-2" d="M317.35,269V263.5a2.08,2.08,0,0,0-.52-1.56,2.17,2.17,0,0,0-1.61-.52,2.75,2.75,0,0,0-2.12.73,3.46,3.46,0,0,0-.68,2.4V269H311v-8.56h1.14l.23,1.17h.07a2.73,2.73,0,0,1,1.2-1,4.24,4.24,0,0,1,1.73-.35,3.67,3.67,0,0,1,2.51.75,3,3,0,0,1,.85,2.38V269Z"/><path class="cls-2" d="M324.61,268.12a4.21,4.21,0,0,0,.72-.05,5.43,5.43,0,0,0,.54-.1v1a2.78,2.78,0,0,1-.67.17,5.91,5.91,0,0,1-.79.06c-1.79,0-2.68-.87-2.68-2.61v-5.1H320.4v-.62l1.33-.54.59-1.83h.81v2h2.68v1h-2.68v5a1.67,1.67,0,0,0,.39,1.19A1.43,1.43,0,0,0,324.61,268.12Z"/><path class="cls-2" d="M333.41,269l-.28-1.22h-.07a3.77,3.77,0,0,1-1.38,1.09,4.5,4.5,0,0,1-1.71.28,3.24,3.24,0,0,1-2.16-.65,2.31,2.31,0,0,1-.78-1.87c0-1.73,1.49-2.63,4.48-2.72l1.57,0v-.54a2.05,2.05,0,0,0-.47-1.48,2,2,0,0,0-1.5-.48,6.4,6.4,0,0,0-2.61.65l-.43-1a6.73,6.73,0,0,1,1.49-.54,7.07,7.07,0,0,1,1.64-.2,3.73,3.73,0,0,1,2.45.68,2.73,2.73,0,0,1,.79,2.18V269Zm-3.17-.92a3,3,0,0,0,2.06-.66,2.34,2.34,0,0,0,.74-1.86v-.77l-1.4.05a5.5,5.5,0,0,0-2.4.48,1.42,1.42,0,0,0-.74,1.33,1.28,1.28,0,0,0,.46,1.07A2,2,0,0,0,330.24,268.12Z"/><path class="cls-2" d="M343.29,266.7a2.11,2.11,0,0,1-1,1.85,4.81,4.81,0,0,1-2.7.64,6.44,6.44,0,0,1-2.87-.53v-1.21a6.7,6.7,0,0,0,1.43.49,5.91,5.91,0,0,0,1.47.18,3.5,3.5,0,0,0,1.69-.32,1.06,1.06,0,0,0,.59-1,1,1,0,0,0-.47-.85,7.36,7.36,0,0,0-1.82-.84,11,11,0,0,1-1.84-.78,2.39,2.39,0,0,1-.81-.76,2,2,0,0,1,.66-2.66,4.56,4.56,0,0,1,2.52-.6,8,8,0,0,1,2.92.56l-.5,1.06a7,7,0,0,0-2.52-.53,3.1,3.1,0,0,0-1.5.28.89.89,0,0,0-.51.8.91.91,0,0,0,.19.59,2,2,0,0,0,.61.46,14.19,14.19,0,0,0,1.62.63,6,6,0,0,1,2.22,1.12A1.87,1.87,0,0,1,343.29,266.7Z"/><path class="cls-2" d="M452.82,177h-6.88V165.53h6.88v1.18h-5.44v3.68h5.11v1.18h-5.11v4.2h5.44Z"/><path class="cls-2" d="M461.3,174.62a2.08,2.08,0,0,1-1,1.84,4.73,4.73,0,0,1-2.7.65,6.27,6.27,0,0,1-2.87-.54v-1.2a7.3,7.3,0,0,0,1.43.49,6.42,6.42,0,0,0,1.47.18,3.65,3.65,0,0,0,1.69-.32,1.08,1.08,0,0,0,.12-1.85,8.19,8.19,0,0,0-1.82-.84,10,10,0,0,1-1.84-.77,2.49,2.49,0,0,1-.81-.76,2,2,0,0,1,.66-2.66,4.56,4.56,0,0,1,2.52-.6,7.81,7.81,0,0,1,2.92.56l-.5,1a7.26,7.26,0,0,0-2.52-.53,3.08,3.08,0,0,0-1.5.29.89.89,0,0,0-.51.8.93.93,0,0,0,.19.59,2,2,0,0,0,.61.46,16.45,16.45,0,0,0,1.62.63,6,6,0,0,1,2.22,1.12A1.86,1.86,0,0,1,461.3,174.62Z"/><path class="cls-2" d="M466.56,176a4.21,4.21,0,0,0,.72,0c.23,0,.41-.07.55-.1v1a2.91,2.91,0,0,1-.67.17,6,6,0,0,1-.8.06c-1.79,0-2.68-.87-2.68-2.61v-5.1h-1.33v-.62l1.33-.54.59-1.83h.81v2h2.68v1h-2.68v5a1.63,1.63,0,0,0,.4,1.19A1.43,1.43,0,0,0,466.56,176Z"/><path class="cls-2" d="M475.36,177l-.28-1.22H475a4,4,0,0,1-1.37,1.09,4.52,4.52,0,0,1-1.72.28,3.29,3.29,0,0,1-2.16-.65,2.31,2.31,0,0,1-.78-1.87c0-1.73,1.5-2.64,4.48-2.72l1.57-.05v-.53a2,2,0,0,0-.47-1.49,2,2,0,0,0-1.49-.48,6.47,6.47,0,0,0-2.62.66l-.43-1a7.26,7.26,0,0,1,3.13-.74,3.73,3.73,0,0,1,2.45.68,2.73,2.73,0,0,1,.8,2.18V177ZM472.2,176a3,3,0,0,0,2.05-.66,2.35,2.35,0,0,0,.75-1.86v-.77l-1.4.05a5.52,5.52,0,0,0-2.41.48,1.43,1.43,0,0,0-.74,1.32,1.27,1.27,0,0,0,.46,1.07A2,2,0,0,0,472.2,176Z"/><path class="cls-2" d="M483.58,168.25a3.55,3.55,0,0,1,2.83,1.16,4.73,4.73,0,0,1,1,3.26,4.85,4.85,0,0,1-1,3.27,3.55,3.55,0,0,1-2.83,1.17,4.22,4.22,0,0,1-1.65-.31,3.05,3.05,0,0,1-1.25-1h-.1l-.29,1.11h-1V164.8h1.4v2.95c0,.67,0,1.26-.06,1.78h.06A3.43,3.43,0,0,1,483.58,168.25Zm-.2,1.09a2.53,2.53,0,0,0-2.06.76,4,4,0,0,0-.64,2.57,4.06,4.06,0,0,0,.65,2.58,2.57,2.57,0,0,0,2.09.78,2.21,2.21,0,0,0,1.92-.87,4.25,4.25,0,0,0,.63-2.51,4.08,4.08,0,0,0-.63-2.49A2.31,2.31,0,0,0,483.38,169.34Z"/><path class="cls-2" d="M491.27,177h-1.4V164.8h1.4Z"/><path class="cls-2" d="M498.14,177.11a4.43,4.43,0,0,1-3.23-1.15,4.28,4.28,0,0,1-1.19-3.21,4.74,4.74,0,0,1,1.1-3.29,3.78,3.78,0,0,1,3-1.22,3.62,3.62,0,0,1,2.75,1.06,3.87,3.87,0,0,1,1,2.79v.82h-6.37a3.2,3.2,0,0,0,.83,2.29,3,3,0,0,0,2.19.78,7.83,7.83,0,0,0,2.95-.58v1.16a7.09,7.09,0,0,1-1.4.42A8.13,8.13,0,0,1,498.14,177.11Zm-.38-7.79A2.37,2.37,0,0,0,496,170a3,3,0,0,0-.78,1.85H500a2.71,2.71,0,0,0-.59-1.87A2.15,2.15,0,0,0,497.76,169.32Z"/><path class="cls-2" d="M507.62,177.11a4.13,4.13,0,0,1-3.11-1.14,4.49,4.49,0,0,1-1.1-3.24,4.65,4.65,0,0,1,1.12-3.32,4.2,4.2,0,0,1,3.18-1.17,6.76,6.76,0,0,1,1.34.13,4.68,4.68,0,0,1,1,.31l-.43,1.1a8.15,8.15,0,0,0-1-.28,4.5,4.5,0,0,0-1-.11q-2.82,0-2.82,3.32a3.76,3.76,0,0,0,.69,2.43,2.49,2.49,0,0,0,2,.84,6.6,6.6,0,0,0,2.37-.46v1.15A5.52,5.52,0,0,1,507.62,177.11Z"/><path class="cls-2" d="M516.06,177.11a4.44,4.44,0,0,1-3.24-1.15,4.27,4.27,0,0,1-1.18-3.21,4.69,4.69,0,0,1,1.1-3.29,3.75,3.75,0,0,1,3-1.22,3.6,3.6,0,0,1,2.75,1.06,3.83,3.83,0,0,1,1,2.79v.82h-6.36a3.24,3.24,0,0,0,.82,2.29,3,3,0,0,0,2.2.78,7.87,7.87,0,0,0,2.95-.58v1.16a7.17,7.17,0,0,1-1.41.42A8.09,8.09,0,0,1,516.06,177.11Zm-.38-7.79a2.37,2.37,0,0,0-1.78.68,3,3,0,0,0-.78,1.85H518a2.66,2.66,0,0,0-.59-1.87A2.13,2.13,0,0,0,515.68,169.32Z"/><path class="cls-2" d="M526.06,168.24a6,6,0,0,1,1.1.09l-.19,1.2a5.73,5.73,0,0,0-1-.11,2.55,2.55,0,0,0-1.92.84,2.94,2.94,0,0,0-.8,2.1V177h-1.4v-8.57H523l.16,1.59h.07a3.82,3.82,0,0,1,1.23-1.29A3,3,0,0,1,526.06,168.24Z"/><path class="cls-2" d="M534.78,177h-1.4V164.8h1.4Z"/><path class="cls-2" d="M543.43,177l-.27-1.22h-.07a3.88,3.88,0,0,1-1.38,1.09,4.52,4.52,0,0,1-1.72.28,3.28,3.28,0,0,1-2.15-.65,2.31,2.31,0,0,1-.78-1.87q0-2.59,4.48-2.72l1.56-.05v-.53a2.08,2.08,0,0,0-.46-1.49,2,2,0,0,0-1.5-.48,6.51,6.51,0,0,0-2.62.66l-.43-1a7.26,7.26,0,0,1,3.13-.74,3.71,3.71,0,0,1,2.45.68,2.7,2.7,0,0,1,.8,2.18V177Zm-3.16-.92a3,3,0,0,0,2.05-.66,2.35,2.35,0,0,0,.75-1.86v-.77l-1.4.05a5.55,5.55,0,0,0-2.41.48,1.43,1.43,0,0,0-.74,1.32,1.3,1.3,0,0,0,.46,1.07A2,2,0,0,0,540.27,176Z"/><path class="cls-2" d="M451.46,194.69a4.22,4.22,0,0,1-1.65-.31,2.93,2.93,0,0,1-1.25-.95h-.11a10.38,10.38,0,0,1,.11,1.42v3.53h-1.4V186h1.13l.2,1.17h.07a3.15,3.15,0,0,1,1.25-1,4.08,4.08,0,0,1,1.65-.31A3.54,3.54,0,0,1,454.3,187a4.9,4.9,0,0,1,1,3.27,4.8,4.8,0,0,1-1,3.27A3.54,3.54,0,0,1,451.46,194.69Zm-.2-7.77a2.59,2.59,0,0,0-2.05.72,3.51,3.51,0,0,0-.65,2.32v.29a4,4,0,0,0,.65,2.58,2.54,2.54,0,0,0,2.08.77,2.23,2.23,0,0,0,1.88-.89,4.06,4.06,0,0,0,.67-2.48,3.9,3.9,0,0,0-.67-2.46A2.31,2.31,0,0,0,451.26,186.92Z"/><path class="cls-2" d="M465.72,190.25a4.48,4.48,0,0,1-1.14,3.26,4.15,4.15,0,0,1-3.14,1.18,4.47,4.47,0,0,1-2.21-.54,3.63,3.63,0,0,1-1.48-1.55,5,5,0,0,1-.52-2.35,4.48,4.48,0,0,1,1.13-3.27,4.18,4.18,0,0,1,3.13-1.16,4.05,4.05,0,0,1,3.09,1.19A4.51,4.51,0,0,1,465.72,190.25Zm-7,0a3.82,3.82,0,0,0,.71,2.5,2.53,2.53,0,0,0,2.08.85,2.57,2.57,0,0,0,2.09-.85,4.74,4.74,0,0,0,0-5,2.62,2.62,0,0,0-2.11-.84,2.56,2.56,0,0,0-2.07.83A3.8,3.8,0,0,0,458.68,190.25Z"/><path class="cls-2" d="M469.57,194.53h-1.4V182.38h1.4Z"/><path class="cls-2" d="M472.48,184.64a13.63,13.63,0,0,0,.88-1.17,13.81,13.81,0,0,0,.74-1.19h1.7v.16a11.51,11.51,0,0,1-1.11,1.25,11.63,11.63,0,0,1-1.27,1.15h-.94Zm1.46,9.89h-1.4V186h1.4Z"/><path class="cls-2" d="M479.9,193.62a5.39,5.39,0,0,0,.71-.05,3.28,3.28,0,0,0,.55-.11v1a2.85,2.85,0,0,1-.67.16,4.7,4.7,0,0,1-.79.07c-1.79,0-2.69-.87-2.69-2.62V187h-1.32v-.63l1.32-.53.59-1.83h.81v2h2.69v1h-2.69v5a1.69,1.69,0,0,0,.4,1.19A1.46,1.46,0,0,0,479.9,193.62Z"/><path class="cls-2" d="M482.89,183.65a.81.81,0,0,1,.24-.65.85.85,0,0,1,.59-.21.86.86,0,0,1,.58.21.87.87,0,0,1-.58,1.52.82.82,0,0,1-.59-.22A.82.82,0,0,1,482.89,183.65Zm1.52,10.88H483V186h1.4Z"/><path class="cls-2" d="M491.07,194.69a4.11,4.11,0,0,1-3.1-1.14,4.49,4.49,0,0,1-1.11-3.24A4.65,4.65,0,0,1,488,187a4.21,4.21,0,0,1,3.19-1.17,6.73,6.73,0,0,1,1.33.13,4.68,4.68,0,0,1,1,.31l-.43,1.1a6.4,6.4,0,0,0-1-.28,4.57,4.57,0,0,0-1-.12c-1.88,0-2.81,1.11-2.81,3.33a3.73,3.73,0,0,0,.68,2.42,2.46,2.46,0,0,0,2,.85,6.6,6.6,0,0,0,2.37-.46v1.15A5.52,5.52,0,0,1,491.07,194.69Z"/><path class="cls-2" d="M501.29,194.53l-.28-1.21h-.07a3.88,3.88,0,0,1-1.38,1.09,4.5,4.5,0,0,1-1.71.28,3.24,3.24,0,0,1-2.16-.66,2.28,2.28,0,0,1-.78-1.86q0-2.59,4.48-2.72l1.57,0v-.53a2.08,2.08,0,0,0-.47-1.49,2,2,0,0,0-1.5-.48,6.43,6.43,0,0,0-2.61.66l-.43-1a6.64,6.64,0,0,1,1.5-.54,6.93,6.93,0,0,1,1.63-.2,3.73,3.73,0,0,1,2.45.68,2.71,2.71,0,0,1,.79,2.18v5.84Zm-3.17-.91a3,3,0,0,0,2.06-.66,2.37,2.37,0,0,0,.74-1.86v-.78l-1.4.06a5.5,5.5,0,0,0-2.4.48,1.4,1.4,0,0,0-.74,1.32,1.27,1.27,0,0,0,.46,1.07A2,2,0,0,0,498.12,193.62Z"/><path class="cls-2" d="M508.23,186h1.5l2,4.88a17.38,17.38,0,0,1,.83,2.42h.07c.07-.27.22-.72.46-1.36s1-2.63,2.29-5.94h1.5l-4,9.75a4.88,4.88,0,0,1-1.38,2.05,3.06,3.06,0,0,1-1.94.61,6.57,6.57,0,0,1-1.26-.13v-1a5.41,5.41,0,0,0,1,.09,2.11,2.11,0,0,0,2.06-1.5l.52-1.22Z"/><path class="cls-2" d="M524.29,194.53h-1.4V182.38h1.4Z"/><path class="cls-2" d="M535.24,190.25a4.48,4.48,0,0,1-1.14,3.26,4.16,4.16,0,0,1-3.15,1.18,4.4,4.4,0,0,1-2.2-.54,3.58,3.58,0,0,1-1.48-1.55,5,5,0,0,1-.53-2.35,4.53,4.53,0,0,1,1.13-3.27,4.2,4.2,0,0,1,3.14-1.16,4,4,0,0,1,3.08,1.19A4.52,4.52,0,0,1,535.24,190.25Zm-7,0a3.88,3.88,0,0,0,.71,2.5,3,3,0,0,0,4.17,0,4.74,4.74,0,0,0,0-5,3,3,0,0,0-4.18,0A3.86,3.86,0,0,0,528.19,190.25Z"/><path class="cls-2" d="M543.65,192.2a2.08,2.08,0,0,1-1,1.84,4.73,4.73,0,0,1-2.7.65,6.29,6.29,0,0,1-2.87-.54V193a7.53,7.53,0,0,0,1.43.49,6.43,6.43,0,0,0,1.48.18,3.6,3.6,0,0,0,1.68-.32,1.08,1.08,0,0,0,.13-1.85,8.58,8.58,0,0,0-1.83-.84,9.51,9.51,0,0,1-1.84-.78,2.33,2.33,0,0,1-.8-.75,1.84,1.84,0,0,1-.27-1,1.9,1.9,0,0,1,.92-1.65,4.56,4.56,0,0,1,2.52-.6,7.77,7.77,0,0,1,2.92.56l-.5,1.05a7.26,7.26,0,0,0-2.52-.53,3.14,3.14,0,0,0-1.5.29.88.88,0,0,0-.51.8.94.94,0,0,0,.19.58,1.71,1.71,0,0,0,.61.46,13.68,13.68,0,0,0,1.62.64,6.36,6.36,0,0,1,2.23,1.11A1.92,1.92,0,0,1,543.65,192.2Z"/><path class="cls-2" d="M468.09,207.82a4.49,4.49,0,0,1-1.14,3.27,4.16,4.16,0,0,1-3.15,1.18,4.4,4.4,0,0,1-2.2-.54,3.58,3.58,0,0,1-1.48-1.55,5,5,0,0,1-.53-2.36,4.52,4.52,0,0,1,1.13-3.26,4.17,4.17,0,0,1,3.14-1.17,4.05,4.05,0,0,1,3.08,1.2A4.49,4.49,0,0,1,468.09,207.82Zm-7,0a3.84,3.84,0,0,0,.71,2.5,2.52,2.52,0,0,0,2.08.86,2.55,2.55,0,0,0,2.09-.85,3.81,3.81,0,0,0,.72-2.51,3.76,3.76,0,0,0-.72-2.48,2.59,2.59,0,0,0-2.1-.84,2.55,2.55,0,0,0-2.08.83A3.85,3.85,0,0,0,461,207.82Z"/><path class="cls-2" d="M474.84,203.41a3.54,3.54,0,0,1,2.83,1.15,5.77,5.77,0,0,1,0,6.54,3.53,3.53,0,0,1-2.82,1.17,4.22,4.22,0,0,1-1.65-.31,3.14,3.14,0,0,1-1.25-1h-.1l-.3,1.1h-1V200h1.4v2.95c0,.66,0,1.26-.07,1.78h.07A3.43,3.43,0,0,1,474.84,203.41Zm-.2,1.09a2.53,2.53,0,0,0-2.07.76,5.5,5.5,0,0,0,0,5.15,2.59,2.59,0,0,0,2.08.77,2.24,2.24,0,0,0,1.93-.87,4.21,4.21,0,0,0,.63-2.5,4,4,0,0,0-.63-2.49A2.33,2.33,0,0,0,474.64,204.5Z"/><path class="cls-2" d="M480,216a3.66,3.66,0,0,1-1.3-.2v-1a4.6,4.6,0,0,0,1.15.15,1.28,1.28,0,0,0,1-.33,1.47,1.47,0,0,0,.31-1v-10h1.4v9.88A2.24,2.24,0,0,1,480,216Zm1-14.73a.84.84,0,0,1,.23-.65.87.87,0,0,1,.59-.21.89.89,0,0,1,.59.21,1,1,0,0,1,0,1.3.85.85,0,0,1-.59.22.83.83,0,0,1-.59-.22A.86.86,0,0,1,481,201.23Z"/><path class="cls-2" d="M489.4,212.27a4.45,4.45,0,0,1-3.24-1.16A4.27,4.27,0,0,1,485,207.9a4.76,4.76,0,0,1,1.1-3.29,3.79,3.79,0,0,1,3-1.22,3.67,3.67,0,0,1,2.75,1.06,3.91,3.91,0,0,1,1,2.8v.82h-6.37a3.28,3.28,0,0,0,.82,2.29,3,3,0,0,0,2.2.78,8,8,0,0,0,2.95-.58v1.15a7.91,7.91,0,0,1-1.4.43A8.2,8.2,0,0,1,489.4,212.27Zm-.38-7.79a2.4,2.4,0,0,0-1.78.67,3,3,0,0,0-.78,1.86h4.84a2.73,2.73,0,0,0-.59-1.88A2.19,2.19,0,0,0,489,204.48Z"/><path class="cls-2" d="M498.17,211.2a5.55,5.55,0,0,0,.72,0c.23,0,.41-.07.55-.11v1a3.14,3.14,0,0,1-.67.16,4.9,4.9,0,0,1-.8.07c-1.79,0-2.68-.87-2.68-2.62v-5.09H494v-.63l1.33-.54.59-1.82h.81v2h2.68v1h-2.68v5a1.69,1.69,0,0,0,.39,1.19A1.47,1.47,0,0,0,498.17,211.2Z"/><path class="cls-2" d="M501.17,201.23a.81.81,0,0,1,.23-.65.87.87,0,0,1,.59-.21.84.84,0,0,1,.58.21,1,1,0,0,1,0,1.3.81.81,0,0,1-.58.22.83.83,0,0,1-.59-.22A.82.82,0,0,1,501.17,201.23Zm1.51,10.88h-1.4v-8.56h1.4Z"/><path class="cls-2" d="M507.68,212.11l-3.51-8.56h1.5l2,5.08a23.39,23.39,0,0,1,.79,2.31h.07a16.14,16.14,0,0,1,.59-1.71q.48-1.3,2.21-5.68h1.5l-3.51,8.56Z"/><path class="cls-2" d="M522.28,207.82a4.48,4.48,0,0,1-1.13,3.27,4.16,4.16,0,0,1-3.15,1.18,4.4,4.4,0,0,1-2.2-.54,3.66,3.66,0,0,1-1.49-1.55,5.13,5.13,0,0,1-.52-2.36,4.52,4.52,0,0,1,1.13-3.26,4.16,4.16,0,0,1,3.14-1.17,4.05,4.05,0,0,1,3.08,1.2A4.49,4.49,0,0,1,522.28,207.82Zm-7,0a3.84,3.84,0,0,0,.71,2.5,2.52,2.52,0,0,0,2.08.86,2.55,2.55,0,0,0,2.09-.85,3.81,3.81,0,0,0,.71-2.51,3.76,3.76,0,0,0-.71-2.48,2.6,2.6,0,0,0-2.1-.84,2.55,2.55,0,0,0-2.08.83A3.85,3.85,0,0,0,515.24,207.82Z"/><path class="cls-2" d="M530.7,209.78a2.09,2.09,0,0,1-1,1.84,4.81,4.81,0,0,1-2.7.65,6.29,6.29,0,0,1-2.87-.54v-1.2a7.3,7.3,0,0,0,1.43.49,6.43,6.43,0,0,0,1.48.18,3.6,3.6,0,0,0,1.68-.32,1.06,1.06,0,0,0,.59-1,1,1,0,0,0-.47-.86,7.36,7.36,0,0,0-1.82-.84,10.19,10.19,0,0,1-1.84-.78,2.46,2.46,0,0,1-.81-.75,1.92,1.92,0,0,1-.26-1,1.86,1.86,0,0,1,.92-1.65,4.56,4.56,0,0,1,2.52-.61,7.82,7.82,0,0,1,2.92.57l-.5,1a7.26,7.26,0,0,0-2.52-.53,3.08,3.08,0,0,0-1.5.29.92.92,0,0,0-.32,1.38,1.83,1.83,0,0,0,.61.46,13.68,13.68,0,0,0,1.62.64,6.2,6.2,0,0,1,2.22,1.11A1.89,1.89,0,0,1,530.7,209.78Z"/><path class="cls-2" d="M452.76,229.69l-.27-1.22h-.07a3.77,3.77,0,0,1-1.38,1.09,4.51,4.51,0,0,1-1.72.29,3.23,3.23,0,0,1-2.15-.66,2.3,2.3,0,0,1-.78-1.86q0-2.6,4.48-2.72l1.57-.05V224a2.08,2.08,0,0,0-.47-1.49,2,2,0,0,0-1.5-.48,6.43,6.43,0,0,0-2.61.66l-.43-1a6.73,6.73,0,0,1,1.49-.54,7.06,7.06,0,0,1,1.64-.19,3.75,3.75,0,0,1,2.45.68,2.71,2.71,0,0,1,.79,2.18v5.84Zm-3.16-.91a3,3,0,0,0,2.06-.67,2.37,2.37,0,0,0,.74-1.86v-.77l-1.4.06a5.3,5.3,0,0,0-2.41.48,1.41,1.41,0,0,0-.73,1.32,1.27,1.27,0,0,0,.46,1.07A2,2,0,0,0,449.6,228.78Z"/><path class="cls-2" d="M468.47,229.69v-5.57a2.21,2.21,0,0,0-.47-1.53,1.93,1.93,0,0,0-1.47-.51,2.47,2.47,0,0,0-1.93.69,3.11,3.11,0,0,0-.63,2.14v4.78h-1.4v-5.57a2.16,2.16,0,0,0-.47-1.53,1.91,1.91,0,0,0-1.47-.51,2.37,2.37,0,0,0-1.93.73,3.69,3.69,0,0,0-.61,2.39v4.49h-1.4v-8.56h1.14l.22,1.17h.07a2.6,2.6,0,0,1,1.12-1,3.56,3.56,0,0,1,1.61-.36,2.8,2.8,0,0,1,2.84,1.46h.06a2.91,2.91,0,0,1,1.2-1.07,4,4,0,0,1,1.79-.39,3.27,3.27,0,0,1,2.35.75,3.18,3.18,0,0,1,.78,2.39v5.58Z"/><path class="cls-2" d="M477.06,221a3.57,3.57,0,0,1,2.83,1.15,4.82,4.82,0,0,1,1,3.26,4.87,4.87,0,0,1-1,3.28,3.54,3.54,0,0,1-2.82,1.17,4.15,4.15,0,0,1-1.65-.31,3.1,3.1,0,0,1-1.26-.95h-.1l-.29,1.1h-1V217.54h1.4v3c0,.66,0,1.25-.06,1.78h.06A3.45,3.45,0,0,1,477.06,221Zm-.21,1.09a2.53,2.53,0,0,0-2.06.76,4,4,0,0,0-.64,2.56,4.08,4.08,0,0,0,.65,2.59,2.61,2.61,0,0,0,2.09.77,2.21,2.21,0,0,0,1.92-.87,4.21,4.21,0,0,0,.63-2.5,4,4,0,0,0-.63-2.49A2.3,2.3,0,0,0,476.85,222.08Z"/><path class="cls-2" d="M483.22,218.81a.8.8,0,0,1,.24-.65.84.84,0,0,1,.59-.21.86.86,0,0,1,.58.21,1,1,0,0,1,0,1.3.87.87,0,0,1-.58.22.84.84,0,0,1-.59-.22A.82.82,0,0,1,483.22,218.81Zm1.52,10.88h-1.4v-8.56h1.4Z"/><path class="cls-2" d="M491.61,229.85a4.44,4.44,0,0,1-3.23-1.16,4.28,4.28,0,0,1-1.19-3.21,4.74,4.74,0,0,1,1.1-3.29,3.81,3.81,0,0,1,3-1.22A3.64,3.64,0,0,1,494,222a3.87,3.87,0,0,1,1,2.8v.82h-6.37a3.24,3.24,0,0,0,.83,2.28,2.93,2.93,0,0,0,2.19.79,8.12,8.12,0,0,0,3-.58v1.15a8.26,8.26,0,0,1-1.41.43A8.13,8.13,0,0,1,491.61,229.85Zm-.38-7.79a2.36,2.36,0,0,0-1.77.67,3,3,0,0,0-.78,1.86h4.83a2.73,2.73,0,0,0-.59-1.88A2.18,2.18,0,0,0,491.23,222.06Z"/><path class="cls-2" d="M503.73,229.69v-5.54a2.14,2.14,0,0,0-.52-1.56,2.21,2.21,0,0,0-1.61-.51,2.8,2.8,0,0,0-2.13.72,3.48,3.48,0,0,0-.67,2.4v4.49h-1.4v-8.56h1.14l.23,1.17h.06a2.82,2.82,0,0,1,1.21-1,4.21,4.21,0,0,1,1.73-.35,3.67,3.67,0,0,1,2.51.75,3,3,0,0,1,.85,2.39v5.58Z"/><path class="cls-2" d="M511,228.78a5.52,5.52,0,0,0,.71-.05,5.26,5.26,0,0,0,.55-.11v1a2.37,2.37,0,0,1-.67.17,4.73,4.73,0,0,1-.8.07,2.34,2.34,0,0,1-2.68-2.62v-5.09h-1.32v-.63l1.32-.54.59-1.82h.81v2h2.68v1H509.5v5a1.61,1.61,0,0,0,.4,1.18A1.42,1.42,0,0,0,511,228.78Z"/><path class="cls-2" d="M519.78,229.69l-.27-1.22h-.07a3.77,3.77,0,0,1-1.38,1.09,4.51,4.51,0,0,1-1.72.29,3.23,3.23,0,0,1-2.15-.66,2.3,2.3,0,0,1-.78-1.86q0-2.6,4.48-2.72l1.57-.05V224a2.08,2.08,0,0,0-.47-1.49,2,2,0,0,0-1.5-.48,6.43,6.43,0,0,0-2.61.66l-.43-1a6.73,6.73,0,0,1,1.49-.54,7,7,0,0,1,1.63-.19,3.71,3.71,0,0,1,2.45.68,2.69,2.69,0,0,1,.8,2.18v5.84Zm-3.16-.91a2.93,2.93,0,0,0,2-.67,2.35,2.35,0,0,0,.75-1.86v-.77l-1.4.06a5.3,5.3,0,0,0-2.41.48,1.41,1.41,0,0,0-.73,1.32,1.29,1.29,0,0,0,.45,1.07A2,2,0,0,0,516.62,228.78Z"/><path class="cls-2" d="M525.11,229.69h-1.4V217.54h1.4Z"/><path class="cls-2" d="M532,229.85a4.42,4.42,0,0,1-3.23-1.16,4.28,4.28,0,0,1-1.19-3.21,4.74,4.74,0,0,1,1.1-3.29,3.81,3.81,0,0,1,3-1.22,3.65,3.65,0,0,1,2.75,1.06,3.91,3.91,0,0,1,1,2.8v.82H529a3.23,3.23,0,0,0,.82,2.28,3,3,0,0,0,2.2.79,8,8,0,0,0,3-.58v1.15a7.91,7.91,0,0,1-1.4.43A8.2,8.2,0,0,1,532,229.85Zm-.38-7.79a2.36,2.36,0,0,0-1.77.67,3,3,0,0,0-.79,1.86h4.84a2.73,2.73,0,0,0-.59-1.88A2.19,2.19,0,0,0,531.6,222.06Z"/><path class="cls-2" d="M543.73,227.36a2.09,2.09,0,0,1-1,1.84,4.81,4.81,0,0,1-2.7.65,6.27,6.27,0,0,1-2.87-.54v-1.2a8,8,0,0,0,1.43.49,6.42,6.42,0,0,0,1.47.18,3.51,3.51,0,0,0,1.69-.33,1.07,1.07,0,0,0,.12-1.84,7.36,7.36,0,0,0-1.82-.84,10.61,10.61,0,0,1-1.84-.78,2.46,2.46,0,0,1-.81-.75,1.83,1.83,0,0,1-.26-1,1.87,1.87,0,0,1,.91-1.65,4.53,4.53,0,0,1,2.53-.61,7.86,7.86,0,0,1,2.92.57l-.5,1.05a7.26,7.26,0,0,0-2.52-.53,3.15,3.15,0,0,0-1.51.29.92.92,0,0,0-.31,1.38,1.73,1.73,0,0,0,.61.46,13.68,13.68,0,0,0,1.62.64,6,6,0,0,1,2.22,1.11A1.89,1.89,0,0,1,543.73,227.36Z"/><path class="cls-2" d="M637.69,161.1V149.68h1.44V161.1Z"/><path class="cls-2" d="M648.62,161.1v-5.54a2.14,2.14,0,0,0-.51-1.56,2.21,2.21,0,0,0-1.61-.51,2.8,2.8,0,0,0-2.13.72,3.49,3.49,0,0,0-.67,2.4v4.49h-1.4v-8.56h1.14l.23,1.17h.06a2.82,2.82,0,0,1,1.21-1,4.21,4.21,0,0,1,1.73-.35,3.67,3.67,0,0,1,2.51.75,3,3,0,0,1,.84,2.39v5.58Z"/><path class="cls-2" d="M655.89,160.19a5.52,5.52,0,0,0,.71-.05,5.26,5.26,0,0,0,.55-.11v1a2.37,2.37,0,0,1-.67.17,4.73,4.73,0,0,1-.8.07,2.34,2.34,0,0,1-2.68-2.62v-5.09h-1.32v-.63l1.32-.54.59-1.82h.81v2h2.68v1H654.4v5a1.61,1.61,0,0,0,.4,1.18A1.42,1.42,0,0,0,655.89,160.19Z"/><path class="cls-2" d="M662.9,161.26a4.44,4.44,0,0,1-3.23-1.16,4.28,4.28,0,0,1-1.19-3.21,4.71,4.71,0,0,1,1.11-3.29,3.77,3.77,0,0,1,2.95-1.22,3.64,3.64,0,0,1,2.75,1.06,3.87,3.87,0,0,1,1,2.8v.82h-6.36a3.19,3.19,0,0,0,.82,2.28,2.93,2.93,0,0,0,2.19.79,8.12,8.12,0,0,0,3-.58v1.15a8.26,8.26,0,0,1-1.41.43A8.13,8.13,0,0,1,662.9,161.26Zm-.38-7.79a2.36,2.36,0,0,0-1.77.67A3,3,0,0,0,660,156h4.83a2.73,2.73,0,0,0-.59-1.88A2.16,2.16,0,0,0,662.52,153.47Z"/><path class="cls-2" d="M676.26,152.54v.82l-1.72.19a2.78,2.78,0,0,1,.43.71,2.66,2.66,0,0,1,.18,1,2.45,2.45,0,0,1-.93,2,3.92,3.92,0,0,1-2.54.75,3.84,3.84,0,0,1-.78-.07c-.6.3-.89.66-.89,1.11a.56.56,0,0,0,.31.52,2.48,2.48,0,0,0,1.07.16H673a3.85,3.85,0,0,1,2.3.59,2,2,0,0,1,.81,1.7,2.39,2.39,0,0,1-1.23,2.17,7,7,0,0,1-3.6.75,5.15,5.15,0,0,1-2.79-.63,2,2,0,0,1-1-1.76,1.9,1.9,0,0,1,.54-1.36,2.86,2.86,0,0,1,1.52-.77A1.46,1.46,0,0,1,669,160a1.16,1.16,0,0,1-.24-.73,1.32,1.32,0,0,1,.27-.82,2.83,2.83,0,0,1,.85-.68,2.42,2.42,0,0,1-1.17-.93,2.56,2.56,0,0,1-.45-1.5,2.64,2.64,0,0,1,.91-2.16,3.91,3.91,0,0,1,2.58-.77,5.22,5.22,0,0,1,1.31.16Zm-7.38,10a1.14,1.14,0,0,0,.64,1.05,3.69,3.69,0,0,0,1.81.36,5.45,5.45,0,0,0,2.61-.48,1.48,1.48,0,0,0,.85-1.33,1,1,0,0,0-.47-1,3.83,3.83,0,0,0-1.74-.27H670.9a2.31,2.31,0,0,0-1.48.42A1.44,1.44,0,0,0,668.88,162.54Zm.76-7.26a1.7,1.7,0,0,0,.55,1.36,2.31,2.31,0,0,0,1.53.46c1.36,0,2-.61,2-1.84s-.69-1.93-2.08-1.93a2.15,2.15,0,0,0-1.52.49A1.92,1.92,0,0,0,669.64,155.28Z"/><path class="cls-2" d="M682.37,152.38a6.18,6.18,0,0,1,1.11.1l-.2,1.2a5,5,0,0,0-1-.12,2.52,2.52,0,0,0-1.92.85,2.94,2.94,0,0,0-.8,2.1v4.59h-1.4v-8.56h1.16l.16,1.59h.07a3.75,3.75,0,0,1,1.24-1.29A3,3,0,0,1,682.37,152.38Z"/><path class="cls-2" d="M690.89,161.1l-.28-1.22h-.07a3.77,3.77,0,0,1-1.38,1.09,4.45,4.45,0,0,1-1.71.29,3.24,3.24,0,0,1-2.16-.66,2.29,2.29,0,0,1-.78-1.86c0-1.73,1.5-2.64,4.48-2.72l1.57-.05v-.53a2.08,2.08,0,0,0-.47-1.49,2,2,0,0,0-1.5-.48,6.43,6.43,0,0,0-2.61.66l-.43-1a8,8,0,0,1,1.5-.54,6.91,6.91,0,0,1,1.63-.19,3.73,3.73,0,0,1,2.45.68,2.72,2.72,0,0,1,.8,2.18v5.84Zm-3.16-.91a2.94,2.94,0,0,0,2-.67,2.34,2.34,0,0,0,.75-1.85v-.78l-1.4.06a5.24,5.24,0,0,0-2.41.48,1.42,1.42,0,0,0-.74,1.32,1.27,1.27,0,0,0,.46,1.07A2,2,0,0,0,687.73,160.19Z"/><path class="cls-2" d="M699,152.38a6,6,0,0,1,1.1.1l-.19,1.2a5,5,0,0,0-1-.12,2.52,2.52,0,0,0-1.92.85,2.94,2.94,0,0,0-.8,2.1v4.59h-1.4v-8.56H696l.16,1.59h.06a3.94,3.94,0,0,1,1.24-1.29A3,3,0,0,1,699,152.38Z"/><path class="cls-2" d="M703.26,161.1h-1.4V149h1.4Z"/><path class="cls-2" d="M714.21,156.81a4.49,4.49,0,0,1-1.14,3.27,4.15,4.15,0,0,1-3.14,1.18,4.44,4.44,0,0,1-2.21-.54,3.69,3.69,0,0,1-1.48-1.55,5,5,0,0,1-.52-2.36,4.48,4.48,0,0,1,1.13-3.26,4.15,4.15,0,0,1,3.13-1.17,4.06,4.06,0,0,1,3.09,1.2A4.49,4.49,0,0,1,714.21,156.81Zm-7,0a3.78,3.78,0,0,0,.71,2.5,2.51,2.51,0,0,0,2.08.86,2.57,2.57,0,0,0,2.09-.85,3.87,3.87,0,0,0,.71-2.51,3.82,3.82,0,0,0-.71-2.48,2.62,2.62,0,0,0-2.11-.84,2.53,2.53,0,0,0-2.07.83A3.79,3.79,0,0,0,707.17,156.81Z"/><path class="cls-2" d="M722.63,158.77a2.09,2.09,0,0,1-1,1.84,4.83,4.83,0,0,1-2.7.65,6.27,6.27,0,0,1-2.87-.54v-1.2a7.08,7.08,0,0,0,1.43.49,6.42,6.42,0,0,0,1.47.18,3.54,3.54,0,0,0,1.69-.33,1.07,1.07,0,0,0,.12-1.84,7.29,7.29,0,0,0-1.83-.84,9.71,9.71,0,0,1-1.83-.78,2.46,2.46,0,0,1-.81-.75,1.84,1.84,0,0,1-.27-1A1.88,1.88,0,0,1,717,153a4.62,4.62,0,0,1,2.53-.61,7.77,7.77,0,0,1,2.91.57l-.49,1.05a7.26,7.26,0,0,0-2.53-.53,3.14,3.14,0,0,0-1.5.29.89.89,0,0,0-.5.8.88.88,0,0,0,.19.58,1.73,1.73,0,0,0,.61.46,13.68,13.68,0,0,0,1.62.64,6.39,6.39,0,0,1,2.22,1.11A1.93,1.93,0,0,1,722.63,158.77Z"/><path class="cls-2" d="M631,170a5.29,5.29,0,0,1,1.1.1l-.19,1.2a5.09,5.09,0,0,0-1-.12A2.52,2.52,0,0,0,629,172a2.9,2.9,0,0,0-.8,2.1v4.59h-1.4v-8.56h1.15l.16,1.58h.07a3.9,3.9,0,0,1,1.24-1.28A2.92,2.92,0,0,1,631,170Z"/><path class="cls-2" d="M637.74,178.84a4.44,4.44,0,0,1-3.23-1.16,4.27,4.27,0,0,1-1.18-3.21,4.69,4.69,0,0,1,1.1-3.29,3.77,3.77,0,0,1,3-1.22,3.64,3.64,0,0,1,2.75,1.06,3.86,3.86,0,0,1,1,2.79v.82h-6.36a3.2,3.2,0,0,0,.82,2.29,3,3,0,0,0,2.2.78,8.09,8.09,0,0,0,3-.57v1.15a8.26,8.26,0,0,1-1.41.43A9,9,0,0,1,637.74,178.84Zm-.37-7.79a2.37,2.37,0,0,0-1.78.67,3,3,0,0,0-.78,1.86h4.83a2.68,2.68,0,0,0-.59-1.88A2.15,2.15,0,0,0,637.37,171.05Z"/><path class="cls-2" d="M646.81,178.84a3.48,3.48,0,0,1-2.79-1.17,4.81,4.81,0,0,1-1-3.25,4.86,4.86,0,0,1,1-3.28,3.52,3.52,0,0,1,2.82-1.18,3.47,3.47,0,0,1,2.91,1.33h.08l.2-1.17h1.11v12.4h-1.4v-3.66a8.42,8.42,0,0,1,.09-1.33h-.11A3.41,3.41,0,0,1,646.81,178.84Zm.21-1.09a2.65,2.65,0,0,0,2-.69,3.59,3.59,0,0,0,.69-2.35v-.29a4,4,0,0,0-.66-2.58,2.55,2.55,0,0,0-2.08-.79,2.2,2.2,0,0,0-1.89.88,4.16,4.16,0,0,0-.65,2.51,4,4,0,0,0,.64,2.46A2.24,2.24,0,0,0,647,177.75Z"/><path class="cls-2" d="M655.43,170.12v5.55a2.13,2.13,0,0,0,.52,1.57,2.21,2.21,0,0,0,1.61.51,2.75,2.75,0,0,0,2.12-.73,3.49,3.49,0,0,0,.67-2.4v-4.5h1.4v8.56h-1.16l-.2-1.15h-.08a2.67,2.67,0,0,1-1.19,1,4.19,4.19,0,0,1-1.74.34,3.71,3.71,0,0,1-2.53-.75,3,3,0,0,1-.84-2.37v-5.6Z"/><path class="cls-2" d="M664.6,167.8a.8.8,0,0,1,.24-.65.84.84,0,0,1,.59-.21.88.88,0,0,1,.58.21,1,1,0,0,1,0,1.3.89.89,0,0,1-.58.22.84.84,0,0,1-.59-.22A.82.82,0,0,1,664.6,167.8Zm1.52,10.88h-1.4v-8.56h1.4Z"/><path class="cls-2" d="M675.05,176.34a2.1,2.1,0,0,1-1,1.85,4.81,4.81,0,0,1-2.7.65,6.27,6.27,0,0,1-2.87-.54v-1.21a7.32,7.32,0,0,0,1.43.5,6.42,6.42,0,0,0,1.47.18,3.51,3.51,0,0,0,1.69-.33,1.07,1.07,0,0,0,.12-1.84,7.36,7.36,0,0,0-1.82-.84,10.61,10.61,0,0,1-1.84-.78,2.46,2.46,0,0,1-.81-.75,1.83,1.83,0,0,1-.26-1,1.86,1.86,0,0,1,.92-1.65,4.56,4.56,0,0,1,2.52-.61,8,8,0,0,1,2.92.56l-.5,1.06a7.26,7.26,0,0,0-2.52-.53,3.15,3.15,0,0,0-1.51.29.89.89,0,0,0-.5.79.91.91,0,0,0,.19.59,1.83,1.83,0,0,0,.61.46,12.48,12.48,0,0,0,1.62.63,6.18,6.18,0,0,1,2.22,1.12A1.89,1.89,0,0,1,675.05,176.34Z"/><path class="cls-2" d="M677.21,167.8a.83.83,0,0,1,.23-.65.93.93,0,0,1,1.18,0,1,1,0,0,1,0,1.3.9.9,0,0,1-1.18,0A.86.86,0,0,1,677.21,167.8Zm1.52,10.88h-1.4v-8.56h1.4Z"/><path class="cls-2" d="M684.68,177.77a5.55,5.55,0,0,0,.72-.05c.23,0,.41-.07.55-.11v1a2.58,2.58,0,0,1-.67.17,4.81,4.81,0,0,1-.8.07c-1.79,0-2.68-.87-2.68-2.62v-5.09h-1.33v-.63l1.33-.54.59-1.83h.81v2h2.68v1H683.2v5a1.65,1.65,0,0,0,.39,1.18A1.44,1.44,0,0,0,684.68,177.77Z"/><path class="cls-2" d="M695.77,174.39a4.49,4.49,0,0,1-1.14,3.27,4.14,4.14,0,0,1-3.14,1.18,4.4,4.4,0,0,1-2.2-.54,3.71,3.71,0,0,1-1.49-1.55,5,5,0,0,1-.52-2.36,4.52,4.52,0,0,1,1.13-3.26,4.16,4.16,0,0,1,3.14-1.17,4.05,4.05,0,0,1,3.08,1.2A4.47,4.47,0,0,1,695.77,174.39Zm-7,0a3.84,3.84,0,0,0,.71,2.5,2.51,2.51,0,0,0,2.08.86,2.57,2.57,0,0,0,2.09-.85,3.87,3.87,0,0,0,.71-2.51,3.8,3.8,0,0,0-.71-2.48,2.63,2.63,0,0,0-2.11-.85,2.55,2.55,0,0,0-2.07.84A3.79,3.79,0,0,0,688.73,174.39Z"/><path class="cls-2" d="M704.19,176.34a2.1,2.1,0,0,1-1,1.85,4.81,4.81,0,0,1-2.7.65,6.27,6.27,0,0,1-2.87-.54v-1.21a7.32,7.32,0,0,0,1.43.5,6.42,6.42,0,0,0,1.47.18,3.51,3.51,0,0,0,1.69-.33,1.07,1.07,0,0,0,.12-1.84,7.36,7.36,0,0,0-1.82-.84,10.61,10.61,0,0,1-1.84-.78,2.46,2.46,0,0,1-.81-.75,1.83,1.83,0,0,1-.26-1,1.86,1.86,0,0,1,.92-1.65,4.56,4.56,0,0,1,2.52-.61,8,8,0,0,1,2.92.56l-.5,1.06a7.26,7.26,0,0,0-2.52-.53,3.08,3.08,0,0,0-1.5.29.88.88,0,0,0-.51.79.91.91,0,0,0,.19.59,1.83,1.83,0,0,0,.61.46,12.48,12.48,0,0,0,1.62.63,6.18,6.18,0,0,1,2.22,1.12A1.89,1.89,0,0,1,704.19,176.34Z"/><path class="cls-2" d="M717.25,177.53h-.08a3.39,3.39,0,0,1-2.9,1.31,3.57,3.57,0,0,1-2.82-1.15,4.83,4.83,0,0,1-1-3.27,4.92,4.92,0,0,1,1-3.29,3.54,3.54,0,0,1,2.82-1.17,3.45,3.45,0,0,1,2.88,1.27h.11l-.06-.62,0-.6v-3.49h1.4v12.16h-1.14Zm-2.8.22a2.69,2.69,0,0,0,2.08-.72,3.45,3.45,0,0,0,.64-2.33v-.28a4.06,4.06,0,0,0-.65-2.59,2.6,2.6,0,0,0-2.09-.78,2.21,2.21,0,0,0-1.89.88,4.23,4.23,0,0,0-.65,2.51,4,4,0,0,0,.65,2.48A2.28,2.28,0,0,0,714.45,177.75Z"/><path class="cls-2" d="M725.44,178.84a4.44,4.44,0,0,1-3.23-1.16,4.28,4.28,0,0,1-1.19-3.21,4.7,4.7,0,0,1,1.11-3.29,3.77,3.77,0,0,1,3-1.22,3.64,3.64,0,0,1,2.75,1.06,3.86,3.86,0,0,1,1,2.79v.82h-6.36a3.2,3.2,0,0,0,.82,2.29,3,3,0,0,0,2.19.78,8.1,8.1,0,0,0,3-.57v1.15a8.26,8.26,0,0,1-1.41.43A9,9,0,0,1,725.44,178.84Zm-.38-7.79a2.36,2.36,0,0,0-1.77.67,3,3,0,0,0-.78,1.86h4.83a2.68,2.68,0,0,0-.59-1.88A2.16,2.16,0,0,0,725.06,171.05Z"/><path class="cls-2" d="M732.63,178.68h-1.4V166.52h1.4Z"/><path class="cls-2" d="M629.86,193.22a2.73,2.73,0,0,1-1.18,2.35,5.46,5.46,0,0,1-3.21.85,8.56,8.56,0,0,1-3.37-.53v-1.28a9.06,9.06,0,0,0,1.65.47,9.81,9.81,0,0,0,1.77.17,3.83,3.83,0,0,0,2.16-.5,1.61,1.61,0,0,0,.73-1.4,1.74,1.74,0,0,0-.26-1,2.44,2.44,0,0,0-.86-.7,12.86,12.86,0,0,0-1.83-.72A5.94,5.94,0,0,1,623,189.6a2.86,2.86,0,0,1-.74-2,2.48,2.48,0,0,1,1.07-2.1,4.63,4.63,0,0,1,2.83-.79,8.9,8.9,0,0,1,3.39.63l-.45,1.16a8.11,8.11,0,0,0-3-.6,3.06,3.06,0,0,0-1.78.45,1.47,1.47,0,0,0-.64,1.26,1.76,1.76,0,0,0,.24,1,2,2,0,0,0,.79.7,11.17,11.17,0,0,0,1.72.7,7.19,7.19,0,0,1,2.67,1.37A2.59,2.59,0,0,1,629.86,193.22Z"/><path class="cls-2" d="M637.8,190.28H642v5.55a15.39,15.39,0,0,1-2,.44,16.28,16.28,0,0,1-2.35.15,5.92,5.92,0,0,1-4.36-1.55,5.81,5.81,0,0,1-1.56-4.32,6.17,6.17,0,0,1,.77-3.12,5.07,5.07,0,0,1,2.22-2.05,7.7,7.7,0,0,1,3.4-.71,9.91,9.91,0,0,1,3.68.68l-.56,1.17a8.69,8.69,0,0,0-3.21-.66,4.86,4.86,0,0,0-3.52,1.24,4.63,4.63,0,0,0-1.26,3.45,4.68,4.68,0,0,0,1.22,3.51,4.93,4.93,0,0,0,3.58,1.19,11.54,11.54,0,0,0,2.5-.27v-3.52H637.8Z"/><path class="cls-2" d="M652.71,196.26l-1.54-3.63h-4.94l-1.52,3.63h-1.45l4.88-11.47h1.2l4.85,11.47Zm-2-4.83-1.44-3.54a17.06,17.06,0,0,1-.57-1.65,15.46,15.46,0,0,1-.53,1.65l-1.45,3.54Z"/><path class="cls-2" d="M663.86,196.42a4.12,4.12,0,0,1-3.11-1.15,4.49,4.49,0,0,1-1.1-3.24,4.6,4.6,0,0,1,1.12-3.32,4.17,4.17,0,0,1,3.18-1.17,6.66,6.66,0,0,1,1.33.13,4.56,4.56,0,0,1,1.05.32l-.43,1.1a7,7,0,0,0-1-.29,5.33,5.33,0,0,0-1-.11q-2.82,0-2.82,3.33a3.73,3.73,0,0,0,.69,2.42,2.47,2.47,0,0,0,2,.84,6.6,6.6,0,0,0,2.37-.46V196A5.29,5.29,0,0,1,663.86,196.42Z"/><path class="cls-2" d="M676.37,192a4.49,4.49,0,0,1-1.14,3.27,4.2,4.2,0,0,1-3.15,1.18,4.4,4.4,0,0,1-2.2-.54,3.63,3.63,0,0,1-1.48-1.55,5,5,0,0,1-.53-2.36,4.52,4.52,0,0,1,1.13-3.26,4.17,4.17,0,0,1,3.14-1.17,4.05,4.05,0,0,1,3.08,1.2A4.47,4.47,0,0,1,676.37,192Zm-7,0a3.86,3.86,0,0,0,.71,2.5,3,3,0,0,0,4.17,0,3.78,3.78,0,0,0,.71-2.5,3.74,3.74,0,0,0-.71-2.48,3,3,0,0,0-4.18,0A3.85,3.85,0,0,0,669.32,192Z"/><path class="cls-2" d="M685.15,196.26v-5.54a2.13,2.13,0,0,0-.52-1.56,2.17,2.17,0,0,0-1.61-.52,2.76,2.76,0,0,0-2.13.73,3.46,3.46,0,0,0-.67,2.4v4.49h-1.4V187.7H680l.23,1.17h.06a2.82,2.82,0,0,1,1.21-1,4.21,4.21,0,0,1,1.73-.35,3.67,3.67,0,0,1,2.51.75,3,3,0,0,1,.85,2.38v5.59Z"/><path class="cls-2" d="M696.89,195.35a4.2,4.2,0,0,0,.72-.06,4,4,0,0,0,.55-.1v1a2.47,2.47,0,0,1-.67.17,6.19,6.19,0,0,1-.8.07A2.34,2.34,0,0,1,694,193.8v-5.09h-1.32v-.63l1.32-.54.59-1.83h.81v2h2.68v1h-2.68v5a1.62,1.62,0,0,0,.4,1.19A1.4,1.4,0,0,0,696.89,195.35Z"/><path class="cls-2" d="M708,192a4.49,4.49,0,0,1-1.14,3.27,4.2,4.2,0,0,1-3.15,1.18,4.4,4.4,0,0,1-2.2-.54,3.63,3.63,0,0,1-1.48-1.55,5,5,0,0,1-.53-2.36,4.52,4.52,0,0,1,1.13-3.26,4.17,4.17,0,0,1,3.14-1.17,4.05,4.05,0,0,1,3.08,1.2A4.47,4.47,0,0,1,708,192Zm-7,0a3.86,3.86,0,0,0,.71,2.5,3,3,0,0,0,4.17,0,3.78,3.78,0,0,0,.71-2.5,3.74,3.74,0,0,0-.71-2.48,3,3,0,0,0-4.18,0A3.85,3.85,0,0,0,700.94,192Z"/><path class="cls-2" d="M716.73,195.11h-.07a3.4,3.4,0,0,1-2.91,1.31,3.6,3.6,0,0,1-2.82-1.15,5.85,5.85,0,0,1,0-6.56,3.51,3.51,0,0,1,2.81-1.17,3.45,3.45,0,0,1,2.89,1.27h.11l-.06-.62,0-.6V184.1h1.4v12.16h-1.14Zm-2.8.22a2.66,2.66,0,0,0,2.08-.72,3.45,3.45,0,0,0,.65-2.33V192a4,4,0,0,0-.66-2.6,2.6,2.6,0,0,0-2.09-.77,2.19,2.19,0,0,0-1.88.88,4.14,4.14,0,0,0-.65,2.51,3.92,3.92,0,0,0,.65,2.47A2.24,2.24,0,0,0,713.93,195.33Z"/><path class="cls-2" d="M729,192a4.53,4.53,0,0,1-1.13,3.27,4.2,4.2,0,0,1-3.15,1.18,4.4,4.4,0,0,1-2.2-.54,3.71,3.71,0,0,1-1.49-1.55,5,5,0,0,1-.52-2.36,4.52,4.52,0,0,1,1.13-3.26,4.16,4.16,0,0,1,3.14-1.17,4.05,4.05,0,0,1,3.08,1.2A4.47,4.47,0,0,1,729,192Zm-7,0a3.86,3.86,0,0,0,.71,2.5,3,3,0,0,0,4.17,0,3.78,3.78,0,0,0,.71-2.5,3.74,3.74,0,0,0-.71-2.48,3,3,0,0,0-4.18,0A3.79,3.79,0,0,0,722,192Z"/><path class="cls-2" d="M737.42,193.92a2.11,2.11,0,0,1-1,1.85,4.81,4.81,0,0,1-2.7.65,6.29,6.29,0,0,1-2.87-.54v-1.21a7.32,7.32,0,0,0,1.43.5,6.42,6.42,0,0,0,1.47.18,3.49,3.49,0,0,0,1.69-.33,1.07,1.07,0,0,0,.12-1.84,7.36,7.36,0,0,0-1.82-.84,11,11,0,0,1-1.84-.78,2.46,2.46,0,0,1-.81-.75,1.92,1.92,0,0,1-.26-1,1.86,1.86,0,0,1,.92-1.65,4.47,4.47,0,0,1,2.52-.61,8,8,0,0,1,2.92.56l-.5,1.06a7,7,0,0,0-2.52-.53,3,3,0,0,0-1.5.29.87.87,0,0,0-.51.79.91.91,0,0,0,.19.59,2,2,0,0,0,.61.46,12.48,12.48,0,0,0,1.62.63,6,6,0,0,1,2.22,1.12A1.87,1.87,0,0,1,737.42,193.92Z"/><path class="cls-2" d="M632.38,213.84H631V201.68h1.4Z"/><path class="cls-2" d="M643.33,209.55a4.49,4.49,0,0,1-1.14,3.27A4.2,4.2,0,0,1,639,214a4.43,4.43,0,0,1-2.2-.54,3.69,3.69,0,0,1-1.48-1.55,5,5,0,0,1-.53-2.36,4.5,4.5,0,0,1,1.13-3.26,4.17,4.17,0,0,1,3.14-1.17,4.07,4.07,0,0,1,3.09,1.2A4.47,4.47,0,0,1,643.33,209.55Zm-7,0a3.86,3.86,0,0,0,.7,2.5,3,3,0,0,0,4.17,0,3.78,3.78,0,0,0,.72-2.5,3.73,3.73,0,0,0-.72-2.48,2.56,2.56,0,0,0-2.1-.85,2.52,2.52,0,0,0-2.07.84A3.77,3.77,0,0,0,636.29,209.55Z"/><path class="cls-2" d="M651.75,211.5a2.12,2.12,0,0,1-1,1.85,4.81,4.81,0,0,1-2.7.65,6.22,6.22,0,0,1-2.86-.54v-1.21a7.1,7.1,0,0,0,1.43.5,7,7,0,0,0,1.47.17,3.55,3.55,0,0,0,1.69-.32,1.07,1.07,0,0,0,.59-1,1,1,0,0,0-.47-.85,7.29,7.29,0,0,0-1.83-.84,10.43,10.43,0,0,1-1.83-.78,2.28,2.28,0,0,1-.81-.75,1.86,1.86,0,0,1-.27-1,1.88,1.88,0,0,1,.92-1.65,4.47,4.47,0,0,1,2.52-.61,8,8,0,0,1,2.92.56l-.5,1.06a7,7,0,0,0-2.52-.53,3,3,0,0,0-1.5.29.87.87,0,0,0-.51.79,1,1,0,0,0,.19.59,1.91,1.91,0,0,0,.62.46A14.19,14.19,0,0,0,649,209a6.2,6.2,0,0,1,2.22,1.12A1.89,1.89,0,0,1,651.75,211.5Z"/><path class="cls-2" d="M662.81,214a4.41,4.41,0,0,1-1.65-.31,3.16,3.16,0,0,1-1.25-.95h-.1a10.19,10.19,0,0,1,.1,1.42v3.52h-1.4v-12.4h1.14l.19,1.17h.07a3.2,3.2,0,0,1,1.26-1,4,4,0,0,1,1.64-.31,3.56,3.56,0,0,1,2.84,1.16,5.81,5.81,0,0,1,0,6.55A3.54,3.54,0,0,1,662.81,214Zm-.2-7.78a2.56,2.56,0,0,0-2.05.73,3.52,3.52,0,0,0-.65,2.31v.29a4.06,4.06,0,0,0,.65,2.58,2.56,2.56,0,0,0,2.08.78,2.22,2.22,0,0,0,1.88-.9,4,4,0,0,0,.68-2.48,3.88,3.88,0,0,0-.68-2.45A2.3,2.3,0,0,0,662.61,206.22Z"/><path class="cls-2" d="M673.31,205.12a6.23,6.23,0,0,1,1.11.09l-.2,1.21a5,5,0,0,0-1-.12,2.55,2.55,0,0,0-1.92.84,3,3,0,0,0-.79,2.11v4.59h-1.41v-8.56h1.16l.16,1.58h.07a3.84,3.84,0,0,1,1.24-1.29A2.94,2.94,0,0,1,673.31,205.12Z"/><path class="cls-2" d="M684.12,209.55a4.48,4.48,0,0,1-1.13,3.27,4.2,4.2,0,0,1-3.15,1.18,4.4,4.4,0,0,1-2.2-.54,3.71,3.71,0,0,1-1.49-1.55,5.16,5.16,0,0,1-.52-2.36,4.5,4.5,0,0,1,1.13-3.26,4.17,4.17,0,0,1,3.14-1.17,4.05,4.05,0,0,1,3.08,1.2A4.47,4.47,0,0,1,684.12,209.55Zm-7,0a3.86,3.86,0,0,0,.71,2.5,3,3,0,0,0,4.17,0,3.78,3.78,0,0,0,.71-2.5,3.72,3.72,0,0,0-.71-2.48,3,3,0,0,0-4.18,0A3.83,3.83,0,0,0,677.08,209.55Z"/><path class="cls-2" d="M690.27,214a4.11,4.11,0,0,1-3.1-1.15,4.45,4.45,0,0,1-1.11-3.24,4.65,4.65,0,0,1,1.12-3.32,4.21,4.21,0,0,1,3.19-1.17,6.73,6.73,0,0,1,1.33.13,4.62,4.62,0,0,1,1,.32l-.43,1.1a6.37,6.37,0,0,0-1-.29,5.24,5.24,0,0,0-1-.11c-1.88,0-2.81,1.11-2.81,3.33a3.73,3.73,0,0,0,.68,2.42,2.49,2.49,0,0,0,2,.84,6.6,6.6,0,0,0,2.37-.46v1.15A5.36,5.36,0,0,1,690.27,214Z"/><path class="cls-2" d="M698.71,214a4.45,4.45,0,0,1-3.24-1.16,4.27,4.27,0,0,1-1.18-3.21,4.69,4.69,0,0,1,1.1-3.29,3.79,3.79,0,0,1,3-1.22,3.6,3.6,0,0,1,2.75,1.06,3.85,3.85,0,0,1,1,2.79v.82h-6.37a3.24,3.24,0,0,0,.82,2.29,3,3,0,0,0,2.2.78,7.87,7.87,0,0,0,3-.58v1.16a7.91,7.91,0,0,1-1.4.43A9.15,9.15,0,0,1,698.71,214Zm-.38-7.79a2.38,2.38,0,0,0-1.78.67,3,3,0,0,0-.78,1.86h4.84a2.67,2.67,0,0,0-.6-1.88A2.12,2.12,0,0,0,698.33,206.21Z"/><path class="cls-2" d="M710.46,211.5a2.11,2.11,0,0,1-1,1.85,4.85,4.85,0,0,1-2.7.65,6.24,6.24,0,0,1-2.87-.54v-1.21a7.1,7.1,0,0,0,1.43.5,7,7,0,0,0,1.47.17,3.55,3.55,0,0,0,1.69-.32,1.07,1.07,0,0,0,.59-1,1,1,0,0,0-.47-.85,7.29,7.29,0,0,0-1.83-.84,10.43,10.43,0,0,1-1.83-.78,2.46,2.46,0,0,1-.81-.75,1.86,1.86,0,0,1-.27-1,1.88,1.88,0,0,1,.92-1.65,4.52,4.52,0,0,1,2.52-.61,8,8,0,0,1,2.92.56l-.49,1.06a7,7,0,0,0-2.53-.53,3,3,0,0,0-1.5.29.86.86,0,0,0-.5.79.91.91,0,0,0,.19.59,1.86,1.86,0,0,0,.61.46,14.19,14.19,0,0,0,1.62.63,6.2,6.2,0,0,1,2.22,1.12A1.89,1.89,0,0,1,710.46,211.5Z"/><path class="cls-2" d="M720.71,209.55a4.49,4.49,0,0,1-1.14,3.27,4.16,4.16,0,0,1-3.14,1.18,4.4,4.4,0,0,1-2.2-.54,3.71,3.71,0,0,1-1.49-1.55,5,5,0,0,1-.52-2.36,4.5,4.5,0,0,1,1.13-3.26,4.16,4.16,0,0,1,3.14-1.17,4.05,4.05,0,0,1,3.08,1.2A4.47,4.47,0,0,1,720.71,209.55Zm-7,0a3.86,3.86,0,0,0,.71,2.5,3,3,0,0,0,4.17,0,3.84,3.84,0,0,0,.71-2.5,3.78,3.78,0,0,0-.71-2.48,2.59,2.59,0,0,0-2.1-.85,2.56,2.56,0,0,0-2.08.84A3.77,3.77,0,0,0,713.67,209.55Z"/><path class="cls-2" d="M729.13,211.5a2.11,2.11,0,0,1-1,1.85,4.81,4.81,0,0,1-2.7.65,6.27,6.27,0,0,1-2.87-.54v-1.21a7.32,7.32,0,0,0,1.43.5,7,7,0,0,0,1.47.17,3.53,3.53,0,0,0,1.69-.32,1.07,1.07,0,0,0,.59-1,1,1,0,0,0-.47-.85,7.36,7.36,0,0,0-1.82-.84,10.61,10.61,0,0,1-1.84-.78,2.46,2.46,0,0,1-.81-.75,2,2,0,0,1-.26-1,1.86,1.86,0,0,1,.92-1.65,4.47,4.47,0,0,1,2.52-.61,8,8,0,0,1,2.92.56l-.5,1.06a7,7,0,0,0-2.52-.53,3,3,0,0,0-1.5.29.87.87,0,0,0-.51.79.91.91,0,0,0,.19.59,2,2,0,0,0,.61.46,14.19,14.19,0,0,0,1.62.63,6,6,0,0,1,2.22,1.12A1.86,1.86,0,0,1,729.13,211.5Z"/><path class="cls-2" d="M404.32,46.33a4.22,4.22,0,0,0-3.21,1.25A4.86,4.86,0,0,0,399.94,51a4.92,4.92,0,0,0,1.13,3.46,4.2,4.2,0,0,0,3.24,1.23,12.13,12.13,0,0,0,2.94-.43v1.16a9.61,9.61,0,0,1-3.16.45,5.56,5.56,0,0,1-4.21-1.54A6,6,0,0,1,398.4,51a6.38,6.38,0,0,1,.72-3.09,4.88,4.88,0,0,1,2.05-2,6.65,6.65,0,0,1,3.17-.72,8.14,8.14,0,0,1,3.39.66l-.61,1.14A6.87,6.87,0,0,0,404.32,46.33Z"/><path class="cls-2" d="M415.41,56.73l-.27-1.22h-.07a3.77,3.77,0,0,1-1.38,1.09,4.51,4.51,0,0,1-1.72.29,3.23,3.23,0,0,1-2.15-.66,2.31,2.31,0,0,1-.78-1.87c0-1.73,1.49-2.63,4.48-2.72l1.57,0v-.53a2.06,2.06,0,0,0-.47-1.49,2,2,0,0,0-1.5-.48,6.56,6.56,0,0,0-2.61.65l-.43-1a6.73,6.73,0,0,1,1.49-.54A7,7,0,0,1,413.2,48a3.66,3.66,0,0,1,2.45.68,2.69,2.69,0,0,1,.8,2.18v5.84Zm-3.16-.91a3,3,0,0,0,2.06-.67,2.37,2.37,0,0,0,.74-1.86v-.77l-1.4,0a5.59,5.59,0,0,0-2.41.48,1.43,1.43,0,0,0-.73,1.33,1.28,1.28,0,0,0,.46,1.07A2,2,0,0,0,412.25,55.82Z"/><path class="cls-2" d="M425.66,56.73V51.19a2.12,2.12,0,0,0-.51-1.56,2.18,2.18,0,0,0-1.61-.52,2.76,2.76,0,0,0-2.13.73,3.46,3.46,0,0,0-.67,2.4v4.49h-1.4V48.17h1.13l.23,1.17h.07a2.82,2.82,0,0,1,1.21-1,4.18,4.18,0,0,1,1.73-.35,3.67,3.67,0,0,1,2.51.75,3,3,0,0,1,.84,2.38v5.59Z"/><path class="cls-2" d="M435.62,56.73l-.28-1.22h-.06a3.77,3.77,0,0,1-1.38,1.09,4.51,4.51,0,0,1-1.72.29,3.23,3.23,0,0,1-2.15-.66,2.31,2.31,0,0,1-.78-1.87c0-1.73,1.49-2.63,4.48-2.72l1.56,0v-.53a1.69,1.69,0,0,0-2-2,6.64,6.64,0,0,0-2.62.65l-.43-1a7.06,7.06,0,0,1,3.13-.73,3.66,3.66,0,0,1,2.45.68,2.72,2.72,0,0,1,.8,2.18v5.84Zm-3.16-.91a3,3,0,0,0,2.05-.67,2.35,2.35,0,0,0,.75-1.86v-.77l-1.4,0a5.55,5.55,0,0,0-2.41.48,1.44,1.44,0,0,0-.74,1.33,1.31,1.31,0,0,0,.46,1.07A2.06,2.06,0,0,0,432.46,55.82Z"/><path class="cls-2" d="M441,56.73h-1.4V44.57H441Z"/><path class="cls-2" d="M447.82,56.89a4.45,4.45,0,0,1-3.24-1.16,4.27,4.27,0,0,1-1.18-3.21,4.74,4.74,0,0,1,1.1-3.29,3.79,3.79,0,0,1,3-1.22,3.63,3.63,0,0,1,2.75,1.06,3.9,3.9,0,0,1,1,2.79v.82h-6.37a3.24,3.24,0,0,0,.82,2.29,3,3,0,0,0,2.2.78,7.87,7.87,0,0,0,2.95-.58v1.16a7.91,7.91,0,0,1-1.4.43A9.07,9.07,0,0,1,447.82,56.89Zm-.38-7.79a2.4,2.4,0,0,0-1.78.67,3,3,0,0,0-.78,1.86h4.84a2.72,2.72,0,0,0-.59-1.88A2.16,2.16,0,0,0,447.44,49.1Z"/><path class="cls-2" d="M459.57,54.39a2.1,2.1,0,0,1-1,1.85,4.81,4.81,0,0,1-2.7.65,6.27,6.27,0,0,1-2.87-.54V55.14a7.1,7.1,0,0,0,1.43.5,6.42,6.42,0,0,0,1.47.18,3.54,3.54,0,0,0,1.69-.33,1.05,1.05,0,0,0,.59-1,1,1,0,0,0-.47-.85,7.29,7.29,0,0,0-1.83-.84,10.43,10.43,0,0,1-1.83-.78,2.46,2.46,0,0,1-.81-.75,1.84,1.84,0,0,1-.27-1,1.88,1.88,0,0,1,.92-1.65,4.53,4.53,0,0,1,2.53-.61,8,8,0,0,1,2.91.56l-.49,1.06a7,7,0,0,0-2.53-.53,3,3,0,0,0-1.5.29.88.88,0,0,0-.5.79.91.91,0,0,0,.19.59,1.86,1.86,0,0,0,.61.46,12.48,12.48,0,0,0,1.62.63A6.2,6.2,0,0,1,459,53,1.87,1.87,0,0,1,459.57,54.39Z"/><path class="cls-2" d="M472.62,55.58h-.07a3.4,3.4,0,0,1-2.9,1.31,3.57,3.57,0,0,1-2.82-1.15,4.78,4.78,0,0,1-1-3.27,4.9,4.9,0,0,1,1-3.29A3.52,3.52,0,0,1,469.65,48a3.45,3.45,0,0,1,2.88,1.27h.11l-.06-.62,0-.6V44.57H474V56.73h-1.14Zm-2.8.22a2.66,2.66,0,0,0,2.08-.72,3.45,3.45,0,0,0,.65-2.33v-.28a4,4,0,0,0-.66-2.6,2.59,2.59,0,0,0-2.08-.77,2.21,2.21,0,0,0-1.89.88,4.23,4.23,0,0,0-.65,2.51,3.92,3.92,0,0,0,.65,2.47A2.26,2.26,0,0,0,469.82,55.8Z"/><path class="cls-2" d="M480.82,56.89a4.44,4.44,0,0,1-3.23-1.16,4.28,4.28,0,0,1-1.19-3.21,4.74,4.74,0,0,1,1.1-3.29,3.81,3.81,0,0,1,3-1.22,3.62,3.62,0,0,1,2.75,1.06,3.9,3.9,0,0,1,1,2.79v.82h-6.37a3.24,3.24,0,0,0,.83,2.29,3,3,0,0,0,2.19.78,7.92,7.92,0,0,0,3-.58v1.16a8.26,8.26,0,0,1-1.41.43A9,9,0,0,1,480.82,56.89Zm-.38-7.79a2.36,2.36,0,0,0-1.77.67,3,3,0,0,0-.78,1.86h4.83a2.72,2.72,0,0,0-.59-1.88A2.14,2.14,0,0,0,480.44,49.1Z"/><path class="cls-2" d="M390.54,74.46a4.12,4.12,0,0,1-3.11-1.14,4.49,4.49,0,0,1-1.1-3.24,4.6,4.6,0,0,1,1.12-3.32,4.17,4.17,0,0,1,3.18-1.17,6.66,6.66,0,0,1,1.33.13A5.2,5.2,0,0,1,393,66l-.43,1.11a7,7,0,0,0-1-.29,5.33,5.33,0,0,0-1-.11q-2.82,0-2.82,3.33a3.75,3.75,0,0,0,.69,2.42,2.47,2.47,0,0,0,2,.84,6.6,6.6,0,0,0,2.37-.46V74A5.29,5.29,0,0,1,390.54,74.46Z"/><path class="cls-2" d="M403.05,70a4.5,4.5,0,0,1-1.14,3.27,4.19,4.19,0,0,1-3.15,1.17,4.4,4.4,0,0,1-2.2-.54,3.55,3.55,0,0,1-1.48-1.54,5,5,0,0,1-.53-2.36,4.5,4.5,0,0,1,1.13-3.26,4.17,4.17,0,0,1,3.14-1.17,4.08,4.08,0,0,1,3.08,1.19A4.52,4.52,0,0,1,403.05,70ZM396,70a3.86,3.86,0,0,0,.71,2.5,3,3,0,0,0,4.17,0,3.78,3.78,0,0,0,.71-2.5,3.72,3.72,0,0,0-.71-2.48,3,3,0,0,0-4.18,0A3.83,3.83,0,0,0,396,70Z"/><path class="cls-2" d="M417.28,74.31V68.74a2.18,2.18,0,0,0-.47-1.54,1.9,1.9,0,0,0-1.47-.51,2.45,2.45,0,0,0-1.93.7,3.14,3.14,0,0,0-.62,2.14v4.78h-1.4V68.74a2.19,2.19,0,0,0-.48-1.54,1.9,1.9,0,0,0-1.47-.51,2.37,2.37,0,0,0-1.93.73,3.74,3.74,0,0,0-.61,2.4v4.49h-1.4V65.75h1.14l.23,1.17h.06a2.68,2.68,0,0,1,1.12-1,3.7,3.7,0,0,1,1.62-.35A2.78,2.78,0,0,1,412.5,67h.07a2.77,2.77,0,0,1,1.2-1.06,3.92,3.92,0,0,1,1.78-.39,3.31,3.31,0,0,1,2.35.74,3.2,3.2,0,0,1,.78,2.39v5.59Z"/><path class="cls-2" d="M422.88,65.75V71.3a2.08,2.08,0,0,0,.52,1.56,2.17,2.17,0,0,0,1.61.52,2.74,2.74,0,0,0,2.12-.74,3.47,3.47,0,0,0,.67-2.39v-4.5h1.4v8.56H428l-.2-1.15h-.07a2.75,2.75,0,0,1-1.2,1,4.35,4.35,0,0,1-1.74.33,3.67,3.67,0,0,1-2.52-.74,3,3,0,0,1-.84-2.37v-5.6Z"/><path class="cls-2" d="M438.49,74.31V68.77a2.12,2.12,0,0,0-.51-1.56,2.17,2.17,0,0,0-1.61-.52,2.76,2.76,0,0,0-2.13.73,3.46,3.46,0,0,0-.67,2.4v4.49h-1.4V65.75h1.14l.23,1.17h.06a2.82,2.82,0,0,1,1.21-1,4.21,4.21,0,0,1,1.73-.35,3.72,3.72,0,0,1,2.51.74,3.06,3.06,0,0,1,.84,2.39v5.59Z"/><path class="cls-2" d="M442.65,63.42a.82.82,0,0,1,.24-.65.9.9,0,0,1,.59-.2.86.86,0,0,1,.58.21.81.81,0,0,1,.25.64.85.85,0,0,1-.25.66.86.86,0,0,1-.58.21.78.78,0,0,1-.83-.87Zm1.52,10.89h-1.4V65.75h1.4Z"/><path class="cls-2" d="M450.83,74.46a4.11,4.11,0,0,1-3.1-1.14,4.45,4.45,0,0,1-1.1-3.24,4.64,4.64,0,0,1,1.11-3.32,4.21,4.21,0,0,1,3.19-1.17,6.66,6.66,0,0,1,1.33.13,5.63,5.63,0,0,1,1.05.31l-.43,1.11a6.83,6.83,0,0,0-1-.29,5.24,5.24,0,0,0-1-.11q-2.81,0-2.81,3.33a3.81,3.81,0,0,0,.68,2.42,2.49,2.49,0,0,0,2,.84,6.6,6.6,0,0,0,2.37-.46V74A5.37,5.37,0,0,1,450.83,74.46Z"/><path class="cls-2" d="M461.05,74.31l-.28-1.22h-.07a3.77,3.77,0,0,1-1.38,1.09,4.5,4.5,0,0,1-1.71.28,3.24,3.24,0,0,1-2.16-.65,2.31,2.31,0,0,1-.78-1.87c0-1.73,1.49-2.63,4.48-2.72l1.57,0v-.53a2.05,2.05,0,0,0-.47-1.48,2,2,0,0,0-1.5-.49,6.43,6.43,0,0,0-2.61.66l-.43-1a6.64,6.64,0,0,1,1.5-.54,6.93,6.93,0,0,1,1.63-.2,3.73,3.73,0,0,1,2.45.68,2.73,2.73,0,0,1,.8,2.18v5.85Zm-3.16-.92a3,3,0,0,0,2.05-.66,2.35,2.35,0,0,0,.75-1.86V70.1l-1.4.05a5.52,5.52,0,0,0-2.41.48,1.44,1.44,0,0,0-.74,1.33A1.3,1.3,0,0,0,456.6,73,2,2,0,0,0,457.89,73.39Z"/><path class="cls-2" d="M468.66,74.46a4.11,4.11,0,0,1-3.1-1.14,4.45,4.45,0,0,1-1.1-3.24,4.64,4.64,0,0,1,1.11-3.32,4.21,4.21,0,0,1,3.19-1.17,6.66,6.66,0,0,1,1.33.13,5.63,5.63,0,0,1,1.05.31l-.43,1.11a6.83,6.83,0,0,0-1-.29,5.24,5.24,0,0,0-1-.11q-2.81,0-2.81,3.33a3.81,3.81,0,0,0,.68,2.42,2.49,2.49,0,0,0,2,.84,6.6,6.6,0,0,0,2.37-.46V74A5.37,5.37,0,0,1,468.66,74.46Z"/><path class="cls-2" d="M473.08,63.42a.82.82,0,0,1,.23-.65.92.92,0,0,1,.59-.2.84.84,0,0,1,.58.21.77.77,0,0,1,.25.64.82.82,0,0,1-.25.66.84.84,0,0,1-.58.21.87.87,0,0,1-.59-.21A.84.84,0,0,1,473.08,63.42Zm1.51,10.89h-1.4V65.75h1.4Z"/><path class="cls-2" d="M485.54,70a4.5,4.5,0,0,1-1.14,3.27,4.19,4.19,0,0,1-3.14,1.17,4.4,4.4,0,0,1-2.2-.54,3.58,3.58,0,0,1-1.49-1.54,5,5,0,0,1-.52-2.36,4.46,4.46,0,0,1,1.13-3.26,4.16,4.16,0,0,1,3.14-1.17,4.08,4.08,0,0,1,3.08,1.19A4.51,4.51,0,0,1,485.54,70Zm-7,0a3.8,3.8,0,0,0,.71,2.5,2.54,2.54,0,0,0,2.08.86,2.57,2.57,0,0,0,2.09-.86,3.84,3.84,0,0,0,.71-2.5,3.78,3.78,0,0,0-.71-2.48,2.6,2.6,0,0,0-2.11-.85,2.55,2.55,0,0,0-2.07.84A3.77,3.77,0,0,0,478.5,70Zm1.62-5.6q.4-.49.87-1.17a13.79,13.79,0,0,0,.74-1.2h1.7v.16a10.29,10.29,0,0,1-1.1,1.25,11.6,11.6,0,0,1-1.28,1.15h-.93Z"/><path class="cls-2" d="M494.32,74.31V68.77a2.12,2.12,0,0,0-.51-1.56,2.18,2.18,0,0,0-1.61-.52,2.76,2.76,0,0,0-2.13.73,3.46,3.46,0,0,0-.67,2.4v4.49H488V65.75h1.13l.23,1.17h.07a2.82,2.82,0,0,1,1.21-1,4.16,4.16,0,0,1,1.72-.35,3.73,3.73,0,0,1,2.52.74,3.06,3.06,0,0,1,.84,2.39v5.59Z"/><circle class="cls-3" cx="155.97" cy="208.81" r="9.23"/><circle class="cls-3" cx="283.91" cy="160.37" r="16.01"/><circle class="cls-3" cx="459.18" cy="119.67" r="21.69"/><circle class="cls-3" cx="676.16" cy="99.25" r="25.75"/></g></g></svg>