<svg xmlns="http://www.w3.org/2000/svg" width="912.617" height="424.277" viewBox="0 0 912.617 424.277">
  <g id="Grupo_11026" data-name="Grupo 11026" transform="translate(-263.691 -5398.623)">
    <path id="Trazado_5201" data-name="Trazado 5201" d="M1176.309,5822.9H263.691v-66.332h152.1v-65.822H567.9v-64.51H720v-66H872.1v-66.025h152.1v-66.243h152.1Z" fill="#ffc82e"/>
    <g id="Grupo_11000" data-name="Grupo 11000">
      <g id="Grupo_10997" data-name="Grupo 10997">
        <g id="Grupo_10996" data-name="Grupo 10996">
          <path id="Trazado_5202" data-name="Trazado 5202" d="M307.826,5737.462H301.55v-10.094h6.276v1.754h-3.965v2.216h3.69v1.754h-3.69v2.6h3.965Z" fill="#00223d"/>
          <path id="Trazado_5203" data-name="Trazado 5203" d="M315.736,5735.17a2.068,2.068,0,0,1-.891,1.81,4.672,4.672,0,0,1-2.665.621,9.009,9.009,0,0,1-1.551-.114,6.164,6.164,0,0,1-1.2-.335v-1.74a8.337,8.337,0,0,0,1.428.463,6.164,6.164,0,0,0,1.4.186q1.238,0,1.238-.663a.532.532,0,0,0-.164-.4,2.376,2.376,0,0,0-.567-.352q-.4-.2-1.073-.459a6.919,6.919,0,0,1-1.413-.69,1.994,1.994,0,0,1-.656-.729,2.249,2.249,0,0,1-.2-1.012,1.793,1.793,0,0,1,.861-1.59,4.447,4.447,0,0,1,2.442-.564,7.358,7.358,0,0,1,2.929.609l-.686,1.518q-.625-.249-1.17-.407a3.943,3.943,0,0,0-1.111-.159q-1.006,0-1.006.5a.587.587,0,0,0,.324.49,9.1,9.1,0,0,0,1.42.614,6.874,6.874,0,0,1,1.432.684,2.08,2.08,0,0,1,.67.732A2.1,2.1,0,0,1,315.736,5735.17Z" fill="#00223d"/>
          <path id="Trazado_5204" data-name="Trazado 5204" d="M321.021,5735.923a5.267,5.267,0,0,0,1.431-.242v1.569a5.476,5.476,0,0,1-2.087.351,2.674,2.674,0,0,1-1.987-.639,2.642,2.642,0,0,1-.622-1.916v-3.722h-1.089v-.891l1.253-.7.656-1.631h1.453v1.645h2.334v1.58h-2.334v3.722a.793.793,0,0,0,.272.663A1.138,1.138,0,0,0,321.021,5735.923Z" fill="#00223d"/>
          <path id="Trazado_5205" data-name="Trazado 5205" d="M329.43,5737.462l-.44-1.048h-.06a3.319,3.319,0,0,1-1.181.928,4.076,4.076,0,0,1-1.584.259,2.681,2.681,0,0,1-1.89-.635,2.335,2.335,0,0,1-.69-1.809,1.99,1.99,0,0,1,.928-1.813,5.708,5.708,0,0,1,2.8-.645l1.447-.041v-.339q0-1.173-1.3-1.174a6.3,6.3,0,0,0-2.349.56l-.752-1.423a7.209,7.209,0,0,1,3.19-.7,4.2,4.2,0,0,1,2.572.676,2.415,2.415,0,0,1,.894,2.058v5.143Zm-.671-3.576-.88.028a2.983,2.983,0,0,0-1.476.332,1.015,1.015,0,0,0-.484.924q0,.891,1.1.891a1.83,1.83,0,0,0,1.263-.421,1.425,1.425,0,0,0,.474-1.119Z" fill="#00223d"/>
          <path id="Trazado_5206" data-name="Trazado 5206" d="M337.995,5729.6a2.771,2.771,0,0,1,2.311,1.068,4.629,4.629,0,0,1,.835,2.923,4.543,4.543,0,0,1-.862,2.962,3.16,3.16,0,0,1-4.647.063h-.157l-.38.848h-1.737v-10.744h2.274v2.5c0,.319-.03.826-.09,1.527h.09A2.689,2.689,0,0,1,337.995,5729.6Zm-.731,1.685a1.489,1.489,0,0,0-1.23.48,2.6,2.6,0,0,0-.4,1.584v.229a3.064,3.064,0,0,0,.4,1.781,1.469,1.469,0,0,0,1.264.539,1.291,1.291,0,0,0,1.115-.6,3.045,3.045,0,0,0,.413-1.736,2.883,2.883,0,0,0-.417-1.709A1.338,1.338,0,0,0,337.264,5731.283Z" fill="#00223d"/>
          <path id="Trazado_5207" data-name="Trazado 5207" d="M345.293,5737.462h-2.274v-10.744h2.274Z" fill="#00223d"/>
          <path id="Trazado_5208" data-name="Trazado 5208" d="M351.45,5737.6a4.51,4.51,0,0,1-3.146-1.029,3.734,3.734,0,0,1-1.133-2.914,4.084,4.084,0,0,1,1.048-3,3.888,3.888,0,0,1,2.9-1.06,3.84,3.84,0,0,1,2.75.933,3.375,3.375,0,0,1,.984,2.575v1.022h-5.374a1.941,1.941,0,0,0,.574,1.4,2.106,2.106,0,0,0,1.506.505,6.66,6.66,0,0,0,1.423-.146,7.3,7.3,0,0,0,1.4-.463v1.631a5.6,5.6,0,0,1-1.275.41A8.607,8.607,0,0,1,351.45,5737.6Zm-.32-6.5a1.5,1.5,0,0,0-1.133.424,1.883,1.883,0,0,0-.47,1.205h3.19a1.681,1.681,0,0,0-.439-1.205A1.552,1.552,0,0,0,351.13,5731.1Z" fill="#00223d"/>
          <path id="Trazado_5209" data-name="Trazado 5209" d="M360.082,5737.6q-3.891,0-3.891-3.957a4.027,4.027,0,0,1,1.059-3.007,4.152,4.152,0,0,1,3.034-1.039,6.17,6.17,0,0,1,2.594.525l-.671,1.629c-.358-.133-.691-.243-1-.328a3.462,3.462,0,0,0-.924-.128q-1.774,0-1.775,2.334,0,2.265,1.775,2.266a4.393,4.393,0,0,0,1.215-.162,4.556,4.556,0,0,0,1.118-.508v1.8a3.8,3.8,0,0,1-1.115.448A6.664,6.664,0,0,1,360.082,5737.6Z" fill="#00223d"/>
          <path id="Trazado_5210" data-name="Trazado 5210" d="M368.32,5737.6a4.508,4.508,0,0,1-3.146-1.029,3.73,3.73,0,0,1-1.133-2.914,4.088,4.088,0,0,1,1.047-3,3.89,3.89,0,0,1,2.9-1.06,3.841,3.841,0,0,1,2.751.933,3.375,3.375,0,0,1,.984,2.575v1.022h-5.375a1.945,1.945,0,0,0,.574,1.4,2.11,2.11,0,0,0,1.506.505,6.669,6.669,0,0,0,1.424-.146,7.293,7.293,0,0,0,1.4-.463v1.631a5.573,5.573,0,0,1-1.274.41A8.614,8.614,0,0,1,368.32,5737.6Zm-.321-6.5a1.5,1.5,0,0,0-1.133.424,1.888,1.888,0,0,0-.47,1.205h3.191a1.681,1.681,0,0,0-.44-1.205A1.551,1.551,0,0,0,368,5731.1Z" fill="#00223d"/>
          <path id="Trazado_5211" data-name="Trazado 5211" d="M378.219,5729.6a3.989,3.989,0,0,1,.768.062l-.171,1.975a2.814,2.814,0,0,0-.671-.069,2.535,2.535,0,0,0-1.7.518,1.8,1.8,0,0,0-.608,1.451v3.927h-2.273v-7.718h1.722l.335,1.3h.112a2.976,2.976,0,0,1,1.047-1.046A2.72,2.72,0,0,1,378.219,5729.6Z" fill="#00223d"/>
        </g>
      </g>
      <g id="Grupo_10999" data-name="Grupo 10999">
        <g id="Grupo_10998" data-name="Grupo 10998">
          <path id="Trazado_5212" data-name="Trazado 5212" d="M317.021,5780.94a5.524,5.524,0,0,1-1.657,4.324,6.886,6.886,0,0,1-4.77,1.5h-3.416v-11.422h3.779a6.334,6.334,0,0,1,4.47,1.477A5.342,5.342,0,0,1,317.021,5780.94Zm-1.518.047a4.393,4.393,0,0,0-1.211-3.367,5.089,5.089,0,0,0-3.6-1.133h-2.083v9.125h1.746a5.579,5.579,0,0,0,3.854-1.168A4.423,4.423,0,0,0,315.5,5780.987Z" fill="#00223d"/>
          <path id="Trazado_5213" data-name="Trazado 5213" d="M323.465,5786.917a4.433,4.433,0,0,1-3.235-1.157,4.277,4.277,0,0,1-1.185-3.211,4.724,4.724,0,0,1,1.1-3.289,3.789,3.789,0,0,1,2.956-1.218,3.625,3.625,0,0,1,2.75,1.058,3.877,3.877,0,0,1,1.012,2.793v.82H320.5a3.239,3.239,0,0,0,.822,2.289,2.969,2.969,0,0,0,2.2.782,7.962,7.962,0,0,0,2.952-.578v1.156a7.823,7.823,0,0,1-1.4.426A8.5,8.5,0,0,1,323.465,5786.917Zm-.38-7.79a2.379,2.379,0,0,0-1.775.672,2.973,2.973,0,0,0-.78,1.86h4.833a2.7,2.7,0,0,0-.591-1.879A2.161,2.161,0,0,0,323.085,5779.127Z" fill="#00223d"/>
          <path id="Trazado_5214" data-name="Trazado 5214" d="M332.945,5786.917a4.11,4.11,0,0,1-3.108-1.145,4.483,4.483,0,0,1-1.1-3.238,4.624,4.624,0,0,1,1.118-3.321,4.192,4.192,0,0,1,3.184-1.171,6.769,6.769,0,0,1,1.332.132,4.675,4.675,0,0,1,1.046.313l-.43,1.1a6.985,6.985,0,0,0-1.012-.285,4.891,4.891,0,0,0-.97-.113q-2.817,0-2.817,3.328a3.751,3.751,0,0,0,.687,2.422,2.477,2.477,0,0,0,2.037.844,6.669,6.669,0,0,0,2.37-.461v1.148A5.39,5.39,0,0,1,332.945,5786.917Z" fill="#00223d"/>
          <path id="Trazado_5215" data-name="Trazado 5215" d="M337.356,5775.877a.825.825,0,0,1,.236-.652.927.927,0,0,1,1.173,0,.81.81,0,0,1,.244.648.824.824,0,0,1-.244.653.857.857,0,0,1-.582.215.781.781,0,0,1-.827-.868Zm1.518,10.883h-1.4V5778.2h1.4Z" fill="#00223d"/>
          <path id="Trazado_5216" data-name="Trazado 5216" d="M347.806,5784.424a2.1,2.1,0,0,1-.961,1.844,4.788,4.788,0,0,1-2.7.649,6.258,6.258,0,0,1-2.868-.54v-1.2a7.4,7.4,0,0,0,1.43.493,6.389,6.389,0,0,0,1.471.179,3.566,3.566,0,0,0,1.687-.324,1.071,1.071,0,0,0,.122-1.844,7.62,7.62,0,0,0-1.826-.84,10.172,10.172,0,0,1-1.834-.777,2.428,2.428,0,0,1-.81-.754,1.853,1.853,0,0,1-.265-1.008,1.881,1.881,0,0,1,.919-1.652,4.551,4.551,0,0,1,2.522-.6,7.883,7.883,0,0,1,2.918.562l-.5,1.055a7.13,7.13,0,0,0-2.521-.532,3.094,3.094,0,0,0-1.5.29.884.884,0,0,0-.506.8.921.921,0,0,0,.19.586,1.835,1.835,0,0,0,.612.461,14.109,14.109,0,0,0,1.619.633,6.2,6.2,0,0,1,2.222,1.117A1.893,1.893,0,0,1,347.806,5784.424Z" fill="#00223d"/>
          <path id="Trazado_5217" data-name="Trazado 5217" d="M349.965,5775.877a.825.825,0,0,1,.236-.652.927.927,0,0,1,1.173,0,.81.81,0,0,1,.244.648.824.824,0,0,1-.244.653.906.906,0,0,1-1.173,0A.842.842,0,0,1,349.965,5775.877Zm1.518,10.883h-1.4V5778.2h1.4Z" fill="#00223d"/>
          <path id="Trazado_5218" data-name="Trazado 5218" d="M362.431,5782.471a4.506,4.506,0,0,1-1.139,3.27,4.175,4.175,0,0,1-3.146,1.176,4.42,4.42,0,0,1-2.2-.54,3.661,3.661,0,0,1-1.484-1.546,5.05,5.05,0,0,1-.523-2.36,4.492,4.492,0,0,1,1.13-3.261,4.16,4.16,0,0,1,3.137-1.168,4.064,4.064,0,0,1,3.083,1.195A4.486,4.486,0,0,1,362.431,5782.471Zm-7.043,0a3.847,3.847,0,0,0,.709,2.5,2.964,2.964,0,0,0,4.171,0,3.827,3.827,0,0,0,.712-2.5,3.763,3.763,0,0,0-.712-2.48,2.592,2.592,0,0,0-2.105-.848,2.551,2.551,0,0,0-2.075.836A3.811,3.811,0,0,0,355.388,5782.471Zm1.62-5.6q.405-.486.873-1.172a13.129,13.129,0,0,0,.738-1.2h1.7v.165a11.83,11.83,0,0,1-1.1,1.25,12.112,12.112,0,0,1-1.273,1.148h-.936Z" fill="#00223d"/>
          <path id="Trazado_5219" data-name="Trazado 5219" d="M371.211,5786.76v-5.539a2.124,2.124,0,0,0-.514-1.562,2.194,2.194,0,0,0-1.611-.516,2.772,2.772,0,0,0-2.126.727,3.47,3.47,0,0,0-.675,2.4v4.492h-1.4V5778.2h1.139l.228,1.172h.067a2.807,2.807,0,0,1,1.206-.981,4.2,4.2,0,0,1,1.729-.347,3.7,3.7,0,0,1,2.514.746,3.034,3.034,0,0,1,.843,2.386v5.586Z" fill="#00223d"/>
          <path id="Trazado_5220" data-name="Trazado 5220" d="M312.26,5795.777v.82l-1.712.188a2.631,2.631,0,0,1,.421.715,2.537,2.537,0,0,1,.186,1,2.447,2.447,0,0,1-.928,2.007,3.941,3.941,0,0,1-2.547.75,4.638,4.638,0,0,1-.776-.062q-.894.437-.894,1.1a.552.552,0,0,0,.312.519,2.455,2.455,0,0,0,1.071.168h1.636a3.876,3.876,0,0,1,2.307.586,1.974,1.974,0,0,1,.806,1.7,2.391,2.391,0,0,1-1.232,2.168,7.029,7.029,0,0,1-3.593.746,5.223,5.223,0,0,1-2.8-.625,1.981,1.981,0,0,1-.982-1.765,1.9,1.9,0,0,1,.54-1.352,2.791,2.791,0,0,1,1.518-.773,1.457,1.457,0,0,1-.595-.461,1.164,1.164,0,0,1-.24-.727,1.307,1.307,0,0,1,.27-.82,2.761,2.761,0,0,1,.851-.68,2.458,2.458,0,0,1-1.168-.93,2.588,2.588,0,0,1-.451-1.5,2.67,2.67,0,0,1,.911-2.168,3.921,3.921,0,0,1,2.581-.761,5.011,5.011,0,0,1,1.307.156Zm-7.372,10a1.149,1.149,0,0,0,.633,1.055,3.74,3.74,0,0,0,1.813.359,5.426,5.426,0,0,0,2.611-.488,1.483,1.483,0,0,0,.847-1.325,1.016,1.016,0,0,0-.464-.964,3.845,3.845,0,0,0-1.746-.27H306.9a2.333,2.333,0,0,0-1.484.422A1.453,1.453,0,0,0,304.888,5805.777Zm.759-7.258a1.673,1.673,0,0,0,.549,1.359,2.3,2.3,0,0,0,1.526.461q2.049,0,2.05-1.843,0-1.931-2.075-1.93a2.152,2.152,0,0,0-1.518.492A1.893,1.893,0,0,0,305.647,5798.519Z" fill="#00223d"/>
          <path id="Trazado_5221" data-name="Trazado 5221" d="M318.063,5804.5a4.433,4.433,0,0,1-3.235-1.157,4.279,4.279,0,0,1-1.185-3.211,4.724,4.724,0,0,1,1.1-3.289,3.786,3.786,0,0,1,2.956-1.218,3.621,3.621,0,0,1,2.749,1.058,3.871,3.871,0,0,1,1.013,2.793v.821h-6.368a3.245,3.245,0,0,0,.822,2.289,2.972,2.972,0,0,0,2.2.781,7.989,7.989,0,0,0,2.952-.578v1.156a7.944,7.944,0,0,1-1.4.426A8.5,8.5,0,0,1,318.063,5804.5Zm-.38-7.789a2.379,2.379,0,0,0-1.775.671,2.975,2.975,0,0,0-.781,1.86h4.833a2.707,2.707,0,0,0-.59-1.879A2.155,2.155,0,0,0,317.683,5796.707Z" fill="#00223d"/>
          <path id="Trazado_5222" data-name="Trazado 5222" d="M328.066,5795.621a5.959,5.959,0,0,1,1.1.093l-.194,1.2a5.074,5.074,0,0,0-1.013-.118,2.547,2.547,0,0,0-1.918.844,2.94,2.94,0,0,0-.8,2.1v4.593h-1.4v-8.562H325l.16,1.586h.068a3.868,3.868,0,0,1,1.24-1.289A2.939,2.939,0,0,1,328.066,5795.621Z" fill="#00223d"/>
          <path id="Trazado_5223" data-name="Trazado 5223" d="M334.8,5804.5a4.433,4.433,0,0,1-3.235-1.157,4.279,4.279,0,0,1-1.185-3.211,4.724,4.724,0,0,1,1.1-3.289,3.788,3.788,0,0,1,2.956-1.218,3.621,3.621,0,0,1,2.749,1.058,3.871,3.871,0,0,1,1.013,2.793v.821h-6.368a3.245,3.245,0,0,0,.822,2.289,2.972,2.972,0,0,0,2.2.781,7.985,7.985,0,0,0,2.952-.578v1.156a7.944,7.944,0,0,1-1.4.426A8.5,8.5,0,0,1,334.8,5804.5Zm-.38-7.789a2.379,2.379,0,0,0-1.775.671,2.976,2.976,0,0,0-.781,1.86H336.7a2.707,2.707,0,0,0-.59-1.879A2.155,2.155,0,0,0,334.425,5796.707Z" fill="#00223d"/>
          <path id="Trazado_5224" data-name="Trazado 5224" d="M346.916,5804.339V5798.8a2.127,2.127,0,0,0-.514-1.562,2.2,2.2,0,0,0-1.611-.516,2.773,2.773,0,0,0-2.126.727,3.474,3.474,0,0,0-.674,2.4v4.492h-1.4v-8.562h1.138l.228,1.172h.067a2.805,2.805,0,0,1,1.207-.981,4.176,4.176,0,0,1,1.729-.347,3.689,3.689,0,0,1,2.513.746,3.033,3.033,0,0,1,.843,2.386v5.586Z" fill="#00223d"/>
          <path id="Trazado_5225" data-name="Trazado 5225" d="M354.887,5804.5a4.11,4.11,0,0,1-3.108-1.145,4.486,4.486,0,0,1-1.1-3.238,4.615,4.615,0,0,1,1.118-3.32,4.189,4.189,0,0,1,3.184-1.172,6.844,6.844,0,0,1,1.332.132,4.591,4.591,0,0,1,1.046.313l-.43,1.1a6.9,6.9,0,0,0-1.012-.286,4.851,4.851,0,0,0-.97-.113q-2.817,0-2.817,3.328a3.749,3.749,0,0,0,.687,2.422,2.471,2.471,0,0,0,2.037.844,6.662,6.662,0,0,0,2.37-.461v1.148A5.385,5.385,0,0,1,354.887,5804.5Z" fill="#00223d"/>
          <path id="Trazado_5226" data-name="Trazado 5226" d="M359.3,5793.457a.826.826,0,0,1,.236-.653.926.926,0,0,1,1.172,0,.812.812,0,0,1,.245.649.824.824,0,0,1-.245.652.854.854,0,0,1-.582.215.781.781,0,0,1-.826-.867Zm1.518,10.882h-1.4v-8.562h1.4Z" fill="#00223d"/>
          <path id="Trazado_5227" data-name="Trazado 5227" d="M369.47,5804.339l-.279-1.218h-.067a3.832,3.832,0,0,1-1.379,1.089,4.507,4.507,0,0,1-1.717.286,3.247,3.247,0,0,1-2.155-.657,2.3,2.3,0,0,1-.78-1.867q0-2.594,4.479-2.719l1.569-.046v-.532a2.061,2.061,0,0,0-.468-1.488,2.021,2.021,0,0,0-1.5-.48,6.474,6.474,0,0,0-2.614.656l-.43-.992a6.775,6.775,0,0,1,1.5-.539,6.931,6.931,0,0,1,1.632-.2,3.712,3.712,0,0,1,2.45.68,2.718,2.718,0,0,1,.8,2.18v5.843Zm-3.163-.914a2.982,2.982,0,0,0,2.054-.664,2.361,2.361,0,0,0,.746-1.859v-.774l-1.4.055a5.406,5.406,0,0,0-2.408.481,1.42,1.42,0,0,0-.738,1.324,1.287,1.287,0,0,0,.46,1.07A2.017,2.017,0,0,0,366.307,5803.425Z" fill="#00223d"/>
          <path id="Trazado_5228" data-name="Trazado 5228" d="M374.792,5804.339h-1.4v-12.156h1.4Z" fill="#00223d"/>
        </g>
      </g>
    </g>
    <g id="Grupo_11005" data-name="Grupo 11005">
      <g id="Grupo_11002" data-name="Grupo 11002">
        <g id="Grupo_11001" data-name="Grupo 11001">
          <path id="Trazado_5229" data-name="Trazado 5229" d="M454.529,5666.5a4.776,4.776,0,0,1-1.532,3.818,6.568,6.568,0,0,1-4.424,1.325h-3.087v-10.1h3.422a6.045,6.045,0,0,1,4.145,1.306A4.61,4.61,0,0,1,454.529,5666.5Zm-2.4.055q0-3.252-3.1-3.253H447.8v6.574h.992Q452.128,5669.873,452.128,5666.552Z" fill="#00223d"/>
          <path id="Trazado_5230" data-name="Trazado 5230" d="M464.182,5667.767a3.961,3.961,0,0,1-1.073,2.948,4.063,4.063,0,0,1-2.989,1.064,4.447,4.447,0,0,1-2.117-.486,3.36,3.36,0,0,1-1.409-1.4,4.407,4.407,0,0,1-.492-2.127,3.936,3.936,0,0,1,1.066-2.941,4.089,4.089,0,0,1,3-1.05,4.478,4.478,0,0,1,2.117.483,3.346,3.346,0,0,1,1.409,1.388A4.374,4.374,0,0,1,464.182,5667.767Zm-5.762,0a3.046,3.046,0,0,0,.406,1.733,1.492,1.492,0,0,0,1.323.587,1.47,1.47,0,0,0,1.309-.584,3.09,3.09,0,0,0,.4-1.736,3,3,0,0,0-.4-1.719,1.8,1.8,0,0,0-2.631,0A2.99,2.99,0,0,0,458.42,5667.767Z" fill="#00223d"/>
          <path id="Trazado_5231" data-name="Trazado 5231" d="M469.445,5671.779q-3.891,0-3.891-3.957a4.024,4.024,0,0,1,1.059-3.007,4.152,4.152,0,0,1,3.033-1.039,6.194,6.194,0,0,1,2.6.524l-.671,1.63q-.537-.2-1-.328a3.464,3.464,0,0,0-.925-.128q-1.773,0-1.774,2.334,0,2.265,1.774,2.266a4.4,4.4,0,0,0,1.216-.162,4.65,4.65,0,0,0,1.118-.508v1.8a3.845,3.845,0,0,1-1.115.448A6.664,6.664,0,0,1,469.445,5671.779Z" fill="#00223d"/>
          <path id="Trazado_5232" data-name="Trazado 5232" d="M479.814,5671.64l-.3-.986h-.12a2.352,2.352,0,0,1-1.036.832,3.781,3.781,0,0,1-1.528.293,3.04,3.04,0,0,1-2.214-.729,2.8,2.8,0,0,1-.745-2.095v-5.034h2.273v4.508a2.041,2.041,0,0,0,.321,1.254,1.208,1.208,0,0,0,1.021.418,1.582,1.582,0,0,0,1.379-.591,3.431,3.431,0,0,0,.425-1.958v-3.631h2.274v7.719Z" fill="#00223d"/>
          <path id="Trazado_5233" data-name="Trazado 5233" d="M491.406,5671.64h-2.274v-4.508a2.147,2.147,0,0,0-.3-1.254,1.1,1.1,0,0,0-.951-.418,1.413,1.413,0,0,0-1.267.594,3.651,3.651,0,0,0-.4,1.955v3.631h-2.274v-7.719h1.737l.306.987h.126a2.261,2.261,0,0,1,.969-.832,3.373,3.373,0,0,1,1.454-.3,2.689,2.689,0,0,1,2.535,1.132h.2a2.195,2.195,0,0,1,.988-.835,3.505,3.505,0,0,1,1.472-.3,3.053,3.053,0,0,1,2.143.673,2.817,2.817,0,0,1,.727,2.158v5.033h-2.281v-4.508a2.147,2.147,0,0,0-.3-1.254,1.1,1.1,0,0,0-.951-.418,1.46,1.46,0,0,0-1.248.553,2.946,2.946,0,0,0-.414,1.754Z" fill="#00223d"/>
          <path id="Trazado_5234" data-name="Trazado 5234" d="M502.707,5671.779a4.509,4.509,0,0,1-3.146-1.029,3.738,3.738,0,0,1-1.133-2.915,4.088,4.088,0,0,1,1.048-3,3.888,3.888,0,0,1,2.9-1.059,3.834,3.834,0,0,1,2.75.933,3.375,3.375,0,0,1,.984,2.575v1.022h-5.374a1.942,1.942,0,0,0,.574,1.4,2.111,2.111,0,0,0,1.505.5,6.632,6.632,0,0,0,1.424-.145,7.367,7.367,0,0,0,1.4-.463v1.631a5.647,5.647,0,0,1-1.275.41A8.65,8.65,0,0,1,502.707,5671.779Zm-.32-6.5a1.5,1.5,0,0,0-1.134.424,1.883,1.883,0,0,0-.469,1.2h3.19a1.673,1.673,0,0,0-.44-1.2A1.55,1.55,0,0,0,502.387,5665.275Z" fill="#00223d"/>
          <path id="Trazado_5235" data-name="Trazado 5235" d="M515.648,5671.64h-2.274v-4.508a2.047,2.047,0,0,0-.32-1.254,1.208,1.208,0,0,0-1.021-.418,1.584,1.584,0,0,0-1.379.591,3.435,3.435,0,0,0-.425,1.958v3.631h-2.274v-7.719h1.737l.306.987h.126a2.366,2.366,0,0,1,1.048-.846,3.826,3.826,0,0,1,1.517-.286,3.054,3.054,0,0,1,2.206.728,2.794,2.794,0,0,1,.753,2.1Z" fill="#00223d"/>
          <path id="Trazado_5236" data-name="Trazado 5236" d="M521.5,5670.1a5.252,5.252,0,0,0,1.431-.242v1.568a5.451,5.451,0,0,1-2.087.352,2.676,2.676,0,0,1-1.987-.639,2.644,2.644,0,0,1-.622-1.916V5665.5h-1.089v-.891l1.253-.7.656-1.631h1.453v1.644h2.334v1.581h-2.334v3.722a.791.791,0,0,0,.272.662A1.135,1.135,0,0,0,521.5,5670.1Z" fill="#00223d"/>
          <path id="Trazado_5237" data-name="Trazado 5237" d="M529.908,5671.64l-.439-1.049h-.06a3.31,3.31,0,0,1-1.182.929,4.083,4.083,0,0,1-1.584.259,2.682,2.682,0,0,1-1.889-.635,2.337,2.337,0,0,1-.69-1.809,1.989,1.989,0,0,1,.928-1.813,5.7,5.7,0,0,1,2.8-.645l1.447-.042v-.338q0-1.175-1.3-1.174a6.288,6.288,0,0,0-2.349.559l-.753-1.422a7.22,7.22,0,0,1,3.191-.7,4.2,4.2,0,0,1,2.572.677,2.416,2.416,0,0,1,.894,2.058v5.143Zm-.67-3.576-.88.027a3,3,0,0,0-1.476.332,1.019,1.019,0,0,0-.485.925q0,.891,1.1.891a1.827,1.827,0,0,0,1.263-.421,1.423,1.423,0,0,0,.474-1.119Z" fill="#00223d"/>
          <path id="Trazado_5238" data-name="Trazado 5238" d="M538.489,5663.776a3.98,3.98,0,0,1,.767.061l-.171,1.976a2.814,2.814,0,0,0-.671-.069,2.539,2.539,0,0,0-1.7.517,1.8,1.8,0,0,0-.607,1.451v3.928h-2.274v-7.719h1.722l.335,1.3h.112a3.009,3.009,0,0,1,1.048-1.046A2.73,2.73,0,0,1,538.489,5663.776Z" fill="#00223d"/>
        </g>
      </g>
      <g id="Grupo_11004" data-name="Grupo 11004">
        <g id="Grupo_11003" data-name="Grupo 11003">
          <path id="Trazado_5239" data-name="Trazado 5239" d="M444.3,5715.117a5.525,5.525,0,0,1-1.657,4.324,6.882,6.882,0,0,1-4.77,1.5h-3.415v-11.422h3.778a6.326,6.326,0,0,1,4.47,1.477A5.342,5.342,0,0,1,444.3,5715.117Zm-1.518.047a4.4,4.4,0,0,0-1.21-3.368,5.1,5.1,0,0,0-3.6-1.132h-2.084v9.125h1.746a5.582,5.582,0,0,0,3.855-1.168A4.429,4.429,0,0,0,442.779,5715.164Z" fill="#00223d"/>
          <path id="Trazado_5240" data-name="Trazado 5240" d="M446.718,5710.054a.826.826,0,0,1,.236-.652.927.927,0,0,1,1.173,0,.811.811,0,0,1,.244.648.823.823,0,0,1-.244.653.856.856,0,0,1-.582.214.779.779,0,0,1-.827-.867Zm1.518,10.883h-1.4v-8.562h1.4Z" fill="#00223d"/>
          <path id="Trazado_5241" data-name="Trazado 5241" d="M457.168,5718.6a2.093,2.093,0,0,1-.961,1.844,4.8,4.8,0,0,1-2.7.648,6.259,6.259,0,0,1-2.868-.539v-1.2a7.171,7.171,0,0,0,1.43.492,6.392,6.392,0,0,0,1.471.18,3.552,3.552,0,0,0,1.687-.324,1.072,1.072,0,0,0,.123-1.844,7.636,7.636,0,0,0-1.827-.84,10.274,10.274,0,0,1-1.834-.777,2.409,2.409,0,0,1-.81-.754,1.851,1.851,0,0,1-.265-1.008,1.883,1.883,0,0,1,.919-1.652,4.54,4.54,0,0,1,2.522-.606,7.885,7.885,0,0,1,2.918.563l-.5,1.054a7.178,7.178,0,0,0-2.522-.531,3.108,3.108,0,0,0-1.5.289.888.888,0,0,0-.506.8.922.922,0,0,0,.19.586,1.829,1.829,0,0,0,.612.461,13.948,13.948,0,0,0,1.619.633,6.2,6.2,0,0,1,2.222,1.117A1.893,1.893,0,0,1,457.168,5718.6Z" fill="#00223d"/>
          <path id="Trazado_5242" data-name="Trazado 5242" d="M463.35,5721.093a4.427,4.427,0,0,1-3.234-1.156,4.278,4.278,0,0,1-1.185-3.211,4.723,4.723,0,0,1,1.1-3.289,3.787,3.787,0,0,1,2.956-1.219,3.625,3.625,0,0,1,2.749,1.059,3.873,3.873,0,0,1,1.012,2.793v.82h-6.367a3.238,3.238,0,0,0,.822,2.289,2.963,2.963,0,0,0,2.2.781,7.94,7.94,0,0,0,2.952-.578v1.157a7.851,7.851,0,0,1-1.4.425A8.509,8.509,0,0,1,463.35,5721.093Zm-.379-7.789a2.385,2.385,0,0,0-1.776.672,2.979,2.979,0,0,0-.78,1.859h4.833a2.709,2.709,0,0,0-.59-1.878A2.159,2.159,0,0,0,462.971,5713.3Z" fill="#00223d"/>
          <path id="Trazado_5243" data-name="Trazado 5243" d="M475.462,5720.937V5715.4a2.135,2.135,0,0,0-.514-1.563,2.2,2.2,0,0,0-1.611-.515,2.777,2.777,0,0,0-2.126.726,3.475,3.475,0,0,0-.675,2.4v4.492h-1.4v-8.562h1.139l.228,1.171h.067a2.812,2.812,0,0,1,1.206-.98,4.2,4.2,0,0,1,1.729-.348,3.7,3.7,0,0,1,2.514.746,3.037,3.037,0,0,1,.843,2.387v5.586Zm-1.046-9.711a1.818,1.818,0,0,1-.708-.144c-.231-.1-.457-.2-.679-.321s-.436-.223-.641-.32a1.412,1.412,0,0,0-.6-.145.825.825,0,0,0-.637.235,1.627,1.627,0,0,0-.333.711H470a2.594,2.594,0,0,1,.594-1.481,1.616,1.616,0,0,1,1.253-.535,2.01,2.01,0,0,1,.75.145,6.755,6.755,0,0,1,.692.32c.219.117.43.225.633.32a1.33,1.33,0,0,0,.573.145.772.772,0,0,0,.616-.231,1.757,1.757,0,0,0,.329-.715h.835a2.624,2.624,0,0,1-.586,1.481A1.617,1.617,0,0,1,474.416,5711.226Z" fill="#00223d"/>
          <path id="Trazado_5244" data-name="Trazado 5244" d="M485.423,5720.937l-.278-1.219h-.068a3.817,3.817,0,0,1-1.379,1.09,4.5,4.5,0,0,1-1.716.285,3.243,3.243,0,0,1-2.155-.656,2.3,2.3,0,0,1-.78-1.867q0-2.594,4.478-2.719l1.569-.047v-.531a2.061,2.061,0,0,0-.468-1.488,2.012,2.012,0,0,0-1.5-.481,6.49,6.49,0,0,0-2.615.656l-.43-.992a7.045,7.045,0,0,1,1.5-.539,6.968,6.968,0,0,1,1.632-.2,3.707,3.707,0,0,1,2.45.68,2.711,2.711,0,0,1,.8,2.179v5.844Zm-3.163-.914a2.98,2.98,0,0,0,2.054-.664,2.36,2.36,0,0,0,.746-1.859v-.774l-1.4.055a5.448,5.448,0,0,0-2.408.48,1.423,1.423,0,0,0-.738,1.324,1.286,1.286,0,0,0,.46,1.071A2.008,2.008,0,0,0,482.26,5720.023Z" fill="#00223d"/>
          <path id="Trazado_5245" data-name="Trazado 5245" d="M493.562,5712.218a5.944,5.944,0,0,1,1.1.094l-.194,1.2a5.13,5.13,0,0,0-1.012-.117,2.544,2.544,0,0,0-1.919.844,2.941,2.941,0,0,0-.8,2.1v4.594h-1.4v-8.562H490.5l.161,1.585h.067a3.9,3.9,0,0,1,1.24-1.289A2.962,2.962,0,0,1,493.562,5712.218Z" fill="#00223d"/>
          <path id="Trazado_5246" data-name="Trazado 5246" d="M504.788,5721.093a4.427,4.427,0,0,1-3.234-1.156,4.278,4.278,0,0,1-1.185-3.211,4.723,4.723,0,0,1,1.1-3.289,3.789,3.789,0,0,1,2.956-1.219,3.627,3.627,0,0,1,2.75,1.059,3.873,3.873,0,0,1,1.012,2.793v.82h-6.368a3.234,3.234,0,0,0,.823,2.289,2.963,2.963,0,0,0,2.2.781,7.94,7.94,0,0,0,2.952-.578v1.157a7.835,7.835,0,0,1-1.4.425A8.5,8.5,0,0,1,504.788,5721.093Zm-.379-7.789a2.383,2.383,0,0,0-1.776.672,2.979,2.979,0,0,0-.78,1.859h4.833a2.7,2.7,0,0,0-.591-1.878A2.157,2.157,0,0,0,504.409,5713.3Z" fill="#00223d"/>
          <path id="Trazado_5247" data-name="Trazado 5247" d="M511.974,5720.937h-1.4v-12.156h1.4Z" fill="#00223d"/>
          <path id="Trazado_5248" data-name="Trazado 5248" d="M526.6,5717.9a2.728,2.728,0,0,1-1.18,2.352,5.423,5.423,0,0,1-3.206.843,8.59,8.59,0,0,1-3.373-.523v-1.281a9.352,9.352,0,0,0,1.653.468,9.23,9.23,0,0,0,1.771.172,3.786,3.786,0,0,0,2.159-.5,1.61,1.61,0,0,0,.726-1.4,1.7,1.7,0,0,0-.258-.973,2.344,2.344,0,0,0-.86-.7,12.645,12.645,0,0,0-1.834-.726,5.952,5.952,0,0,1-2.459-1.352,2.847,2.847,0,0,1-.738-2.039,2.473,2.473,0,0,1,1.071-2.1,4.708,4.708,0,0,1,2.834-.781,8.94,8.94,0,0,1,3.382.625l-.447,1.156a8.18,8.18,0,0,0-2.969-.593,3.038,3.038,0,0,0-1.779.453,1.452,1.452,0,0,0-.641,1.258,1.8,1.8,0,0,0,.236.972,2.153,2.153,0,0,0,.8.7,10.421,10.421,0,0,0,1.716.7,6.943,6.943,0,0,1,2.67,1.375A2.589,2.589,0,0,1,526.6,5717.9Z" fill="#00223d"/>
          <path id="Trazado_5249" data-name="Trazado 5249" d="M534.544,5714.953h4.192v5.554a14.114,14.114,0,0,1-1.99.438,16.474,16.474,0,0,1-2.345.148,5.929,5.929,0,0,1-4.361-1.543,5.805,5.805,0,0,1-1.56-4.324,6.141,6.141,0,0,1,.772-3.121,5.047,5.047,0,0,1,2.222-2.047,7.677,7.677,0,0,1,3.4-.707,9.96,9.96,0,0,1,3.678.672l-.557,1.172a8.758,8.758,0,0,0-3.213-.656,4.8,4.8,0,0,0-3.517,1.242,4.606,4.606,0,0,0-1.266,3.445,4.7,4.7,0,0,0,1.219,3.508,4.91,4.91,0,0,0,3.58,1.2,11.451,11.451,0,0,0,2.505-.273v-3.516h-2.758Z" fill="#00223d"/>
          <path id="Trazado_5250" data-name="Trazado 5250" d="M549.448,5720.937l-1.535-3.633H542.97l-1.518,3.633H540l4.875-11.469h1.207l4.849,11.469Zm-1.982-4.828-1.434-3.539q-.279-.67-.574-1.649a13.751,13.751,0,0,1-.531,1.649l-1.451,3.539Z" fill="#00223d"/>
        </g>
      </g>
    </g>
    <g id="Grupo_11010" data-name="Grupo 11010">
      <g id="Grupo_11007" data-name="Grupo 11007">
        <g id="Grupo_11006" data-name="Grupo 11006">
          <path id="Trazado_5251" data-name="Trazado 5251" d="M595.215,5607.13v-10.095h2.311v10.095Z" fill="#00223d"/>
          <path id="Trazado_5252" data-name="Trazado 5252" d="M607.552,5607.13h-2.274v-4.509a2.138,2.138,0,0,0-.3-1.253,1.093,1.093,0,0,0-.951-.417,1.41,1.41,0,0,0-1.267.593,3.646,3.646,0,0,0-.395,1.954v3.632H600.09v-7.72h1.737l.306.988h.126a2.245,2.245,0,0,1,.969-.832,3.352,3.352,0,0,1,1.454-.3,2.686,2.686,0,0,1,2.535,1.133h.2a2.2,2.2,0,0,1,.988-.836,3.528,3.528,0,0,1,1.472-.3,3.051,3.051,0,0,1,2.143.674,2.815,2.815,0,0,1,.727,2.157v5.034h-2.281v-4.509a2.137,2.137,0,0,0-.3-1.253,1.091,1.091,0,0,0-.951-.417,1.459,1.459,0,0,0-1.248.551,2.951,2.951,0,0,0-.414,1.754Z" fill="#00223d"/>
          <path id="Trazado_5253" data-name="Trazado 5253" d="M619.658,5607.268a2.853,2.853,0,0,1-2.3-.987h-.12q.12.966.12,1.119v3.127h-2.274V5599.41h1.849l.32,1h.1a2.691,2.691,0,0,1,2.363-1.147,2.782,2.782,0,0,1,2.311,1.057,4.622,4.622,0,0,1,.835,2.934,5.415,5.415,0,0,1-.392,2.148,2.9,2.9,0,0,1-2.814,1.864Zm-.671-6.317a1.491,1.491,0,0,0-1.23.478,2.609,2.609,0,0,0-.4,1.586v.227a3.063,3.063,0,0,0,.4,1.782,1.472,1.472,0,0,0,1.264.538q1.528,0,1.528-2.334a3.134,3.134,0,0,0-.376-1.709A1.316,1.316,0,0,0,618.987,5600.951Z" fill="#00223d"/>
          <path id="Trazado_5254" data-name="Trazado 5254" d="M627.016,5607.13h-2.274v-10.744h2.274Z" fill="#00223d"/>
          <path id="Trazado_5255" data-name="Trazado 5255" d="M633.173,5607.268a4.516,4.516,0,0,1-3.146-1.028,3.74,3.74,0,0,1-1.133-2.914,4.081,4.081,0,0,1,1.048-3,3.885,3.885,0,0,1,2.9-1.061,3.844,3.844,0,0,1,2.75.932,3.379,3.379,0,0,1,.984,2.576v1.021H631.2a1.944,1.944,0,0,0,.574,1.4,2.111,2.111,0,0,0,1.506.5,6.788,6.788,0,0,0,1.423-.145,7.559,7.559,0,0,0,1.4-.463v1.629a5.6,5.6,0,0,1-1.275.411A8.608,8.608,0,0,1,633.173,5607.268Zm-.32-6.5a1.5,1.5,0,0,0-1.133.425,1.881,1.881,0,0,0-.47,1.205h3.19a1.679,1.679,0,0,0-.439-1.205A1.556,1.556,0,0,0,632.853,5600.763Z" fill="#00223d"/>
          <path id="Trazado_5256" data-name="Trazado 5256" d="M645.883,5607.13h-2.274v-4.509a2.13,2.13,0,0,0-.3-1.253,1.09,1.09,0,0,0-.95-.417,1.409,1.409,0,0,0-1.267.593,3.646,3.646,0,0,0-.4,1.954v3.632h-2.274v-7.72h1.737l.306.988h.126a2.245,2.245,0,0,1,.969-.832,3.352,3.352,0,0,1,1.454-.3,2.686,2.686,0,0,1,2.535,1.133h.2a2.194,2.194,0,0,1,.988-.836,3.528,3.528,0,0,1,1.472-.3,3.051,3.051,0,0,1,2.143.674,2.819,2.819,0,0,1,.727,2.157v5.034H648.8v-4.509a2.137,2.137,0,0,0-.3-1.253,1.091,1.091,0,0,0-.951-.417,1.459,1.459,0,0,0-1.248.551,2.951,2.951,0,0,0-.414,1.754Z" fill="#00223d"/>
          <path id="Trazado_5257" data-name="Trazado 5257" d="M657.184,5607.268a4.516,4.516,0,0,1-3.146-1.028,3.74,3.74,0,0,1-1.133-2.914,4.085,4.085,0,0,1,1.047-3,3.889,3.889,0,0,1,2.9-1.061,3.844,3.844,0,0,1,2.75.932,3.379,3.379,0,0,1,.984,2.576v1.021h-5.374a1.944,1.944,0,0,0,.574,1.4,2.109,2.109,0,0,0,1.505.5,6.791,6.791,0,0,0,1.424-.145,7.583,7.583,0,0,0,1.4-.463v1.629a5.6,5.6,0,0,1-1.275.411A8.606,8.606,0,0,1,657.184,5607.268Zm-.321-6.5a1.506,1.506,0,0,0-1.133.425,1.88,1.88,0,0,0-.469,1.205h3.19a1.675,1.675,0,0,0-.44-1.205A1.555,1.555,0,0,0,656.863,5600.763Z" fill="#00223d"/>
          <path id="Trazado_5258" data-name="Trazado 5258" d="M670.125,5607.13h-2.274v-4.509a2.044,2.044,0,0,0-.32-1.253,1.2,1.2,0,0,0-1.022-.417,1.582,1.582,0,0,0-1.379.59,3.438,3.438,0,0,0-.424,1.957v3.632h-2.274v-7.72h1.737l.3.988h.127a2.362,2.362,0,0,1,1.048-.846,3.807,3.807,0,0,1,1.516-.287,3.045,3.045,0,0,1,2.207.729,2.791,2.791,0,0,1,.753,2.1Z" fill="#00223d"/>
          <path id="Trazado_5259" data-name="Trazado 5259" d="M675.977,5605.589a5.332,5.332,0,0,0,1.431-.24v1.567a5.479,5.479,0,0,1-2.087.352,2.674,2.674,0,0,1-1.987-.639,2.642,2.642,0,0,1-.622-1.916v-3.721h-1.089v-.891l1.253-.705.656-1.629h1.453v1.643h2.333v1.582h-2.333v3.721a.8.8,0,0,0,.272.664A1.137,1.137,0,0,0,675.977,5605.589Z" fill="#00223d"/>
          <path id="Trazado_5260" data-name="Trazado 5260" d="M684.385,5607.13l-.439-1.049h-.06a3.321,3.321,0,0,1-1.182.928,4.091,4.091,0,0,1-1.584.259,2.676,2.676,0,0,1-1.889-.636,2.33,2.33,0,0,1-.69-1.808,1.987,1.987,0,0,1,.928-1.813,5.719,5.719,0,0,1,2.8-.645l1.446-.042v-.338q0-1.174-1.3-1.174a6.309,6.309,0,0,0-2.348.559l-.753-1.422a7.213,7.213,0,0,1,3.191-.7,4.2,4.2,0,0,1,2.572.676,2.415,2.415,0,0,1,.894,2.058v5.144Zm-.671-3.577-.879.028a3,3,0,0,0-1.476.331,1.018,1.018,0,0,0-.485.925q0,.891,1.1.891a1.836,1.836,0,0,0,1.263-.421,1.421,1.421,0,0,0,.473-1.118Z" fill="#00223d"/>
          <path id="Trazado_5261" data-name="Trazado 5261" d="M692.966,5599.265a3.968,3.968,0,0,1,.767.063l-.171,1.974a2.814,2.814,0,0,0-.671-.069,2.53,2.53,0,0,0-1.7.519,1.8,1.8,0,0,0-.608,1.449v3.929h-2.273v-7.72h1.722l.335,1.3h.112a3.012,3.012,0,0,1,1.047-1.047A2.741,2.741,0,0,1,692.966,5599.265Z" fill="#00223d"/>
        </g>
      </g>
      <g id="Grupo_11009" data-name="Grupo 11009">
        <g id="Grupo_11008" data-name="Grupo 11008">
          <path id="Trazado_5262" data-name="Trazado 5262" d="M610.249,5656.426h-6.874V5645h6.874v1.18h-5.44v3.68h5.111v1.172h-5.111v4.2h5.44Z" fill="#00223d"/>
          <path id="Trazado_5263" data-name="Trazado 5263" d="M611.649,5660.27a3.623,3.623,0,0,1-1.3-.195v-1.055a4.379,4.379,0,0,0,1.147.156,1.258,1.258,0,0,0,.966-.332,1.445,1.445,0,0,0,.308-1.011v-9.969h1.4v9.875A2.234,2.234,0,0,1,611.649,5660.27Zm1-14.727a.825.825,0,0,1,.236-.652.926.926,0,0,1,1.172,0,.811.811,0,0,1,.245.648.825.825,0,0,1-.245.653.853.853,0,0,1-.582.215.781.781,0,0,1-.826-.868Z" fill="#00223d"/>
          <path id="Trazado_5264" data-name="Trazado 5264" d="M621.045,5656.583a4.435,4.435,0,0,1-3.235-1.157,4.278,4.278,0,0,1-1.185-3.211,4.723,4.723,0,0,1,1.1-3.289,3.788,3.788,0,0,1,2.956-1.218,3.623,3.623,0,0,1,2.75,1.058,3.873,3.873,0,0,1,1.012,2.793v.82h-6.368a3.236,3.236,0,0,0,.823,2.289,2.967,2.967,0,0,0,2.2.782,7.969,7.969,0,0,0,2.952-.578v1.156a7.806,7.806,0,0,1-1.4.426A8.5,8.5,0,0,1,621.045,5656.583Zm-.38-7.79a2.379,2.379,0,0,0-1.775.672,2.984,2.984,0,0,0-.78,1.86h4.833a2.7,2.7,0,0,0-.591-1.879A2.159,2.159,0,0,0,620.665,5648.793Z" fill="#00223d"/>
          <path id="Trazado_5265" data-name="Trazado 5265" d="M630.525,5656.583a4.11,4.11,0,0,1-3.108-1.145,4.483,4.483,0,0,1-1.1-3.238,4.624,4.624,0,0,1,1.118-3.321,4.192,4.192,0,0,1,3.184-1.171,6.862,6.862,0,0,1,1.333.132,4.681,4.681,0,0,1,1.045.313l-.43,1.1a6.948,6.948,0,0,0-1.012-.285,4.883,4.883,0,0,0-.97-.113q-2.817,0-2.817,3.328a3.745,3.745,0,0,0,.688,2.422,2.473,2.473,0,0,0,2.036.844,6.664,6.664,0,0,0,2.371-.461v1.148A5.4,5.4,0,0,1,630.525,5656.583Z" fill="#00223d"/>
          <path id="Trazado_5266" data-name="Trazado 5266" d="M636.37,5647.864v5.554a2.127,2.127,0,0,0,.515,1.563,2.191,2.191,0,0,0,1.611.516,2.742,2.742,0,0,0,2.121-.735,3.506,3.506,0,0,0,.67-2.4v-4.5h1.4v8.562h-1.155l-.2-1.148h-.076a2.728,2.728,0,0,1-1.193.969,4.3,4.3,0,0,1-1.742.336,3.718,3.718,0,0,1-2.526-.743,3.019,3.019,0,0,1-.839-2.375v-5.6Z" fill="#00223d"/>
          <path id="Trazado_5267" data-name="Trazado 5267" d="M648.642,5655.512a4.763,4.763,0,0,0,.717-.051,5.166,5.166,0,0,0,.548-.1v.992a2.7,2.7,0,0,1-.67.168,5.487,5.487,0,0,1-.8.067q-2.682,0-2.682-2.618v-5.093h-1.325v-.625l1.325-.539.59-1.829h.81v1.985h2.682v1.008h-2.682v5.039a1.652,1.652,0,0,0,.4,1.187A1.432,1.432,0,0,0,648.642,5655.512Z" fill="#00223d"/>
          <path id="Trazado_5268" data-name="Trazado 5268" d="M657.439,5656.426l-.278-1.218h-.068a3.832,3.832,0,0,1-1.379,1.089,4.479,4.479,0,0,1-1.716.286,3.243,3.243,0,0,1-2.155-.657,2.3,2.3,0,0,1-.78-1.867q0-2.594,4.478-2.719l1.569-.047v-.531a2.063,2.063,0,0,0-.468-1.488,2.018,2.018,0,0,0-1.5-.481,6.479,6.479,0,0,0-2.615.657l-.43-.992a6.846,6.846,0,0,1,1.5-.54,7.046,7.046,0,0,1,1.632-.195,3.715,3.715,0,0,1,2.45.68,2.715,2.715,0,0,1,.8,2.18v5.843Zm-3.163-.914a2.981,2.981,0,0,0,2.054-.664,2.36,2.36,0,0,0,.746-1.859v-.774l-1.4.055a5.406,5.406,0,0,0-2.408.481,1.423,1.423,0,0,0-.738,1.324,1.288,1.288,0,0,0,.46,1.07A2.008,2.008,0,0,0,654.276,5655.512Z" fill="#00223d"/>
          <path id="Trazado_5269" data-name="Trazado 5269" d="M665.578,5647.708a5.952,5.952,0,0,1,1.1.093l-.194,1.2a5.126,5.126,0,0,0-1.012-.117,2.543,2.543,0,0,0-1.919.844,2.943,2.943,0,0,0-.8,2.1v4.593h-1.4v-8.562h1.155l.161,1.586h.067a3.856,3.856,0,0,1,1.24-1.289A2.95,2.95,0,0,1,665.578,5647.708Z" fill="#00223d"/>
          <path id="Trazado_5270" data-name="Trazado 5270" d="M674.3,5656.426h-1.4V5644.27h1.4Z" fill="#00223d"/>
          <path id="Trazado_5271" data-name="Trazado 5271" d="M685.247,5652.137a4.505,4.505,0,0,1-1.139,3.27,4.176,4.176,0,0,1-3.146,1.176,4.42,4.42,0,0,1-2.2-.54,3.661,3.661,0,0,1-1.484-1.546,5.05,5.05,0,0,1-.523-2.36,4.492,4.492,0,0,1,1.13-3.261,4.16,4.16,0,0,1,3.137-1.168,4.064,4.064,0,0,1,3.083,1.195A4.486,4.486,0,0,1,685.247,5652.137Zm-7.043,0a3.846,3.846,0,0,0,.709,2.5,2.964,2.964,0,0,0,4.171,0,3.827,3.827,0,0,0,.712-2.5,3.762,3.762,0,0,0-.712-2.48,2.592,2.592,0,0,0-2.1-.848,2.551,2.551,0,0,0-2.075.836A3.811,3.811,0,0,0,678.2,5652.137Z" fill="#00223d"/>
          <path id="Trazado_5272" data-name="Trazado 5272" d="M595.261,5672.857h-.075a3.387,3.387,0,0,1-2.9,1.305,3.555,3.555,0,0,1-2.821-1.149,4.794,4.794,0,0,1-1.008-3.265,4.871,4.871,0,0,1,1.012-3.289,3.522,3.522,0,0,1,2.817-1.172,3.469,3.469,0,0,1,2.885,1.265h.109l-.059-.617-.033-.6v-3.485h1.4V5674h-1.139Zm-2.8.219a2.658,2.658,0,0,0,2.079-.723,3.452,3.452,0,0,0,.646-2.332v-.273a4.052,4.052,0,0,0-.654-2.6,2.579,2.579,0,0,0-2.088-.777,2.2,2.2,0,0,0-1.885.886,4.158,4.158,0,0,0-.653,2.5,3.991,3.991,0,0,0,.649,2.477A2.271,2.271,0,0,0,592.461,5673.076Z" fill="#00223d"/>
          <path id="Trazado_5273" data-name="Trazado 5273" d="M607.533,5669.716a4.5,4.5,0,0,1-1.138,3.27,4.178,4.178,0,0,1-3.146,1.176,4.431,4.431,0,0,1-2.2-.539,3.669,3.669,0,0,1-1.484-1.547,5.055,5.055,0,0,1-.523-2.36,4.494,4.494,0,0,1,1.13-3.261,4.158,4.158,0,0,1,3.138-1.168,4.065,4.065,0,0,1,3.083,1.195A4.489,4.489,0,0,1,607.533,5669.716Zm-7.042,0a3.845,3.845,0,0,0,.708,2.5,2.963,2.963,0,0,0,4.171,0,3.828,3.828,0,0,0,.713-2.5,3.762,3.762,0,0,0-.713-2.48,2.592,2.592,0,0,0-2.1-.848,2.553,2.553,0,0,0-2.075.836A3.8,3.8,0,0,0,600.491,5669.716Z" fill="#00223d"/>
          <path id="Trazado_5274" data-name="Trazado 5274" d="M613.682,5674.162a4.112,4.112,0,0,1-3.108-1.145,4.486,4.486,0,0,1-1.1-3.238,4.62,4.62,0,0,1,1.118-3.32,4.187,4.187,0,0,1,3.184-1.172,6.844,6.844,0,0,1,1.332.132,4.575,4.575,0,0,1,1.046.313l-.43,1.1a6.862,6.862,0,0,0-1.012-.286,4.851,4.851,0,0,0-.97-.113q-2.817,0-2.817,3.328a3.749,3.749,0,0,0,.687,2.422,2.474,2.474,0,0,0,2.037.844,6.654,6.654,0,0,0,2.37-.461v1.148A5.382,5.382,0,0,1,613.682,5674.162Z" fill="#00223d"/>
          <path id="Trazado_5275" data-name="Trazado 5275" d="M619.527,5665.443V5671a2.128,2.128,0,0,0,.514,1.562,2.2,2.2,0,0,0,1.611.516,2.743,2.743,0,0,0,2.122-.735,3.506,3.506,0,0,0,.67-2.4v-4.5h1.4V5674h-1.155l-.2-1.148h-.076a2.738,2.738,0,0,1-1.193.969,4.322,4.322,0,0,1-1.742.336,3.719,3.719,0,0,1-2.526-.743,3.022,3.022,0,0,1-.839-2.375v-5.6Z" fill="#00223d"/>
          <path id="Trazado_5276" data-name="Trazado 5276" d="M640.6,5674v-5.57a2.193,2.193,0,0,0-.473-1.535,1.9,1.9,0,0,0-1.467-.512,2.469,2.469,0,0,0-1.932.7,3.125,3.125,0,0,0-.624,2.14V5674h-1.4v-5.57a2.193,2.193,0,0,0-.472-1.535,1.916,1.916,0,0,0-1.476-.512,2.369,2.369,0,0,0-1.927.731,3.724,3.724,0,0,0-.612,2.394V5674h-1.4v-8.562h1.139l.228,1.172h.067a2.679,2.679,0,0,1,1.117-.977,3.641,3.641,0,0,1,1.616-.351,2.788,2.788,0,0,1,2.834,1.453h.067a2.858,2.858,0,0,1,1.2-1.063,3.967,3.967,0,0,1,1.788-.39,3.279,3.279,0,0,1,2.349.746,3.176,3.176,0,0,1,.78,2.386V5674Z" fill="#00223d"/>
          <path id="Trazado_5277" data-name="Trazado 5277" d="M648.785,5674.162a4.432,4.432,0,0,1-3.234-1.157,4.279,4.279,0,0,1-1.185-3.211,4.723,4.723,0,0,1,1.1-3.289,3.786,3.786,0,0,1,2.956-1.218,3.621,3.621,0,0,1,2.749,1.058,3.871,3.871,0,0,1,1.013,2.793v.821h-6.368a3.245,3.245,0,0,0,.822,2.289,2.971,2.971,0,0,0,2.2.781,7.989,7.989,0,0,0,2.952-.578v1.156a7.943,7.943,0,0,1-1.4.426A8.508,8.508,0,0,1,648.785,5674.162Zm-.379-7.789a2.382,2.382,0,0,0-1.776.671,2.981,2.981,0,0,0-.78,1.86h4.833a2.709,2.709,0,0,0-.59-1.879A2.155,2.155,0,0,0,648.406,5666.373Z" fill="#00223d"/>
          <path id="Trazado_5278" data-name="Trazado 5278" d="M660.9,5674v-5.539a2.127,2.127,0,0,0-.514-1.562,2.2,2.2,0,0,0-1.611-.516,2.773,2.773,0,0,0-2.126.727,3.468,3.468,0,0,0-.674,2.4V5674h-1.4v-8.562h1.139l.228,1.172h.067a2.808,2.808,0,0,1,1.206-.981,4.183,4.183,0,0,1,1.729-.347,3.692,3.692,0,0,1,2.514.746,3.033,3.033,0,0,1,.843,2.386V5674Z" fill="#00223d"/>
          <path id="Trazado_5279" data-name="Trazado 5279" d="M668.159,5673.091a5.035,5.035,0,0,0,.717-.05,5.331,5.331,0,0,0,.548-.106v.992a2.739,2.739,0,0,1-.67.168,5.617,5.617,0,0,1-.8.067q-2.682,0-2.682-2.618v-5.093H663.95v-.625l1.325-.539.59-1.828h.81v1.984h2.682v1.008h-2.682v5.039a1.65,1.65,0,0,0,.4,1.187A1.434,1.434,0,0,0,668.159,5673.091Z" fill="#00223d"/>
          <path id="Trazado_5280" data-name="Trazado 5280" d="M676.956,5674l-.278-1.218h-.068a3.839,3.839,0,0,1-1.379,1.09,4.518,4.518,0,0,1-1.716.285,3.244,3.244,0,0,1-2.155-.657,2.3,2.3,0,0,1-.78-1.867q0-2.594,4.478-2.719l1.569-.046v-.532a2.061,2.061,0,0,0-.468-1.488,2.018,2.018,0,0,0-1.5-.48,6.478,6.478,0,0,0-2.615.656l-.43-.992a6.813,6.813,0,0,1,1.5-.539,6.943,6.943,0,0,1,1.632-.2,3.712,3.712,0,0,1,2.45.68,2.715,2.715,0,0,1,.8,2.18V5674Zm-3.163-.914a2.978,2.978,0,0,0,2.054-.664,2.356,2.356,0,0,0,.746-1.859v-.774l-1.4.055a5.4,5.4,0,0,0-2.408.481,1.42,1.42,0,0,0-.738,1.324,1.29,1.29,0,0,0,.46,1.07A2.017,2.017,0,0,0,673.793,5673.091Z" fill="#00223d"/>
          <path id="Trazado_5281" data-name="Trazado 5281" d="M687.17,5672.857h-.076a3.386,3.386,0,0,1-2.9,1.305,3.558,3.558,0,0,1-2.822-1.149,4.8,4.8,0,0,1-1.007-3.265,4.871,4.871,0,0,1,1.012-3.289,3.519,3.519,0,0,1,2.817-1.172,3.466,3.466,0,0,1,2.884,1.265h.11l-.059-.617-.034-.6v-3.485h1.4V5674h-1.138Zm-2.8.219a2.658,2.658,0,0,0,2.079-.723,3.457,3.457,0,0,0,.645-2.332v-.273a4.058,4.058,0,0,0-.653-2.6,2.579,2.579,0,0,0-2.088-.777,2.2,2.2,0,0,0-1.885.886,4.158,4.158,0,0,0-.654,2.5,3.991,3.991,0,0,0,.65,2.477A2.271,2.271,0,0,0,684.37,5673.076Z" fill="#00223d"/>
          <path id="Trazado_5282" data-name="Trazado 5282" d="M699.442,5669.716a4.5,4.5,0,0,1-1.139,3.27,4.177,4.177,0,0,1-3.146,1.176,4.429,4.429,0,0,1-2.2-.539,3.664,3.664,0,0,1-1.484-1.547,5.055,5.055,0,0,1-.523-2.36,4.489,4.489,0,0,1,1.13-3.261,4.155,4.155,0,0,1,3.137-1.168,4.064,4.064,0,0,1,3.083,1.195A4.485,4.485,0,0,1,699.442,5669.716Zm-7.043,0a3.845,3.845,0,0,0,.709,2.5,2.963,2.963,0,0,0,4.171,0,3.827,3.827,0,0,0,.712-2.5,3.762,3.762,0,0,0-.712-2.48,2.594,2.594,0,0,0-2.1-.848,2.554,2.554,0,0,0-2.075.836A3.806,3.806,0,0,0,692.4,5669.716Z" fill="#00223d"/>
        </g>
      </g>
    </g>
    <g id="Grupo_11015" data-name="Grupo 11015">
      <g id="Grupo_11012" data-name="Grupo 11012">
        <g id="Grupo_11011" data-name="Grupo 11011">
          <path id="Trazado_5283" data-name="Trazado 5283" d="M764.4,5541.13l-2.624-7.92h-.067q.141,2.418.142,3.225v4.695h-2.065v-10.095h3.145l2.58,7.719h.044l2.736-7.719h3.146v10.095h-2.154v-4.779c0-.224,0-.484.011-.779s.041-1.078.1-2.348h-.067l-2.81,7.906Z" fill="#00223d"/>
          <path id="Trazado_5284" data-name="Trazado 5284" d="M779.29,5541.13l-.44-1.049h-.059a3.321,3.321,0,0,1-1.182.928,4.091,4.091,0,0,1-1.584.259,2.68,2.68,0,0,1-1.89-.636,2.33,2.33,0,0,1-.689-1.808,1.987,1.987,0,0,1,.928-1.813,5.716,5.716,0,0,1,2.8-.645l1.446-.042v-.338q0-1.174-1.3-1.174a6.3,6.3,0,0,0-2.348.559l-.753-1.422a7.212,7.212,0,0,1,3.19-.7,4.2,4.2,0,0,1,2.572.676,2.413,2.413,0,0,1,.9,2.058v5.144Zm-.671-3.577-.88.028a2.988,2.988,0,0,0-1.475.331,1.016,1.016,0,0,0-.485.925q0,.891,1.1.891a1.837,1.837,0,0,0,1.264-.421,1.424,1.424,0,0,0,.473-1.118Z" fill="#00223d"/>
          <path id="Trazado_5285" data-name="Trazado 5285" d="M790.912,5541.13h-2.274v-4.509a2.037,2.037,0,0,0-.321-1.253,1.2,1.2,0,0,0-1.021-.417,1.581,1.581,0,0,0-1.379.59,3.437,3.437,0,0,0-.425,1.957v3.632h-2.273v-7.72h1.736l.306.988h.127a2.354,2.354,0,0,1,1.047-.846,3.815,3.815,0,0,1,1.517-.287,3.046,3.046,0,0,1,2.207.729,2.791,2.791,0,0,1,.753,2.1Z" fill="#00223d"/>
          <path id="Trazado_5286" data-name="Trazado 5286" d="M796.763,5539.589a5.332,5.332,0,0,0,1.432-.24v1.567a5.484,5.484,0,0,1-2.088.352,2.673,2.673,0,0,1-1.986-.639,2.642,2.642,0,0,1-.623-1.916v-3.721H792.41v-.891l1.252-.705.656-1.629h1.454v1.643H798.1v1.582h-2.333v3.721a.8.8,0,0,0,.272.664A1.132,1.132,0,0,0,796.763,5539.589Z" fill="#00223d"/>
          <path id="Trazado_5287" data-name="Trazado 5287" d="M803.651,5541.268a4.518,4.518,0,0,1-3.146-1.028,3.74,3.74,0,0,1-1.133-2.914,4.086,4.086,0,0,1,1.048-3,3.885,3.885,0,0,1,2.9-1.061,3.842,3.842,0,0,1,2.75.932,3.379,3.379,0,0,1,.984,2.576v1.021h-5.374a1.948,1.948,0,0,0,.574,1.4,2.114,2.114,0,0,0,1.506.5,6.782,6.782,0,0,0,1.423-.145,7.559,7.559,0,0,0,1.4-.463v1.629a5.6,5.6,0,0,1-1.275.411A8.608,8.608,0,0,1,803.651,5541.268Zm-.32-6.5a1.5,1.5,0,0,0-1.133.425,1.881,1.881,0,0,0-.47,1.205h3.191a1.679,1.679,0,0,0-.44-1.205A1.555,1.555,0,0,0,803.331,5534.763Z" fill="#00223d"/>
          <path id="Trazado_5288" data-name="Trazado 5288" d="M816.592,5541.13h-2.273v-4.509a2.037,2.037,0,0,0-.321-1.253,1.2,1.2,0,0,0-1.021-.417,1.581,1.581,0,0,0-1.379.59,3.429,3.429,0,0,0-.425,1.957v3.632H808.9v-7.72h1.737l.306.988h.126a2.363,2.363,0,0,1,1.048-.846,3.808,3.808,0,0,1,1.517-.287,3.044,3.044,0,0,1,2.206.729,2.791,2.791,0,0,1,.753,2.1Z" fill="#00223d"/>
          <path id="Trazado_5289" data-name="Trazado 5289" d="M822.705,5541.268a4.514,4.514,0,0,1-3.146-1.028,3.74,3.74,0,0,1-1.133-2.914,4.085,4.085,0,0,1,1.047-3,3.886,3.886,0,0,1,2.9-1.061,3.845,3.845,0,0,1,2.751.932,3.379,3.379,0,0,1,.984,2.576v1.021h-5.375a1.952,1.952,0,0,0,.574,1.4,2.114,2.114,0,0,0,1.506.5,6.791,6.791,0,0,0,1.424-.145,7.574,7.574,0,0,0,1.4-.463v1.629a5.574,5.574,0,0,1-1.274.411A8.614,8.614,0,0,1,822.705,5541.268Zm-.321-6.5a1.5,1.5,0,0,0-1.133.425,1.88,1.88,0,0,0-.469,1.205h3.19a1.675,1.675,0,0,0-.44-1.205A1.555,1.555,0,0,0,822.384,5534.763Z" fill="#00223d"/>
          <path id="Trazado_5290" data-name="Trazado 5290" d="M832.6,5533.265a3.98,3.98,0,0,1,.768.063l-.171,1.974a2.814,2.814,0,0,0-.671-.069,2.53,2.53,0,0,0-1.7.519,1.8,1.8,0,0,0-.608,1.449v3.929h-2.273v-7.72h1.722l.335,1.3h.112a3,3,0,0,1,1.047-1.047A2.737,2.737,0,0,1,832.6,5533.265Z" fill="#00223d"/>
        </g>
      </g>
      <g id="Grupo_11014" data-name="Grupo 11014">
        <g id="Grupo_11013" data-name="Grupo 11013">
          <path id="Trazado_5291" data-name="Trazado 5291" d="M741.262,5580.028a4.186,4.186,0,0,0-3.209,1.254,4.814,4.814,0,0,0-1.177,3.433,4.9,4.9,0,0,0,1.135,3.465,4.19,4.19,0,0,0,3.234,1.223,11.906,11.906,0,0,0,2.944-.43v1.164a9.727,9.727,0,0,1-3.163.446,5.579,5.579,0,0,1-4.205-1.532,6.008,6.008,0,0,1-1.48-4.351,6.451,6.451,0,0,1,.713-3.094,4.908,4.908,0,0,1,2.058-2.047,6.627,6.627,0,0,1,3.167-.719,8.149,8.149,0,0,1,3.39.657l-.607,1.14A6.966,6.966,0,0,0,741.262,5580.028Z" fill="#00223d"/>
          <path id="Trazado_5292" data-name="Trazado 5292" d="M754.647,5586.137a4.5,4.5,0,0,1-1.138,3.27,4.177,4.177,0,0,1-3.146,1.176,4.421,4.421,0,0,1-2.2-.54,3.661,3.661,0,0,1-1.484-1.546,5.05,5.05,0,0,1-.523-2.36,4.492,4.492,0,0,1,1.13-3.261,4.161,4.161,0,0,1,3.138-1.168,4.063,4.063,0,0,1,3.082,1.195A4.486,4.486,0,0,1,754.647,5586.137Zm-7.042,0a3.847,3.847,0,0,0,.708,2.5,2.964,2.964,0,0,0,4.171,0,3.827,3.827,0,0,0,.712-2.5,3.763,3.763,0,0,0-.712-2.48,2.591,2.591,0,0,0-2.1-.848,2.548,2.548,0,0,0-2.074.836A3.805,3.805,0,0,0,747.6,5586.137Z" fill="#00223d"/>
          <path id="Trazado_5293" data-name="Trazado 5293" d="M763.427,5590.426v-5.539a2.124,2.124,0,0,0-.514-1.562,2.194,2.194,0,0,0-1.611-.516,2.773,2.773,0,0,0-2.126.727,3.475,3.475,0,0,0-.674,2.4v4.492h-1.4v-8.562h1.138l.228,1.172h.067a2.8,2.8,0,0,1,1.207-.981,4.192,4.192,0,0,1,1.729-.347,3.694,3.694,0,0,1,2.513.746,3.034,3.034,0,0,1,.843,2.386v5.586Z" fill="#00223d"/>
          <path id="Trazado_5294" data-name="Trazado 5294" d="M770.689,5589.512a4.753,4.753,0,0,0,.717-.051,5.114,5.114,0,0,0,.548-.1v.992a2.685,2.685,0,0,1-.67.168,5.476,5.476,0,0,1-.8.067q-2.682,0-2.682-2.618v-5.093h-1.324v-.625l1.324-.539.59-1.829h.81v1.985h2.682v1.008h-2.682v5.039a1.652,1.652,0,0,0,.4,1.187A1.432,1.432,0,0,0,770.689,5589.512Z" fill="#00223d"/>
          <path id="Trazado_5295" data-name="Trazado 5295" d="M773.683,5579.543a.822.822,0,0,1,.237-.652.926.926,0,0,1,1.172,0,.811.811,0,0,1,.245.648.825.825,0,0,1-.245.653.853.853,0,0,1-.582.215.783.783,0,0,1-.827-.868Zm1.519,10.883h-1.4v-8.562h1.4Z" fill="#00223d"/>
          <path id="Trazado_5296" data-name="Trazado 5296" d="M784.5,5590.426v-5.539a2.124,2.124,0,0,0-.514-1.562,2.194,2.194,0,0,0-1.611-.516,2.773,2.773,0,0,0-2.126.727,3.47,3.47,0,0,0-.674,2.4v4.492h-1.4v-8.562h1.139l.228,1.172h.067a2.8,2.8,0,0,1,1.206-.981,4.2,4.2,0,0,1,1.729-.347,3.7,3.7,0,0,1,2.514.746,3.034,3.034,0,0,1,.843,2.386v5.586Z" fill="#00223d"/>
          <path id="Trazado_5297" data-name="Trazado 5297" d="M790.088,5581.864v5.554a2.127,2.127,0,0,0,.515,1.563,2.193,2.193,0,0,0,1.611.516,2.742,2.742,0,0,0,2.121-.735,3.506,3.506,0,0,0,.67-2.4v-4.5h1.4v8.562H795.25l-.2-1.148h-.075a2.737,2.737,0,0,1-1.194.969,4.3,4.3,0,0,1-1.742.336,3.718,3.718,0,0,1-2.526-.743,3.019,3.019,0,0,1-.839-2.375v-5.6Z" fill="#00223d"/>
          <path id="Trazado_5298" data-name="Trazado 5298" d="M799.256,5579.543a.825.825,0,0,1,.236-.652.927.927,0,0,1,1.173,0,.811.811,0,0,1,.244.648.825.825,0,0,1-.244.653.906.906,0,0,1-1.173,0A.842.842,0,0,1,799.256,5579.543Zm1.518,10.883h-1.4v-8.562h1.4Z" fill="#00223d"/>
          <path id="Trazado_5299" data-name="Trazado 5299" d="M810.035,5589.278h-.076a3.383,3.383,0,0,1-2.9,1.305,3.552,3.552,0,0,1-2.821-1.149,4.8,4.8,0,0,1-1.008-3.266,4.876,4.876,0,0,1,1.012-3.289,3.525,3.525,0,0,1,2.817-1.171,3.462,3.462,0,0,1,2.884,1.265h.11l-.059-.617-.034-.6v-3.484h1.4v12.156h-1.138Zm-2.8.219a2.662,2.662,0,0,0,2.079-.723,3.453,3.453,0,0,0,.645-2.332v-.274a4.057,4.057,0,0,0-.653-2.6,2.579,2.579,0,0,0-2.088-.778,2.2,2.2,0,0,0-1.885.887,4.155,4.155,0,0,0-.654,2.5,3.991,3.991,0,0,0,.65,2.477A2.268,2.268,0,0,0,807.235,5589.5Z" fill="#00223d"/>
          <path id="Trazado_5300" data-name="Trazado 5300" d="M820.013,5590.426l-.278-1.218h-.068a3.833,3.833,0,0,1-1.379,1.089,4.479,4.479,0,0,1-1.716.286,3.244,3.244,0,0,1-2.155-.657,2.3,2.3,0,0,1-.78-1.867q0-2.594,4.478-2.719l1.569-.047v-.531a2.062,2.062,0,0,0-.468-1.488,2.018,2.018,0,0,0-1.5-.481,6.479,6.479,0,0,0-2.615.657l-.43-.992a6.827,6.827,0,0,1,1.5-.54,7.045,7.045,0,0,1,1.632-.195,3.715,3.715,0,0,1,2.45.68,2.715,2.715,0,0,1,.8,2.18v5.843Zm-3.163-.914a2.98,2.98,0,0,0,2.054-.664,2.36,2.36,0,0,0,.746-1.859v-.774l-1.4.055a5.406,5.406,0,0,0-2.408.481,1.423,1.423,0,0,0-.738,1.324,1.288,1.288,0,0,0,.46,1.07A2.008,2.008,0,0,0,816.85,5589.512Z" fill="#00223d"/>
          <path id="Trazado_5301" data-name="Trazado 5301" d="M830.227,5589.278h-.076a3.384,3.384,0,0,1-2.9,1.305,3.556,3.556,0,0,1-2.822-1.149,4.8,4.8,0,0,1-1.008-3.266,4.877,4.877,0,0,1,1.013-3.289,3.523,3.523,0,0,1,2.817-1.171,3.463,3.463,0,0,1,2.884,1.265h.11l-.059-.617-.034-.6v-3.484h1.4v12.156h-1.138Zm-2.8.219a2.662,2.662,0,0,0,2.079-.723,3.453,3.453,0,0,0,.645-2.332v-.274a4.051,4.051,0,0,0-.654-2.6,2.576,2.576,0,0,0-2.087-.778,2.2,2.2,0,0,0-1.885.887,4.155,4.155,0,0,0-.654,2.5,3.991,3.991,0,0,0,.65,2.477A2.268,2.268,0,0,0,827.427,5589.5Z" fill="#00223d"/>
          <path id="Trazado_5302" data-name="Trazado 5302" d="M842.912,5590.583a4.432,4.432,0,0,1-3.234-1.157,4.278,4.278,0,0,1-1.185-3.211,4.723,4.723,0,0,1,1.1-3.289,3.788,3.788,0,0,1,2.957-1.218,3.622,3.622,0,0,1,2.749,1.058,3.873,3.873,0,0,1,1.012,2.793v.82h-6.368a3.236,3.236,0,0,0,.823,2.289,2.967,2.967,0,0,0,2.2.782,7.969,7.969,0,0,0,2.952-.578v1.156a7.806,7.806,0,0,1-1.4.426A8.5,8.5,0,0,1,842.912,5590.583Zm-.379-7.79a2.381,2.381,0,0,0-1.776.672,2.984,2.984,0,0,0-.78,1.86h4.833a2.7,2.7,0,0,0-.591-1.879A2.157,2.157,0,0,0,842.533,5582.793Z" fill="#00223d"/>
          <path id="Trazado_5303" data-name="Trazado 5303" d="M855.024,5590.426v-5.539a2.124,2.124,0,0,0-.515-1.562,2.194,2.194,0,0,0-1.611-.516,2.771,2.771,0,0,0-2.125.727,3.47,3.47,0,0,0-.675,2.4v4.492h-1.4v-8.562h1.139l.228,1.172h.067a2.8,2.8,0,0,1,1.206-.981,4.2,4.2,0,0,1,1.729-.347,3.7,3.7,0,0,1,2.514.746,3.034,3.034,0,0,1,.843,2.386v5.586Z" fill="#00223d"/>
          <path id="Trazado_5304" data-name="Trazado 5304" d="M763.545,5608.162a4.432,4.432,0,0,1-3.234-1.157,4.279,4.279,0,0,1-1.185-3.211,4.723,4.723,0,0,1,1.1-3.289,3.786,3.786,0,0,1,2.956-1.218,3.621,3.621,0,0,1,2.749,1.058,3.871,3.871,0,0,1,1.013,2.793v.821h-6.368a3.245,3.245,0,0,0,.822,2.289,2.971,2.971,0,0,0,2.2.781,7.988,7.988,0,0,0,2.952-.578v1.156a7.942,7.942,0,0,1-1.4.426A8.508,8.508,0,0,1,763.545,5608.162Zm-.379-7.789a2.382,2.382,0,0,0-1.776.671,2.98,2.98,0,0,0-.78,1.86h4.833a2.709,2.709,0,0,0-.59-1.879A2.155,2.155,0,0,0,763.166,5600.373Z" fill="#00223d"/>
          <path id="Trazado_5305" data-name="Trazado 5305" d="M770.732,5608h-1.4v-12.156h1.4Z" fill="#00223d"/>
          <path id="Trazado_5306" data-name="Trazado 5306" d="M781.173,5607.091a5.025,5.025,0,0,0,.717-.05,5.333,5.333,0,0,0,.548-.106v.992a2.726,2.726,0,0,1-.67.168,5.617,5.617,0,0,1-.8.067q-2.682,0-2.682-2.618v-5.093h-1.324v-.625l1.324-.539.59-1.828h.81v1.984h2.682v1.008h-2.682v5.039a1.65,1.65,0,0,0,.4,1.187A1.433,1.433,0,0,0,781.173,5607.091Z" fill="#00223d"/>
          <path id="Trazado_5307" data-name="Trazado 5307" d="M784.167,5597.123a.823.823,0,0,1,.237-.653.926.926,0,0,1,1.172,0,.812.812,0,0,1,.245.649.824.824,0,0,1-.245.652.853.853,0,0,1-.582.215.782.782,0,0,1-.827-.867ZM785.686,5608h-1.4v-8.562h1.4Z" fill="#00223d"/>
          <path id="Trazado_5308" data-name="Trazado 5308" d="M792.56,5608.162a4.433,4.433,0,0,1-3.235-1.157,4.279,4.279,0,0,1-1.185-3.211,4.723,4.723,0,0,1,1.1-3.289,3.787,3.787,0,0,1,2.956-1.218,3.621,3.621,0,0,1,2.749,1.058,3.871,3.871,0,0,1,1.013,2.793v.821h-6.368a3.245,3.245,0,0,0,.822,2.289,2.972,2.972,0,0,0,2.2.781,7.985,7.985,0,0,0,2.952-.578v1.156a7.944,7.944,0,0,1-1.4.426A8.5,8.5,0,0,1,792.56,5608.162Zm-.38-7.789a2.378,2.378,0,0,0-1.775.671,2.975,2.975,0,0,0-.781,1.86h4.833a2.709,2.709,0,0,0-.59-1.879A2.155,2.155,0,0,0,792.18,5600.373Z" fill="#00223d"/>
          <path id="Trazado_5309" data-name="Trazado 5309" d="M810.128,5608v-5.57a2.193,2.193,0,0,0-.472-1.535,1.9,1.9,0,0,0-1.468-.512,2.467,2.467,0,0,0-1.931.7,3.125,3.125,0,0,0-.624,2.14V5608h-1.4v-5.57a2.193,2.193,0,0,0-.473-1.535,1.916,1.916,0,0,0-1.476-.512,2.371,2.371,0,0,0-1.927.731,3.724,3.724,0,0,0-.611,2.394V5608h-1.4v-8.562h1.138l.228,1.172h.067a2.683,2.683,0,0,1,1.118-.977,3.637,3.637,0,0,1,1.615-.351,2.787,2.787,0,0,1,2.834,1.453h.068a2.855,2.855,0,0,1,1.2-1.063,3.966,3.966,0,0,1,1.788-.39,3.279,3.279,0,0,1,2.349.746,3.176,3.176,0,0,1,.78,2.386V5608Z" fill="#00223d"/>
          <path id="Trazado_5310" data-name="Trazado 5310" d="M818.714,5608.162a4.292,4.292,0,0,1-1.649-.309,3.066,3.066,0,0,1-1.252-.949h-.1a10.718,10.718,0,0,1,.1,1.422v3.523h-1.4v-12.406h1.138l.194,1.172h.068a3.188,3.188,0,0,1,1.257-1.016,4.069,4.069,0,0,1,1.644-.312,3.532,3.532,0,0,1,2.838,1.164,5.813,5.813,0,0,1-.016,6.543A3.546,3.546,0,0,1,818.714,5608.162Zm-.2-7.774a2.584,2.584,0,0,0-2.05.727,3.537,3.537,0,0,0-.649,2.312v.289a4.041,4.041,0,0,0,.649,2.582,2.57,2.57,0,0,0,2.084.778,2.22,2.22,0,0,0,1.876-.9,4.02,4.02,0,0,0,.679-2.476,3.868,3.868,0,0,0-.679-2.457A2.3,2.3,0,0,0,818.512,5600.388Z" fill="#00223d"/>
          <path id="Trazado_5311" data-name="Trazado 5311" d="M832.977,5603.716a4.5,4.5,0,0,1-1.139,3.27,4.178,4.178,0,0,1-3.146,1.176,4.429,4.429,0,0,1-2.2-.539,3.671,3.671,0,0,1-1.485-1.547,5.068,5.068,0,0,1-.523-2.36,4.49,4.49,0,0,1,1.131-3.261,4.154,4.154,0,0,1,3.137-1.168,4.065,4.065,0,0,1,3.083,1.195A4.485,4.485,0,0,1,832.977,5603.716Zm-7.043,0a3.839,3.839,0,0,0,.709,2.5,2.962,2.962,0,0,0,4.17,0,3.822,3.822,0,0,0,.713-2.5,3.756,3.756,0,0,0-.713-2.48,2.59,2.59,0,0,0-2.1-.848,2.553,2.553,0,0,0-2.075.836A3.8,3.8,0,0,0,825.934,5603.716Z" fill="#00223d"/>
        </g>
      </g>
    </g>
    <g id="Grupo_11020" data-name="Grupo 11020">
      <g id="Grupo_11017" data-name="Grupo 11017">
        <g id="Grupo_11016" data-name="Grupo 11016">
          <path id="Trazado_5312" data-name="Trazado 5312" d="M923.834,5474.194l-2.624-7.92h-.067q.141,2.416.141,3.225v4.695H919.22V5464.1h3.145l2.58,7.719h.044l2.736-7.719h3.146v10.095h-2.154v-4.778c0-.226,0-.486.011-.781s.041-1.077.1-2.347h-.067l-2.81,7.906Z" fill="#00223d"/>
          <path id="Trazado_5313" data-name="Trazado 5313" d="M937.207,5474.332a4.507,4.507,0,0,1-3.146-1.029,3.737,3.737,0,0,1-1.133-2.914,4.086,4.086,0,0,1,1.048-3,3.888,3.888,0,0,1,2.9-1.059,3.842,3.842,0,0,1,2.751.931,3.378,3.378,0,0,1,.984,2.576v1.022h-5.375a1.945,1.945,0,0,0,.574,1.4,2.11,2.11,0,0,0,1.506.505,6.781,6.781,0,0,0,1.423-.145,7.52,7.52,0,0,0,1.4-.463v1.63a5.7,5.7,0,0,1-1.275.41A8.608,8.608,0,0,1,937.207,5474.332Zm-.32-6.5a1.5,1.5,0,0,0-1.133.424,1.88,1.88,0,0,0-.47,1.205h3.191a1.679,1.679,0,0,0-.44-1.205A1.552,1.552,0,0,0,936.887,5467.828Z" fill="#00223d"/>
          <path id="Trazado_5314" data-name="Trazado 5314" d="M941.784,5477.591a5.64,5.64,0,0,1-1.5-.173v-1.657a4.333,4.333,0,0,0,1.066.131,1.072,1.072,0,0,0,.839-.3,1.282,1.282,0,0,0,.264-.877v-8.244h2.274v8.555a2.375,2.375,0,0,1-.768,1.9A3.219,3.219,0,0,1,941.784,5477.591Zm.574-13.113q0-1.028,1.238-1.028t1.237,1.028a.965.965,0,0,1-.309.764,1.375,1.375,0,0,1-.928.272Q942.358,5465.514,942.358,5464.478Z" fill="#00223d"/>
          <path id="Trazado_5315" data-name="Trazado 5315" d="M954.688,5470.32a3.967,3.967,0,0,1-1.073,2.949,4.063,4.063,0,0,1-2.99,1.063,4.459,4.459,0,0,1-2.117-.487,3.356,3.356,0,0,1-1.409-1.4,4.412,4.412,0,0,1-.492-2.127,3.948,3.948,0,0,1,1.066-2.942,4.094,4.094,0,0,1,3-1.048,4.478,4.478,0,0,1,2.117.482,3.34,3.34,0,0,1,1.409,1.389A4.365,4.365,0,0,1,954.688,5470.32Zm-5.762,0a3.044,3.044,0,0,0,.406,1.733,1.494,1.494,0,0,0,1.323.587,1.468,1.468,0,0,0,1.308-.584,3.085,3.085,0,0,0,.4-1.736,3,3,0,0,0-.4-1.719,1.8,1.8,0,0,0-2.632,0A3,3,0,0,0,948.926,5470.32Z" fill="#00223d"/>
          <path id="Trazado_5316" data-name="Trazado 5316" d="M961.218,5466.33a4,4,0,0,1,.768.061l-.171,1.976a2.73,2.73,0,0,0-.671-.071,2.538,2.538,0,0,0-1.7.519,1.8,1.8,0,0,0-.608,1.45v3.929h-2.273v-7.72h1.722l.335,1.3h.112a2.991,2.991,0,0,1,1.047-1.047A2.727,2.727,0,0,1,961.218,5466.33Z" fill="#00223d"/>
          <path id="Trazado_5317" data-name="Trazado 5317" d="M968.792,5474.194l-.44-1.05h-.06a3.325,3.325,0,0,1-1.181.93,4.1,4.1,0,0,1-1.584.258,2.679,2.679,0,0,1-1.89-.635,2.336,2.336,0,0,1-.689-1.809,1.985,1.985,0,0,1,.928-1.812,5.69,5.69,0,0,1,2.8-.647l1.446-.041v-.338q0-1.174-1.3-1.173a6.282,6.282,0,0,0-2.348.558l-.753-1.422a7.209,7.209,0,0,1,3.19-.7,4.2,4.2,0,0,1,2.572.676,2.414,2.414,0,0,1,.9,2.058v5.144Zm-.671-3.577-.88.027a3,3,0,0,0-1.476.332,1.019,1.019,0,0,0-.484.926q0,.891,1.1.891a1.833,1.833,0,0,0,1.264-.422,1.427,1.427,0,0,0,.473-1.119Z" fill="#00223d"/>
          <path id="Trazado_5318" data-name="Trazado 5318" d="M977.372,5466.33a4,4,0,0,1,.768.061l-.172,1.976a2.724,2.724,0,0,0-.671-.071,2.536,2.536,0,0,0-1.7.519,1.8,1.8,0,0,0-.608,1.45v3.929H972.72v-7.72h1.722l.336,1.3h.112a2.991,2.991,0,0,1,1.047-1.047A2.727,2.727,0,0,1,977.372,5466.33Z" fill="#00223d"/>
        </g>
      </g>
      <g id="Grupo_11019" data-name="Grupo 11019">
        <g id="Grupo_11018" data-name="Grupo 11018">
          <path id="Trazado_5319" data-name="Trazado 5319" d="M899.4,5517.669a5.524,5.524,0,0,1-1.657,4.325,6.882,6.882,0,0,1-4.77,1.5h-3.416v-11.422h3.779a6.334,6.334,0,0,1,4.47,1.476A5.344,5.344,0,0,1,899.4,5517.669Zm-1.518.047a4.4,4.4,0,0,0-1.211-3.367,5.092,5.092,0,0,0-3.6-1.133h-2.083v9.125h1.746a5.57,5.57,0,0,0,3.854-1.168A4.419,4.419,0,0,0,897.886,5517.716Z" fill="#00223d"/>
          <path id="Trazado_5320" data-name="Trazado 5320" d="M905.848,5523.646a4.434,4.434,0,0,1-3.235-1.156,4.278,4.278,0,0,1-1.185-3.211,4.721,4.721,0,0,1,1.1-3.289,3.784,3.784,0,0,1,2.956-1.219,3.629,3.629,0,0,1,2.75,1.059,3.877,3.877,0,0,1,1.012,2.793v.82h-6.368a3.237,3.237,0,0,0,.822,2.289,2.968,2.968,0,0,0,2.2.781,7.923,7.923,0,0,0,2.952-.578v1.156a7.619,7.619,0,0,1-1.4.426A8.5,8.5,0,0,1,905.848,5523.646Zm-.38-7.789a2.383,2.383,0,0,0-1.775.672,2.973,2.973,0,0,0-.78,1.859h4.833a2.711,2.711,0,0,0-.591-1.879A2.166,2.166,0,0,0,905.468,5515.857Z" fill="#00223d"/>
          <path id="Trazado_5321" data-name="Trazado 5321" d="M923.416,5523.49v-5.571a2.2,2.2,0,0,0-.472-1.535,1.91,1.91,0,0,0-1.467-.511,2.471,2.471,0,0,0-1.932.695,3.137,3.137,0,0,0-.624,2.141v4.781h-1.4v-5.571a2.2,2.2,0,0,0-.472-1.535,1.923,1.923,0,0,0-1.476-.511,2.38,2.38,0,0,0-1.928.73,3.736,3.736,0,0,0-.611,2.4v4.492h-1.4v-8.563h1.138L913,5516.1h.068a2.671,2.671,0,0,1,1.117-.976,3.631,3.631,0,0,1,1.615-.352,2.787,2.787,0,0,1,2.834,1.453h.068a2.867,2.867,0,0,1,1.2-1.062,3.961,3.961,0,0,1,1.788-.391,3.288,3.288,0,0,1,2.349.746,3.18,3.18,0,0,1,.781,2.387v5.586Z" fill="#00223d"/>
          <path id="Trazado_5322" data-name="Trazado 5322" d="M935.68,5519.2a4.5,4.5,0,0,1-1.139,3.269,4.171,4.171,0,0,1-3.146,1.176,4.43,4.43,0,0,1-2.2-.539,3.658,3.658,0,0,1-1.484-1.547,5.046,5.046,0,0,1-.523-2.359,4.5,4.5,0,0,1,1.13-3.262,4.167,4.167,0,0,1,3.137-1.168,4.064,4.064,0,0,1,3.083,1.195A4.487,4.487,0,0,1,935.68,5519.2Zm-7.043,0a3.849,3.849,0,0,0,.709,2.5,2.966,2.966,0,0,0,4.171,0,3.829,3.829,0,0,0,.712-2.5,3.771,3.771,0,0,0-.712-2.481,2.6,2.6,0,0,0-2.105-.847,2.555,2.555,0,0,0-2.075.836A3.811,3.811,0,0,0,928.637,5519.2Z" fill="#00223d"/>
          <path id="Trazado_5323" data-name="Trazado 5323" d="M944.1,5521.154a2.093,2.093,0,0,1-.961,1.844,4.788,4.788,0,0,1-2.7.648,6.272,6.272,0,0,1-2.868-.539v-1.2a7.2,7.2,0,0,0,1.43.492,6.347,6.347,0,0,0,1.472.18,3.566,3.566,0,0,0,1.687-.324,1.072,1.072,0,0,0,.122-1.844,7.64,7.64,0,0,0-1.826-.84,10.26,10.26,0,0,1-1.835-.777,2.424,2.424,0,0,1-.809-.754,1.859,1.859,0,0,1-.266-1.008,1.883,1.883,0,0,1,.919-1.652,4.553,4.553,0,0,1,2.522-.606,7.894,7.894,0,0,1,2.919.563l-.5,1.054a7.179,7.179,0,0,0-2.522-.531,3.111,3.111,0,0,0-1.5.289.885.885,0,0,0-.506.8.919.919,0,0,0,.189.586,1.839,1.839,0,0,0,.612.461,14.217,14.217,0,0,0,1.619.633,6.225,6.225,0,0,1,2.223,1.117A1.891,1.891,0,0,1,944.1,5521.154Z" fill="#00223d"/>
          <path id="Trazado_5324" data-name="Trazado 5324" d="M949.361,5522.576a4.741,4.741,0,0,0,.716-.051,4.375,4.375,0,0,0,.549-.106v.993a2.707,2.707,0,0,1-.671.168,5.332,5.332,0,0,1-.8.066q-2.682,0-2.682-2.617v-5.094h-1.324v-.625l1.324-.539.59-1.828h.81v1.984h2.682v1.008h-2.682v5.039a1.647,1.647,0,0,0,.4,1.188A1.43,1.43,0,0,0,949.361,5522.576Z" fill="#00223d"/>
          <path id="Trazado_5325" data-name="Trazado 5325" d="M956.69,5514.771a5.822,5.822,0,0,1,1.1.094l-.194,1.2a5.171,5.171,0,0,0-1.012-.117,2.546,2.546,0,0,0-1.919.843,2.946,2.946,0,0,0-.8,2.1v4.594h-1.4v-8.563h1.155l.161,1.586h.067a3.892,3.892,0,0,1,1.24-1.289A2.956,2.956,0,0,1,956.69,5514.771Z" fill="#00223d"/>
          <path id="Trazado_5326" data-name="Trazado 5326" d="M965.209,5523.49l-.279-1.219h-.067a3.825,3.825,0,0,1-1.379,1.09,4.508,4.508,0,0,1-1.717.285,3.253,3.253,0,0,1-2.155-.656,2.3,2.3,0,0,1-.78-1.867q0-2.594,4.479-2.719l1.569-.047v-.531a2.062,2.062,0,0,0-.469-1.489,2.018,2.018,0,0,0-1.5-.48,6.492,6.492,0,0,0-2.614.656l-.43-.992a7.146,7.146,0,0,1,3.129-.734,3.715,3.715,0,0,1,2.45.679,2.718,2.718,0,0,1,.8,2.18v5.844Zm-3.163-.914a2.978,2.978,0,0,0,2.053-.664,2.359,2.359,0,0,0,.747-1.86v-.773l-1.4.055a5.446,5.446,0,0,0-2.408.48,1.426,1.426,0,0,0-.738,1.324,1.291,1.291,0,0,0,.459,1.071A2.007,2.007,0,0,0,962.046,5522.576Z" fill="#00223d"/>
          <path id="Trazado_5327" data-name="Trazado 5327" d="M973.348,5514.771a5.829,5.829,0,0,1,1.1.094l-.194,1.2a5.172,5.172,0,0,0-1.013-.117,2.545,2.545,0,0,0-1.918.843,2.942,2.942,0,0,0-.8,2.1v4.594h-1.4v-8.563h1.155l.16,1.586h.068a3.893,3.893,0,0,1,1.24-1.289A2.955,2.955,0,0,1,973.348,5514.771Z" fill="#00223d"/>
          <path id="Trazado_5328" data-name="Trazado 5328" d="M984.363,5523.646a4.108,4.108,0,0,1-3.108-1.144,4.48,4.48,0,0,1-1.1-3.239,4.623,4.623,0,0,1,1.118-3.32,4.193,4.193,0,0,1,3.184-1.172,6.846,6.846,0,0,1,1.332.133,4.8,4.8,0,0,1,1.046.312l-.43,1.1a7.243,7.243,0,0,0-1.012-.285,4.974,4.974,0,0,0-.97-.114q-2.817,0-2.817,3.329a3.746,3.746,0,0,0,.687,2.421,2.471,2.471,0,0,0,2.037.844,6.62,6.62,0,0,0,2.37-.461v1.149A5.39,5.39,0,0,1,984.363,5523.646Z" fill="#00223d"/>
          <path id="Trazado_5329" data-name="Trazado 5329" d="M996.871,5519.2a4.5,4.5,0,0,1-1.139,3.269,4.172,4.172,0,0,1-3.146,1.176,4.429,4.429,0,0,1-2.2-.539,3.666,3.666,0,0,1-1.485-1.547,5.058,5.058,0,0,1-.522-2.359,4.5,4.5,0,0,1,1.13-3.262,4.167,4.167,0,0,1,3.137-1.168,4.065,4.065,0,0,1,3.083,1.195A4.487,4.487,0,0,1,996.871,5519.2Zm-7.043,0a3.843,3.843,0,0,0,.709,2.5,2.965,2.965,0,0,0,4.17,0,3.823,3.823,0,0,0,.713-2.5,3.765,3.765,0,0,0-.713-2.481,2.594,2.594,0,0,0-2.1-.847,2.553,2.553,0,0,0-2.075.836A3.8,3.8,0,0,0,989.828,5519.2Z" fill="#00223d"/>
          <path id="Trazado_5330" data-name="Trazado 5330" d="M1005.651,5523.49v-5.539a2.128,2.128,0,0,0-.515-1.563,2.194,2.194,0,0,0-1.611-.515,2.776,2.776,0,0,0-2.125.726,3.474,3.474,0,0,0-.675,2.4v4.492h-1.4v-8.563h1.139l.228,1.172h.067a2.8,2.8,0,0,1,1.206-.98,4.2,4.2,0,0,1,1.729-.348,3.7,3.7,0,0,1,2.514.746,3.036,3.036,0,0,1,.843,2.387v5.586Z" fill="#00223d"/>
          <path id="Trazado_5331" data-name="Trazado 5331" d="M890.59,5530.186a.823.823,0,0,1,.236-.652.927.927,0,0,1,1.173,0,.808.808,0,0,1,.244.648.821.821,0,0,1-.244.652.906.906,0,0,1-1.173,0A.839.839,0,0,1,890.59,5530.186Zm1.518,10.883h-1.4v-8.563h1.4Z" fill="#00223d"/>
          <path id="Trazado_5332" data-name="Trazado 5332" d="M901.4,5541.069v-5.539a2.13,2.13,0,0,0-.515-1.563,2.2,2.2,0,0,0-1.611-.515,2.774,2.774,0,0,0-2.125.726,3.473,3.473,0,0,0-.675,2.4v4.492h-1.4v-8.563h1.139l.228,1.172h.067a2.8,2.8,0,0,1,1.206-.98,4.172,4.172,0,0,1,1.729-.348,3.7,3.7,0,0,1,2.514.746,3.034,3.034,0,0,1,.843,2.387v5.586Z" fill="#00223d"/>
          <path id="Trazado_5333" data-name="Trazado 5333" d="M911.971,5539.92H911.9a3.381,3.381,0,0,1-2.9,1.305,3.56,3.56,0,0,1-2.822-1.148,4.8,4.8,0,0,1-1.007-3.266,4.875,4.875,0,0,1,1.012-3.289,3.525,3.525,0,0,1,2.817-1.172,3.463,3.463,0,0,1,2.884,1.266h.11l-.059-.617-.034-.6v-3.484h1.4v12.156h-1.138Zm-2.8.219a2.662,2.662,0,0,0,2.079-.722,3.455,3.455,0,0,0,.645-2.332v-.274a4.06,4.06,0,0,0-.653-2.6,2.582,2.582,0,0,0-2.088-.777,2.2,2.2,0,0,0-1.885.887,4.156,4.156,0,0,0-.654,2.5,3.988,3.988,0,0,0,.65,2.476A2.265,2.265,0,0,0,909.171,5540.139Z" fill="#00223d"/>
          <path id="Trazado_5334" data-name="Trazado 5334" d="M916.146,5530.186a.822.822,0,0,1,.236-.652.927.927,0,0,1,1.173,0,.808.808,0,0,1,.244.648.821.821,0,0,1-.244.652.852.852,0,0,1-.582.215.781.781,0,0,1-.827-.867Zm1.518,10.883h-1.4v-8.563h1.4Z" fill="#00223d"/>
          <path id="Trazado_5335" data-name="Trazado 5335" d="M924.327,5541.225a4.115,4.115,0,0,1-3.108-1.144,4.485,4.485,0,0,1-1.1-3.239,4.621,4.621,0,0,1,1.117-3.32,4.193,4.193,0,0,1,3.184-1.172,6.788,6.788,0,0,1,1.333.133,4.663,4.663,0,0,1,1.046.312l-.431,1.1a7.009,7.009,0,0,0-1.012-.285,4.916,4.916,0,0,0-.97-.113q-2.817,0-2.817,3.328a3.747,3.747,0,0,0,.688,2.422,2.473,2.473,0,0,0,2.037.843,6.64,6.64,0,0,0,2.37-.461v1.149A5.391,5.391,0,0,1,924.327,5541.225Z" fill="#00223d"/>
          <path id="Trazado_5336" data-name="Trazado 5336" d="M934.541,5541.069l-.278-1.219H934.2a3.828,3.828,0,0,1-1.379,1.09,4.5,4.5,0,0,1-1.716.285,3.248,3.248,0,0,1-2.155-.656,2.3,2.3,0,0,1-.78-1.867q0-2.595,4.479-2.719l1.568-.047v-.531a2.061,2.061,0,0,0-.468-1.488,2.014,2.014,0,0,0-1.5-.481,6.494,6.494,0,0,0-2.615.656l-.43-.992a6.914,6.914,0,0,1,1.5-.539,6.994,6.994,0,0,1,1.632-.195,3.717,3.717,0,0,1,2.451.679,2.719,2.719,0,0,1,.8,2.18v5.844Zm-3.163-.914a2.985,2.985,0,0,0,2.054-.664,2.361,2.361,0,0,0,.747-1.86v-.773l-1.4.055a5.422,5.422,0,0,0-2.408.48,1.423,1.423,0,0,0-.738,1.324,1.292,1.292,0,0,0,.46,1.071A2.01,2.01,0,0,0,931.378,5540.155Z" fill="#00223d"/>
          <path id="Trazado_5337" data-name="Trazado 5337" d="M942.157,5541.225a4.115,4.115,0,0,1-3.108-1.144,4.489,4.489,0,0,1-1.1-3.239,4.621,4.621,0,0,1,1.117-3.32,4.194,4.194,0,0,1,3.184-1.172,6.781,6.781,0,0,1,1.333.133,4.648,4.648,0,0,1,1.046.312l-.431,1.1a7.01,7.01,0,0,0-1.012-.285,4.907,4.907,0,0,0-.97-.113q-2.817,0-2.817,3.328a3.747,3.747,0,0,0,.688,2.422,2.473,2.473,0,0,0,2.037.843,6.641,6.641,0,0,0,2.37-.461v1.149A5.391,5.391,0,0,1,942.157,5541.225Z" fill="#00223d"/>
          <path id="Trazado_5338" data-name="Trazado 5338" d="M946.568,5530.186a.819.819,0,0,1,.237-.652.926.926,0,0,1,1.172,0,.809.809,0,0,1,.245.648.821.821,0,0,1-.245.652.849.849,0,0,1-.582.215.782.782,0,0,1-.827-.867Zm1.519,10.883h-1.4v-8.563h1.4Z" fill="#00223d"/>
          <path id="Trazado_5339" data-name="Trazado 5339" d="M959.034,5536.78a4.5,4.5,0,0,1-1.138,3.269,4.171,4.171,0,0,1-3.146,1.176,4.431,4.431,0,0,1-2.2-.539,3.658,3.658,0,0,1-1.484-1.547,5.051,5.051,0,0,1-.523-2.359,4.5,4.5,0,0,1,1.13-3.262,4.166,4.166,0,0,1,3.138-1.168,4.067,4.067,0,0,1,3.082,1.195A4.486,4.486,0,0,1,959.034,5536.78Zm-7.042,0a3.845,3.845,0,0,0,.708,2.5,2.966,2.966,0,0,0,4.171,0,3.831,3.831,0,0,0,.713-2.5,3.769,3.769,0,0,0-.713-2.481,2.594,2.594,0,0,0-2.1-.847,2.549,2.549,0,0,0-2.075.836A3.8,3.8,0,0,0,951.992,5536.78Z" fill="#00223d"/>
          <path id="Trazado_5340" data-name="Trazado 5340" d="M967.814,5541.069v-5.539a2.129,2.129,0,0,0-.514-1.563,2.2,2.2,0,0,0-1.611-.515,2.773,2.773,0,0,0-2.125.726,3.473,3.473,0,0,0-.675,2.4v4.492h-1.4v-8.563h1.138l.228,1.172h.067a2.792,2.792,0,0,1,1.207-.98,4.169,4.169,0,0,1,1.729-.348,3.694,3.694,0,0,1,2.513.746,3.034,3.034,0,0,1,.843,2.387v5.586Z" fill="#00223d"/>
          <path id="Trazado_5341" data-name="Trazado 5341" d="M976,5541.225a4.437,4.437,0,0,1-3.235-1.156,4.279,4.279,0,0,1-1.185-3.211,4.722,4.722,0,0,1,1.1-3.289,3.785,3.785,0,0,1,2.956-1.219,3.625,3.625,0,0,1,2.75,1.059,3.875,3.875,0,0,1,1.012,2.793v.82h-6.368a3.239,3.239,0,0,0,.822,2.289,2.968,2.968,0,0,0,2.2.781,7.945,7.945,0,0,0,2.952-.578v1.156a7.783,7.783,0,0,1-1.4.426A8.5,8.5,0,0,1,976,5541.225Zm-.38-7.789a2.379,2.379,0,0,0-1.775.672,2.973,2.973,0,0,0-.781,1.859h4.833a2.712,2.712,0,0,0-.59-1.879A2.162,2.162,0,0,0,975.616,5533.436Z" fill="#00223d"/>
          <path id="Trazado_5342" data-name="Trazado 5342" d="M987.745,5538.733a2.1,2.1,0,0,1-.962,1.844,4.8,4.8,0,0,1-2.7.648,6.264,6.264,0,0,1-2.867-.539v-1.2a7.322,7.322,0,0,0,1.429.492,6.406,6.406,0,0,0,1.472.18,3.579,3.579,0,0,0,1.687-.324,1.059,1.059,0,0,0,.59-.989,1.048,1.048,0,0,0-.468-.855,7.624,7.624,0,0,0-1.826-.84,10.32,10.32,0,0,1-1.834-.777,2.428,2.428,0,0,1-.81-.754,1.854,1.854,0,0,1-.266-1.008,1.882,1.882,0,0,1,.92-1.652,4.535,4.535,0,0,1,2.521-.606,7.89,7.89,0,0,1,2.919.563l-.5,1.054a7.152,7.152,0,0,0-2.522-.531,3.1,3.1,0,0,0-1.5.289.885.885,0,0,0-.506.8.916.916,0,0,0,.19.586,1.849,1.849,0,0,0,.611.461,14.635,14.635,0,0,0,1.62.633,6.2,6.2,0,0,1,2.222,1.117A1.893,1.893,0,0,1,987.745,5538.733Z" fill="#00223d"/>
          <path id="Trazado_5343" data-name="Trazado 5343" d="M998.414,5541.225a4.436,4.436,0,0,1-3.234-1.156,4.275,4.275,0,0,1-1.185-3.211,4.722,4.722,0,0,1,1.1-3.289,3.785,3.785,0,0,1,2.956-1.219,3.624,3.624,0,0,1,2.75,1.059,3.871,3.871,0,0,1,1.012,2.793v.82h-6.368a3.236,3.236,0,0,0,.823,2.289,2.967,2.967,0,0,0,2.2.781,7.949,7.949,0,0,0,2.952-.578v1.156a7.768,7.768,0,0,1-1.4.426A8.5,8.5,0,0,1,998.414,5541.225Zm-.379-7.789a2.382,2.382,0,0,0-1.776.672,2.978,2.978,0,0,0-.78,1.859h4.833a2.707,2.707,0,0,0-.591-1.879A2.16,2.16,0,0,0,998.035,5533.436Z" fill="#00223d"/>
          <path id="Trazado_5344" data-name="Trazado 5344" d="M1005.6,5541.069h-1.4v-12.156h1.4Z" fill="#00223d"/>
          <path id="Trazado_5345" data-name="Trazado 5345" d="M908.138,5557.5h-.076a3.387,3.387,0,0,1-2.9,1.3,3.557,3.557,0,0,1-2.821-1.148,4.8,4.8,0,0,1-1.008-3.266,4.877,4.877,0,0,1,1.012-3.289,3.524,3.524,0,0,1,2.817-1.172,3.466,3.466,0,0,1,2.885,1.266h.11l-.059-.617-.034-.6v-3.484h1.4v12.156h-1.139Zm-2.8.218a2.665,2.665,0,0,0,2.08-.722,3.459,3.459,0,0,0,.645-2.332v-.274a4.046,4.046,0,0,0-.654-2.6,2.578,2.578,0,0,0-2.087-.778,2.2,2.2,0,0,0-1.885.887,4.158,4.158,0,0,0-.654,2.5,3.984,3.984,0,0,0,.649,2.476A2.268,2.268,0,0,0,905.337,5557.718Z" fill="#00223d"/>
          <path id="Trazado_5346" data-name="Trazado 5346" d="M916.336,5558.8a4.438,4.438,0,0,1-3.235-1.156,4.281,4.281,0,0,1-1.185-3.211,4.72,4.72,0,0,1,1.1-3.289,3.785,3.785,0,0,1,2.956-1.219,3.627,3.627,0,0,1,2.75,1.059,3.872,3.872,0,0,1,1.012,2.793v.82h-6.368a3.241,3.241,0,0,0,.822,2.289,2.968,2.968,0,0,0,2.2.781,7.952,7.952,0,0,0,2.952-.578v1.157a7.884,7.884,0,0,1-1.4.425A8.453,8.453,0,0,1,916.336,5558.8Zm-.38-7.789a2.377,2.377,0,0,0-1.775.672,2.963,2.963,0,0,0-.78,1.859h4.833a2.7,2.7,0,0,0-.591-1.878A2.154,2.154,0,0,0,915.956,5551.015Z" fill="#00223d"/>
          <path id="Trazado_5347" data-name="Trazado 5347" d="M928.085,5556.312a2.1,2.1,0,0,1-.962,1.844,4.8,4.8,0,0,1-2.7.648,6.257,6.257,0,0,1-2.867-.539v-1.2a7.319,7.319,0,0,0,1.429.492,6.487,6.487,0,0,0,1.472.18,3.567,3.567,0,0,0,1.687-.324,1.059,1.059,0,0,0,.59-.989,1.045,1.045,0,0,0-.468-.855,7.547,7.547,0,0,0-1.826-.84,10.4,10.4,0,0,1-1.834-.777,2.425,2.425,0,0,1-.81-.754,1.851,1.851,0,0,1-.266-1.008,1.881,1.881,0,0,1,.92-1.652,4.53,4.53,0,0,1,2.522-.606,7.884,7.884,0,0,1,2.918.563l-.5,1.054a7.148,7.148,0,0,0-2.522-.531,3.086,3.086,0,0,0-1.5.289.885.885,0,0,0-.506.8.92.92,0,0,0,.19.586,1.848,1.848,0,0,0,.611.461,14.567,14.567,0,0,0,1.62.633,6.186,6.186,0,0,1,2.222,1.117A1.892,1.892,0,0,1,928.085,5556.312Z" fill="#00223d"/>
          <path id="Trazado_5348" data-name="Trazado 5348" d="M934.267,5558.8a4.436,4.436,0,0,1-3.234-1.156,4.281,4.281,0,0,1-1.185-3.211,4.72,4.72,0,0,1,1.1-3.289,3.785,3.785,0,0,1,2.956-1.219,3.625,3.625,0,0,1,2.75,1.059,3.872,3.872,0,0,1,1.012,2.793v.82H931.3a3.237,3.237,0,0,0,.823,2.289,2.967,2.967,0,0,0,2.2.781,7.96,7.96,0,0,0,2.952-.578v1.157a7.916,7.916,0,0,1-1.405.425A8.452,8.452,0,0,1,934.267,5558.8Zm-.379-7.789a2.38,2.38,0,0,0-1.776.672,2.974,2.974,0,0,0-.78,1.859h4.833a2.7,2.7,0,0,0-.591-1.878A2.153,2.153,0,0,0,933.888,5551.015Z" fill="#00223d"/>
          <path id="Trazado_5349" data-name="Trazado 5349" d="M951.836,5558.648v-5.57a2.19,2.19,0,0,0-.473-1.535,1.9,1.9,0,0,0-1.467-.512,2.469,2.469,0,0,0-1.932.7,3.13,3.13,0,0,0-.624,2.141v4.781h-1.4v-5.57a2.19,2.19,0,0,0-.472-1.535,1.917,1.917,0,0,0-1.476-.512,2.372,2.372,0,0,0-1.927.73,3.726,3.726,0,0,0-.612,2.395v4.492h-1.4v-8.563h1.139l.228,1.172h.067a2.674,2.674,0,0,1,1.117-.976,3.635,3.635,0,0,1,1.616-.352,2.79,2.79,0,0,1,2.834,1.453h.067a2.858,2.858,0,0,1,1.2-1.062,3.954,3.954,0,0,1,1.788-.391,3.279,3.279,0,0,1,2.349.746,3.178,3.178,0,0,1,.78,2.387v5.586Z" fill="#00223d"/>
          <path id="Trazado_5350" data-name="Trazado 5350" d="M960.422,5558.8a4.288,4.288,0,0,1-1.649-.308,3.071,3.071,0,0,1-1.253-.95h-.1a10.566,10.566,0,0,1,.1,1.422v3.524h-1.4v-12.407h1.139l.194,1.172h.067a3.2,3.2,0,0,1,1.257-1.015,4.07,4.07,0,0,1,1.645-.313,3.536,3.536,0,0,1,2.838,1.164,5.816,5.816,0,0,1-.017,6.543A3.541,3.541,0,0,1,960.422,5558.8Zm-.2-7.773a2.587,2.587,0,0,0-2.049.726,3.542,3.542,0,0,0-.65,2.313v.289a4.043,4.043,0,0,0,.65,2.582,2.567,2.567,0,0,0,2.083.777,2.223,2.223,0,0,0,1.877-.9,4.03,4.03,0,0,0,.679-2.477,3.878,3.878,0,0,0-.679-2.457A2.3,2.3,0,0,0,960.219,5551.031Z" fill="#00223d"/>
          <path id="Trazado_5351" data-name="Trazado 5351" d="M970.611,5558.8a4.437,4.437,0,0,1-3.235-1.156,4.281,4.281,0,0,1-1.185-3.211,4.72,4.72,0,0,1,1.1-3.289,3.784,3.784,0,0,1,2.956-1.219,3.623,3.623,0,0,1,2.749,1.059,3.872,3.872,0,0,1,1.013,2.793v.82h-6.368a3.241,3.241,0,0,0,.822,2.289,2.968,2.968,0,0,0,2.2.781,7.96,7.96,0,0,0,2.952-.578v1.157a7.931,7.931,0,0,1-1.4.425A8.459,8.459,0,0,1,970.611,5558.8Zm-.38-7.789a2.377,2.377,0,0,0-1.775.672,2.969,2.969,0,0,0-.781,1.859h4.833a2.706,2.706,0,0,0-.59-1.878A2.156,2.156,0,0,0,970.231,5551.015Z" fill="#00223d"/>
          <path id="Trazado_5352" data-name="Trazado 5352" d="M982.722,5558.648v-5.539a2.129,2.129,0,0,0-.514-1.563,2.2,2.2,0,0,0-1.611-.515,2.778,2.778,0,0,0-2.126.726,3.475,3.475,0,0,0-.674,2.4v4.492h-1.4v-8.563h1.138l.228,1.172h.067a2.8,2.8,0,0,1,1.206-.98,4.168,4.168,0,0,1,1.729-.348,3.69,3.69,0,0,1,2.514.746,3.035,3.035,0,0,1,.843,2.387v5.586Zm-1.046-9.711a1.84,1.84,0,0,1-.708-.144q-.347-.146-.679-.321t-.641-.32a1.394,1.394,0,0,0-.6-.145.82.82,0,0,0-.637.235,1.616,1.616,0,0,0-.333.711h-.826a2.588,2.588,0,0,1,.594-1.481,1.614,1.614,0,0,1,1.253-.535,2,2,0,0,1,.751.145,6.625,6.625,0,0,1,.691.32q.328.176.633.32a1.345,1.345,0,0,0,.573.145.776.776,0,0,0,.616-.231,1.762,1.762,0,0,0,.329-.715h.835a2.633,2.633,0,0,1-.586,1.481A1.62,1.62,0,0,1,981.676,5548.937Z" fill="#00223d"/>
          <path id="Trazado_5353" data-name="Trazado 5353" d="M994.977,5554.359a4.5,4.5,0,0,1-1.138,3.269,4.174,4.174,0,0,1-3.146,1.176,4.42,4.42,0,0,1-2.2-.539,3.659,3.659,0,0,1-1.484-1.547,5.052,5.052,0,0,1-.523-2.359,4.5,4.5,0,0,1,1.13-3.262,4.161,4.161,0,0,1,3.138-1.168,4.064,4.064,0,0,1,3.082,1.2A4.483,4.483,0,0,1,994.977,5554.359Zm-7.042,0a3.845,3.845,0,0,0,.708,2.5,2.966,2.966,0,0,0,4.171,0,3.825,3.825,0,0,0,.713-2.5,3.767,3.767,0,0,0-.713-2.481,2.594,2.594,0,0,0-2.1-.847,2.549,2.549,0,0,0-2.075.836A3.8,3.8,0,0,0,987.935,5554.359Z" fill="#00223d"/>
          <path id="Trazado_5354" data-name="Trazado 5354" d="M914.826,5576.226l-.278-1.219h-.068a3.809,3.809,0,0,1-1.379,1.09,4.5,4.5,0,0,1-1.716.285,3.243,3.243,0,0,1-2.155-.656,2.3,2.3,0,0,1-.78-1.867q0-2.594,4.478-2.719l1.569-.047v-.531a2.061,2.061,0,0,0-.468-1.488,2.012,2.012,0,0,0-1.5-.481,6.483,6.483,0,0,0-2.615.657l-.43-.993a7.146,7.146,0,0,1,3.129-.734,3.712,3.712,0,0,1,2.45.68,2.711,2.711,0,0,1,.8,2.179v5.844Zm-3.163-.914a2.98,2.98,0,0,0,2.054-.664,2.357,2.357,0,0,0,.746-1.859v-.774l-1.4.055a5.456,5.456,0,0,0-2.408.48,1.425,1.425,0,0,0-.738,1.325,1.289,1.289,0,0,0,.46,1.07A2.008,2.008,0,0,0,911.663,5575.312Z" fill="#00223d"/>
          <path id="Trazado_5355" data-name="Trazado 5355" d="M930.531,5576.226v-5.57a2.193,2.193,0,0,0-.473-1.535,1.905,1.905,0,0,0-1.467-.512,2.471,2.471,0,0,0-1.932.7,3.133,3.133,0,0,0-.624,2.141v4.781h-1.4v-5.57a2.193,2.193,0,0,0-.472-1.535,1.918,1.918,0,0,0-1.476-.512,2.377,2.377,0,0,0-1.927.73,3.733,3.733,0,0,0-.612,2.4v4.492h-1.4v-8.562h1.139l.227,1.171h.068a2.677,2.677,0,0,1,1.117-.976,3.648,3.648,0,0,1,1.616-.352,2.787,2.787,0,0,1,2.833,1.453h.068a2.871,2.871,0,0,1,1.2-1.062,3.967,3.967,0,0,1,1.788-.391,3.284,3.284,0,0,1,2.349.746,3.181,3.181,0,0,1,.78,2.387v5.586Z" fill="#00223d"/>
          <path id="Trazado_5356" data-name="Trazado 5356" d="M939.117,5567.523a3.566,3.566,0,0,1,2.83,1.152,5.785,5.785,0,0,1-.009,6.539,3.536,3.536,0,0,1-2.821,1.168,4.3,4.3,0,0,1-1.649-.308,3.055,3.055,0,0,1-1.252-.949h-.1l-.3,1.1h-1V5564.07h1.4v2.953q0,.993-.068,1.781h.068A3.425,3.425,0,0,1,939.117,5567.523Zm-.2,1.086a2.542,2.542,0,0,0-2.067.762,5.492,5.492,0,0,0,.017,5.148,2.564,2.564,0,0,0,2.083.777,2.217,2.217,0,0,0,1.923-.871,4.213,4.213,0,0,0,.633-2.5,4.054,4.054,0,0,0-.633-2.492A2.312,2.312,0,0,0,938.915,5568.609Z" fill="#00223d"/>
          <path id="Trazado_5357" data-name="Trazado 5357" d="M945.282,5565.343a.823.823,0,0,1,.237-.652.926.926,0,0,1,1.172,0,.81.81,0,0,1,.245.648.825.825,0,0,1-.245.653.852.852,0,0,1-.582.214.781.781,0,0,1-.827-.867Zm1.519,10.883h-1.4v-8.562h1.4Z" fill="#00223d"/>
          <path id="Trazado_5358" data-name="Trazado 5358" d="M953.675,5576.382a4.428,4.428,0,0,1-3.235-1.156,4.279,4.279,0,0,1-1.185-3.211,4.723,4.723,0,0,1,1.1-3.289,3.789,3.789,0,0,1,2.956-1.219,3.625,3.625,0,0,1,2.749,1.059,3.874,3.874,0,0,1,1.013,2.793v.82h-6.368a3.236,3.236,0,0,0,.822,2.289,2.963,2.963,0,0,0,2.2.782,7.938,7.938,0,0,0,2.952-.579v1.157a7.772,7.772,0,0,1-1.4.425A8.5,8.5,0,0,1,953.675,5576.382Zm-.38-7.789a2.381,2.381,0,0,0-1.775.672,2.977,2.977,0,0,0-.781,1.86h4.833a2.71,2.71,0,0,0-.59-1.879A2.159,2.159,0,0,0,953.295,5568.593Z" fill="#00223d"/>
          <path id="Trazado_5359" data-name="Trazado 5359" d="M965.786,5576.226v-5.539a2.126,2.126,0,0,0-.514-1.562,2.194,2.194,0,0,0-1.611-.516,2.779,2.779,0,0,0-2.126.726,3.481,3.481,0,0,0-.674,2.4v4.492h-1.4v-8.562H960.6l.228,1.171h.067a2.809,2.809,0,0,1,1.207-.98,4.192,4.192,0,0,1,1.729-.348,3.694,3.694,0,0,1,2.513.746,3.038,3.038,0,0,1,.843,2.387v5.586Z" fill="#00223d"/>
          <path id="Trazado_5360" data-name="Trazado 5360" d="M973.048,5575.312a4.953,4.953,0,0,0,.717-.051,4.654,4.654,0,0,0,.548-.105v.992a2.729,2.729,0,0,1-.67.168,5.465,5.465,0,0,1-.8.066q-2.682,0-2.682-2.617v-5.094H968.84v-.625l1.324-.539.59-1.828h.81v1.985h2.682v1.007h-2.682v5.039a1.65,1.65,0,0,0,.4,1.188A1.435,1.435,0,0,0,973.048,5575.312Z" fill="#00223d"/>
          <path id="Trazado_5361" data-name="Trazado 5361" d="M981.845,5576.226l-.278-1.219H981.5a3.809,3.809,0,0,1-1.379,1.09,4.5,4.5,0,0,1-1.716.285,3.245,3.245,0,0,1-2.155-.656,2.3,2.3,0,0,1-.78-1.867q0-2.594,4.479-2.719l1.568-.047v-.531a2.061,2.061,0,0,0-.468-1.488,2.012,2.012,0,0,0-1.5-.481,6.483,6.483,0,0,0-2.615.657l-.43-.993a7.146,7.146,0,0,1,3.129-.734,3.715,3.715,0,0,1,2.451.68,2.714,2.714,0,0,1,.8,2.179v5.844Zm-3.163-.914a2.981,2.981,0,0,0,2.054-.664,2.357,2.357,0,0,0,.747-1.859v-.774l-1.4.055a5.448,5.448,0,0,0-2.407.48,1.424,1.424,0,0,0-.739,1.325,1.289,1.289,0,0,0,.46,1.07A2.01,2.01,0,0,0,978.682,5575.312Z" fill="#00223d"/>
          <path id="Trazado_5362" data-name="Trazado 5362" d="M987.167,5576.226h-1.4V5564.07h1.4Z" fill="#00223d"/>
        </g>
      </g>
    </g>
    <g id="Grupo_11025" data-name="Grupo 11025">
      <g id="Grupo_11022" data-name="Grupo 11022">
        <g id="Grupo_11021" data-name="Grupo 11021">
          <path id="Trazado_5363" data-name="Trazado 5363" d="M1093.063,5406.059a2.535,2.535,0,0,1-1.062,2.154,4.876,4.876,0,0,1-2.956.788,7.419,7.419,0,0,1-3.086-.608V5406.4a13.27,13.27,0,0,0,1.868.641,5.948,5.948,0,0,0,1.4.187,2.106,2.106,0,0,0,1.167-.27.9.9,0,0,0,.406-.8.84.84,0,0,0-.179-.529,1.96,1.96,0,0,0-.525-.445,13.987,13.987,0,0,0-1.413-.684,6.808,6.808,0,0,1-1.5-.835,3.2,3.2,0,0,1-.8-.932,2.5,2.5,0,0,1-.3-1.243,2.527,2.527,0,0,1,.98-2.106,4.3,4.3,0,0,1,2.71-.766,6.893,6.893,0,0,1,1.621.186,11.6,11.6,0,0,1,1.614.525l-.745,1.664a11.4,11.4,0,0,0-1.443-.462,4.969,4.969,0,0,0-1.122-.132,1.572,1.572,0,0,0-1.006.283.905.905,0,0,0-.35.739.862.862,0,0,0,.141.493,1.512,1.512,0,0,0,.451.408,14.35,14.35,0,0,0,1.465.708,5.826,5.826,0,0,1,2.095,1.357A2.519,2.519,0,0,1,1093.063,5406.059Z" fill="#00223d"/>
          <path id="Trazado_5364" data-name="Trazado 5364" d="M1099.176,5403.194h4.324v5.233a12.919,12.919,0,0,1-1.98.446,13.767,13.767,0,0,1-1.9.128,5.008,5.008,0,0,1-3.768-1.343,5.325,5.325,0,0,1-1.3-3.857,4.875,4.875,0,0,1,1.51-3.811,6.008,6.008,0,0,1,4.185-1.367,8.66,8.66,0,0,1,3.236.621l-.768,1.713a5.83,5.83,0,0,0-2.482-.553,3.185,3.185,0,0,0-2.4.932,3.454,3.454,0,0,0-.9,2.506,3.817,3.817,0,0,0,.727,2.511,2.6,2.6,0,0,0,2.113.866,8.164,8.164,0,0,0,1.469-.137v-2.107h-2.065Z" fill="#00223d"/>
          <path id="Trazado_5365" data-name="Trazado 5365" d="M1112.765,5408.863l-.79-2.4H1108l-.79,2.4h-2.49l3.847-10.137h2.825l3.861,10.137Zm-1.341-4.2q-1.1-3.267-1.234-3.695c-.092-.285-.158-.51-.2-.677q-.246.885-1.408,4.372Z" fill="#00223d"/>
        </g>
      </g>
      <g id="Grupo_11024" data-name="Grupo 11024">
        <g id="Grupo_11023" data-name="Grupo 11023">
          <path id="Trazado_5366" data-name="Trazado 5366" d="M1070.387,5446.737h3.483a6.994,6.994,0,0,1,3.551.68,2.342,2.342,0,0,1,1.1,2.148,2.368,2.368,0,0,1-.612,1.676,3.025,3.025,0,0,1-1.784.855v.078q2.81.446,2.809,2.735a2.842,2.842,0,0,1-1.118,2.39,5.013,5.013,0,0,1-3.125.86h-4.3Zm1.434,4.89h2.361a4.089,4.089,0,0,0,2.185-.441,1.65,1.65,0,0,0,.666-1.488,1.476,1.476,0,0,0-.742-1.387,4.959,4.959,0,0,0-2.362-.426h-2.108Zm0,1.125v4.274h2.572a3.886,3.886,0,0,0,2.248-.535,1.914,1.914,0,0,0,.755-1.676,1.729,1.729,0,0,0-.772-1.563,4.391,4.391,0,0,0-2.349-.5Z" fill="#00223d"/>
          <path id="Trazado_5367" data-name="Trazado 5367" d="M1087.053,5458.159l-.278-1.219h-.068a3.826,3.826,0,0,1-1.379,1.09,4.49,4.49,0,0,1-1.716.285,3.248,3.248,0,0,1-2.155-.656,2.305,2.305,0,0,1-.78-1.867q0-2.594,4.478-2.719l1.569-.047v-.531a2.067,2.067,0,0,0-.468-1.489,2.018,2.018,0,0,0-1.5-.48,6.492,6.492,0,0,0-2.615.656l-.43-.992a7.146,7.146,0,0,1,3.129-.734,3.715,3.715,0,0,1,2.45.679,2.715,2.715,0,0,1,.8,2.18v5.844Zm-3.163-.914a2.98,2.98,0,0,0,2.054-.664,2.362,2.362,0,0,0,.746-1.86v-.773l-1.4.054a5.469,5.469,0,0,0-2.408.481,1.424,1.424,0,0,0-.738,1.324,1.285,1.285,0,0,0,.46,1.07A2,2,0,0,0,1083.89,5457.245Z" fill="#00223d"/>
          <path id="Trazado_5368" data-name="Trazado 5368" d="M1089.853,5462a3.623,3.623,0,0,1-1.3-.195v-1.055a4.382,4.382,0,0,0,1.147.157,1.261,1.261,0,0,0,.966-.332,1.449,1.449,0,0,0,.308-1.012V5449.6h1.4v9.875A2.233,2.233,0,0,1,1089.853,5462Zm1-14.726a.825.825,0,0,1,.236-.652.928.928,0,0,1,1.172,0,.986.986,0,0,1,0,1.3.851.851,0,0,1-.582.215.78.78,0,0,1-.826-.867Z" fill="#00223d"/>
          <path id="Trazado_5369" data-name="Trazado 5369" d="M1103.323,5453.87a4.5,4.5,0,0,1-1.139,3.269,4.176,4.176,0,0,1-3.146,1.176,4.429,4.429,0,0,1-2.2-.539,3.666,3.666,0,0,1-1.485-1.547,5.061,5.061,0,0,1-.522-2.359,4.5,4.5,0,0,1,1.13-3.262,4.164,4.164,0,0,1,3.137-1.168,4.066,4.066,0,0,1,3.083,1.195A4.487,4.487,0,0,1,1103.323,5453.87Zm-7.043,0a3.843,3.843,0,0,0,.709,2.5,2.965,2.965,0,0,0,4.17,0,3.821,3.821,0,0,0,.713-2.5,3.765,3.765,0,0,0-.713-2.481,2.6,2.6,0,0,0-2.1-.847,2.557,2.557,0,0,0-2.075.835A3.814,3.814,0,0,0,1096.28,5453.87Z" fill="#00223d"/>
          <path id="Trazado_5370" data-name="Trazado 5370" d="M1111.664,5458.159h-1.4V5446h1.4Z" fill="#00223d"/>
          <path id="Trazado_5371" data-name="Trazado 5371" d="M1122.612,5453.87a4.5,4.5,0,0,1-1.138,3.269,4.178,4.178,0,0,1-3.146,1.176,4.431,4.431,0,0,1-2.2-.539,3.658,3.658,0,0,1-1.484-1.547,5.049,5.049,0,0,1-.523-2.359,4.5,4.5,0,0,1,1.13-3.262,4.164,4.164,0,0,1,3.138-1.168,4.063,4.063,0,0,1,3.082,1.195A4.487,4.487,0,0,1,1122.612,5453.87Zm-7.042,0a3.849,3.849,0,0,0,.708,2.5,2.966,2.966,0,0,0,4.171,0,3.827,3.827,0,0,0,.712-2.5,3.77,3.77,0,0,0-.712-2.481,2.6,2.6,0,0,0-2.1-.847,2.553,2.553,0,0,0-2.074.835A3.808,3.808,0,0,0,1115.57,5453.87Z" fill="#00223d"/>
          <path id="Trazado_5372" data-name="Trazado 5372" d="M1131.03,5455.823a2.094,2.094,0,0,1-.962,1.844,4.8,4.8,0,0,1-2.7.648,6.272,6.272,0,0,1-2.868-.539v-1.2a7.226,7.226,0,0,0,1.43.492,6.4,6.4,0,0,0,1.472.18,3.547,3.547,0,0,0,1.687-.325,1.071,1.071,0,0,0,.122-1.843,7.6,7.6,0,0,0-1.826-.84,10.332,10.332,0,0,1-1.835-.777,2.424,2.424,0,0,1-.809-.754,1.858,1.858,0,0,1-.266-1.008,1.889,1.889,0,0,1,.919-1.653,4.553,4.553,0,0,1,2.522-.6,7.889,7.889,0,0,1,2.919.562l-.5,1.055a7.175,7.175,0,0,0-2.522-.531,3.1,3.1,0,0,0-1.5.289.885.885,0,0,0-.506.8.924.924,0,0,0,.189.586,1.857,1.857,0,0,0,.612.461,14.217,14.217,0,0,0,1.619.633,6.2,6.2,0,0,1,2.223,1.117A1.891,1.891,0,0,1,1131.03,5455.823Z" fill="#00223d"/>
          <path id="Trazado_5373" data-name="Trazado 5373" d="M1044.506,5467.019a5.856,5.856,0,0,1,1.1.094l-.194,1.2a5.125,5.125,0,0,0-1.012-.117,2.545,2.545,0,0,0-1.919.844,2.941,2.941,0,0,0-.8,2.1v4.594h-1.4v-8.563h1.156l.16,1.586h.067a3.884,3.884,0,0,1,1.24-1.289A2.95,2.95,0,0,1,1044.506,5467.019Z" fill="#00223d"/>
          <path id="Trazado_5374" data-name="Trazado 5374" d="M1051.245,5475.894a4.436,4.436,0,0,1-3.234-1.156,4.279,4.279,0,0,1-1.185-3.211,4.726,4.726,0,0,1,1.1-3.289,3.787,3.787,0,0,1,2.957-1.219,3.623,3.623,0,0,1,2.749,1.059,3.871,3.871,0,0,1,1.012,2.793v.82h-6.368a3.244,3.244,0,0,0,.823,2.289,2.967,2.967,0,0,0,2.2.781,7.95,7.95,0,0,0,2.952-.578v1.156a7.743,7.743,0,0,1-1.4.426A8.516,8.516,0,0,1,1051.245,5475.894Zm-.379-7.789a2.382,2.382,0,0,0-1.776.672,2.979,2.979,0,0,0-.78,1.859h4.833a2.712,2.712,0,0,0-.59-1.879A2.163,2.163,0,0,0,1050.866,5468.1Z" fill="#00223d"/>
          <path id="Trazado_5375" data-name="Trazado 5375" d="M1060.312,5475.894a3.492,3.492,0,0,1-2.792-1.164,4.82,4.82,0,0,1-1-3.25,4.877,4.877,0,0,1,1.012-3.281,3.515,3.515,0,0,1,2.817-1.18,3.459,3.459,0,0,1,2.918,1.328h.076l.2-1.172h1.1v12.407h-1.4v-3.664a8.09,8.09,0,0,1,.093-1.329h-.11A3.4,3.4,0,0,1,1060.312,5475.894Zm.211-1.086a2.653,2.653,0,0,0,2.041-.7,3.569,3.569,0,0,0,.683-2.344v-.289a4.038,4.038,0,0,0-.658-2.586,2.561,2.561,0,0,0-2.083-.789,2.2,2.2,0,0,0-1.885.887,4.156,4.156,0,0,0-.654,2.5,4.013,4.013,0,0,0,.646,2.464A2.249,2.249,0,0,0,1060.523,5474.808Z" fill="#00223d"/>
          <path id="Trazado_5376" data-name="Trazado 5376" d="M1068.932,5467.175v5.555a2.128,2.128,0,0,0,.515,1.563,2.2,2.2,0,0,0,1.611.515,2.745,2.745,0,0,0,2.121-.734,3.507,3.507,0,0,0,.67-2.4v-4.5h1.4v8.563h-1.155l-.2-1.149h-.075a2.73,2.73,0,0,1-1.194.969,4.28,4.28,0,0,1-1.742.336,3.718,3.718,0,0,1-2.526-.742,3.019,3.019,0,0,1-.839-2.375v-5.6Z" fill="#00223d"/>
          <path id="Trazado_5377" data-name="Trazado 5377" d="M1078.1,5464.855a.822.822,0,0,1,.236-.652.927.927,0,0,1,1.173,0,.808.808,0,0,1,.244.648.821.821,0,0,1-.244.652.906.906,0,0,1-1.173,0A.838.838,0,0,1,1078.1,5464.855Zm1.518,10.883h-1.4v-8.563h1.4Z" fill="#00223d"/>
          <path id="Trazado_5378" data-name="Trazado 5378" d="M1088.55,5473.4a2.1,2.1,0,0,1-.961,1.844,4.8,4.8,0,0,1-2.7.648,6.272,6.272,0,0,1-2.868-.539v-1.2a7.329,7.329,0,0,0,1.43.492,6.4,6.4,0,0,0,1.471.18,3.575,3.575,0,0,0,1.687-.324,1.072,1.072,0,0,0,.123-1.844,7.585,7.585,0,0,0-1.826-.84,10.34,10.34,0,0,1-1.835-.777,2.438,2.438,0,0,1-.81-.754,1.856,1.856,0,0,1-.265-1.008,1.881,1.881,0,0,1,.919-1.652,4.545,4.545,0,0,1,2.522-.606,7.884,7.884,0,0,1,2.918.563l-.5,1.054a7.158,7.158,0,0,0-2.522-.531,3.107,3.107,0,0,0-1.5.289.884.884,0,0,0-.506.8.922.922,0,0,0,.19.586,1.854,1.854,0,0,0,.612.461,14.5,14.5,0,0,0,1.619.633,6.194,6.194,0,0,1,2.222,1.117A1.893,1.893,0,0,1,1088.55,5473.4Z" fill="#00223d"/>
          <path id="Trazado_5379" data-name="Trazado 5379" d="M1090.709,5464.855a.819.819,0,0,1,.237-.652.926.926,0,0,1,1.172,0,.809.809,0,0,1,.245.648.822.822,0,0,1-.245.652.849.849,0,0,1-.582.215.783.783,0,0,1-.827-.867Zm1.518,10.883h-1.4v-8.563h1.4Z" fill="#00223d"/>
          <path id="Trazado_5380" data-name="Trazado 5380" d="M1098.182,5474.824a4.9,4.9,0,0,0,.717-.051,5.166,5.166,0,0,0,.548-.1v.992a2.787,2.787,0,0,1-.67.168,5.464,5.464,0,0,1-.8.066q-2.682,0-2.682-2.617v-5.094h-1.325v-.625l1.325-.539.59-1.828h.81v1.984h2.682v1.008H1096.7v5.039a1.654,1.654,0,0,0,.4,1.188A1.435,1.435,0,0,0,1098.182,5474.824Z" fill="#00223d"/>
          <path id="Trazado_5381" data-name="Trazado 5381" d="M1109.273,5471.449a4.5,4.5,0,0,1-1.138,3.269,4.176,4.176,0,0,1-3.146,1.176,4.431,4.431,0,0,1-2.2-.539,3.658,3.658,0,0,1-1.484-1.547,5.049,5.049,0,0,1-.523-2.359,4.493,4.493,0,0,1,1.13-3.262,4.164,4.164,0,0,1,3.138-1.168,4.067,4.067,0,0,1,3.082,1.195A4.487,4.487,0,0,1,1109.273,5471.449Zm-7.042,0a3.847,3.847,0,0,0,.708,2.5,2.966,2.966,0,0,0,4.171,0,3.831,3.831,0,0,0,.712-2.5,3.77,3.77,0,0,0-.712-2.481,2.6,2.6,0,0,0-2.1-.847,2.548,2.548,0,0,0-2.074.836A3.8,3.8,0,0,0,1102.231,5471.449Z" fill="#00223d"/>
          <path id="Trazado_5382" data-name="Trazado 5382" d="M1117.691,5473.4a2.1,2.1,0,0,1-.962,1.844,4.8,4.8,0,0,1-2.7.648,6.272,6.272,0,0,1-2.868-.539v-1.2a7.354,7.354,0,0,0,1.43.492,6.406,6.406,0,0,0,1.472.18,3.578,3.578,0,0,0,1.687-.324,1.073,1.073,0,0,0,.122-1.844,7.585,7.585,0,0,0-1.826-.84,10.369,10.369,0,0,1-1.835-.777,2.434,2.434,0,0,1-.809-.754,1.856,1.856,0,0,1-.266-1.008,1.883,1.883,0,0,1,.919-1.652,4.544,4.544,0,0,1,2.522-.606,7.889,7.889,0,0,1,2.919.563l-.5,1.054a7.154,7.154,0,0,0-2.522-.531,3.1,3.1,0,0,0-1.5.289.884.884,0,0,0-.506.8.922.922,0,0,0,.189.586,1.864,1.864,0,0,0,.612.461,14.581,14.581,0,0,0,1.619.633,6.2,6.2,0,0,1,2.223,1.117A1.893,1.893,0,0,1,1117.691,5473.4Z" fill="#00223d"/>
          <path id="Trazado_5383" data-name="Trazado 5383" d="M1130.747,5474.589h-.076a3.382,3.382,0,0,1-2.9,1.305,3.556,3.556,0,0,1-2.821-1.148,4.8,4.8,0,0,1-1.008-3.266,4.88,4.88,0,0,1,1.012-3.289,3.526,3.526,0,0,1,2.817-1.172,3.465,3.465,0,0,1,2.885,1.266h.11l-.059-.617-.034-.6v-3.484h1.4v12.156h-1.139Zm-2.8.219a2.658,2.658,0,0,0,2.079-.723,3.451,3.451,0,0,0,.645-2.332v-.273a4.053,4.053,0,0,0-.654-2.6,2.58,2.58,0,0,0-2.087-.777,2.2,2.2,0,0,0-1.885.887,4.155,4.155,0,0,0-.654,2.5,3.988,3.988,0,0,0,.649,2.476A2.267,2.267,0,0,0,1127.947,5474.808Z" fill="#00223d"/>
          <path id="Trazado_5384" data-name="Trazado 5384" d="M1138.945,5475.894a4.438,4.438,0,0,1-3.235-1.156,4.28,4.28,0,0,1-1.185-3.211,4.722,4.722,0,0,1,1.1-3.289,3.785,3.785,0,0,1,2.956-1.219,3.624,3.624,0,0,1,2.75,1.059,3.871,3.871,0,0,1,1.012,2.793v.82h-6.368a3.236,3.236,0,0,0,.823,2.289,2.967,2.967,0,0,0,2.2.781,7.95,7.95,0,0,0,2.952-.578v1.156a7.729,7.729,0,0,1-1.405.426A8.5,8.5,0,0,1,1138.945,5475.894Zm-.379-7.789a2.38,2.38,0,0,0-1.776.672,2.979,2.979,0,0,0-.78,1.859h4.833a2.708,2.708,0,0,0-.591-1.879A2.161,2.161,0,0,0,1138.566,5468.1Z" fill="#00223d"/>
          <path id="Trazado_5385" data-name="Trazado 5385" d="M1150.618,5475.738h-1.4v-12.156h1.4Z" fill="#00223d"/>
          <path id="Trazado_5386" data-name="Trazado 5386" d="M1159.272,5475.738l-.279-1.219h-.067a3.848,3.848,0,0,1-1.379,1.09,4.527,4.527,0,0,1-1.717.285,3.252,3.252,0,0,1-2.155-.656,2.3,2.3,0,0,1-.78-1.867q0-2.595,4.479-2.719l1.569-.047v-.531a2.066,2.066,0,0,0-.468-1.489,2.021,2.021,0,0,0-1.5-.48,6.492,6.492,0,0,0-2.614.656l-.43-.992a6.874,6.874,0,0,1,1.5-.539,6.98,6.98,0,0,1,1.632-.195,3.715,3.715,0,0,1,2.45.679,2.719,2.719,0,0,1,.8,2.18v5.844Zm-3.163-.914a2.987,2.987,0,0,0,2.054-.664,2.363,2.363,0,0,0,.746-1.86v-.773l-1.4.055a5.422,5.422,0,0,0-2.408.48,1.424,1.424,0,0,0-.738,1.324,1.29,1.29,0,0,0,.46,1.071A2.008,2.008,0,0,0,1156.109,5474.824Z" fill="#00223d"/>
          <path id="Trazado_5387" data-name="Trazado 5387" d="M1051.794,5493.316h-1.637l-6.739-9.586h-.067q.135,1.688.135,3.094v6.492h-1.324v-11.422h1.619l6.722,9.547h.068c-.012-.141-.037-.592-.076-1.356s-.054-1.308-.043-1.636v-6.555h1.342Z" fill="#00223d"/>
          <path id="Trazado_5388" data-name="Trazado 5388" d="M1058.98,5493.316h-1.434v-10.242h-3.905v-1.18h9.244v1.18h-3.905Z" fill="#00223d"/>
          <path id="Trazado_5389" data-name="Trazado 5389" d="M1070.02,5482.918a4.186,4.186,0,0,0-3.209,1.253,4.816,4.816,0,0,0-1.177,3.434,4.9,4.9,0,0,0,1.135,3.465,4.194,4.194,0,0,0,3.234,1.223,11.833,11.833,0,0,0,2.944-.43v1.164a9.714,9.714,0,0,1-3.163.445,5.578,5.578,0,0,1-4.205-1.531,6.01,6.01,0,0,1-1.48-4.352,6.445,6.445,0,0,1,.713-3.093,4.905,4.905,0,0,1,2.058-2.047,6.627,6.627,0,0,1,3.167-.719,8.166,8.166,0,0,1,3.39.656l-.607,1.141A6.973,6.973,0,0,0,1070.02,5482.918Z" fill="#00223d"/>
          <path id="Trazado_5390" data-name="Trazado 5390" d="M1080.124,5493.316v-11.422h1.434v11.422Z" fill="#00223d"/>
          <path id="Trazado_5391" data-name="Trazado 5391" d="M1091.9,5490.277a2.725,2.725,0,0,1-1.181,2.351,5.413,5.413,0,0,1-3.205.844,8.6,8.6,0,0,1-3.374-.523v-1.281a9.765,9.765,0,0,0,3.424.64,3.8,3.8,0,0,0,2.16-.5,1.613,1.613,0,0,0,.725-1.4,1.7,1.7,0,0,0-.257-.973,2.352,2.352,0,0,0-.861-.7,12.738,12.738,0,0,0-1.834-.727,5.942,5.942,0,0,1-2.459-1.351,2.847,2.847,0,0,1-.738-2.039,2.47,2.47,0,0,1,1.072-2.1,4.7,4.7,0,0,1,2.833-.781,8.946,8.946,0,0,1,3.383.625l-.447,1.156a8.185,8.185,0,0,0-2.969-.593,3.042,3.042,0,0,0-1.78.453,1.454,1.454,0,0,0-.641,1.257,1.814,1.814,0,0,0,.236.973,2.162,2.162,0,0,0,.8.695,10.264,10.264,0,0,0,1.717.7,6.929,6.929,0,0,1,2.669,1.375A2.59,2.59,0,0,1,1091.9,5490.277Z" fill="#00223d"/>
          <path id="Trazado_5392" data-name="Trazado 5392" d="M1105.124,5487.589a6,6,0,0,1-1.5,4.313,5.477,5.477,0,0,1-4.163,1.57,5.548,5.548,0,0,1-4.2-1.543,6.036,6.036,0,0,1-1.481-4.355,5.962,5.962,0,0,1,1.485-4.324,5.592,5.592,0,0,1,4.217-1.536,5.471,5.471,0,0,1,4.15,1.563A5.988,5.988,0,0,1,1105.124,5487.589Zm-9.826,0a5.137,5.137,0,0,0,1.067,3.52,4.606,4.606,0,0,0,6.2,0,6.428,6.428,0,0,0,0-7.02,3.877,3.877,0,0,0-3.083-1.191,3.953,3.953,0,0,0-3.116,1.2A5.087,5.087,0,0,0,1095.3,5487.589Z" fill="#00223d"/>
          <path id="Trazado_5393" data-name="Trazado 5393" d="M1116.7,5493.316h-1.367v-8.141q0-1.014.068-1.922c-.118.11-.251.225-.4.344s-.815.628-2.007,1.524l-.742-.891,3.264-2.336h1.181Z" fill="#00223d"/>
          <path id="Trazado_5394" data-name="Trazado 5394" d="M1130.072,5490.691h-1.83v2.625H1126.9v-2.625h-6v-1.133l5.854-7.726h1.484v7.679h1.83Zm-3.171-1.18v-3.8q0-1.115.084-2.523h-.067a11.594,11.594,0,0,1-.759,1.242l-3.855,5.078Z" fill="#00223d"/>
          <path id="Trazado_5395" data-name="Trazado 5395" d="M1139.434,5487.589a7.845,7.845,0,0,1-1.007,4.422,3.489,3.489,0,0,1-3.083,1.461,3.451,3.451,0,0,1-3.028-1.5,7.685,7.685,0,0,1-1.037-4.387,7.838,7.838,0,0,1,1-4.429,3.9,3.9,0,0,1,6.111.062A7.662,7.662,0,0,1,1139.434,5487.589Zm-6.739,0a7.81,7.81,0,0,0,.633,3.629,2.358,2.358,0,0,0,4.044-.015,10.671,10.671,0,0,0,0-7.219,2.366,2.366,0,0,0-4.044-.016A7.768,7.768,0,0,0,1132.695,5487.589Z" fill="#00223d"/>
          <path id="Trazado_5396" data-name="Trazado 5396" d="M1149.311,5487.589a7.836,7.836,0,0,1-1.008,4.422,3.488,3.488,0,0,1-3.083,1.461,3.451,3.451,0,0,1-3.028-1.5,7.693,7.693,0,0,1-1.037-4.387,7.836,7.836,0,0,1,1-4.429,3.9,3.9,0,0,1,6.11.062A7.655,7.655,0,0,1,1149.311,5487.589Zm-6.739,0a7.811,7.811,0,0,0,.633,3.629,2.358,2.358,0,0,0,4.044-.015,10.689,10.689,0,0,0,0-7.219,2.367,2.367,0,0,0-4.044-.016A7.768,7.768,0,0,0,1142.572,5487.589Z" fill="#00223d"/>
          <path id="Trazado_5397" data-name="Trazado 5397" d="M1156.2,5493.316h-1.366v-8.141q0-1.014.067-1.922c-.118.11-.25.225-.4.344s-.816.628-2.008,1.524l-.742-.891,3.264-2.336h1.181Z" fill="#00223d"/>
        </g>
      </g>
    </g>
  </g>
</svg>
