<svg xmlns="http://www.w3.org/2000/svg" xmlns:xlink="http://www.w3.org/1999/xlink" width="127.8" height="127.8" viewBox="0 0 127.8 127.8">
  <defs>
    <clipPath id="clip-path">
      <rect id="Rectángulo_3778" data-name="Rectángulo 3778" width="127.8" height="127.8" transform="translate(186.2 6990.637)" fill="none"/>
    </clipPath>
  </defs>
  <g id="Grupo_11065" data-name="Grupo 11065" transform="translate(-186.2 -6990.637)">
    <g id="Grupo_11060" data-name="Grupo 11060">
      <g id="Grupo_11059" data-name="Grupo 11059" clip-path="url(#clip-path)">
        <path id="Trazado_5913" data-name="Trazado 5913" d="M314,7043.52c0,.327,0,.652-.011.978a52.882,52.882,0,0,1-105.755-.978q0-2.331.2-4.608a52.906,52.906,0,0,1,75.152-43.276q2.063.965,4.025,2.108A52.927,52.927,0,0,1,314,7043.52Zm0,0" fill="#348fd9"/>
      </g>
    </g>
    <path id="Trazado_5914" data-name="Trazado 5914" d="M314,7043.52c0,.327,0,.652-.011.978a52.889,52.889,0,0,1-99.758,23.5,54.292,54.292,0,0,0,69.353-72.364q2.063.965,4.025,2.108A52.927,52.927,0,0,1,314,7043.52Zm0,0" fill="#3086cd"/>
    <path id="Trazado_5915" data-name="Trazado 5915" d="M272.134,7030.3h-8.813v15.424H243.49v13.221l-35.058-20.032a52.714,52.714,0,0,1,15.358-32.851h8.682l8.814,17.627H250.1v-8.813h13.221Zm0,0" fill="#a5d130"/>
    <g id="Grupo_11062" data-name="Grupo 11062">
      <g id="Grupo_11061" data-name="Grupo 11061" clip-path="url(#clip-path)">
        <path id="Trazado_5916" data-name="Trazado 5916" d="M280.948,7065.554l-11.017,22.034H252.3v-15.424H243.49v-13.22h24.238v6.61Zm0,0" fill="#a5d130"/>
        <path id="Trazado_5917" data-name="Trazado 5917" d="M287.609,6997.744l-2.242,2.521-11.029,12.406-6.61-11.017H256.71l-5.8-10.032a53.091,53.091,0,0,1,32.675,4.014q2.063.965,4.025,2.108Zm0,0" fill="#a5d130"/>
        <path id="Trazado_5918" data-name="Trazado 5918" d="M314,7043.52c0,.327,0,.652-.011.978l-11.006,14.446H291.966v-19.831h-8.814v-15.425l4.94-4.445,12.331-11.1A52.675,52.675,0,0,1,314,7043.52Zm0,0" fill="#a5d130"/>
      </g>
    </g>
    <path id="Trazado_5919" data-name="Trazado 5919" d="M267.728,7065.554h13.22l-11.017,22.034H252.3v-15.424H243.49v-1.36a54,54,0,0,0,24.238-11.012Zm0,0" fill="#8ab512"/>
    <g id="Grupo_11064" data-name="Grupo 11064">
      <g id="Grupo_11063" data-name="Grupo 11063" clip-path="url(#clip-path)">
        <path id="Trazado_5920" data-name="Trazado 5920" d="M285.367,7000.265q-.786-2.363-1.783-4.629,2.063.965,4.025,2.108Zm0,0" fill="#4aafdb"/>
        <path id="Trazado_5921" data-name="Trazado 5921" d="M314,7043.52c0,.327,0,.652-.011.978l-11.006,14.446H291.966v-19.831H283.6a54.049,54.049,0,0,0,4.491-19.87l12.331-11.1A52.675,52.675,0,0,1,314,7043.52Zm0,0" fill="#8ab512"/>
      </g>
    </g>
    <rect id="Rectángulo_3781" data-name="Rectángulo 3781" width="8.814" height="13.221" transform="translate(234.676 7025.892)" fill="#dbdbd9"/>
    <rect id="Rectángulo_3782" data-name="Rectángulo 3782" width="52.883" height="13.221" transform="translate(212.641 7105.216)" fill="#c7c7c5"/>
    <rect id="Rectángulo_3783" data-name="Rectángulo 3783" width="52.883" height="6.61" transform="translate(212.641 7105.216)" fill="#d6d6d4"/>
    <rect id="Rectángulo_3784" data-name="Rectángulo 3784" width="26.441" height="13.221" transform="translate(186.2 7105.216)" fill="#c7c7c5"/>
    <rect id="Rectángulo_3785" data-name="Rectángulo 3785" width="26.441" height="13.221" transform="translate(186.2 7091.996)" fill="#cfcfcd"/>
    <path id="Trazado_5922" data-name="Trazado 5922" d="M212.641,7083.182H190.607L186.2,7092h26.441Zm0,0" fill="#e0e0de"/>
    <path id="Trazado_5923" data-name="Trazado 5923" d="M201.624,7105.216l-6.61,13.221h17.627v-13.221Zm0,0" fill="#d6d6d4"/>
    <rect id="Rectángulo_3786" data-name="Rectángulo 3786" width="26.441" height="13.221" transform="translate(265.524 7105.216)" fill="#c7c7c5"/>
    <rect id="Rectángulo_3787" data-name="Rectángulo 3787" width="26.441" height="13.221" transform="translate(265.524 7091.996)" fill="#cfcfcd"/>
    <path id="Trazado_5924" data-name="Trazado 5924" d="M265.524,7083.182h22.035l4.407,8.813H265.524Zm0,0" fill="#e0e0de"/>
    <path id="Trazado_5925" data-name="Trazado 5925" d="M283.152,7118.437l-6.611-13.221H265.524v13.221Zm0,0" fill="#d6d6d4"/>
    <rect id="Rectángulo_3788" data-name="Rectángulo 3788" width="35.255" height="26.441" transform="translate(221.455 7078.775)" fill="#c7c7c5"/>
    <rect id="Rectángulo_3789" data-name="Rectángulo 3789" width="35.255" height="8.814" transform="translate(221.455 7069.961)" fill="#d6d6d4"/>
    <rect id="Rectángulo_3790" data-name="Rectángulo 3790" width="35.255" height="8.814" transform="translate(221.455 7067.757)" fill="#cfcfcd"/>
    <rect id="Rectángulo_3791" data-name="Rectángulo 3791" width="8.814" height="19.831" transform="translate(212.641 7085.385)" fill="#d6d6d4"/>
    <rect id="Rectángulo_3792" data-name="Rectángulo 3792" width="8.814" height="6.61" transform="translate(212.641 7078.775)" fill="#dbdbd9"/>
    <rect id="Rectángulo_3793" data-name="Rectángulo 3793" width="8.814" height="19.831" transform="translate(256.71 7085.385)" fill="#d6d6d4"/>
    <rect id="Rectángulo_3794" data-name="Rectángulo 3794" width="8.814" height="6.61" transform="translate(256.71 7078.775)" fill="#dbdbd9"/>
    <rect id="Rectángulo_3795" data-name="Rectángulo 3795" width="4.407" height="4.407" transform="translate(201.624 7098.606)" fill="#a3a3a1"/>
    <rect id="Rectángulo_3796" data-name="Rectángulo 3796" width="4.407" height="4.407" transform="translate(192.81 7098.606)" fill="#a3a3a1"/>
    <rect id="Rectángulo_3797" data-name="Rectángulo 3797" width="4.407" height="6.61" transform="translate(228.066 7098.606)" fill="#a3a3a1"/>
    <rect id="Rectángulo_3798" data-name="Rectángulo 3798" width="4.407" height="6.61" transform="translate(236.879 7098.606)" fill="#a3a3a1"/>
    <rect id="Rectángulo_3799" data-name="Rectángulo 3799" width="4.407" height="6.61" transform="translate(245.693 7098.606)" fill="#a3a3a1"/>
    <rect id="Rectángulo_3800" data-name="Rectángulo 3800" width="4.407" height="4.407" transform="translate(228.066 7089.792)" fill="#a3a3a1"/>
    <rect id="Rectángulo_3801" data-name="Rectángulo 3801" width="4.407" height="4.407" transform="translate(236.879 7089.792)" fill="#a3a3a1"/>
    <rect id="Rectángulo_3802" data-name="Rectángulo 3802" width="4.407" height="4.407" transform="translate(245.693 7089.792)" fill="#a3a3a1"/>
    <rect id="Rectángulo_3803" data-name="Rectángulo 3803" width="26.441" height="11.017" transform="translate(225.862 7047.926)" fill="#d6d6d4"/>
    <rect id="Rectángulo_3804" data-name="Rectángulo 3804" width="26.441" height="6.61" transform="translate(225.862 7047.926)" fill="#cfcfcd"/>
    <path id="Trazado_5926" data-name="Trazado 5926" d="M252.3,7047.926H225.862a13.219,13.219,0,0,1,22.191-9.709c.13.117.254.237.377.362a13.162,13.162,0,0,1,3.873,9.347Zm0,0" fill="#e0e0de"/>
    <rect id="Rectángulo_3805" data-name="Rectángulo 3805" width="35.255" height="11.017" transform="translate(221.455 7058.944)" fill="#d6d6d4"/>
    <rect id="Rectángulo_3806" data-name="Rectángulo 3806" width="35.255" height="6.61" transform="translate(221.455 7058.944)" fill="#cfcfcd"/>
    <rect id="Rectángulo_3807" data-name="Rectángulo 3807" width="8.814" height="8.814" transform="translate(195.014 7074.368)" fill="#d6d6d4"/>
    <rect id="Rectángulo_3808" data-name="Rectángulo 3808" width="8.814" height="8.814" transform="translate(274.338 7074.368)" fill="#d6d6d4"/>
    <rect id="Rectángulo_3809" data-name="Rectángulo 3809" width="4.407" height="13.221" transform="translate(236.879 7012.671)" fill="#d6d6d4"/>
    <rect id="Rectángulo_3810" data-name="Rectángulo 3810" width="4.407" height="11.017" transform="translate(232.472 7047.926)" fill="#a3a3a1"/>
    <rect id="Rectángulo_3811" data-name="Rectángulo 3811" width="4.407" height="11.017" transform="translate(241.286 7047.926)" fill="#a3a3a1"/>
    <rect id="Rectángulo_3812" data-name="Rectángulo 3812" width="4.407" height="11.017" transform="translate(236.879 7058.944)" fill="#a3a3a1"/>
    <rect id="Rectángulo_3813" data-name="Rectángulo 3813" width="4.407" height="11.017" transform="translate(228.066 7058.944)" fill="#a3a3a1"/>
    <rect id="Rectángulo_3814" data-name="Rectángulo 3814" width="4.407" height="11.017" transform="translate(245.693 7058.944)" fill="#a3a3a1"/>
    <rect id="Rectángulo_3815" data-name="Rectángulo 3815" width="13.221" height="4.407" transform="translate(192.81 7072.165)" fill="#e0e0de"/>
    <rect id="Rectángulo_3816" data-name="Rectángulo 3816" width="13.221" height="4.407" transform="translate(272.134 7072.165)" fill="#e0e0de"/>
    <rect id="Rectángulo_3817" data-name="Rectángulo 3817" width="39.662" height="4.407" transform="translate(219.252 7056.74)" fill="#e0e0de"/>
    <rect id="Rectángulo_3818" data-name="Rectángulo 3818" width="44.069" height="4.407" transform="translate(217.048 7067.757)" fill="#e0e0de"/>
    <rect id="Rectángulo_3819" data-name="Rectángulo 3819" width="35.255" height="6.61" transform="translate(221.455 7078.775)" fill="#e0e0de"/>
    <path id="Trazado_5927" data-name="Trazado 5927" d="M252.3,7047.926H232.7a111.2,111.2,0,0,0,15.355-9.709c.13.117.254.237.377.362a13.162,13.162,0,0,1,3.873,9.347Zm0,0" fill="#d6d6d4"/>
    <rect id="Rectángulo_3820" data-name="Rectángulo 3820" width="35.255" height="4.407" transform="translate(221.455 7045.723)" fill="#e0e0de"/>
    <rect id="Rectángulo_3821" data-name="Rectángulo 3821" width="4.407" height="8.814" transform="translate(265.524 7083.182)" fill="#c7c7c5"/>
    <rect id="Rectángulo_3822" data-name="Rectángulo 3822" width="35.255" height="4.407" transform="translate(221.455 7085.385)" fill="#bfbfbd"/>
    <rect id="Rectángulo_3823" data-name="Rectángulo 3823" width="52.883" height="4.407" transform="translate(212.641 7111.827)" fill="#bfbfbd"/>
    <rect id="Rectángulo_3824" data-name="Rectángulo 3824" width="4.407" height="6.61" transform="translate(228.066 7111.827)" fill="#a3a3a1"/>
    <rect id="Rectángulo_3825" data-name="Rectángulo 3825" width="4.407" height="6.61" transform="translate(219.252 7111.827)" fill="#a3a3a1"/>
    <rect id="Rectángulo_3826" data-name="Rectángulo 3826" width="4.407" height="6.61" transform="translate(236.879 7111.827)" fill="#a3a3a1"/>
    <rect id="Rectángulo_3827" data-name="Rectángulo 3827" width="4.407" height="6.61" transform="translate(245.693 7111.827)" fill="#a3a3a1"/>
    <rect id="Rectángulo_3828" data-name="Rectángulo 3828" width="4.407" height="6.61" transform="translate(254.507 7111.827)" fill="#a3a3a1"/>
    <rect id="Rectángulo_3829" data-name="Rectángulo 3829" width="4.407" height="13.221" transform="translate(265.524 7105.216)" fill="#cfcfcd"/>
    <rect id="Rectángulo_3830" data-name="Rectángulo 3830" width="8.814" height="19.831" transform="translate(212.641 7085.385)" fill="#cfcfcd"/>
    <rect id="Rectángulo_3831" data-name="Rectángulo 3831" width="8.814" height="19.831" transform="translate(256.71 7085.385)" fill="#cfcfcd"/>
    <rect id="Rectángulo_3832" data-name="Rectángulo 3832" width="8.814" height="4.407" transform="translate(212.641 7085.385)" fill="#c7c7c5"/>
    <rect id="Rectángulo_3833" data-name="Rectángulo 3833" width="8.814" height="4.407" transform="translate(256.71 7085.385)" fill="#c7c7c5"/>
    <rect id="Rectángulo_3834" data-name="Rectángulo 3834" width="8.814" height="4.407" transform="translate(195.014 7076.571)" fill="#c7c7c5"/>
    <rect id="Rectángulo_3835" data-name="Rectángulo 3835" width="8.814" height="4.407" transform="translate(274.338 7076.571)" fill="#c7c7c5"/>
    <rect id="Rectángulo_3836" data-name="Rectángulo 3836" width="4.407" height="4.407" transform="translate(272.134 7098.606)" fill="#a3a3a1"/>
    <rect id="Rectángulo_3837" data-name="Rectángulo 3837" width="4.407" height="4.407" transform="translate(280.948 7098.606)" fill="#a3a3a1"/>
  </g>
</svg>
