<svg xmlns="http://www.w3.org/2000/svg" viewBox="0 0 706.27 207.24"><defs><style>.cls-1{fill:#bce0e4;}.cls-2{isolation:isolate;}.cls-3{fill:#00223d;}.cls-4{fill:#3f464f;}.cls-5{fill:#faa284;}.cls-6{fill:#dedfe2;}.cls-7{fill:#e8ebef;}.cls-8{fill:#6b7277;}.cls-9{fill:#8c949b;}.cls-10{fill:#e9f3ff;}.cls-11{fill:#aebdce;}.cls-12{fill:#cbdaed;}.cls-13{fill:#b8bbbf;}.cls-14{fill:#ef8d72;}.cls-15{opacity:0.1;}.cls-16{fill:#72382a;}.cls-17{fill:#5b2a21;}.cls-18{fill:#e0b155;}.cls-19{fill:#89493d;}.cls-20{opacity:0.9;}.cls-21,.cls-22,.cls-23,.cls-24,.cls-25,.cls-26,.cls-27,.cls-28,.cls-29,.cls-30,.cls-31,.cls-32{fill:#ea7460;}.cls-21{opacity:0;}.cls-22{opacity:0.09;}.cls-23{opacity:0.18;}.cls-24{opacity:0.27;}.cls-25{opacity:0.36;}.cls-26{opacity:0.45;}.cls-27{opacity:0.55;}.cls-28{opacity:0.64;}.cls-29{opacity:0.73;}.cls-30{opacity:0.82;}.cls-31{opacity:0.91;}.cls-33{fill:#b22828;}.cls-34{fill:#fff;}.cls-35{fill:#d3755f;}.cls-36{fill:#754439;}</style></defs><g id="Capa_2" data-name="Capa 2"><g id="CONTENIDO"><rect class="cls-1" width="426.4" height="167.42" rx="13.31"/><g class="cls-2"><path class="cls-3" d="M29.45,20.51V27.9A3.85,3.85,0,0,1,28.18,31a5.11,5.11,0,0,1-3.5,1.12A4.89,4.89,0,0,1,21.23,31,4,4,0,0,1,20,27.87V20.51h1.44V28a2.81,2.81,0,0,0,.84,2.19,3.58,3.58,0,0,0,2.48.77,3.44,3.44,0,0,0,2.4-.77A2.83,2.83,0,0,0,28,28V20.51Z"/><path class="cls-3" d="M38.83,31.93V26.4a2.17,2.17,0,0,0-.51-1.57,2.23,2.23,0,0,0-1.62-.51,2.79,2.79,0,0,0-2.12.72,3.49,3.49,0,0,0-.68,2.4v4.49H32.5V23.37h1.14l.23,1.17h.07a2.86,2.86,0,0,1,1.2-1,4.24,4.24,0,0,1,1.73-.34,3.7,3.7,0,0,1,2.52.74,3,3,0,0,1,.84,2.39v5.58Z"/><path class="cls-3" d="M48.79,31.93l-.28-1.21h-.07a4,4,0,0,1-1.37,1.09,4.52,4.52,0,0,1-1.72.28,3.24,3.24,0,0,1-2.16-.66,2.29,2.29,0,0,1-.78-1.86c0-1.73,1.5-2.64,4.48-2.72l1.57-.05v-.53A2,2,0,0,0,48,24.78a2,2,0,0,0-1.49-.48,6.47,6.47,0,0,0-2.62.66l-.43-1a7.26,7.26,0,0,1,3.13-.74,3.73,3.73,0,0,1,2.45.68,2.72,2.72,0,0,1,.8,2.18v5.84ZM45.63,31a3,3,0,0,0,2-.66,2.38,2.38,0,0,0,.75-1.86v-.78l-1.4.06a5.37,5.37,0,0,0-2.41.48,1.42,1.42,0,0,0-.74,1.32,1.27,1.27,0,0,0,.46,1.07A2,2,0,0,0,45.63,31Z"/><path class="cls-3" d="M59.22,31.93l-3.5-8.56h1.5l2,5.08A23.39,23.39,0,0,1,60,30.76h.07a16,16,0,0,1,.58-1.71q.49-1.31,2.22-5.68h1.5l-3.51,8.56Z"/><path class="cls-3" d="M69.76,32.09a4.4,4.4,0,0,1-3.24-1.16,4.27,4.27,0,0,1-1.18-3.21,4.76,4.76,0,0,1,1.1-3.29,3.78,3.78,0,0,1,3-1.21,3.63,3.63,0,0,1,2.75,1.05,3.87,3.87,0,0,1,1,2.8v.82H66.79a3.26,3.26,0,0,0,.82,2.29,3,3,0,0,0,2.2.78,7.87,7.87,0,0,0,3-.58v1.16a7.83,7.83,0,0,1-1.4.42A8.27,8.27,0,0,1,69.76,32.09Zm-.38-7.79A2.42,2.42,0,0,0,67.6,25a3,3,0,0,0-.78,1.86h4.84A2.75,2.75,0,0,0,71.07,25,2.19,2.19,0,0,0,69.38,24.3Z"/><path class="cls-3" d="M81.46,31.93H74.75v-.88l5-6.67H75.06v-1h6.27v1l-5,6.55h5.11Z"/><path class="cls-3" d="M92,32.09a4.4,4.4,0,0,1-3.24-1.16,4.27,4.27,0,0,1-1.18-3.21,4.71,4.71,0,0,1,1.1-3.29,3.78,3.78,0,0,1,3-1.21,3.63,3.63,0,0,1,2.75,1.05,3.87,3.87,0,0,1,1,2.8v.82H89.05a3.26,3.26,0,0,0,.82,2.29,3,3,0,0,0,2.2.78,7.87,7.87,0,0,0,3-.58v1.16a8.08,8.08,0,0,1-1.4.42A8.27,8.27,0,0,1,92,32.09Zm-.38-7.79a2.41,2.41,0,0,0-1.78.67,3,3,0,0,0-.78,1.86h4.83A2.7,2.7,0,0,0,93.32,25,2.15,2.15,0,0,0,91.64,24.3Z"/><path class="cls-3" d="M103.77,29.6a2.07,2.07,0,0,1-1,1.84,4.8,4.8,0,0,1-2.69.65,6.24,6.24,0,0,1-2.87-.54v-1.2a7.08,7.08,0,0,0,1.43.49,6.42,6.42,0,0,0,1.47.18,3.68,3.68,0,0,0,1.69-.32,1.07,1.07,0,0,0,.59-1,1.06,1.06,0,0,0-.47-.86,8.11,8.11,0,0,0-1.83-.84,9.84,9.84,0,0,1-1.83-.77,2.49,2.49,0,0,1-.81-.76,1.84,1.84,0,0,1-.27-1,1.9,1.9,0,0,1,.92-1.65,4.58,4.58,0,0,1,2.52-.6,7.77,7.77,0,0,1,2.92.56l-.5,1a7.17,7.17,0,0,0-2.52-.53,3.14,3.14,0,0,0-1.5.29.87.87,0,0,0-.5.8.93.93,0,0,0,.18.58,1.76,1.76,0,0,0,.62.46,13.68,13.68,0,0,0,1.62.64,6.39,6.39,0,0,1,2.22,1.11A1.93,1.93,0,0,1,103.77,29.6Z"/><path class="cls-3" d="M109,31a5.68,5.68,0,0,0,.72-.05,3.35,3.35,0,0,0,.54-.11v1a2.85,2.85,0,0,1-.67.16,4.7,4.7,0,0,1-.79.07c-1.79,0-2.69-.87-2.69-2.62V24.38h-1.32v-.63l1.32-.53.59-1.83h.81v2h2.69v1h-2.69v5a1.69,1.69,0,0,0,.4,1.19A1.47,1.47,0,0,0,109,31Z"/><path class="cls-3" d="M116.05,32.09a4.4,4.4,0,0,1-3.24-1.16,4.27,4.27,0,0,1-1.18-3.21,4.71,4.71,0,0,1,1.1-3.29,3.78,3.78,0,0,1,3-1.21,3.63,3.63,0,0,1,2.75,1.05,3.87,3.87,0,0,1,1,2.8v.82h-6.36a3.21,3.21,0,0,0,.82,2.29,3,3,0,0,0,2.2.78,7.87,7.87,0,0,0,3-.58v1.16a7.92,7.92,0,0,1-1.41.42A8.09,8.09,0,0,1,116.05,32.09Zm-.38-7.79a2.41,2.41,0,0,0-1.78.67,3,3,0,0,0-.78,1.86h4.83a2.7,2.7,0,0,0-.59-1.88A2.15,2.15,0,0,0,115.67,24.3Zm-1-2.26a13.72,13.72,0,0,0,.87-1.17,13.81,13.81,0,0,0,.74-1.19h1.7v.16a10.29,10.29,0,0,1-1.1,1.25,12.64,12.64,0,0,1-1.27,1.15h-.94Z"/><path class="cls-3" d="M132,31.93l-.27-1.21h-.07a3.88,3.88,0,0,1-1.38,1.09,4.52,4.52,0,0,1-1.72.28,3.23,3.23,0,0,1-2.15-.66,2.29,2.29,0,0,1-.78-1.86q0-2.59,4.48-2.72l1.56-.05v-.53a2.08,2.08,0,0,0-.46-1.49,2,2,0,0,0-1.5-.48,6.43,6.43,0,0,0-2.61.66l-.43-1a6.73,6.73,0,0,1,1.49-.54,7.06,7.06,0,0,1,1.63-.2,3.71,3.71,0,0,1,2.45.68,2.69,2.69,0,0,1,.8,2.18v5.84ZM128.84,31a3,3,0,0,0,2-.66,2.38,2.38,0,0,0,.75-1.86v-.78l-1.4.06a5.44,5.44,0,0,0-2.41.48,1.41,1.41,0,0,0-.73,1.32,1.29,1.29,0,0,0,.45,1.07A2,2,0,0,0,128.84,31Z"/><path class="cls-3" d="M137.33,31.93h-1.4V19.78h1.4Z"/><path class="cls-3" d="M141.7,31.93h-1.4V19.78h1.4Z"/><path class="cls-3" d="M144.61,22a13.72,13.72,0,0,0,.87-1.17,13.81,13.81,0,0,0,.74-1.19h1.7v.16a11.51,11.51,0,0,1-1.11,1.25,10.77,10.77,0,0,1-1.27,1.15h-.93Zm1.45,9.89h-1.4V23.37h1.4Z"/><path class="cls-3" d="M150.5,30.08l.13.17c-.15.53-.36,1.13-.63,1.82s-.57,1.33-.87,1.93h-1c.15-.54.32-1.21.5-2s.31-1.44.39-1.91Z"/><path class="cls-3" d="M164.05,30.79H164a3.38,3.38,0,0,1-2.9,1.3,3.54,3.54,0,0,1-2.82-1.15,4.78,4.78,0,0,1-1-3.26,4.9,4.9,0,0,1,1-3.29,3.54,3.54,0,0,1,2.82-1.17A3.46,3.46,0,0,1,164,24.48h.11l-.05-.62,0-.6V19.78h1.4V31.93h-1.14Zm-2.8.21a2.68,2.68,0,0,0,2.08-.72A3.45,3.45,0,0,0,164,28v-.27a4.09,4.09,0,0,0-.65-2.6,2.58,2.58,0,0,0-2.09-.78,2.22,2.22,0,0,0-1.89.89,4.18,4.18,0,0,0-.65,2.5,4,4,0,0,0,.65,2.48A2.26,2.26,0,0,0,161.25,31Z"/><path class="cls-3" d="M168.22,21.05a.81.81,0,0,1,.24-.65.85.85,0,0,1,.59-.21.86.86,0,0,1,.58.21.87.87,0,0,1-.58,1.52.82.82,0,0,1-.59-.22A.82.82,0,0,1,168.22,21.05Zm1.52,10.88h-1.4V23.37h1.4Z"/><path class="cls-3" d="M176.93,23.22a6,6,0,0,1,1.1.09l-.19,1.2a4.92,4.92,0,0,0-1-.11,2.55,2.55,0,0,0-1.92.84,2.94,2.94,0,0,0-.8,2.1v4.59h-1.4V23.37h1.15L174,25h.07a3.94,3.94,0,0,1,1.24-1.29A3,3,0,0,1,176.93,23.22Z"/><path class="cls-3" d="M179.7,22a13.72,13.72,0,0,0,.87-1.17,11.7,11.7,0,0,0,.74-1.19H183v.16a11.51,11.51,0,0,1-1.11,1.25,11.63,11.63,0,0,1-1.27,1.15h-.94Zm1.46,9.89h-1.4V23.37h1.4Z"/><path class="cls-3" d="M183,35.78a3.58,3.58,0,0,1-1.3-.2v-1a4.6,4.6,0,0,0,1.15.15,1.25,1.25,0,0,0,1-.33,1.42,1.42,0,0,0,.31-1v-10h1.4v9.88A2.23,2.23,0,0,1,183,35.78Zm1-14.73a.81.81,0,0,1,.24-.65.84.84,0,0,1,.59-.21.86.86,0,0,1,.58.21.87.87,0,0,1-.58,1.52.8.8,0,0,1-.59-.22A.82.82,0,0,1,184,21.05Z"/><path class="cls-3" d="M194.18,31.93l-.28-1.21h-.06a3.88,3.88,0,0,1-1.38,1.09,4.52,4.52,0,0,1-1.72.28,3.23,3.23,0,0,1-2.15-.66,2.29,2.29,0,0,1-.78-1.86q0-2.59,4.48-2.72l1.56-.05v-.53a2.08,2.08,0,0,0-.46-1.49,2,2,0,0,0-1.5-.48,6.51,6.51,0,0,0-2.62.66l-.43-1a7.26,7.26,0,0,1,3.13-.74,3.71,3.71,0,0,1,2.45.68,2.72,2.72,0,0,1,.8,2.18v5.84ZM191,31a3,3,0,0,0,2-.66,2.38,2.38,0,0,0,.75-1.86v-.78l-1.4.06a5.41,5.41,0,0,0-2.41.48,1.42,1.42,0,0,0-.74,1.32,1.3,1.3,0,0,0,.46,1.07A2,2,0,0,0,191,31Z"/><path class="cls-3" d="M204.07,29.6a2.08,2.08,0,0,1-1,1.84,4.81,4.81,0,0,1-2.7.65,6.27,6.27,0,0,1-2.87-.54v-1.2a7.08,7.08,0,0,0,1.43.49,6.42,6.42,0,0,0,1.47.18,3.68,3.68,0,0,0,1.69-.32,1.07,1.07,0,0,0,.59-1,1.06,1.06,0,0,0-.47-.86,8.11,8.11,0,0,0-1.83-.84,9.84,9.84,0,0,1-1.83-.77,2.6,2.6,0,0,1-.81-.76,1.84,1.84,0,0,1-.27-1,1.9,1.9,0,0,1,.92-1.65,4.62,4.62,0,0,1,2.53-.6,7.76,7.76,0,0,1,2.91.56l-.49,1a7.26,7.26,0,0,0-2.53-.53,3.14,3.14,0,0,0-1.5.29.89.89,0,0,0-.5.8A.88.88,0,0,0,199,26a1.62,1.62,0,0,0,.61.46,13.68,13.68,0,0,0,1.62.64,6.39,6.39,0,0,1,2.22,1.11A1.89,1.89,0,0,1,204.07,29.6Z"/><path class="cls-3" d="M210.25,32.09A4.38,4.38,0,0,1,207,30.93a4.28,4.28,0,0,1-1.19-3.21,4.76,4.76,0,0,1,1.1-3.29,3.8,3.8,0,0,1,3-1.21,3.65,3.65,0,0,1,2.75,1.05,3.91,3.91,0,0,1,1,2.8v.82h-6.37a3.26,3.26,0,0,0,.82,2.29,3,3,0,0,0,2.2.78,7.83,7.83,0,0,0,2.95-.58v1.16a7.83,7.83,0,0,1-1.4.42A8.2,8.2,0,0,1,210.25,32.09Zm-.38-7.79a2.44,2.44,0,0,0-1.78.67,3,3,0,0,0-.78,1.86h4.84a2.75,2.75,0,0,0-.59-1.88A2.19,2.19,0,0,0,209.87,24.3Z"/><path class="cls-3" d="M226.21,31.93l-.28-1.21h-.07a3.88,3.88,0,0,1-1.38,1.09,4.47,4.47,0,0,1-1.71.28,3.24,3.24,0,0,1-2.16-.66,2.29,2.29,0,0,1-.78-1.86c0-1.73,1.5-2.64,4.48-2.72l1.57-.05v-.53a2.08,2.08,0,0,0-.47-1.49,2,2,0,0,0-1.5-.48,6.43,6.43,0,0,0-2.61.66l-.43-1a6.82,6.82,0,0,1,1.5-.54,6.93,6.93,0,0,1,1.63-.2,3.73,3.73,0,0,1,2.45.68,2.72,2.72,0,0,1,.8,2.18v5.84ZM223.05,31a3,3,0,0,0,2-.66,2.38,2.38,0,0,0,.75-1.86v-.78l-1.4.06a5.37,5.37,0,0,0-2.41.48,1.42,1.42,0,0,0-.74,1.32,1.27,1.27,0,0,0,.46,1.07A2,2,0,0,0,223.05,31Z"/><path class="cls-3" d="M240.11,21.54a4.16,4.16,0,0,0-3.21,1.25,4.8,4.8,0,0,0-1.18,3.43,4.9,4.9,0,0,0,1.14,3.47,4.19,4.19,0,0,0,3.23,1.22,11.79,11.79,0,0,0,2.95-.43v1.17a10,10,0,0,1-3.17.44,5.57,5.57,0,0,1-4.2-1.53,6,6,0,0,1-1.48-4.35,6.42,6.42,0,0,1,.71-3.1,4.94,4.94,0,0,1,2.06-2,6.59,6.59,0,0,1,3.17-.72,8.3,8.3,0,0,1,3.39.65l-.61,1.15A6.94,6.94,0,0,0,240.11,21.54Z"/><path class="cls-3" d="M253.49,27.65a4.52,4.52,0,0,1-1.14,3.27,4.16,4.16,0,0,1-3.14,1.17,4.4,4.4,0,0,1-2.2-.54A3.66,3.66,0,0,1,245.52,30a5,5,0,0,1-.52-2.35,4.53,4.53,0,0,1,1.13-3.27,4.19,4.19,0,0,1,3.14-1.16,4,4,0,0,1,3.08,1.19A4.51,4.51,0,0,1,253.49,27.65Zm-7,0a3.88,3.88,0,0,0,.71,2.5,3,3,0,0,0,4.17,0,3.8,3.8,0,0,0,.71-2.5,3.72,3.72,0,0,0-.71-2.48,3,3,0,0,0-4.18,0A3.8,3.8,0,0,0,246.45,27.65Z"/><path class="cls-3" d="M262.27,31.93V26.4a2.17,2.17,0,0,0-.51-1.57,2.21,2.21,0,0,0-1.61-.51A2.8,2.8,0,0,0,258,25a3.49,3.49,0,0,0-.67,2.4v4.49H256V23.37h1.14l.22,1.17h.07a2.89,2.89,0,0,1,1.21-1,4.21,4.21,0,0,1,1.73-.34,3.67,3.67,0,0,1,2.51.74,3,3,0,0,1,.84,2.39v5.58Z"/><path class="cls-3" d="M272.51,29.6a2.08,2.08,0,0,1-1,1.84,4.81,4.81,0,0,1-2.7.65,6.29,6.29,0,0,1-2.87-.54v-1.2a7.53,7.53,0,0,0,1.43.49,6.43,6.43,0,0,0,1.48.18,3.6,3.6,0,0,0,1.68-.32,1.08,1.08,0,0,0,.13-1.85,8.58,8.58,0,0,0-1.83-.84,9.84,9.84,0,0,1-1.83-.77,2.39,2.39,0,0,1-.81-.76,1.84,1.84,0,0,1-.27-1,1.9,1.9,0,0,1,.92-1.65,4.56,4.56,0,0,1,2.52-.6,7.77,7.77,0,0,1,2.92.56l-.5,1a7.26,7.26,0,0,0-2.52-.53,3.14,3.14,0,0,0-1.5.29.88.88,0,0,0-.51.8.94.94,0,0,0,.19.58,1.71,1.71,0,0,0,.61.46,13.68,13.68,0,0,0,1.62.64,6.36,6.36,0,0,1,2.23,1.11A1.92,1.92,0,0,1,272.51,29.6Z"/><path class="cls-3" d="M276.11,23.37v5.56a2.14,2.14,0,0,0,.51,1.56,2.21,2.21,0,0,0,1.61.51,2.72,2.72,0,0,0,2.12-.73,3.49,3.49,0,0,0,.67-2.4v-4.5h1.4v8.56h-1.15l-.2-1.14H281a2.76,2.76,0,0,1-1.19,1,4.2,4.2,0,0,1-1.75.34,3.73,3.73,0,0,1-2.52-.74,3,3,0,0,1-.84-2.38v-5.6Z"/><path class="cls-3" d="M286.79,31.93h-1.4V19.78h1.4Z"/><path class="cls-3" d="M292.75,31a5.52,5.52,0,0,0,.71-.05,3.51,3.51,0,0,0,.55-.11v1a2.85,2.85,0,0,1-.67.16,4.73,4.73,0,0,1-.8.07,2.34,2.34,0,0,1-2.68-2.62V24.38h-1.32v-.63l1.32-.53.59-1.83h.81v2h2.68v1h-2.68v5a1.65,1.65,0,0,0,.4,1.19A1.46,1.46,0,0,0,292.75,31Z"/><path class="cls-3" d="M301.54,31.93l-.28-1.21h-.06a3.88,3.88,0,0,1-1.38,1.09,4.52,4.52,0,0,1-1.72.28,3.23,3.23,0,0,1-2.15-.66,2.29,2.29,0,0,1-.78-1.86q0-2.59,4.48-2.72l1.56-.05v-.53a2.08,2.08,0,0,0-.46-1.49,2,2,0,0,0-1.5-.48,6.51,6.51,0,0,0-2.62.66l-.43-1a7.26,7.26,0,0,1,3.13-.74,3.71,3.71,0,0,1,2.45.68,2.72,2.72,0,0,1,.8,2.18v5.84ZM298.38,31a3,3,0,0,0,2.05-.66,2.38,2.38,0,0,0,.75-1.86v-.78l-1.4.06a5.41,5.41,0,0,0-2.41.48,1.42,1.42,0,0,0-.74,1.32,1.3,1.3,0,0,0,.46,1.07A2,2,0,0,0,298.38,31Z"/><path class="cls-3" d="M310.16,20.51h3.49a7,7,0,0,1,3.55.68,2.35,2.35,0,0,1,1.09,2.15,2.36,2.36,0,0,1-.61,1.68,3,3,0,0,1-1.78.85V26c1.87.3,2.81,1.21,2.81,2.73a2.88,2.88,0,0,1-1.12,2.4,5.05,5.05,0,0,1-3.12.85h-4.31Zm1.44,4.89H314a4,4,0,0,0,2.18-.44,1.64,1.64,0,0,0,.67-1.49,1.47,1.47,0,0,0-.74-1.38,4.87,4.87,0,0,0-2.36-.43H311.6Zm0,1.13V30.8h2.57a4,4,0,0,0,2.25-.53,1.93,1.93,0,0,0,.75-1.68A1.71,1.71,0,0,0,316.4,27a4.42,4.42,0,0,0-2.35-.5Z"/><path class="cls-3" d="M321,21.05a.84.84,0,0,1,.23-.65.87.87,0,0,1,.59-.21.84.84,0,0,1,.58.21,1,1,0,0,1,0,1.3.81.81,0,0,1-.58.22.83.83,0,0,1-.59-.22A.86.86,0,0,1,321,21.05Zm1.52,10.88h-1.41V23.37h1.41Z"/><path class="cls-3" d="M329.82,23.23a3.57,3.57,0,0,1,2.82,1.15,4.78,4.78,0,0,1,1,3.27,4.86,4.86,0,0,1-1,3.27,3.54,3.54,0,0,1-2.82,1.17,4.15,4.15,0,0,1-1.65-.31,3,3,0,0,1-1.26-1h-.1l-.29,1.1h-1V19.78h1.4v2.95c0,.66,0,1.26-.06,1.78h.06A3.45,3.45,0,0,1,329.82,23.23Zm-.21,1.09a2.53,2.53,0,0,0-2.06.76,4.06,4.06,0,0,0-.64,2.57,4.06,4.06,0,0,0,.65,2.58,2.58,2.58,0,0,0,2.09.77,2.21,2.21,0,0,0,1.92-.87,4.21,4.21,0,0,0,.63-2.5,4.06,4.06,0,0,0-.63-2.49A2.3,2.3,0,0,0,329.61,24.32Z"/><path class="cls-3" d="M337.5,31.93h-1.4V19.78h1.4Z"/><path class="cls-3" d="M340.35,21.05a.81.81,0,0,1,.24-.65.84.84,0,0,1,.59-.21.88.88,0,0,1,.58.21,1,1,0,0,1,0,1.3.84.84,0,0,1-.58.22.8.8,0,0,1-.59-.22A.82.82,0,0,1,340.35,21.05Zm1.52,10.88h-1.4V23.37h1.4Z"/><path class="cls-3" d="M352.82,27.65a4.52,4.52,0,0,1-1.14,3.27,4.19,4.19,0,0,1-3.15,1.17,4.43,4.43,0,0,1-2.2-.54A3.58,3.58,0,0,1,344.85,30a5,5,0,0,1-.53-2.35,4.53,4.53,0,0,1,1.13-3.27,4.2,4.2,0,0,1,3.14-1.16,4,4,0,0,1,3.08,1.19A4.52,4.52,0,0,1,352.82,27.65Zm-7.05,0a3.88,3.88,0,0,0,.71,2.5,3,3,0,0,0,4.17,0,3.8,3.8,0,0,0,.72-2.5,3.73,3.73,0,0,0-.72-2.48,3,3,0,0,0-4.18,0A3.86,3.86,0,0,0,345.77,27.65Z"/><path class="cls-3" d="M362.84,23.37v.82l-1.72.19a2.78,2.78,0,0,1,.43.71,2.66,2.66,0,0,1,.18,1,2.45,2.45,0,0,1-.93,2,3.92,3.92,0,0,1-2.54.75,4.75,4.75,0,0,1-.78-.06c-.6.29-.89.66-.89,1.1a.55.55,0,0,0,.31.52,2.45,2.45,0,0,0,1.07.17h1.64a3.85,3.85,0,0,1,2.3.58,2,2,0,0,1,.81,1.7A2.39,2.39,0,0,1,361.49,35a7,7,0,0,1-3.6.75,5.15,5.15,0,0,1-2.79-.63,2,2,0,0,1-1-1.76,1.9,1.9,0,0,1,.54-1.35,2.8,2.8,0,0,1,1.51-.78,1.46,1.46,0,0,1-.59-.46,1.16,1.16,0,0,1-.24-.72,1.33,1.33,0,0,1,.27-.83,2.68,2.68,0,0,1,.85-.67,2.54,2.54,0,0,1-1.17-.93,2.6,2.6,0,0,1-.45-1.5,2.66,2.66,0,0,1,.91-2.17,3.91,3.91,0,0,1,2.58-.76,5.24,5.24,0,0,1,1.31.15Zm-7.37,10a1.15,1.15,0,0,0,.63,1.06,3.69,3.69,0,0,0,1.81.36,5.43,5.43,0,0,0,2.61-.49,1.48,1.48,0,0,0,.85-1.33,1,1,0,0,0-.47-1,3.81,3.81,0,0,0-1.74-.27h-1.68a2.31,2.31,0,0,0-1.48.42A1.44,1.44,0,0,0,355.47,33.37Zm.75-7.26a1.68,1.68,0,0,0,.55,1.36,2.31,2.31,0,0,0,1.53.46c1.37,0,2.05-.61,2.05-1.84s-.69-1.93-2.08-1.93a2.18,2.18,0,0,0-1.51.49A1.89,1.89,0,0,0,356.22,26.11Z"/><path class="cls-3" d="M369,23.22a6.23,6.23,0,0,1,1.11.09l-.2,1.2a4.92,4.92,0,0,0-1-.11,2.55,2.55,0,0,0-1.92.84,2.94,2.94,0,0,0-.8,2.1v4.59h-1.4V23.37h1.16l.16,1.59h.07a3.75,3.75,0,0,1,1.24-1.29A2.94,2.94,0,0,1,369,23.22Z"/><path class="cls-3" d="M377.47,31.93l-.28-1.21h-.07a3.88,3.88,0,0,1-1.38,1.09,4.47,4.47,0,0,1-1.71.28,3.24,3.24,0,0,1-2.16-.66,2.29,2.29,0,0,1-.78-1.86c0-1.73,1.5-2.64,4.48-2.72l1.57-.05v-.53a2.08,2.08,0,0,0-.47-1.49,2,2,0,0,0-1.5-.48,6.43,6.43,0,0,0-2.61.66l-.43-1a6.82,6.82,0,0,1,1.5-.54,6.93,6.93,0,0,1,1.63-.2,3.73,3.73,0,0,1,2.45.68,2.72,2.72,0,0,1,.8,2.18v5.84ZM374.31,31a3,3,0,0,0,2.05-.66,2.38,2.38,0,0,0,.75-1.86v-.78l-1.4.06a5.37,5.37,0,0,0-2.41.48,1.42,1.42,0,0,0-.74,1.32,1.27,1.27,0,0,0,.46,1.07A2,2,0,0,0,374.31,31ZM374,22a13.72,13.72,0,0,0,.87-1.17,13.81,13.81,0,0,0,.74-1.19h1.7v.16a11.24,11.24,0,0,1-1.1,1.25,11.6,11.6,0,0,1-1.28,1.15H374Z"/><path class="cls-3" d="M385.56,24.38H383.2v7.55h-1.4V24.38h-1.65v-.59l1.65-.46v-.48c0-2.11,1-3.16,3-3.16a6.3,6.3,0,0,1,1.72.28l-.36,1a5,5,0,0,0-1.38-.24,1.43,1.43,0,0,0-1.18.49,2.61,2.61,0,0,0-.38,1.57v.55h2.36Zm1.57-3.33a.84.84,0,0,1,.23-.65.87.87,0,0,1,.59-.21.84.84,0,0,1,.58.21,1,1,0,0,1,0,1.3.81.81,0,0,1-.58.22.83.83,0,0,1-.59-.22A.86.86,0,0,1,387.13,21.05Zm1.51,10.88h-1.4V23.37h1.4Z"/><path class="cls-3" d="M395.31,32.09A4.12,4.12,0,0,1,392.2,31a4.52,4.52,0,0,1-1.1-3.24,4.6,4.6,0,0,1,1.12-3.32,4.17,4.17,0,0,1,3.18-1.17,6.66,6.66,0,0,1,1.33.13,4.62,4.62,0,0,1,1,.31l-.43,1.1a7.06,7.06,0,0,0-1-.28,4.65,4.65,0,0,0-1-.12q-2.82,0-2.82,3.33a3.73,3.73,0,0,0,.69,2.42,2.44,2.44,0,0,0,2,.85,6.82,6.82,0,0,0,2.37-.46v1.15A5.44,5.44,0,0,1,395.31,32.09Z"/><path class="cls-3" d="M405.52,31.93l-.28-1.21h-.06a3.88,3.88,0,0,1-1.38,1.09,4.52,4.52,0,0,1-1.72.28,3.21,3.21,0,0,1-2.15-.66,2.29,2.29,0,0,1-.78-1.86q0-2.59,4.47-2.72l1.57-.05v-.53a2,2,0,0,0-.47-1.49,2,2,0,0,0-1.49-.48,6.51,6.51,0,0,0-2.62.66l-.43-1a7.26,7.26,0,0,1,3.13-.74,3.73,3.73,0,0,1,2.45.68,2.72,2.72,0,0,1,.8,2.18v5.84ZM402.36,31a3,3,0,0,0,2.05-.66,2.38,2.38,0,0,0,.75-1.86v-.78l-1.4.06a5.41,5.41,0,0,0-2.41.48,1.42,1.42,0,0,0-.74,1.32,1.3,1.3,0,0,0,.46,1.07A2,2,0,0,0,402.36,31Z"/><path class="cls-3" d="M49.53,50.24V49.05h4.14v1.19Z"/><path class="cls-3" d="M60.57,42.51h3.48a7,7,0,0,1,3.55.68,2.36,2.36,0,0,1,1.1,2.15A2.41,2.41,0,0,1,68.09,47a3,3,0,0,1-1.79.85V48c1.87.3,2.81,1.21,2.81,2.73A2.85,2.85,0,0,1,68,53.08a5,5,0,0,1-3.12.85h-4.3ZM62,47.4h2.36A4.08,4.08,0,0,0,66.55,47a1.65,1.65,0,0,0,.66-1.49,1.47,1.47,0,0,0-.74-1.38,4.87,4.87,0,0,0-2.36-.43H62Zm0,1.13V52.8h2.57a3.93,3.93,0,0,0,2.25-.53,1.93,1.93,0,0,0,.75-1.68A1.71,1.71,0,0,0,66.8,49a4.39,4.39,0,0,0-2.35-.5Z"/><path class="cls-3" d="M77.23,53.93,77,52.72h-.06a4,4,0,0,1-1.38,1.09,4.52,4.52,0,0,1-1.72.28,3.21,3.21,0,0,1-2.15-.66,2.29,2.29,0,0,1-.78-1.86q0-2.59,4.47-2.72l1.57-.05v-.53a2,2,0,0,0-.47-1.49,2,2,0,0,0-1.49-.48,6.51,6.51,0,0,0-2.62.66l-.43-1A7.26,7.26,0,0,1,75,45.23a3.73,3.73,0,0,1,2.45.68,2.72,2.72,0,0,1,.8,2.18v5.84ZM74.07,53a3,3,0,0,0,2.05-.66,2.38,2.38,0,0,0,.75-1.86v-.78l-1.4.06a5.41,5.41,0,0,0-2.41.48,1.42,1.42,0,0,0-.74,1.32,1.3,1.3,0,0,0,.46,1.07A2,2,0,0,0,74.07,53Z"/><path class="cls-3" d="M87.12,51.6a2.08,2.08,0,0,1-1,1.84,4.85,4.85,0,0,1-2.7.65,6.24,6.24,0,0,1-2.87-.54v-1.2a7.08,7.08,0,0,0,1.43.49,6.42,6.42,0,0,0,1.47.18,3.68,3.68,0,0,0,1.69-.32,1.07,1.07,0,0,0,.59-1,1.06,1.06,0,0,0-.47-.86A8.11,8.11,0,0,0,83.47,50a9.84,9.84,0,0,1-1.83-.77,2.6,2.6,0,0,1-.81-.76,1.84,1.84,0,0,1-.27-1,1.9,1.9,0,0,1,.92-1.65,4.58,4.58,0,0,1,2.52-.6,7.77,7.77,0,0,1,2.92.56l-.5,1a7.17,7.17,0,0,0-2.52-.53,3.14,3.14,0,0,0-1.5.29A.92.92,0,0,0,82.09,48a1.62,1.62,0,0,0,.61.46,13.68,13.68,0,0,0,1.62.64,6.39,6.39,0,0,1,2.22,1.11A1.93,1.93,0,0,1,87.12,51.6Z"/><path class="cls-3" d="M93.3,54.09a4.4,4.4,0,0,1-3.24-1.16,4.27,4.27,0,0,1-1.18-3.21A4.76,4.76,0,0,1,90,46.43a3.79,3.79,0,0,1,3-1.21,3.66,3.66,0,0,1,2.75,1.05,3.91,3.91,0,0,1,1,2.8v.82H90.33a3.26,3.26,0,0,0,.82,2.29,3,3,0,0,0,2.2.78,7.87,7.87,0,0,0,3-.58v1.16a7.83,7.83,0,0,1-1.4.42A8.2,8.2,0,0,1,93.3,54.09Zm-.38-7.79a2.44,2.44,0,0,0-1.78.67,3,3,0,0,0-.78,1.86H95.2A2.75,2.75,0,0,0,94.61,47,2.19,2.19,0,0,0,92.92,46.3Z"/><path class="cls-3" d="M105.05,51.6a2.08,2.08,0,0,1-1,1.84,4.81,4.81,0,0,1-2.7.65,6.27,6.27,0,0,1-2.87-.54v-1.2a7.08,7.08,0,0,0,1.43.49,6.42,6.42,0,0,0,1.47.18,3.65,3.65,0,0,0,1.69-.32,1.07,1.07,0,0,0,.59-1,1.06,1.06,0,0,0-.47-.86A8.11,8.11,0,0,0,101.4,50a9.84,9.84,0,0,1-1.83-.77,2.6,2.6,0,0,1-.81-.76,1.84,1.84,0,0,1-.27-1,1.9,1.9,0,0,1,.92-1.65,4.62,4.62,0,0,1,2.53-.6,7.76,7.76,0,0,1,2.91.56l-.49,1a7.26,7.26,0,0,0-2.52-.53,3.15,3.15,0,0,0-1.51.29.89.89,0,0,0-.5.8A.88.88,0,0,0,100,48a1.62,1.62,0,0,0,.61.46,13.68,13.68,0,0,0,1.62.64,6.29,6.29,0,0,1,2.22,1.11A1.89,1.89,0,0,1,105.05,51.6Z"/><path class="cls-3" d="M118.1,52.79H118a3.38,3.38,0,0,1-2.9,1.3,3.54,3.54,0,0,1-2.82-1.15,4.73,4.73,0,0,1-1-3.26,4.9,4.9,0,0,1,1-3.29,3.53,3.53,0,0,1,2.82-1.17A3.47,3.47,0,0,1,118,46.48h.11l-.06-.62,0-.6V41.78h1.4V53.93h-1.14Zm-2.8.21a2.66,2.66,0,0,0,2.08-.72A3.45,3.45,0,0,0,118,50v-.27a4.09,4.09,0,0,0-.65-2.6,2.6,2.6,0,0,0-2.09-.78,2.22,2.22,0,0,0-1.89.89,4.18,4.18,0,0,0-.65,2.5,4,4,0,0,0,.65,2.48A2.25,2.25,0,0,0,115.3,53Z"/><path class="cls-3" d="M126.3,54.09a4.4,4.4,0,0,1-3.23-1.16,4.28,4.28,0,0,1-1.19-3.21,4.76,4.76,0,0,1,1.1-3.29,3.8,3.8,0,0,1,3-1.21,3.65,3.65,0,0,1,2.75,1.05,3.91,3.91,0,0,1,1,2.8v.82h-6.37a3.26,3.26,0,0,0,.83,2.29,3,3,0,0,0,2.19.78,7.92,7.92,0,0,0,3-.58v1.16a7.39,7.39,0,0,1-3,.55Zm-.38-7.79a2.4,2.4,0,0,0-1.77.67,3,3,0,0,0-.78,1.86h4.83a2.75,2.75,0,0,0-.59-1.88A2.18,2.18,0,0,0,125.92,46.3Z"/><path class="cls-3" d="M142.87,52.79h-.08a3.37,3.37,0,0,1-2.9,1.3,3.54,3.54,0,0,1-2.82-1.15,4.78,4.78,0,0,1-1-3.26,4.9,4.9,0,0,1,1-3.29,3.54,3.54,0,0,1,2.82-1.17,3.49,3.49,0,0,1,2.89,1.26h.1l0-.62,0-.6V41.78h1.4V53.93h-1.14Zm-2.8.21a2.68,2.68,0,0,0,2.08-.72,3.45,3.45,0,0,0,.64-2.33v-.27a4.09,4.09,0,0,0-.65-2.6,2.58,2.58,0,0,0-2.09-.78,2.19,2.19,0,0,0-1.88.89,4.11,4.11,0,0,0-.66,2.5,4,4,0,0,0,.65,2.48A2.26,2.26,0,0,0,140.07,53Z"/><path class="cls-3" d="M152.85,53.93l-.28-1.21h-.07a3.88,3.88,0,0,1-1.38,1.09,4.52,4.52,0,0,1-1.72.28,3.23,3.23,0,0,1-2.15-.66,2.29,2.29,0,0,1-.78-1.86q0-2.59,4.48-2.72l1.57-.05v-.53a2.08,2.08,0,0,0-.47-1.49,2,2,0,0,0-1.5-.48,6.43,6.43,0,0,0-2.61.66l-.43-1a6.73,6.73,0,0,1,1.49-.54,7.07,7.07,0,0,1,1.64-.2,3.75,3.75,0,0,1,2.45.68,2.71,2.71,0,0,1,.79,2.18v5.84ZM149.68,53a3,3,0,0,0,2.06-.66,2.4,2.4,0,0,0,.74-1.86v-.78l-1.4.06a5.44,5.44,0,0,0-2.41.48,1.41,1.41,0,0,0-.73,1.32,1.27,1.27,0,0,0,.46,1.07A2,2,0,0,0,149.68,53Z"/><path class="cls-3" d="M159.75,53a5.55,5.55,0,0,0,.72-.05,3.77,3.77,0,0,0,.55-.11v1a3,3,0,0,1-.67.16,4.81,4.81,0,0,1-.8.07c-1.79,0-2.68-.87-2.68-2.62V46.38h-1.32v-.63l1.32-.53.59-1.83h.81v2H161v1h-2.68v5a1.65,1.65,0,0,0,.4,1.19A1.43,1.43,0,0,0,159.75,53Z"/><path class="cls-3" d="M170.84,49.65a4.52,4.52,0,0,1-1.13,3.27,4.19,4.19,0,0,1-3.15,1.17,4.4,4.4,0,0,1-2.2-.54A3.66,3.66,0,0,1,162.87,52a5.12,5.12,0,0,1-.52-2.35,4.53,4.53,0,0,1,1.13-3.27,4.19,4.19,0,0,1,3.14-1.16,4,4,0,0,1,3.08,1.19A4.51,4.51,0,0,1,170.84,49.65Zm-7,0a3.88,3.88,0,0,0,.71,2.5,3,3,0,0,0,4.17,0,3.8,3.8,0,0,0,.71-2.5,3.72,3.72,0,0,0-.71-2.48,3,3,0,0,0-4.18,0A3.86,3.86,0,0,0,163.8,49.65Z"/><path class="cls-3" d="M179.26,51.6a2.08,2.08,0,0,1-1,1.84,4.81,4.81,0,0,1-2.7.65,6.29,6.29,0,0,1-2.87-.54v-1.2a7.3,7.3,0,0,0,1.43.49,6.42,6.42,0,0,0,1.47.18,3.62,3.62,0,0,0,1.69-.32,1.06,1.06,0,0,0,.59-1,1,1,0,0,0-.47-.86,8.19,8.19,0,0,0-1.82-.84,10.32,10.32,0,0,1-1.84-.77,2.6,2.6,0,0,1-.81-.76,1.92,1.92,0,0,1-.26-1,1.88,1.88,0,0,1,.92-1.65,4.56,4.56,0,0,1,2.52-.6,7.81,7.81,0,0,1,2.92.56l-.5,1a7.26,7.26,0,0,0-2.52-.53,3.08,3.08,0,0,0-1.5.29.92.92,0,0,0-.32,1.38,1.71,1.71,0,0,0,.61.46,13.68,13.68,0,0,0,1.62.64,6.2,6.2,0,0,1,2.22,1.11A1.89,1.89,0,0,1,179.26,51.6Z"/><path class="cls-3" d="M185.25,50.24V49.05h4.14v1.19Z"/><path class="cls-3" d="M196.28,53.93V42.51h1.44V53.93Z"/><path class="cls-3" d="M204.58,54.09A4.15,4.15,0,0,1,201.47,53a4.52,4.52,0,0,1-1.1-3.24,4.65,4.65,0,0,1,1.12-3.32,4.21,4.21,0,0,1,3.19-1.17,6.73,6.73,0,0,1,1.33.13,4.68,4.68,0,0,1,1,.31l-.43,1.1a6.71,6.71,0,0,0-1-.28,4.57,4.57,0,0,0-1-.12c-1.88,0-2.81,1.11-2.81,3.33a3.73,3.73,0,0,0,.68,2.42,2.46,2.46,0,0,0,2,.85,6.82,6.82,0,0,0,2.37-.46v1.15A5.52,5.52,0,0,1,204.58,54.09Z"/><path class="cls-3" d="M217.09,49.65A4.52,4.52,0,0,1,216,52.92a4.19,4.19,0,0,1-3.14,1.17,4.4,4.4,0,0,1-2.2-.54A3.6,3.6,0,0,1,209.12,52a5,5,0,0,1-.52-2.35,4.48,4.48,0,0,1,1.13-3.27,4.19,4.19,0,0,1,3.14-1.16A4,4,0,0,1,216,46.41,4.51,4.51,0,0,1,217.09,49.65Zm-7,0a3.88,3.88,0,0,0,.71,2.5,2.53,2.53,0,0,0,2.08.85,2.57,2.57,0,0,0,2.09-.85,3.86,3.86,0,0,0,.71-2.5,3.78,3.78,0,0,0-.71-2.48,3,3,0,0,0-4.18,0A3.8,3.8,0,0,0,210.05,49.65Z"/><path class="cls-3" d="M225.87,53.93V48.4a2.17,2.17,0,0,0-.51-1.57,2.22,2.22,0,0,0-1.61-.51,2.8,2.8,0,0,0-2.13.72,3.49,3.49,0,0,0-.67,2.4v4.49h-1.4V45.37h1.13l.23,1.17H221a2.89,2.89,0,0,1,1.21-1,4.17,4.17,0,0,1,1.73-.34,3.67,3.67,0,0,1,2.51.74,3,3,0,0,1,.84,2.39v5.58Z"/><path class="cls-3" d="M233.13,53a5.55,5.55,0,0,0,.72-.05,3.77,3.77,0,0,0,.55-.11v1a3,3,0,0,1-.67.16,4.81,4.81,0,0,1-.8.07c-1.79,0-2.68-.87-2.68-2.62V46.38h-1.33v-.63l1.33-.53.59-1.83h.81v2h2.68v1h-2.68v5a1.65,1.65,0,0,0,.4,1.19A1.43,1.43,0,0,0,233.13,53Z"/><path class="cls-3" d="M240.15,54.09a4.38,4.38,0,0,1-3.23-1.16,4.28,4.28,0,0,1-1.19-3.21,4.76,4.76,0,0,1,1.1-3.29,3.8,3.8,0,0,1,3-1.21,3.65,3.65,0,0,1,2.75,1.05,3.91,3.91,0,0,1,1,2.8v.82h-6.37a3.26,3.26,0,0,0,.82,2.29,3,3,0,0,0,2.2.78,7.83,7.83,0,0,0,3-.58v1.16a7.83,7.83,0,0,1-1.4.42A8.2,8.2,0,0,1,240.15,54.09Zm-.38-7.79A2.4,2.4,0,0,0,238,47a2.89,2.89,0,0,0-.78,1.86h4.83a2.75,2.75,0,0,0-.59-1.88A2.19,2.19,0,0,0,239.77,46.3Z"/><path class="cls-3" d="M249.63,54.09A4.13,4.13,0,0,1,246.52,53a4.52,4.52,0,0,1-1.1-3.24,4.65,4.65,0,0,1,1.12-3.32,4.19,4.19,0,0,1,3.18-1.17,6.76,6.76,0,0,1,1.34.13,4.68,4.68,0,0,1,1,.31l-.43,1.1a6.71,6.71,0,0,0-1-.28,4.65,4.65,0,0,0-1-.12q-2.82,0-2.82,3.33a3.73,3.73,0,0,0,.69,2.42,2.46,2.46,0,0,0,2,.85A6.82,6.82,0,0,0,252,52.5v1.15A5.52,5.52,0,0,1,249.63,54.09Z"/><path class="cls-3" d="M255.63,52.08l.12.17a15.39,15.39,0,0,1-.63,1.82c-.27.69-.56,1.33-.86,1.93h-1c.15-.54.32-1.21.5-2s.31-1.44.38-1.91Z"/><path class="cls-3" d="M262.76,43.05a.81.81,0,0,1,.24-.65.92.92,0,0,1,1.17,0,1,1,0,0,1,0,1.3.89.89,0,0,1-1.17,0A.82.82,0,0,1,262.76,43.05Zm1.52,10.88h-1.4V45.37h1.4Z"/><path class="cls-3" d="M273.58,53.93V48.4a2.13,2.13,0,0,0-.52-1.57,2.21,2.21,0,0,0-1.61-.51,2.77,2.77,0,0,0-2.12.72,3.49,3.49,0,0,0-.68,2.4v4.49h-1.4V45.37h1.14l.23,1.17h.06a2.89,2.89,0,0,1,1.21-1,4.21,4.21,0,0,1,1.73-.34,3.67,3.67,0,0,1,2.51.74,3,3,0,0,1,.85,2.39v5.58Z"/><path class="cls-3" d="M285.42,45.37v.82l-1.71.19a3.09,3.09,0,0,1,.42.71,2.66,2.66,0,0,1,.18,1,2.47,2.47,0,0,1-.92,2,4,4,0,0,1-2.55.75,4.75,4.75,0,0,1-.78-.06c-.59.29-.89.66-.89,1.1a.55.55,0,0,0,.31.52,2.48,2.48,0,0,0,1.07.17h1.64a3.85,3.85,0,0,1,2.3.58,2,2,0,0,1,.81,1.7A2.39,2.39,0,0,1,284.07,57a7,7,0,0,1-3.59.75,5.21,5.21,0,0,1-2.8-.63,2,2,0,0,1-1-1.76,1.9,1.9,0,0,1,.54-1.35,2.83,2.83,0,0,1,1.52-.78,1.43,1.43,0,0,1-.6-.46,1.16,1.16,0,0,1-.24-.72,1.33,1.33,0,0,1,.27-.83,2.68,2.68,0,0,1,.85-.67,2.54,2.54,0,0,1-1.17-.93,2.6,2.6,0,0,1-.45-1.5,2.69,2.69,0,0,1,.91-2.17,3.91,3.91,0,0,1,2.58-.76,5.24,5.24,0,0,1,1.31.15Zm-7.37,10a1.15,1.15,0,0,0,.63,1.06,3.72,3.72,0,0,0,1.81.36,5.43,5.43,0,0,0,2.61-.49A1.48,1.48,0,0,0,284,55a1,1,0,0,0-.46-1,3.86,3.86,0,0,0-1.75-.27h-1.68a2.33,2.33,0,0,0-1.48.42A1.44,1.44,0,0,0,278.05,55.37Zm.76-7.26a1.68,1.68,0,0,0,.54,1.36,2.31,2.31,0,0,0,1.53.46c1.37,0,2.05-.61,2.05-1.84s-.69-1.93-2.07-1.93a2.19,2.19,0,0,0-1.52.49A1.88,1.88,0,0,0,278.81,48.11Z"/><path class="cls-3" d="M291.53,45.22a6.23,6.23,0,0,1,1.11.09l-.2,1.2a4.92,4.92,0,0,0-1-.11,2.55,2.55,0,0,0-1.92.84,2.93,2.93,0,0,0-.79,2.1v4.59h-1.4V45.37h1.15l.16,1.59h.07a3.84,3.84,0,0,1,1.24-1.29A2.94,2.94,0,0,1,291.53,45.22Z"/><path class="cls-3" d="M298.27,54.09A4.4,4.4,0,0,1,295,52.93a4.28,4.28,0,0,1-1.19-3.21,4.76,4.76,0,0,1,1.1-3.29,3.8,3.8,0,0,1,3-1.21,3.65,3.65,0,0,1,2.75,1.05,3.91,3.91,0,0,1,1,2.8v.82H295.3a3.22,3.22,0,0,0,.83,2.29,3,3,0,0,0,2.19.78,7.83,7.83,0,0,0,2.95-.58v1.16a7.83,7.83,0,0,1-1.4.42A8.13,8.13,0,0,1,298.27,54.09Zm-.38-7.79a2.4,2.4,0,0,0-1.77.67,3,3,0,0,0-.78,1.86h4.83a2.75,2.75,0,0,0-.59-1.88A2.19,2.19,0,0,0,297.89,46.3Z"/><path class="cls-3" d="M310,51.6a2.08,2.08,0,0,1-1,1.84,4.81,4.81,0,0,1-2.7.65,6.27,6.27,0,0,1-2.87-.54v-1.2a7.3,7.3,0,0,0,1.43.49,6.42,6.42,0,0,0,1.47.18,3.62,3.62,0,0,0,1.69-.32,1.07,1.07,0,0,0,.59-1,1,1,0,0,0-.47-.86,8.19,8.19,0,0,0-1.82-.84,10.32,10.32,0,0,1-1.84-.77,2.6,2.6,0,0,1-.81-.76,1.92,1.92,0,0,1-.26-1,1.88,1.88,0,0,1,.92-1.65,4.56,4.56,0,0,1,2.52-.6,7.81,7.81,0,0,1,2.92.56l-.5,1a7.26,7.26,0,0,0-2.52-.53,3.08,3.08,0,0,0-1.5.29A.92.92,0,0,0,305,48a1.71,1.71,0,0,0,.61.46,13.68,13.68,0,0,0,1.62.64,6.2,6.2,0,0,1,2.22,1.11A1.89,1.89,0,0,1,310,51.6Z"/><path class="cls-3" d="M316.2,54.09A4.4,4.4,0,0,1,313,52.93a4.28,4.28,0,0,1-1.19-3.21,4.76,4.76,0,0,1,1.1-3.29,3.8,3.8,0,0,1,3-1.21,3.63,3.63,0,0,1,2.75,1.05,3.91,3.91,0,0,1,1,2.8v.82h-6.37a3.26,3.26,0,0,0,.83,2.29,3,3,0,0,0,2.19.78,7.92,7.92,0,0,0,3-.58v1.16a7.39,7.39,0,0,1-3,.55Zm-.38-7.79a2.4,2.4,0,0,0-1.77.67,3,3,0,0,0-.78,1.86h4.83a2.75,2.75,0,0,0-.59-1.88A2.18,2.18,0,0,0,315.82,46.3Z"/><path class="cls-3" d="M330.17,54.09A4.13,4.13,0,0,1,327.06,53a4.52,4.52,0,0,1-1.1-3.24,4.65,4.65,0,0,1,1.12-3.32,4.19,4.19,0,0,1,3.18-1.17,6.76,6.76,0,0,1,1.34.13,4.68,4.68,0,0,1,1,.31l-.43,1.1a6.71,6.71,0,0,0-1-.28,4.65,4.65,0,0,0-1-.12q-2.82,0-2.82,3.33a3.73,3.73,0,0,0,.69,2.42,2.46,2.46,0,0,0,2,.85,6.82,6.82,0,0,0,2.37-.46v1.15A5.52,5.52,0,0,1,330.17,54.09Z"/><path class="cls-3" d="M342.68,49.65a4.52,4.52,0,0,1-1.14,3.27,4.19,4.19,0,0,1-3.15,1.17,4.43,4.43,0,0,1-2.2-.54A3.63,3.63,0,0,1,334.71,52a5,5,0,0,1-.52-2.35,4.48,4.48,0,0,1,1.13-3.27,4.18,4.18,0,0,1,3.13-1.16,4.07,4.07,0,0,1,3.09,1.19A4.51,4.51,0,0,1,342.68,49.65Zm-7,0a3.88,3.88,0,0,0,.7,2.5,3,3,0,0,0,4.18,0,3.86,3.86,0,0,0,.71-2.5,3.78,3.78,0,0,0-.71-2.48,2.6,2.6,0,0,0-2.11-.85,2.56,2.56,0,0,0-2.07.83A3.8,3.8,0,0,0,335.64,49.65Z"/><path class="cls-3" d="M351.46,53.93V48.4a2.17,2.17,0,0,0-.51-1.57,2.23,2.23,0,0,0-1.62-.51,2.79,2.79,0,0,0-2.12.72,3.49,3.49,0,0,0-.68,2.4v4.49h-1.4V45.37h1.14l.23,1.17h.07a2.86,2.86,0,0,1,1.2-1,4.24,4.24,0,0,1,1.73-.34A3.7,3.7,0,0,1,352,46a3,3,0,0,1,.84,2.39v5.58Z"/><path class="cls-3" d="M366.19,51.6a2.07,2.07,0,0,1-1,1.84,4.8,4.8,0,0,1-2.69.65,6.24,6.24,0,0,1-2.87-.54v-1.2a7.08,7.08,0,0,0,1.43.49,6.42,6.42,0,0,0,1.47.18,3.68,3.68,0,0,0,1.69-.32,1.07,1.07,0,0,0,.59-1,1.06,1.06,0,0,0-.47-.86,8.11,8.11,0,0,0-1.83-.84,9.84,9.84,0,0,1-1.83-.77,2.49,2.49,0,0,1-.81-.76,1.84,1.84,0,0,1-.27-1,1.9,1.9,0,0,1,.92-1.65,4.58,4.58,0,0,1,2.52-.6,7.77,7.77,0,0,1,2.92.56l-.5,1A7.17,7.17,0,0,0,363,46.3a3.14,3.14,0,0,0-1.5.29.87.87,0,0,0-.5.8.93.93,0,0,0,.18.58,1.76,1.76,0,0,0,.62.46,13.68,13.68,0,0,0,1.62.64,6.39,6.39,0,0,1,2.22,1.11A1.93,1.93,0,0,1,366.19,51.6Z"/><path class="cls-3" d="M369.78,45.37v5.56a2.14,2.14,0,0,0,.51,1.56,2.22,2.22,0,0,0,1.61.51,2.76,2.76,0,0,0,2.13-.73,3.55,3.55,0,0,0,.67-2.4v-4.5h1.4v8.56h-1.16l-.2-1.14h-.08a2.65,2.65,0,0,1-1.19,1,4.19,4.19,0,0,1-1.74.34,3.75,3.75,0,0,1-2.53-.74,3,3,0,0,1-.84-2.38v-5.6Z"/><path class="cls-3" d="M42.44,75.93V70.4a2.17,2.17,0,0,0-.51-1.57,2.21,2.21,0,0,0-1.61-.51,2.8,2.8,0,0,0-2.13.72,3.49,3.49,0,0,0-.67,2.4v4.49h-1.4V67.37h1.14l.22,1.17h.07a2.89,2.89,0,0,1,1.21-1,4.21,4.21,0,0,1,1.73-.34A3.67,3.67,0,0,1,43,68a3,3,0,0,1,.84,2.39v5.58Z"/><path class="cls-3" d="M48,67.37v5.56a2.14,2.14,0,0,0,.51,1.56,2.21,2.21,0,0,0,1.61.51,2.72,2.72,0,0,0,2.12-.73,3.49,3.49,0,0,0,.67-2.4v-4.5h1.4v8.56H53.2L53,74.79h-.08a2.76,2.76,0,0,1-1.19,1,4.2,4.2,0,0,1-1.75.34,3.73,3.73,0,0,1-2.52-.74A3,3,0,0,1,46.62,73v-5.6ZM49.5,66c.27-.32.56-.71.88-1.17a13.41,13.41,0,0,0,.73-1.19h1.71v.16a11.51,11.51,0,0,1-1.11,1.25,11.63,11.63,0,0,1-1.27,1.15H49.5Z"/><path class="cls-3" d="M69.1,75.93V70.36a2.16,2.16,0,0,0-.47-1.53,1.9,1.9,0,0,0-1.47-.51,2.48,2.48,0,0,0-1.93.69,3.18,3.18,0,0,0-.62,2.14v4.78h-1.4V70.36a2.21,2.21,0,0,0-.47-1.53,1.94,1.94,0,0,0-1.48-.51,2.37,2.37,0,0,0-1.93.73,3.71,3.71,0,0,0-.61,2.39v4.49h-1.4V67.37h1.14l.23,1.17h.07a2.64,2.64,0,0,1,1.11-1,3.57,3.57,0,0,1,1.62-.35,2.78,2.78,0,0,1,2.83,1.45h.07a2.83,2.83,0,0,1,1.2-1.06,4,4,0,0,1,1.79-.39,3.26,3.26,0,0,1,2.34.74,3.18,3.18,0,0,1,.78,2.39v5.58Z"/><path class="cls-3" d="M77.29,76.09a4.4,4.4,0,0,1-3.23-1.16,4.28,4.28,0,0,1-1.19-3.21A4.76,4.76,0,0,1,74,68.43a3.8,3.8,0,0,1,3-1.21,3.63,3.63,0,0,1,2.75,1,3.87,3.87,0,0,1,1,2.8v.82H74.33a3.21,3.21,0,0,0,.82,2.29,3,3,0,0,0,2.19.78,7.92,7.92,0,0,0,3-.58v1.16a7.39,7.39,0,0,1-3,.55Zm-.38-7.79a2.4,2.4,0,0,0-1.77.67,3,3,0,0,0-.78,1.86h4.83A2.7,2.7,0,0,0,78.6,69,2.16,2.16,0,0,0,76.91,68.3Z"/><path class="cls-3" d="M87.3,67.22a6,6,0,0,1,1.1.09l-.19,1.2a4.92,4.92,0,0,0-1-.11,2.55,2.55,0,0,0-1.92.84,2.94,2.94,0,0,0-.8,2.1v4.59h-1.4V67.37h1.16L84.4,69h.06a3.94,3.94,0,0,1,1.24-1.29A3,3,0,0,1,87.3,67.22Z"/><path class="cls-3" d="M98.11,71.65A4.52,4.52,0,0,1,97,74.92a4.19,4.19,0,0,1-3.14,1.17,4.44,4.44,0,0,1-2.21-.54A3.63,3.63,0,0,1,90.14,74a5,5,0,0,1-.52-2.35,4.48,4.48,0,0,1,1.13-3.27,4.18,4.18,0,0,1,3.13-1.16A4.05,4.05,0,0,1,97,68.41,4.51,4.51,0,0,1,98.11,71.65Zm-7,0a3.82,3.82,0,0,0,.71,2.5,2.53,2.53,0,0,0,2.08.85A2.57,2.57,0,0,0,96,74.15a3.86,3.86,0,0,0,.71-2.5A3.78,3.78,0,0,0,96,69.17a2.6,2.6,0,0,0-2.11-.85,2.56,2.56,0,0,0-2.07.83A3.8,3.8,0,0,0,91.07,71.65Z"/><path class="cls-3" d="M111.34,74.79h-.07a3.39,3.39,0,0,1-2.9,1.3,3.54,3.54,0,0,1-2.82-1.15,4.73,4.73,0,0,1-1-3.26,4.9,4.9,0,0,1,1-3.29,3.52,3.52,0,0,1,2.82-1.17,3.47,3.47,0,0,1,2.88,1.26h.11l-.06-.62,0-.6V63.78h1.4V75.93h-1.14Zm-2.8.21a2.66,2.66,0,0,0,2.08-.72,3.45,3.45,0,0,0,.65-2.33v-.27a4,4,0,0,0-.66-2.6,2.56,2.56,0,0,0-2.08-.78,2.22,2.22,0,0,0-1.89.89,4.18,4.18,0,0,0-.65,2.5,4,4,0,0,0,.65,2.48A2.25,2.25,0,0,0,108.54,75Z"/><path class="cls-3" d="M119.54,76.09a4.4,4.4,0,0,1-3.23-1.16,4.28,4.28,0,0,1-1.19-3.21,4.76,4.76,0,0,1,1.1-3.29,3.8,3.8,0,0,1,3-1.21,3.65,3.65,0,0,1,2.75,1,3.91,3.91,0,0,1,1,2.8v.82h-6.37a3.26,3.26,0,0,0,.83,2.29,3,3,0,0,0,2.19.78,7.92,7.92,0,0,0,3-.58v1.16a7.39,7.39,0,0,1-3,.55Zm-.38-7.79a2.4,2.4,0,0,0-1.77.67,3,3,0,0,0-.78,1.86h4.83a2.75,2.75,0,0,0-.59-1.88A2.18,2.18,0,0,0,119.16,68.3Z"/><path class="cls-3" d="M129.7,65.05a.84.84,0,0,1,.23-.65.87.87,0,0,1,.59-.21.89.89,0,0,1,.59.21,1,1,0,0,1,0,1.3.85.85,0,0,1-.59.22.83.83,0,0,1-.59-.22A.86.86,0,0,1,129.7,65.05Zm1.52,10.88h-1.4V67.37h1.4Z"/><path class="cls-3" d="M140.48,74.79h-.08a3.38,3.38,0,0,1-2.9,1.3,3.54,3.54,0,0,1-2.82-1.15,4.78,4.78,0,0,1-1-3.26,4.9,4.9,0,0,1,1-3.29,3.54,3.54,0,0,1,2.82-1.17,3.46,3.46,0,0,1,2.88,1.26h.11l-.06-.62,0-.6V63.78h1.4V75.93h-1.14Zm-2.8.21a2.68,2.68,0,0,0,2.08-.72A3.45,3.45,0,0,0,140.4,72v-.27a4.09,4.09,0,0,0-.65-2.6,2.58,2.58,0,0,0-2.09-.78,2.22,2.22,0,0,0-1.89.89,4.18,4.18,0,0,0-.65,2.5,4,4,0,0,0,.65,2.48A2.26,2.26,0,0,0,137.68,75Z"/><path class="cls-3" d="M148.67,76.09a4.4,4.4,0,0,1-3.23-1.16,4.27,4.27,0,0,1-1.18-3.21,4.71,4.71,0,0,1,1.1-3.29,3.78,3.78,0,0,1,2.95-1.21,3.63,3.63,0,0,1,2.75,1,3.87,3.87,0,0,1,1,2.8v.82h-6.36a3.21,3.21,0,0,0,.82,2.29,3,3,0,0,0,2.2.78,7.9,7.9,0,0,0,3-.58v1.16a7.39,7.39,0,0,1-3,.55Zm-.37-7.79a2.41,2.41,0,0,0-1.78.67,3,3,0,0,0-.78,1.86h4.83A2.7,2.7,0,0,0,150,69,2.15,2.15,0,0,0,148.3,68.3Z"/><path class="cls-3" d="M160.79,75.93V70.4a2.13,2.13,0,0,0-.52-1.57,2.21,2.21,0,0,0-1.61-.51,2.77,2.77,0,0,0-2.12.72,3.49,3.49,0,0,0-.68,2.4v4.49h-1.4V67.37h1.14l.23,1.17h.06a2.89,2.89,0,0,1,1.21-1,4.21,4.21,0,0,1,1.73-.34,3.67,3.67,0,0,1,2.51.74,3,3,0,0,1,.85,2.39v5.58Z"/><path class="cls-3" d="M168.05,75a5.68,5.68,0,0,0,.72,0,3.35,3.35,0,0,0,.54-.11v1a2.85,2.85,0,0,1-.67.16,4.7,4.7,0,0,1-.79.07c-1.79,0-2.69-.87-2.69-2.62V68.38h-1.32v-.63l1.32-.53.59-1.83h.81v2h2.69v1h-2.69v5a1.69,1.69,0,0,0,.4,1.19A1.46,1.46,0,0,0,168.05,75Z"/><path class="cls-3" d="M171,65.05a.81.81,0,0,1,.24-.65.85.85,0,0,1,.59-.21.86.86,0,0,1,.58.21.87.87,0,0,1-.58,1.52.82.82,0,0,1-.59-.22A.82.82,0,0,1,171,65.05Zm1.52,10.88h-1.4V67.37h1.4Z"/><path class="cls-3" d="M179.7,68.38h-2.36v7.55h-1.4V68.38h-1.65v-.59l1.65-.46v-.48q0-3.16,3-3.16a6.3,6.3,0,0,1,1.72.28l-.36,1a5,5,0,0,0-1.39-.24,1.42,1.42,0,0,0-1.17.49,2.61,2.61,0,0,0-.38,1.57v.55h2.36Zm1.56-3.33a.81.81,0,0,1,.24-.65.87.87,0,0,1,.59-.21.84.84,0,0,1,.58.21,1,1,0,0,1,0,1.3.81.81,0,0,1-.58.22.79.79,0,0,1-.83-.87Zm1.52,10.88h-1.4V67.37h1.4Z"/><path class="cls-3" d="M189.45,76.09A4.12,4.12,0,0,1,186.34,75a4.48,4.48,0,0,1-1.1-3.24,4.6,4.6,0,0,1,1.12-3.32,4.17,4.17,0,0,1,3.18-1.17,6.66,6.66,0,0,1,1.33.13,4.79,4.79,0,0,1,1,.31l-.43,1.1a7.06,7.06,0,0,0-1-.28,4.65,4.65,0,0,0-1-.12q-2.82,0-2.82,3.33a3.73,3.73,0,0,0,.69,2.42,2.43,2.43,0,0,0,2,.85,6.82,6.82,0,0,0,2.37-.46v1.15A5.5,5.5,0,0,1,189.45,76.09Z"/><path class="cls-3" d="M199.66,75.93l-.28-1.21h-.07a4,4,0,0,1-1.37,1.09,4.52,4.52,0,0,1-1.72.28,3.24,3.24,0,0,1-2.16-.66,2.29,2.29,0,0,1-.78-1.86c0-1.73,1.5-2.64,4.48-2.72l1.57,0v-.53a2,2,0,0,0-.47-1.49,2,2,0,0,0-1.49-.48,6.47,6.47,0,0,0-2.62.66l-.43-1a7.26,7.26,0,0,1,3.13-.74,3.73,3.73,0,0,1,2.45.68,2.72,2.72,0,0,1,.8,2.18v5.84ZM196.5,75a3,3,0,0,0,2.05-.66,2.38,2.38,0,0,0,.75-1.86v-.78l-1.4.06a5.37,5.37,0,0,0-2.41.48,1.42,1.42,0,0,0-.74,1.32,1.27,1.27,0,0,0,.46,1.07A2,2,0,0,0,196.5,75Z"/><path class="cls-3" d="M207.28,76.09A4.12,4.12,0,0,1,204.17,75a4.48,4.48,0,0,1-1.1-3.24,4.6,4.6,0,0,1,1.12-3.32,4.17,4.17,0,0,1,3.18-1.17,6.66,6.66,0,0,1,1.33.13,4.79,4.79,0,0,1,1.05.31l-.43,1.1a7.06,7.06,0,0,0-1-.28,4.65,4.65,0,0,0-1-.12q-2.82,0-2.82,3.33a3.73,3.73,0,0,0,.69,2.42,2.43,2.43,0,0,0,2,.85,6.82,6.82,0,0,0,2.37-.46v1.15A5.47,5.47,0,0,1,207.28,76.09Z"/><path class="cls-3" d="M211.69,65.05a.84.84,0,0,1,.23-.65.87.87,0,0,1,.59-.21.89.89,0,0,1,.59.21,1,1,0,0,1,0,1.3.85.85,0,0,1-.59.22.83.83,0,0,1-.59-.22A.86.86,0,0,1,211.69,65.05Zm1.52,10.88h-1.4V67.37h1.4Z"/><path class="cls-3" d="M224.15,71.65A4.52,4.52,0,0,1,223,74.92a4.16,4.16,0,0,1-3.14,1.17,4.4,4.4,0,0,1-2.2-.54A3.66,3.66,0,0,1,216.18,74a5.12,5.12,0,0,1-.52-2.35,4.53,4.53,0,0,1,1.13-3.27,4.19,4.19,0,0,1,3.14-1.16A4,4,0,0,1,223,68.41,4.51,4.51,0,0,1,224.15,71.65Zm-7,0a3.88,3.88,0,0,0,.71,2.5,3,3,0,0,0,4.17,0,3.8,3.8,0,0,0,.71-2.5,3.72,3.72,0,0,0-.71-2.48,3,3,0,0,0-4.18,0A3.8,3.8,0,0,0,217.11,71.65ZM218.73,66a13.72,13.72,0,0,0,.87-1.17,11.7,11.7,0,0,0,.74-1.19h1.71v.16a11.51,11.51,0,0,1-1.11,1.25,11.63,11.63,0,0,1-1.27,1.15h-.94Z"/><path class="cls-3" d="M232.93,75.93V70.4a2.17,2.17,0,0,0-.51-1.57,2.21,2.21,0,0,0-1.61-.51,2.8,2.8,0,0,0-2.13.72,3.49,3.49,0,0,0-.67,2.4v4.49h-1.4V67.37h1.14l.22,1.17H228a2.89,2.89,0,0,1,1.21-1,4.21,4.21,0,0,1,1.73-.34,3.67,3.67,0,0,1,2.51.74,3,3,0,0,1,.84,2.39v5.58Z"/><path class="cls-3" d="M244.68,75a5.55,5.55,0,0,0,.72,0,3.77,3.77,0,0,0,.55-.11v1a3,3,0,0,1-.67.16,4.81,4.81,0,0,1-.8.07c-1.79,0-2.68-.87-2.68-2.62V68.38h-1.33v-.63l1.33-.53.59-1.83h.81v2h2.68v1H243.2v5a1.69,1.69,0,0,0,.39,1.19A1.47,1.47,0,0,0,244.68,75Z"/><path class="cls-3" d="M253.48,75.93l-.28-1.21h-.07a4,4,0,0,1-1.37,1.09,4.55,4.55,0,0,1-1.72.28,3.24,3.24,0,0,1-2.16-.66,2.29,2.29,0,0,1-.78-1.86c0-1.73,1.5-2.64,4.48-2.72l1.57,0v-.53a2,2,0,0,0-.47-1.49,2,2,0,0,0-1.49-.48,6.47,6.47,0,0,0-2.62.66l-.43-1a6.82,6.82,0,0,1,1.5-.54,6.93,6.93,0,0,1,1.63-.2,3.73,3.73,0,0,1,2.45.68,2.72,2.72,0,0,1,.8,2.18v5.84ZM250.32,75a3,3,0,0,0,2.05-.66,2.38,2.38,0,0,0,.75-1.86v-.78l-1.4.06a5.37,5.37,0,0,0-2.41.48,1.42,1.42,0,0,0-.74,1.32,1.27,1.27,0,0,0,.46,1.07A2,2,0,0,0,250.32,75Z"/><path class="cls-3" d="M263.73,75.93V70.4a2.13,2.13,0,0,0-.52-1.57,2.21,2.21,0,0,0-1.61-.51,2.77,2.77,0,0,0-2.12.72,3.49,3.49,0,0,0-.68,2.4v4.49h-1.4V67.37h1.14l.23,1.17h.07a2.8,2.8,0,0,1,1.2-1,4.21,4.21,0,0,1,1.73-.34,3.67,3.67,0,0,1,2.51.74,3,3,0,0,1,.85,2.39v5.58Z"/><path class="cls-3" d="M271,75a5.68,5.68,0,0,0,.72,0,3.35,3.35,0,0,0,.54-.11v1a2.85,2.85,0,0,1-.67.16,4.7,4.7,0,0,1-.79.07c-1.79,0-2.69-.87-2.69-2.62V68.38h-1.32v-.63l1.32-.53.59-1.83h.81v2h2.69v1H269.5v5a1.69,1.69,0,0,0,.4,1.19A1.47,1.47,0,0,0,271,75Z"/><path class="cls-3" d="M282.08,71.65a4.52,4.52,0,0,1-1.14,3.27,4.19,4.19,0,0,1-3.14,1.17,4.44,4.44,0,0,1-2.21-.54A3.63,3.63,0,0,1,274.11,74a5,5,0,0,1-.52-2.35,4.48,4.48,0,0,1,1.13-3.27,4.18,4.18,0,0,1,3.13-1.16,4.07,4.07,0,0,1,3.09,1.19A4.51,4.51,0,0,1,282.08,71.65Zm-7,0a3.82,3.82,0,0,0,.71,2.5,2.53,2.53,0,0,0,2.08.85,2.57,2.57,0,0,0,2.09-.85,3.86,3.86,0,0,0,.71-2.5,3.78,3.78,0,0,0-.71-2.48,2.6,2.6,0,0,0-2.11-.85,2.56,2.56,0,0,0-2.07.83A3.8,3.8,0,0,0,275,71.65Z"/><path class="cls-3" d="M292.93,76.09a4.4,4.4,0,0,1-3.24-1.16,4.27,4.27,0,0,1-1.18-3.21,4.71,4.71,0,0,1,1.1-3.29,3.78,3.78,0,0,1,2.95-1.21,3.63,3.63,0,0,1,2.75,1,3.87,3.87,0,0,1,1,2.8v.82H290a3.26,3.26,0,0,0,.82,2.29A3,3,0,0,0,293,75a7.87,7.87,0,0,0,2.95-.58v1.16a8.08,8.08,0,0,1-1.4.42A8.27,8.27,0,0,1,292.93,76.09Zm-.38-7.79a2.41,2.41,0,0,0-1.78.67,3,3,0,0,0-.78,1.86h4.83a2.7,2.7,0,0,0-.59-1.88A2.15,2.15,0,0,0,292.55,68.3Z"/><path class="cls-3" d="M305,75.93V70.4a2.13,2.13,0,0,0-.52-1.57,2.21,2.21,0,0,0-1.61-.51,2.79,2.79,0,0,0-2.12.72,3.49,3.49,0,0,0-.68,2.4v4.49h-1.4V67.37h1.14l.23,1.17h.07a2.86,2.86,0,0,1,1.2-1,4.24,4.24,0,0,1,1.73-.34,3.7,3.7,0,0,1,2.52.74,3,3,0,0,1,.84,2.39v5.58Z"/><path class="cls-3" d="M317.71,76.09a4.4,4.4,0,0,1-3.24-1.16,4.27,4.27,0,0,1-1.18-3.21,4.71,4.71,0,0,1,1.1-3.29,3.78,3.78,0,0,1,2.95-1.21,3.63,3.63,0,0,1,2.75,1,3.87,3.87,0,0,1,1,2.8v.82h-6.37a3.26,3.26,0,0,0,.82,2.29,3,3,0,0,0,2.2.78,7.87,7.87,0,0,0,2.95-.58v1.16a7.83,7.83,0,0,1-1.4.42A8.27,8.27,0,0,1,317.71,76.09Zm-.38-7.79a2.42,2.42,0,0,0-1.78.67,3,3,0,0,0-.78,1.86h4.83A2.7,2.7,0,0,0,319,69,2.15,2.15,0,0,0,317.33,68.3Z"/><path class="cls-3" d="M324.89,75.93h-1.4V63.78h1.4Z"/><path class="cls-3" d="M333.67,67.37v5.56a2.14,2.14,0,0,0,.51,1.56,2.21,2.21,0,0,0,1.61.51,2.72,2.72,0,0,0,2.12-.73,3.49,3.49,0,0,0,.67-2.4v-4.5H340v8.56h-1.15l-.2-1.14h-.08a2.76,2.76,0,0,1-1.19,1,4.2,4.2,0,0,1-1.75.34,3.73,3.73,0,0,1-2.52-.74,3,3,0,0,1-.84-2.38v-5.6Z"/><path class="cls-3" d="M348.91,73.6a2.08,2.08,0,0,1-1,1.84,4.81,4.81,0,0,1-2.7.65,6.22,6.22,0,0,1-2.86-.54v-1.2a7.08,7.08,0,0,0,1.43.49,6.35,6.35,0,0,0,1.47.18A3.6,3.6,0,0,0,347,74.7a1.08,1.08,0,0,0,.13-1.85,8.33,8.33,0,0,0-1.83-.84,9.84,9.84,0,0,1-1.83-.77,2.39,2.39,0,0,1-.81-.76,1.84,1.84,0,0,1-.27-1,1.9,1.9,0,0,1,.92-1.65,4.56,4.56,0,0,1,2.52-.6,7.77,7.77,0,0,1,2.92.56l-.5,1a7.21,7.21,0,0,0-2.52-.53,3.14,3.14,0,0,0-1.5.29.88.88,0,0,0-.51.8.94.94,0,0,0,.19.58,1.67,1.67,0,0,0,.62.46,14.06,14.06,0,0,0,1.61.64,6.36,6.36,0,0,1,2.23,1.11A1.92,1.92,0,0,1,348.91,73.6Z"/><path class="cls-3" d="M352.51,67.37v5.56a2.14,2.14,0,0,0,.51,1.56,2.21,2.21,0,0,0,1.61.51,2.72,2.72,0,0,0,2.12-.73,3.49,3.49,0,0,0,.67-2.4v-4.5h1.4v8.56h-1.15l-.2-1.14h-.08a2.71,2.71,0,0,1-1.19,1,4.19,4.19,0,0,1-1.74.34,3.75,3.75,0,0,1-2.53-.74,3,3,0,0,1-.84-2.38v-5.6Z"/><path class="cls-3" d="M367.48,75.93l-.28-1.21h-.07a3.88,3.88,0,0,1-1.38,1.09,4.47,4.47,0,0,1-1.71.28,3.24,3.24,0,0,1-2.16-.66,2.29,2.29,0,0,1-.78-1.86q0-2.59,4.48-2.72l1.57,0v-.53a2.08,2.08,0,0,0-.47-1.49,2,2,0,0,0-1.5-.48,6.43,6.43,0,0,0-2.61.66l-.43-1a6.64,6.64,0,0,1,1.5-.54,6.93,6.93,0,0,1,1.63-.2,3.73,3.73,0,0,1,2.45.68,2.72,2.72,0,0,1,.8,2.18v5.84ZM364.31,75a3,3,0,0,0,2.06-.66,2.38,2.38,0,0,0,.75-1.86v-.78l-1.4.06a5.37,5.37,0,0,0-2.41.48,1.4,1.4,0,0,0-.74,1.32,1.27,1.27,0,0,0,.46,1.07A2,2,0,0,0,364.31,75Z"/><path class="cls-3" d="M375.62,67.22a6,6,0,0,1,1.1.09l-.19,1.2a4.92,4.92,0,0,0-1-.11,2.55,2.55,0,0,0-1.92.84,2.94,2.94,0,0,0-.8,2.1v4.59h-1.4V67.37h1.15l.17,1.59h.06A3.94,3.94,0,0,1,374,67.67,3,3,0,0,1,375.62,67.22Z"/><path class="cls-3" d="M378.33,65.05a.81.81,0,0,1,.24-.65.85.85,0,0,1,.59-.21.86.86,0,0,1,.58.21.87.87,0,0,1-.58,1.52.82.82,0,0,1-.59-.22A.82.82,0,0,1,378.33,65.05Zm1.52,10.88h-1.4V67.37h1.4Z"/><path class="cls-3" d="M390.8,71.65a4.52,4.52,0,0,1-1.14,3.27,4.19,4.19,0,0,1-3.15,1.17,4.43,4.43,0,0,1-2.2-.54A3.63,3.63,0,0,1,382.83,74a5,5,0,0,1-.53-2.35,4.49,4.49,0,0,1,1.14-3.27,4.17,4.17,0,0,1,3.13-1.16,4.07,4.07,0,0,1,3.09,1.19A4.51,4.51,0,0,1,390.8,71.65Zm-7,0a3.88,3.88,0,0,0,.7,2.5,3,3,0,0,0,4.17,0,3.8,3.8,0,0,0,.72-2.5,3.73,3.73,0,0,0-.72-2.48,3,3,0,0,0-4.17,0A3.8,3.8,0,0,0,383.76,71.65Z"/><path class="cls-3" d="M32,98.09A4.13,4.13,0,0,1,28.84,97a4.52,4.52,0,0,1-1.1-3.24,4.65,4.65,0,0,1,1.12-3.32A4.19,4.19,0,0,1,32,89.22a6.76,6.76,0,0,1,1.34.13,4.68,4.68,0,0,1,1,.31L34,90.76a6.71,6.71,0,0,0-1-.28,4.65,4.65,0,0,0-1-.12q-2.82,0-2.82,3.33a3.73,3.73,0,0,0,.69,2.42,2.46,2.46,0,0,0,2,.85,6.82,6.82,0,0,0,2.37-.46v1.15A5.52,5.52,0,0,1,32,98.09Z"/><path class="cls-3" d="M44.46,93.65a4.52,4.52,0,0,1-1.14,3.27,4.19,4.19,0,0,1-3.15,1.17,4.43,4.43,0,0,1-2.2-.54A3.63,3.63,0,0,1,36.49,96,5,5,0,0,1,36,93.65a4.48,4.48,0,0,1,1.13-3.27,4.18,4.18,0,0,1,3.13-1.16,4.07,4.07,0,0,1,3.09,1.19A4.51,4.51,0,0,1,44.46,93.65Zm-7,0a3.82,3.82,0,0,0,.71,2.5,2.53,2.53,0,0,0,2.08.85,2.57,2.57,0,0,0,2.09-.85,3.86,3.86,0,0,0,.71-2.5,3.78,3.78,0,0,0-.71-2.48,2.6,2.6,0,0,0-2.11-.85,2.56,2.56,0,0,0-2.07.83A3.8,3.8,0,0,0,37.42,93.65Z"/><path class="cls-3" d="M58.7,97.93V92.36a2.16,2.16,0,0,0-.48-1.53,1.89,1.89,0,0,0-1.46-.51,2.47,2.47,0,0,0-1.93.69,3.13,3.13,0,0,0-.63,2.14v4.78H52.8V92.36a2.21,2.21,0,0,0-.47-1.53,1.94,1.94,0,0,0-1.48-.51,2.35,2.35,0,0,0-1.92.73,3.7,3.7,0,0,0-.62,2.39v4.49h-1.4V89.37h1.14l.23,1.17h.07a2.6,2.6,0,0,1,1.12-1,3.53,3.53,0,0,1,1.61-.35,2.79,2.79,0,0,1,2.84,1.45H54a2.89,2.89,0,0,1,1.2-1.06A4,4,0,0,1,57,89.22a3.28,3.28,0,0,1,2.35.74,3.18,3.18,0,0,1,.78,2.39v5.58Z"/><path class="cls-3" d="M71,93.65a4.52,4.52,0,0,1-1.14,3.27,4.19,4.19,0,0,1-3.14,1.17,4.47,4.47,0,0,1-2.21-.54A3.63,3.63,0,0,1,63,96a5,5,0,0,1-.52-2.35,4.48,4.48,0,0,1,1.13-3.27,4.18,4.18,0,0,1,3.13-1.16,4.05,4.05,0,0,1,3.09,1.19A4.51,4.51,0,0,1,71,93.65Zm-7,0a3.82,3.82,0,0,0,.71,2.5,2.53,2.53,0,0,0,2.08.85,2.57,2.57,0,0,0,2.09-.85,3.86,3.86,0,0,0,.71-2.5,3.78,3.78,0,0,0-.71-2.48,2.6,2.6,0,0,0-2.11-.85,2.56,2.56,0,0,0-2.07.83A3.8,3.8,0,0,0,63.92,93.65Z"/><path class="cls-3" d="M81.81,98.09a4.4,4.4,0,0,1-3.24-1.16,4.27,4.27,0,0,1-1.18-3.21,4.76,4.76,0,0,1,1.1-3.29,3.78,3.78,0,0,1,3-1.21,3.63,3.63,0,0,1,2.75,1,3.87,3.87,0,0,1,1,2.8v.82H78.84a3.26,3.26,0,0,0,.82,2.29,3,3,0,0,0,2.2.78,7.87,7.87,0,0,0,3-.58v1.16a7.83,7.83,0,0,1-1.4.42A8.27,8.27,0,0,1,81.81,98.09Zm-.38-7.79a2.42,2.42,0,0,0-1.78.67,3,3,0,0,0-.78,1.86h4.84A2.75,2.75,0,0,0,83.12,91,2.19,2.19,0,0,0,81.43,90.3Z"/><path class="cls-3" d="M93.92,97.93V92.4a2.17,2.17,0,0,0-.51-1.57,2.23,2.23,0,0,0-1.62-.51,2.79,2.79,0,0,0-2.12.72,3.49,3.49,0,0,0-.68,2.4v4.49h-1.4V89.37h1.14L89,90.54H89a2.86,2.86,0,0,1,1.2-1A4.24,4.24,0,0,1,92,89.22a3.7,3.7,0,0,1,2.52.74,3,3,0,0,1,.84,2.39v5.58Z"/><path class="cls-3" d="M104.08,97.93h-1.4V85.78h1.4Z"/><path class="cls-3" d="M112.74,97.93l-.28-1.21h-.07A3.88,3.88,0,0,1,111,97.81a4.5,4.5,0,0,1-1.71.28,3.24,3.24,0,0,1-2.16-.66,2.29,2.29,0,0,1-.78-1.86q0-2.59,4.48-2.72l1.57,0v-.53a2.08,2.08,0,0,0-.47-1.49,2,2,0,0,0-1.5-.48,6.43,6.43,0,0,0-2.61.66l-.43-1a6.73,6.73,0,0,1,1.49-.54,7.07,7.07,0,0,1,1.64-.2,3.73,3.73,0,0,1,2.45.68,2.71,2.71,0,0,1,.79,2.18v5.84ZM109.57,97a3,3,0,0,0,2.06-.66,2.37,2.37,0,0,0,.74-1.86v-.78l-1.4.06a5.36,5.36,0,0,0-2.4.48,1.4,1.4,0,0,0-.74,1.32,1.27,1.27,0,0,0,.46,1.07A2,2,0,0,0,109.57,97Z"/><path class="cls-3" d="M124.84,98.09A4.13,4.13,0,0,1,121.73,97a4.52,4.52,0,0,1-1.1-3.24,4.6,4.6,0,0,1,1.12-3.32,4.17,4.17,0,0,1,3.18-1.17,6.76,6.76,0,0,1,1.34.13,4.68,4.68,0,0,1,1,.31l-.43,1.1a7.06,7.06,0,0,0-1-.28,4.65,4.65,0,0,0-1-.12q-2.82,0-2.82,3.33a3.73,3.73,0,0,0,.69,2.42,2.46,2.46,0,0,0,2,.85,6.82,6.82,0,0,0,2.37-.46v1.15A5.52,5.52,0,0,1,124.84,98.09Z"/><path class="cls-3" d="M137.35,93.65a4.52,4.52,0,0,1-1.14,3.27,4.19,4.19,0,0,1-3.15,1.17,4.43,4.43,0,0,1-2.2-.54A3.63,3.63,0,0,1,129.38,96a5,5,0,0,1-.53-2.35A4.49,4.49,0,0,1,130,90.38a4.17,4.17,0,0,1,3.13-1.16,4.07,4.07,0,0,1,3.09,1.19A4.51,4.51,0,0,1,137.35,93.65Zm-7,0a3.88,3.88,0,0,0,.7,2.5,3,3,0,0,0,4.17,0,3.8,3.8,0,0,0,.72-2.5,3.73,3.73,0,0,0-.72-2.48,3,3,0,0,0-4.17,0A3.8,3.8,0,0,0,130.31,93.65Z"/><path class="cls-3" d="M146.13,97.93V92.4a2.13,2.13,0,0,0-.52-1.57,2.21,2.21,0,0,0-1.61-.51,2.79,2.79,0,0,0-2.12.72,3.49,3.49,0,0,0-.68,2.4v4.49h-1.4V89.37h1.14l.23,1.17h.07a2.86,2.86,0,0,1,1.2-1,4.24,4.24,0,0,1,1.73-.34,3.7,3.7,0,0,1,2.52.74,3,3,0,0,1,.84,2.39v5.58Z"/><path class="cls-3" d="M153.39,97a5.55,5.55,0,0,0,.72,0,3.77,3.77,0,0,0,.55-.11v1A3.1,3.1,0,0,1,154,98a4.7,4.7,0,0,1-.79.07c-1.79,0-2.68-.87-2.68-2.62V90.38h-1.33v-.63l1.33-.53.59-1.83h.81v2h2.68v1h-2.68v5a1.69,1.69,0,0,0,.39,1.19A1.47,1.47,0,0,0,153.39,97Z"/><path class="cls-3" d="M160.72,89.22a6,6,0,0,1,1.1.09l-.19,1.2a4.92,4.92,0,0,0-1-.11,2.55,2.55,0,0,0-1.92.84,2.94,2.94,0,0,0-.8,2.1v4.59h-1.4V89.37h1.16l.16,1.59h.06a3.87,3.87,0,0,1,1.25-1.29A2.94,2.94,0,0,1,160.72,89.22Z"/><path class="cls-3" d="M169.24,97.93,169,96.72h-.07a3.88,3.88,0,0,1-1.38,1.09,4.5,4.5,0,0,1-1.71.28,3.24,3.24,0,0,1-2.16-.66,2.29,2.29,0,0,1-.78-1.86q0-2.59,4.48-2.72l1.57,0v-.53a2.08,2.08,0,0,0-.47-1.49,2,2,0,0,0-1.5-.48,6.43,6.43,0,0,0-2.61.66l-.43-1a6.64,6.64,0,0,1,1.5-.54,6.93,6.93,0,0,1,1.63-.2,3.73,3.73,0,0,1,2.45.68,2.72,2.72,0,0,1,.8,2.18v5.84ZM166.07,97a3,3,0,0,0,2.06-.66,2.38,2.38,0,0,0,.75-1.86v-.78l-1.41.06a5.36,5.36,0,0,0-2.4.48,1.4,1.4,0,0,0-.74,1.32,1.27,1.27,0,0,0,.46,1.07A2,2,0,0,0,166.07,97Z"/><path class="cls-3" d="M179.12,95.6a2.08,2.08,0,0,1-1,1.84,4.81,4.81,0,0,1-2.7.65,6.29,6.29,0,0,1-2.87-.54v-1.2a7.3,7.3,0,0,0,1.43.49,6.43,6.43,0,0,0,1.48.18,3.6,3.6,0,0,0,1.68-.32,1.06,1.06,0,0,0,.59-1,1,1,0,0,0-.47-.86,8.19,8.19,0,0,0-1.82-.84,10.32,10.32,0,0,1-1.84-.77,2.45,2.45,0,0,1-.8-.76,1.84,1.84,0,0,1-.27-1,1.9,1.9,0,0,1,.92-1.65,4.56,4.56,0,0,1,2.52-.6,7.77,7.77,0,0,1,2.92.56l-.5,1a7.26,7.26,0,0,0-2.52-.53,3.14,3.14,0,0,0-1.5.29.88.88,0,0,0-.51.8.94.94,0,0,0,.19.58,1.71,1.71,0,0,0,.61.46,13.68,13.68,0,0,0,1.62.64,6.36,6.36,0,0,1,2.23,1.11A1.92,1.92,0,0,1,179.12,95.6Z"/><path class="cls-3" d="M185.3,98.09a4.4,4.4,0,0,1-3.23-1.16,4.28,4.28,0,0,1-1.19-3.21A4.71,4.71,0,0,1,182,90.43a3.78,3.78,0,0,1,2.95-1.21,3.63,3.63,0,0,1,2.75,1,3.87,3.87,0,0,1,1,2.8v.82h-6.36a3.21,3.21,0,0,0,.82,2.29,3,3,0,0,0,2.2.78,7.9,7.9,0,0,0,2.95-.58v1.16a7.39,7.39,0,0,1-3,.55Zm-.38-7.79a2.4,2.4,0,0,0-1.77.67,3,3,0,0,0-.78,1.86h4.83a2.7,2.7,0,0,0-.59-1.88A2.16,2.16,0,0,0,184.92,90.3Z"/><path class="cls-3" d="M197.42,97.93V92.4a2.13,2.13,0,0,0-.52-1.57,2.21,2.21,0,0,0-1.61-.51,2.77,2.77,0,0,0-2.12.72,3.49,3.49,0,0,0-.68,2.4v4.49h-1.4V89.37h1.14l.23,1.17h.06a2.89,2.89,0,0,1,1.21-1,4.21,4.21,0,0,1,1.73-.34A3.67,3.67,0,0,1,198,90a3,3,0,0,1,.85,2.39v5.58Zm-1-9.71a1.76,1.76,0,0,1-.71-.14c-.23-.1-.45-.2-.68-.32s-.43-.22-.64-.32a1.32,1.32,0,0,0-.59-.15.82.82,0,0,0-.64.24,1.62,1.62,0,0,0-.33.71H192a2.54,2.54,0,0,1,.6-1.48,1.6,1.6,0,0,1,1.25-.54,1.93,1.93,0,0,1,.75.15,5.42,5.42,0,0,1,.69.32l.63.32a1.33,1.33,0,0,0,.58.14.74.74,0,0,0,.61-.23,1.62,1.62,0,0,0,.33-.71h.84a2.67,2.67,0,0,1-.59,1.48A1.6,1.6,0,0,1,196.37,88.22Z"/><path class="cls-3" d="M207.38,97.93l-.28-1.21H207a3.88,3.88,0,0,1-1.38,1.09,4.5,4.5,0,0,1-1.71.28,3.24,3.24,0,0,1-2.16-.66,2.29,2.29,0,0,1-.78-1.86q0-2.59,4.48-2.72l1.57,0v-.53a2.08,2.08,0,0,0-.47-1.49,2,2,0,0,0-1.5-.48,6.43,6.43,0,0,0-2.61.66L202,90a6.64,6.64,0,0,1,1.5-.54,6.93,6.93,0,0,1,1.63-.2,3.73,3.73,0,0,1,2.45.68,2.72,2.72,0,0,1,.8,2.18v5.84ZM204.21,97a3,3,0,0,0,2.06-.66A2.37,2.37,0,0,0,207,94.5v-.78l-1.4.06a5.36,5.36,0,0,0-2.4.48,1.4,1.4,0,0,0-.74,1.32,1.27,1.27,0,0,0,.46,1.07A2,2,0,0,0,204.21,97Z"/><path class="cls-3" d="M215,94.24V93.05h4.14v1.19Z"/><path class="cls-3" d="M232.12,96.79h-.07a3.39,3.39,0,0,1-2.9,1.3,3.54,3.54,0,0,1-2.82-1.15,4.73,4.73,0,0,1-1-3.26,4.9,4.9,0,0,1,1-3.29,3.53,3.53,0,0,1,2.82-1.17A3.47,3.47,0,0,1,232,90.48h.11l-.06-.62,0-.6V85.78h1.4V97.93h-1.14Zm-2.8.21a2.66,2.66,0,0,0,2.08-.72,3.45,3.45,0,0,0,.65-2.33v-.27a4,4,0,0,0-.66-2.6,2.56,2.56,0,0,0-2.08-.78,2.22,2.22,0,0,0-1.89.89,4.18,4.18,0,0,0-.65,2.5,4,4,0,0,0,.65,2.48A2.25,2.25,0,0,0,229.32,97Z"/><path class="cls-3" d="M236.3,87.05a.81.81,0,0,1,.24-.65.84.84,0,0,1,.59-.21.88.88,0,0,1,.58.21,1,1,0,0,1,0,1.3.84.84,0,0,1-.58.22.8.8,0,0,1-.59-.22A.82.82,0,0,1,236.3,87.05Zm1.52,10.88h-1.4V89.37h1.4Z"/><path class="cls-3" d="M248.35,89.37v.82l-1.71.19a2.51,2.51,0,0,1,.42.71,2.66,2.66,0,0,1,.19,1,2.45,2.45,0,0,1-.93,2,4,4,0,0,1-2.55.75,4.72,4.72,0,0,1-.77-.06c-.6.29-.9.66-.9,1.1a.57.57,0,0,0,.31.52,2.5,2.5,0,0,0,1.08.17h1.63a3.9,3.9,0,0,1,2.31.58,2,2,0,0,1,.8,1.7A2.39,2.39,0,0,1,247,101a7,7,0,0,1-3.59.75,5.21,5.21,0,0,1-2.8-.63,2,2,0,0,1-1-1.76,1.9,1.9,0,0,1,.54-1.35,2.87,2.87,0,0,1,1.52-.78,1.43,1.43,0,0,1-.6-.46,1.16,1.16,0,0,1-.24-.72,1.33,1.33,0,0,1,.27-.83,2.73,2.73,0,0,1,.86-.67,2.54,2.54,0,0,1-1.17-.93,2.6,2.6,0,0,1-.45-1.5,2.66,2.66,0,0,1,.91-2.17,3.87,3.87,0,0,1,2.58-.76,5.3,5.3,0,0,1,1.31.15Zm-7.37,10a1.15,1.15,0,0,0,.63,1.06,3.73,3.73,0,0,0,1.82.36,5.49,5.49,0,0,0,2.61-.49,1.49,1.49,0,0,0,.84-1.33,1,1,0,0,0-.46-1,3.86,3.86,0,0,0-1.75-.27H243a2.36,2.36,0,0,0-1.49.42A1.47,1.47,0,0,0,241,99.37Zm.76-7.26a1.65,1.65,0,0,0,.55,1.36,2.26,2.26,0,0,0,1.52.46c1.37,0,2.05-.61,2.05-1.84s-.69-1.93-2.07-1.93a2.2,2.2,0,0,0-1.52.49A1.92,1.92,0,0,0,241.74,92.11Z"/><path class="cls-3" d="M250.13,87.05a.81.81,0,0,1,.24-.65.84.84,0,0,1,.59-.21.86.86,0,0,1,.58.21.87.87,0,0,1-.58,1.52.8.8,0,0,1-.59-.22A.82.82,0,0,1,250.13,87.05Zm1.52,10.88h-1.4V89.37h1.4Z"/><path class="cls-3" d="M257.6,97a5.55,5.55,0,0,0,.72,0,3.77,3.77,0,0,0,.55-.11v1a3,3,0,0,1-.67.16,4.81,4.81,0,0,1-.8.07c-1.79,0-2.68-.87-2.68-2.62V90.38H253.4v-.63l1.32-.53.59-1.83h.81v2h2.68v1h-2.68v5a1.65,1.65,0,0,0,.4,1.19A1.43,1.43,0,0,0,257.6,97Z"/><path class="cls-3" d="M264.62,98.09a4.4,4.4,0,0,1-3.23-1.16,4.28,4.28,0,0,1-1.19-3.21,4.76,4.76,0,0,1,1.1-3.29,3.8,3.8,0,0,1,3-1.21,3.65,3.65,0,0,1,2.75,1,3.91,3.91,0,0,1,1,2.8v.82h-6.37a3.26,3.26,0,0,0,.82,2.29,3,3,0,0,0,2.2.78,7.83,7.83,0,0,0,2.95-.58v1.16a7.83,7.83,0,0,1-1.4.42A8.13,8.13,0,0,1,264.62,98.09Zm-.38-7.79a2.4,2.4,0,0,0-1.77.67,2.89,2.89,0,0,0-.78,1.86h4.83a2.75,2.75,0,0,0-.59-1.88A2.19,2.19,0,0,0,264.24,90.3Z"/><path class="cls-3" d="M278.8,98.09a4.38,4.38,0,0,1-3.23-1.16,4.28,4.28,0,0,1-1.19-3.21,4.76,4.76,0,0,1,1.1-3.29,3.8,3.8,0,0,1,3-1.21,3.65,3.65,0,0,1,2.75,1,3.91,3.91,0,0,1,1,2.8v.82h-6.37a3.26,3.26,0,0,0,.82,2.29,3,3,0,0,0,2.2.78,7.83,7.83,0,0,0,2.95-.58v1.16a7.83,7.83,0,0,1-1.4.42A8.2,8.2,0,0,1,278.8,98.09Zm-.38-7.79a2.44,2.44,0,0,0-1.78.67,3,3,0,0,0-.78,1.86h4.84a2.75,2.75,0,0,0-.59-1.88A2.19,2.19,0,0,0,278.42,90.3Z"/><path class="cls-3" d="M286,97.93h-1.4V85.78H286Z"/><path class="cls-3" d="M299.77,97.93V92.4a2.13,2.13,0,0,0-.52-1.57,2.21,2.21,0,0,0-1.61-.51,2.79,2.79,0,0,0-2.12.72,3.49,3.49,0,0,0-.68,2.4v4.49h-1.4V89.37h1.14l.23,1.17h.07a2.86,2.86,0,0,1,1.2-1,4.24,4.24,0,0,1,1.73-.34,3.72,3.72,0,0,1,2.52.74,3,3,0,0,1,.84,2.39v5.58Z"/><path class="cls-3" d="M305.36,89.37v5.56a2.14,2.14,0,0,0,.51,1.56,2.23,2.23,0,0,0,1.62.51,2.75,2.75,0,0,0,2.12-.73,3.55,3.55,0,0,0,.67-2.4v-4.5h1.4v8.56h-1.16l-.2-1.14h-.08a2.65,2.65,0,0,1-1.19,1,4.19,4.19,0,0,1-1.74.34,3.75,3.75,0,0,1-2.53-.74,3,3,0,0,1-.84-2.38v-5.6ZM306.83,88a17.22,17.22,0,0,0,1.61-2.36h1.7v.16a11.24,11.24,0,0,1-1.1,1.25,11.6,11.6,0,0,1-1.28,1.15h-.93Z"/><path class="cls-3" d="M326.43,97.93V92.36a2.21,2.21,0,0,0-.47-1.53,1.93,1.93,0,0,0-1.47-.51,2.47,2.47,0,0,0-1.93.69,3.13,3.13,0,0,0-.63,2.14v4.78h-1.4V92.36a2.16,2.16,0,0,0-.47-1.53,1.92,1.92,0,0,0-1.48-.51,2.35,2.35,0,0,0-1.92.73,3.71,3.71,0,0,0-.61,2.39v4.49h-1.4V89.37h1.13l.23,1.17h.07a2.66,2.66,0,0,1,1.12-1,3.55,3.55,0,0,1,1.61-.35,2.79,2.79,0,0,1,2.84,1.45h.06a2.89,2.89,0,0,1,1.2-1.06,4,4,0,0,1,1.79-.39,3.27,3.27,0,0,1,2.35.74,3.18,3.18,0,0,1,.78,2.39v5.58Z"/><path class="cls-3" d="M334.62,98.09a4.4,4.4,0,0,1-3.24-1.16,4.27,4.27,0,0,1-1.18-3.21,4.76,4.76,0,0,1,1.1-3.29,3.79,3.79,0,0,1,3-1.21,3.66,3.66,0,0,1,2.75,1,3.91,3.91,0,0,1,1,2.8v.82h-6.37a3.26,3.26,0,0,0,.82,2.29,3,3,0,0,0,2.2.78,7.87,7.87,0,0,0,2.95-.58v1.16a7.83,7.83,0,0,1-1.4.42A8.27,8.27,0,0,1,334.62,98.09Zm-.38-7.79a2.42,2.42,0,0,0-1.78.67,3,3,0,0,0-.78,1.86h4.84a2.75,2.75,0,0,0-.59-1.88A2.19,2.19,0,0,0,334.24,90.3Z"/><path class="cls-3" d="M344.62,89.22a6.23,6.23,0,0,1,1.11.09l-.2,1.2a4.92,4.92,0,0,0-1-.11,2.55,2.55,0,0,0-1.92.84,2.94,2.94,0,0,0-.8,2.1v4.59h-1.4V89.37h1.16l.16,1.59h.07A3.75,3.75,0,0,1,343,89.67,2.94,2.94,0,0,1,344.62,89.22Z"/><path class="cls-3" d="M355.43,93.65a4.56,4.56,0,0,1-1.13,3.27,4.19,4.19,0,0,1-3.15,1.17,4.4,4.4,0,0,1-2.2-.54A3.66,3.66,0,0,1,347.46,96a5.12,5.12,0,0,1-.52-2.35,4.53,4.53,0,0,1,1.13-3.27,4.19,4.19,0,0,1,3.14-1.16,4,4,0,0,1,3.08,1.19A4.51,4.51,0,0,1,355.43,93.65Zm-7,0a3.88,3.88,0,0,0,.71,2.5,3,3,0,0,0,4.17,0,3.8,3.8,0,0,0,.71-2.5,3.72,3.72,0,0,0-.71-2.48,3,3,0,0,0-4.18,0A3.86,3.86,0,0,0,348.39,93.65Z"/><path class="cls-3" d="M368.67,96.79h-.08a3.37,3.37,0,0,1-2.9,1.3,3.54,3.54,0,0,1-2.82-1.15,4.78,4.78,0,0,1-1-3.26,4.9,4.9,0,0,1,1-3.29,3.54,3.54,0,0,1,2.82-1.17,3.49,3.49,0,0,1,2.89,1.26h.1l-.05-.62,0-.6V85.78H370V97.93h-1.14Zm-2.8.21a2.68,2.68,0,0,0,2.08-.72,3.45,3.45,0,0,0,.64-2.33v-.27a4.09,4.09,0,0,0-.65-2.6,2.58,2.58,0,0,0-2.09-.78,2.19,2.19,0,0,0-1.88.89,4.11,4.11,0,0,0-.66,2.5,4,4,0,0,0,.65,2.48A2.26,2.26,0,0,0,365.87,97Z"/><path class="cls-3" d="M376.87,98.09a4.4,4.4,0,0,1-3.24-1.16,4.27,4.27,0,0,1-1.18-3.21,4.71,4.71,0,0,1,1.1-3.29,3.78,3.78,0,0,1,2.95-1.21,3.63,3.63,0,0,1,2.75,1,3.87,3.87,0,0,1,1,2.8v.82H373.9a3.21,3.21,0,0,0,.82,2.29,3,3,0,0,0,2.2.78,7.87,7.87,0,0,0,2.95-.58v1.16a8.08,8.08,0,0,1-1.4.42A8.27,8.27,0,0,1,376.87,98.09Zm-.38-7.79a2.41,2.41,0,0,0-1.78.67,3,3,0,0,0-.78,1.86h4.83a2.7,2.7,0,0,0-.59-1.88A2.15,2.15,0,0,0,376.49,90.3Z"/><path class="cls-3" d="M388.54,97.93h-1.4V85.78h1.4Z"/><path class="cls-3" d="M397.19,97.93l-.27-1.21h-.07a3.88,3.88,0,0,1-1.38,1.09,4.52,4.52,0,0,1-1.72.28,3.23,3.23,0,0,1-2.15-.66,2.29,2.29,0,0,1-.78-1.86q0-2.59,4.48-2.72l1.56,0v-.53a2.08,2.08,0,0,0-.46-1.49,2,2,0,0,0-1.5-.48,6.43,6.43,0,0,0-2.61.66l-.44-1a7.26,7.26,0,0,1,3.13-.74,3.71,3.71,0,0,1,2.45.68,2.69,2.69,0,0,1,.8,2.18v5.84ZM394,97a3,3,0,0,0,2.05-.66,2.38,2.38,0,0,0,.75-1.86v-.78l-1.4.06a5.41,5.41,0,0,0-2.41.48,1.41,1.41,0,0,0-.73,1.32,1.29,1.29,0,0,0,.45,1.07A2,2,0,0,0,394,97Z"/><path class="cls-3" d="M68.68,119.93V114.4a2.13,2.13,0,0,0-.52-1.57,2.21,2.21,0,0,0-1.61-.51,2.79,2.79,0,0,0-2.12.72,3.49,3.49,0,0,0-.68,2.4v4.49h-1.4v-8.56h1.14l.23,1.17h.07a2.86,2.86,0,0,1,1.2-1,4.24,4.24,0,0,1,1.73-.34,3.7,3.7,0,0,1,2.52.74,3,3,0,0,1,.84,2.39v5.58Z"/><path class="cls-3" d="M80.93,115.65a4.52,4.52,0,0,1-1.14,3.27,4.16,4.16,0,0,1-3.14,1.17,4.4,4.4,0,0,1-2.2-.54A3.66,3.66,0,0,1,73,118a5,5,0,0,1-.52-2.35,4.53,4.53,0,0,1,1.13-3.27,4.19,4.19,0,0,1,3.14-1.16,4,4,0,0,1,3.08,1.19A4.51,4.51,0,0,1,80.93,115.65Zm-7,0a3.88,3.88,0,0,0,.71,2.5,3,3,0,0,0,4.17,0,3.8,3.8,0,0,0,.71-2.5,3.72,3.72,0,0,0-.71-2.48,3,3,0,0,0-4.18,0A3.8,3.8,0,0,0,73.89,115.65Z"/><path class="cls-3" d="M87.6,111.22a6.16,6.16,0,0,1,1.11.09l-.19,1.2a5,5,0,0,0-1-.11,2.54,2.54,0,0,0-1.91.84,2.9,2.9,0,0,0-.8,2.1v4.59h-1.4v-8.56h1.15L84.7,113h.07A3.84,3.84,0,0,1,86,111.67,3,3,0,0,1,87.6,111.22Z"/><path class="cls-3" d="M102.22,119.93v-5.57a2.21,2.21,0,0,0-.47-1.53,1.93,1.93,0,0,0-1.47-.51,2.48,2.48,0,0,0-1.93.69,3.13,3.13,0,0,0-.62,2.14v4.78h-1.4v-5.57a2.16,2.16,0,0,0-.48-1.53,1.9,1.9,0,0,0-1.47-.51,2.37,2.37,0,0,0-1.93.73,3.71,3.71,0,0,0-.61,2.39v4.49h-1.4v-8.56h1.14l.22,1.17h.07a2.73,2.73,0,0,1,1.12-1,3.57,3.57,0,0,1,1.62-.35,2.78,2.78,0,0,1,2.83,1.45h.07a2.8,2.8,0,0,1,1.19-1.06,4,4,0,0,1,1.79-.39,3.27,3.27,0,0,1,2.35.74,3.18,3.18,0,0,1,.78,2.39v5.58Z"/><path class="cls-3" d="M112.19,119.93l-.28-1.21h-.07a4,4,0,0,1-1.37,1.09,4.52,4.52,0,0,1-1.72.28,3.24,3.24,0,0,1-2.16-.66,2.29,2.29,0,0,1-.78-1.86c0-1.73,1.5-2.64,4.48-2.72l1.57,0v-.53a2,2,0,0,0-.47-1.49,2,2,0,0,0-1.49-.48,6.51,6.51,0,0,0-2.62.66l-.43-1a7.26,7.26,0,0,1,3.13-.74,3.73,3.73,0,0,1,2.45.68,2.72,2.72,0,0,1,.8,2.18v5.84ZM109,119a3,3,0,0,0,2-.66,2.38,2.38,0,0,0,.75-1.86v-.78l-1.4.06a5.37,5.37,0,0,0-2.41.48,1.42,1.42,0,0,0-.74,1.32,1.27,1.27,0,0,0,.46,1.07A2,2,0,0,0,109,119Z"/><path class="cls-3" d="M119.13,111.37h1.5l2,4.88a17,17,0,0,1,.82,2.42h.07c.08-.27.23-.72.46-1.36s1-2.63,2.29-5.94h1.5l-4,9.75a4.7,4.7,0,0,1-1.38,2,3,3,0,0,1-1.93.61,6.76,6.76,0,0,1-1.27-.13v-1a5.52,5.52,0,0,0,1,.09,2.13,2.13,0,0,0,2.06-1.5l.51-1.22Z"/><path class="cls-3" d="M140.08,118.79H140a3.39,3.39,0,0,1-2.9,1.3,3.57,3.57,0,0,1-2.83-1.15,4.78,4.78,0,0,1-1-3.26,4.85,4.85,0,0,1,1-3.29,3.52,3.52,0,0,1,2.82-1.17,3.47,3.47,0,0,1,2.88,1.26h.11l-.06-.62,0-.6v-3.48h1.4v12.15h-1.14Zm-2.8.21a2.66,2.66,0,0,0,2.08-.72A3.45,3.45,0,0,0,140,116v-.27a4,4,0,0,0-.66-2.6,2.56,2.56,0,0,0-2.08-.78,2.22,2.22,0,0,0-1.89.89,4.18,4.18,0,0,0-.65,2.5,4,4,0,0,0,.65,2.48A2.25,2.25,0,0,0,137.28,119Z"/><path class="cls-3" d="M148.28,120.09a4.4,4.4,0,0,1-3.23-1.16,4.28,4.28,0,0,1-1.19-3.21,4.76,4.76,0,0,1,1.1-3.29,3.8,3.8,0,0,1,3-1.21,3.65,3.65,0,0,1,2.75,1,3.91,3.91,0,0,1,1,2.8v.82h-6.37a3.26,3.26,0,0,0,.82,2.29,3,3,0,0,0,2.2.78,7.83,7.83,0,0,0,2.95-.58v1.16a7.83,7.83,0,0,1-1.4.42A8.13,8.13,0,0,1,148.28,120.09Zm-.38-7.79a2.4,2.4,0,0,0-1.77.67,2.89,2.89,0,0,0-.78,1.86h4.83a2.75,2.75,0,0,0-.59-1.88A2.19,2.19,0,0,0,147.9,112.3Zm-1-2.26c.27-.32.56-.71.88-1.17a13.81,13.81,0,0,0,.74-1.19h1.7v.16a11.51,11.51,0,0,1-1.11,1.25,10.77,10.77,0,0,1-1.27,1.15h-.94Z"/><path class="cls-3" d="M162.25,120.09a4.13,4.13,0,0,1-3.11-1.14,4.52,4.52,0,0,1-1.1-3.24,4.6,4.6,0,0,1,1.12-3.32,4.17,4.17,0,0,1,3.18-1.17,6.59,6.59,0,0,1,1.33.13,4.62,4.62,0,0,1,1.05.31l-.43,1.1a7.06,7.06,0,0,0-1-.28,4.65,4.65,0,0,0-1-.12q-2.82,0-2.82,3.33a3.73,3.73,0,0,0,.69,2.42,2.46,2.46,0,0,0,2,.85,6.82,6.82,0,0,0,2.37-.46v1.15A5.52,5.52,0,0,1,162.25,120.09Z"/><path class="cls-3" d="M168.18,119.93h-1.4V107.78h1.4Z"/><path class="cls-3" d="M171,109.05a.81.81,0,0,1,.24-.65.84.84,0,0,1,.59-.21.88.88,0,0,1,.58.21,1,1,0,0,1,0,1.3.84.84,0,0,1-.58.22.8.8,0,0,1-.59-.22A.82.82,0,0,1,171,109.05Zm1.52,10.88h-1.4v-8.56h1.4Z"/><path class="cls-3" d="M179.21,120.09A4.13,4.13,0,0,1,176.1,119a4.52,4.52,0,0,1-1.1-3.24,4.65,4.65,0,0,1,1.12-3.32,4.19,4.19,0,0,1,3.18-1.17,6.76,6.76,0,0,1,1.34.13,4.68,4.68,0,0,1,1,.31l-.43,1.1a6.71,6.71,0,0,0-1-.28,4.65,4.65,0,0,0-1-.12q-2.82,0-2.82,3.33a3.73,3.73,0,0,0,.69,2.42,2.46,2.46,0,0,0,2,.85,6.82,6.82,0,0,0,2.37-.46v1.15A5.52,5.52,0,0,1,179.21,120.09Z"/><path class="cls-3" d="M192.13,120.09a4.4,4.4,0,0,1-3.23-1.16,4.28,4.28,0,0,1-1.19-3.21,4.76,4.76,0,0,1,1.1-3.29,3.8,3.8,0,0,1,3-1.21,3.65,3.65,0,0,1,2.75,1,3.91,3.91,0,0,1,1,2.8v.82h-6.37a3.26,3.26,0,0,0,.83,2.29,3,3,0,0,0,2.19.78,7.92,7.92,0,0,0,3-.58v1.16a7.39,7.39,0,0,1-3,.55Zm-.38-7.79A2.4,2.4,0,0,0,190,113a3,3,0,0,0-.78,1.86H194a2.75,2.75,0,0,0-.59-1.88A2.18,2.18,0,0,0,191.75,112.3Z"/><path class="cls-3" d="M204.25,119.93V114.4a2.17,2.17,0,0,0-.52-1.57,2.21,2.21,0,0,0-1.61-.51A2.8,2.8,0,0,0,200,113a3.49,3.49,0,0,0-.67,2.4v4.49h-1.4v-8.56h1.14l.23,1.17h.06a2.89,2.89,0,0,1,1.21-1,4.21,4.21,0,0,1,1.73-.34,3.67,3.67,0,0,1,2.51.74,3,3,0,0,1,.84,2.39v5.58Z"/><path class="cls-3" d="M213.22,108.51h3.48a7,7,0,0,1,3.55.68,2.64,2.64,0,0,1,.49,3.83,3,3,0,0,1-1.79.85V114c1.88.3,2.81,1.21,2.81,2.73a2.87,2.87,0,0,1-1.11,2.4,5.06,5.06,0,0,1-3.13.85h-4.3Zm1.43,4.89H217a4,4,0,0,0,2.19-.44,1.66,1.66,0,0,0,.67-1.49,1.46,1.46,0,0,0-.75-1.38,4.85,4.85,0,0,0-2.36-.43h-2.11Zm0,1.13v4.27h2.57a3.93,3.93,0,0,0,2.25-.53,1.91,1.91,0,0,0,.76-1.68,1.73,1.73,0,0,0-.77-1.56,4.44,4.44,0,0,0-2.35-.5Z"/><path class="cls-3" d="M225.52,111.37v5.56a2.14,2.14,0,0,0,.51,1.56,2.21,2.21,0,0,0,1.61.51,2.72,2.72,0,0,0,2.12-.73,3.49,3.49,0,0,0,.67-2.4v-4.5h1.4v8.56h-1.15l-.2-1.14h-.08a2.71,2.71,0,0,1-1.19,1,4.2,4.2,0,0,1-1.75.34,3.73,3.73,0,0,1-2.52-.74,3,3,0,0,1-.84-2.38v-5.6Z"/><path class="cls-3" d="M240.76,117.6a2.08,2.08,0,0,1-1,1.84,4.81,4.81,0,0,1-2.7.65,6.22,6.22,0,0,1-2.86-.54v-1.2a7.08,7.08,0,0,0,1.43.49,6.35,6.35,0,0,0,1.47.18,3.68,3.68,0,0,0,1.69-.32,1.07,1.07,0,0,0,.59-1,1.06,1.06,0,0,0-.47-.86,8.33,8.33,0,0,0-1.83-.84,9.84,9.84,0,0,1-1.83-.77,2.39,2.39,0,0,1-.81-.76,1.84,1.84,0,0,1-.27-1,1.9,1.9,0,0,1,.92-1.65,4.56,4.56,0,0,1,2.52-.6,7.77,7.77,0,0,1,2.92.56l-.5,1a7.21,7.21,0,0,0-2.52-.53,3.14,3.14,0,0,0-1.5.29.88.88,0,0,0-.51.8.94.94,0,0,0,.19.58,1.67,1.67,0,0,0,.62.46,13.68,13.68,0,0,0,1.62.64,6.39,6.39,0,0,1,2.22,1.11A1.92,1.92,0,0,1,240.76,117.6Z"/><path class="cls-3" d="M246.74,120.09a4.12,4.12,0,0,1-3.11-1.14,4.48,4.48,0,0,1-1.1-3.24,4.6,4.6,0,0,1,1.12-3.32,4.17,4.17,0,0,1,3.18-1.17,6.66,6.66,0,0,1,1.33.13,4.79,4.79,0,0,1,1.05.31l-.43,1.1a7.06,7.06,0,0,0-1-.28,4.65,4.65,0,0,0-1-.12q-2.82,0-2.82,3.33a3.73,3.73,0,0,0,.69,2.42,2.43,2.43,0,0,0,2,.85,6.82,6.82,0,0,0,2.37-.46v1.15A5.5,5.5,0,0,1,246.74,120.09Z"/><path class="cls-3" d="M257,119.93l-.28-1.21h-.07a4,4,0,0,1-1.37,1.09,4.52,4.52,0,0,1-1.72.28,3.24,3.24,0,0,1-2.16-.66,2.29,2.29,0,0,1-.78-1.86c0-1.73,1.5-2.64,4.48-2.72l1.57,0v-.53a2,2,0,0,0-.47-1.49,2,2,0,0,0-1.49-.48A6.47,6.47,0,0,0,252,113l-.43-1a7.26,7.26,0,0,1,3.13-.74,3.73,3.73,0,0,1,2.45.68,2.72,2.72,0,0,1,.8,2.18v5.84Zm-3.16-.91a3,3,0,0,0,2.05-.66,2.38,2.38,0,0,0,.75-1.86v-.78l-1.4.06a5.37,5.37,0,0,0-2.41.48,1.42,1.42,0,0,0-.74,1.32,1.27,1.27,0,0,0,.46,1.07A2,2,0,0,0,253.79,119Z"/><path class="cls-3" d="M265.09,111.22a6,6,0,0,1,1.1.09l-.19,1.2a4.92,4.92,0,0,0-1-.11,2.55,2.55,0,0,0-1.92.84,2.94,2.94,0,0,0-.8,2.1v4.59h-1.4v-8.56H262l.16,1.59h.07a3.75,3.75,0,0,1,1.24-1.29A2.94,2.94,0,0,1,265.09,111.22Z"/><path class="cls-3" d="M269.05,108.51l.12.17a17.45,17.45,0,0,1-.63,1.82c-.28.69-.56,1.33-.86,1.93h-1c.39-1.49.68-2.79.86-3.92Zm3.11,0,.12.17c-.14.48-.34,1.06-.61,1.75s-.56,1.36-.88,2h-1.05c.14-.52.31-1.19.49-2s.32-1.44.39-1.93Z"/><path class="cls-3" d="M277.68,116.24v-1.19h4.14v1.19Z"/><path class="cls-3" d="M292.2,120.09a4.12,4.12,0,0,1-3.11-1.14,4.52,4.52,0,0,1-1.1-3.24,4.6,4.6,0,0,1,1.12-3.32,4.17,4.17,0,0,1,3.18-1.17,6.59,6.59,0,0,1,1.33.13,4.62,4.62,0,0,1,1.05.31l-.43,1.1a7.06,7.06,0,0,0-1-.28,4.65,4.65,0,0,0-1-.12q-2.82,0-2.82,3.33a3.73,3.73,0,0,0,.69,2.42,2.44,2.44,0,0,0,2,.85,6.82,6.82,0,0,0,2.37-.46v1.15A5.44,5.44,0,0,1,292.2,120.09Z"/><path class="cls-3" d="M298,111.37v5.56a2.14,2.14,0,0,0,.52,1.56,2.21,2.21,0,0,0,1.61.51,2.74,2.74,0,0,0,2.12-.73,3.49,3.49,0,0,0,.67-2.4v-4.5h1.4v8.56h-1.15l-.21-1.14h-.07a2.73,2.73,0,0,1-1.2,1,4.19,4.19,0,0,1-1.74.34,3.73,3.73,0,0,1-2.52-.74,3,3,0,0,1-.84-2.38v-5.6Z"/><path class="cls-3" d="M313,119.93l-.27-1.21h-.07a3.88,3.88,0,0,1-1.38,1.09,4.52,4.52,0,0,1-1.72.28,3.23,3.23,0,0,1-2.15-.66,2.29,2.29,0,0,1-.78-1.86q0-2.59,4.48-2.72l1.56,0v-.53a2.08,2.08,0,0,0-.46-1.49,2,2,0,0,0-1.5-.48,6.43,6.43,0,0,0-2.61.66l-.44-1a7.26,7.26,0,0,1,3.13-.74,3.71,3.71,0,0,1,2.45.68,2.69,2.69,0,0,1,.8,2.18v5.84Zm-3.16-.91a3,3,0,0,0,2-.66,2.38,2.38,0,0,0,.75-1.86v-.78l-1.4.06a5.44,5.44,0,0,0-2.41.48,1.41,1.41,0,0,0-.73,1.32,1.29,1.29,0,0,0,.45,1.07A2,2,0,0,0,309.85,119Z"/><path class="cls-3" d="M323.26,119.93V114.4a2.17,2.17,0,0,0-.51-1.57,2.22,2.22,0,0,0-1.61-.51A2.8,2.8,0,0,0,319,113a3.49,3.49,0,0,0-.67,2.4v4.49h-1.4v-8.56h1.13l.23,1.17h.07a2.89,2.89,0,0,1,1.21-1,4.16,4.16,0,0,1,1.72-.34,3.68,3.68,0,0,1,2.52.74,3,3,0,0,1,.84,2.39v5.58Z"/><path class="cls-3" d="M333.83,118.79h-.08a3.37,3.37,0,0,1-2.9,1.3,3.54,3.54,0,0,1-2.82-1.15,4.78,4.78,0,0,1-1-3.26,4.85,4.85,0,0,1,1-3.29,4,4,0,0,1,5.7.09h.11l-.06-.62,0-.6v-3.48h1.4v12.15H334ZM331,119a2.68,2.68,0,0,0,2.08-.72,3.45,3.45,0,0,0,.64-2.33v-.27a4,4,0,0,0-.65-2.6,2.58,2.58,0,0,0-2.09-.78,2.19,2.19,0,0,0-1.88.89,4.11,4.11,0,0,0-.66,2.5,4,4,0,0,0,.65,2.48A2.27,2.27,0,0,0,331,119Z"/><path class="cls-3" d="M346.1,115.65a4.52,4.52,0,0,1-1.14,3.27,4.19,4.19,0,0,1-3.14,1.17,4.4,4.4,0,0,1-2.2-.54,3.6,3.6,0,0,1-1.49-1.55,5,5,0,0,1-.52-2.35,4.48,4.48,0,0,1,1.13-3.27,4.19,4.19,0,0,1,3.14-1.16,4,4,0,0,1,3.08,1.19A4.51,4.51,0,0,1,346.1,115.65Zm-7,0a3.88,3.88,0,0,0,.71,2.5,2.53,2.53,0,0,0,2.08.85,2.57,2.57,0,0,0,2.09-.85,3.86,3.86,0,0,0,.71-2.5,3.78,3.78,0,0,0-.71-2.48,2.6,2.6,0,0,0-2.11-.85,2.56,2.56,0,0,0-2.07.83A3.8,3.8,0,0,0,339.06,115.65Z"/><path class="cls-3" d="M354.44,119.93H353V107.78h1.4Z"/><path class="cls-3" d="M363.1,119.93l-.28-1.21h-.07a3.88,3.88,0,0,1-1.38,1.09,4.5,4.5,0,0,1-1.71.28,3.24,3.24,0,0,1-2.16-.66,2.29,2.29,0,0,1-.78-1.86q0-2.59,4.48-2.72l1.57,0v-.53a2.08,2.08,0,0,0-.47-1.49,2,2,0,0,0-1.5-.48,6.43,6.43,0,0,0-2.61.66l-.43-1a6.64,6.64,0,0,1,1.5-.54,6.93,6.93,0,0,1,1.63-.2,3.73,3.73,0,0,1,2.45.68,2.71,2.71,0,0,1,.79,2.18v5.84Zm-3.17-.91a3,3,0,0,0,2.06-.66,2.37,2.37,0,0,0,.74-1.86v-.78l-1.4.06a5.36,5.36,0,0,0-2.4.48,1.4,1.4,0,0,0-.74,1.32,1.27,1.27,0,0,0,.46,1.07A2,2,0,0,0,359.93,119Z"/><path class="cls-3" d="M42.52,142.09a4.4,4.4,0,0,1-3.24-1.16,4.27,4.27,0,0,1-1.18-3.21,4.71,4.71,0,0,1,1.1-3.29,3.78,3.78,0,0,1,2.95-1.21,3.63,3.63,0,0,1,2.75,1.05,3.87,3.87,0,0,1,1,2.8v.82H39.55a3.21,3.21,0,0,0,.82,2.29,3,3,0,0,0,2.2.78,7.87,7.87,0,0,0,3-.58v1.16a7.39,7.39,0,0,1-3,.55Zm-.38-7.79a2.41,2.41,0,0,0-1.78.67,3,3,0,0,0-.78,1.86h4.83a2.7,2.7,0,0,0-.59-1.88A2.15,2.15,0,0,0,42.14,134.3Z"/><path class="cls-3" d="M54.63,141.93V136.4a2.13,2.13,0,0,0-.52-1.57,2.21,2.21,0,0,0-1.61-.51,2.79,2.79,0,0,0-2.12.72,3.49,3.49,0,0,0-.68,2.4v4.49H48.3v-8.56h1.14l.23,1.17h.07a2.73,2.73,0,0,1,1.2-1,4.24,4.24,0,0,1,1.73-.34,3.67,3.67,0,0,1,2.51.74,3,3,0,0,1,.85,2.39v5.58Z"/><path class="cls-3" d="M62.6,142.09A4.12,4.12,0,0,1,59.49,141a4.52,4.52,0,0,1-1.1-3.24,4.6,4.6,0,0,1,1.12-3.32,4.17,4.17,0,0,1,3.18-1.17,6.66,6.66,0,0,1,1.33.13,4.62,4.62,0,0,1,1,.31l-.43,1.1a7.06,7.06,0,0,0-1-.28,4.65,4.65,0,0,0-1-.12q-2.82,0-2.82,3.33a3.73,3.73,0,0,0,.69,2.42,2.44,2.44,0,0,0,2,.85,6.82,6.82,0,0,0,2.37-.46v1.15A5.44,5.44,0,0,1,62.6,142.09Z"/><path class="cls-3" d="M68.44,133.37v5.56a2.1,2.1,0,0,0,.52,1.56,2.21,2.21,0,0,0,1.61.51,2.74,2.74,0,0,0,2.12-.73,3.49,3.49,0,0,0,.67-2.4v-4.5h1.4v8.56H73.6l-.2-1.14h-.07a2.73,2.73,0,0,1-1.2,1,4.19,4.19,0,0,1-1.74.34,3.72,3.72,0,0,1-2.52-.74A3,3,0,0,1,67,139v-5.6Z"/><path class="cls-3" d="M81.63,142.09a4.4,4.4,0,0,1-3.23-1.16,4.28,4.28,0,0,1-1.19-3.21,4.76,4.76,0,0,1,1.1-3.29,3.8,3.8,0,0,1,3-1.21A3.63,3.63,0,0,1,84,134.27a3.87,3.87,0,0,1,1,2.8v.82H78.67a3.21,3.21,0,0,0,.82,2.29,3,3,0,0,0,2.19.78,7.92,7.92,0,0,0,3-.58v1.16a7.39,7.39,0,0,1-3,.55Zm-.38-7.79a2.4,2.4,0,0,0-1.77.67,3,3,0,0,0-.78,1.86h4.83a2.7,2.7,0,0,0-.59-1.88A2.16,2.16,0,0,0,81.25,134.3Z"/><path class="cls-3" d="M93.75,141.93V136.4a2.17,2.17,0,0,0-.52-1.57,2.21,2.21,0,0,0-1.61-.51,2.76,2.76,0,0,0-2.12.72,3.49,3.49,0,0,0-.68,2.4v4.49h-1.4v-8.56h1.14l.23,1.17h.06a2.82,2.82,0,0,1,1.21-1,4.21,4.21,0,0,1,1.73-.34,3.67,3.67,0,0,1,2.51.74,3,3,0,0,1,.85,2.39v5.58Z"/><path class="cls-3" d="M101,141a5.39,5.39,0,0,0,.71-.05,3.28,3.28,0,0,0,.55-.11v1a2.85,2.85,0,0,1-.67.16,4.73,4.73,0,0,1-.8.07,2.34,2.34,0,0,1-2.68-2.62v-5.09H96.8v-.63l1.32-.53.59-1.83h.81v2h2.69v1H99.52v5a1.69,1.69,0,0,0,.4,1.19A1.46,1.46,0,0,0,101,141Z"/><path class="cls-3" d="M108.34,133.22a6,6,0,0,1,1.1.09l-.19,1.2a4.92,4.92,0,0,0-1-.11,2.55,2.55,0,0,0-1.92.84,2.94,2.94,0,0,0-.8,2.1v4.59h-1.4v-8.56h1.15l.16,1.59h.07a3.94,3.94,0,0,1,1.24-1.29A3,3,0,0,1,108.34,133.22Z"/><path class="cls-3" d="M115.08,142.09a4.4,4.4,0,0,1-3.24-1.16,4.27,4.27,0,0,1-1.18-3.21,4.71,4.71,0,0,1,1.1-3.29,3.78,3.78,0,0,1,2.95-1.21,3.63,3.63,0,0,1,2.75,1.05,3.87,3.87,0,0,1,1,2.8v.82h-6.36a3.21,3.21,0,0,0,.82,2.29,3,3,0,0,0,2.2.78,7.9,7.9,0,0,0,3-.58v1.16a7.39,7.39,0,0,1-3,.55Zm-.38-7.79a2.41,2.41,0,0,0-1.78.67,3,3,0,0,0-.78,1.86H117a2.7,2.7,0,0,0-.59-1.88A2.15,2.15,0,0,0,114.7,134.3Z"/><path class="cls-3" d="M122.33,140.08l.13.17a17.75,17.75,0,0,1-.64,1.82c-.27.69-.56,1.33-.86,1.93h-1c.15-.54.32-1.21.5-2s.31-1.44.38-1.91Z"/><path class="cls-3" d="M135.88,140.79h-.08a3.38,3.38,0,0,1-2.9,1.3,3.54,3.54,0,0,1-2.82-1.15,4.73,4.73,0,0,1-1-3.26,4.9,4.9,0,0,1,1-3.29,3.53,3.53,0,0,1,2.82-1.17,3.47,3.47,0,0,1,2.88,1.26h.11l-.06-.62,0-.6v-3.48h1.4v12.15h-1.14Zm-2.8.21a2.65,2.65,0,0,0,2.07-.72,3.45,3.45,0,0,0,.65-2.33v-.27a4.09,4.09,0,0,0-.65-2.6,2.6,2.6,0,0,0-2.09-.78,2.22,2.22,0,0,0-1.89.89,4.18,4.18,0,0,0-.65,2.5,4,4,0,0,0,.65,2.48A2.26,2.26,0,0,0,133.08,141Z"/><path class="cls-3" d="M144.07,142.09a4.4,4.4,0,0,1-3.23-1.16,4.28,4.28,0,0,1-1.19-3.21,4.76,4.76,0,0,1,1.1-3.29,3.8,3.8,0,0,1,3-1.21,3.63,3.63,0,0,1,2.75,1.05,3.91,3.91,0,0,1,1,2.8v.82H141.1a3.26,3.26,0,0,0,.83,2.29,3,3,0,0,0,2.19.78,7.92,7.92,0,0,0,3-.58v1.16a7.39,7.39,0,0,1-3,.55Zm-.38-7.79a2.4,2.4,0,0,0-1.77.67,3,3,0,0,0-.78,1.86H146a2.75,2.75,0,0,0-.59-1.88A2.18,2.18,0,0,0,143.69,134.3Zm-1-2.26a17.22,17.22,0,0,0,1.61-2.36H146v.16a11.24,11.24,0,0,1-1.1,1.25,11.6,11.6,0,0,1-1.28,1.15h-.93Z"/><path class="cls-3" d="M158,142.09a4.13,4.13,0,0,1-3.11-1.14,4.52,4.52,0,0,1-1.1-3.24,4.65,4.65,0,0,1,1.12-3.32,4.19,4.19,0,0,1,3.18-1.17,6.76,6.76,0,0,1,1.34.13,4.68,4.68,0,0,1,1,.31l-.43,1.1a6.71,6.71,0,0,0-1-.28,4.65,4.65,0,0,0-1-.12q-2.82,0-2.82,3.33a3.73,3.73,0,0,0,.69,2.42,2.46,2.46,0,0,0,2,.85,6.82,6.82,0,0,0,2.37-.46v1.15A5.52,5.52,0,0,1,158,142.09Z"/><path class="cls-3" d="M164,141.93h-1.4V129.78H164Z"/><path class="cls-3" d="M166.82,131.05a.81.81,0,0,1,.24-.65.85.85,0,0,1,.59-.21.86.86,0,0,1,.58.21.87.87,0,0,1-.58,1.52.82.82,0,0,1-.59-.22A.82.82,0,0,1,166.82,131.05Zm1.52,10.88h-1.4v-8.56h1.4Z"/><path class="cls-3" d="M175,142.09a4.15,4.15,0,0,1-3.11-1.14,4.52,4.52,0,0,1-1.1-3.24,4.65,4.65,0,0,1,1.12-3.32,4.21,4.21,0,0,1,3.19-1.17,6.73,6.73,0,0,1,1.33.13,4.68,4.68,0,0,1,1,.31l-.43,1.1a6.71,6.71,0,0,0-1-.28,4.57,4.57,0,0,0-1-.12c-1.88,0-2.81,1.11-2.81,3.33a3.73,3.73,0,0,0,.68,2.42,2.46,2.46,0,0,0,2,.85,6.82,6.82,0,0,0,2.37-.46v1.15A5.52,5.52,0,0,1,175,142.09Z"/><path class="cls-3" d="M187.92,142.09a4.4,4.4,0,0,1-3.23-1.16,4.27,4.27,0,0,1-1.18-3.21,4.71,4.71,0,0,1,1.1-3.29,3.78,3.78,0,0,1,2.95-1.21,3.63,3.63,0,0,1,2.75,1.05,3.87,3.87,0,0,1,1,2.8v.82H185a3.21,3.21,0,0,0,.82,2.29,3,3,0,0,0,2.2.78,7.9,7.9,0,0,0,3-.58v1.16a7.39,7.39,0,0,1-3,.55Zm-.37-7.79a2.41,2.41,0,0,0-1.78.67,3,3,0,0,0-.78,1.86h4.83a2.7,2.7,0,0,0-.59-1.88A2.15,2.15,0,0,0,187.55,134.3Z"/><path class="cls-3" d="M200,141.93V136.4a2.13,2.13,0,0,0-.52-1.57,2.21,2.21,0,0,0-1.61-.51,2.77,2.77,0,0,0-2.12.72,3.49,3.49,0,0,0-.68,2.4v4.49h-1.4v-8.56h1.14l.23,1.17h.06a2.82,2.82,0,0,1,1.21-1,4.21,4.21,0,0,1,1.73-.34,3.67,3.67,0,0,1,2.51.74,3,3,0,0,1,.85,2.39v5.58Z"/><path class="cls-3" d="M207.63,134.43l-.1-.18a15.33,15.33,0,0,1,.6-1.75c.27-.69.57-1.36.88-2h1a36.45,36.45,0,0,0-.87,3.92Zm3.11,0-.13-.18a22.74,22.74,0,0,1,1.5-3.74h1c-.17.6-.33,1.28-.5,2s-.29,1.38-.36,1.89Z"/><path class="cls-3" d="M216.87,141.93l-3.51-8.56h1.5l2,5.08c.44,1.19.71,2,.79,2.31h.07a16,16,0,0,1,.58-1.71q.49-1.31,2.22-5.68H222l-3.51,8.56Z"/><path class="cls-3" d="M223.38,131.05a.81.81,0,0,1,.24-.65.85.85,0,0,1,.59-.21.86.86,0,0,1,.58.21.87.87,0,0,1-.58,1.52.82.82,0,0,1-.59-.22A.82.82,0,0,1,223.38,131.05Zm1.52,10.88h-1.4v-8.56h1.4Z"/><path class="cls-3" d="M233.83,139.6a2.08,2.08,0,0,1-1,1.84,4.81,4.81,0,0,1-2.7.65,6.29,6.29,0,0,1-2.87-.54v-1.2a7.53,7.53,0,0,0,1.43.49,6.43,6.43,0,0,0,1.48.18,3.6,3.6,0,0,0,1.68-.32,1.08,1.08,0,0,0,.13-1.85,8.58,8.58,0,0,0-1.83-.84,9.84,9.84,0,0,1-1.83-.77,2.39,2.39,0,0,1-.81-.76,1.84,1.84,0,0,1-.27-1,1.89,1.89,0,0,1,.92-1.65,4.56,4.56,0,0,1,2.52-.6,7.77,7.77,0,0,1,2.92.56l-.5,1.05a7.26,7.26,0,0,0-2.52-.53,3.14,3.14,0,0,0-1.5.29.88.88,0,0,0-.51.8.94.94,0,0,0,.19.58,1.83,1.83,0,0,0,.61.46,13.68,13.68,0,0,0,1.62.64,6.36,6.36,0,0,1,2.23,1.11A1.92,1.92,0,0,1,233.83,139.6Z"/><path class="cls-3" d="M237.43,133.37v5.56a2.14,2.14,0,0,0,.51,1.56,2.21,2.21,0,0,0,1.61.51,2.72,2.72,0,0,0,2.12-.73,3.49,3.49,0,0,0,.67-2.4v-4.5h1.4v8.56h-1.15l-.2-1.14h-.08a2.71,2.71,0,0,1-1.19,1,4.2,4.2,0,0,1-1.75.34,3.73,3.73,0,0,1-2.52-.74A3,3,0,0,1,236,139v-5.6Z"/><path class="cls-3" d="M252.4,141.93l-.28-1.21h-.07a3.88,3.88,0,0,1-1.38,1.09,4.5,4.5,0,0,1-1.71.28,3.24,3.24,0,0,1-2.16-.66,2.29,2.29,0,0,1-.78-1.86q0-2.59,4.48-2.72l1.57,0v-.53a2.08,2.08,0,0,0-.47-1.49,2,2,0,0,0-1.5-.48,6.43,6.43,0,0,0-2.61.66l-.43-1a6.73,6.73,0,0,1,1.49-.54,7.07,7.07,0,0,1,1.64-.2,3.73,3.73,0,0,1,2.45.68,2.71,2.71,0,0,1,.79,2.18v5.84Zm-3.17-.91a3,3,0,0,0,2.06-.66,2.37,2.37,0,0,0,.74-1.86v-.78l-1.4.06a5.22,5.22,0,0,0-2.4.48,1.4,1.4,0,0,0-.74,1.32,1.27,1.27,0,0,0,.46,1.07A2,2,0,0,0,249.23,141Z"/><path class="cls-3" d="M257.72,141.93h-1.4V129.78h1.4Z"/><path class="cls-3" d="M260.57,131.05a.81.81,0,0,1,.24-.65.84.84,0,0,1,.59-.21.88.88,0,0,1,.58.21,1,1,0,0,1,0,1.3.84.84,0,0,1-.58.22.8.8,0,0,1-.59-.22A.82.82,0,0,1,260.57,131.05Zm1.52,10.88h-1.4v-8.56h1.4Z"/><path class="cls-3" d="M271,141.93h-6.71v-.88l5.05-6.67h-4.73v-1h6.26v1l-5,6.55H271Z"/><path class="cls-3" d="M278.82,141.93l-.28-1.21h-.06a4.06,4.06,0,0,1-1.38,1.09,4.52,4.52,0,0,1-1.72.28,3.21,3.21,0,0,1-2.15-.66,2.29,2.29,0,0,1-.78-1.86q0-2.59,4.47-2.72l1.57,0v-.53a2,2,0,0,0-.47-1.49,2,2,0,0,0-1.49-.48,6.51,6.51,0,0,0-2.62.66l-.43-1a7.26,7.26,0,0,1,3.13-.74,3.73,3.73,0,0,1,2.45.68,2.72,2.72,0,0,1,.8,2.18v5.84Zm-3.16-.91a3,3,0,0,0,2-.66,2.38,2.38,0,0,0,.75-1.86v-.78l-1.4.06a5.27,5.27,0,0,0-2.41.48,1.42,1.42,0,0,0-.74,1.32,1.3,1.3,0,0,0,.46,1.07A2,2,0,0,0,275.66,141Z"/><path class="cls-3" d="M287,133.22a6.23,6.23,0,0,1,1.11.09l-.2,1.2a4.92,4.92,0,0,0-1-.11,2.55,2.55,0,0,0-1.92.84,2.94,2.94,0,0,0-.8,2.1v4.59h-1.4v-8.56h1.16l.16,1.59h.07a3.75,3.75,0,0,1,1.24-1.29A2.94,2.94,0,0,1,287,133.22Z"/><path class="cls-3" d="M298.19,142.09a4.4,4.4,0,0,1-3.24-1.16,4.27,4.27,0,0,1-1.18-3.21,4.71,4.71,0,0,1,1.1-3.29,3.78,3.78,0,0,1,2.95-1.21,3.63,3.63,0,0,1,2.75,1.05,3.87,3.87,0,0,1,1,2.8v.82h-6.37a3.26,3.26,0,0,0,.82,2.29,3,3,0,0,0,2.2.78,7.87,7.87,0,0,0,2.95-.58v1.16a8.08,8.08,0,0,1-1.4.42A8.27,8.27,0,0,1,298.19,142.09Zm-.38-7.79A2.41,2.41,0,0,0,296,135a3,3,0,0,0-.78,1.86h4.83a2.7,2.7,0,0,0-.59-1.88A2.15,2.15,0,0,0,297.81,134.3Z"/><path class="cls-3" d="M309.94,139.6a2.07,2.07,0,0,1-1,1.84,4.8,4.8,0,0,1-2.69.65,6.24,6.24,0,0,1-2.87-.54v-1.2a7.08,7.08,0,0,0,1.43.49,6.42,6.42,0,0,0,1.47.18,3.68,3.68,0,0,0,1.69-.32,1.07,1.07,0,0,0,.59-1,1.06,1.06,0,0,0-.47-.86,8.11,8.11,0,0,0-1.83-.84,9.84,9.84,0,0,1-1.83-.77,2.49,2.49,0,0,1-.81-.76,1.84,1.84,0,0,1-.27-1,1.89,1.89,0,0,1,.92-1.65,4.58,4.58,0,0,1,2.52-.6,7.77,7.77,0,0,1,2.92.56l-.5,1.05a7.17,7.17,0,0,0-2.52-.53,3.14,3.14,0,0,0-1.5.29.87.87,0,0,0-.5.8.93.93,0,0,0,.18.58,1.88,1.88,0,0,0,.62.46,13.68,13.68,0,0,0,1.62.64,6.39,6.39,0,0,1,2.22,1.11A1.93,1.93,0,0,1,309.94,139.6Z"/><path class="cls-3" d="M315.2,141a5.68,5.68,0,0,0,.72-.05,3.35,3.35,0,0,0,.54-.11v1a2.85,2.85,0,0,1-.67.16,4.7,4.7,0,0,1-.79.07c-1.79,0-2.69-.87-2.69-2.62v-5.09H311v-.63l1.32-.53.59-1.83h.81v2h2.69v1h-2.69v5a1.69,1.69,0,0,0,.4,1.19A1.47,1.47,0,0,0,315.2,141Z"/><path class="cls-3" d="M324,141.93l-.28-1.21h-.07a3.88,3.88,0,0,1-1.38,1.09,4.52,4.52,0,0,1-1.72.28,3.23,3.23,0,0,1-2.15-.66,2.29,2.29,0,0,1-.78-1.86q0-2.59,4.48-2.72l1.57,0v-.53a2.08,2.08,0,0,0-.47-1.49,2,2,0,0,0-1.5-.48,6.43,6.43,0,0,0-2.61.66l-.43-1a6.73,6.73,0,0,1,1.49-.54,7.07,7.07,0,0,1,1.64-.2,3.75,3.75,0,0,1,2.45.68,2.71,2.71,0,0,1,.79,2.18v5.84Zm-3.17-.91a3,3,0,0,0,2.06-.66,2.4,2.4,0,0,0,.74-1.86v-.78l-1.4.06a5.3,5.3,0,0,0-2.41.48,1.41,1.41,0,0,0-.73,1.32,1.27,1.27,0,0,0,.46,1.07A2,2,0,0,0,320.83,141Z"/><path class="cls-3" d="M338.73,141.93V136.4a2.17,2.17,0,0,0-.51-1.57,2.23,2.23,0,0,0-1.62-.51,2.79,2.79,0,0,0-2.12.72,3.49,3.49,0,0,0-.68,2.4v4.49h-1.4v-8.56h1.14l.23,1.17h.07a2.85,2.85,0,0,1,1.2-1,4.24,4.24,0,0,1,1.73-.34,3.7,3.7,0,0,1,2.52.74,3,3,0,0,1,.84,2.39v5.58Z"/><path class="cls-3" d="M351,137.65a4.52,4.52,0,0,1-1.13,3.27,4.19,4.19,0,0,1-3.15,1.17,4.4,4.4,0,0,1-2.2-.54A3.66,3.66,0,0,1,343,140a5.12,5.12,0,0,1-.52-2.35,4.53,4.53,0,0,1,1.13-3.27,4.2,4.2,0,0,1,3.14-1.16,4,4,0,0,1,3.08,1.19A4.51,4.51,0,0,1,351,137.65Zm-7,0a3.88,3.88,0,0,0,.71,2.5,3,3,0,0,0,4.17,0,3.8,3.8,0,0,0,.71-2.5,3.72,3.72,0,0,0-.71-2.48,3,3,0,0,0-4.18,0A3.86,3.86,0,0,0,343.94,137.65Z"/><path class="cls-3" d="M357.66,133.22a6,6,0,0,1,1.1.09l-.19,1.2a4.92,4.92,0,0,0-1-.11,2.55,2.55,0,0,0-1.92.84,2.94,2.94,0,0,0-.8,2.1v4.59h-1.4v-8.56h1.15l.17,1.59h.06a3.94,3.94,0,0,1,1.24-1.29A3,3,0,0,1,357.66,133.22Z"/><path class="cls-3" d="M372.27,141.93v-5.57a2.16,2.16,0,0,0-.47-1.53,1.9,1.9,0,0,0-1.47-.51,2.48,2.48,0,0,0-1.93.69,3.18,3.18,0,0,0-.62,2.14v4.78h-1.4v-5.57a2.21,2.21,0,0,0-.47-1.53,1.94,1.94,0,0,0-1.48-.51,2.37,2.37,0,0,0-1.93.73,3.71,3.71,0,0,0-.61,2.39v4.49h-1.4v-8.56h1.14l.23,1.17h.06a2.73,2.73,0,0,1,1.12-1,3.57,3.57,0,0,1,1.62-.35,2.78,2.78,0,0,1,2.83,1.45h.07a2.77,2.77,0,0,1,1.2-1.06,4,4,0,0,1,1.78-.39,3.27,3.27,0,0,1,2.35.74,3.18,3.18,0,0,1,.78,2.39v5.58Z"/><path class="cls-3" d="M382.24,141.93l-.28-1.21h-.06a3.88,3.88,0,0,1-1.38,1.09,4.52,4.52,0,0,1-1.72.28,3.21,3.21,0,0,1-2.15-.66,2.29,2.29,0,0,1-.78-1.86q0-2.59,4.47-2.72l1.57,0v-.53a2.08,2.08,0,0,0-.46-1.49,2,2,0,0,0-1.5-.48,6.51,6.51,0,0,0-2.62.66l-.43-1a7.26,7.26,0,0,1,3.13-.74,3.73,3.73,0,0,1,2.45.68,2.72,2.72,0,0,1,.8,2.18v5.84Zm-3.16-.91a3,3,0,0,0,2.05-.66,2.38,2.38,0,0,0,.75-1.86v-.78l-1.4.06a5.27,5.27,0,0,0-2.41.48,1.42,1.42,0,0,0-.74,1.32,1.3,1.3,0,0,0,.46,1.07A2,2,0,0,0,379.08,141Z"/><path class="cls-3" d="M386,141.11a1.13,1.13,0,0,1,.26-.8A1,1,0,0,1,387,140a1,1,0,0,1,.76.27,1.09,1.09,0,0,1,.27.8.94.94,0,0,1-1,1,.91.91,0,0,1-1-1Z"/></g><path class="cls-4" d="M628.22,207.24c-1.74-15.74-6.77-29.59-17.43-39.39l-42.91-.57s-7.45,7.41-12,40Z"/><path class="cls-5" d="M477.7,112.42a2,2,0,0,1,2.47-1.31l-3.43-.65c-1.18-.22-2-1-1.82-2.12s1.28-1.53,2.47-1.31l-3-.57a2,2,0,1,1,.73-3.85l2.57.48a2,2,0,1,1,.73-3.85l16,3-3-4.58a2.25,2.25,0,0,1,.48-3.17l.06,0a2.31,2.31,0,0,1,3.12,1l6.94,8.08c2.21,2.08,4.44,4.65,3.71,8.52a7.32,7.32,0,0,1-8.64,5.81l-3.86-.73-2.78-.53-10.93-2.06A2,2,0,0,1,477.7,112.42Z"/><path class="cls-6" d="M564.59,130s-13.94,18.61-24.11,21.81c0,0-12.94,5.48-41.89-31.76,0,0,.39-7.4,9.72-11l28.81,20.5c23.71-35.12,28.32-35.51,28.32-35.51S570.89,115.5,564.59,130Z"/><path class="cls-7" d="M621.07,95.15s6.11,0,31.76,34.55l-10.58,16.23-22.67-20.19A249.14,249.14,0,0,1,621.07,95.15Z"/><path class="cls-7" d="M696.38,135.6a8.77,8.77,0,1,0-4.69,11.48A8.77,8.77,0,0,0,696.38,135.6Z"/><path class="cls-5" d="M699.19,140.39c-4.79,4.37-8,3.87-9.82,3.05h0c-3.61-1.93-2.48-6.41-.44-10.23l3.59-6.71c2-3.82,5.43-3.11,9-1.18h0c3.61,1.93,6.15,4.28,3.82,8.58Z"/><polygon class="cls-8" points="701.43 97.6 702.67 99.16 681.93 168.19 634.32 153.88 632.73 151.58 701.43 97.6"/><rect class="cls-9" x="631.28" y="99.47" width="71.52" height="50.15" transform="translate(355.84 727.54) rotate(-73.28)"/><rect class="cls-10" x="636.36" y="104.8" width="60.18" height="41.87" transform="translate(354.3 727.84) rotate(-73.28)"/><path class="cls-11" d="M678.62,89.78l.22-.73a1.42,1.42,0,0,0-1-1.77l-.21-.06a1.41,1.41,0,0,0-1.76,1l-.22.73-5.85-1.76L667,96.75l15,4.52,2.89-9.61Z"/><rect class="cls-12" x="671.7" y="96.79" width="2.18" height="15.7" transform="translate(379.02 718.89) rotate(-73.28)"/><rect class="cls-12" x="670.75" y="99.09" width="1.31" height="24.86" transform="translate(371.44 722.45) rotate(-73.28)"/><rect class="cls-12" x="669.62" y="100.67" width="1.31" height="29.22" transform="translate(367.03 724.05) rotate(-73.28)"/><rect class="cls-12" x="668.49" y="109.22" width="1.31" height="19.63" transform="translate(362.63 725.64) rotate(-73.28)"/><rect class="cls-12" x="667.37" y="108.18" width="1.31" height="29.22" transform="translate(358.24 727.25) rotate(-73.28)"/><rect class="cls-12" x="666.24" y="114.12" width="1.31" height="24.86" transform="translate(353.82 728.84) rotate(-73.28)"/><rect class="cls-12" x="665.11" y="115.7" width="1.31" height="29.22" transform="matrix(0.29, -0.96, 0.96, 0.29, 349.43, 730.44)"/><rect class="cls-12" x="663.98" y="120.33" width="1.31" height="27.48" transform="translate(345.02 732.04) rotate(-73.28)"/><rect class="cls-12" x="662.85" y="123.22" width="1.31" height="29.22" transform="translate(340.6 733.62) rotate(-73.28)"/><rect class="cls-12" x="661.72" y="130.9" width="1.31" height="21.37" transform="translate(336.2 735.22) rotate(-73.28)"/><path class="cls-5" d="M703.09,130.88a2.12,2.12,0,0,1-.78-.87c-1.85-3.85-9.66-8.14-12.51-9.47a1.94,1.94,0,0,1-1.1-2.42,1.76,1.76,0,0,1,2.44-.77c1.2.55,11.77,5.61,14.59,11.49a1.61,1.61,0,0,1-.89,2.29A2.09,2.09,0,0,1,703.09,130.88Z"/><path class="cls-5" d="M700.62,132.85a2,2,0,0,1-.73-.66c-3.7-5.61-14.06-9.26-14.17-9.3a2,2,0,0,1-1.25-2.44,1.9,1.9,0,0,1,2.45-1.15c.48.16,11.76,4.13,16.22,10.89a1.85,1.85,0,0,1-.56,2.62A1.94,1.94,0,0,1,700.62,132.85Z"/><path class="cls-5" d="M696.22,133a2.59,2.59,0,0,1-.58-.42,31.83,31.83,0,0,0-9.83-6.11,1.92,1.92,0,0,1-1.3-2.29,1.75,1.75,0,0,1,2.36-.92c.28.11,6.94,2.63,11.45,7.15a1.62,1.62,0,0,1,0,2.45A2,2,0,0,1,696.22,133Z"/><path class="cls-5" d="M694.07,135.67a2,2,0,0,1-.46-.32,27.1,27.1,0,0,0-7.52-4.91,2,2,0,0,1-1.17-2.44,1.87,1.87,0,0,1,2.48-1,32,32,0,0,1,8.82,5.74,1.8,1.8,0,0,1,.12,2.62A1.94,1.94,0,0,1,694.07,135.67Z"/><path class="cls-7" d="M605.52,90.37s-8.92-2-13.82-2-12.4,1.75-12.4,1.75c-7.52,2-13.86,4-13.86,4l-2,13c-7.69,9.84-8.11,13.09-8.11,17.44,0,7.53,6.67,13.13,6.67,13.13l5.84,29.6c25.56,9.93,42.94.57,42.94.57,2.84-19.32,10.31-44.07,10.31-44.07V95.08C617.22,93.28,609.5,91.52,605.52,90.37Z"/><path class="cls-13" d="M581.26,106.67l7.43-6.94,3.89,8.58s12-7,12.86-17.94c-.53-.12-9-2-13.76-2-4.9,0-12.39,1.75-12.39,1.75l-.27.08C578.69,93.35,578.43,100.24,581.26,106.67Z"/><path class="cls-5" d="M585.12,84.4l0,12.14,14.84.06L600,80.81A22.53,22.53,0,0,1,585.12,84.4Z"/><path class="cls-14" d="M600,80.81l0-12.16-14.84-.06-.07,15.81A22.53,22.53,0,0,0,600,80.81Z"/><path class="cls-7" d="M585.12,84.4s-.31,7.64,4.58,10.45c0,0,9.58-2.62,10.27-10.45l5.5,6S602,100.59,593,104.75l-3.65-8.18L581.87,104s-3-8.68-2.55-14.38Z"/><path class="cls-15" d="M557.77,129.22s1.94,1.64,6.16,2c8.52.73,22.49,2.26,34.81.28,5.17-.83,9-3.44,12.86-6.49,0,0-2.32,13.25-18.51,13S558.79,139.72,557.77,129.22Z"/><path class="cls-16" d="M569.92,48.25s-12.61,7.15-4.11,18.13C565.81,66.38,563.41,55.53,569.92,48.25Z"/><path class="cls-17" d="M604.12,9.62s9.47-17.68,24.5-4.37c0,0,11.75,9,7.28,15.27s11.7,13.54,0,26.94,13.39,16.7-5.31,33A9.46,9.46,0,0,0,630,92.63S610.93,90,613,74.09a15.4,15.4,0,0,0-.38,12s-10.19-9.73-6.74-18.64,3.37-17.34.17-20.89S595.29,26.7,604.12,9.62Z"/><path class="cls-18" d="M600.14,9.3s3.72-5.38,10.43-.43,1.87,8.5,1.87,8.5Z"/><path class="cls-16" d="M568.45,48.74l-1.11-3.93a23,23,0,0,0-4.82.13S552,19.2,575.76,14.65A29.5,29.5,0,0,1,608,11.48s21.42,8.41,11.13,35.37L604.54,59.53Z"/><path class="cls-19" d="M614,29.79c-24.47,4.32-40.31-7.62-45.64-12.54C561.88,21,560.19,27.3,560.22,33,591,41.94,614,29.79,614,29.79Z"/><path class="cls-5" d="M614.26,46.69l-.39.13h0S603.81,53,602.34,28.27c-3.92,4.42-4,15.26-4,15.26-5.12-1.05-15.66-.26-15.66-.26-1.83-17.64,3.06-23.38,3.06-23.38C576.81,24.11,579,43.22,579,43.22a15.21,15.21,0,0,0-6.89.81l-3.57.38s-.1,11.58.33,16.34c.86,9.31,5.7,16.13,14.83,18.28,22,5.19,28.25-15.74,28.25-15.74s8.28.18,9.24-10.53C622,44,614.26,46.69,614.26,46.69Z"/><path class="cls-14" d="M610,61s-6,15.48-18.32,17.15c-7.52,1-14-2.19-17.89-4.86a18.43,18.43,0,0,0,9.9,5.72c22,5.19,28.25-15.74,28.25-15.74s6.56.09,8.67-7.35C615.1,63.58,610,61,610,61Z"/><g class="cls-20"><path class="cls-21" d="M585.17,61.73a8.92,8.92,0,1,1-8.87-9A8.91,8.91,0,0,1,585.17,61.73Z"/><path class="cls-22" d="M576.3,53.54a8.14,8.14,0,1,1-8.18,8.09A8.15,8.15,0,0,1,576.3,53.54Z"/><path class="cls-23" d="M576.3,54.33a7.35,7.35,0,1,1-7.39,7.31A7.34,7.34,0,0,1,576.3,54.33Z"/><path class="cls-24" d="M576.29,55.11a6.57,6.57,0,1,1-6.6,6.53A6.57,6.57,0,0,1,576.29,55.11Z"/><path class="cls-25" d="M576.29,55.89a5.79,5.79,0,1,1-5.82,5.75A5.79,5.79,0,0,1,576.29,55.89Z"/><path class="cls-26" d="M576.28,56.68a5,5,0,1,1-5,5A5,5,0,0,1,576.28,56.68Z"/><path class="cls-27" d="M576.28,57.46A4.22,4.22,0,1,1,572,61.65,4.21,4.21,0,0,1,576.28,57.46Z"/><path class="cls-28" d="M576.27,58.24a3.44,3.44,0,1,1-3.45,3.42A3.44,3.44,0,0,1,576.27,58.24Z"/><path class="cls-29" d="M576.27,59a2.65,2.65,0,1,1-2.66,2.63A2.65,2.65,0,0,1,576.27,59Z"/><path class="cls-30" d="M576.27,59.81a1.87,1.87,0,1,1-1.88,1.86A1.87,1.87,0,0,1,576.27,59.81Z"/><path class="cls-31" d="M576.26,60.59a1.09,1.09,0,1,1-1.09,1.08A1.09,1.09,0,0,1,576.26,60.59Z"/><path class="cls-32" d="M576.55,61.68a.29.29,0,0,1-.3.29.3.3,0,1,1,0-.59A.29.29,0,0,1,576.55,61.68Z"/></g><g class="cls-20"><path class="cls-21" d="M610.09,61.37A10.3,10.3,0,1,1,599.85,51,10.3,10.3,0,0,1,610.09,61.37Z"/><path class="cls-22" d="M599.84,51.92a9.4,9.4,0,1,1-9.44,9.34A9.39,9.39,0,0,1,599.84,51.92Z"/><path class="cls-23" d="M599.84,52.83a8.49,8.49,0,1,1-8.54,8.44A8.5,8.5,0,0,1,599.84,52.83Z"/><path class="cls-24" d="M599.83,53.73a7.59,7.59,0,1,1-7.62,7.54A7.59,7.59,0,0,1,599.83,53.73Z"/><path class="cls-25" d="M599.83,54.64a6.68,6.68,0,1,1-6.72,6.64A6.68,6.68,0,0,1,599.83,54.64Z"/><path class="cls-26" d="M599.82,55.54a5.78,5.78,0,1,1-5.8,5.74A5.77,5.77,0,0,1,599.82,55.54Z"/><path class="cls-27" d="M599.82,56.45a4.87,4.87,0,1,1-4.9,4.84A4.87,4.87,0,0,1,599.82,56.45Z"/><path class="cls-28" d="M599.81,57.35a4,4,0,1,1-4,3.94A4,4,0,0,1,599.81,57.35Z"/><path class="cls-29" d="M599.81,58.26a3.06,3.06,0,1,1-3.08,3A3.05,3.05,0,0,1,599.81,58.26Z"/><path class="cls-30" d="M599.8,59.16a2.16,2.16,0,1,1-2.16,2.14A2.16,2.16,0,0,1,599.8,59.16Z"/><path class="cls-31" d="M599.8,60.07a1.25,1.25,0,1,1-1.26,1.24A1.24,1.24,0,0,1,599.8,60.07Z"/><path class="cls-32" d="M600.14,61.32a.35.35,0,1,1-.35-.35A.35.35,0,0,1,600.14,61.32Z"/></g><path class="cls-33" d="M580.91,65.86s5.69,1.77,14.79,0c0,0-2.2,7.38-8.41,6.91C581.77,72.31,580.91,65.86,580.91,65.86Z"/><path class="cls-34" d="M581.13,66.23s5.91,2,14.2,0c0,0-1.39,3.08-7.92,2.88C581.6,68.92,581.13,66.23,581.13,66.23Z"/><path class="cls-16" d="M580.2,44.86a10,10,0,0,0-9,1.72s0-.58.92-1.57A8.09,8.09,0,0,1,579,43.22S580.84,44.26,580.2,44.86Z"/><path class="cls-16" d="M591.89,45.22a11.65,11.65,0,0,1,10.45,1.63s0-.67-1.09-1.76a9.4,9.4,0,0,0-8-1.79S591.13,44.56,591.89,45.22Z"/><path class="cls-35" d="M587.74,63.11c-4.39,2-6.87,0-7.14-2.13a3,3,0,0,1,1.87-3.19c2.67-1.16,4.43-5.41,4.44-5.46h0a9,9,0,0,1-4.15,6.75c-.72.46-1.17.94-1.09,1.61.15,1.18,1.93,2.88,6.07,2.42Z"/><path class="cls-36" d="M597.66,48.91s-2.74-.1-3.08-1.14a1.64,1.64,0,0,0,1.23,2,4.13,4.13,0,0,0-1,2.56c-.09,2,1,3.61,2.5,3.68s2.75-1.46,2.84-3.42S599.14,49,597.66,48.91Z"/><path class="cls-36" d="M577.56,48.8s-2.74-.1-3.08-1.15a1.66,1.66,0,0,0,1.23,2,4.13,4.13,0,0,0-1,2.56c-.09,2,1,3.61,2.5,3.68s2.75-1.46,2.84-3.43S579,48.87,577.56,48.8Z"/><path class="cls-16" d="M614,46s-10,3.26-5.41,18.89C608.63,64.92,597.17,51.76,614,46Z"/><polygon class="cls-1" points="447.43 66.32 426.4 66.32 426.4 45.29 447.43 66.32"/></g></g></svg>