<svg xmlns="http://www.w3.org/2000/svg" viewBox="0 0 730.31 174.2"><defs><style>.cls-1{fill:#ff868e;}.cls-2{fill:#ffb6bb;}.cls-3{fill:#00223d;}</style></defs><g id="Capa_2" data-name="Capa 2"><g id="CONTENIDO"><rect class="cls-1" y="22.81" width="556.8" height="128.4" rx="4.35"/><path class="cls-1" d="M-7182-298.53V-464a4.35,4.35,0,0,1,6.15-4L-6987-382.37a4.34,4.34,0,0,1-.1,8l-188.82,79.88A4.34,4.34,0,0,1-7182-298.53Z" transform="translate(7714.78 468.38)"/><rect class="cls-2" x="10.3" y="40.6" width="216.49" height="89.01" rx="12"/><path class="cls-3" d="M-7654.44-397.46v-11.43h1.44v11.43Z" transform="translate(7714.78 468.38)"/><path class="cls-3" d="M-7638-397.46V-403a2.22,2.22,0,0,0-.47-1.54,1.9,1.9,0,0,0-1.47-.51,2.48,2.48,0,0,0-1.93.69,3.13,3.13,0,0,0-.62,2.14v4.79h-1.4V-403a2.17,2.17,0,0,0-.48-1.54,1.9,1.9,0,0,0-1.47-.51,2.37,2.37,0,0,0-1.93.73,3.71,3.71,0,0,0-.61,2.39v4.5h-1.4V-406h1.14l.23,1.18h.06a2.68,2.68,0,0,1,1.12-1,3.57,3.57,0,0,1,1.62-.35,2.78,2.78,0,0,1,2.83,1.45h.07a2.77,2.77,0,0,1,1.2-1.06,3.92,3.92,0,0,1,1.78-.39,3.31,3.31,0,0,1,2.35.74,3.2,3.2,0,0,1,.78,2.39v5.59Z" transform="translate(7714.78 468.38)"/><path class="cls-3" d="M-7629.46-397.31a4.22,4.22,0,0,1-1.65-.31,2.93,2.93,0,0,1-1.25-.95h-.1a12.15,12.15,0,0,1,.1,1.43v3.52h-1.4V-406h1.14l.19,1.18h.07a3.25,3.25,0,0,1,1.25-1,4.08,4.08,0,0,1,1.65-.31,3.57,3.57,0,0,1,2.84,1.16,4.92,4.92,0,0,1,1,3.27,4.8,4.8,0,0,1-1,3.27A3.54,3.54,0,0,1-7629.46-397.31Zm-.2-7.77a2.56,2.56,0,0,0-2.05.73,3.46,3.46,0,0,0-.65,2.31v.29a4,4,0,0,0,.65,2.58,2.55,2.55,0,0,0,2.08.78,2.23,2.23,0,0,0,1.88-.9,4.06,4.06,0,0,0,.68-2.48,3.9,3.9,0,0,0-.68-2.46A2.31,2.31,0,0,0-7629.66-405.08Z" transform="translate(7714.78 468.38)"/><path class="cls-3" d="M-7617.49-397.46l-.28-1.22h-.07a3.88,3.88,0,0,1-1.38,1.09,4.5,4.5,0,0,1-1.71.28,3.29,3.29,0,0,1-2.16-.65,2.31,2.31,0,0,1-.78-1.87q0-2.6,4.48-2.72l1.57-.05v-.53a2.08,2.08,0,0,0-.47-1.49,2,2,0,0,0-1.5-.48,6.43,6.43,0,0,0-2.61.66l-.43-1a6.64,6.64,0,0,1,1.5-.54,6.93,6.93,0,0,1,1.63-.2,3.73,3.73,0,0,1,2.45.68,2.73,2.73,0,0,1,.79,2.18v5.85Zm-3.17-.92a3,3,0,0,0,2.06-.66,2.34,2.34,0,0,0,.74-1.86v-.77l-1.4.05a5.5,5.5,0,0,0-2.4.48,1.41,1.41,0,0,0-.74,1.32,1.27,1.27,0,0,0,.46,1.07A2,2,0,0,0-7620.66-398.38Z" transform="translate(7714.78 468.38)"/><path class="cls-3" d="M-7609.88-397.31a4.09,4.09,0,0,1-3.1-1.14,4.45,4.45,0,0,1-1.11-3.24A4.65,4.65,0,0,1-7613-405a4.21,4.21,0,0,1,3.19-1.17,6.73,6.73,0,0,1,1.33.13,4.68,4.68,0,0,1,1,.31l-.43,1.1a8.15,8.15,0,0,0-1-.28,4.5,4.5,0,0,0-1-.11c-1.88,0-2.81,1.11-2.81,3.32a3.76,3.76,0,0,0,.68,2.43,2.49,2.49,0,0,0,2,.84,6.6,6.6,0,0,0,2.37-.46v1.15A5.52,5.52,0,0,1-7609.88-397.31Z" transform="translate(7714.78 468.38)"/><path class="cls-3" d="M-7602.36-398.38a4.09,4.09,0,0,0,.71-.05,5.19,5.19,0,0,0,.55-.1v1a2.78,2.78,0,0,1-.67.17,5.91,5.91,0,0,1-.79.06c-1.79,0-2.69-.87-2.69-2.61V-405h-1.32v-.62l1.32-.54.59-1.83h.81v2h2.69v1h-2.69v5a1.68,1.68,0,0,0,.4,1.19A1.46,1.46,0,0,0-7602.36-398.38Z" transform="translate(7714.78 468.38)"/><path class="cls-3" d="M-7591.27-401.75a4.52,4.52,0,0,1-1.14,3.27,4.19,4.19,0,0,1-3.15,1.17,4.43,4.43,0,0,1-2.2-.54,3.67,3.67,0,0,1-1.48-1.54,5.07,5.07,0,0,1-.52-2.36,4.44,4.44,0,0,1,1.13-3.26,4.15,4.15,0,0,1,3.13-1.17,4.11,4.11,0,0,1,3.09,1.19A4.51,4.51,0,0,1-7591.27-401.75Zm-7,0a3.82,3.82,0,0,0,.71,2.5,2.54,2.54,0,0,0,2.08.86,2.59,2.59,0,0,0,2.09-.86,3.84,3.84,0,0,0,.71-2.5,3.78,3.78,0,0,0-.71-2.48,2.6,2.6,0,0,0-2.11-.85,2.55,2.55,0,0,0-2.07.83A3.8,3.8,0,0,0-7598.31-401.75Z" transform="translate(7714.78 468.38)"/><path class="cls-3" d="M-7578.37-399.8a2.08,2.08,0,0,1-1,1.84,4.73,4.73,0,0,1-2.7.65,6.22,6.22,0,0,1-2.86-.54V-399a7.08,7.08,0,0,0,1.43.49,6.29,6.29,0,0,0,1.47.18,3.6,3.6,0,0,0,1.68-.32,1.06,1.06,0,0,0,.59-1,1.06,1.06,0,0,0-.46-.86,8.33,8.33,0,0,0-1.83-.84,9.84,9.84,0,0,1-1.83-.77,2.3,2.3,0,0,1-.81-.76,1.8,1.8,0,0,1-.27-1,1.91,1.91,0,0,1,.92-1.66,4.56,4.56,0,0,1,2.52-.6,7.77,7.77,0,0,1,2.92.56l-.5,1.05a7.26,7.26,0,0,0-2.52-.53,3.14,3.14,0,0,0-1.5.29.89.89,0,0,0-.51.8,1,1,0,0,0,.19.59,2,2,0,0,0,.61.46c.29.14.82.35,1.62.63a6.18,6.18,0,0,1,2.23,1.12A1.88,1.88,0,0,1-7578.37-399.8Z" transform="translate(7714.78 468.38)"/><path class="cls-3" d="M-7568.11-401.75a4.52,4.52,0,0,1-1.14,3.27,4.19,4.19,0,0,1-3.14,1.17,4.44,4.44,0,0,1-2.21-.54,3.67,3.67,0,0,1-1.48-1.54,5.07,5.07,0,0,1-.52-2.36,4.44,4.44,0,0,1,1.13-3.26,4.15,4.15,0,0,1,3.13-1.17,4.11,4.11,0,0,1,3.09,1.19A4.51,4.51,0,0,1-7568.11-401.75Zm-7,0a3.82,3.82,0,0,0,.71,2.5,2.54,2.54,0,0,0,2.08.86,2.57,2.57,0,0,0,2.09-.86,3.84,3.84,0,0,0,.71-2.5,3.78,3.78,0,0,0-.71-2.48,2.6,2.6,0,0,0-2.11-.85,2.56,2.56,0,0,0-2.07.83A3.8,3.8,0,0,0-7575.15-401.75Z" transform="translate(7714.78 468.38)"/><path class="cls-3" d="M-7562-397.31a4.12,4.12,0,0,1-3.11-1.14,4.49,4.49,0,0,1-1.1-3.24A4.6,4.6,0,0,1-7565-405a4.17,4.17,0,0,1,3.18-1.17,6.59,6.59,0,0,1,1.33.13,4.62,4.62,0,0,1,1.05.31l-.43,1.1a8.66,8.66,0,0,0-1-.28,4.57,4.57,0,0,0-1-.11q-2.82,0-2.82,3.32a3.76,3.76,0,0,0,.69,2.43,2.47,2.47,0,0,0,2,.84,6.56,6.56,0,0,0,2.37-.46v1.15A5.44,5.44,0,0,1-7562-397.31Z" transform="translate(7714.78 468.38)"/><path class="cls-3" d="M-7557.55-408.35a.82.82,0,0,1,.24-.65.84.84,0,0,1,.59-.21.88.88,0,0,1,.58.21.84.84,0,0,1,.24.65.85.85,0,0,1-.24.66.88.88,0,0,1-.58.21.84.84,0,0,1-.59-.21A.85.85,0,0,1-7557.55-408.35Zm1.52,10.89h-1.4V-406h1.4Z" transform="translate(7714.78 468.38)"/><path class="cls-3" d="M-7547.38-397.46l-.28-1.22h-.06a4.06,4.06,0,0,1-1.38,1.09,4.52,4.52,0,0,1-1.72.28A3.27,3.27,0,0,1-7553-398a2.32,2.32,0,0,1-.79-1.87c0-1.73,1.5-2.64,4.48-2.72l1.57-.05v-.53a2,2,0,0,0-.47-1.49,2,2,0,0,0-1.49-.48,6.51,6.51,0,0,0-2.62.66l-.43-1a7,7,0,0,1,1.5-.54,7,7,0,0,1,1.63-.2,3.73,3.73,0,0,1,2.45.68,2.73,2.73,0,0,1,.8,2.18v5.85Zm-3.16-.92a3,3,0,0,0,2.05-.66,2.35,2.35,0,0,0,.75-1.86v-.77l-1.4.05a5.55,5.55,0,0,0-2.41.48,1.43,1.43,0,0,0-.74,1.32,1.3,1.3,0,0,0,.46,1.07A2,2,0,0,0-7550.54-398.38Z" transform="translate(7714.78 468.38)"/><path class="cls-3" d="M-7542.06-397.46h-1.4v-12.16h1.4Z" transform="translate(7714.78 468.38)"/><path class="cls-3" d="M-7537.62-399.32l.13.18a18.54,18.54,0,0,1-.64,1.81c-.27.69-.56,1.33-.86,1.93H-7540c.15-.54.32-1.21.5-2s.31-1.43.38-1.91Z" transform="translate(7714.78 468.38)"/><path class="cls-3" d="M-7682.06-378.11a4.43,4.43,0,0,1-3.23-1.15,4.28,4.28,0,0,1-1.19-3.21,4.74,4.74,0,0,1,1.1-3.29,3.78,3.78,0,0,1,3-1.22,3.62,3.62,0,0,1,2.75,1.06,3.87,3.87,0,0,1,1,2.79v.82H-7685a3.24,3.24,0,0,0,.83,2.29,3,3,0,0,0,2.19.78,7.83,7.83,0,0,0,2.95-.58v1.16a7.09,7.09,0,0,1-1.4.42A8.13,8.13,0,0,1-7682.06-378.11Zm-.38-7.79a2.37,2.37,0,0,0-1.77.68,3,3,0,0,0-.78,1.85h4.83a2.71,2.71,0,0,0-.59-1.87A2.15,2.15,0,0,0-7682.44-385.9Z" transform="translate(7714.78 468.38)"/><path class="cls-3" d="M-7672.58-378.11a4.13,4.13,0,0,1-3.11-1.14,4.49,4.49,0,0,1-1.1-3.24,4.65,4.65,0,0,1,1.12-3.32,4.21,4.21,0,0,1,3.19-1.17,6.73,6.73,0,0,1,1.33.13,4.68,4.68,0,0,1,1,.31l-.43,1.1a8.15,8.15,0,0,0-1-.28,4.5,4.5,0,0,0-1-.11q-2.82,0-2.82,3.32a3.76,3.76,0,0,0,.69,2.43,2.49,2.49,0,0,0,2,.84,6.6,6.6,0,0,0,2.37-.46v1.15A5.52,5.52,0,0,1-7672.58-378.11Z" transform="translate(7714.78 468.38)"/><path class="cls-3" d="M-7660.07-382.55a4.52,4.52,0,0,1-1.14,3.27,4.19,4.19,0,0,1-3.14,1.17,4.47,4.47,0,0,1-2.21-.54,3.67,3.67,0,0,1-1.48-1.54,5.07,5.07,0,0,1-.52-2.36,4.44,4.44,0,0,1,1.13-3.26,4.15,4.15,0,0,1,3.13-1.17,4.09,4.09,0,0,1,3.09,1.19A4.51,4.51,0,0,1-7660.07-382.55Zm-7,0a3.82,3.82,0,0,0,.71,2.5,2.54,2.54,0,0,0,2.08.86,2.57,2.57,0,0,0,2.09-.86,3.84,3.84,0,0,0,.71-2.5,3.78,3.78,0,0,0-.71-2.48,2.6,2.6,0,0,0-2.11-.85,2.54,2.54,0,0,0-2.07.84A3.76,3.76,0,0,0-7667.11-382.55Z" transform="translate(7714.78 468.38)"/><path class="cls-3" d="M-7651.29-378.26v-5.54a2.17,2.17,0,0,0-.51-1.57,2.22,2.22,0,0,0-1.61-.51,2.76,2.76,0,0,0-2.13.73,3.45,3.45,0,0,0-.67,2.39v4.5h-1.4v-8.57h1.13l.23,1.18h.07a2.77,2.77,0,0,1,1.2-1,4.09,4.09,0,0,1,1.73-.35,3.75,3.75,0,0,1,2.52.74,3.06,3.06,0,0,1,.84,2.39v5.59Z" transform="translate(7714.78 468.38)"/><path class="cls-3" d="M-7639-382.55a4.52,4.52,0,0,1-1.14,3.27,4.19,4.19,0,0,1-3.15,1.17,4.4,4.4,0,0,1-2.2-.54,3.61,3.61,0,0,1-1.48-1.54,5.07,5.07,0,0,1-.53-2.36,4.49,4.49,0,0,1,1.13-3.26,4.17,4.17,0,0,1,3.14-1.17,4.08,4.08,0,0,1,3.08,1.19A4.52,4.52,0,0,1-7639-382.55Zm-7.05,0a3.88,3.88,0,0,0,.71,2.5,2.55,2.55,0,0,0,2.08.86,2.56,2.56,0,0,0,2.09-.86,3.78,3.78,0,0,0,.72-2.5,3.73,3.73,0,0,0-.72-2.48,2.56,2.56,0,0,0-2.1-.85,2.56,2.56,0,0,0-2.08.84A3.81,3.81,0,0,0-7646.08-382.55Zm1.62-5.6c.27-.33.56-.72.88-1.18a12.11,12.11,0,0,0,.73-1.19h1.71v.16a11.51,11.51,0,0,1-1.11,1.25,11.63,11.63,0,0,1-1.27,1.15h-.94Z" transform="translate(7714.78 468.38)"/><path class="cls-3" d="M-7624.8-378.26v-5.57a2.17,2.17,0,0,0-.47-1.54,1.9,1.9,0,0,0-1.47-.51,2.48,2.48,0,0,0-1.93.69,3.19,3.19,0,0,0-.62,2.15v4.78h-1.4v-5.57a2.17,2.17,0,0,0-.48-1.54,1.9,1.9,0,0,0-1.47-.51,2.37,2.37,0,0,0-1.93.73,3.71,3.71,0,0,0-.61,2.39v4.5h-1.4v-8.57h1.14l.23,1.18h.06a2.68,2.68,0,0,1,1.12-1,3.57,3.57,0,0,1,1.62-.35,2.78,2.78,0,0,1,2.83,1.45h.07a2.77,2.77,0,0,1,1.2-1.06,3.92,3.92,0,0,1,1.78-.39,3.31,3.31,0,0,1,2.35.74,3.2,3.2,0,0,1,.78,2.39v5.59Z" transform="translate(7714.78 468.38)"/><path class="cls-3" d="M-7620.63-389.15a.82.82,0,0,1,.24-.65.84.84,0,0,1,.59-.21.84.84,0,0,1,.58.22.8.8,0,0,1,.24.64.85.85,0,0,1-.24.66.88.88,0,0,1-.58.21.84.84,0,0,1-.59-.21A.85.85,0,0,1-7620.63-389.15Zm1.52,10.89h-1.4v-8.57h1.4Z" transform="translate(7714.78 468.38)"/><path class="cls-3" d="M-7612.45-378.11a4.13,4.13,0,0,1-3.11-1.14,4.49,4.49,0,0,1-1.1-3.24,4.6,4.6,0,0,1,1.12-3.32,4.19,4.19,0,0,1,3.18-1.17,6.76,6.76,0,0,1,1.34.13,4.68,4.68,0,0,1,1,.31l-.43,1.1a8.66,8.66,0,0,0-1-.28,4.57,4.57,0,0,0-1-.11q-2.82,0-2.82,3.32a3.76,3.76,0,0,0,.69,2.43,2.49,2.49,0,0,0,2,.84,6.6,6.6,0,0,0,2.37-.46v1.15A5.52,5.52,0,0,1-7612.45-378.11Z" transform="translate(7714.78 468.38)"/><path class="cls-3" d="M-7599.94-382.55a4.52,4.52,0,0,1-1.14,3.27,4.19,4.19,0,0,1-3.15,1.17,4.43,4.43,0,0,1-2.2-.54,3.67,3.67,0,0,1-1.48-1.54,5.07,5.07,0,0,1-.52-2.36,4.44,4.44,0,0,1,1.13-3.26,4.13,4.13,0,0,1,3.13-1.17,4.11,4.11,0,0,1,3.09,1.19A4.51,4.51,0,0,1-7599.94-382.55Zm-7,0a3.88,3.88,0,0,0,.7,2.5,2.57,2.57,0,0,0,2.09.86,2.59,2.59,0,0,0,2.09-.86,3.84,3.84,0,0,0,.71-2.5,3.78,3.78,0,0,0-.71-2.48,2.6,2.6,0,0,0-2.11-.85,2.52,2.52,0,0,0-2.07.84A3.76,3.76,0,0,0-7607-382.55Z" transform="translate(7714.78 468.38)"/><path class="cls-3" d="M-7596-380.12l.13.18a18.54,18.54,0,0,1-.64,1.81c-.27.69-.56,1.34-.86,1.93h-1c.15-.54.32-1.21.5-2s.31-1.43.39-1.91Z" transform="translate(7714.78 468.38)"/><path class="cls-3" d="M-7583.08-378.26l-.28-1.22h-.07a3.88,3.88,0,0,1-1.38,1.09,4.47,4.47,0,0,1-1.71.28,3.29,3.29,0,0,1-2.16-.65,2.31,2.31,0,0,1-.78-1.87c0-1.73,1.5-2.64,4.48-2.72l1.57,0v-.53a2.08,2.08,0,0,0-.47-1.49,2,2,0,0,0-1.5-.48,6.43,6.43,0,0,0-2.61.66l-.43-1a6.82,6.82,0,0,1,1.5-.54,6.93,6.93,0,0,1,1.63-.2,3.73,3.73,0,0,1,2.45.68,2.73,2.73,0,0,1,.8,2.18v5.85Zm-3.16-.92a3,3,0,0,0,2.05-.66,2.35,2.35,0,0,0,.75-1.86v-.77l-1.4.05a5.52,5.52,0,0,0-2.41.48,1.43,1.43,0,0,0-.74,1.32,1.3,1.3,0,0,0,.46,1.08A2,2,0,0,0-7586.24-379.18Z" transform="translate(7714.78 468.38)"/><path class="cls-3" d="M-7567.38-378.26v-5.57a2.17,2.17,0,0,0-.47-1.54,1.9,1.9,0,0,0-1.47-.51,2.48,2.48,0,0,0-1.93.69,3.19,3.19,0,0,0-.62,2.15v4.78h-1.4v-5.57a2.22,2.22,0,0,0-.47-1.54,1.94,1.94,0,0,0-1.48-.51,2.37,2.37,0,0,0-1.93.73,3.71,3.71,0,0,0-.61,2.39v4.5h-1.4v-8.57h1.14l.23,1.18h.06a2.68,2.68,0,0,1,1.12-1A3.57,3.57,0,0,1-7575-387a2.78,2.78,0,0,1,2.83,1.45h.07a2.77,2.77,0,0,1,1.2-1.06,4,4,0,0,1,1.78-.39,3.31,3.31,0,0,1,2.35.74,3.2,3.2,0,0,1,.78,2.39v5.59Z" transform="translate(7714.78 468.38)"/><path class="cls-3" d="M-7558.79-387a3.56,3.56,0,0,1,2.83,1.16,4.78,4.78,0,0,1,1,3.26,4.8,4.8,0,0,1-1,3.27,3.54,3.54,0,0,1-2.82,1.17,4.22,4.22,0,0,1-1.65-.31,3,3,0,0,1-1.25-.95h-.1l-.3,1.11h-1v-12.16h1.4v2.95c0,.67,0,1.26-.07,1.78h.07A3.43,3.43,0,0,1-7558.79-387Zm-.2,1.09a2.53,2.53,0,0,0-2.07.76,4.07,4.07,0,0,0-.63,2.57A4,4,0,0,0-7561-380a2.55,2.55,0,0,0,2.08.78,2.21,2.21,0,0,0,1.92-.87,4.17,4.17,0,0,0,.64-2.51,4,4,0,0,0-.64-2.49A2.29,2.29,0,0,0-7559-385.88Z" transform="translate(7714.78 468.38)"/><path class="cls-3" d="M-7552.63-389.15a.82.82,0,0,1,.24-.65.87.87,0,0,1,.59-.21.81.81,0,0,1,.58.22.77.77,0,0,1,.25.64.82.82,0,0,1-.25.66.84.84,0,0,1-.58.21.87.87,0,0,1-.59-.21A.85.85,0,0,1-7552.63-389.15Zm1.52,10.89h-1.4v-8.57h1.4Z" transform="translate(7714.78 468.38)"/><path class="cls-3" d="M-7544.23-378.11a4.44,4.44,0,0,1-3.24-1.15,4.27,4.27,0,0,1-1.18-3.21,4.69,4.69,0,0,1,1.1-3.29,3.75,3.75,0,0,1,2.95-1.22,3.6,3.6,0,0,1,2.75,1.06,3.83,3.83,0,0,1,1,2.79v.82h-6.37a3.24,3.24,0,0,0,.82,2.29,3,3,0,0,0,2.2.78,7.87,7.87,0,0,0,3-.58v1.16a7.29,7.29,0,0,1-1.4.42A8.27,8.27,0,0,1-7544.23-378.11Zm-.38-7.79a2.39,2.39,0,0,0-1.78.68,3,3,0,0,0-.78,1.85h4.83a2.66,2.66,0,0,0-.59-1.87A2.13,2.13,0,0,0-7544.61-385.9Z" transform="translate(7714.78 468.38)"/><path class="cls-3" d="M-7532.12-378.26v-5.54a2.13,2.13,0,0,0-.52-1.57,2.21,2.21,0,0,0-1.61-.51,2.75,2.75,0,0,0-2.12.73,3.45,3.45,0,0,0-.68,2.39v4.5h-1.4v-8.57h1.14l.23,1.18h.07a2.72,2.72,0,0,1,1.2-1,4.09,4.09,0,0,1,1.73-.35,3.75,3.75,0,0,1,2.52.74,3.06,3.06,0,0,1,.84,2.39v5.59Z" transform="translate(7714.78 468.38)"/><path class="cls-3" d="M-7524.86-379.18a4.21,4.21,0,0,0,.72-.05c.23,0,.41-.07.55-.1v1a3.06,3.06,0,0,1-.67.17,6.17,6.17,0,0,1-.8.06c-1.79,0-2.68-.87-2.68-2.61v-5.1h-1.33v-.62l1.33-.54.59-1.83h.81v2h2.68v1h-2.68v5a1.67,1.67,0,0,0,.39,1.19A1.47,1.47,0,0,0-7524.86-379.18Z" transform="translate(7714.78 468.38)"/><path class="cls-3" d="M-7516.06-378.26l-.28-1.22h-.07a3.88,3.88,0,0,1-1.38,1.09,4.5,4.5,0,0,1-1.71.28,3.29,3.29,0,0,1-2.16-.65,2.31,2.31,0,0,1-.78-1.87q0-2.6,4.48-2.72l1.57,0v-.53a2.08,2.08,0,0,0-.47-1.49,2,2,0,0,0-1.5-.48,6.43,6.43,0,0,0-2.61.66l-.43-1a6.64,6.64,0,0,1,1.5-.54,6.93,6.93,0,0,1,1.63-.2,3.73,3.73,0,0,1,2.45.68,2.73,2.73,0,0,1,.8,2.18v5.85Zm-3.16-.92a3,3,0,0,0,2.05-.66,2.35,2.35,0,0,0,.75-1.86v-.77l-1.4.05a5.52,5.52,0,0,0-2.41.48,1.43,1.43,0,0,0-.74,1.32,1.3,1.3,0,0,0,.46,1.08A2,2,0,0,0-7519.22-379.18Z" transform="translate(7714.78 468.38)"/><path class="cls-3" d="M-7510.74-378.26h-1.4v-12.16h1.4Z" transform="translate(7714.78 468.38)"/><path class="cls-3" d="M-7506.3-380.12l.12.18a16,16,0,0,1-.63,1.81c-.28.69-.56,1.34-.86,1.93h-1.05c.15-.54.31-1.21.5-2s.31-1.43.38-1.91Z" transform="translate(7714.78 468.38)"/><path class="cls-3" d="M-7619.89-358.91a4.22,4.22,0,0,1-1.65-.31,3.05,3.05,0,0,1-1.25-.95h-.1a10.33,10.33,0,0,1,.1,1.43v3.52h-1.4v-12.41h1.14l.19,1.18h.07a3.2,3.2,0,0,1,1.26-1,4,4,0,0,1,1.64-.31,3.56,3.56,0,0,1,2.84,1.16,4.86,4.86,0,0,1,1,3.27,4.8,4.8,0,0,1-1,3.27A3.53,3.53,0,0,1-7619.89-358.91Zm-.2-7.77a2.56,2.56,0,0,0-2.05.73,3.52,3.52,0,0,0-.65,2.31v.29a4.06,4.06,0,0,0,.65,2.58,2.56,2.56,0,0,0,2.08.78,2.22,2.22,0,0,0,1.88-.9,4.06,4.06,0,0,0,.68-2.48,3.91,3.91,0,0,0-.68-2.46A2.29,2.29,0,0,0-7620.09-366.68Z" transform="translate(7714.78 468.38)"/><path class="cls-3" d="M-7605.63-363.35a4.56,4.56,0,0,1-1.13,3.27,4.19,4.19,0,0,1-3.15,1.17,4.4,4.4,0,0,1-2.2-.54,3.69,3.69,0,0,1-1.49-1.54,5.07,5.07,0,0,1-.52-2.36,4.49,4.49,0,0,1,1.13-3.26,4.16,4.16,0,0,1,3.14-1.17,4.08,4.08,0,0,1,3.08,1.19A4.51,4.51,0,0,1-7605.63-363.35Zm-7,0a3.88,3.88,0,0,0,.71,2.5,2.55,2.55,0,0,0,2.08.86,2.56,2.56,0,0,0,2.09-.86,3.78,3.78,0,0,0,.71-2.5,3.72,3.72,0,0,0-.71-2.48,2.57,2.57,0,0,0-2.1-.85,2.56,2.56,0,0,0-2.08.84A3.76,3.76,0,0,0-7612.67-363.35Z" transform="translate(7714.78 468.38)"/><path class="cls-3" d="M-7601.77-359.06h-1.4v-12.16h1.4Z" transform="translate(7714.78 468.38)"/><path class="cls-3" d="M-7598.86-368.95c.27-.33.56-.72.87-1.18a12.43,12.43,0,0,0,.74-1.19h1.7v.16a10.29,10.29,0,0,1-1.1,1.25,11.6,11.6,0,0,1-1.28,1.15h-.93Zm1.46,9.89h-1.4v-8.57h1.4Z" transform="translate(7714.78 468.38)"/><path class="cls-3" d="M-7591.45-360a4.21,4.21,0,0,0,.72,0c.23,0,.41-.07.55-.1v1a2.91,2.91,0,0,1-.67.17,6,6,0,0,1-.8.06c-1.79,0-2.68-.87-2.68-2.61v-5.1h-1.33v-.62l1.33-.54.59-1.83h.81v2h2.68v1h-2.68v5a1.67,1.67,0,0,0,.39,1.19A1.47,1.47,0,0,0-7591.45-360Z" transform="translate(7714.78 468.38)"/><path class="cls-3" d="M-7588.45-369.95a.82.82,0,0,1,.23-.65.87.87,0,0,1,.59-.21.81.81,0,0,1,.58.22.77.77,0,0,1,.25.64.82.82,0,0,1-.25.66.84.84,0,0,1-.58.21.87.87,0,0,1-.59-.21A.84.84,0,0,1-7588.45-369.95Zm1.51,10.89h-1.4v-8.57h1.4Z" transform="translate(7714.78 468.38)"/><path class="cls-3" d="M-7580.27-358.91a4.12,4.12,0,0,1-3.11-1.14,4.49,4.49,0,0,1-1.1-3.24,4.6,4.6,0,0,1,1.12-3.32,4.17,4.17,0,0,1,3.18-1.17,6.66,6.66,0,0,1,1.33.13,4.62,4.62,0,0,1,1.05.31l-.43,1.1a7.06,7.06,0,0,0-1-.28,4.57,4.57,0,0,0-1-.11q-2.82,0-2.82,3.32a3.76,3.76,0,0,0,.69,2.43,2.47,2.47,0,0,0,2,.84,6.6,6.6,0,0,0,2.37-.46v1.15A5.44,5.44,0,0,1-7580.27-358.91Z" transform="translate(7714.78 468.38)"/><path class="cls-3" d="M-7567.76-363.35a4.52,4.52,0,0,1-1.14,3.27,4.19,4.19,0,0,1-3.15,1.17,4.4,4.4,0,0,1-2.2-.54,3.61,3.61,0,0,1-1.48-1.54,5.07,5.07,0,0,1-.53-2.36,4.49,4.49,0,0,1,1.13-3.26,4.17,4.17,0,0,1,3.14-1.17,4.08,4.08,0,0,1,3.08,1.19A4.52,4.52,0,0,1-7567.76-363.35Zm-7.05,0a3.88,3.88,0,0,0,.71,2.5,2.55,2.55,0,0,0,2.08.86,2.56,2.56,0,0,0,2.09-.86,3.78,3.78,0,0,0,.71-2.5,3.72,3.72,0,0,0-.71-2.48,2.56,2.56,0,0,0-2.1-.85,2.56,2.56,0,0,0-2.08.84A3.81,3.81,0,0,0-7574.81-363.35Z" transform="translate(7714.78 468.38)"/><rect class="cls-2" x="255.9" y="40.6" width="216.49" height="89.01" rx="12"/><path class="cls-3" d="M-7420.49-388.46h-1.64l-6.74-9.59h-.06c.09,1.13.13,2.16.13,3.09v6.5h-1.32v-11.43h1.62l6.72,9.55h.07c0-.14,0-.59-.08-1.35s-.05-1.31,0-1.64v-6.56h1.34Z" transform="translate(7714.78 468.38)"/><path class="cls-3" d="M-7417.43-399.35a.82.82,0,0,1,.24-.65.84.84,0,0,1,.59-.21.86.86,0,0,1,.58.21.84.84,0,0,1,.24.65.85.85,0,0,1-.24.66.86.86,0,0,1-.58.21.84.84,0,0,1-.59-.21A.85.85,0,0,1-7417.43-399.35Zm1.52,10.89h-1.4V-397h1.4Z" transform="translate(7714.78 468.38)"/><path class="cls-3" d="M-7410.92-388.46l-3.51-8.57h1.5l2,5.08c.45,1.19.72,2,.8,2.31h.07a16,16,0,0,1,.58-1.71q.49-1.31,2.22-5.68h1.5l-3.51,8.57Z" transform="translate(7714.78 468.38)"/><path class="cls-3" d="M-7400.38-388.31a4.44,4.44,0,0,1-3.24-1.15,4.27,4.27,0,0,1-1.18-3.21,4.69,4.69,0,0,1,1.1-3.29,3.75,3.75,0,0,1,2.95-1.22,3.6,3.6,0,0,1,2.75,1.06,3.83,3.83,0,0,1,1,2.79v.82h-6.37a3.24,3.24,0,0,0,.82,2.29,3,3,0,0,0,2.2.78,7.87,7.87,0,0,0,2.95-.58v1.16a7.17,7.17,0,0,1-1.41.42A8.09,8.09,0,0,1-7400.38-388.31Zm-.38-7.79a2.37,2.37,0,0,0-1.78.68,3,3,0,0,0-.78,1.85h4.83a2.66,2.66,0,0,0-.59-1.87A2.13,2.13,0,0,0-7400.76-396.1Z" transform="translate(7714.78 468.38)"/><path class="cls-3" d="M-7393.2-388.46h-1.4v-12.16h1.4Z" transform="translate(7714.78 468.38)"/><path class="cls-3" d="M-7384.34-388.46h-1.4v-12.16h1.4Z" transform="translate(7714.78 468.38)"/><path class="cls-3" d="M-7373.39-392.75a4.52,4.52,0,0,1-1.14,3.27,4.19,4.19,0,0,1-3.15,1.17,4.4,4.4,0,0,1-2.2-.54,3.61,3.61,0,0,1-1.48-1.54,5.07,5.07,0,0,1-.53-2.36,4.49,4.49,0,0,1,1.13-3.26,4.17,4.17,0,0,1,3.14-1.17,4.08,4.08,0,0,1,3.08,1.19A4.52,4.52,0,0,1-7373.39-392.75Zm-7,0a3.88,3.88,0,0,0,.71,2.5,2.56,2.56,0,0,0,2.09.86,2.55,2.55,0,0,0,2.08-.86,3.78,3.78,0,0,0,.72-2.5,3.73,3.73,0,0,0-.72-2.48,2.56,2.56,0,0,0-2.1-.85,2.58,2.58,0,0,0-2.08.83A3.86,3.86,0,0,0-7380.44-392.75Z" transform="translate(7714.78 468.38)"/><path class="cls-3" d="M-7367.25-388.31a4.11,4.11,0,0,1-3.1-1.14,4.45,4.45,0,0,1-1.1-3.24,4.64,4.64,0,0,1,1.11-3.32,4.21,4.21,0,0,1,3.19-1.17,6.66,6.66,0,0,1,1.33.13,5,5,0,0,1,1,.31l-.43,1.1a8.32,8.32,0,0,0-1-.28,4.5,4.5,0,0,0-1-.11q-2.81,0-2.81,3.32a3.82,3.82,0,0,0,.68,2.43,2.49,2.49,0,0,0,2,.84,6.6,6.6,0,0,0,2.37-.46v1.15A5.52,5.52,0,0,1-7367.25-388.31Z" transform="translate(7714.78 468.38)"/><path class="cls-3" d="M-7357-388.46l-.28-1.22h-.07a3.88,3.88,0,0,1-1.38,1.09,4.47,4.47,0,0,1-1.71.28,3.29,3.29,0,0,1-2.16-.65,2.31,2.31,0,0,1-.78-1.87q0-2.6,4.48-2.72l1.57-.05v-.53a2.08,2.08,0,0,0-.47-1.49,2,2,0,0,0-1.5-.48,6.43,6.43,0,0,0-2.61.66l-.43-1a6.64,6.64,0,0,1,1.5-.54,6.93,6.93,0,0,1,1.63-.2,3.73,3.73,0,0,1,2.45.68,2.73,2.73,0,0,1,.8,2.18v5.85Zm-3.16-.92a3,3,0,0,0,2-.66,2.35,2.35,0,0,0,.75-1.86v-.77l-1.4.05a5.52,5.52,0,0,0-2.41.48,1.43,1.43,0,0,0-.74,1.32,1.27,1.27,0,0,0,.46,1.07A2,2,0,0,0-7360.19-389.38Z" transform="translate(7714.78 468.38)"/><path class="cls-3" d="M-7351.71-388.46h-1.4v-12.16h1.4Z" transform="translate(7714.78 468.38)"/><path class="cls-3" d="M-7347.27-390.32l.12.18a16,16,0,0,1-.63,1.81c-.27.69-.56,1.33-.86,1.93h-1c.15-.54.32-1.21.5-2s.31-1.43.38-1.91Z" transform="translate(7714.78 468.38)"/><path class="cls-3" d="M-7333.69-388.46V-394a2.17,2.17,0,0,0-.52-1.57,2.21,2.21,0,0,0-1.61-.51,2.74,2.74,0,0,0-2.12.73,3.45,3.45,0,0,0-.68,2.39v4.5h-1.4V-397h1.14l.23,1.18h.06a2.75,2.75,0,0,1,1.21-1,4.05,4.05,0,0,1,1.73-.35,3.72,3.72,0,0,1,2.51.74,3,3,0,0,1,.85,2.39v5.59Z" transform="translate(7714.78 468.38)"/><path class="cls-3" d="M-7323.73-388.46l-.28-1.22h-.07a3.88,3.88,0,0,1-1.38,1.09,4.5,4.5,0,0,1-1.71.28,3.29,3.29,0,0,1-2.16-.65,2.31,2.31,0,0,1-.78-1.87q0-2.6,4.48-2.72l1.57-.05v-.53a2.08,2.08,0,0,0-.47-1.49,2,2,0,0,0-1.5-.48,6.43,6.43,0,0,0-2.61.66l-.43-1a6.64,6.64,0,0,1,1.5-.54,6.93,6.93,0,0,1,1.63-.2,3.73,3.73,0,0,1,2.45.68,2.73,2.73,0,0,1,.79,2.18v5.85Zm-3.17-.92a3,3,0,0,0,2.06-.66,2.34,2.34,0,0,0,.74-1.86v-.77l-1.4.05a5.5,5.5,0,0,0-2.4.48,1.41,1.41,0,0,0-.74,1.32,1.27,1.27,0,0,0,.46,1.07A2,2,0,0,0-7326.9-389.38Z" transform="translate(7714.78 468.38)"/><path class="cls-3" d="M-7316.12-388.31a4.11,4.11,0,0,1-3.1-1.14,4.45,4.45,0,0,1-1.11-3.24,4.65,4.65,0,0,1,1.12-3.32,4.21,4.21,0,0,1,3.19-1.17,6.73,6.73,0,0,1,1.33.13,4.68,4.68,0,0,1,1,.31l-.43,1.1a7.69,7.69,0,0,0-1-.28,4.5,4.5,0,0,0-1-.11c-1.88,0-2.81,1.11-2.81,3.32a3.76,3.76,0,0,0,.68,2.43,2.49,2.49,0,0,0,2,.84,6.6,6.6,0,0,0,2.37-.46v1.15A5.52,5.52,0,0,1-7316.12-388.31Z" transform="translate(7714.78 468.38)"/><path class="cls-3" d="M-7311.71-399.35a.82.82,0,0,1,.24-.65.85.85,0,0,1,.59-.21.84.84,0,0,1,.58.21.81.81,0,0,1,.25.65.82.82,0,0,1-.25.66.84.84,0,0,1-.58.21.85.85,0,0,1-.59-.21A.85.85,0,0,1-7311.71-399.35Zm1.52,10.89h-1.4V-397h1.4Z" transform="translate(7714.78 468.38)"/><path class="cls-3" d="M-7299.24-392.75a4.52,4.52,0,0,1-1.14,3.27,4.19,4.19,0,0,1-3.14,1.17,4.47,4.47,0,0,1-2.21-.54,3.67,3.67,0,0,1-1.48-1.54,5.07,5.07,0,0,1-.52-2.36,4.44,4.44,0,0,1,1.13-3.26,4.15,4.15,0,0,1,3.13-1.17,4.09,4.09,0,0,1,3.09,1.19A4.51,4.51,0,0,1-7299.24-392.75Zm-7,0a3.82,3.82,0,0,0,.71,2.5,2.54,2.54,0,0,0,2.08.86,2.57,2.57,0,0,0,2.09-.86,3.84,3.84,0,0,0,.71-2.5,3.78,3.78,0,0,0-.71-2.48,2.6,2.6,0,0,0-2.11-.85,2.56,2.56,0,0,0-2.07.83A3.8,3.8,0,0,0-7306.28-392.75Z" transform="translate(7714.78 468.38)"/><path class="cls-3" d="M-7290.46-388.46V-394a2.17,2.17,0,0,0-.51-1.57,2.23,2.23,0,0,0-1.62-.51,2.75,2.75,0,0,0-2.12.73,3.45,3.45,0,0,0-.68,2.39v4.5h-1.4V-397h1.14l.23,1.18h.07a2.77,2.77,0,0,1,1.2-1,4.09,4.09,0,0,1,1.73-.35,3.75,3.75,0,0,1,2.52.74,3.06,3.06,0,0,1,.84,2.39v5.59Z" transform="translate(7714.78 468.38)"/><path class="cls-3" d="M-7280.5-388.46l-.28-1.22h-.06a4.06,4.06,0,0,1-1.38,1.09,4.52,4.52,0,0,1-1.72.28,3.27,3.27,0,0,1-2.15-.65,2.32,2.32,0,0,1-.79-1.87c0-1.73,1.5-2.64,4.48-2.72l1.57-.05v-.53a2,2,0,0,0-.47-1.49,2,2,0,0,0-1.49-.48,6.51,6.51,0,0,0-2.62.66l-.43-1a7,7,0,0,1,1.5-.54,7,7,0,0,1,1.63-.2,3.73,3.73,0,0,1,2.45.68,2.73,2.73,0,0,1,.8,2.18v5.85Zm-3.16-.92a3,3,0,0,0,2.05-.66,2.35,2.35,0,0,0,.75-1.86v-.77l-1.4.05a5.55,5.55,0,0,0-2.41.48,1.43,1.43,0,0,0-.74,1.32,1.3,1.3,0,0,0,.46,1.07A2,2,0,0,0-7283.66-389.38Z" transform="translate(7714.78 468.38)"/><path class="cls-3" d="M-7275.18-388.46h-1.4v-12.16h1.4Z" transform="translate(7714.78 468.38)"/><path class="cls-3" d="M-7270.74-390.32l.13.18a18.54,18.54,0,0,1-.64,1.81c-.27.69-.56,1.33-.86,1.93h-1.05c.15-.54.32-1.21.5-2s.31-1.43.38-1.91Z" transform="translate(7714.78 468.38)"/><path class="cls-3" d="M-7366-377.83v.82l-1.71.19a3,3,0,0,1,.42.72,2.57,2.57,0,0,1,.18,1,2.47,2.47,0,0,1-.92,2,4,4,0,0,1-2.55.75,4.75,4.75,0,0,1-.78-.06c-.59.29-.89.66-.89,1.1a.55.55,0,0,0,.31.52,2.48,2.48,0,0,0,1.07.17h1.64a3.85,3.85,0,0,1,2.3.58,2,2,0,0,1,.81,1.71,2.38,2.38,0,0,1-1.23,2.16,7,7,0,0,1-3.59.75,5.31,5.31,0,0,1-2.8-.62,2,2,0,0,1-1-1.77,1.9,1.9,0,0,1,.54-1.35,2.83,2.83,0,0,1,1.52-.78,1.35,1.35,0,0,1-.6-.46,1.14,1.14,0,0,1-.24-.72,1.28,1.28,0,0,1,.27-.82,2.69,2.69,0,0,1,.85-.68,2.48,2.48,0,0,1-1.17-.93,2.6,2.6,0,0,1-.45-1.5,2.69,2.69,0,0,1,.91-2.17,3.91,3.91,0,0,1,2.58-.76,5.24,5.24,0,0,1,1.31.15Zm-7.37,10a1.15,1.15,0,0,0,.63,1.06,3.72,3.72,0,0,0,1.81.36,5.43,5.43,0,0,0,2.61-.49,1.48,1.48,0,0,0,.85-1.32,1,1,0,0,0-.46-1,3.86,3.86,0,0,0-1.75-.27h-1.68a2.33,2.33,0,0,0-1.48.42A1.44,1.44,0,0,0-7373.37-367.83Zm.76-7.25a1.69,1.69,0,0,0,.54,1.36,2.37,2.37,0,0,0,1.53.46c1.37,0,2.05-.62,2.05-1.85s-.69-1.93-2.07-1.93a2.14,2.14,0,0,0-1.52.5A1.85,1.85,0,0,0-7372.61-375.08Z" transform="translate(7714.78 468.38)"/><path class="cls-3" d="M-7362.7-369.26h-1.4v-12.16h1.4Z" transform="translate(7714.78 468.38)"/><path class="cls-3" d="M-7351.76-373.55a4.56,4.56,0,0,1-1.13,3.27,4.19,4.19,0,0,1-3.15,1.17,4.4,4.4,0,0,1-2.2-.54,3.69,3.69,0,0,1-1.49-1.54,5.07,5.07,0,0,1-.52-2.36,4.49,4.49,0,0,1,1.13-3.26A4.16,4.16,0,0,1-7356-378a4.08,4.08,0,0,1,3.08,1.19A4.51,4.51,0,0,1-7351.76-373.55Zm-7,0a3.88,3.88,0,0,0,.71,2.5,2.55,2.55,0,0,0,2.08.86,2.56,2.56,0,0,0,2.09-.86,3.78,3.78,0,0,0,.71-2.5,3.72,3.72,0,0,0-.71-2.48,2.57,2.57,0,0,0-2.1-.85,2.56,2.56,0,0,0-2.08.84A3.76,3.76,0,0,0-7358.8-373.55Z" transform="translate(7714.78 468.38)"/><path class="cls-3" d="M-7345-378a3.56,3.56,0,0,1,2.83,1.16,4.78,4.78,0,0,1,1,3.26,4.8,4.8,0,0,1-1,3.27,3.54,3.54,0,0,1-2.82,1.17,4.22,4.22,0,0,1-1.65-.31,3,3,0,0,1-1.25-.95h-.1l-.3,1.11h-1v-12.16h1.4v2.95c0,.67,0,1.26-.07,1.78h.07A3.43,3.43,0,0,1-7345-378Zm-.2,1.09a2.53,2.53,0,0,0-2.07.76,4.07,4.07,0,0,0-.63,2.57,4,4,0,0,0,.65,2.58,2.56,2.56,0,0,0,2.08.78,2.21,2.21,0,0,0,1.92-.87,4.17,4.17,0,0,0,.64-2.51,4,4,0,0,0-.64-2.49A2.29,2.29,0,0,0-7345.2-376.88Z" transform="translate(7714.78 468.38)"/><path class="cls-3" d="M-7333-369.26l-.28-1.22h-.07a3.88,3.88,0,0,1-1.38,1.09,4.5,4.5,0,0,1-1.71.28,3.29,3.29,0,0,1-2.16-.65,2.31,2.31,0,0,1-.78-1.87q0-2.6,4.48-2.72l1.57,0v-.53a2.08,2.08,0,0,0-.47-1.49,2,2,0,0,0-1.5-.48,6.43,6.43,0,0,0-2.61.66l-.43-1a6.64,6.64,0,0,1,1.5-.54,6.93,6.93,0,0,1,1.63-.2,3.73,3.73,0,0,1,2.45.68,2.73,2.73,0,0,1,.8,2.18v5.85Zm-3.16-.92a3,3,0,0,0,2-.66,2.35,2.35,0,0,0,.75-1.86v-.77l-1.4.05a5.52,5.52,0,0,0-2.41.48,1.43,1.43,0,0,0-.74,1.32,1.3,1.3,0,0,0,.46,1.08A2,2,0,0,0-7336.19-370.18Z" transform="translate(7714.78 468.38)"/><path class="cls-3" d="M-7327.71-369.26h-1.4v-12.16h1.4Z" transform="translate(7714.78 468.38)"/><rect class="cls-2" x="499.5" y="40.6" width="216.49" height="89.01" rx="12"/><path class="cls-3" d="M-7151.39-407.86a4.21,4.21,0,0,0-3.21,1.25,4.85,4.85,0,0,0-1.18,3.44,4.88,4.88,0,0,0,1.14,3.46,4.16,4.16,0,0,0,3.23,1.22,11.79,11.79,0,0,0,2.95-.43v1.17a10,10,0,0,1-3.17.44,5.58,5.58,0,0,1-4.2-1.53,6,6,0,0,1-1.48-4.35,6.47,6.47,0,0,1,.71-3.09,4.91,4.91,0,0,1,2.06-2.05,6.62,6.62,0,0,1,3.17-.72,8.14,8.14,0,0,1,3.39.66l-.61,1.14A6.9,6.9,0,0,0-7151.39-407.86Z" transform="translate(7714.78 468.38)"/><path class="cls-3" d="M-7138-401.75a4.52,4.52,0,0,1-1.14,3.27,4.19,4.19,0,0,1-3.15,1.17,4.4,4.4,0,0,1-2.2-.54,3.69,3.69,0,0,1-1.49-1.54,5.19,5.19,0,0,1-.52-2.36,4.49,4.49,0,0,1,1.13-3.26,4.17,4.17,0,0,1,3.14-1.17,4.08,4.08,0,0,1,3.08,1.19A4.52,4.52,0,0,1-7138-401.75Zm-7.05,0a3.88,3.88,0,0,0,.71,2.5,2.55,2.55,0,0,0,2.08.86,2.56,2.56,0,0,0,2.09-.86,3.78,3.78,0,0,0,.71-2.5,3.72,3.72,0,0,0-.71-2.48,2.56,2.56,0,0,0-2.1-.85,2.58,2.58,0,0,0-2.08.83A3.86,3.86,0,0,0-7145-401.75Z" transform="translate(7714.78 468.38)"/><path class="cls-3" d="M-7123.77-397.46V-403a2.22,2.22,0,0,0-.47-1.54,1.9,1.9,0,0,0-1.47-.51,2.48,2.48,0,0,0-1.93.69,3.13,3.13,0,0,0-.62,2.14v4.79h-1.4V-403a2.17,2.17,0,0,0-.48-1.54,1.9,1.9,0,0,0-1.47-.51,2.37,2.37,0,0,0-1.93.73,3.71,3.71,0,0,0-.61,2.39v4.5h-1.4V-406h1.14l.23,1.18h.06a2.68,2.68,0,0,1,1.12-1,3.57,3.57,0,0,1,1.62-.35,2.78,2.78,0,0,1,2.83,1.45h.07a2.77,2.77,0,0,1,1.2-1.06,3.92,3.92,0,0,1,1.78-.39,3.31,3.31,0,0,1,2.35.74,3.2,3.2,0,0,1,.78,2.39v5.59Z" transform="translate(7714.78 468.38)"/><path class="cls-3" d="M-7115.18-397.31a4.22,4.22,0,0,1-1.65-.31,2.93,2.93,0,0,1-1.25-.95h-.1a12.15,12.15,0,0,1,.1,1.43v3.52h-1.4V-406h1.14l.19,1.18h.07a3.25,3.25,0,0,1,1.25-1,4.08,4.08,0,0,1,1.65-.31,3.57,3.57,0,0,1,2.84,1.16,4.92,4.92,0,0,1,1,3.27,4.8,4.8,0,0,1-1,3.27A3.54,3.54,0,0,1-7115.18-397.31Zm-.2-7.77a2.56,2.56,0,0,0-2.05.73,3.46,3.46,0,0,0-.65,2.31v.29a4,4,0,0,0,.65,2.58,2.55,2.55,0,0,0,2.08.78,2.23,2.23,0,0,0,1.88-.9,4.06,4.06,0,0,0,.68-2.48,3.9,3.9,0,0,0-.68-2.46A2.31,2.31,0,0,0-7115.38-405.08Z" transform="translate(7714.78 468.38)"/><path class="cls-3" d="M-7104.68-406.18a6,6,0,0,1,1.1.09l-.19,1.2a5.73,5.73,0,0,0-1-.11,2.55,2.55,0,0,0-1.92.84,2.94,2.94,0,0,0-.8,2.1v4.6h-1.4V-406h1.16l.16,1.59h.07a3.75,3.75,0,0,1,1.24-1.29A2.94,2.94,0,0,1-7104.68-406.18Z" transform="translate(7714.78 468.38)"/><path class="cls-3" d="M-7097.94-397.31a4.44,4.44,0,0,1-3.24-1.15,4.27,4.27,0,0,1-1.18-3.21,4.74,4.74,0,0,1,1.1-3.29,3.76,3.76,0,0,1,3-1.22,3.59,3.59,0,0,1,2.74,1.06,3.83,3.83,0,0,1,1,2.79v.82h-6.37a3.24,3.24,0,0,0,.82,2.29,3,3,0,0,0,2.2.78,7.87,7.87,0,0,0,3-.58v1.16a7.09,7.09,0,0,1-1.4.42A8.27,8.27,0,0,1-7097.94-397.31Zm-.38-7.79a2.39,2.39,0,0,0-1.78.68,3,3,0,0,0-.78,1.85h4.84a2.71,2.71,0,0,0-.59-1.87A2.16,2.16,0,0,0-7098.32-405.1Z" transform="translate(7714.78 468.38)"/><path class="cls-3" d="M-7085.83-397.46V-403a2.17,2.17,0,0,0-.51-1.57,2.23,2.23,0,0,0-1.62-.51,2.75,2.75,0,0,0-2.12.73,3.45,3.45,0,0,0-.68,2.39v4.5h-1.4V-406h1.14l.23,1.18h.07a2.72,2.72,0,0,1,1.2-1,4.09,4.09,0,0,1,1.73-.35,3.75,3.75,0,0,1,2.52.74,3.06,3.06,0,0,1,.84,2.39v5.59Z" transform="translate(7714.78 468.38)"/><path class="cls-3" d="M-7075.26-398.61h-.08a3.37,3.37,0,0,1-2.9,1.3,3.54,3.54,0,0,1-2.82-1.15,4.78,4.78,0,0,1-1-3.26,4.9,4.9,0,0,1,1-3.29,3.54,3.54,0,0,1,2.82-1.17,3.49,3.49,0,0,1,2.89,1.26h.1l-.05-.61,0-.61v-3.48h1.4v12.16h-1.14Zm-2.8.22a2.64,2.64,0,0,0,2.08-.73,3.45,3.45,0,0,0,.64-2.33v-.27a4.11,4.11,0,0,0-.65-2.6,2.58,2.58,0,0,0-2.09-.78,2.19,2.19,0,0,0-1.88.89,4.13,4.13,0,0,0-.66,2.5,4,4,0,0,0,.65,2.48A2.26,2.26,0,0,0-7078.06-398.39Z" transform="translate(7714.78 468.38)"/><path class="cls-3" d="M-7067.06-397.31a4.44,4.44,0,0,1-3.24-1.15,4.27,4.27,0,0,1-1.18-3.21,4.69,4.69,0,0,1,1.1-3.29,3.75,3.75,0,0,1,2.95-1.22,3.6,3.6,0,0,1,2.75,1.06,3.83,3.83,0,0,1,1,2.79v.82H-7070a3.24,3.24,0,0,0,.82,2.29,3,3,0,0,0,2.2.78,7.87,7.87,0,0,0,2.95-.58v1.16a7.17,7.17,0,0,1-1.41.42A8.09,8.09,0,0,1-7067.06-397.31Zm-.38-7.79a2.37,2.37,0,0,0-1.78.68,3,3,0,0,0-.78,1.85h4.83a2.66,2.66,0,0,0-.59-1.87A2.13,2.13,0,0,0-7067.44-405.1Z" transform="translate(7714.78 468.38)"/><path class="cls-3" d="M-7057.06-406.18a6,6,0,0,1,1.1.09l-.19,1.2a5.73,5.73,0,0,0-1-.11,2.55,2.55,0,0,0-1.92.84,2.94,2.94,0,0,0-.8,2.1v4.6h-1.4V-406h1.16l.16,1.59h.07a3.75,3.75,0,0,1,1.24-1.29A2.94,2.94,0,0,1-7057.06-406.18Z" transform="translate(7714.78 468.38)"/><path class="cls-3" d="M-7155.59-378.26v-5.54a2.17,2.17,0,0,0-.51-1.57,2.21,2.21,0,0,0-1.61-.51,2.76,2.76,0,0,0-2.13.73,3.45,3.45,0,0,0-.67,2.39v4.5h-1.4v-8.57h1.14l.22,1.18h.07a2.75,2.75,0,0,1,1.21-1,4.05,4.05,0,0,1,1.73-.35,3.72,3.72,0,0,1,2.51.74,3.06,3.06,0,0,1,.84,2.39v5.59Z" transform="translate(7714.78 468.38)"/><path class="cls-3" d="M-7147.4-378.11a4.44,4.44,0,0,1-3.24-1.15,4.27,4.27,0,0,1-1.18-3.21,4.69,4.69,0,0,1,1.1-3.29,3.75,3.75,0,0,1,2.95-1.22,3.6,3.6,0,0,1,2.75,1.06,3.83,3.83,0,0,1,1,2.79v.82h-6.36a3.2,3.2,0,0,0,.82,2.29,3,3,0,0,0,2.2.78,7.87,7.87,0,0,0,3-.58v1.16a7.17,7.17,0,0,1-1.41.42A8.09,8.09,0,0,1-7147.4-378.11Zm-.38-7.79a2.37,2.37,0,0,0-1.78.68,3,3,0,0,0-.78,1.85h4.83a2.66,2.66,0,0,0-.59-1.87A2.13,2.13,0,0,0-7147.78-385.9Z" transform="translate(7714.78 468.38)"/><path class="cls-3" d="M-7137.92-378.11a4.12,4.12,0,0,1-3.11-1.14,4.45,4.45,0,0,1-1.1-3.24,4.64,4.64,0,0,1,1.11-3.32,4.21,4.21,0,0,1,3.19-1.17,6.66,6.66,0,0,1,1.33.13,4.79,4.79,0,0,1,1.05.31l-.43,1.1a8.32,8.32,0,0,0-1-.28,4.43,4.43,0,0,0-1-.11q-2.8,0-2.81,3.32a3.82,3.82,0,0,0,.68,2.43,2.49,2.49,0,0,0,2,.84,6.6,6.6,0,0,0,2.37-.46v1.15A5.5,5.5,0,0,1-7137.92-378.11Z" transform="translate(7714.78 468.38)"/><path class="cls-3" d="M-7129.49-378.11a4.42,4.42,0,0,1-3.23-1.15,4.28,4.28,0,0,1-1.19-3.21,4.74,4.74,0,0,1,1.1-3.29,3.76,3.76,0,0,1,3-1.22,3.62,3.62,0,0,1,2.75,1.06,3.87,3.87,0,0,1,1,2.79v.82h-6.37a3.24,3.24,0,0,0,.82,2.29,3,3,0,0,0,2.2.78,7.83,7.83,0,0,0,2.95-.58v1.16a7.09,7.09,0,0,1-1.4.42A8.2,8.2,0,0,1-7129.49-378.11Zm-.38-7.79a2.4,2.4,0,0,0-1.78.68,3,3,0,0,0-.78,1.85h4.84a2.71,2.71,0,0,0-.59-1.87A2.16,2.16,0,0,0-7129.87-385.9Z" transform="translate(7714.78 468.38)"/><path class="cls-3" d="M-7117.74-380.6a2.08,2.08,0,0,1-1,1.84,4.73,4.73,0,0,1-2.7.65,6.27,6.27,0,0,1-2.87-.54v-1.2a7.08,7.08,0,0,0,1.43.49,6.42,6.42,0,0,0,1.47.18,3.65,3.65,0,0,0,1.69-.32,1.07,1.07,0,0,0,.59-1,1.07,1.07,0,0,0-.47-.86,8.19,8.19,0,0,0-1.82-.84,9.7,9.7,0,0,1-1.84-.77,2.49,2.49,0,0,1-.81-.76,1.8,1.8,0,0,1-.26-1,1.9,1.9,0,0,1,.91-1.66,4.62,4.62,0,0,1,2.53-.6,8,8,0,0,1,2.91.56l-.49,1.05a7.26,7.26,0,0,0-2.52-.53,3.15,3.15,0,0,0-1.51.29.9.9,0,0,0-.5.8.93.93,0,0,0,.19.59,1.86,1.86,0,0,0,.61.46,16.45,16.45,0,0,0,1.62.63,6,6,0,0,1,2.22,1.12A1.86,1.86,0,0,1-7117.74-380.6Z" transform="translate(7714.78 468.38)"/><path class="cls-3" d="M-7115.58-389.15a.86.86,0,0,1,.23-.65.87.87,0,0,1,.59-.21.85.85,0,0,1,.59.22.8.8,0,0,1,.24.64.85.85,0,0,1-.24.66.89.89,0,0,1-.59.21.87.87,0,0,1-.59-.21A.88.88,0,0,1-7115.58-389.15Zm1.52,10.89h-1.4v-8.57h1.4Z" transform="translate(7714.78 468.38)"/><path class="cls-3" d="M-7104.8-379.41h-.08a3.38,3.38,0,0,1-2.9,1.3,3.54,3.54,0,0,1-2.82-1.15,4.78,4.78,0,0,1-1-3.26,4.9,4.9,0,0,1,1-3.29,3.54,3.54,0,0,1,2.82-1.17,3.47,3.47,0,0,1,2.88,1.26h.11l-.06-.61,0-.61v-3.48h1.4v12.16h-1.14Zm-2.8.22a2.64,2.64,0,0,0,2.08-.73,3.43,3.43,0,0,0,.64-2.33v-.27a4.11,4.11,0,0,0-.65-2.6,2.58,2.58,0,0,0-2.09-.78,2.22,2.22,0,0,0-1.89.89,4.2,4.2,0,0,0-.65,2.5,4,4,0,0,0,.65,2.48A2.26,2.26,0,0,0-7107.6-379.19Z" transform="translate(7714.78 468.38)"/><path class="cls-3" d="M-7094.83-378.26l-.27-1.22h-.07a3.88,3.88,0,0,1-1.38,1.09,4.52,4.52,0,0,1-1.72.28,3.28,3.28,0,0,1-2.15-.65,2.31,2.31,0,0,1-.78-1.87q0-2.6,4.48-2.72l1.57,0v-.53a2.08,2.08,0,0,0-.47-1.49,2,2,0,0,0-1.5-.48,6.43,6.43,0,0,0-2.61.66l-.43-1a6.73,6.73,0,0,1,1.49-.54,7.06,7.06,0,0,1,1.63-.2,3.76,3.76,0,0,1,2.46.68,2.73,2.73,0,0,1,.79,2.18v5.85Zm-3.16-.92a3,3,0,0,0,2.06-.66,2.37,2.37,0,0,0,.74-1.86v-.77l-1.4.05a5.59,5.59,0,0,0-2.41.48,1.42,1.42,0,0,0-.73,1.32,1.3,1.3,0,0,0,.46,1.08A2,2,0,0,0-7098-379.18Z" transform="translate(7714.78 468.38)"/><path class="cls-3" d="M-7084.61-379.41h-.08a3.37,3.37,0,0,1-2.9,1.3,3.54,3.54,0,0,1-2.82-1.15,4.78,4.78,0,0,1-1-3.26,4.9,4.9,0,0,1,1-3.29,3.54,3.54,0,0,1,2.82-1.17,3.48,3.48,0,0,1,2.89,1.26h.11l-.06-.61,0-.61v-3.48h1.4v12.16h-1.14Zm-2.8.22a2.64,2.64,0,0,0,2.08-.73,3.43,3.43,0,0,0,.64-2.33v-.27a4.11,4.11,0,0,0-.65-2.6,2.58,2.58,0,0,0-2.09-.78,2.19,2.19,0,0,0-1.88.89,4.13,4.13,0,0,0-.66,2.5,4,4,0,0,0,.65,2.48A2.28,2.28,0,0,0-7087.41-379.19Z" transform="translate(7714.78 468.38)"/><path class="cls-3" d="M-7076.41-378.11a4.44,4.44,0,0,1-3.24-1.15,4.27,4.27,0,0,1-1.18-3.21,4.69,4.69,0,0,1,1.1-3.29,3.75,3.75,0,0,1,2.95-1.22,3.6,3.6,0,0,1,2.75,1.06,3.83,3.83,0,0,1,1,2.79v.82h-6.37a3.24,3.24,0,0,0,.82,2.29,3,3,0,0,0,2.2.78,7.87,7.87,0,0,0,2.95-.58v1.16a7.29,7.29,0,0,1-1.4.42A8.27,8.27,0,0,1-7076.41-378.11Zm-.38-7.79a2.37,2.37,0,0,0-1.78.68,3,3,0,0,0-.78,1.85h4.83a2.66,2.66,0,0,0-.59-1.87A2.13,2.13,0,0,0-7076.79-385.9Z" transform="translate(7714.78 468.38)"/><path class="cls-3" d="M-7064.66-380.6a2.07,2.07,0,0,1-1,1.84,4.72,4.72,0,0,1-2.69.65,6.24,6.24,0,0,1-2.87-.54v-1.2a7.08,7.08,0,0,0,1.43.49,6.42,6.42,0,0,0,1.47.18,3.68,3.68,0,0,0,1.69-.32,1.07,1.07,0,0,0,.59-1,1.07,1.07,0,0,0-.47-.86,8.11,8.11,0,0,0-1.83-.84,9.84,9.84,0,0,1-1.83-.77,2.39,2.39,0,0,1-.81-.76,1.8,1.8,0,0,1-.27-1,1.91,1.91,0,0,1,.92-1.66,4.58,4.58,0,0,1,2.52-.6,8,8,0,0,1,2.92.56l-.5,1.05a7.17,7.17,0,0,0-2.52-.53,3.14,3.14,0,0,0-1.5.29.89.89,0,0,0-.51.8,1,1,0,0,0,.19.59,2,2,0,0,0,.62.46,16.45,16.45,0,0,0,1.62.63,6.2,6.2,0,0,1,2.22,1.12A1.89,1.89,0,0,1-7064.66-380.6Z" transform="translate(7714.78 468.38)"/><path class="cls-3" d="M-7059.37-386.83h1.5l2,4.89a17,17,0,0,1,.82,2.41h.07c.08-.26.23-.72.46-1.36s1-2.62,2.29-5.94h1.5l-4,9.75A4.7,4.7,0,0,1-7056-375a3,3,0,0,1-1.93.61,6,6,0,0,1-1.27-.13v-1a5.52,5.52,0,0,0,1,.09,2.12,2.12,0,0,0,2.06-1.5l.51-1.22Z" transform="translate(7714.78 468.38)"/><path class="cls-3" d="M-7151.6-358.91a4.44,4.44,0,0,1-3.24-1.15,4.27,4.27,0,0,1-1.18-3.21,4.69,4.69,0,0,1,1.1-3.29,3.75,3.75,0,0,1,2.95-1.22,3.6,3.6,0,0,1,2.75,1.06,3.83,3.83,0,0,1,1,2.79v.82h-6.36a3.21,3.21,0,0,0,.82,2.29,3,3,0,0,0,2.2.78,7.9,7.9,0,0,0,2.95-.58v1.16a7.37,7.37,0,0,1-1.41.42A8.09,8.09,0,0,1-7151.6-358.91Zm-.38-7.79a2.37,2.37,0,0,0-1.78.68,3,3,0,0,0-.78,1.85h4.83a2.66,2.66,0,0,0-.59-1.87A2.13,2.13,0,0,0-7152-366.7Z" transform="translate(7714.78 468.38)"/><path class="cls-3" d="M-7143.59-363.45l-3.22-4.18h1.6l2.44,3.29,2.42-3.29h1.58l-3.21,4.18,3.38,4.39h-1.58l-2.59-3.47-2.62,3.47H-7147Z" transform="translate(7714.78 468.38)"/><path class="cls-3" d="M-7132.47-358.91a4.22,4.22,0,0,1-1.65-.31,3.05,3.05,0,0,1-1.25-.95h-.1a10.33,10.33,0,0,1,.1,1.43v3.52h-1.4v-12.41h1.14l.19,1.18h.07a3.2,3.2,0,0,1,1.26-1,4,4,0,0,1,1.64-.31,3.56,3.56,0,0,1,2.84,1.16,4.86,4.86,0,0,1,1,3.27,4.8,4.8,0,0,1-1,3.27A3.52,3.52,0,0,1-7132.47-358.91Zm-.2-7.77a2.57,2.57,0,0,0-2.05.73,3.52,3.52,0,0,0-.65,2.31v.29a4.06,4.06,0,0,0,.65,2.58,2.56,2.56,0,0,0,2.08.78,2.22,2.22,0,0,0,1.88-.9,4.06,4.06,0,0,0,.68-2.48,3.91,3.91,0,0,0-.68-2.46A2.29,2.29,0,0,0-7132.67-366.68Z" transform="translate(7714.78 468.38)"/><path class="cls-3" d="M-7122.28-358.91a4.42,4.42,0,0,1-3.23-1.15,4.28,4.28,0,0,1-1.19-3.21,4.74,4.74,0,0,1,1.1-3.29,3.78,3.78,0,0,1,3-1.22,3.62,3.62,0,0,1,2.75,1.06,3.87,3.87,0,0,1,1,2.79v.82h-6.37a3.26,3.26,0,0,0,.82,2.29,3,3,0,0,0,2.2.78,7.83,7.83,0,0,0,2.95-.58v1.16a7.09,7.09,0,0,1-1.4.42A8.13,8.13,0,0,1-7122.28-358.91Zm-.38-7.79a2.37,2.37,0,0,0-1.77.68,2.84,2.84,0,0,0-.78,1.85h4.83A2.71,2.71,0,0,0-7121-366,2.16,2.16,0,0,0-7122.66-366.7Z" transform="translate(7714.78 468.38)"/><path class="cls-3" d="M-7112.8-358.91a4.13,4.13,0,0,1-3.11-1.14,4.49,4.49,0,0,1-1.1-3.24,4.65,4.65,0,0,1,1.12-3.32,4.2,4.2,0,0,1,3.18-1.17,6.76,6.76,0,0,1,1.34.13,4.68,4.68,0,0,1,1,.31l-.43,1.1a6.71,6.71,0,0,0-1-.28,4.57,4.57,0,0,0-1-.11q-2.82,0-2.82,3.32a3.76,3.76,0,0,0,.69,2.43,2.49,2.49,0,0,0,2,.84,6.6,6.6,0,0,0,2.37-.46v1.15A5.52,5.52,0,0,1-7112.8-358.91Z" transform="translate(7714.78 468.38)"/><path class="cls-3" d="M-7105.28-360a4.17,4.17,0,0,0,.71,0c.23,0,.42-.07.55-.1v1a2.78,2.78,0,0,1-.67.17,5.93,5.93,0,0,1-.8.06c-1.78,0-2.68-.87-2.68-2.61v-5.1h-1.32v-.62l1.32-.54.59-1.83h.81v2h2.68v1h-2.68v5a1.63,1.63,0,0,0,.4,1.19A1.46,1.46,0,0,0-7105.28-360Z" transform="translate(7714.78 468.38)"/><path class="cls-3" d="M-7096.49-359.06l-.28-1.22h-.06a3.88,3.88,0,0,1-1.38,1.09,4.52,4.52,0,0,1-1.72.28,3.28,3.28,0,0,1-2.15-.65,2.31,2.31,0,0,1-.78-1.87q0-2.6,4.48-2.72l1.56-.05v-.53a2.08,2.08,0,0,0-.46-1.49,2,2,0,0,0-1.5-.48,6.51,6.51,0,0,0-2.62.66l-.43-1a7,7,0,0,1,1.5-.54,7,7,0,0,1,1.63-.2,3.71,3.71,0,0,1,2.45.68,2.7,2.7,0,0,1,.8,2.18v5.85Zm-3.16-.92a3,3,0,0,0,2-.66,2.35,2.35,0,0,0,.75-1.86v-.77l-1.4,0a5.55,5.55,0,0,0-2.41.48,1.43,1.43,0,0,0-.74,1.32,1.33,1.33,0,0,0,.46,1.08A2.06,2.06,0,0,0-7099.65-360Z" transform="translate(7714.78 468.38)"/><path class="cls-3" d="M-7089.58-360a4.21,4.21,0,0,0,.72,0c.23,0,.41-.07.55-.1v1a3.06,3.06,0,0,1-.67.17,6.17,6.17,0,0,1-.8.06c-1.79,0-2.68-.87-2.68-2.61v-5.1h-1.33v-.62l1.33-.54.59-1.83h.81v2h2.68v1h-2.68v5a1.67,1.67,0,0,0,.39,1.19A1.47,1.47,0,0,0-7089.58-360Z" transform="translate(7714.78 468.38)"/><path class="cls-3" d="M-7086.58-369.95a.82.82,0,0,1,.23-.65.87.87,0,0,1,.59-.21.81.81,0,0,1,.58.22.77.77,0,0,1,.25.64.82.82,0,0,1-.25.66.84.84,0,0,1-.58.21.87.87,0,0,1-.59-.21A.84.84,0,0,1-7086.58-369.95Zm1.51,10.89h-1.4v-8.57h1.4Z" transform="translate(7714.78 468.38)"/><path class="cls-3" d="M-7080.07-359.06l-3.51-8.57h1.5l2,5.08a23.39,23.39,0,0,1,.79,2.31h.07a17,17,0,0,1,.59-1.71q.48-1.31,2.21-5.68h1.5l-3.51,8.57Z" transform="translate(7714.78 468.38)"/><path class="cls-3" d="M-7067.76-359.06l-.28-1.22h-.07a4,4,0,0,1-1.37,1.09,4.52,4.52,0,0,1-1.72.28,3.29,3.29,0,0,1-2.16-.65,2.31,2.31,0,0,1-.78-1.87c0-1.73,1.5-2.64,4.48-2.72l1.57-.05v-.53a2,2,0,0,0-.47-1.49,2,2,0,0,0-1.49-.48,6.47,6.47,0,0,0-2.62.66l-.43-1a7,7,0,0,1,1.5-.54,7,7,0,0,1,1.63-.2,3.73,3.73,0,0,1,2.45.68,2.73,2.73,0,0,1,.8,2.18v5.85Zm-3.16-.92a3,3,0,0,0,2.05-.66,2.35,2.35,0,0,0,.75-1.86v-.77l-1.4,0a5.52,5.52,0,0,0-2.41.48,1.43,1.43,0,0,0-.74,1.32,1.3,1.3,0,0,0,.46,1.08A2.06,2.06,0,0,0-7070.92-360Z" transform="translate(7714.78 468.38)"/><path class="cls-3" d="M-7057.87-361.4a2.09,2.09,0,0,1-1,1.84,4.73,4.73,0,0,1-2.7.65,6.22,6.22,0,0,1-2.86-.54v-1.2a7.08,7.08,0,0,0,1.43.49,6.42,6.42,0,0,0,1.47.18,3.68,3.68,0,0,0,1.69-.32,1.07,1.07,0,0,0,.59-1,1.07,1.07,0,0,0-.47-.86,8.11,8.11,0,0,0-1.83-.84,9.84,9.84,0,0,1-1.83-.77,2.3,2.3,0,0,1-.81-.76,1.8,1.8,0,0,1-.27-1,1.91,1.91,0,0,1,.92-1.66,4.56,4.56,0,0,1,2.52-.6,8,8,0,0,1,2.92.56l-.5,1.05a7.17,7.17,0,0,0-2.52-.53,3.14,3.14,0,0,0-1.5.29.89.89,0,0,0-.51.8,1,1,0,0,0,.19.59,1.91,1.91,0,0,0,.62.46,16.45,16.45,0,0,0,1.62.63,6.2,6.2,0,0,1,2.22,1.12A1.89,1.89,0,0,1-7057.87-361.4Z" transform="translate(7714.78 468.38)"/></g></g></svg>