<svg xmlns="http://www.w3.org/2000/svg" width="999.669" height="315.557" viewBox="0 0 999.669 315.557">
  <g id="Grupo_21329" data-name="Grupo 21329" transform="translate(-220.166 -7814.461)">
    <g id="Grupo_21234" data-name="Grupo 21234" transform="translate(0 418.129)">
      <rect id="Rectángulo_6108" data-name="Rectángulo 6108" width="321.999" height="164.198" rx="9.16" transform="translate(220.166 7547.611)" fill="#cdea70"/>
    </g>
    <text id="Qué_aspectos_requieren_seguimiento._Métodos_de_seguimiento._Periodicidad._" data-name="Qué aspectos requieren seguimiento.
Métodos de seguimiento.
Periodicidad.
" transform="translate(241.57 8024.018)" fill="#00223d" font-size="15" font-family="OpenSans, Open Sans"><tspan x="0" y="16">Qué aspectos requieren seguimiento.</tspan><tspan x="0" y="34">Métodos de seguimiento.</tspan><tspan x="0" y="52">Periodicidad.</tspan></text>
    <text id="Seguimiento" transform="translate(382.215 8007.445)" fill="#303913" font-size="16" font-family="OpenSans-Bold, Open Sans" font-weight="700"><tspan x="-50.059" y="0">Seguimiento</tspan></text>
    <text id="_" data-name="•
•
•
" transform="translate(232.421 8024.018)" fill="#00223d" font-size="15" font-family="OpenSans, Open Sans"><tspan x="0" y="16">•</tspan><tspan x="0" y="34">•</tspan><tspan x="0" y="52">•</tspan></text>
    <g id="Grupo_21235" data-name="Grupo 21235" transform="translate(0 418.129)">
      <rect id="Rectángulo_6109" data-name="Rectángulo 6109" width="321.999" height="164.198" rx="9.16" transform="translate(559 7547.611)" fill="#cdea70"/>
    </g>
    <text id="Qué_aspectos_requieren_medición._Métodos_de_medición._Periodicidad." data-name="Qué aspectos requieren medición.
Métodos de medición.
Periodicidad." transform="translate(580.405 8024.018)" fill="#00223d" font-size="15" font-family="OpenSans, Open Sans"><tspan x="0" y="16">Qué aspectos requieren medición.</tspan><tspan x="0" y="34">Métodos de medición.</tspan><tspan x="0" y="52">Periodicidad.</tspan></text>
    <text id="Medición" transform="translate(721.05 8007.445)" fill="#303913" font-size="16" font-family="OpenSans-Bold, Open Sans" font-weight="700"><tspan x="-36.539" y="0">Medición</tspan></text>
    <text id="_2" data-name="•
•
•
" transform="translate(571.256 8024.018)" fill="#00223d" font-size="15" font-family="OpenSans, Open Sans"><tspan x="0" y="16">•</tspan><tspan x="0" y="34">•</tspan><tspan x="0" y="52">•</tspan></text>
    <g id="Grupo_21236" data-name="Grupo 21236" transform="translate(0 418.129)">
      <rect id="Rectángulo_6110" data-name="Rectángulo 6110" width="321.999" height="164.198" rx="9.16" transform="translate(897.835 7547.611)" fill="#cdea70"/>
    </g>
    <text id="Métodos_de_evaluación._Cuándo_analizar_y_evaluar_los_resultados._Criterios_contra_los_cuales_evaluará_el_desempeño_ambiental." data-name="Métodos de evaluación.
Cuándo analizar y evaluar los resultados.
Criterios contra los cuales evaluará el desempeño ambiental." transform="translate(919.24 8024.018)" fill="#00223d" font-size="15" font-family="OpenSans, Open Sans"><tspan x="0" y="16">Métodos de evaluación.</tspan><tspan x="0" y="34">Cuándo analizar y evaluar los resultados.</tspan><tspan x="0" y="52">Criterios contra los cuales evaluará el </tspan><tspan x="0" y="70">desempeño ambiental.</tspan></text>
    <text id="Análisis_y_evaluación_" data-name="Análisis y evaluación " transform="translate(1059.884 8007.445)" fill="#303913" font-size="16" font-family="OpenSans-Bold, Open Sans" font-weight="700"><tspan x="-85.078" y="0">Análisis y evaluación </tspan></text>
    <text id="_3" data-name="•
•

•
" transform="translate(910.091 8024.018)" fill="#00223d" font-size="15" font-family="OpenSans, Open Sans"><tspan x="0" y="16">•</tspan><tspan x="0" y="34">•</tspan><tspan x="0" y="52"></tspan><tspan x="0" y="70">•</tspan><tspan font-family="OpenSans"><tspan x="0" y="88"></tspan></tspan></text>
    <g id="Grupo_21237" data-name="Grupo 21237" transform="translate(0 418.129)">
      <path id="Trazado_30549" data-name="Trazado 30549" d="M463.064,7478.231a81.543,81.543,0,0,1-16.046,48.7,82.385,82.385,0,0,1-12.7,13.611,81.834,81.834,0,0,1-106.3,0,82.389,82.389,0,0,1-12.7-13.611,81.889,81.889,0,0,1,65.853-130.6c.107,0,.214,0,.321,0a81.447,81.447,0,0,1,42.036,11.787,81.929,81.929,0,0,1,39.542,70.109Z" fill="#5fc6ff"/>
      <path id="Trazado_30550" data-name="Trazado 30550" d="M447.018,7420.293v106.636a82.385,82.385,0,0,1-12.7,13.611,81.834,81.834,0,0,1-106.3,0,82.389,82.389,0,0,1-12.7-13.611V7420.293a12.171,12.171,0,0,1,12.171-12.171H434.847a12.17,12.17,0,0,1,12.171,12.171Z" fill="#cd815b"/>
      <path id="Trazado_30551" data-name="Trazado 30551" d="M434.316,7443.205v97.335a81.834,81.834,0,0,1-106.3,0v-97.335a7.668,7.668,0,0,1,7.668-7.672h90.961a7.672,7.672,0,0,1,7.672,7.672Z" fill="#efedee"/>
      <path id="Trazado_30552" data-name="Trazado 30552" d="M413.756,7411.4v21.534a7.281,7.281,0,0,1-7.283,7.284H355.856a7.281,7.281,0,0,1-7.284-7.284V7411.4a7.281,7.281,0,0,1,7.284-7.284H368.6a14.035,14.035,0,0,1,24.3-1.451c.027.04.05.077.074.117.2.3.384.619.555.94.076.14.147.274.207.394h12.743a7.281,7.281,0,0,1,7.283,7.284Z" fill="#f6a350"/>
      <path id="Trazado_30553" data-name="Trazado 30553" d="M413.756,7411.4v21.534a7.281,7.281,0,0,1-7.283,7.284h-45.6a7.282,7.282,0,0,1-7.284-7.284V7411.4a7.282,7.282,0,0,1,7.284-7.284H368.6a14.035,14.035,0,0,1,24.3-1.451c.027.04.05.077.074.117.214.345.4.662.555.94.076.14.147.274.207.394h12.743a7.281,7.281,0,0,1,7.283,7.284Z" fill="#fad466"/>
      <path id="Trazado_30554" data-name="Trazado 30554" d="M381.165,7402.941a4.847,4.847,0,1,1-4.847,4.847,4.847,4.847,0,0,1,4.847-4.847Z" fill="#3e3569"/>
      <path id="Trazado_30555" data-name="Trazado 30555" d="M399.215,7429.516h-36.1a3.51,3.51,0,0,1-3.51-3.51h0a3.51,3.51,0,0,1,3.51-3.51h36.1a3.51,3.51,0,0,1,3.51,3.51h0a3.51,3.51,0,0,1-3.51,3.51Z" fill="#f6a350"/>
      <path id="Trazado_30556" data-name="Trazado 30556" d="M342.389,7474.309h14.374v-14.373H342.389v14.373ZM360.106,7481h-21.06a3.343,3.343,0,0,1-3.343-3.343v-21.059a3.343,3.343,0,0,1,3.343-3.343h21.06a3.343,3.343,0,0,1,3.342,3.343v21.059a3.343,3.343,0,0,1-3.342,3.343Z" fill="#008dc6"/>
      <path id="Trazado_30557" data-name="Trazado 30557" d="M393.868,7463.947h-21.06a3.343,3.343,0,0,1,0-6.686h21.06a3.343,3.343,0,1,1,0,6.686Z" fill="#4a4278"/>
      <path id="Trazado_30558" data-name="Trazado 30558" d="M419.942,7476.984H372.808a3.343,3.343,0,0,1,0-6.686h47.134a3.343,3.343,0,0,1,0,6.686Z" fill="#4a4278"/>
      <path id="Trazado_30559" data-name="Trazado 30559" d="M342.389,7510.412h14.374v-14.374H342.389v14.374Zm17.717,6.685h-21.06a3.343,3.343,0,0,1-3.343-3.343v-21.059a3.343,3.343,0,0,1,3.343-3.343h21.06a3.343,3.343,0,0,1,3.342,3.343v21.059a3.343,3.343,0,0,1-3.342,3.343Z" fill="#008dc6"/>
      <path id="Trazado_30560" data-name="Trazado 30560" d="M393.868,7500.049h-21.06a3.343,3.343,0,0,1,0-6.685h21.06a3.343,3.343,0,1,1,0,6.685Z" fill="#4a4278"/>
      <path id="Trazado_30561" data-name="Trazado 30561" d="M419.942,7513.086H372.808a3.343,3.343,0,0,1,0-6.686h47.134a3.343,3.343,0,0,1,0,6.686Z" fill="#4a4278"/>
      <path id="Trazado_30562" data-name="Trazado 30562" d="M356.763,7546.514H342.389V7532.14h14.374v14.374Zm3.343-21.06h-21.06a3.345,3.345,0,0,0-3.343,3.343v17.563a81.4,81.4,0,0,0,12.445,6.839h11.958a3.343,3.343,0,0,0,3.342-3.342V7528.8a3.344,3.344,0,0,0-3.342-3.343Z" fill="#008dc6"/>
      <path id="Trazado_30563" data-name="Trazado 30563" d="M393.868,7536.151h-21.06a3.343,3.343,0,0,1,0-6.686h21.06a3.343,3.343,0,0,1,0,6.686Z" fill="#4a4278"/>
      <path id="Trazado_30564" data-name="Trazado 30564" d="M419.942,7549.188H372.808a3.343,3.343,0,0,1,0-6.686h47.134a3.343,3.343,0,0,1,0,6.686Z" fill="#4a4278"/>
      <path id="Trazado_30565" data-name="Trazado 30565" d="M349.408,7514.088a3.343,3.343,0,0,1-2.781-1.488l-10.7-16.046a3.343,3.343,0,0,1,5.563-3.708l7.422,11.133,9.506-20.069a3.343,3.343,0,1,1,6.042,2.862l-12.034,25.4a3.342,3.342,0,0,1-2.778,1.9c-.081,0-.162.008-.243.008Z" fill="#e83470"/>
    </g>
    <g id="Grupo_21238" data-name="Grupo 21238" transform="translate(0 418.129)">
      <path id="Trazado_30566" data-name="Trazado 30566" d="M801.9,7478.231a81.52,81.52,0,0,1-8.184,35.721q-.606,1.248-1.253,2.477a81.938,81.938,0,0,1-144.92,0q-.652-1.235-1.261-2.487A81.915,81.915,0,1,1,801.9,7478.231Z" fill="#5fc6ff"/>
      <path id="Trazado_30567" data-name="Trazado 30567" d="M708.775,7526.123l-13.03,30.356a81.129,81.129,0,0,1-12.77-5.178l10.808-25.178Z" fill="#9a6144"/>
      <path id="Trazado_30568" data-name="Trazado 30568" d="M757.025,7551.3a81.634,81.634,0,0,1-12.773,5.175l-13.03-30.356h14.992l10.811,25.181Z" fill="#9a6144"/>
      <path id="Trazado_30569" data-name="Trazado 30569" d="M793.715,7410.128v103.824q-.606,1.248-1.253,2.477a81.722,81.722,0,0,1-5.78,9.36H653.318a81.7,81.7,0,0,1-5.776-9.36q-.652-1.235-1.261-2.487V7410.128Z" fill="#efedee"/>
      <path id="Trazado_30570" data-name="Trazado 30570" d="M646.282,7410.128H793.716v16.045H646.282v-16.045Z" fill="#d5d2d2"/>
      <path id="Trazado_30571" data-name="Trazado 30571" d="M798.572,7406.18v9.233a4.409,4.409,0,0,1-4.409,4.409H645.833a4.411,4.411,0,0,1-4.409-4.409v-9.233a4.411,4.411,0,0,1,4.409-4.409h148.33a4.409,4.409,0,0,1,4.409,4.409Z" fill="#9a6144"/>
      <path id="Trazado_30572" data-name="Trazado 30572" d="M798.572,7406.18v4.219a4.409,4.409,0,0,1-4.409,4.409H645.833a4.412,4.412,0,0,1-4.409-4.409v-4.219a4.411,4.411,0,0,1,4.409-4.409h148.33a4.409,4.409,0,0,1,4.409,4.409Z" fill="#cd815b"/>
      <path id="Trazado_30573" data-name="Trazado 30573" d="M792.462,7516.429q-1.444,2.737-3.092,5.348a81.662,81.662,0,0,1-9.848,12.7H660.478a81.847,81.847,0,0,1-9.848-12.7q-1.644-2.607-3.088-5.348Z" fill="#cd815b"/>
      <path id="Trazado_30574" data-name="Trazado 30574" d="M792.462,7516.429q-1.444,2.737-3.092,5.348H650.63q-1.644-2.607-3.088-5.348Z" fill="#9a6144"/>
      <path id="Trazado_30575" data-name="Trazado 30575" d="M669.9,7495.76l-5.086-4.339,32.09-37.6a3.343,3.343,0,0,1,4.906-.194l33,33,35.263-42.787,5.159,4.252-37.6,45.627a3.344,3.344,0,0,1-4.943.237l-33.041-33.041L669.9,7495.76Z" fill="#fad466"/>
      <path id="Trazado_30576" data-name="Trazado 30576" d="M735.039,7482.79a8.795,8.795,0,1,1-8.795,8.795,8.795,8.795,0,0,1,8.795-8.795Z" fill="#e83470"/>
      <path id="Trazado_30577" data-name="Trazado 30577" d="M699.442,7447.192a8.8,8.8,0,1,1-8.8,8.795,8.8,8.8,0,0,1,8.8-8.795Z" fill="#e83470"/>
      <path id="Trazado_30578" data-name="Trazado 30578" d="M667.351,7484.8a8.8,8.8,0,1,1-8.795,8.795,8.795,8.795,0,0,1,8.795-8.795Z" fill="#e83470"/>
      <path id="Trazado_30579" data-name="Trazado 30579" d="M772.646,7437.164a8.795,8.795,0,1,1-8.795,8.795,8.8,8.8,0,0,1,8.795-8.795Z" fill="#e83470"/>
    </g>
    <g id="Grupo_21239" data-name="Grupo 21239" transform="translate(0 418.129)">
      <path id="Trazado_30580" data-name="Trazado 30580" d="M1058.835,7396.332a81.9,81.9,0,1,1-81.9,81.9,81.9,81.9,0,0,1,81.9-81.9Z" fill="#5fc6ff"/>
      <path id="Trazado_30581" data-name="Trazado 30581" d="M1128.031,7440.694v81.361a81.916,81.916,0,0,1-138.392,0V7410.75a5.97,5.97,0,0,1,5.967-5.971h96.51l35.915,35.915Z" fill="#efedee"/>
      <path id="Trazado_30582" data-name="Trazado 30582" d="M1092.116,7434.724v-29.945l35.915,35.915h-29.945a5.971,5.971,0,0,1-5.97-5.97Z" fill="#d5d2d2"/>
      <path id="Trazado_30583" data-name="Trazado 30583" d="M1052.93,7430.184h-42.119a3.008,3.008,0,0,1-3.008-3.008h0a3.008,3.008,0,0,1,3.008-3.009h42.119a3.009,3.009,0,0,1,3.009,3.009h0a3.009,3.009,0,0,1-3.009,3.008Z" fill="#3e3569"/>
      <path id="Trazado_30584" data-name="Trazado 30584" d="M1036.215,7442.887h-25.4a3.009,3.009,0,0,1-3.009-3.009h0a3.008,3.008,0,0,1,3.009-3.008h25.4a3.008,3.008,0,0,1,3.009,3.008h0a3.009,3.009,0,0,1-3.009,3.009Z" fill="#3e3569"/>
      <path id="Trazado_30585" data-name="Trazado 30585" d="M1100.955,7502.389a41.975,41.975,0,0,1-12.338,29.781v0a42.186,42.186,0,1,1,12.338-29.784Z" fill="#8fccd2"/>
      <path id="Trazado_30586" data-name="Trazado 30586" d="M1100.955,7502.389a41.975,41.975,0,0,1-12.338,29.781l-29.781-29.781,41.089-9.293a42.088,42.088,0,0,1,1.03,9.293Z" fill="#fad466"/>
      <path id="Trazado_30587" data-name="Trazado 30587" d="M1100.955,7502.389h-42.119V7460.27a42.12,42.12,0,0,1,42.119,42.119Z" fill="#e83470"/>
    </g>
    <g id="Grupo_21240" data-name="Grupo 21240" transform="translate(0 418.129)">
      <line id="Línea_85" data-name="Línea 85" x2="64.289" transform="translate(512.924 7467.123)" fill="none" stroke="#a4daee" stroke-linecap="round" stroke-linejoin="round" stroke-width="9"/>
      <path id="Trazado_30588" data-name="Trazado 30588" d="M586.825,7469.414l-16.931,8.465a2.562,2.562,0,0,1-3.708-2.291v-16.931a2.562,2.562,0,0,1,3.708-2.291l16.931,8.465A2.562,2.562,0,0,1,586.825,7469.414Z" fill="#a4daee"/>
    </g>
    <g id="Grupo_21241" data-name="Grupo 21241" transform="translate(0 418.129)">
      <line id="Línea_86" data-name="Línea 86" x2="64.289" transform="translate(851.759 7467.123)" fill="none" stroke="#a4daee" stroke-linecap="round" stroke-linejoin="round" stroke-width="9"/>
      <path id="Trazado_30589" data-name="Trazado 30589" d="M925.659,7469.414l-16.931,8.465a2.561,2.561,0,0,1-3.707-2.291v-16.931a2.561,2.561,0,0,1,3.707-2.291l16.931,8.465A2.562,2.562,0,0,1,925.659,7469.414Z" fill="#a4daee"/>
    </g>
  </g>
</svg>
