<svg xmlns="http://www.w3.org/2000/svg" width="138.877" height="119.145" viewBox="0 0 138.877 119.145">
  <g id="Grupo_13658" data-name="Grupo 13658" transform="translate(-186.2 -6037.707)">
    <g id="Grupo_13656" data-name="Grupo 13656">
      <path id="Trazado_13420" data-name="Trazado 13420" d="M315.822,6154.336H195.457a6.724,6.724,0,0,1-5.75-10.21l61.038-100.666a6.723,6.723,0,0,1,11.541.073L321.614,6144.2A6.723,6.723,0,0,1,315.822,6154.336Z" fill="#ffe266"/>
      <path id="Trazado_13421" data-name="Trazado 13421" d="M315.822,6156.852H195.457a9.24,9.24,0,0,1-7.9-14.03l61.037-100.666a9.164,9.164,0,0,1,7.9-4.449h.061a9.167,9.167,0,0,1,7.9,4.548l59.328,100.666a9.24,9.24,0,0,1-7.96,13.931Zm-59.329-114.113a4.173,4.173,0,0,0-3.6,2.026l-61.037,100.666a4.208,4.208,0,0,0,3.6,6.389H315.822a4.207,4.207,0,0,0,3.624-6.344L260.118,6044.81a4.171,4.171,0,0,0-3.6-2.071Z" fill="#666"/>
    </g>
    <g id="Grupo_13657" data-name="Grupo 13657">
      <path id="Trazado_13422" data-name="Trazado 13422" d="M260.562,6098.313a3,3,0,0,1-3-3c0-1.154.675-1.786,1.468-1.786h2.834a1.674,1.674,0,0,1,1.7,1.786,3,3,0,0,1-3,3Zm4.706,4.731c.516-2.074,1.947-2.812,2.008-6.155a13.354,13.354,0,0,0-1.658-7.038,10.627,10.627,0,0,0-3.162-3.428,12.128,12.128,0,0,0-13.643.164,11.305,11.305,0,0,0-3.168,3.422,13.579,13.579,0,0,0-1.818,6.88c-.048,3.347,1.458,4.084,2,6.164a6.263,6.263,0,0,1,.19,1.6,1.427,1.427,0,0,0,1.421,1.422h.653c.59,0,.833.138.95.353.158.283.1.7.354,1.1a2.088,2.088,0,0,0,2.1,1.314h8.107a2.085,2.085,0,0,0,2.1-1.314c.258-.4.2-.815.356-1.1.12-.212.36-.35.948-.35h.653a1.427,1.427,0,0,0,1.423-1.422,6.636,6.636,0,0,1,.181-1.61Zm-9.275-3.542,1.289,2.012c.487.763.334,1.368-.485,1.368h-2.408c-.817,0-.972-.6-.483-1.368l1.289-2.012c.313-.489.484-.489.8,0Zm-4.149-5.974a1.674,1.674,0,0,1,1.7,1.786,3,3,0,0,1-6,0c0-1.154.675-1.786,1.468-1.786Zm0,0" fill="#b3b3b3" fill-rule="evenodd"/>
      <path id="Trazado_13423" data-name="Trazado 13423" d="M245.645,6090.009a11.294,11.294,0,0,1,3.168-3.422l-2.858-2.858a2.85,2.85,0,0,0,1.128-2.572,3.83,3.83,0,0,0-3.5-3.5,3.5,3.5,0,0,0-3.5,3.5,3.5,3.5,0,0,0-3.5,3.5,3.829,3.829,0,0,0,3.5,3.5,2.852,2.852,0,0,0,2.572-1.127Zm0,0" fill="#b3b3b3" fill-rule="evenodd"/>
      <path id="Trazado_13424" data-name="Trazado 13424" d="M271.017,6088.151a3.83,3.83,0,0,0,3.5-3.5,3.5,3.5,0,0,0-3.5-3.5,3.5,3.5,0,0,0-3.5-3.5,3.832,3.832,0,0,0-3.5,3.5,2.85,2.85,0,0,0,1.127,2.572l-2.692,2.694a10.627,10.627,0,0,1,3.162,3.428l2.825-2.827a2.858,2.858,0,0,0,2.574,1.127Zm0,0" fill="#b3b3b3" fill-rule="evenodd"/>
      <path id="Trazado_13425" data-name="Trazado 13425" d="M243.587,6115.583a3.829,3.829,0,0,0,3.5-3.5,2.855,2.855,0,0,0-1.128-2.574l3.086-3.083c-.118-.214-.361-.352-.951-.352h-.653a1.426,1.426,0,0,1-1.42-1.422,6.259,6.259,0,0,0-.191-1.6l-3.165,3.163a2.852,2.852,0,0,0-2.572-1.127,3.831,3.831,0,0,0-3.5,3.5,3.5,3.5,0,0,0,3.5,3.5,3.5,3.5,0,0,0,3.5,3.5Zm0,0" fill="#b3b3b3" fill-rule="evenodd"/>
      <path id="Trazado_13426" data-name="Trazado 13426" d="M267.519,6115.583a3.5,3.5,0,0,0,3.5-3.5,3.5,3.5,0,0,0,3.5-3.5,3.832,3.832,0,0,0-3.5-3.5,2.858,2.858,0,0,0-2.574,1.127l-3.175-3.172a6.636,6.636,0,0,0-.181,1.61,1.427,1.427,0,0,1-1.423,1.422h-.653c-.587,0-.828.138-.948.35l3.085,3.085a2.855,2.855,0,0,0-1.127,2.574,3.832,3.832,0,0,0,3.5,3.5Zm0,0" fill="#b3b3b3" fill-rule="evenodd"/>
      <path id="Trazado_13427" data-name="Trazado 13427" d="M273.84,6105.546a4.385,4.385,0,0,0-2.823-1.228,3.575,3.575,0,0,0-2.57.813l-2.308-2.307a8.849,8.849,0,0,1,.642-1.369,11.451,11.451,0,0,0,.763-1.618.771.771,0,0,0-1.449-.526,10.143,10.143,0,0,1-.67,1.41,7.335,7.335,0,0,0-1.109,3.933.653.653,0,0,1-.652.652h-.653c-1.382,0-1.7.712-1.832,1.409a1.082,1.082,0,0,1-.119.391c-.038.058-.074.115-.11.172a1.241,1.241,0,0,1-1.345.789h-.2v-1.811a.771.771,0,0,0-1.542,0v1.811h-1.537v-1.811a.77.77,0,1,0-1.541,0v1.811h-1.537v-1.811a.771.771,0,0,0-1.542,0v1.811h-.2a1.24,1.24,0,0,1-1.345-.786l-.113-.176a1.078,1.078,0,0,1-.118-.39c-.131-.7-.451-1.409-1.833-1.409h-.653a.66.66,0,0,1-.649-.652,7.1,7.1,0,0,0-1.139-3.9,6.625,6.625,0,0,1-1.051-3.856c.106-7.683,5.306-11.067,9.727-11.631a10.664,10.664,0,0,1,10.6,4.928c.016.03.033.06.052.089a10.988,10.988,0,0,1,1.059,2.571.77.77,0,1,0,1.486-.407,12.705,12.705,0,0,0-.952-2.463l1.876-1.876a3.579,3.579,0,0,0,2.57.812,4.39,4.39,0,0,0,2.823-1.226,4.152,4.152,0,0,0,1.446-3.041,4.275,4.275,0,0,0-3.558-4.209,4.275,4.275,0,0,0-4.209-3.558,4.156,4.156,0,0,0-3.042,1.446,4.389,4.389,0,0,0-1.227,2.823,3.572,3.572,0,0,0,.812,2.568l-1.711,1.711-.109-.066a12.942,12.942,0,0,0-13.327.228l-1.873-1.873a3.572,3.572,0,0,0,.812-2.568,4.389,4.389,0,0,0-1.227-2.823,4.149,4.149,0,0,0-3.04-1.446,4.276,4.276,0,0,0-4.21,3.558,4.275,4.275,0,0,0-3.557,4.209,4.149,4.149,0,0,0,1.446,3.041,4.388,4.388,0,0,0,2.823,1.226,3.568,3.568,0,0,0,2.568-.812l2.032,2.031a14.627,14.627,0,0,0-1.632,6.737,8.1,8.1,0,0,0,1.247,4.629,8.9,8.9,0,0,1,.648,1.33l-2.295,2.293a3.568,3.568,0,0,0-2.568-.812,4.385,4.385,0,0,0-2.823,1.228,4.15,4.15,0,0,0-1.446,3.041,4.276,4.276,0,0,0,3.557,4.21,4.276,4.276,0,0,0,4.21,3.557,4.147,4.147,0,0,0,3.04-1.446,4.39,4.39,0,0,0,1.227-2.823,3.581,3.581,0,0,0-.812-2.57l1.656-1.654c.016.028.032.056.051.085.035.053.068.107.1.16a2.731,2.731,0,0,0,2.648,1.5h8.106a2.733,2.733,0,0,0,2.649-1.508l.1-.156c.019-.029.035-.058.052-.087l1.657,1.657a3.581,3.581,0,0,0-.812,2.57,4.39,4.39,0,0,0,1.227,2.823,4.155,4.155,0,0,0,3.042,1.446,4.275,4.275,0,0,0,4.209-3.557,4.276,4.276,0,0,0,3.558-4.21,4.153,4.153,0,0,0-1.446-3.041Zm-8.147-21.272a.769.769,0,0,0-.023-1.112,2.122,2.122,0,0,1-.879-2,3.1,3.1,0,0,1,2.728-2.727,2.73,2.73,0,0,1,2.727,2.727.771.771,0,0,0,.771.771,2.729,2.729,0,0,1,2.727,2.727,3.1,3.1,0,0,1-2.727,2.726,2.13,2.13,0,0,1-2.008-.88.77.77,0,0,0-1.111-.022l-2.147,2.147a11.3,11.3,0,0,0-2.123-2.287Zm-22.488,2.2a.765.765,0,0,0-.561-.225.774.774,0,0,0-.55.248,2.12,2.12,0,0,1-2,.88,3.1,3.1,0,0,1-2.727-2.726,2.729,2.729,0,0,1,2.727-2.727.771.771,0,0,0,.771-.771,2.729,2.729,0,0,1,2.727-2.727,3.1,3.1,0,0,1,2.725,2.727,2.122,2.122,0,0,1-.879,2,.771.771,0,0,0-.022,1.112l2.238,2.238a11.828,11.828,0,0,0-2.126,2.282Zm2.206,22.488a.772.772,0,0,0,.021,1.112,2.126,2.126,0,0,1,.88,2.007,3.1,3.1,0,0,1-2.725,2.727,2.73,2.73,0,0,1-2.727-2.727.772.772,0,0,0-.771-.771,2.73,2.73,0,0,1-2.727-2.727,3.1,3.1,0,0,1,2.727-2.727,2.123,2.123,0,0,1,2,.878.77.77,0,0,0,1.111.024l2.043-2.041a2.194,2.194,0,0,0,2.189,2.126h.094Zm25.606,2.348a.771.771,0,0,0-.771.771,2.73,2.73,0,0,1-2.727,2.727,3.1,3.1,0,0,1-2.728-2.727,2.129,2.129,0,0,1,.88-2.008.77.77,0,0,0,.022-1.111l-2.119-2.119h.09a2.2,2.2,0,0,0,2.192-2.126l2.042,2.04a.77.77,0,0,0,1.111-.022,2.129,2.129,0,0,1,2.008-.879,3.1,3.1,0,0,1,2.727,2.727,2.73,2.73,0,0,1-2.727,2.727Zm0,0" fill="#4d4d4d"/>
      <path id="Trazado_13428" data-name="Trazado 13428" d="M254.389,6103.653H256.8a1.445,1.445,0,0,0,1.37-.709,1.743,1.743,0,0,0-.236-1.845l-1.289-2.014a1.312,1.312,0,0,0-1.049-.721h0a1.311,1.311,0,0,0-1.046.722l-1.288,2.012a1.741,1.741,0,0,0-.238,1.845,1.443,1.443,0,0,0,1.369.71Zm.166-1.722h0l1.039-1.621,1.038,1.62a1.626,1.626,0,0,1,.1.182h-2.278a1.538,1.538,0,0,1,.1-.18Zm0,0" fill="#4d4d4d"/>
      <path id="Trazado_13429" data-name="Trazado 13429" d="M251.844,6092.757H249.01a2.327,2.327,0,0,0-2.239,2.557,3.771,3.771,0,0,0,7.541,0,2.432,2.432,0,0,0-2.468-2.557Zm-1.3,4.786a2.232,2.232,0,0,1-2.23-2.229c0-.626.268-1.015.7-1.015h2.834a.919.919,0,0,1,.927,1.015,2.232,2.232,0,0,1-2.229,2.229Zm0,0" fill="#4d4d4d"/>
      <path id="Trazado_13430" data-name="Trazado 13430" d="M264.333,6095.314a2.432,2.432,0,0,0-2.469-2.557H259.03a2.328,2.328,0,0,0-2.239,2.557,3.771,3.771,0,0,0,7.542,0Zm-6,0c0-.626.267-1.015.7-1.015h2.834a.919.919,0,0,1,.927,1.015,2.229,2.229,0,1,1-4.458,0Zm0,0" fill="#4d4d4d"/>
      <path id="Trazado_13431" data-name="Trazado 13431" d="M266.505,6096.113v.005a.773.773,0,1,0,0-.005Zm0,0" fill="#4d4d4d"/>
    </g>
    <text id="Riesgo_tóxico" data-name="Riesgo
tóxico" transform="translate(255.639 6130.781)" fill="#4d4d4d" font-size="12.835" font-family="OpenSans-Bold, Open Sans" font-weight="700"><tspan x="-20.775" y="0">Riesgo</tspan><tspan x="-19.7" y="15.401">tóxico</tspan></text>
  </g>
</svg>
