<svg xmlns="http://www.w3.org/2000/svg" width="754.792" height="360.53" viewBox="0 0 754.792 360.53">
  <g id="Grupo_13001" data-name="Grupo 13001" transform="translate(-245.757 -291.008)">
    <g id="Grupo_12975" data-name="Grupo 12975">
      <g id="Grupo_12974" data-name="Grupo 12974">
        <path id="Trazado_8548" data-name="Trazado 8548" d="M366.933,423.193l-6.75,4.5-11.248-2.249-6.749-2.25-9,2.25-6.75-2.25,4.5-9h9l8.819-4.409A64.438,64.438,0,0,1,366.933,423.193Z" fill="#95d6a4"/>
        <path id="Trazado_8549" data-name="Trazado 8549" d="M315.189,414.194l-2.25,6.749-6.749,2.25-6.749,11.249-11.249,6.749-15.748,2.25v6.749l4.5,4.5v9l-6.749-4.5-6.749-4.5-3.915-11.766A65.2,65.2,0,0,1,295.3,407.67l6.389,4.274Z" fill="#95d6a4"/>
        <path id="Trazado_8550" data-name="Trazado 8550" d="M319.689,477.186l-2.25,11.249-9,9v6.749l-9,6.749V522.18l-6.749-2.25-4.5-11.249v-22.5l-11.249-2.25-4.5-9v-6.749l4.5-4.5,6.749-6.749,4.5,9H303.94l6.749,11.249Z" fill="#95d6a4"/>
        <path id="Trazado_8551" data-name="Trazado 8551" d="M376.606,436.309a65.176,65.176,0,0,1-3.6,69.448l-6.074-6.074v-9l-4.5-9-4.5-9v-9l-6.749-4.5-9,2.25-15.748-6.749-2.25-15.748,6.75-6.75h13.5l4.5,6.75,13.5,2.249,13.5-4.5Z" fill="#95d6a4"/>
      </g>
      <path id="Trazado_8552" data-name="Trazado 8552" d="M333.187,425.443l9-2.25,6.749,2.25,11.249,2.249,6.749-4.5a64.278,64.278,0,0,1,9.674,13.116l-.675.382-13.5,4.5-13.5-2.25-4.5-6.749h-13.5l-6.749,6.749,2.249,15.748,15.748,6.749,9-2.25,6.749,4.5v9l4.5,9,4.5,9v9l6.074,6.075a65.242,65.242,0,0,1-113.476-62.835l3.915,11.766,6.749,4.5,6.749,4.5-4.5,4.5v6.749l4.5,9,11.249,2.25v22.5l4.5,11.249,6.749,2.249V510.932l9-6.749v-6.75l9-9,2.25-11.248h-9l-6.75-11.249H288.193l-4.5-9-6.749,6.75v-9l-4.5-4.5v-6.75l15.748-2.249,11.248-6.75,6.749-11.248,6.75-2.25,2.249-6.749-13.5-2.25L295.3,407.67a65.246,65.246,0,0,1,53.453,2.114l-8.819,4.41h-9l-4.5,9Z" fill="#63bcfa"/>
    </g>
    <g id="Grupo_12976" data-name="Grupo 12976">
      <path id="Trazado_8553" data-name="Trazado 8553" d="M268.155,357.65H256.012V338.119h12.143v3.393h-7.673V345.8h7.139v3.393h-7.139v5.036h7.673Z" fill="#63bcfa"/>
      <path id="Trazado_8554" data-name="Trazado 8554" d="M276.953,357.65h-4.4V338.119H284.64v3.393h-7.687v5.037h7.153v3.38h-7.153Z" fill="#63bcfa"/>
      <path id="Trazado_8555" data-name="Trazado 8555" d="M300.908,357.65H288.765V338.119h12.143v3.393h-7.673V345.8h7.139v3.393h-7.139v5.036h7.673Z" fill="#63bcfa"/>
      <path id="Trazado_8556" data-name="Trazado 8556" d="M314.263,341.285a4.689,4.689,0,0,0-3.908,1.757,7.726,7.726,0,0,0-1.385,4.9q0,6.533,5.293,6.533a17.9,17.9,0,0,0,5.38-1.029v3.473a15.993,15.993,0,0,1-5.8,1q-4.6,0-7.038-2.585t-2.437-7.421a11.358,11.358,0,0,1,1.2-5.337,8.274,8.274,0,0,1,3.439-3.513,10.818,10.818,0,0,1,5.257-1.223,15.123,15.123,0,0,1,6.173,1.376l-1.442,3.367a25.351,25.351,0,0,0-2.38-.909A7.617,7.617,0,0,0,314.263,341.285Z" fill="#63bcfa"/>
      <path id="Trazado_8557" data-name="Trazado 8557" d="M332.262,357.65h-4.471V341.566h-5.725v-3.447h15.922v3.447h-5.726Z" fill="#63bcfa"/>
      <path id="Trazado_8558" data-name="Trazado 8558" d="M360.371,347.858q0,4.85-2.6,7.454t-7.442,2.6q-4.845,0-7.442-2.6t-2.6-7.481q0-4.877,2.6-7.448t7.463-2.571q4.86,0,7.435,2.591T360.371,347.858Zm-15.388,0a7.706,7.706,0,0,0,1.341,4.929,4.853,4.853,0,0,0,4.009,1.657q5.35,0,5.351-6.586t-5.322-6.6a4.887,4.887,0,0,0-4.024,1.664A7.674,7.674,0,0,0,344.983,347.858Z" fill="#63bcfa"/>
      <path id="Trazado_8559" data-name="Trazado 8559" d="M377.188,352.226a4.9,4.9,0,0,1-2.056,4.168,9.438,9.438,0,0,1-5.718,1.523,14.35,14.35,0,0,1-5.971-1.175v-3.848a25.927,25.927,0,0,0,3.613,1.243,11.5,11.5,0,0,0,2.7.36,4.076,4.076,0,0,0,2.257-.521,1.737,1.737,0,0,0,.786-1.549,1.623,1.623,0,0,0-.346-1.022,3.756,3.756,0,0,0-1.017-.862,26.981,26.981,0,0,0-2.733-1.323,13.233,13.233,0,0,1-2.9-1.616,6.19,6.19,0,0,1-1.543-1.8,5.317,5.317,0,0,1,1.32-6.48,8.316,8.316,0,0,1,5.243-1.483,13.331,13.331,0,0,1,3.136.361,22.9,22.9,0,0,1,3.123,1.015l-1.443,3.22a22.177,22.177,0,0,0-2.79-.895,9.677,9.677,0,0,0-2.171-.254,3.032,3.032,0,0,0-1.947.548,1.749,1.749,0,0,0-.678,1.429,1.674,1.674,0,0,0,.274.955,2.922,2.922,0,0,0,.873.789,27.9,27.9,0,0,0,2.834,1.369A11.308,11.308,0,0,1,376.092,349,4.875,4.875,0,0,1,377.188,352.226Z" fill="#63bcfa"/>
      <path id="Trazado_8560" data-name="Trazado 8560" d="M254.7,378.361h8.365v10.127a25.269,25.269,0,0,1-3.829.861,26.858,26.858,0,0,1-3.671.247q-4.773,0-7.29-2.6t-2.517-7.461a9.445,9.445,0,0,1,2.921-7.375q2.921-2.645,8.1-2.645a16.738,16.738,0,0,1,6.259,1.2l-1.485,3.313a11.314,11.314,0,0,0-4.8-1.069,6.162,6.162,0,0,0-4.644,1.8,6.673,6.673,0,0,0-1.745,4.849,7.375,7.375,0,0,0,1.406,4.856,5.035,5.035,0,0,0,4.089,1.677,15.592,15.592,0,0,0,2.841-.267v-4.075H254.7Z" fill="#63bcfa"/>
      <path id="Trazado_8561" data-name="Trazado 8561" d="M268.083,389.329V369.8h4.471v16.111h8.552v3.42Z" fill="#63bcfa"/>
      <path id="Trazado_8562" data-name="Trazado 8562" d="M303.908,379.537q0,4.85-2.6,7.454T293.87,389.6q-4.846,0-7.442-2.605t-2.6-7.481q0-4.875,2.6-7.448t7.464-2.571q4.86,0,7.434,2.591T303.908,379.537Zm-15.389,0a7.707,7.707,0,0,0,1.341,4.929,4.854,4.854,0,0,0,4.01,1.657q5.351,0,5.351-6.586t-5.322-6.6a4.887,4.887,0,0,0-4.024,1.664A7.674,7.674,0,0,0,288.519,379.537Z" fill="#63bcfa"/>
      <path id="Trazado_8563" data-name="Trazado 8563" d="M308.278,369.8h6.562q4.485,0,6.512,1.182a4.033,4.033,0,0,1,2.026,3.761,4.491,4.491,0,0,1-.887,2.872,3.589,3.589,0,0,1-2.358,1.349v.134a4.159,4.159,0,0,1,3.778,4.569,4.842,4.842,0,0,1-2.083,4.168,9.539,9.539,0,0,1-5.661,1.5h-7.889Zm4.471,7.735h2.6a5.062,5.062,0,0,0,2.632-.521,1.889,1.889,0,0,0,.815-1.723,1.693,1.693,0,0,0-.887-1.61,6.1,6.1,0,0,0-2.806-.488h-2.35Zm0,3.286v5.09h2.913a4.584,4.584,0,0,0,2.726-.654,2.338,2.338,0,0,0,.88-2q0-2.432-3.75-2.432Z" fill="#63bcfa"/>
      <path id="Trazado_8564" data-name="Trazado 8564" d="M341.031,389.329,339.5,384.68h-7.687l-1.529,4.649h-4.817l7.442-19.611h5.466l7.471,19.611Zm-2.6-8.122q-2.121-6.32-2.387-7.147t-.382-1.31q-.475,1.71-2.726,8.457Z" fill="#63bcfa"/>
      <path id="Trazado_8565" data-name="Trazado 8565" d="M348.5,389.329V369.8h4.471v16.111h8.552v3.42Z" fill="#63bcfa"/>
      <path id="Trazado_8566" data-name="Trazado 8566" d="M377.332,389.329H365.188V369.8h12.144v3.393h-7.673v4.289H376.8v3.393h-7.139v5.036h7.673Z" fill="#63bcfa"/>
      <path id="Trazado_8567" data-name="Trazado 8567" d="M394.177,383.9a4.906,4.906,0,0,1-2.055,4.168A9.432,9.432,0,0,1,386.4,389.6a14.353,14.353,0,0,1-5.971-1.175v-3.848a25.967,25.967,0,0,0,3.613,1.243,11.511,11.511,0,0,0,2.7.36,4.079,4.079,0,0,0,2.258-.521,1.737,1.737,0,0,0,.786-1.549,1.629,1.629,0,0,0-.346-1.022,3.771,3.771,0,0,0-1.017-.862A27,27,0,0,0,385.7,380.9a13.142,13.142,0,0,1-2.9-1.616,6.176,6.176,0,0,1-1.543-1.8,4.834,4.834,0,0,1-.577-2.4,4.89,4.89,0,0,1,1.9-4.075,8.316,8.316,0,0,1,5.243-1.483,13.331,13.331,0,0,1,3.136.361,22.806,22.806,0,0,1,3.123,1.015l-1.442,3.22a22.293,22.293,0,0,0-2.791-.9,9.67,9.67,0,0,0-2.17-.254,3.036,3.036,0,0,0-1.948.548,1.751,1.751,0,0,0-.677,1.429,1.667,1.667,0,0,0,.274.955,2.9,2.9,0,0,0,.872.789,28.012,28.012,0,0,0,2.834,1.369,11.309,11.309,0,0,1,4.053,2.625A4.876,4.876,0,0,1,394.177,383.9Z" fill="#63bcfa"/>
    </g>
    <line id="Línea_22" data-name="Línea 22" y1="138.081" x2="108.002" transform="translate(397.114 329.658)" fill="none" stroke="#8fccd2" stroke-linecap="round" stroke-linejoin="round" stroke-width="3"/>
    <line id="Línea_23" data-name="Línea 23" x1="107.281" y1="151.414" transform="translate(397.114 467.739)" fill="none" stroke="#8fccd2" stroke-linecap="round" stroke-linejoin="round" stroke-width="3"/>
    <line id="Línea_24" data-name="Línea 24" x1="110.216" y1="55.927" transform="translate(397.114 467.739)" fill="none" stroke="#8fccd2" stroke-linecap="round" stroke-linejoin="round" stroke-width="3"/>
    <line id="Línea_25" data-name="Línea 25" x1="105.547" y2="34.739" transform="translate(397.114 432.999)" fill="none" stroke="#8fccd2" stroke-linecap="round" stroke-linejoin="round" stroke-width="3"/>
    <rect id="Rectángulo_4075" data-name="Rectángulo 4075" width="467.138" height="80.87" rx="33.052" transform="translate(533.411 291.008)" fill="#cdea70"/>
    <g id="Grupo_12977" data-name="Grupo 12977">
      <path id="Trazado_8568" data-name="Trazado 8568" d="M605.42,325.8h-8.283V312.237h8.283v1.874h-5.889V317.8h5.519v1.855h-5.519v4.258h5.889Z" fill="#00223d"/>
      <path id="Trazado_8569" data-name="Trazado 8569" d="M610.688,325.8h-2.353V311.365h2.353Z" fill="#00223d"/>
      <path id="Trazado_8570" data-name="Trazado 8570" d="M623.849,325.986a5.059,5.059,0,0,1-3.821-1.359,6.476,6.476,0,0,1,.06-7.881,5.293,5.293,0,0,1,3.951-1.392,7.91,7.91,0,0,1,3.155.6l-.711,1.754a7.6,7.6,0,0,0-2.464-.538q-2.874,0-2.874,3.534a4,4,0,0,0,.716,2.593,2.562,2.562,0,0,0,2.1.868,6.393,6.393,0,0,0,2.975-.724v1.9a4.877,4.877,0,0,1-1.347.492A8.789,8.789,0,0,1,623.849,325.986Z" fill="#00223d"/>
      <path id="Trazado_8571" data-name="Trazado 8571" d="M636.469,325.8,636,324.372h-.08a4.473,4.473,0,0,1-1.612,1.275,5.46,5.46,0,0,1-2.084.339,3.7,3.7,0,0,1-2.549-.816,2.934,2.934,0,0,1-.916-2.31,2.653,2.653,0,0,1,1.272-2.394,7.79,7.79,0,0,1,3.876-.881l1.913-.056v-.547a1.976,1.976,0,0,0-.5-1.471,2.118,2.118,0,0,0-1.537-.487,5.7,5.7,0,0,0-1.633.232,12.792,12.792,0,0,0-1.5.548l-.761-1.559a8.621,8.621,0,0,1,1.973-.664,9.794,9.794,0,0,1,2.023-.227,5.062,5.062,0,0,1,3.19.854,3.216,3.216,0,0,1,1.076,2.681V325.8Zm-3.506-1.485a3.063,3.063,0,0,0,2.059-.663,2.315,2.315,0,0,0,.776-1.86V320.9l-1.422.056a5.181,5.181,0,0,0-2.419.514,1.534,1.534,0,0,0-.756,1.406,1.32,1.32,0,0,0,.44,1.062A1.993,1.993,0,0,0,632.963,324.316Z" fill="#00223d"/>
      <path id="Trazado_8572" data-name="Trazado 8572" d="M643.79,325.8h-2.353V311.365h2.353Z" fill="#00223d"/>
      <path id="Trazado_8573" data-name="Trazado 8573" d="M651.993,325.986a5.6,5.6,0,0,1-4.041-1.4,5.073,5.073,0,0,1-1.457-3.846,5.537,5.537,0,0,1,1.352-3.952,4.856,4.856,0,0,1,3.716-1.438,4.764,4.764,0,0,1,3.465,1.234,4.513,4.513,0,0,1,1.272,3.4v1.178h-7.382a3.226,3.226,0,0,0,.872,2.3,3.169,3.169,0,0,0,2.313.8,9.222,9.222,0,0,0,1.828-.172,10.179,10.179,0,0,0,1.818-.571v1.772a7.6,7.6,0,0,1-1.743.538A11.515,11.515,0,0,1,651.993,325.986Zm-.43-8.98a2.465,2.465,0,0,0-1.8.658,3.016,3.016,0,0,0-.807,1.921h5.028a2.707,2.707,0,0,0-.661-1.926A2.354,2.354,0,0,0,651.563,317.006Z" fill="#00223d"/>
      <path id="Trazado_8574" data-name="Trazado 8574" d="M668.72,325.8h-2.364v-6.309a2.615,2.615,0,0,0-.516-1.772,2.076,2.076,0,0,0-1.637-.584,2.707,2.707,0,0,0-2.184.816,4.251,4.251,0,0,0-.691,2.737V325.8h-2.354V315.54h1.843l.331,1.345h.12a3.213,3.213,0,0,1,1.422-1.132,5.087,5.087,0,0,1,2.043-.4q3.986,0,3.987,3.758Z" fill="#00223d"/>
      <path id="Trazado_8575" data-name="Trazado 8575" d="M676.121,324.223a6.148,6.148,0,0,0,1.723-.25v1.642a5.055,5.055,0,0,1-1.007.264,7.474,7.474,0,0,1-1.277.107q-3.345,0-3.345-3.265v-5.53H670.7v-.965l1.622-.8.8-2.171h1.453v2.282h3.155v1.651h-3.155v5.492a1.475,1.475,0,0,0,.425,1.164A1.625,1.625,0,0,0,676.121,324.223Z" fill="#00223d"/>
      <path id="Trazado_8576" data-name="Trazado 8576" d="M686.988,325.8l-.471-1.429h-.08a4.464,4.464,0,0,1-1.612,1.275,5.458,5.458,0,0,1-2.083.339,3.7,3.7,0,0,1-2.55-.816,2.934,2.934,0,0,1-.916-2.31,2.653,2.653,0,0,1,1.272-2.394,7.79,7.79,0,0,1,3.876-.881l1.913-.056v-.547a1.976,1.976,0,0,0-.5-1.471,2.118,2.118,0,0,0-1.537-.487,5.7,5.7,0,0,0-1.633.232,12.927,12.927,0,0,0-1.5.548l-.761-1.559a8.621,8.621,0,0,1,1.973-.664,9.8,9.8,0,0,1,2.023-.227,5.062,5.062,0,0,1,3.19.854,3.213,3.213,0,0,1,1.077,2.681V325.8Zm-3.505-1.485a3.062,3.062,0,0,0,2.058-.663,2.315,2.315,0,0,0,.776-1.86V320.9l-1.422.056a5.18,5.18,0,0,0-2.419.514,1.534,1.534,0,0,0-.756,1.406,1.318,1.318,0,0,0,.441,1.062A1.99,1.99,0,0,0,683.483,324.316Z" fill="#00223d"/>
      <path id="Trazado_8577" data-name="Trazado 8577" d="M701.291,325.8h-2.364v-6.328a2.716,2.716,0,0,0-.481-1.758,1.841,1.841,0,0,0-1.5-.579,2.369,2.369,0,0,0-2,.82,4.537,4.537,0,0,0-.636,2.733V325.8h-2.354V315.54H693.8l.33,1.345h.12a3,3,0,0,1,1.338-1.132,4.6,4.6,0,0,1,1.928-.4q2.553,0,3.385,1.615h.16a3.289,3.289,0,0,1,1.382-1.188,4.672,4.672,0,0,1,2.044-.427,3.284,3.284,0,0,1,3.8,3.758V325.8h-2.354v-6.328a2.692,2.692,0,0,0-.486-1.758,1.857,1.857,0,0,0-1.507-.579,2.418,2.418,0,0,0-2.008.793,3.856,3.856,0,0,0-.636,2.435Z" fill="#00223d"/>
      <path id="Trazado_8578" data-name="Trazado 8578" d="M711.427,312.822a1.157,1.157,0,0,1,.345-.9,1.409,1.409,0,0,1,.987-.316,1.376,1.376,0,0,1,.966.316,1.157,1.157,0,0,1,.346.9,1.136,1.136,0,0,1-.346.876,1.368,1.368,0,0,1-.966.32,1.4,1.4,0,0,1-.987-.32A1.135,1.135,0,0,1,711.427,312.822Zm2.494,12.979h-2.354V315.54h2.354Z" fill="#00223d"/>
      <path id="Trazado_8579" data-name="Trazado 8579" d="M722.123,325.986a5.6,5.6,0,0,1-4.041-1.4,5.073,5.073,0,0,1-1.457-3.846,5.537,5.537,0,0,1,1.352-3.952,4.856,4.856,0,0,1,3.716-1.438,4.764,4.764,0,0,1,3.465,1.234,4.513,4.513,0,0,1,1.272,3.4v1.178h-7.382a3.226,3.226,0,0,0,.872,2.3,3.169,3.169,0,0,0,2.313.8,9.221,9.221,0,0,0,1.828-.172,10.178,10.178,0,0,0,1.818-.571v1.772a7.606,7.606,0,0,1-1.742.538A11.536,11.536,0,0,1,722.123,325.986Zm-.43-8.98a2.467,2.467,0,0,0-1.8.658,3.016,3.016,0,0,0-.807,1.921h5.029a2.712,2.712,0,0,0-.662-1.926A2.354,2.354,0,0,0,721.693,317.006Z" fill="#00223d"/>
      <path id="Trazado_8580" data-name="Trazado 8580" d="M738.849,325.8h-2.363v-6.309a2.614,2.614,0,0,0-.516-1.772,2.077,2.077,0,0,0-1.638-.584,2.708,2.708,0,0,0-2.183.816,4.251,4.251,0,0,0-.691,2.737V325.8H729.1V315.54h1.843l.331,1.345h.12a3.219,3.219,0,0,1,1.422-1.132,5.09,5.09,0,0,1,2.043-.4q3.987,0,3.986,3.758Z" fill="#00223d"/>
      <path id="Trazado_8581" data-name="Trazado 8581" d="M746.251,324.223a6.143,6.143,0,0,0,1.723-.25v1.642a5.055,5.055,0,0,1-1.007.264,7.474,7.474,0,0,1-1.277.107q-3.345,0-3.345-3.265v-5.53h-1.512v-.965l1.622-.8.8-2.171h1.453v2.282h3.155v1.651h-3.155v5.492a1.472,1.472,0,0,0,.425,1.164A1.624,1.624,0,0,0,746.251,324.223Z" fill="#00223d"/>
      <path id="Trazado_8582" data-name="Trazado 8582" d="M760.013,320.652a5.34,5.34,0,0,1-1.393,3.924,5.2,5.2,0,0,1-3.875,1.41,5.644,5.644,0,0,1-2.745-.649,4.432,4.432,0,0,1-1.833-1.865,5.963,5.963,0,0,1-.641-2.82,5.307,5.307,0,0,1,1.383-3.9,5.226,5.226,0,0,1,3.9-1.4,5.083,5.083,0,0,1,3.806,1.433A5.293,5.293,0,0,1,760.013,320.652Zm-8.063,0q0,3.552,2.835,3.553,2.8,0,2.8-3.553,0-3.518-2.824-3.516a2.485,2.485,0,0,0-2.149.909A4.36,4.36,0,0,0,751.95,320.652Z" fill="#00223d"/>
      <path id="Trazado_8583" data-name="Trazado 8583" d="M777.4,315.54v1.2l-1.893.324a2.772,2.772,0,0,1,.431.8,3.177,3.177,0,0,1-1.012,3.5,5.22,5.22,0,0,1-3.255.909,5.742,5.742,0,0,1-.962-.074,1.23,1.23,0,0,0-.761,1.02.566.566,0,0,0,.356.529,3.286,3.286,0,0,0,1.307.176h1.933a4.546,4.546,0,0,1,2.784.724,2.461,2.461,0,0,1,.952,2.087,2.986,2.986,0,0,1-1.553,2.691,8.7,8.7,0,0,1-4.487.946,6.592,6.592,0,0,1-3.455-.742,2.354,2.354,0,0,1-1.192-2.115,2.16,2.16,0,0,1,.646-1.592,3.557,3.557,0,0,1,1.808-.895,1.735,1.735,0,0,1-.776-.6,1.457,1.457,0,0,1,.045-1.842,3.994,3.994,0,0,1,1.041-.788,3.034,3.034,0,0,1-1.4-1.118,3.443,3.443,0,0,1,.6-4.4,5.035,5.035,0,0,1,3.24-.919,8.554,8.554,0,0,1,.987.06,6.648,6.648,0,0,1,.776.126ZM768.7,327.4a1.189,1.189,0,0,0,.686,1.086,4.029,4.029,0,0,0,1.928.38,6.228,6.228,0,0,0,2.865-.51,1.525,1.525,0,0,0,.942-1.355,1,1,0,0,0-.517-.951,4.441,4.441,0,0,0-1.918-.283H770.9a2.644,2.644,0,0,0-1.608.441A1.406,1.406,0,0,0,768.7,327.4Zm1.012-8.535a1.976,1.976,0,0,0,.536,1.485,2.119,2.119,0,0,0,1.537.519,1.8,1.8,0,0,0,2.043-2.022,2.182,2.182,0,0,0-.505-1.545,2.006,2.006,0,0,0-1.538-.543,2.066,2.066,0,0,0-1.547.538A2.154,2.154,0,0,0,769.708,318.861Z" fill="#00223d"/>
      <path id="Trazado_8584" data-name="Trazado 8584" d="M781.807,325.8h-2.354V311.365h2.354Z" fill="#00223d"/>
      <path id="Trazado_8585" data-name="Trazado 8585" d="M795,320.652a5.34,5.34,0,0,1-1.393,3.924,5.2,5.2,0,0,1-3.876,1.41,5.643,5.643,0,0,1-2.744-.649,4.426,4.426,0,0,1-1.833-1.865,5.963,5.963,0,0,1-.641-2.82,5.311,5.311,0,0,1,1.382-3.9,5.228,5.228,0,0,1,3.9-1.4,5.084,5.084,0,0,1,3.807,1.433A5.293,5.293,0,0,1,795,320.652Zm-8.063,0q0,3.552,2.834,3.553,2.8,0,2.8-3.553,0-3.518-2.825-3.516a2.484,2.484,0,0,0-2.148.909A4.36,4.36,0,0,0,786.935,320.652Z" fill="#00223d"/>
      <path id="Trazado_8586" data-name="Trazado 8586" d="M803.361,315.354a3.968,3.968,0,0,1,3.23,1.392,7.17,7.17,0,0,1-.015,7.834,4.488,4.488,0,0,1-6.52.005H799.9l-.43,1.216H797.7V311.365h2.354V314.8c0,.253-.014.631-.041,1.131s-.046.82-.06.956h.1A3.837,3.837,0,0,1,803.361,315.354Zm-.611,1.782a2.484,2.484,0,0,0-2.048.774,4.242,4.242,0,0,0-.646,2.593v.149a4.511,4.511,0,0,0,.641,2.713,2.466,2.466,0,0,0,2.093.84,2.172,2.172,0,0,0,1.9-.919,4.58,4.58,0,0,0,.646-2.653Q805.334,317.137,802.75,317.136Z" fill="#00223d"/>
      <path id="Trazado_8587" data-name="Trazado 8587" d="M817.413,325.8l-.471-1.429h-.08a4.466,4.466,0,0,1-1.613,1.275,5.451,5.451,0,0,1-2.083.339,3.7,3.7,0,0,1-2.549-.816,2.934,2.934,0,0,1-.916-2.31,2.653,2.653,0,0,1,1.272-2.394,7.789,7.789,0,0,1,3.876-.881l1.913-.056v-.547a1.976,1.976,0,0,0-.5-1.471,2.119,2.119,0,0,0-1.537-.487,5.7,5.7,0,0,0-1.633.232,12.862,12.862,0,0,0-1.5.548l-.762-1.559a8.63,8.63,0,0,1,1.974-.664,9.793,9.793,0,0,1,2.023-.227,5.062,5.062,0,0,1,3.19.854,3.216,3.216,0,0,1,1.077,2.681V325.8Zm-3.506-1.485a3.063,3.063,0,0,0,2.059-.663,2.315,2.315,0,0,0,.776-1.86V320.9l-1.422.056a5.181,5.181,0,0,0-2.419.514,1.532,1.532,0,0,0-.757,1.406,1.318,1.318,0,0,0,.441,1.062A1.993,1.993,0,0,0,813.907,324.316Z" fill="#00223d"/>
      <path id="Trazado_8588" data-name="Trazado 8588" d="M824.734,325.8h-2.353V311.365h2.353Z" fill="#00223d"/>
      <path id="Trazado_8589" data-name="Trazado 8589" d="M843.253,320.652a5.344,5.344,0,0,1-1.392,3.924,5.2,5.2,0,0,1-3.876,1.41,5.643,5.643,0,0,1-2.744-.649,4.426,4.426,0,0,1-1.833-1.865,5.963,5.963,0,0,1-.641-2.82,5.311,5.311,0,0,1,1.382-3.9,5.228,5.228,0,0,1,3.9-1.4,5.082,5.082,0,0,1,3.806,1.433A5.289,5.289,0,0,1,843.253,320.652Zm-8.062,0q0,3.552,2.834,3.553,2.8,0,2.8-3.553,0-3.518-2.824-3.516a2.484,2.484,0,0,0-2.148.909A4.361,4.361,0,0,0,835.191,320.652Z" fill="#00223d"/>
      <path id="Trazado_8590" data-name="Trazado 8590" d="M851.146,312.822a1.157,1.157,0,0,1,.345-.9,1.412,1.412,0,0,1,.987-.316,1.376,1.376,0,0,1,.966.316,1.154,1.154,0,0,1,.346.9,1.132,1.132,0,0,1-.346.876,1.368,1.368,0,0,1-.966.32,1.4,1.4,0,0,1-.987-.32A1.135,1.135,0,0,1,851.146,312.822ZM853.64,325.8h-2.354V315.54h2.354Z" fill="#00223d"/>
      <path id="Trazado_8591" data-name="Trazado 8591" d="M866.75,325.8h-2.363v-6.309a2.614,2.614,0,0,0-.516-1.772,2.077,2.077,0,0,0-1.638-.584,2.706,2.706,0,0,0-2.183.816,4.251,4.251,0,0,0-.691,2.737V325.8h-2.354V315.54h1.843l.331,1.345h.12a3.208,3.208,0,0,1,1.422-1.132,5.087,5.087,0,0,1,2.043-.4q3.987,0,3.986,3.758Z" fill="#00223d"/>
      <path id="Trazado_8592" data-name="Trazado 8592" d="M874.493,325.986a5.062,5.062,0,0,1-3.822-1.359,6.474,6.474,0,0,1,.061-7.881,5.291,5.291,0,0,1,3.951-1.392,7.914,7.914,0,0,1,3.155.6l-.711,1.754a7.6,7.6,0,0,0-2.464-.538q-2.876,0-2.875,3.534a4,4,0,0,0,.716,2.593,2.564,2.564,0,0,0,2.1.868,6.389,6.389,0,0,0,2.974-.724v1.9a4.866,4.866,0,0,1-1.347.492A8.779,8.779,0,0,1,874.493,325.986Z" fill="#00223d"/>
      <path id="Trazado_8593" data-name="Trazado 8593" d="M885.8,315.354a6.093,6.093,0,0,1,1.172.093l-.23,2.032a4.808,4.808,0,0,0-1.042-.112,3.143,3.143,0,0,0-2.289.854,2.958,2.958,0,0,0-.876,2.217V325.8h-2.354V315.54h1.843l.311,1.809h.12a4.2,4.2,0,0,1,1.437-1.457A3.619,3.619,0,0,1,885.8,315.354Z" fill="#00223d"/>
      <path id="Trazado_8594" data-name="Trazado 8594" d="M893.863,325.986a5.6,5.6,0,0,1-4.041-1.4,5.073,5.073,0,0,1-1.458-3.846,5.541,5.541,0,0,1,1.352-3.952,4.857,4.857,0,0,1,3.716-1.438,4.766,4.766,0,0,1,3.466,1.234,4.516,4.516,0,0,1,1.272,3.4v1.178h-7.382a3.221,3.221,0,0,0,.872,2.3,3.169,3.169,0,0,0,2.313.8,9.229,9.229,0,0,0,1.828-.172,10.179,10.179,0,0,0,1.818-.571v1.772a7.628,7.628,0,0,1-1.743.538A11.531,11.531,0,0,1,893.863,325.986Zm-.431-8.98a2.467,2.467,0,0,0-1.8.658,3.021,3.021,0,0,0-.806,1.921h5.028a2.711,2.711,0,0,0-.661-1.926A2.356,2.356,0,0,0,893.432,317.006Z" fill="#00223d"/>
      <path id="Trazado_8595" data-name="Trazado 8595" d="M910.179,325.8h-2.364v-6.328a2.716,2.716,0,0,0-.481-1.758,1.841,1.841,0,0,0-1.5-.579,2.37,2.37,0,0,0-2,.82,4.545,4.545,0,0,0-.635,2.733V325.8h-2.354V315.54h1.843l.33,1.345h.12a2.993,2.993,0,0,1,1.337-1.132,4.6,4.6,0,0,1,1.928-.4q2.555,0,3.386,1.615h.16a3.289,3.289,0,0,1,1.382-1.188,4.667,4.667,0,0,1,2.043-.427,3.283,3.283,0,0,1,3.8,3.758V325.8h-2.353v-6.328a2.692,2.692,0,0,0-.486-1.758,1.857,1.857,0,0,0-1.507-.579,2.422,2.422,0,0,0-2.009.793,3.856,3.856,0,0,0-.635,2.435Z" fill="#00223d"/>
      <path id="Trazado_8596" data-name="Trazado 8596" d="M925.292,325.986a5.6,5.6,0,0,1-4.041-1.4,5.074,5.074,0,0,1-1.458-3.846,5.537,5.537,0,0,1,1.353-3.952,4.855,4.855,0,0,1,3.715-1.438,4.765,4.765,0,0,1,3.466,1.234,4.513,4.513,0,0,1,1.272,3.4v1.178h-7.382a3.226,3.226,0,0,0,.872,2.3,3.169,3.169,0,0,0,2.313.8,9.221,9.221,0,0,0,1.828-.172,10.176,10.176,0,0,0,1.818-.571v1.772a7.6,7.6,0,0,1-1.743.538A11.515,11.515,0,0,1,925.292,325.986Zm-.431-8.98a2.464,2.464,0,0,0-1.8.658,3.016,3.016,0,0,0-.807,1.921h5.028a2.711,2.711,0,0,0-.661-1.926A2.354,2.354,0,0,0,924.861,317.006Z" fill="#00223d"/>
      <path id="Trazado_8597" data-name="Trazado 8597" d="M942.018,325.8h-2.363v-6.309a2.615,2.615,0,0,0-.516-1.772,2.077,2.077,0,0,0-1.638-.584,2.706,2.706,0,0,0-2.183.816,4.251,4.251,0,0,0-.691,2.737V325.8h-2.354V315.54h1.843l.331,1.345h.12a3.213,3.213,0,0,1,1.422-1.132,5.087,5.087,0,0,1,2.043-.4q3.987,0,3.986,3.758Z" fill="#00223d"/>
      <path id="Trazado_8598" data-name="Trazado 8598" d="M949.42,324.223a6.148,6.148,0,0,0,1.723-.25v1.642a5.055,5.055,0,0,1-1.007.264,7.483,7.483,0,0,1-1.277.107q-3.345,0-3.345-3.265v-5.53H944v-.965l1.622-.8.8-2.171h1.453v2.282h3.155v1.651h-3.155v5.492a1.472,1.472,0,0,0,.425,1.164A1.624,1.624,0,0,0,949.42,324.223Z" fill="#00223d"/>
      <path id="Trazado_8599" data-name="Trazado 8599" d="M963.182,320.652a5.34,5.34,0,0,1-1.393,3.924,5.2,5.2,0,0,1-3.876,1.41,5.643,5.643,0,0,1-2.744-.649,4.432,4.432,0,0,1-1.833-1.865,5.963,5.963,0,0,1-.641-2.82,5.307,5.307,0,0,1,1.383-3.9,5.225,5.225,0,0,1,3.9-1.4,5.079,5.079,0,0,1,3.8,1.433A5.289,5.289,0,0,1,963.182,320.652Zm-8.063,0q0,3.552,2.834,3.553,2.8,0,2.8-3.553,0-3.518-2.825-3.516a2.484,2.484,0,0,0-2.148.909A4.361,4.361,0,0,0,955.119,320.652Z" fill="#00223d"/>
      <path id="Trazado_8600" data-name="Trazado 8600" d="M639.934,349.986A3.986,3.986,0,0,1,636.7,348.6a7.146,7.146,0,0,1,.015-7.835,4.022,4.022,0,0,1,3.26-1.406,3.931,3.931,0,0,1,3.326,1.494h.12a12.081,12.081,0,0,1-.171-1.744v-3.739h2.364V349.8H643.77l-.41-1.346h-.111A3.862,3.862,0,0,1,639.934,349.986Zm.631-1.763a2.671,2.671,0,0,0,2.114-.756,3.772,3.772,0,0,0,.681-2.454v-.306a4.336,4.336,0,0,0-.681-2.755,2.627,2.627,0,0,0-2.134-.816,2.214,2.214,0,0,0-1.913.932,4.5,4.5,0,0,0-.671,2.658,4.388,4.388,0,0,0,.651,2.6A2.257,2.257,0,0,0,640.565,348.223Z" fill="#00223d"/>
      <path id="Trazado_8601" data-name="Trazado 8601" d="M653.816,349.986a5.6,5.6,0,0,1-4.041-1.4,5.073,5.073,0,0,1-1.458-3.846,5.537,5.537,0,0,1,1.353-3.952,4.853,4.853,0,0,1,3.715-1.438,4.764,4.764,0,0,1,3.466,1.234,4.513,4.513,0,0,1,1.272,3.4v1.178h-7.382a3.226,3.226,0,0,0,.872,2.3,3.169,3.169,0,0,0,2.313.8,9.229,9.229,0,0,0,1.828-.172,10.179,10.179,0,0,0,1.818-.571v1.772a7.613,7.613,0,0,1-1.743.538A11.523,11.523,0,0,1,653.816,349.986Zm-.431-8.98a2.464,2.464,0,0,0-1.8.658,3.016,3.016,0,0,0-.807,1.921h5.028a2.711,2.711,0,0,0-.661-1.926A2.354,2.354,0,0,0,653.385,341.006Z" fill="#00223d"/>
      <path id="Trazado_8602" data-name="Trazado 8602" d="M668.479,349.8h-2.354V335.365h2.354Z" fill="#00223d"/>
      <path id="Trazado_8603" data-name="Trazado 8603" d="M678.775,349.8l-.47-1.429h-.081a4.464,4.464,0,0,1-1.612,1.275,5.458,5.458,0,0,1-2.083.339,3.7,3.7,0,0,1-2.549-.816,2.935,2.935,0,0,1-.917-2.31,2.653,2.653,0,0,1,1.272-2.394,7.789,7.789,0,0,1,3.876-.881l1.913-.056v-.547a1.976,1.976,0,0,0-.5-1.471,2.116,2.116,0,0,0-1.537-.487,5.7,5.7,0,0,0-1.633.232,12.927,12.927,0,0,0-1.5.548l-.761-1.559a8.621,8.621,0,0,1,1.973-.664,9.8,9.8,0,0,1,2.023-.227,5.062,5.062,0,0,1,3.19.854,3.213,3.213,0,0,1,1.077,2.681V349.8Zm-3.505-1.485a3.062,3.062,0,0,0,2.058-.663,2.315,2.315,0,0,0,.776-1.86V344.9l-1.422.056a5.184,5.184,0,0,0-2.419.514,1.533,1.533,0,0,0-.756,1.406,1.318,1.318,0,0,0,.441,1.062A1.992,1.992,0,0,0,675.27,348.316Z" fill="#00223d"/>
      <path id="Trazado_8604" data-name="Trazado 8604" d="M693.2,348.223a6.149,6.149,0,0,0,1.723-.25v1.642a5.057,5.057,0,0,1-1.007.264,7.483,7.483,0,0,1-1.277.107q-3.345,0-3.345-3.265v-5.53h-1.513v-.965l1.623-.8.8-2.171h1.452v2.282h3.155v1.651h-3.155v5.492a1.472,1.472,0,0,0,.426,1.164A1.624,1.624,0,0,0,693.2,348.223Z" fill="#00223d"/>
      <path id="Trazado_8605" data-name="Trazado 8605" d="M701.972,349.986a5.6,5.6,0,0,1-4.042-1.4,5.077,5.077,0,0,1-1.457-3.846,5.541,5.541,0,0,1,1.352-3.952,4.856,4.856,0,0,1,3.716-1.438,4.763,4.763,0,0,1,3.465,1.234,4.512,4.512,0,0,1,1.272,3.4v1.178H698.9a3.225,3.225,0,0,0,.871,2.3,3.173,3.173,0,0,0,2.314.8,9.235,9.235,0,0,0,1.828-.172,10.143,10.143,0,0,0,1.817-.571v1.772a7.6,7.6,0,0,1-1.742.538A11.532,11.532,0,0,1,701.972,349.986Zm-.431-8.98a2.467,2.467,0,0,0-1.8.658,3.016,3.016,0,0,0-.806,1.921h5.028a2.716,2.716,0,0,0-.661-1.926A2.356,2.356,0,0,0,701.541,341.006Z" fill="#00223d"/>
      <path id="Trazado_8606" data-name="Trazado 8606" d="M718.287,349.8h-2.364v-6.328a2.716,2.716,0,0,0-.48-1.758,1.845,1.845,0,0,0-1.5-.579,2.369,2.369,0,0,0-2,.82,4.537,4.537,0,0,0-.636,2.733V349.8h-2.353V339.54h1.842l.331,1.345h.12a2.993,2.993,0,0,1,1.337-1.132,4.6,4.6,0,0,1,1.928-.4q2.555,0,3.386,1.615h.16a3.288,3.288,0,0,1,1.382-1.188,4.667,4.667,0,0,1,2.043-.427,3.283,3.283,0,0,1,3.8,3.758V349.8h-2.354v-6.328a2.692,2.692,0,0,0-.485-1.758,1.859,1.859,0,0,0-1.507-.579,2.42,2.42,0,0,0-2.009.793,3.856,3.856,0,0,0-.636,2.435Z" fill="#00223d"/>
      <path id="Trazado_8607" data-name="Trazado 8607" d="M734.182,349.986a4.007,4.007,0,0,1-3.265-1.4h-.14q.14,1.3.14,1.577v4.2h-2.354V339.54h1.9q.081.288.331,1.373h.12a3.78,3.78,0,0,1,3.3-1.559,3.972,3.972,0,0,1,3.231,1.392,7.153,7.153,0,0,1-.021,7.83A4,4,0,0,1,734.182,349.986Zm-.571-8.85a2.544,2.544,0,0,0-2.048.76,3.726,3.726,0,0,0-.646,2.431v.325a4.519,4.519,0,0,0,.641,2.713,2.466,2.466,0,0,0,2.093.84,2.172,2.172,0,0,0,1.883-.928,4.51,4.51,0,0,0,.661-2.644,4.362,4.362,0,0,0-.656-2.612A2.249,2.249,0,0,0,733.611,341.136Z" fill="#00223d"/>
      <path id="Trazado_8608" data-name="Trazado 8608" d="M746.181,349.986a5.6,5.6,0,0,1-4.041-1.4,5.074,5.074,0,0,1-1.458-3.846,5.537,5.537,0,0,1,1.353-3.952,4.853,4.853,0,0,1,3.715-1.438,4.764,4.764,0,0,1,3.466,1.234,4.512,4.512,0,0,1,1.272,3.4v1.178h-7.382a3.229,3.229,0,0,0,.871,2.3,3.173,3.173,0,0,0,2.314.8,9.229,9.229,0,0,0,1.828-.172,10.179,10.179,0,0,0,1.818-.571v1.772a7.6,7.6,0,0,1-1.743.538A11.523,11.523,0,0,1,746.181,349.986Zm-.431-8.98a2.463,2.463,0,0,0-1.8.658,3.016,3.016,0,0,0-.807,1.921h5.028a2.711,2.711,0,0,0-.661-1.926A2.354,2.354,0,0,0,745.75,341.006Z" fill="#00223d"/>
      <path id="Trazado_8609" data-name="Trazado 8609" d="M758.781,339.354a6.1,6.1,0,0,1,1.172.093l-.231,2.032a4.8,4.8,0,0,0-1.041-.112,3.141,3.141,0,0,0-2.289.854,2.955,2.955,0,0,0-.877,2.217V349.8h-2.353V339.54h1.843l.31,1.809h.12a4.215,4.215,0,0,1,1.438-1.457A3.617,3.617,0,0,1,758.781,339.354Z" fill="#00223d"/>
      <path id="Trazado_8610" data-name="Trazado 8610" d="M768.937,349.8l-.471-1.429h-.08a4.474,4.474,0,0,1-1.613,1.275,5.454,5.454,0,0,1-2.083.339,3.7,3.7,0,0,1-2.549-.816,2.935,2.935,0,0,1-.917-2.31,2.653,2.653,0,0,1,1.272-2.394,7.8,7.8,0,0,1,3.876-.881l1.914-.056v-.547a1.98,1.98,0,0,0-.5-1.471,2.12,2.12,0,0,0-1.538-.487,5.688,5.688,0,0,0-1.632.232,12.8,12.8,0,0,0-1.5.548l-.762-1.559a8.637,8.637,0,0,1,1.973-.664,9.809,9.809,0,0,1,2.023-.227,5.065,5.065,0,0,1,3.191.854,3.216,3.216,0,0,1,1.076,2.681V349.8Zm-3.506-1.485a3.059,3.059,0,0,0,2.058-.663,2.312,2.312,0,0,0,.776-1.86V344.9l-1.422.056a5.179,5.179,0,0,0-2.418.514,1.532,1.532,0,0,0-.757,1.406,1.318,1.318,0,0,0,.441,1.062A1.993,1.993,0,0,0,765.431,348.316Z" fill="#00223d"/>
      <path id="Trazado_8611" data-name="Trazado 8611" d="M778.031,348.223a6.149,6.149,0,0,0,1.723-.25v1.642a5.057,5.057,0,0,1-1.007.264,7.483,7.483,0,0,1-1.277.107q-3.345,0-3.345-3.265v-5.53h-1.513v-.965l1.623-.8.8-2.171h1.453v2.282h3.154v1.651h-3.154v5.492a1.472,1.472,0,0,0,.425,1.164A1.624,1.624,0,0,0,778.031,348.223Z" fill="#00223d"/>
      <path id="Trazado_8612" data-name="Trazado 8612" d="M789.779,349.8l-.33-1.346h-.12a3.284,3.284,0,0,1-1.4,1.123,4.994,4.994,0,0,1-2.069.408,4.259,4.259,0,0,1-3-.928,3.671,3.671,0,0,1-.992-2.811V339.54h2.374v6.327a2.593,2.593,0,0,0,.521,1.767,2.069,2.069,0,0,0,1.632.589,2.7,2.7,0,0,0,2.179-.821,4.272,4.272,0,0,0,.7-2.75V339.54h2.363V349.8Z" fill="#00223d"/>
      <path id="Trazado_8613" data-name="Trazado 8613" d="M800.606,339.354a6.093,6.093,0,0,1,1.172.093l-.23,2.032a4.8,4.8,0,0,0-1.042-.112,3.14,3.14,0,0,0-2.288.854,2.955,2.955,0,0,0-.877,2.217V349.8h-2.353V339.54h1.842l.311,1.809h.12a4.2,4.2,0,0,1,1.437-1.457A3.619,3.619,0,0,1,800.606,339.354Z" fill="#00223d"/>
      <path id="Trazado_8614" data-name="Trazado 8614" d="M810.762,349.8l-.47-1.429h-.081a4.464,4.464,0,0,1-1.612,1.275,5.456,5.456,0,0,1-2.084.339,3.7,3.7,0,0,1-2.548-.816,2.935,2.935,0,0,1-.917-2.31,2.653,2.653,0,0,1,1.272-2.394,7.789,7.789,0,0,1,3.876-.881l1.913-.056v-.547a1.98,1.98,0,0,0-.495-1.471,2.122,2.122,0,0,0-1.538-.487,5.688,5.688,0,0,0-1.632.232,12.877,12.877,0,0,0-1.5.548l-.761-1.559a8.637,8.637,0,0,1,1.973-.664,9.808,9.808,0,0,1,2.023-.227,5.062,5.062,0,0,1,3.19.854,3.213,3.213,0,0,1,1.077,2.681V349.8Zm-3.505-1.485a3.062,3.062,0,0,0,2.058-.663,2.315,2.315,0,0,0,.776-1.86V344.9l-1.422.056a5.181,5.181,0,0,0-2.419.514,1.533,1.533,0,0,0-.756,1.406,1.318,1.318,0,0,0,.441,1.062A1.99,1.99,0,0,0,807.257,348.316Z" fill="#00223d"/>
      <path id="Trazado_8615" data-name="Trazado 8615" d="M824.794,349.986a3.986,3.986,0,0,1-3.235-1.391,7.146,7.146,0,0,1,.015-7.835,4.023,4.023,0,0,1,3.26-1.406,3.931,3.931,0,0,1,3.326,1.494h.12a12.047,12.047,0,0,1-.17-1.744v-3.739h2.363V349.8H828.63l-.41-1.346h-.11A3.865,3.865,0,0,1,824.794,349.986Zm.631-1.763a2.671,2.671,0,0,0,2.114-.756,3.772,3.772,0,0,0,.681-2.454v-.306a4.336,4.336,0,0,0-.681-2.755,2.627,2.627,0,0,0-2.134-.816,2.215,2.215,0,0,0-1.913.932,4.5,4.5,0,0,0-.671,2.658,4.389,4.389,0,0,0,.651,2.6A2.257,2.257,0,0,0,825.425,348.223Z" fill="#00223d"/>
      <path id="Trazado_8616" data-name="Trazado 8616" d="M838.676,349.986a5.6,5.6,0,0,1-4.041-1.4,5.073,5.073,0,0,1-1.457-3.846,5.537,5.537,0,0,1,1.352-3.952,4.855,4.855,0,0,1,3.715-1.438,4.764,4.764,0,0,1,3.466,1.234,4.512,4.512,0,0,1,1.272,3.4v1.178H835.6a3.225,3.225,0,0,0,.872,2.3,3.169,3.169,0,0,0,2.313.8,9.222,9.222,0,0,0,1.828-.172,10.179,10.179,0,0,0,1.818-.571v1.772a7.6,7.6,0,0,1-1.743.538A11.516,11.516,0,0,1,838.676,349.986Zm-.431-8.98a2.463,2.463,0,0,0-1.8.658,3.017,3.017,0,0,0-.807,1.921h5.028a2.711,2.711,0,0,0-.661-1.926A2.354,2.354,0,0,0,838.245,341.006Z" fill="#00223d"/>
      <path id="Trazado_8617" data-name="Trazado 8617" d="M848.011,349.8h-2.354V335.365h2.354Z" fill="#00223d"/>
      <path id="Trazado_8618" data-name="Trazado 8618" d="M862.323,349.986a4.005,4.005,0,0,1-3.265-1.4h-.14q.139,1.3.14,1.577v4.2H856.7V339.54h1.9q.081.288.331,1.373h.12a3.78,3.78,0,0,1,3.3-1.559,3.968,3.968,0,0,1,3.23,1.392,7.151,7.151,0,0,1-.02,7.83A4,4,0,0,1,862.323,349.986Zm-.571-8.85a2.544,2.544,0,0,0-2.048.76,3.726,3.726,0,0,0-.646,2.431v.325a4.519,4.519,0,0,0,.641,2.713,2.466,2.466,0,0,0,2.093.84,2.172,2.172,0,0,0,1.883-.928,4.509,4.509,0,0,0,.661-2.644,4.355,4.355,0,0,0-.656-2.612A2.249,2.249,0,0,0,861.752,341.136Z" fill="#00223d"/>
      <path id="Trazado_8619" data-name="Trazado 8619" d="M871.838,349.8h-2.354V335.365h2.354Z" fill="#00223d"/>
      <path id="Trazado_8620" data-name="Trazado 8620" d="M882.134,349.8l-.47-1.429h-.081a4.464,4.464,0,0,1-1.612,1.275,5.454,5.454,0,0,1-2.083.339,3.7,3.7,0,0,1-2.549-.816,2.935,2.935,0,0,1-.917-2.31,2.653,2.653,0,0,1,1.272-2.394,7.79,7.79,0,0,1,3.876-.881l1.913-.056v-.547a1.98,1.98,0,0,0-.495-1.471,2.122,2.122,0,0,0-1.538-.487,5.688,5.688,0,0,0-1.632.232,12.877,12.877,0,0,0-1.5.548l-.761-1.559a8.638,8.638,0,0,1,1.973-.664,9.809,9.809,0,0,1,2.023-.227,5.062,5.062,0,0,1,3.19.854,3.213,3.213,0,0,1,1.077,2.681V349.8Zm-3.5-1.485a3.059,3.059,0,0,0,2.058-.663,2.315,2.315,0,0,0,.776-1.86V344.9l-1.422.056a5.18,5.18,0,0,0-2.419.514,1.533,1.533,0,0,0-.756,1.406,1.318,1.318,0,0,0,.441,1.062A1.99,1.99,0,0,0,878.629,348.316Z" fill="#00223d"/>
      <path id="Trazado_8621" data-name="Trazado 8621" d="M896.848,349.8h-2.364v-6.309a2.615,2.615,0,0,0-.516-1.772,2.077,2.077,0,0,0-1.638-.584,2.707,2.707,0,0,0-2.183.816,4.251,4.251,0,0,0-.691,2.737V349.8H887.1V339.54h1.843l.331,1.345h.12a3.213,3.213,0,0,1,1.422-1.132,5.087,5.087,0,0,1,2.043-.4q3.987,0,3.987,3.758Z" fill="#00223d"/>
      <path id="Trazado_8622" data-name="Trazado 8622" d="M904.96,349.986a5.6,5.6,0,0,1-4.041-1.4,5.073,5.073,0,0,1-1.457-3.846,5.537,5.537,0,0,1,1.352-3.952,4.854,4.854,0,0,1,3.716-1.438,4.764,4.764,0,0,1,3.465,1.234,4.512,4.512,0,0,1,1.272,3.4v1.178h-7.382a3.225,3.225,0,0,0,.872,2.3,3.169,3.169,0,0,0,2.313.8,9.229,9.229,0,0,0,1.828-.172,10.179,10.179,0,0,0,1.818-.571v1.772a7.605,7.605,0,0,1-1.742.538A11.535,11.535,0,0,1,904.96,349.986Zm-.43-8.98a2.465,2.465,0,0,0-1.8.658,3.017,3.017,0,0,0-.807,1.921h5.028a2.707,2.707,0,0,0-.661-1.926A2.354,2.354,0,0,0,904.53,341.006Z" fill="#00223d"/>
      <path id="Trazado_8623" data-name="Trazado 8623" d="M916.067,348.223a6.138,6.138,0,0,0,1.723-.25v1.642a5.043,5.043,0,0,1-1.006.264,7.491,7.491,0,0,1-1.277.107q-3.347,0-3.346-3.265v-5.53h-1.512v-.965l1.623-.8.8-2.171h1.452v2.282h3.155v1.651h-3.155v5.492a1.472,1.472,0,0,0,.426,1.164A1.621,1.621,0,0,0,916.067,348.223Z" fill="#00223d"/>
      <path id="Trazado_8624" data-name="Trazado 8624" d="M926.935,349.8l-.471-1.429h-.08a4.474,4.474,0,0,1-1.613,1.275,5.454,5.454,0,0,1-2.083.339,3.7,3.7,0,0,1-2.549-.816,2.934,2.934,0,0,1-.916-2.31,2.651,2.651,0,0,1,1.272-2.394,7.788,7.788,0,0,1,3.875-.881l1.914-.056v-.547a1.976,1.976,0,0,0-.5-1.471,2.12,2.12,0,0,0-1.538-.487,5.693,5.693,0,0,0-1.632.232,12.792,12.792,0,0,0-1.5.548l-.762-1.559a8.629,8.629,0,0,1,1.974-.664,9.792,9.792,0,0,1,2.022-.227,5.065,5.065,0,0,1,3.191.854,3.216,3.216,0,0,1,1.076,2.681V349.8Zm-3.506-1.485a3.059,3.059,0,0,0,2.058-.663,2.312,2.312,0,0,0,.777-1.86V344.9l-1.423.056a5.179,5.179,0,0,0-2.418.514,1.532,1.532,0,0,0-.757,1.406,1.318,1.318,0,0,0,.441,1.062A1.993,1.993,0,0,0,923.429,348.316Z" fill="#00223d"/>
    </g>
    <rect id="Rectángulo_4076" data-name="Rectángulo 4076" width="467.902" height="72.191" rx="33.052" transform="translate(532.647 392.906)" fill="#67c1e3"/>
    <g id="Grupo_12978" data-name="Grupo 12978">
      <path id="Trazado_8625" data-name="Trazado 8625" d="M611.78,434.36V420.8h2.394v11.662h6.2v1.9Z" fill="#00223d"/>
      <path id="Trazado_8626" data-name="Trazado 8626" d="M629.578,434.36l-.471-1.429h-.08a4.472,4.472,0,0,1-1.612,1.275,5.458,5.458,0,0,1-2.084.339,3.7,3.7,0,0,1-2.548-.816,2.934,2.934,0,0,1-.917-2.31,2.653,2.653,0,0,1,1.272-2.394,7.79,7.79,0,0,1,3.876-.881l1.913-.056v-.547a1.976,1.976,0,0,0-.5-1.471,2.117,2.117,0,0,0-1.537-.487,5.7,5.7,0,0,0-1.633.232,12.931,12.931,0,0,0-1.5.548L623,424.8a8.62,8.62,0,0,1,1.973-.664,9.8,9.8,0,0,1,2.023-.227,5.062,5.062,0,0,1,3.19.854,3.214,3.214,0,0,1,1.077,2.681v6.912Zm-3.505-1.485a3.062,3.062,0,0,0,2.058-.663,2.315,2.315,0,0,0,.776-1.86v-.891l-1.422.056a5.166,5.166,0,0,0-2.419.515,1.531,1.531,0,0,0-.756,1.4,1.32,1.32,0,0,0,.44,1.062A2,2,0,0,0,626.073,432.875Z" fill="#00223d"/>
      <path id="Trazado_8627" data-name="Trazado 8627" d="M643.61,434.545a3.986,3.986,0,0,1-3.235-1.391,7.146,7.146,0,0,1,.015-7.835,4.022,4.022,0,0,1,3.26-1.406,3.928,3.928,0,0,1,3.325,1.494h.121a12.074,12.074,0,0,1-.171-1.744v-3.739h2.364V434.36h-1.843l-.41-1.346h-.111A3.862,3.862,0,0,1,643.61,434.545Zm.631-1.762a2.664,2.664,0,0,0,2.113-.757,3.765,3.765,0,0,0,.682-2.453v-.307a4.335,4.335,0,0,0-.682-2.755,2.623,2.623,0,0,0-2.133-.816,2.214,2.214,0,0,0-1.913.932,4.5,4.5,0,0,0-.671,2.658,4.388,4.388,0,0,0,.651,2.6A2.258,2.258,0,0,0,644.241,432.783Z" fill="#00223d"/>
      <path id="Trazado_8628" data-name="Trazado 8628" d="M657.492,434.545a5.6,5.6,0,0,1-4.041-1.4,5.073,5.073,0,0,1-1.458-3.845,5.538,5.538,0,0,1,1.353-3.953,4.853,4.853,0,0,1,3.715-1.438,4.769,4.769,0,0,1,3.466,1.234,4.512,4.512,0,0,1,1.272,3.4v1.178h-7.382a3.229,3.229,0,0,0,.871,2.3,3.173,3.173,0,0,0,2.314.8,9.156,9.156,0,0,0,1.828-.172,10.019,10.019,0,0,0,1.818-.571v1.772a7.616,7.616,0,0,1-1.743.539A11.638,11.638,0,0,1,657.492,434.545Zm-.431-8.98a2.463,2.463,0,0,0-1.8.658,3.019,3.019,0,0,0-.807,1.921h5.028a2.707,2.707,0,0,0-.661-1.925A2.355,2.355,0,0,0,657.061,425.565Z" fill="#00223d"/>
      <path id="Trazado_8629" data-name="Trazado 8629" d="M671.914,431.437a2.617,2.617,0,0,1-1.181,2.3,6,6,0,0,1-3.385.8,8.556,8.556,0,0,1-3.556-.621V432.04a9.293,9.293,0,0,0,3.636.835q2.172,0,2.173-1.215a.919.919,0,0,0-.24-.649,2.853,2.853,0,0,0-.792-.539,14.1,14.1,0,0,0-1.532-.63,7.252,7.252,0,0,1-2.589-1.373,2.431,2.431,0,0,1-.676-1.782,2.3,2.3,0,0,1,1.147-2.046,5.78,5.78,0,0,1,3.119-.728,9.441,9.441,0,0,1,3.7.733l-.761,1.642a8.775,8.775,0,0,0-3.015-.686q-1.863,0-1.862.983a.973.973,0,0,0,.485.817,11.152,11.152,0,0,0,2.119.918,10.054,10.054,0,0,1,1.993.9,2.772,2.772,0,0,1,.921.941A2.567,2.567,0,0,1,671.914,431.437Z" fill="#00223d"/>
      <path id="Trazado_8630" data-name="Trazado 8630" d="M678.585,432.783a6.151,6.151,0,0,0,1.723-.251v1.642a5.058,5.058,0,0,1-1.007.264,7.382,7.382,0,0,1-1.277.107q-3.345,0-3.345-3.265v-5.53h-1.513v-.965l1.623-.8.8-2.171h1.453V424.1H680.2v1.651h-3.155v5.492a1.475,1.475,0,0,0,.425,1.165A1.628,1.628,0,0,0,678.585,432.783Z" fill="#00223d"/>
      <path id="Trazado_8631" data-name="Trazado 8631" d="M688.14,423.913a6.09,6.09,0,0,1,1.172.093l-.231,2.032a4.792,4.792,0,0,0-1.041-.111,3.144,3.144,0,0,0-2.289.853,2.958,2.958,0,0,0-.876,2.217v5.363h-2.354V424.1h1.843l.311,1.809h.12a4.2,4.2,0,0,1,1.437-1.457A3.619,3.619,0,0,1,688.14,423.913Z" fill="#00223d"/>
      <path id="Trazado_8632" data-name="Trazado 8632" d="M699.177,434.36l-.33-1.346h-.12a3.274,3.274,0,0,1-1.4,1.123,4.986,4.986,0,0,1-2.068.408,4.259,4.259,0,0,1-3-.928,3.671,3.671,0,0,1-.992-2.811V424.1h2.374v6.327a2.594,2.594,0,0,0,.521,1.767,2.069,2.069,0,0,0,1.632.59,2.7,2.7,0,0,0,2.179-.822,4.272,4.272,0,0,0,.7-2.75V424.1h2.363V434.36Z" fill="#00223d"/>
      <path id="Trazado_8633" data-name="Trazado 8633" d="M708.852,434.545a5.058,5.058,0,0,1-3.82-1.359,6.473,6.473,0,0,1,.06-7.881,5.292,5.292,0,0,1,3.951-1.392,7.931,7.931,0,0,1,3.155.6l-.711,1.754a7.6,7.6,0,0,0-2.464-.538q-2.875,0-2.875,3.534a4,4,0,0,0,.716,2.593,2.564,2.564,0,0,0,2.1.868,6.389,6.389,0,0,0,2.974-.724v1.9a4.854,4.854,0,0,1-1.347.492A8.776,8.776,0,0,1,708.852,434.545Z" fill="#00223d"/>
      <path id="Trazado_8634" data-name="Trazado 8634" d="M719.009,434.545a5.061,5.061,0,0,1-3.822-1.359,6.474,6.474,0,0,1,.061-7.881,5.292,5.292,0,0,1,3.951-1.392,7.931,7.931,0,0,1,3.155.6l-.711,1.754a7.6,7.6,0,0,0-2.464-.538q-2.875,0-2.875,3.534a4,4,0,0,0,.716,2.593,2.564,2.564,0,0,0,2.1.868,6.386,6.386,0,0,0,2.974-.724v1.9a4.854,4.854,0,0,1-1.347.492A8.772,8.772,0,0,1,719.009,434.545Z" fill="#00223d"/>
      <path id="Trazado_8635" data-name="Trazado 8635" d="M724.557,421.381a1.154,1.154,0,0,1,.346-.9,1.408,1.408,0,0,1,.986-.316,1.381,1.381,0,0,1,.967.316,1.157,1.157,0,0,1,.345.9,1.135,1.135,0,0,1-.345.876,1.368,1.368,0,0,1-.967.32,1.4,1.4,0,0,1-.986-.32A1.132,1.132,0,0,1,724.557,421.381Zm2.494,12.979H724.7V424.1h2.354Z" fill="#00223d"/>
      <path id="Trazado_8636" data-name="Trazado 8636" d="M740.242,429.211a5.34,5.34,0,0,1-1.393,3.924,5.2,5.2,0,0,1-3.875,1.41,5.644,5.644,0,0,1-2.745-.649,4.432,4.432,0,0,1-1.833-1.865,5.96,5.96,0,0,1-.641-2.82,5.307,5.307,0,0,1,1.383-3.9,5.226,5.226,0,0,1,3.9-1.4,5.083,5.083,0,0,1,3.806,1.433A5.293,5.293,0,0,1,740.242,429.211Zm-8.063,0q0,3.552,2.835,3.553,2.8,0,2.8-3.553,0-3.516-2.824-3.516a2.485,2.485,0,0,0-2.149.909A4.361,4.361,0,0,0,732.179,429.211Zm1.292-6.365v-.231q.571-.651,1.177-1.448t.957-1.363h2.734V420a19.37,19.37,0,0,1-1.558,1.461,21.406,21.406,0,0,1-1.747,1.387Z" fill="#00223d"/>
      <path id="Trazado_8637" data-name="Trazado 8637" d="M752.691,434.36h-2.363v-6.309a2.616,2.616,0,0,0-.516-1.772,2.077,2.077,0,0,0-1.638-.584,2.707,2.707,0,0,0-2.183.816,4.251,4.251,0,0,0-.691,2.737v5.112h-2.354V424.1h1.843l.331,1.345h.12a3.213,3.213,0,0,1,1.422-1.132,5.086,5.086,0,0,1,2.043-.4q3.987,0,3.986,3.758Z" fill="#00223d"/>
      <path id="Trazado_8638" data-name="Trazado 8638" d="M765.031,434.545a3.985,3.985,0,0,1-3.235-1.391,7.146,7.146,0,0,1,.015-7.835,4.021,4.021,0,0,1,3.26-1.406,3.929,3.929,0,0,1,3.325,1.494h.12a12.2,12.2,0,0,1-.17-1.744v-3.739h2.364V434.36h-1.843l-.411-1.346h-.11A3.865,3.865,0,0,1,765.031,434.545Zm.63-1.762a2.667,2.667,0,0,0,2.114-.757,3.76,3.76,0,0,0,.681-2.453v-.307a4.336,4.336,0,0,0-.681-2.755,2.624,2.624,0,0,0-2.134-.816,2.213,2.213,0,0,0-1.912.932,4.5,4.5,0,0,0-.672,2.658,4.388,4.388,0,0,0,.652,2.6A2.256,2.256,0,0,0,765.661,432.783Z" fill="#00223d"/>
      <path id="Trazado_8639" data-name="Trazado 8639" d="M778.912,434.545a5.6,5.6,0,0,1-4.041-1.4,5.076,5.076,0,0,1-1.457-3.845,5.542,5.542,0,0,1,1.352-3.953,4.855,4.855,0,0,1,3.716-1.438,4.768,4.768,0,0,1,3.465,1.234,4.513,4.513,0,0,1,1.272,3.4v1.178h-7.381a3.221,3.221,0,0,0,.871,2.3,3.172,3.172,0,0,0,2.314.8,9.145,9.145,0,0,0,1.827-.172,9.972,9.972,0,0,0,1.818-.571v1.772a7.61,7.61,0,0,1-1.742.539A11.642,11.642,0,0,1,778.912,434.545Zm-.43-8.98a2.467,2.467,0,0,0-1.8.658,3.013,3.013,0,0,0-.806,1.921h5.028a2.711,2.711,0,0,0-.661-1.925A2.358,2.358,0,0,0,778.482,425.565Z" fill="#00223d"/>
      <path id="Trazado_8640" data-name="Trazado 8640" d="M793.576,434.36h-2.354V419.924h2.354Z" fill="#00223d"/>
      <path id="Trazado_8641" data-name="Trazado 8641" d="M803.872,434.36l-.471-1.429h-.08a4.474,4.474,0,0,1-1.613,1.275,5.453,5.453,0,0,1-2.083.339,3.7,3.7,0,0,1-2.549-.816,2.934,2.934,0,0,1-.916-2.31,2.651,2.651,0,0,1,1.272-2.394,7.788,7.788,0,0,1,3.875-.881l1.914-.056v-.547a1.976,1.976,0,0,0-.5-1.471,2.12,2.12,0,0,0-1.538-.487,5.693,5.693,0,0,0-1.632.232,12.8,12.8,0,0,0-1.5.548l-.762-1.559a8.628,8.628,0,0,1,1.974-.664,9.792,9.792,0,0,1,2.022-.227,5.065,5.065,0,0,1,3.191.854,3.216,3.216,0,0,1,1.076,2.681v6.912Zm-3.506-1.485a3.059,3.059,0,0,0,2.058-.663,2.312,2.312,0,0,0,.777-1.86v-.891l-1.423.056a5.165,5.165,0,0,0-2.418.515,1.53,1.53,0,0,0-.757,1.4,1.318,1.318,0,0,0,.441,1.062A1.993,1.993,0,0,0,800.366,432.875Z" fill="#00223d"/>
      <path id="Trazado_8642" data-name="Trazado 8642" d="M818.635,434.545a5.059,5.059,0,0,1-3.821-1.359,6.476,6.476,0,0,1,.06-7.881,5.291,5.291,0,0,1,3.951-1.392,7.928,7.928,0,0,1,3.155.6l-.711,1.754a7.6,7.6,0,0,0-2.464-.538q-2.874,0-2.874,3.534a4,4,0,0,0,.716,2.593,2.562,2.562,0,0,0,2.1.868A6.393,6.393,0,0,0,821.72,432v1.9a4.871,4.871,0,0,1-1.348.492A8.772,8.772,0,0,1,818.635,434.545Z" fill="#00223d"/>
      <path id="Trazado_8643" data-name="Trazado 8643" d="M831.255,434.36l-.471-1.429h-.08a4.466,4.466,0,0,1-1.613,1.275,5.453,5.453,0,0,1-2.083.339,3.7,3.7,0,0,1-2.549-.816,2.935,2.935,0,0,1-.917-2.31,2.652,2.652,0,0,1,1.273-2.394,7.784,7.784,0,0,1,3.876-.881l1.913-.056v-.547a1.98,1.98,0,0,0-.5-1.471,2.12,2.12,0,0,0-1.538-.487,5.693,5.693,0,0,0-1.632.232,12.877,12.877,0,0,0-1.5.548l-.761-1.559a8.636,8.636,0,0,1,1.973-.664,9.811,9.811,0,0,1,2.024-.227,5.064,5.064,0,0,1,3.19.854,3.216,3.216,0,0,1,1.076,2.681v6.912Zm-3.506-1.485a3.059,3.059,0,0,0,2.058-.663,2.312,2.312,0,0,0,.777-1.86v-.891l-1.423.056a5.161,5.161,0,0,0-2.418.515,1.53,1.53,0,0,0-.757,1.4,1.318,1.318,0,0,0,.441,1.062A1.992,1.992,0,0,0,827.749,432.875Z" fill="#00223d"/>
      <path id="Trazado_8644" data-name="Trazado 8644" d="M841.841,434.545a4.005,4.005,0,0,1-3.265-1.4h-.14q.14,1.3.14,1.577v4.2h-2.353V424.1h1.9q.081.288.331,1.373h.12a3.78,3.78,0,0,1,3.3-1.559,3.967,3.967,0,0,1,3.23,1.392,7.151,7.151,0,0,1-.02,7.83A4,4,0,0,1,841.841,434.545Zm-.571-8.85a2.544,2.544,0,0,0-2.048.76,3.726,3.726,0,0,0-.646,2.431v.325a4.517,4.517,0,0,0,.641,2.713,2.466,2.466,0,0,0,2.093.84,2.172,2.172,0,0,0,1.883-.928,4.51,4.51,0,0,0,.661-2.644,4.355,4.355,0,0,0-.656-2.612A2.249,2.249,0,0,0,841.27,425.7Z" fill="#00223d"/>
      <path id="Trazado_8645" data-name="Trazado 8645" d="M855.933,434.36l-.47-1.429h-.081a4.464,4.464,0,0,1-1.612,1.275,5.453,5.453,0,0,1-2.083.339,3.7,3.7,0,0,1-2.549-.816,2.934,2.934,0,0,1-.917-2.31,2.653,2.653,0,0,1,1.272-2.394,7.79,7.79,0,0,1,3.876-.881l1.913-.056v-.547a1.976,1.976,0,0,0-.5-1.471,2.117,2.117,0,0,0-1.537-.487,5.688,5.688,0,0,0-1.632.232,12.873,12.873,0,0,0-1.5.548l-.761-1.559a8.635,8.635,0,0,1,1.973-.664,9.8,9.8,0,0,1,2.023-.227,5.062,5.062,0,0,1,3.19.854,3.214,3.214,0,0,1,1.077,2.681v6.912Zm-3.505-1.485a3.059,3.059,0,0,0,2.058-.663,2.315,2.315,0,0,0,.776-1.86v-.891l-1.422.056a5.169,5.169,0,0,0-2.419.515,1.531,1.531,0,0,0-.756,1.4,1.318,1.318,0,0,0,.441,1.062A1.992,1.992,0,0,0,852.428,432.875Z" fill="#00223d"/>
      <path id="Trazado_8646" data-name="Trazado 8646" d="M869.965,434.545a3.986,3.986,0,0,1-3.235-1.391,7.146,7.146,0,0,1,.015-7.835,4.023,4.023,0,0,1,3.26-1.406,3.931,3.931,0,0,1,3.326,1.494h.12a12.046,12.046,0,0,1-.17-1.744v-3.739h2.363V434.36H873.8l-.41-1.346h-.11A3.865,3.865,0,0,1,869.965,434.545Zm.631-1.762a2.668,2.668,0,0,0,2.114-.757,3.771,3.771,0,0,0,.681-2.453v-.307a4.336,4.336,0,0,0-.681-2.755,2.627,2.627,0,0,0-2.134-.816,2.215,2.215,0,0,0-1.913.932,4.5,4.5,0,0,0-.671,2.658,4.388,4.388,0,0,0,.651,2.6A2.258,2.258,0,0,0,870.6,432.783Z" fill="#00223d"/>
      <path id="Trazado_8647" data-name="Trazado 8647" d="M883.847,434.545a5.6,5.6,0,0,1-4.041-1.4,5.072,5.072,0,0,1-1.457-3.845,5.538,5.538,0,0,1,1.352-3.953,4.855,4.855,0,0,1,3.715-1.438,4.769,4.769,0,0,1,3.466,1.234,4.513,4.513,0,0,1,1.272,3.4v1.178h-7.382a3.226,3.226,0,0,0,.872,2.3,3.169,3.169,0,0,0,2.313.8,9.148,9.148,0,0,0,1.828-.172,10.019,10.019,0,0,0,1.818-.571v1.772a7.6,7.6,0,0,1-1.743.539A11.628,11.628,0,0,1,883.847,434.545Zm-.431-8.98a2.464,2.464,0,0,0-1.8.658,3.019,3.019,0,0,0-.807,1.921h5.028a2.707,2.707,0,0,0-.661-1.925A2.355,2.355,0,0,0,883.416,425.565Z" fill="#00223d"/>
      <path id="Trazado_8648" data-name="Trazado 8648" d="M905.982,429.211a5.344,5.344,0,0,1-1.392,3.924,5.2,5.2,0,0,1-3.876,1.41,5.647,5.647,0,0,1-2.745-.649,4.429,4.429,0,0,1-1.832-1.865,5.948,5.948,0,0,1-.642-2.82,5.307,5.307,0,0,1,1.383-3.9,5.226,5.226,0,0,1,3.9-1.4,5.083,5.083,0,0,1,3.806,1.433A5.288,5.288,0,0,1,905.982,429.211Zm-8.063,0q0,3.552,2.835,3.553,2.8,0,2.8-3.553,0-3.516-2.824-3.516a2.485,2.485,0,0,0-2.149.909A4.361,4.361,0,0,0,897.919,429.211Z" fill="#00223d"/>
      <path id="Trazado_8649" data-name="Trazado 8649" d="M916.088,434.36h-8.4v-1.346l5.6-7.245h-5.259V424.1h7.9v1.521l-5.479,7.07h5.639Z" fill="#00223d"/>
      <path id="Trazado_8650" data-name="Trazado 8650" d="M928.317,429.211a5.344,5.344,0,0,1-1.392,3.924,5.2,5.2,0,0,1-3.876,1.41,5.64,5.64,0,0,1-2.744-.649,4.426,4.426,0,0,1-1.833-1.865,5.949,5.949,0,0,1-.642-2.82,5.307,5.307,0,0,1,1.383-3.9,5.226,5.226,0,0,1,3.9-1.4,5.083,5.083,0,0,1,3.806,1.433A5.293,5.293,0,0,1,928.317,429.211Zm-8.063,0q0,3.552,2.835,3.553,2.8,0,2.8-3.553,0-3.516-2.824-3.516a2.485,2.485,0,0,0-2.149.909A4.361,4.361,0,0,0,920.254,429.211Z" fill="#00223d"/>
      <path id="Trazado_8651" data-name="Trazado 8651" d="M940.766,434.36H938.4v-6.309a2.616,2.616,0,0,0-.516-1.772,2.077,2.077,0,0,0-1.638-.584,2.708,2.708,0,0,0-2.183.816,4.251,4.251,0,0,0-.691,2.737v5.112h-2.354V424.1h1.843l.331,1.345h.12a3.218,3.218,0,0,1,1.422-1.132,5.09,5.09,0,0,1,2.043-.4q3.987,0,3.986,3.758Z" fill="#00223d"/>
      <path id="Trazado_8652" data-name="Trazado 8652" d="M953.867,429.211a5.344,5.344,0,0,1-1.392,3.924,5.2,5.2,0,0,1-3.876,1.41,5.647,5.647,0,0,1-2.745-.649,4.43,4.43,0,0,1-1.832-1.865,5.949,5.949,0,0,1-.641-2.82,5.307,5.307,0,0,1,1.382-3.9,5.226,5.226,0,0,1,3.9-1.4,5.082,5.082,0,0,1,3.806,1.433A5.288,5.288,0,0,1,953.867,429.211Zm-8.062,0q0,3.552,2.834,3.553,2.8,0,2.8-3.553,0-3.516-2.824-3.516a2.483,2.483,0,0,0-2.148.909A4.354,4.354,0,0,0,945.8,429.211Z" fill="#00223d"/>
    </g>
    <rect id="Rectángulo_4077" data-name="Rectángulo 4077" width="475.502" height="72.191" rx="33.052" transform="translate(525.047 486.126)" fill="#ffd358"/>
    <g id="Grupo_12979" data-name="Grupo 12979">
      <path id="Trazado_8653" data-name="Trazado 8653" d="M656.831,527.579V514.016h2.393v11.662h6.2v1.9Z" fill="#00223d"/>
      <path id="Trazado_8654" data-name="Trazado 8654" d="M674.629,527.579l-.471-1.428h-.08a4.47,4.47,0,0,1-1.613,1.276,5.472,5.472,0,0,1-2.083.338,3.7,3.7,0,0,1-2.549-.816,2.932,2.932,0,0,1-.916-2.311,2.652,2.652,0,0,1,1.272-2.393,7.784,7.784,0,0,1,3.876-.881l1.913-.056v-.547a1.98,1.98,0,0,0-.5-1.471,2.123,2.123,0,0,0-1.537-.487,5.73,5.73,0,0,0-1.633.232,12.985,12.985,0,0,0-1.5.547l-.762-1.558a8.579,8.579,0,0,1,1.974-.663,9.728,9.728,0,0,1,2.023-.228,5.064,5.064,0,0,1,3.19.854,3.213,3.213,0,0,1,1.076,2.681v6.911Zm-3.506-1.484a3.063,3.063,0,0,0,2.059-.663,2.316,2.316,0,0,0,.776-1.86v-.891l-1.422.056a5.178,5.178,0,0,0-2.419.515,1.53,1.53,0,0,0-.757,1.4,1.321,1.321,0,0,0,.441,1.063A2,2,0,0,0,671.123,526.095Z" fill="#00223d"/>
      <path id="Trazado_8655" data-name="Trazado 8655" d="M689.392,527.765a5.059,5.059,0,0,1-3.821-1.359,6.476,6.476,0,0,1,.06-7.881,5.293,5.293,0,0,1,3.951-1.392,7.91,7.91,0,0,1,3.155.6l-.711,1.754a7.6,7.6,0,0,0-2.464-.539q-2.874,0-2.874,3.535a4,4,0,0,0,.716,2.593,2.562,2.562,0,0,0,2.1.868,6.405,6.405,0,0,0,2.975-.724v1.9a4.876,4.876,0,0,1-1.347.492A8.714,8.714,0,0,1,689.392,527.765Z" fill="#00223d"/>
      <path id="Trazado_8656" data-name="Trazado 8656" d="M704.906,522.43a5.344,5.344,0,0,1-1.392,3.925,5.2,5.2,0,0,1-3.876,1.41,5.641,5.641,0,0,1-2.744-.649,4.427,4.427,0,0,1-1.833-1.865,5.95,5.95,0,0,1-.641-2.821,5.306,5.306,0,0,1,1.382-3.9,5.227,5.227,0,0,1,3.9-1.4,5.079,5.079,0,0,1,3.806,1.434A5.284,5.284,0,0,1,704.906,522.43Zm-8.062,0q0,3.555,2.834,3.554,2.8,0,2.8-3.554,0-3.515-2.824-3.516a2.483,2.483,0,0,0-2.148.91A4.359,4.359,0,0,0,696.844,522.43Z" fill="#00223d"/>
      <path id="Trazado_8657" data-name="Trazado 8657" d="M717.356,527.579h-2.364v-6.308a2.613,2.613,0,0,0-.516-1.772,2.075,2.075,0,0,0-1.637-.585,2.709,2.709,0,0,0-2.184.817,4.255,4.255,0,0,0-.691,2.737v5.111h-2.353v-10.26h1.842l.331,1.345h.12a3.223,3.223,0,0,1,1.423-1.132,5.086,5.086,0,0,1,2.043-.4q3.985,0,3.986,3.757Z" fill="#00223d"/>
      <path id="Trazado_8658" data-name="Trazado 8658" d="M724.757,526a6.139,6.139,0,0,0,1.723-.25v1.642a5.107,5.107,0,0,1-1.006.265,7.6,7.6,0,0,1-1.277.106q-3.347,0-3.346-3.266V518.97h-1.512v-.965l1.623-.8.8-2.171h1.452v2.283h3.155v1.651h-3.155v5.492a1.476,1.476,0,0,0,.426,1.165A1.625,1.625,0,0,0,724.757,526Z" fill="#00223d"/>
      <path id="Trazado_8659" data-name="Trazado 8659" d="M735.624,527.579l-.47-1.428h-.08a4.478,4.478,0,0,1-1.613,1.276,5.475,5.475,0,0,1-2.083.338,3.7,3.7,0,0,1-2.549-.816,2.932,2.932,0,0,1-.917-2.311,2.652,2.652,0,0,1,1.272-2.393,7.789,7.789,0,0,1,3.876-.881l1.914-.056v-.547a1.98,1.98,0,0,0-.5-1.471,2.125,2.125,0,0,0-1.538-.487,5.723,5.723,0,0,0-1.632.232,12.984,12.984,0,0,0-1.5.547l-.762-1.558a8.586,8.586,0,0,1,1.973-.663,9.742,9.742,0,0,1,2.023-.228,5.06,5.06,0,0,1,3.19.854,3.214,3.214,0,0,1,1.077,2.681v6.911Zm-3.505-1.484a3.059,3.059,0,0,0,2.058-.663,2.313,2.313,0,0,0,.776-1.86v-.891l-1.422.056a5.185,5.185,0,0,0-2.419.515,1.531,1.531,0,0,0-.756,1.4,1.321,1.321,0,0,0,.441,1.063A2,2,0,0,0,732.119,526.095Z" fill="#00223d"/>
      <path id="Trazado_8660" data-name="Trazado 8660" d="M749.927,527.579h-2.364v-6.327a2.71,2.71,0,0,0-.481-1.758,1.841,1.841,0,0,0-1.5-.58,2.368,2.368,0,0,0-2,.822,4.532,4.532,0,0,0-.636,2.732v5.111h-2.354v-10.26h1.843l.331,1.345h.12a3,3,0,0,1,1.337-1.132,4.6,4.6,0,0,1,1.928-.4q2.555,0,3.385,1.614h.161a3.294,3.294,0,0,1,1.382-1.187,4.682,4.682,0,0,1,2.043-.427,3.283,3.283,0,0,1,3.8,3.757v6.689h-2.354v-6.327a2.692,2.692,0,0,0-.486-1.758,1.856,1.856,0,0,0-1.507-.58,2.42,2.42,0,0,0-2.008.794,3.857,3.857,0,0,0-.636,2.435Z" fill="#00223d"/>
      <path id="Trazado_8661" data-name="Trazado 8661" d="M760.063,514.6a1.157,1.157,0,0,1,.346-.9,1.417,1.417,0,0,1,.986-.315,1.39,1.39,0,0,1,.967.315,1.16,1.16,0,0,1,.345.9,1.137,1.137,0,0,1-.345.877,1.368,1.368,0,0,1-.967.32,1.4,1.4,0,0,1-.986-.32A1.134,1.134,0,0,1,760.063,514.6Zm2.494,12.979H760.2v-10.26h2.354Z" fill="#00223d"/>
      <path id="Trazado_8662" data-name="Trazado 8662" d="M775.667,527.579H773.3v-6.308a2.613,2.613,0,0,0-.516-1.772,2.078,2.078,0,0,0-1.638-.585,2.707,2.707,0,0,0-2.183.817,4.249,4.249,0,0,0-.691,2.737v5.111h-2.354v-10.26h1.843l.331,1.345h.12a3.225,3.225,0,0,1,1.422-1.132,5.087,5.087,0,0,1,2.043-.4q3.987,0,3.986,3.757Z" fill="#00223d"/>
      <path id="Trazado_8663" data-name="Trazado 8663" d="M785.873,527.579l-.47-1.428h-.08a4.478,4.478,0,0,1-1.613,1.276,5.479,5.479,0,0,1-2.083.338,3.7,3.7,0,0,1-2.549-.816,2.932,2.932,0,0,1-.917-2.311,2.652,2.652,0,0,1,1.272-2.393,7.79,7.79,0,0,1,3.876-.881l1.914-.056v-.547a1.976,1.976,0,0,0-.5-1.471,2.12,2.12,0,0,0-1.537-.487,5.723,5.723,0,0,0-1.632.232,13.067,13.067,0,0,0-1.5.547l-.761-1.558a8.586,8.586,0,0,1,1.973-.663,9.743,9.743,0,0,1,2.023-.228,5.06,5.06,0,0,1,3.19.854,3.214,3.214,0,0,1,1.077,2.681v6.911Zm-3.505-1.484a3.059,3.059,0,0,0,2.058-.663,2.317,2.317,0,0,0,.777-1.86v-.891l-1.423.056a5.181,5.181,0,0,0-2.419.515,1.531,1.531,0,0,0-.756,1.4,1.321,1.321,0,0,0,.441,1.063A2,2,0,0,0,782.368,526.095Z" fill="#00223d"/>
      <path id="Trazado_8664" data-name="Trazado 8664" d="M795.308,527.765a5.061,5.061,0,0,1-3.821-1.359,6.476,6.476,0,0,1,.06-7.881,5.294,5.294,0,0,1,3.951-1.392,7.906,7.906,0,0,1,3.155.6l-.711,1.754a7.6,7.6,0,0,0-2.464-.539q-2.874,0-2.874,3.535a4,4,0,0,0,.716,2.593,2.562,2.562,0,0,0,2.1.868,6.4,6.4,0,0,0,2.975-.724v1.9a4.865,4.865,0,0,1-1.347.492A8.715,8.715,0,0,1,795.308,527.765Z" fill="#00223d"/>
      <path id="Trazado_8665" data-name="Trazado 8665" d="M800.857,514.6a1.157,1.157,0,0,1,.346-.9,1.417,1.417,0,0,1,.986-.315,1.39,1.39,0,0,1,.967.315,1.16,1.16,0,0,1,.345.9,1.137,1.137,0,0,1-.345.877,1.368,1.368,0,0,1-.967.32,1.4,1.4,0,0,1-.986-.32A1.134,1.134,0,0,1,800.857,514.6Zm2.494,12.979H801v-10.26h2.354Z" fill="#00223d"/>
      <path id="Trazado_8666" data-name="Trazado 8666" d="M816.541,522.43a5.34,5.34,0,0,1-1.392,3.925,5.2,5.2,0,0,1-3.876,1.41,5.643,5.643,0,0,1-2.744-.649,4.427,4.427,0,0,1-1.833-1.865,5.962,5.962,0,0,1-.641-2.821,5.31,5.31,0,0,1,1.382-3.9,5.227,5.227,0,0,1,3.9-1.4,5.078,5.078,0,0,1,3.806,1.434A5.284,5.284,0,0,1,816.541,522.43Zm-8.062,0q0,3.555,2.834,3.554,2.8,0,2.8-3.554,0-3.515-2.825-3.516a2.485,2.485,0,0,0-2.148.91A4.359,4.359,0,0,0,808.479,522.43Zm1.292-6.364v-.232q.57-.648,1.177-1.447t.956-1.364h2.735v.2a19.732,19.732,0,0,1-1.558,1.461,21.387,21.387,0,0,1-1.748,1.387Z" fill="#00223d"/>
      <path id="Trazado_8667" data-name="Trazado 8667" d="M828.991,527.579h-2.364v-6.308a2.618,2.618,0,0,0-.515-1.772,2.079,2.079,0,0,0-1.638-.585,2.709,2.709,0,0,0-2.184.817,4.256,4.256,0,0,0-.691,2.737v5.111h-2.353v-10.26h1.843l.33,1.345h.12a3.223,3.223,0,0,1,1.423-1.132,5.087,5.087,0,0,1,2.043-.4q3.985,0,3.986,3.757Z" fill="#00223d"/>
      <path id="Trazado_8668" data-name="Trazado 8668" d="M841.33,527.765a3.984,3.984,0,0,1-3.235-1.392,7.144,7.144,0,0,1,.015-7.834,4.023,4.023,0,0,1,3.26-1.406,3.931,3.931,0,0,1,3.326,1.494h.12a12.067,12.067,0,0,1-.17-1.744v-3.739h2.363v14.435h-1.843l-.41-1.345h-.11A3.865,3.865,0,0,1,841.33,527.765Zm.631-1.763a2.67,2.67,0,0,0,2.114-.756,3.772,3.772,0,0,0,.681-2.454v-.306a4.336,4.336,0,0,0-.681-2.755,2.626,2.626,0,0,0-2.134-.817,2.215,2.215,0,0,0-1.913.933,4.5,4.5,0,0,0-.671,2.658,4.386,4.386,0,0,0,.651,2.6A2.257,2.257,0,0,0,841.961,526Z" fill="#00223d"/>
      <path id="Trazado_8669" data-name="Trazado 8669" d="M855.212,527.765a5.6,5.6,0,0,1-4.041-1.4,5.073,5.073,0,0,1-1.457-3.846,5.537,5.537,0,0,1,1.352-3.952,4.855,4.855,0,0,1,3.716-1.438,4.768,4.768,0,0,1,3.465,1.234,4.513,4.513,0,0,1,1.272,3.4v1.178h-7.381a3.221,3.221,0,0,0,.871,2.3,3.171,3.171,0,0,0,2.313.8,9.224,9.224,0,0,0,1.828-.171,10.1,10.1,0,0,0,1.818-.571v1.772a7.6,7.6,0,0,1-1.743.538A11.518,11.518,0,0,1,855.212,527.765Zm-.43-8.981a2.466,2.466,0,0,0-1.8.659,3.016,3.016,0,0,0-.806,1.921h5.027a2.7,2.7,0,0,0-.661-1.925A2.355,2.355,0,0,0,854.782,518.784Z" fill="#00223d"/>
      <path id="Trazado_8670" data-name="Trazado 8670" d="M864.547,527.579h-2.354V513.144h2.354Z" fill="#00223d"/>
      <path id="Trazado_8671" data-name="Trazado 8671" d="M880.171,527.579l-.47-1.428h-.081a4.467,4.467,0,0,1-1.612,1.276,5.475,5.475,0,0,1-2.083.338,3.7,3.7,0,0,1-2.549-.816,2.932,2.932,0,0,1-.917-2.311,2.652,2.652,0,0,1,1.272-2.393,7.789,7.789,0,0,1,3.876-.881l1.913-.056v-.547a1.98,1.98,0,0,0-.495-1.471,2.125,2.125,0,0,0-1.538-.487,5.723,5.723,0,0,0-1.632.232,13.072,13.072,0,0,0-1.5.547l-.761-1.558a8.57,8.57,0,0,1,1.973-.663,9.742,9.742,0,0,1,2.023-.228,5.062,5.062,0,0,1,3.19.854,3.214,3.214,0,0,1,1.077,2.681v6.911Zm-3.505-1.484a3.062,3.062,0,0,0,2.058-.663,2.313,2.313,0,0,0,.776-1.86v-.891l-1.422.056a5.182,5.182,0,0,0-2.419.515,1.531,1.531,0,0,0-.756,1.4,1.321,1.321,0,0,0,.441,1.063A2,2,0,0,0,876.666,526.095Z" fill="#00223d"/>
      <path id="Trazado_8672" data-name="Trazado 8672" d="M885,514.6a1.157,1.157,0,0,1,.346-.9,1.417,1.417,0,0,1,.986-.315,1.39,1.39,0,0,1,.967.315,1.16,1.16,0,0,1,.345.9,1.137,1.137,0,0,1-.345.877,1.368,1.368,0,0,1-.967.32,1.4,1.4,0,0,1-.986-.32A1.135,1.135,0,0,1,885,514.6Zm2.494,12.979h-2.354v-10.26h2.354Z" fill="#00223d"/>
      <path id="Trazado_8673" data-name="Trazado 8673" d="M896.477,517.133a6.09,6.09,0,0,1,1.172.093l-.231,2.032a4.738,4.738,0,0,0-1.041-.112,3.141,3.141,0,0,0-2.289.854,2.958,2.958,0,0,0-.876,2.217v5.362h-2.354v-10.26H892.7l.311,1.809h.12a4.2,4.2,0,0,1,1.437-1.457A3.619,3.619,0,0,1,896.477,517.133Z" fill="#00223d"/>
      <path id="Trazado_8674" data-name="Trazado 8674" d="M904.54,527.765a5.6,5.6,0,0,1-4.042-1.4,5.077,5.077,0,0,1-1.457-3.846,5.541,5.541,0,0,1,1.352-3.952,4.857,4.857,0,0,1,3.716-1.438,4.772,4.772,0,0,1,3.466,1.234,4.516,4.516,0,0,1,1.272,3.4v1.178h-7.382a3.221,3.221,0,0,0,.871,2.3,3.173,3.173,0,0,0,2.314.8,9.238,9.238,0,0,0,1.828-.171,10.1,10.1,0,0,0,1.818-.571v1.772a7.625,7.625,0,0,1-1.743.538A11.534,11.534,0,0,1,904.54,527.765Zm-.431-8.981a2.468,2.468,0,0,0-1.8.659,3.021,3.021,0,0,0-.806,1.921h5.028a2.71,2.71,0,0,0-.661-1.925A2.357,2.357,0,0,0,904.109,518.784Z" fill="#00223d"/>
    </g>
    <rect id="Rectángulo_4078" data-name="Rectángulo 4078" width="475.502" height="72.191" rx="33.052" transform="translate(525.047 579.346)" fill="#ff9ea5"/>
    <g id="Grupo_12980" data-name="Grupo 12980">
      <path id="Trazado_8675" data-name="Trazado 8675" d="M714.712,620.8V607.236H717.1V618.9h6.2v1.9Z" fill="#00223d"/>
      <path id="Trazado_8676" data-name="Trazado 8676" d="M732.51,620.8l-.471-1.429h-.08a4.473,4.473,0,0,1-1.613,1.275,5.453,5.453,0,0,1-2.083.339,3.7,3.7,0,0,1-2.549-.816,2.935,2.935,0,0,1-.917-2.31,2.653,2.653,0,0,1,1.272-2.394,7.79,7.79,0,0,1,3.876-.881l1.914-.056v-.547a1.98,1.98,0,0,0-.5-1.471,2.12,2.12,0,0,0-1.538-.487,5.687,5.687,0,0,0-1.632.232,12.872,12.872,0,0,0-1.5.548l-.761-1.559a8.635,8.635,0,0,1,1.973-.664,9.809,9.809,0,0,1,2.023-.227,5.065,5.065,0,0,1,3.191.854,3.216,3.216,0,0,1,1.076,2.681V620.8ZM729,619.315a3.059,3.059,0,0,0,2.058-.663,2.315,2.315,0,0,0,.776-1.86V615.9l-1.422.056a5.184,5.184,0,0,0-2.419.514,1.533,1.533,0,0,0-.756,1.406,1.318,1.318,0,0,0,.441,1.062A1.992,1.992,0,0,0,729,619.315Z" fill="#00223d"/>
      <path id="Trazado_8677" data-name="Trazado 8677" d="M745.16,620.8h-2.354V606.364h2.354Z" fill="#00223d"/>
      <path id="Trazado_8678" data-name="Trazado 8678" d="M750.878,620.8h-2.353V606.364h2.353Z" fill="#00223d"/>
      <path id="Trazado_8679" data-name="Trazado 8679" d="M762.056,620.8l-.331-1.346h-.12a3.278,3.278,0,0,1-1.4,1.123,4.989,4.989,0,0,1-2.068.408,4.261,4.261,0,0,1-3.005-.928,3.671,3.671,0,0,1-.992-2.811v-6.707h2.374v6.327a2.6,2.6,0,0,0,.521,1.767,2.071,2.071,0,0,0,1.633.589,2.7,2.7,0,0,0,2.178-.821,4.266,4.266,0,0,0,.7-2.75v-5.112h2.364V620.8Z" fill="#00223d"/>
      <path id="Trazado_8680" data-name="Trazado 8680" d="M769.788,620.8l-4.207-10.261h2.484l2.254,5.965a11.13,11.13,0,0,1,.7,2.431h.08a15.383,15.383,0,0,1,.7-2.431l2.254-5.965h2.5L772.332,620.8Z" fill="#00223d"/>
      <path id="Trazado_8681" data-name="Trazado 8681" d="M778.1,607.821a1.154,1.154,0,0,1,.346-.9,1.408,1.408,0,0,1,.986-.316,1.381,1.381,0,0,1,.967.316,1.157,1.157,0,0,1,.345.9,1.135,1.135,0,0,1-.345.876,1.373,1.373,0,0,1-.967.32,1.4,1.4,0,0,1-.986-.32A1.132,1.132,0,0,1,778.1,607.821Zm2.494,12.979h-2.354V610.539h2.354Z" fill="#00223d"/>
      <path id="Trazado_8682" data-name="Trazado 8682" d="M790.891,620.8l-.47-1.429h-.081a4.464,4.464,0,0,1-1.612,1.275,5.456,5.456,0,0,1-2.084.339,3.7,3.7,0,0,1-2.548-.816,2.934,2.934,0,0,1-.917-2.31,2.653,2.653,0,0,1,1.272-2.394,7.79,7.79,0,0,1,3.876-.881l1.913-.056v-.547a1.98,1.98,0,0,0-.495-1.471,2.122,2.122,0,0,0-1.538-.487,5.686,5.686,0,0,0-1.632.232,12.868,12.868,0,0,0-1.5.548l-.761-1.559a8.618,8.618,0,0,1,1.973-.664,9.8,9.8,0,0,1,2.023-.227,5.062,5.062,0,0,1,3.19.854,3.214,3.214,0,0,1,1.077,2.681V620.8Zm-3.505-1.485a3.062,3.062,0,0,0,2.058-.663,2.315,2.315,0,0,0,.776-1.86V615.9l-1.422.056a5.181,5.181,0,0,0-2.419.514,1.533,1.533,0,0,0-.756,1.406,1.318,1.318,0,0,0,.441,1.062A1.99,1.99,0,0,0,787.386,619.315Z" fill="#00223d"/>
      <path id="Trazado_8683" data-name="Trazado 8683" d="M808.118,620.8l-.471-1.429h-.08a4.472,4.472,0,0,1-1.612,1.275,5.459,5.459,0,0,1-2.084.339,3.7,3.7,0,0,1-2.548-.816,2.934,2.934,0,0,1-.917-2.31,2.653,2.653,0,0,1,1.272-2.394,7.79,7.79,0,0,1,3.876-.881l1.913-.056v-.547a1.976,1.976,0,0,0-.5-1.471,2.117,2.117,0,0,0-1.537-.487,5.694,5.694,0,0,0-1.633.232,12.922,12.922,0,0,0-1.5.548l-.761-1.559a8.618,8.618,0,0,1,1.973-.664,9.8,9.8,0,0,1,2.023-.227,5.062,5.062,0,0,1,3.19.854,3.214,3.214,0,0,1,1.077,2.681V620.8Zm-3.505-1.485a3.062,3.062,0,0,0,2.058-.663,2.315,2.315,0,0,0,.776-1.86V615.9l-1.422.056a5.181,5.181,0,0,0-2.419.514,1.533,1.533,0,0,0-.756,1.406,1.32,1.32,0,0,0,.44,1.062A2,2,0,0,0,804.613,619.315Zm-.722-10.029v-.232q.571-.65,1.177-1.447t.957-1.364h2.734v.2A19.51,19.51,0,0,1,807.2,607.9a21.413,21.413,0,0,1-1.748,1.387Z" fill="#00223d"/>
      <path id="Trazado_8684" data-name="Trazado 8684" d="M817.553,620.985a5.059,5.059,0,0,1-3.821-1.359,6.476,6.476,0,0,1,.06-7.881,5.293,5.293,0,0,1,3.951-1.392,7.914,7.914,0,0,1,3.155.6l-.711,1.754a7.6,7.6,0,0,0-2.464-.538q-2.874,0-2.874,3.534a4,4,0,0,0,.716,2.593,2.562,2.562,0,0,0,2.1.868,6.393,6.393,0,0,0,2.975-.724v1.9a4.877,4.877,0,0,1-1.347.492A8.788,8.788,0,0,1,817.553,620.985Z" fill="#00223d"/>
      <path id="Trazado_8685" data-name="Trazado 8685" d="M823.1,607.821a1.157,1.157,0,0,1,.345-.9,1.41,1.41,0,0,1,.987-.316,1.376,1.376,0,0,1,.966.316,1.154,1.154,0,0,1,.346.9,1.133,1.133,0,0,1-.346.876,1.369,1.369,0,0,1-.966.32,1.4,1.4,0,0,1-.987-.32A1.135,1.135,0,0,1,823.1,607.821ZM825.6,620.8h-2.354V610.539H825.6Z" fill="#00223d"/>
      <path id="Trazado_8686" data-name="Trazado 8686" d="M832.7,620.985a3.985,3.985,0,0,1-3.235-1.391,7.146,7.146,0,0,1,.015-7.835,4.021,4.021,0,0,1,3.26-1.406,3.93,3.93,0,0,1,3.325,1.494h.12a12.186,12.186,0,0,1-.17-1.744v-3.739h2.364V620.8h-1.843l-.411-1.346h-.11A3.865,3.865,0,0,1,832.7,620.985Zm.631-1.763a2.665,2.665,0,0,0,2.113-.756,3.76,3.76,0,0,0,.681-2.453v-.307a4.335,4.335,0,0,0-.681-2.755,2.623,2.623,0,0,0-2.133-.816,2.214,2.214,0,0,0-1.913.932,4.5,4.5,0,0,0-.671,2.658,4.388,4.388,0,0,0,.651,2.6A2.257,2.257,0,0,0,833.328,619.222Z" fill="#00223d"/>
      <path id="Trazado_8687" data-name="Trazado 8687" d="M848.672,620.8l-.471-1.429h-.08a4.465,4.465,0,0,1-1.613,1.275,5.45,5.45,0,0,1-2.083.339,3.7,3.7,0,0,1-2.549-.816,2.934,2.934,0,0,1-.916-2.31,2.653,2.653,0,0,1,1.272-2.394,7.789,7.789,0,0,1,3.876-.881l1.913-.056v-.547a1.976,1.976,0,0,0-.5-1.471,2.117,2.117,0,0,0-1.537-.487,5.694,5.694,0,0,0-1.633.232,12.787,12.787,0,0,0-1.5.548l-.761-1.559a8.6,8.6,0,0,1,1.973-.664,9.794,9.794,0,0,1,2.023-.227,5.064,5.064,0,0,1,3.19.854,3.216,3.216,0,0,1,1.076,2.681V620.8Zm-3.506-1.485a3.059,3.059,0,0,0,2.058-.663,2.312,2.312,0,0,0,.777-1.86V615.9l-1.423.056a5.179,5.179,0,0,0-2.418.514,1.534,1.534,0,0,0-.756,1.406,1.317,1.317,0,0,0,.44,1.062A1.994,1.994,0,0,0,845.166,619.315Z" fill="#00223d"/>
    </g>
    <g id="Grupo_12985" data-name="Grupo 12985">
      <path id="Trazado_8688" data-name="Trazado 8688" d="M567.544,432.653c0,3.84,2.226,7.985,1.1,11.448-1.166,3.591-5.443,5.627-7.618,8.615-2.2,3.018-2.825,7.707-5.844,9.9-2.988,2.175-7.631,1.34-11.221,2.506-3.464,1.125-6.712,4.567-10.551,4.567s-7.087-3.442-10.551-4.567c-3.59-1.166-8.233-.331-11.221-2.505-3.019-2.2-3.649-6.885-5.844-9.9-2.175-2.988-6.453-5.024-7.618-8.615-1.125-3.463,1.1-7.608,1.1-11.448s-2.226-7.984-1.1-11.448c1.166-3.59,5.443-5.626,7.618-8.614,2.195-3.018,2.825-7.707,5.844-9.9,2.988-2.174,7.631-1.34,11.221-2.5,3.464-1.126,6.712-4.567,10.551-4.567s7.087,3.441,10.551,4.567l.011,0a1.108,1.108,0,0,1,.7,1.461l-4.928,12.395,10.922,14.808,15.806-9.452a1.1,1.1,0,0,1,1.5.356,6.793,6.793,0,0,1,.675,1.451c1.125,3.464-1.1,7.609-1.1,11.448Z" fill="#d4eef9"/>
      <g id="Grupo_12982" data-name="Grupo 12982">
        <g id="Grupo_12981" data-name="Grupo 12981">
          <path id="Trazado_8689" data-name="Trazado 8689" d="M565.177,412.275l-.084-.313a2.176,2.176,0,0,1,1.4-2.621l3.328-1.141a2.175,2.175,0,0,1,2.806,1.495l.209.778a2.175,2.175,0,0,1-1.684,2.7l-3.452.676a2.175,2.175,0,0,1-2.519-1.572Z" fill="#fabe2c"/>
          <path id="Trazado_8690" data-name="Trazado 8690" d="M559.861,404.857l-.23-.229a2.176,2.176,0,0,1-.1-2.968l2.311-2.652a2.175,2.175,0,0,1,3.178-.109l.57.57a2.175,2.175,0,0,1-.109,3.178l-2.652,2.312a2.174,2.174,0,0,1-2.967-.1Z" fill="#fabe2c"/>
          <path id="Trazado_8691" data-name="Trazado 8691" d="M552.527,399.4l-.314-.084a2.175,2.175,0,0,1-1.571-2.519l.675-3.453a2.176,2.176,0,0,1,2.7-1.683l.779.208a2.175,2.175,0,0,1,1.494,2.807L555.147,398a2.174,2.174,0,0,1-2.62,1.4Z" fill="#fabe2c"/>
        </g>
      </g>
      <g id="Grupo_12984" data-name="Grupo 12984">
        <g id="Grupo_12983" data-name="Grupo 12983">
          <path id="Trazado_8692" data-name="Trazado 8692" d="M555.628,411.5l-3.174,2.116-5.29-1.058-3.175-1.058-4.232,1.058-3.174-1.058,2.116-4.232h4.232l4.148-2.074A30.321,30.321,0,0,1,555.628,411.5Z" fill="#95d6a4"/>
          <path id="Trazado_8693" data-name="Trazado 8693" d="M531.293,407.27l-1.058,3.174-3.174,1.058-3.175,5.291-5.29,3.174-7.406,1.058V424.2l2.116,2.116v4.232l-3.174-2.116-3.174-2.116-1.841-5.534A30.658,30.658,0,0,1,521.94,404.2l3,2.01Z" fill="#95d6a4"/>
          <path id="Trazado_8694" data-name="Trazado 8694" d="M533.409,436.9l-1.058,5.29-4.232,4.232v3.174l-4.232,3.174v5.29L520.712,457l-2.116-5.29V441.128l-5.29-1.058-2.116-4.232v-3.174l2.116-2.116,3.174-3.174,2.116,4.232H526l3.174,5.29Z" fill="#95d6a4"/>
          <path id="Trazado_8695" data-name="Trazado 8695" d="M560.178,417.671a30.657,30.657,0,0,1-1.693,32.662l-2.857-2.857v-4.232l-2.116-4.232-2.116-4.233v-4.232l-3.174-2.116-4.233,1.058-7.406-3.174-1.058-7.407,3.174-3.174h6.349l2.116,3.174,6.348,1.059,6.348-2.117Z" fill="#95d6a4"/>
        </g>
        <path id="Trazado_8696" data-name="Trazado 8696" d="M539.757,412.56l4.232-1.058,3.175,1.058,5.29,1.058,3.174-2.116a30.251,30.251,0,0,1,4.55,6.169l-.318.18-6.348,2.116-6.348-1.058-2.116-3.175H538.7l-3.174,3.175,1.058,7.406,7.407,3.174,4.232-1.058,3.174,2.116v4.232l2.116,4.233,2.116,4.232v4.232l2.857,2.857a30.684,30.684,0,0,1-53.368-29.552l1.841,5.534,3.174,2.116,3.174,2.116-2.116,2.116v3.174l2.116,4.233,5.29,1.058v10.58l2.116,5.29,3.174,1.059v-5.291l4.233-3.174v-3.174l4.232-4.232,1.058-5.291h-4.232L526,431.605H518.6l-2.116-4.232-3.174,3.174v-4.232L511.19,424.2v-3.174l7.406-1.058,5.29-3.175,3.175-5.29,3.174-1.058,1.058-3.174-6.348-1.058-3.005-2.01a30.686,30.686,0,0,1,25.139.994l-4.148,2.074H538.7l-2.116,4.232Z" fill="#63bcfa"/>
      </g>
    </g>
    <g id="Grupo_12989" data-name="Grupo 12989">
      <g id="Grupo_12987" data-name="Grupo 12987">
        <g id="Grupo_12986" data-name="Grupo 12986">
          <path id="Trazado_8697" data-name="Trazado 8697" d="M555.628,503.442l-3.174,2.116-5.29-1.058-3.175-1.058-4.232,1.058-3.174-1.058,2.116-4.233h4.232l4.148-2.073A30.3,30.3,0,0,1,555.628,503.442Z" fill="#95d6a4"/>
          <path id="Trazado_8698" data-name="Trazado 8698" d="M531.293,499.209l-1.058,3.175-3.174,1.058-3.175,5.29-5.29,3.174-7.406,1.058v3.174l2.116,2.116v4.233l-3.174-2.117-3.174-2.116-1.841-5.533a30.66,30.66,0,0,1,16.823-16.58l3,2.01Z" fill="#95d6a4"/>
          <path id="Trazado_8699" data-name="Trazado 8699" d="M533.409,528.835l-1.058,5.29-4.232,4.232v3.174l-4.232,3.174V550l-3.174-1.058-2.116-5.29V533.067l-5.29-1.058-2.116-4.232V524.6l2.116-2.116,3.174-3.174,2.116,4.232H526l3.174,5.29Z" fill="#95d6a4"/>
          <path id="Trazado_8700" data-name="Trazado 8700" d="M560.178,509.61a30.657,30.657,0,0,1-1.693,32.662l-2.857-2.857v-4.232l-2.116-4.232-2.116-4.232v-4.233l-3.174-2.116-4.233,1.058-7.406-3.174-1.058-7.406,3.174-3.174h6.349l2.116,3.174,6.348,1.058,6.348-2.116Z" fill="#95d6a4"/>
        </g>
        <path id="Trazado_8701" data-name="Trazado 8701" d="M539.757,504.5l4.232-1.058,3.175,1.058,5.29,1.058,3.174-2.116a30.218,30.218,0,0,1,4.55,6.168l-.318.18-6.348,2.116-6.348-1.058-2.116-3.174H538.7l-3.174,3.174,1.058,7.406,7.407,3.174,4.232-1.058,3.174,2.117v4.232l2.116,4.232,2.116,4.232v4.232l2.857,2.857a30.683,30.683,0,0,1-53.368-29.551l1.841,5.533,3.174,2.116,3.174,2.116L511.19,524.6v3.174l2.116,4.232,5.29,1.058v10.581l2.116,5.29L523.886,550v-5.29l4.233-3.175v-3.174l4.232-4.232,1.058-5.29h-4.232L526,523.544H518.6l-2.116-4.232-3.174,3.174v-4.232l-2.116-2.116v-3.174l7.406-1.058,5.29-3.174,3.175-5.29,3.174-1.059,1.058-3.174-6.348-1.058-3.005-2.01a30.683,30.683,0,0,1,25.139.995l-4.148,2.073H538.7l-2.116,4.233Z" fill="#63bcfa"/>
      </g>
      <g id="Grupo_12988" data-name="Grupo 12988">
        <path id="Trazado_8702" data-name="Trazado 8702" d="M543.911,546.8c0,2.542-4.243,7.638-5.5,7.844a30.541,30.541,0,0,1-3.269.359c-.574.032-1.778-1.994-2.361-1.994-6.753,0-18.3-7-18.336-7-.3-.264-1.859.883-2.149.607a30.545,30.545,0,0,1-9.52-22.194q0-.894.051-1.775a9.39,9.39,0,0,1,7,6.682,9.391,9.391,0,0,1,10.052,2.058,9.378,9.378,0,0,1,17.761,3.538A14.362,14.362,0,0,1,543.911,546.8Z" fill="#738c96"/>
        <path id="Trazado_8703" data-name="Trazado 8703" d="M562.039,533.673a6.878,6.878,0,0,0-6.628,5.041c-.287-.027-.579-.041-.873-.041a9.378,9.378,0,0,0-9.377,9.377c0,1.521,3.3,3.085,4.381,2.414A30.71,30.71,0,0,0,562.61,533.7c-.188-.016-.378-.023-.571-.023Z" fill="#607882"/>
      </g>
      <path id="Trazado_8704" data-name="Trazado 8704" d="M561.267,507.345a3.677,3.677,0,1,1-3.677-3.678A3.677,3.677,0,0,1,561.267,507.345Z" fill="#bbe0fb"/>
      <path id="Trazado_8705" data-name="Trazado 8705" d="M561.267,507.345a3.678,3.678,0,1,1-3.677-3.678A3.675,3.675,0,0,1,561.267,507.345Z" fill="#e3f0fb"/>
      <path id="Trazado_8706" data-name="Trazado 8706" d="M560.164,520.95a6.179,6.179,0,0,1-9.842,4.974,6.178,6.178,0,1,1-7.865-7.132,6.179,6.179,0,0,1,10.758-6.035,3.053,3.053,0,0,1,4.449,2.714,3.111,3.111,0,0,1-.039.486,6.17,6.17,0,0,1,2.539,4.993Z" fill="#fff5f5"/>
      <path id="Trazado_8707" data-name="Trazado 8707" d="M546.552,530.441a6.179,6.179,0,1,1-4.1-11.649,6.181,6.181,0,0,1,7.846-8.437,6.187,6.187,0,0,0-3.755,7.035,1.9,1.9,0,0,1-.892,2.015,6.18,6.18,0,0,0,.9,11.036Z" fill="#e1ebf0"/>
      <path id="Trazado_8708" data-name="Trazado 8708" d="M538.414,554.644l1.85-23.49h7.757l1.521,19.31A30.438,30.438,0,0,1,538.414,554.644Z" fill="#ebae56"/>
      <path id="Trazado_8709" data-name="Trazado 8709" d="M541.3,554.025l1.8-22.871h4.92l1.521,19.31a30.466,30.466,0,0,1-8.242,3.561Z" fill="#fbc56d"/>
      <path id="Trazado_8710" data-name="Trazado 8710" d="M538.64,496.093a3.677,3.677,0,1,1-3.677-3.678A3.677,3.677,0,0,1,538.64,496.093Zm3.993,4.013a2.406,2.406,0,1,0,2.406,2.406A2.406,2.406,0,0,0,542.633,500.106Zm-13.959,17.313A9.282,9.282,0,1,1,513.565,506.7a8.494,8.494,0,1,1,14.706-5.793,8.65,8.65,0,0,1-.067,1.074c.119-.005.24-.008.361-.008a7.722,7.722,0,0,1,.109,15.443Z" fill="#495959"/>
      <path id="Trazado_8711" data-name="Trazado 8711" d="M538.64,496.093a3.68,3.68,0,1,1-3.677-3.677A3.667,3.667,0,0,1,538.64,496.093Zm3.992,4.013a2.4,2.4,0,1,0,2.407,2.406A2.4,2.4,0,0,0,542.632,500.106Zm-6.345,9.592a7.722,7.722,0,0,0-7.722-7.722c-.121,0-.241,0-.361.008a8.666,8.666,0,0,0,.067-1.075,5.979,5.979,0,1,0-10.536,4.563,2.2,2.2,0,0,1-.026,2.386,7.945,7.945,0,1,0,10.965,9.561A7.721,7.721,0,0,0,536.287,509.7Z" fill="#607882"/>
      <path id="Trazado_8712" data-name="Trazado 8712" d="M518.907,497.416a1.25,1.25,0,1,1-1.25-1.25A1.251,1.251,0,0,1,518.907,497.416Zm5,2.5a1.25,1.25,0,1,0,1.25,1.25A1.249,1.249,0,0,0,523.908,499.917Zm-1.25,3.75a1.251,1.251,0,1,0,1.25,1.251A1.251,1.251,0,0,0,522.658,503.667Zm-1.251,7.5a1.25,1.25,0,1,0,1.251,1.25A1.25,1.25,0,0,0,521.407,511.169Zm-3.75-2.5a1.251,1.251,0,1,0,1.25,1.25A1.251,1.251,0,0,0,517.657,508.668Z" fill="#495959"/>
      <path id="Trazado_8713" data-name="Trazado 8713" d="M512.614,543.608l2.662-25.518h7.744l2.665,25.535a.8.8,0,0,1-.45.8l-11.995-.116A.637.637,0,0,1,512.614,543.608Z" fill="#f7e6b0"/>
      <path id="Trazado_8714" data-name="Trazado 8714" d="M518.478,543.544l2.656-25.454h10.159l2.658,25.472a.289.289,0,0,1-.294.319Z" fill="#fff5f5"/>
      <path id="Trazado_8715" data-name="Trazado 8715" d="M539.029,532.859V531.8a1.876,1.876,0,0,1,1.875-1.875h6.477a1.876,1.876,0,0,1,1.876,1.875v1.062a1.876,1.876,0,0,1-1.876,1.876H540.9A1.876,1.876,0,0,1,539.029,532.859Zm10.115,7.065h-10a1.25,1.25,0,0,0,0,2.5h10a1.25,1.25,0,0,0,0-2.5Z" fill="#ce9047"/>
      <path id="Trazado_8716" data-name="Trazado 8716" d="M541.4,532.859V531.8a1.876,1.876,0,0,1,1.876-1.875h4.1a1.876,1.876,0,0,1,1.876,1.875v1.062a1.876,1.876,0,0,1-1.876,1.876h-4.1A1.876,1.876,0,0,1,541.4,532.859Zm7.74,7.065h-7.627a1.25,1.25,0,0,0,0,2.5h7.627a1.25,1.25,0,0,0,0-2.5Z" fill="#dca050"/>
      <path id="Trazado_8717" data-name="Trazado 8717" d="M520.689,523.671H514.6a1.876,1.876,0,0,1-1.875-1.875v-3.751a1.875,1.875,0,0,1,1.875-1.875h6.089a1.875,1.875,0,0,1,1.876,1.875V521.8A1.876,1.876,0,0,1,520.689,523.671Zm.718,13.752a1.25,1.25,0,0,0-1.25-1.25h-7.5a1.25,1.25,0,1,0,0,2.5h7.5A1.249,1.249,0,0,0,521.407,537.423Z" fill="#c92e43"/>
      <path id="Trazado_8718" data-name="Trazado 8718" d="M531.969,523.671h-12.56a1.876,1.876,0,0,1-1.875-1.875v-3.751a1.875,1.875,0,0,1,1.875-1.875h12.56a1.875,1.875,0,0,1,1.876,1.875V521.8A1.876,1.876,0,0,1,531.969,523.671Zm3.193,13.752a1.25,1.25,0,0,0-1.25-1.25H518.784a1.25,1.25,0,0,0,0,2.5h15.128A1.25,1.25,0,0,0,535.162,537.423Z" fill="#ea5569"/>
      <path id="Trazado_8719" data-name="Trazado 8719" d="M517.748,550.75a30.759,30.759,0,0,1-5.448-4.134l.32-3.072h5.992a.607.607,0,0,1,.607.607v5.769a.97.97,0,0,1-1.471.83Z" fill="#f48996"/>
      <path id="Trazado_8720" data-name="Trazado 8720" d="M518.478,543.544h15.471l1.2,11.459q-.861.048-1.736.048a30.491,30.491,0,0,1-15.682-4.313Z" fill="#f7a4ae"/>
    </g>
    <g id="Grupo_12991" data-name="Grupo 12991">
      <g id="Grupo_12990" data-name="Grupo 12990">
        <path id="Trazado_8721" data-name="Trazado 8721" d="M555.628,310.292l-3.174,2.116-5.29-1.058-3.175-1.058-4.232,1.058-3.174-1.058,2.116-4.233h4.232l4.148-2.073A30.3,30.3,0,0,1,555.628,310.292Z" fill="#95d6a4"/>
        <path id="Trazado_8722" data-name="Trazado 8722" d="M531.293,306.059l-1.058,3.175-3.174,1.058-3.175,5.29-5.29,3.174-7.406,1.058v3.174l2.116,2.116v4.233l-3.174-2.117-3.174-2.116-1.841-5.533a30.66,30.66,0,0,1,16.823-16.58l3,2.01Z" fill="#95d6a4"/>
        <path id="Trazado_8723" data-name="Trazado 8723" d="M533.409,335.685l-1.058,5.29-4.232,4.232v3.174l-4.232,3.174v5.29l-3.174-1.058L518.6,350.5V339.917l-5.29-1.058-2.116-4.232v-3.174l2.116-2.116,3.174-3.174,2.116,4.232H526l3.174,5.29Z" fill="#95d6a4"/>
        <path id="Trazado_8724" data-name="Trazado 8724" d="M560.178,316.46a30.657,30.657,0,0,1-1.693,32.662l-2.857-2.857v-4.232l-2.116-4.232-2.116-4.232v-4.233l-3.174-2.116-4.233,1.058-7.406-3.174-1.058-7.406,3.174-3.174h6.349l2.116,3.174,6.348,1.058,6.348-2.116Z" fill="#95d6a4"/>
      </g>
      <path id="Trazado_8725" data-name="Trazado 8725" d="M539.757,311.35l4.232-1.058,3.175,1.058,5.29,1.058,3.174-2.116a30.218,30.218,0,0,1,4.55,6.168l-.318.18-6.348,2.116-6.348-1.058-2.116-3.174H538.7l-3.174,3.174,1.058,7.406,7.407,3.175,4.232-1.059,3.174,2.117v4.232l2.116,4.232,2.116,4.232v4.232l2.857,2.857a30.683,30.683,0,0,1-53.368-29.551l1.841,5.533,3.174,2.116,3.174,2.116-2.116,2.117v3.174l2.116,4.232,5.29,1.058V350.5l2.116,5.29,3.174,1.058v-5.29l4.233-3.175v-3.174l4.232-4.232,1.058-5.29h-4.232L526,330.394H518.6l-2.116-4.232-3.174,3.174V325.1l-2.116-2.116v-3.174l7.406-1.058,5.29-3.174,3.175-5.29,3.174-1.058,1.058-3.175L524.945,305l-3.005-2.01a30.682,30.682,0,0,1,25.139.995l-4.148,2.073H538.7l-2.116,4.233Z" fill="#63bcfa"/>
    </g>
    <g id="Grupo_12992" data-name="Grupo 12992">
      <path id="Trazado_8726" data-name="Trazado 8726" d="M515.809,301.945a3.564,3.564,0,0,0,5.828,1.894.429.429,0,0,1,.677.492,3.564,3.564,0,0,0,3.6,4.957.429.429,0,0,1,.259.8,3.564,3.564,0,0,0,0,6.128.429.429,0,0,1-.259.8,3.565,3.565,0,0,0-3.6,4.958.429.429,0,0,1-.677.492,3.564,3.564,0,0,0-5.828,1.893.429.429,0,0,1-.837,0,3.564,3.564,0,0,0-5.828-1.893.429.429,0,0,1-.677-.492,3.564,3.564,0,0,0-3.6-4.958.429.429,0,0,1-.259-.8,3.564,3.564,0,0,0,0-6.128.429.429,0,0,1,.259-.8,3.563,3.563,0,0,0,3.6-4.957.429.429,0,0,1,.677-.492,3.564,3.564,0,0,0,5.828-1.894.429.429,0,0,1,.837,0Zm0,0" fill="#fd8f31"/>
      <path id="Trazado_8727" data-name="Trazado 8727" d="M520.121,313.148a4.73,4.73,0,1,1-4.731-4.73,4.73,4.73,0,0,1,4.731,4.73Zm0,0" fill="#fccf3f"/>
      <path id="Trazado_8728" data-name="Trazado 8728" d="M549.7,339.494V305.15a8.431,8.431,0,0,0-16.863,0v34.344a14.668,14.668,0,1,0,16.863,0Zm0,0" fill="#d8d8d8"/>
      <path id="Trazado_8729" data-name="Trazado 8729" d="M541.269,361.362a10.13,10.13,0,0,1-3.539-19.622V305.15a3.54,3.54,0,0,1,7.079,0v36.59a10.13,10.13,0,0,1-3.54,19.622Zm0,0" fill="#f3e8d7"/>
      <path id="Trazado_8730" data-name="Trazado 8730" d="M537.73,311.622V341.74a10.131,10.131,0,1,0,7.079,0V311.622Zm0,0" fill="#fc4e51"/>
      <path id="Trazado_8731" data-name="Trazado 8731" d="M561.378,321.164H555.3a1.048,1.048,0,1,1,0-2.1h6.079a1.048,1.048,0,1,1,0,2.1Zm0,0" fill="#337e9c"/>
      <path id="Trazado_8732" data-name="Trazado 8732" d="M558.059,312.67H555.3a1.048,1.048,0,1,1,0-2.1h2.76a1.048,1.048,0,0,1,0,2.1Zm0,0" fill="#337e9c"/>
      <path id="Trazado_8733" data-name="Trazado 8733" d="M559.037,304.176H555.3a1.048,1.048,0,1,1,0-2.1h3.738a1.048,1.048,0,1,1,0,2.1Zm0,0" fill="#337e9c"/>
      <path id="Trazado_8734" data-name="Trazado 8734" d="M559.037,338.152H555.3a1.048,1.048,0,1,1,0-2.1h3.738a1.048,1.048,0,1,1,0,2.1Zm0,0" fill="#337e9c"/>
      <path id="Trazado_8735" data-name="Trazado 8735" d="M558.059,329.658H555.3a1.048,1.048,0,1,1,0-2.1h2.76a1.048,1.048,0,0,1,0,2.1Zm0,0" fill="#337e9c"/>
    </g>
    <g id="Grupo_12994" data-name="Grupo 12994">
      <g id="Grupo_12993" data-name="Grupo 12993">
        <path id="Trazado_8736" data-name="Trazado 8736" d="M554.912,594.291l-3.175,2.116-5.29-1.058-3.174-1.058-4.232,1.058-3.174-1.058,2.116-4.232h4.232l4.147-2.074A30.313,30.313,0,0,1,554.912,594.291Z" fill="#95d6a4"/>
        <path id="Trazado_8737" data-name="Trazado 8737" d="M530.576,590.059l-1.058,3.174-3.174,1.058-3.174,5.29-5.29,3.174-7.407,1.058v3.175l2.116,2.116v4.232l-3.174-2.116-3.174-2.116L504.4,603.57a30.666,30.666,0,0,1,16.823-16.58L524.228,589Z" fill="#95d6a4"/>
        <path id="Trazado_8738" data-name="Trazado 8738" d="M532.693,619.684l-1.058,5.29-4.232,4.232v3.174l-4.232,3.174v5.29L520,639.787l-2.116-5.29V623.916l-5.29-1.058-2.116-4.232v-3.174l2.116-2.116,3.174-3.174,2.116,4.232h7.406l3.174,5.29Z" fill="#95d6a4"/>
        <path id="Trazado_8739" data-name="Trazado 8739" d="M559.461,600.459a30.653,30.653,0,0,1-1.693,32.662l-2.856-2.856v-4.233L552.8,621.8l-2.116-4.232v-4.232l-3.175-2.116-4.232,1.058-7.406-3.175-1.058-7.406,3.174-3.174h6.348l2.116,3.174,6.349,1.058,6.348-2.116Z" fill="#95d6a4"/>
      </g>
      <path id="Trazado_8740" data-name="Trazado 8740" d="M539.041,595.349l4.232-1.058,3.174,1.058,5.291,1.058,3.174-2.116a30.2,30.2,0,0,1,4.549,6.168l-.317.18-6.348,2.116-6.349-1.058-2.116-3.174h-6.348l-3.174,3.174,1.058,7.407,7.406,3.174,4.232-1.058,3.175,2.116v4.232L552.8,621.8l2.116,4.232v4.233l2.856,2.856A30.683,30.683,0,0,1,504.4,603.57l1.841,5.534,3.174,2.116,3.175,2.116-2.116,2.116v3.174l2.116,4.232,5.29,1.058V634.5l2.116,5.29,3.174,1.058v-5.29l4.232-3.174v-3.175l4.233-4.232,1.058-5.29H528.46l-3.174-5.29H517.88l-2.116-4.233-3.174,3.175V609.1l-2.116-2.116v-3.174l7.406-1.058,5.29-3.174,3.174-5.29,3.174-1.058,1.059-3.174L524.228,589l-3.005-2.01a30.685,30.685,0,0,1,25.14.995l-4.148,2.074h-4.232l-2.116,4.232Z" fill="#63bcfa"/>
    </g>
    <g id="Grupo_13000" data-name="Grupo 13000">
      <path id="Trazado_8741" data-name="Trazado 8741" d="M515.612,616.253a8.136,8.136,0,0,1-4.4-1.261,8.47,8.47,0,0,1,3.15-15.465.274.274,0,0,0,.225-.265,16.585,16.585,0,0,1,32.176-5.2.279.279,0,0,0,.265.183h0a11.046,11.046,0,0,1,1.07,22.039c-.23.023-32.486-.031-32.486-.031Z" fill="#736e6e"/>
      <path id="Trazado_8742" data-name="Trazado 8742" d="M553.487,614.244a10.963,10.963,0,0,1-5.389,2.041c-.015,0-.181,0-.475,0h-.006c-1.452,0-6.01,0-11.247-.007h-.927c-.311,0-.623,0-.938,0h-.946l-1.587,0-1.588,0c-7.6-.01-14.772-.022-14.772-.022a8.134,8.134,0,0,1-4.4-1.261,8.47,8.47,0,0,1,3.15-15.465.275.275,0,0,0,.225-.265,16.6,16.6,0,0,1,16.58-16.145,16.792,16.792,0,0,1,2.042.126,15.678,15.678,0,0,0-11.726,7.859c-1.747,2.374-3.243,5.22-3.324,8.217a2.327,2.327,0,0,1-1.924,2.221,6.4,6.4,0,0,0-5.324,6.039c-.007.167-.008.335,0,.5a6.407,6.407,0,0,0,2.942,5.2,6.084,6.084,0,0,0,3.3.935c.178,0,23.371.023,36.341.032Z" fill="#5a5555"/>
      <g id="Grupo_12995" data-name="Grupo 12995">
        <path id="Trazado_8743" data-name="Trazado 8743" d="M538.3,591.754l-2.761,4.783a.509.509,0,0,1-.654.208,5.257,5.257,0,0,0-4.389,0,.509.509,0,0,1-.654-.208l-2.761-4.783a.511.511,0,0,1,.2-.708,11.777,11.777,0,0,1,10.812,0A.51.51,0,0,1,538.3,591.754Z" fill="#f5de46"/>
        <path id="Trazado_8744" data-name="Trazado 8744" d="M521.431,601.547h5.522a.509.509,0,0,1,.508.462,5.251,5.251,0,0,0,2.194,3.8.509.509,0,0,1,.147.67l-2.762,4.783a.509.509,0,0,1-.714.177,11.774,11.774,0,0,1-5.406-9.363.51.51,0,0,1,.511-.53Z" fill="#f5de46"/>
        <path id="Trazado_8745" data-name="Trazado 8745" d="M538.349,611.263l-2.762-4.782a.51.51,0,0,1,.147-.671,5.25,5.25,0,0,0,2.194-3.8.51.51,0,0,1,.508-.462h5.522a.51.51,0,0,1,.511.53,11.778,11.778,0,0,1-5.406,9.364A.509.509,0,0,1,538.349,611.263Z" fill="#f5de46"/>
      </g>
      <g id="Grupo_12996" data-name="Grupo 12996">
        <path id="Trazado_8746" data-name="Trazado 8746" d="M520.906,624.38l.01-4.771a.307.307,0,0,0-.476-.275l-4.127,2.394a3.062,3.062,0,1,0,4.593,2.652Z" fill="#ffe266"/>
        <path id="Trazado_8747" data-name="Trazado 8747" d="M547.444,626.421l.01-4.771a.306.306,0,0,0-.476-.274l-4.127,2.393a3.062,3.062,0,1,0,4.593,2.652Z" fill="#ffe266"/>
        <path id="Trazado_8748" data-name="Trazado 8748" d="M534.475,630.743l.01-4.833a.316.316,0,0,0-.491-.279l-4.256,2.426a3.113,3.113,0,0,0-1.156,1.135,3.072,3.072,0,0,0,1.156,4.238,3.189,3.189,0,0,0,4.314-1.136A3.035,3.035,0,0,0,534.475,630.743Z" fill="#ffe266"/>
      </g>
      <g id="Grupo_12997" data-name="Grupo 12997">
        <path id="Trazado_8749" data-name="Trazado 8749" d="M520.81,625.141a3.062,3.062,0,1,1-4.5-3.413l.307-.177a3.061,3.061,0,0,0,4.19,3.59Z" fill="#fef8a6"/>
        <path id="Trazado_8750" data-name="Trazado 8750" d="M547.348,627.183a3.063,3.063,0,1,1-4.5-3.413l.306-.178a3.061,3.061,0,0,0,4.19,3.591Z" fill="#fef8a6"/>
        <path id="Trazado_8751" data-name="Trazado 8751" d="M534.375,631.519a3.042,3.042,0,0,1-.323.776,3.189,3.189,0,0,1-4.314,1.135,3.074,3.074,0,0,1-1.157-4.238,3.122,3.122,0,0,1,1.157-1.135l.26-.148a3.08,3.08,0,0,0,1.475,3.479A3.2,3.2,0,0,0,534.375,631.519Z" fill="#fef8a6"/>
      </g>
      <path id="Trazado_8752" data-name="Trazado 8752" d="M539.842,610.9q-.381.289-.779.545a.511.511,0,0,1-.715-.178l-2.761-4.782a.51.51,0,0,1,.147-.671,5.18,5.18,0,0,0,.8-.7Z" fill="#f3d332"/>
      <path id="Trazado_8753" data-name="Trazado 8753" d="M531.326,596.446a5.268,5.268,0,0,0-.826.3.507.507,0,0,1-.654-.208l-2.761-4.782a.509.509,0,0,1,.2-.707c.244-.127.494-.245.747-.354Z" fill="#f3d332"/>
      <path id="Trazado_8754" data-name="Trazado 8754" d="M527.619,610.263l-.578,1a.511.511,0,0,1-.715.178,11.778,11.778,0,0,1-5.406-9.364.51.51,0,0,1,.511-.53h1.053a11.778,11.778,0,0,0,5.135,8.716Z" fill="#f3d332"/>
      <g id="Grupo_12998" data-name="Grupo 12998">
        <path id="Trazado_8755" data-name="Trazado 8755" d="M532.7,604.481a2.96,2.96,0,1,1,2.96-2.96A2.963,2.963,0,0,1,532.7,604.481Z" fill="#f5de46"/>
      </g>
      <g id="Grupo_12999" data-name="Grupo 12999">
        <path id="Trazado_8756" data-name="Trazado 8756" d="M534.736,602.44a2.964,2.964,0,0,1-2.96-2.96,2.933,2.933,0,0,1,.112-.806,2.96,2.96,0,1,0,3.654,3.654A2.933,2.933,0,0,1,534.736,602.44Z" fill="#f3d332"/>
      </g>
    </g>
  </g>
</svg>
