<svg xmlns="http://www.w3.org/2000/svg" xmlns:xlink="http://www.w3.org/1999/xlink" width="656.514" height="457.655" viewBox="0 0 656.514 457.655">
  <defs>
    <clipPath id="clip-path">
      <path id="Trazado_8186" data-name="Trazado 8186" d="M832.5,2470.79l-44.2-44.2h0l-61.513-61.513a12.572,12.572,0,0,0-17.791,0l-61.513,61.513h0l-44.2,44.2a12.587,12.587,0,0,0,0,17.785L708.989,2594.3a12.577,12.577,0,0,0,17.785,0L832.5,2488.575A12.587,12.587,0,0,0,832.5,2470.79Z" fill="none"/>
    </clipPath>
    <clipPath id="clip-path-2">
      <path id="Trazado_8240" data-name="Trazado 8240" d="M1032.171,2673.988l-44.2-44.2h0l-61.513-61.513a12.572,12.572,0,0,0-17.791,0l-61.513,61.513h0l-44.2,44.2a12.589,12.589,0,0,0,0,17.785L908.664,2797.5a12.58,12.58,0,0,0,17.785,0l105.722-105.722A12.589,12.589,0,0,0,1032.171,2673.988Z" fill="none"/>
    </clipPath>
    <clipPath id="clip-path-3">
      <path id="Trazado_8302" data-name="Trazado 8302" d="M630.459,2673.979l-44.2-44.2h-.005l-61.512-61.512a12.571,12.571,0,0,0-17.792,0l-61.512,61.512h0l-44.2,44.2a12.587,12.587,0,0,0,0,17.785l105.722,105.723a12.58,12.58,0,0,0,17.785,0l105.723-105.723A12.589,12.589,0,0,0,630.459,2673.979Z" fill="none"/>
    </clipPath>
  </defs>
  <g id="Grupo_12922" data-name="Grupo 12922" transform="translate(-388.549 -2352.45)">
    <g id="Grupo_12898" data-name="Grupo 12898">
      <path id="Trazado_8153" data-name="Trazado 8153" d="M838.876,2488.579,733.157,2594.3a12.581,12.581,0,0,1-17.792,0L609.647,2488.579a12.593,12.593,0,0,1,0-17.791l44.2-44.2H794.679l44.2,44.2A12.594,12.594,0,0,1,838.876,2488.579Z" fill="#83d0c6" opacity="0.5"/>
      <path id="Trazado_8154" data-name="Trazado 8154" d="M717.879,2361.384a12.5,12.5,0,0,1,8.9,3.685l105.719,105.719a12.6,12.6,0,0,1,0,17.792L726.775,2594.3a12.58,12.58,0,0,1-17.791,0L603.265,2488.58a12.6,12.6,0,0,1,0-17.792l105.719-105.719a12.5,12.5,0,0,1,8.9-3.685m0-8.934a21.448,21.448,0,0,0-15.213,6.3L596.948,2464.471a21.512,21.512,0,0,0,0,30.426l105.718,105.718a21.514,21.514,0,0,0,30.427,0L838.811,2494.9a21.514,21.514,0,0,0,0-30.426L733.093,2358.752a21.45,21.45,0,0,0-15.214-6.3Z" fill="#c0e54c"/>
      <path id="Trazado_8155" data-name="Trazado 8155" d="M832.5,2470.79l-44.2-44.2h0l-61.513-61.513a12.572,12.572,0,0,0-17.791,0l-61.513,61.513h0l-44.2,44.2a12.587,12.587,0,0,0,0,17.785L708.989,2594.3a12.577,12.577,0,0,0,17.785,0L832.5,2488.575A12.587,12.587,0,0,0,832.5,2470.79Z" fill="#5fc6ff"/>
      <g id="Grupo_12897" data-name="Grupo 12897">
        <g id="Grupo_12896" data-name="Grupo 12896" clip-path="url(#clip-path)">
          <g id="Grupo_12895" data-name="Grupo 12895">
            <path id="Trazado_8156" data-name="Trazado 8156" d="M668.5,2449v61.377c17.616,0,31.9-13.739,31.9-30.688S686.118,2449,668.5,2449Z" fill="#ffa630"/>
            <path id="Trazado_8157" data-name="Trazado 8157" d="M679.134,2479.684c0-16.949-4.76-30.689-10.632-30.689-17.615,0-31.9,13.74-31.9,30.689s14.28,30.688,31.9,30.688C674.374,2510.372,679.134,2496.633,679.134,2479.684Z" fill="#ffc938"/>
            <path id="Trazado_8158" data-name="Trazado 8158" d="M829.4,2489.73q-5.309.049-10.375.241l-13.9,86.056,27.8-28.771v-55.127C832.922,2490.792,831.334,2489.712,829.4,2489.73Z" fill="#5b9b40"/>
            <path id="Trazado_8159" data-name="Trazado 8159" d="M692.21,2524.517l-2.237,1.118v50.392H819.021v-86.056c-62.318,2.324-97.868,20.083-126.811,34.546Z" fill="#70ae3e"/>
            <path id="Trazado_8160" data-name="Trazado 8160" d="M832.922,2547.256c-4.935,0-9.554-.12-13.907-.351l-13.9,29.122,27.809-19.181Z" fill="#37774b"/>
            <path id="Trazado_8161" data-name="Trazado 8161" d="M743.339,2524.517c-30.514-15.248-68.365-34.162-137.192-34.787-1.936-.018-3.52,1.063-3.52,2.4v64.718l13.9,19.181H819.014v-29.122c-34.543-1.831-52.214-10.664-75.676-22.388Z" fill="#468943"/>
            <path id="Trazado_8162" data-name="Trazado 8162" d="M819.021,2556.846l-13.9,23.977,27.8-9.591v-14.386Z" fill="#5b9b40"/>
            <path id="Trazado_8163" data-name="Trazado 8163" d="M602.627,2556.846v33.567l13.9,9.59H819.021v-43.157Z" fill="#70ae3e"/>
            <path id="Trazado_8164" data-name="Trazado 8164" d="M805.12,2597.606l13.9,26.373h10.426c1.919,0,3.475-1.073,3.475-2.4v-50.35h-13.9Z" fill="#70ae3e"/>
            <path id="Trazado_8165" data-name="Trazado 8165" d="M649.971,2571.232c-3.743,0-6.963,1.984-7.139,4.564-.188,2.753,2.992,5.027,6.943,5.027s7.13,2.273,6.942,5.027c-.176,2.579-3.4,4.563-7.138,4.563H602.627v31.169c0,1.324,1.556,2.4,3.475,2.4H819.021v-52.747Z" fill="#9dcb3b"/>
            <path id="Trazado_8166" data-name="Trazado 8166" d="M644.33,2544.858c-1.92,0-3.475-1.073-3.475-2.4v-4.795c0-1.325,1.555-2.4,3.475-2.4s3.475,1.073,3.475,2.4v4.795C647.8,2543.785,646.25,2544.858,644.33,2544.858Z" fill="#37774b"/>
            <path id="Trazado_8167" data-name="Trazado 8167" d="M717.774,2549.654c-1.919,0-3.475-1.073-3.475-2.4v-4.8c0-1.325,1.556-2.4,3.475-2.4s3.476,1.073,3.476,2.4v4.8C721.25,2548.581,719.694,2549.654,717.774,2549.654Z" fill="#37774b"/>
            <path id="Trazado_8168" data-name="Trazado 8168" d="M819.021,2540.063c-1.92,0-3.475-1.073-3.475-2.4v-4.8c0-1.324,1.555-2.4,3.475-2.4s3.475,1.073,3.475,2.4v4.8C822.5,2538.99,820.941,2540.063,819.021,2540.063Z" fill="#468943"/>
            <path id="Trazado_8169" data-name="Trazado 8169" d="M805.12,2535.268c-1.92,0-3.475-1.073-3.475-2.4v-4.8c0-1.324,1.555-2.4,3.475-2.4s3.475,1.073,3.475,2.4v4.8C808.595,2534.2,807.04,2535.268,805.12,2535.268Z" fill="#5b9b40"/>
            <path id="Trazado_8170" data-name="Trazado 8170" d="M630.429,2549.654c-1.92,0-3.475-1.073-3.475-2.4v-4.8c0-1.325,1.555-2.4,3.475-2.4s3.475,1.073,3.475,2.4v4.8C633.9,2548.581,632.349,2549.654,630.429,2549.654Z" fill="#37774b"/>
            <path id="Trazado_8171" data-name="Trazado 8171" d="M616.528,2544.858c-1.92,0-3.476-1.073-3.476-2.4v-4.795c0-1.325,1.556-2.4,3.476-2.4s3.475,1.073,3.475,2.4v4.795C620,2543.785,618.447,2544.858,616.528,2544.858Z" fill="#37774b"/>
            <path id="Trazado_8172" data-name="Trazado 8172" d="M616.528,2592.811c-1.92,0-3.476-1.074-3.476-2.4v-4.8c0-1.325,1.556-2.4,3.476-2.4s3.475,1.073,3.475,2.4v4.8C620,2591.737,618.447,2592.811,616.528,2592.811Z" fill="#9dcb3b"/>
            <path id="Trazado_8173" data-name="Trazado 8173" d="M630.429,2592.811c-1.92,0-3.475-1.074-3.475-2.4v-4.8c0-1.325,1.555-2.4,3.475-2.4s3.475,1.073,3.475,2.4v4.8C633.9,2591.737,632.349,2592.811,630.429,2592.811Z" fill="#9dcb3b"/>
            <path id="Trazado_8174" data-name="Trazado 8174" d="M676.071,2597.606c-1.92,0-3.475-1.073-3.475-2.4v-4.795c0-1.324,1.555-2.4,3.475-2.4s3.475,1.074,3.475,2.4v4.795C679.546,2596.533,677.991,2597.606,676.071,2597.606Z" fill="#70ae3e"/>
            <path id="Trazado_8175" data-name="Trazado 8175" d="M689.972,2592.811c-1.92,0-3.475-1.074-3.475-2.4v-4.8c0-1.325,1.555-2.4,3.475-2.4s3.475,1.073,3.475,2.4v4.8C693.447,2591.737,691.892,2592.811,689.972,2592.811Z" fill="#70ae3e"/>
            <path id="Trazado_8176" data-name="Trazado 8176" d="M819.021,2611.991c-1.92,0-3.475-1.073-3.475-2.4V2604.8c0-1.325,1.555-2.4,3.475-2.4s3.475,1.073,3.475,2.4v4.795C822.5,2610.918,820.941,2611.991,819.021,2611.991Z" fill="#5b9b40"/>
            <path id="Trazado_8177" data-name="Trazado 8177" d="M805.12,2616.787c-1.92,0-3.475-1.074-3.475-2.4v-4.795c0-1.325,1.555-2.4,3.475-2.4s3.475,1.073,3.475,2.4v4.795C808.595,2615.713,807.04,2616.787,805.12,2616.787Z" fill="#70ae3e"/>
            <path id="Trazado_8178" data-name="Trazado 8178" d="M819.021,2588.015c-1.92,0-3.475-1.073-3.475-2.4v-4.795c0-1.325,1.555-2.4,3.475-2.4s3.475,1.073,3.475,2.4v4.795C822.5,2586.942,820.941,2588.015,819.021,2588.015Z" fill="#5b9b40"/>
            <path id="Trazado_8179" data-name="Trazado 8179" d="M791.219,2611.991c-1.92,0-3.476-1.073-3.476-2.4V2604.8c0-1.325,1.556-2.4,3.476-2.4s3.475,1.073,3.475,2.4v4.795C794.694,2610.918,793.138,2611.991,791.219,2611.991Z" fill="#70ae3e"/>
            <g id="Grupo_12894" data-name="Grupo 12894">
              <path id="Trazado_8180" data-name="Trazado 8180" d="M771.873,2573.63c-1.92,0-3.475-1.073-3.475-2.4v-4.795c0-1.325,1.555-2.4,3.475-2.4s3.475,1.073,3.475,2.4v4.795C775.348,2572.557,773.793,2573.63,771.873,2573.63Z" fill="#9dcb3b"/>
              <path id="Trazado_8181" data-name="Trazado 8181" d="M703.873,2573.63c-1.92,0-3.475-1.073-3.475-2.4v-4.795c0-1.325,1.555-2.4,3.475-2.4s3.475,1.073,3.475,2.4v4.795C707.348,2572.557,705.793,2573.63,703.873,2573.63Z" fill="#9dcb3b"/>
              <path id="Trazado_8182" data-name="Trazado 8182" d="M717.774,2573.63c-1.919,0-3.475-1.073-3.475-2.4v-4.795c0-1.325,1.556-2.4,3.475-2.4s3.476,1.073,3.476,2.4v4.795C721.25,2572.557,719.694,2573.63,717.774,2573.63Z" fill="#9dcb3b"/>
              <path id="Trazado_8183" data-name="Trazado 8183" d="M689.972,2573.63c-1.92,0-3.475-1.073-3.475-2.4v-4.795c0-1.325,1.555-2.4,3.475-2.4s3.475,1.073,3.475,2.4v4.795C693.447,2572.557,691.892,2573.63,689.972,2573.63Z" fill="#9dcb3b"/>
            </g>
            <path id="Trazado_8184" data-name="Trazado 8184" d="M616.528,2611.991c-1.92,0-3.476-1.073-3.476-2.4V2604.8c0-1.325,1.556-2.4,3.476-2.4s3.475,1.073,3.475,2.4v4.795C620,2610.918,618.447,2611.991,616.528,2611.991Z" fill="#70ae3e"/>
            <path id="Trazado_8185" data-name="Trazado 8185" d="M630.429,2616.787c-1.92,0-3.475-1.074-3.475-2.4v-4.795c0-1.325,1.555-2.4,3.475-2.4s3.475,1.073,3.475,2.4v4.795C633.9,2615.713,632.349,2616.787,630.429,2616.787Z" fill="#70ae3e"/>
          </g>
        </g>
      </g>
    </g>
    <g id="Grupo_12899" data-name="Grupo 12899">
      <path id="Trazado_8187" data-name="Trazado 8187" d="M1038.832,2691.767,933.113,2797.486a12.58,12.58,0,0,1-17.791,0L809.6,2691.767a12.594,12.594,0,0,1,0-17.791l44.2-44.2H994.635l44.2,44.2A12.594,12.594,0,0,1,1038.832,2691.767Z" fill="#53a1dd" opacity="0.5"/>
      <path id="Trazado_8188" data-name="Trazado 8188" d="M917.83,2564.572a12.5,12.5,0,0,1,8.9,3.685l105.719,105.719a12.594,12.594,0,0,1,0,17.791L926.726,2797.486a12.581,12.581,0,0,1-17.792,0L803.216,2691.767a12.593,12.593,0,0,1,0-17.791l105.718-105.719a12.5,12.5,0,0,1,8.9-3.685m0-8.934a21.448,21.448,0,0,0-15.213,6.3L796.9,2667.658a21.515,21.515,0,0,0,0,30.427L902.617,2803.8a21.513,21.513,0,0,0,30.426,0l105.719-105.718a21.516,21.516,0,0,0,0-30.427L933.043,2561.94a21.448,21.448,0,0,0-15.213-6.3Z" fill="#c0e54c"/>
      <path id="Trazado_8189" data-name="Trazado 8189" d="M1032.443,2673.982l-44.2-44.2h0l-61.518-61.517a12.57,12.57,0,0,0-17.791,0l-61.517,61.516h0l-44.2,44.2a12.587,12.587,0,0,0,0,17.785l105.722,105.722a12.577,12.577,0,0,0,17.785,0l105.722-105.722A12.587,12.587,0,0,0,1032.443,2673.982Z" fill="#5fc6ff"/>
    </g>
    <g id="Grupo_12900" data-name="Grupo 12900">
      <path id="Trazado_8190" data-name="Trazado 8190" d="M636.778,2691.767,531.06,2797.486a12.581,12.581,0,0,1-17.792,0L407.549,2691.767a12.594,12.594,0,0,1,0-17.791l44.2-44.2H592.582l44.2,44.2A12.593,12.593,0,0,1,636.778,2691.767Z" fill="#46ad92" opacity="0.5"/>
      <path id="Trazado_8191" data-name="Trazado 8191" d="M515.782,2564.572a12.5,12.5,0,0,1,8.9,3.685L630.4,2673.976a12.594,12.594,0,0,1,0,17.791L524.678,2797.486a12.58,12.58,0,0,1-17.791,0L401.168,2691.767a12.594,12.594,0,0,1,0-17.791l105.719-105.719a12.5,12.5,0,0,1,8.895-3.685m0-8.934a21.448,21.448,0,0,0-15.213,6.3L394.851,2667.658a21.515,21.515,0,0,0,0,30.427L500.569,2803.8a21.514,21.514,0,0,0,30.427,0l105.718-105.718a21.515,21.515,0,0,0,0-30.427L531,2561.94a21.448,21.448,0,0,0-15.214-6.3Z" fill="#c0e54c"/>
      <path id="Trazado_8192" data-name="Trazado 8192" d="M630.4,2673.982l-44.2-44.2h0l-61.518-61.517a12.57,12.57,0,0,0-17.791,0l-61.518,61.517h0l-44.2,44.2a12.589,12.589,0,0,0,0,17.785L506.89,2797.489a12.577,12.577,0,0,0,17.785,0L630.4,2691.767A12.589,12.589,0,0,0,630.4,2673.982Z" fill="#5fc6ff"/>
    </g>
    <g id="Grupo_12902" data-name="Grupo 12902">
      <path id="Trazado_8193" data-name="Trazado 8193" d="M612.092,2536.726a1.13,1.13,0,0,0,1.075,1.182l3.992.19c-1.146,1.127-3.745,3.707-3.745,3.707l1.619,1.583s2.6-2.587,3.683-3.657l-.194,4.069a1.129,1.129,0,0,0,2.256.108l.322-6.753a1.134,1.134,0,0,0-.292-.814,1.178,1.178,0,0,0-.11-.1,1.138,1.138,0,0,0-.672-.264l-6.753-.321A1.129,1.129,0,0,0,612.092,2536.726Z" fill="#46ad92"/>
      <path id="Trazado_8194" data-name="Trazado 8194" d="M579.777,2585.108a1.13,1.13,0,0,0-1.089-1.169l-3.995-.139c1.132-1.142,3.7-3.755,3.7-3.755l-1.639-1.563s-2.564,2.62-3.637,3.7l.144-4.071a1.13,1.13,0,0,0-2.258-.08l-.237,6.756a1.135,1.135,0,0,0,.3.811,1.2,1.2,0,0,0,.11.1,1.133,1.133,0,0,0,.676.255l6.756.236A1.129,1.129,0,0,0,579.777,2585.108Z" fill="#46ad92"/>
      <g id="Grupo_12901" data-name="Grupo 12901">
        <rect id="Rectángulo_4054" data-name="Rectángulo 4054" width="54.803" height="2.271" transform="matrix(0.707, -0.707, 0.707, 0.707, 574.791, 2580.435)" fill="#46ad92"/>
      </g>
    </g>
    <g id="Grupo_12904" data-name="Grupo 12904">
      <path id="Trazado_8195" data-name="Trazado 8195" d="M858.543,2582.977a1.131,1.131,0,0,0-1.186,1.071l-.2,3.992c-1.124-1.151-3.7-3.758-3.7-3.758l-1.589,1.614s2.578,2.6,3.645,3.7l-4.068-.208a1.129,1.129,0,0,0-.116,2.256l6.752.345a1.132,1.132,0,0,0,.815-.29,1.225,1.225,0,0,0,.1-.109,1.136,1.136,0,0,0,.266-.672l.344-6.751A1.131,1.131,0,0,0,858.543,2582.977Z" fill="#83d0c6"/>
      <path id="Trazado_8196" data-name="Trazado 8196" d="M810.269,2550.5a1.131,1.131,0,0,0,1.172-1.086l.153-3.994c1.138,1.136,3.742,3.711,3.742,3.711l1.568-1.634s-2.611-2.573-3.691-3.649l4.07.157a1.13,1.13,0,0,0,.087-2.258l-6.755-.259a1.126,1.126,0,0,0-.811.3,1.361,1.361,0,0,0-.1.11,1.135,1.135,0,0,0-.257.675l-.259,6.755A1.131,1.131,0,0,0,810.269,2550.5Z" fill="#83d0c6"/>
      <g id="Grupo_12903" data-name="Grupo 12903">
        <rect id="Rectángulo_4055" data-name="Rectángulo 4055" width="2.271" height="54.803" transform="matrix(0.709, -0.705, 0.705, 0.709, 813.347, 2547.131)" fill="#83d0c6"/>
      </g>
    </g>
    <rect id="Rectángulo_4056" data-name="Rectángulo 4056" width="183.427" height="31.157" rx="9.155" transform="translate(622.497 2384.465)" fill="#ff868e"/>
    <g id="Grupo_12906" data-name="Grupo 12906">
      <g id="Grupo_12905" data-name="Grupo 12905">
        <path id="Trazado_8197" data-name="Trazado 8197" d="M664.354,2407.919l-1.55-3.993h-5.936l-1.518,3.993h-2.676l5.808-14.438h2.761l5.808,14.438Zm-2.219-6.019-1.455-3.915q-.159-.393-.441-1.239t-.387-1.239a20.887,20.887,0,0,1-.839,2.646l-1.4,3.747Z" fill="#00223d"/>
        <path id="Trazado_8198" data-name="Trazado 8198" d="M675.811,2407.919l-4.5-12.009h-.085q.18,2.676.18,5.016v6.993h-2.3V2393.54h3.578l4.311,11.438h.064l4.438-11.438h3.589v14.379h-2.442v-7.111q0-1.073.058-2.793t.1-2.086h-.085l-4.661,11.99Z" fill="#00223d"/>
        <path id="Trazado_8199" data-name="Trazado 8199" d="M689.168,2393.54h4.608a9.328,9.328,0,0,1,4.635.865,2.963,2.963,0,0,1,1.428,2.734,3.143,3.143,0,0,1-.7,2.095,3.19,3.19,0,0,1-2.017,1.052v.1a4.116,4.116,0,0,1,2.405,1.126,3.245,3.245,0,0,1,.77,2.277,3.583,3.583,0,0,1-1.46,3.034,6.638,6.638,0,0,1-4.062,1.1h-5.606Zm2.538,5.94h2.442a4.454,4.454,0,0,0,2.325-.467,1.736,1.736,0,0,0,.733-1.588,1.561,1.561,0,0,0-.791-1.466,5.274,5.274,0,0,0-2.511-.452h-2.2Zm0,1.908v4.554h2.7a4.2,4.2,0,0,0,2.4-.566,2.022,2.022,0,0,0,.812-1.785,1.847,1.847,0,0,0-.828-1.662,4.675,4.675,0,0,0-2.517-.541Z" fill="#00223d"/>
        <path id="Trazado_8200" data-name="Trazado 8200" d="M703.524,2407.919V2393.54h2.537v14.379Z" fill="#00223d"/>
        <path id="Trazado_8201" data-name="Trazado 8201" d="M718.941,2407.919H710.16V2393.54h8.781v1.987H712.7v3.914h5.851v1.967H712.7v4.514h6.244Z" fill="#00223d"/>
        <path id="Trazado_8202" data-name="Trazado 8202" d="M735.229,2407.919h-3.111l-7.635-11.458H724.4l.053.639q.148,1.83.149,3.344v7.475h-2.3V2393.54h3.079l7.613,11.4h.064q-.021-.226-.085-1.648t-.064-2.218v-7.533h2.326Z" fill="#00223d"/>
        <path id="Trazado_8203" data-name="Trazado 8203" d="M744.689,2407.919h-2.537v-12.363h-4.566v-2.016h11.669v2.016h-4.566Z" fill="#00223d"/>
        <path id="Trazado_8204" data-name="Trazado 8204" d="M761.264,2407.919l-1.55-3.993h-5.936l-1.518,3.993h-2.676l5.808-14.438h2.761l5.808,14.438Zm-2.219-6.019-1.455-3.915q-.159-.393-.441-1.239t-.387-1.239a20.888,20.888,0,0,1-.839,2.646l-1.4,3.747Z" fill="#00223d"/>
        <path id="Trazado_8205" data-name="Trazado 8205" d="M766.01,2407.919V2393.54h2.538V2405.9h6.572v2.016Z" fill="#00223d"/>
      </g>
    </g>
    <g id="Grupo_12908" data-name="Grupo 12908">
      <path id="Trazado_8206" data-name="Trazado 8206" d="M767.29,2736.076a1.129,1.129,0,0,0-.092,1.595l2.658,2.986c-1.608-.031-5.269-.082-5.269-.082v2.264s3.665.045,5.19.073l-3.043,2.708a1.129,1.129,0,0,0,1.5,1.687l5.05-4.494a1.134,1.134,0,0,0,.376-.779,1.268,1.268,0,0,0,0-.151,1.135,1.135,0,0,0-.283-.665l-4.5-5.049A1.131,1.131,0,0,0,767.29,2736.076Z" fill="#3087b3"/>
      <path id="Trazado_8207" data-name="Trazado 8207" d="M672.778,2746.441a1.13,1.13,0,0,0,.072-1.6l-2.695-2.952c1.608.01,5.27.015,5.27.015l-.03-2.264s-3.666,0-5.191-.007l3.008-2.746a1.129,1.129,0,0,0-1.522-1.669l-4.993,4.558a1.133,1.133,0,0,0-.367.783,1.1,1.1,0,0,0,0,.152,1.129,1.129,0,0,0,.291.661l4.558,4.992A1.131,1.131,0,0,0,672.778,2746.441Z" fill="#3087b3"/>
      <g id="Grupo_12907" data-name="Grupo 12907">
        <rect id="Rectángulo_4057" data-name="Rectángulo 4057" width="2.271" height="92.051" transform="matrix(0.01, -1, 1, 0.01, 672.604, 2741.88)" fill="#3087b3"/>
      </g>
    </g>
    <g id="Grupo_12911" data-name="Grupo 12911">
      <g id="Grupo_12910" data-name="Grupo 12910" clip-path="url(#clip-path-2)">
        <g id="Grupo_12909" data-name="Grupo 12909">
          <path id="Trazado_8208" data-name="Trazado 8208" d="M1009.348,2639.933l14.635,79.53,14.636-38.1V2654.22Z" fill="#a94525"/>
          <path id="Trazado_8209" data-name="Trazado 8209" d="M953.976,2639.933h70.007v79.53H953.976Z" fill="#ff3c19"/>
          <path id="Trazado_8210" data-name="Trazado 8210" d="M1029.945,2632.128,1002.03,2618.5l21.953,35.718h14.636l-6.839-20.027A3.6,3.6,0,0,0,1029.945,2632.128Z" fill="#302c4c"/>
          <path id="Trazado_8211" data-name="Trazado 8211" d="M1002.03,2618.5H953.976l-13.9,35.718h83.911l-7.318-21.431Z" fill="#5b3364"/>
          <path id="Trazado_8212" data-name="Trazado 8212" d="M983.247,2632.789,953.976,2618.5l-27.916,13.626a3.6,3.6,0,0,0-1.835,2.065l-6.838,20.027v65.243h73.178V2654.22Z" fill="#ff5f21"/>
          <path id="Trazado_8213" data-name="Trazado 8213" d="M943,2654.22h21.954v50.957H943Z" fill="#fffacc"/>
          <ellipse id="Elipse_62" data-name="Elipse 62" cx="3.659" cy="3.572" rx="3.659" ry="3.572" transform="translate(950.317 2636.361)" fill="#fff"/>
          <path id="Trazado_8214" data-name="Trazado 8214" d="M856.771,2587.547v42.861a21.437,21.437,0,1,0,0-42.861Z" fill="#ffa630"/>
          <path id="Trazado_8215" data-name="Trazado 8215" d="M864.088,2608.978c0-11.836-3.276-21.431-7.317-21.431a21.437,21.437,0,1,0,0,42.861C860.812,2630.408,864.088,2620.813,864.088,2608.978Z" fill="#ffc938"/>
          <path id="Trazado_8216" data-name="Trazado 8216" d="M944.293,2715.929c-32.126-15.143-71.976-33.929-144.44-34.549a3.624,3.624,0,0,0-3.7,3.574v10.7l150.5,37.414v-16.022Z" fill="#5b9b40"/>
          <path id="Trazado_8217" data-name="Trazado 8217" d="M937.2,2728.643c-15.721-7.411-33.54-15.811-56-22.187-25.606-7.27-53.427-10.8-85.052-10.8v14.287l150.5,38.869v-15.742C943.551,2731.635,940.415,2730.157,937.2,2728.643Z" fill="#468943"/>
          <path id="Trazado_8218" data-name="Trazado 8218" d="M930.839,2741.508c-31.39-14.8-66.97-31.569-134.685-31.569v14.287l150.5,24.582c-5.272-2.329-10.479-4.783-15.819-7.3Z" fill="#5b9b40"/>
          <path id="Trazado_8219" data-name="Trazado 8219" d="M796.154,2738.512l110.243,7.542c-26.736-11.73-57.995-21.828-110.243-21.828Z" fill="#468943"/>
          <path id="Trazado_8220" data-name="Trazado 8220" d="M1038.619,2681.364q-7.548,0-14.636.256l-14.635,18.187,29.271-4.156Z" fill="#5b9b40"/>
          <path id="Trazado_8221" data-name="Trazado 8221" d="M890.48,2715.929c-27.813,13.111-47.907,22.583-94.326,22.583V2752.8l24.393,4.763,203.436-57.755v-18.186c-65.606,2.307-103.032,19.945-133.5,34.308Z" fill="#70ae3e"/>
          <path id="Trazado_8222" data-name="Trazado 8222" d="M1038.619,2767.086c-5.13,0-10,.11-14.636.319l-14.635,18.26,29.271-4.292Z" fill="#5b9b40"/>
          <path id="Trazado_8223" data-name="Trazado 8223" d="M799.813,2767.405v56.829h92.651l131.519-38.569v-18.26Z" fill="#70ae3e"/>
          <path id="Trazado_8224" data-name="Trazado 8224" d="M1038.619,2781.373c-5.159,0-10.023.114-14.636.332l-14.635,17.857,29.271-3.9Z" fill="#70ae3e"/>
          <path id="Trazado_8225" data-name="Trazado 8225" d="M937.2,2805.53c-13,6.127-27.438,12.927-44.74,18.7h38.969l92.55-24.672v-17.857c-40.242,1.893-61.091,11.716-86.779,23.825Z" fill="#9dcb3b"/>
          <path id="Trazado_8226" data-name="Trazado 8226" d="M1038.619,2795.66c-5.193,0-10.054.12-14.636.348l-14.635,16.8,29.271-2.862Z" fill="#5b9b40"/>
          <path id="Trazado_8227" data-name="Trazado 8227" d="M944.293,2818.243c-4.141,1.952-8.41,3.964-12.86,5.991h34.122l58.428-11.425v-16.8c-36.373,1.818-54.988,10.591-79.69,22.235Z" fill="#70ae3e"/>
          <path id="Trazado_8228" data-name="Trazado 8228" d="M1038.619,2809.947c-5.232,0-10.086.127-14.636.368l-9.757,6.959,9.757,6.96h10.977a3.616,3.616,0,0,0,3.659-3.572Z" fill="#70ae3e"/>
          <path id="Trazado_8229" data-name="Trazado 8229" d="M965.554,2824.234h58.429v-13.919C998.321,2811.675,982.528,2816.752,965.554,2824.234Z" fill="#9dcb3b"/>
          <path id="Trazado_8230" data-name="Trazado 8230" d="M1038.619,2752.8l-29.271-4.762,14.635,19.368c4.638-.209,9.506-.319,14.636-.319Z" fill="#70ae3e"/>
          <path id="Trazado_8231" data-name="Trazado 8231" d="M805.912,2781.373l-9.758,28.574v10.715a3.617,3.617,0,0,0,3.659,3.572c65.345-.611,100.207-17.041,131.026-31.569,26.326-12.41,49.407-23.288,93.144-25.26v-19.368Z" fill="#9dcb3b"/>
          <path id="Trazado_8232" data-name="Trazado 8232" d="M1038.619,2695.652c-4.974,0-9.844.1-14.636.273l-14.635,18.168,29.271-4.155Z" fill="#70ae3e"/>
          <path id="Trazado_8233" data-name="Trazado 8233" d="M953.568,2706.456c-22.459,6.377-40.278,14.776-56,22.187-28.632,13.5-51.246,24.156-101.415,24.156v14.287l24.393,9.525,203.436-62.518v-18.168c-25.675.941-48.837,4.4-70.415,10.531Z" fill="#9dcb3b"/>
          <path id="Trazado_8234" data-name="Trazado 8234" d="M1038.619,2709.939q-7.583,0-14.636.274l-14.635,18.467,29.271-4.455Z" fill="#5b9b40"/>
          <path id="Trazado_8235" data-name="Trazado 8235" d="M903.934,2741.508c-29.117,13.725-54.262,25.578-107.78,25.578v14.287l39.029,4.762,188.8-57.455v-18.466c-58.364,2.22-91,17.6-120.049,31.294Z" fill="#70ae3e"/>
          <path id="Trazado_8236" data-name="Trazado 8236" d="M1038.619,2724.226q-7.608,0-14.636.278l-14.635,18.446,29.271-4.438Z" fill="#70ae3e"/>
          <path id="Trazado_8237" data-name="Trazado 8237" d="M910.3,2754.375c-29.456,13.884-57.277,27-114.143,27v14.287l38.3,4.762,189.532-57.472V2724.5c-54.847,2.134-84.72,16.216-113.686,29.871Z" fill="#9dcb3b"/>
          <path id="Trazado_8238" data-name="Trazado 8238" d="M1038.619,2738.512c-5.088,0-9.957.1-14.636.3l-9.757,7.151,9.757,7.15c4.661-.2,9.53-.31,14.636-.31Z" fill="#5b9b40"/>
          <path id="Trazado_8239" data-name="Trazado 8239" d="M796.154,2795.66v14.287c64.367,0,96.879-15.326,128.324-30.149,26.81-12.638,52.27-24.636,99.5-26.689v-14.3c-106.8,4.4-111.684,56.852-227.829,56.852Z" fill="#70ae3e"/>
        </g>
      </g>
    </g>
    <rect id="Rectángulo_4058" data-name="Rectángulo 4058" width="183.427" height="31.157" rx="9.155" transform="translate(828.254 2599.208)" fill="#ffc82e"/>
    <g id="Grupo_12913" data-name="Grupo 12913">
      <g id="Grupo_12912" data-name="Grupo 12912">
        <path id="Trazado_8241" data-name="Trazado 8241" d="M863.406,2622.661h-8.781v-14.379h8.781v1.987h-6.244v3.914h5.851v1.968h-5.851v4.514h6.244Z" fill="#00223d"/>
        <path id="Trazado_8242" data-name="Trazado 8242" d="M873.366,2610.092a4.329,4.329,0,0,0-3.441,1.436,7.066,7.066,0,0,0-.047,7.966,4.417,4.417,0,0,0,3.488,1.358,9.885,9.885,0,0,0,1.911-.182q.924-.181,1.922-.468v2.017a12.5,12.5,0,0,1-4.141.639,6.9,6.9,0,0,1-5.235-1.913,7.616,7.616,0,0,1-1.826-5.473,8.3,8.3,0,0,1,.886-3.924,6.067,6.067,0,0,1,2.564-2.577,8.251,8.251,0,0,1,3.94-.9,10.433,10.433,0,0,1,4.4.924l-.914,1.957a14.38,14.38,0,0,0-1.661-.6A6.415,6.415,0,0,0,873.366,2610.092Z" fill="#00223d"/>
        <path id="Trazado_8243" data-name="Trazado 8243" d="M894.325,2615.452a7.5,7.5,0,0,1-1.9,5.459,8.441,8.441,0,0,1-10.767.015,7.547,7.547,0,0,1-1.884-5.494,7.427,7.427,0,0,1,1.9-5.468,7.291,7.291,0,0,1,5.41-1.908,7.133,7.133,0,0,1,5.351,1.938A7.489,7.489,0,0,1,894.325,2615.452Zm-11.849,0a6.1,6.1,0,0,0,1.157,4.028,4.97,4.97,0,0,0,6.843.014,7.647,7.647,0,0,0,.011-8.055,4.181,4.181,0,0,0-3.4-1.366,4.274,4.274,0,0,0-3.446,1.366A6.047,6.047,0,0,0,882.476,2615.452Z" fill="#00223d"/>
        <path id="Trazado_8244" data-name="Trazado 8244" d="M910.592,2622.661h-3.111l-7.634-11.458h-.085l.053.64q.148,1.828.148,3.344v7.474h-2.3v-14.379h3.079l7.614,11.4h.063q-.021-.225-.085-1.647t-.063-2.218v-7.534h2.325Z" fill="#00223d"/>
        <path id="Trazado_8245" data-name="Trazado 8245" d="M928.473,2615.452a7.5,7.5,0,0,1-1.9,5.459,8.44,8.44,0,0,1-10.766.015,7.544,7.544,0,0,1-1.885-5.494,7.431,7.431,0,0,1,1.895-5.468,7.291,7.291,0,0,1,5.41-1.908,7.134,7.134,0,0,1,5.352,1.938A7.489,7.489,0,0,1,928.473,2615.452Zm-11.85,0a6.108,6.108,0,0,0,1.157,4.028,4.972,4.972,0,0,0,6.844.014,7.644,7.644,0,0,0,.01-8.055,4.181,4.181,0,0,0-3.4-1.366,4.271,4.271,0,0,0-3.445,1.366A6.047,6.047,0,0,0,916.623,2615.452Z" fill="#00223d"/>
        <path id="Trazado_8246" data-name="Trazado 8246" d="M938.517,2622.661l-4.5-12.008h-.085q.18,2.674.181,5.016v6.992h-2.3v-14.379h3.578l4.311,11.438h.063l4.439-11.438h3.589v14.379h-2.442v-7.11q0-1.073.058-2.793t.1-2.086h-.085l-4.661,11.989Z" fill="#00223d"/>
        <path id="Trazado_8247" data-name="Trazado 8247" d="M951.875,2622.661v-14.379h2.537v14.379Z" fill="#00223d"/>
        <path id="Trazado_8248" data-name="Trazado 8248" d="M965.115,2610.092a4.328,4.328,0,0,0-3.44,1.436,7.068,7.068,0,0,0-.048,7.966,4.42,4.42,0,0,0,3.488,1.358,9.871,9.871,0,0,0,1.911-.182q.924-.181,1.922-.468v2.017a12.493,12.493,0,0,1-4.141.639,6.9,6.9,0,0,1-5.234-1.913,7.616,7.616,0,0,1-1.827-5.473,8.3,8.3,0,0,1,.887-3.924,6.067,6.067,0,0,1,2.564-2.577,8.251,8.251,0,0,1,3.94-.9,10.428,10.428,0,0,1,4.395.924l-.913,1.957a14.464,14.464,0,0,0-1.662-.6A6.415,6.415,0,0,0,965.115,2610.092Z" fill="#00223d"/>
        <path id="Trazado_8249" data-name="Trazado 8249" d="M986.075,2615.452a7.5,7.5,0,0,1-1.9,5.459,8.441,8.441,0,0,1-10.767.015,7.547,7.547,0,0,1-1.884-5.494,7.427,7.427,0,0,1,1.9-5.468,7.289,7.289,0,0,1,5.41-1.908,7.133,7.133,0,0,1,5.351,1.938A7.489,7.489,0,0,1,986.075,2615.452Zm-11.85,0a6.1,6.1,0,0,0,1.158,4.028,4.97,4.97,0,0,0,6.843.014,7.647,7.647,0,0,0,.011-8.055,4.182,4.182,0,0,0-3.4-1.366,4.273,4.273,0,0,0-3.446,1.366A6.047,6.047,0,0,0,974.225,2615.452Z" fill="#00223d"/>
      </g>
    </g>
    <rect id="Rectángulo_4059" data-name="Rectángulo 4059" width="183.427" height="31.157" rx="9.155" transform="translate(417.848 2599.208)" fill="#8ee4ed"/>
    <g id="Grupo_12915" data-name="Grupo 12915">
      <g id="Grupo_12914" data-name="Grupo 12914">
        <path id="Trazado_8250" data-name="Trazado 8250" d="M482.735,2618.757a3.52,3.52,0,0,1-1.5,3.009,6.89,6.89,0,0,1-4.13,1.092,10.536,10.536,0,0,1-4.311-.757v-2.223a12.366,12.366,0,0,0,2.256.728,10.3,10.3,0,0,0,2.225.265,3.744,3.744,0,0,0,2.224-.531,1.684,1.684,0,0,0,.717-1.426,1.733,1.733,0,0,0-.659-1.367,10.187,10.187,0,0,0-2.718-1.328,7.238,7.238,0,0,1-2.994-1.819,3.671,3.671,0,0,1-.871-2.459,3.342,3.342,0,0,1,1.381-2.832,6.039,6.039,0,0,1,3.7-1.033,11.632,11.632,0,0,1,4.439.905l-.807,1.918a10.344,10.344,0,0,0-3.7-.807,3,3,0,0,0-1.869.5,1.582,1.582,0,0,0-.637,1.313,1.743,1.743,0,0,0,.255.959,2.529,2.529,0,0,0,.838.752,14.75,14.75,0,0,0,2.1.934,11.883,11.883,0,0,1,2.506,1.23,3.7,3.7,0,0,1,1.168,1.288A3.646,3.646,0,0,1,482.735,2618.757Z" fill="#00223d"/>
        <path id="Trazado_8251" data-name="Trazado 8251" d="M499.522,2615.452a7.5,7.5,0,0,1-1.895,5.459,8.441,8.441,0,0,1-10.767.015,7.548,7.548,0,0,1-1.884-5.494,7.427,7.427,0,0,1,1.895-5.468,7.289,7.289,0,0,1,5.41-1.908,7.133,7.133,0,0,1,5.351,1.938A7.489,7.489,0,0,1,499.522,2615.452Zm-11.849,0a6.1,6.1,0,0,0,1.157,4.028,4.97,4.97,0,0,0,6.843.014,7.647,7.647,0,0,0,.011-8.055,4.181,4.181,0,0,0-3.4-1.366,4.273,4.273,0,0,0-3.446,1.366A6.047,6.047,0,0,0,487.673,2615.452Z" fill="#00223d"/>
        <path id="Trazado_8252" data-name="Trazado 8252" d="M509.461,2610.092a4.33,4.33,0,0,0-3.441,1.436,7.071,7.071,0,0,0-.047,7.966,4.418,4.418,0,0,0,3.488,1.358,9.886,9.886,0,0,0,1.911-.182q.924-.181,1.922-.468v2.017a12.5,12.5,0,0,1-4.141.639,6.9,6.9,0,0,1-5.235-1.913,7.62,7.62,0,0,1-1.826-5.473,8.3,8.3,0,0,1,.886-3.924,6.064,6.064,0,0,1,2.565-2.577,8.245,8.245,0,0,1,3.939-.9,10.433,10.433,0,0,1,4.4.924l-.913,1.957a14.467,14.467,0,0,0-1.662-.6A6.415,6.415,0,0,0,509.461,2610.092Z" fill="#00223d"/>
        <path id="Trazado_8253" data-name="Trazado 8253" d="M516.639,2622.661v-14.379h2.537v14.379Z" fill="#00223d"/>
        <path id="Trazado_8254" data-name="Trazado 8254" d="M532.905,2622.661l-1.55-3.993h-5.936l-1.518,3.993h-2.676l5.808-14.438h2.761l5.808,14.438Zm-2.219-6.019-1.455-3.914c-.106-.262-.253-.676-.44-1.239s-.317-.978-.388-1.24a20.8,20.8,0,0,1-.839,2.646l-1.4,3.747Z" fill="#00223d"/>
        <path id="Trazado_8255" data-name="Trazado 8255" d="M537.651,2622.661v-14.379h2.538v12.363h6.572v2.016Z" fill="#00223d"/>
      </g>
    </g>
    <g id="Grupo_12921" data-name="Grupo 12921">
      <g id="Grupo_12920" data-name="Grupo 12920" clip-path="url(#clip-path-3)">
        <g id="Grupo_12919" data-name="Grupo 12919">
          <path id="Trazado_8256" data-name="Trazado 8256" d="M452.478,2672.687c-27.947,0-24.848,33.986-24.72,58.614a2.63,2.63,0,0,0,1.288,2.249,47.174,47.174,0,0,0,46.864,0,2.631,2.631,0,0,0,1.289-2.249C477.327,2706.673,480.425,2672.687,452.478,2672.687Z" fill="#694b4b"/>
          <path id="Trazado_8257" data-name="Trazado 8257" d="M450.678,2672.758c-25.992,1.457-23.045,34.463-22.92,58.543a2.629,2.629,0,0,0,1.288,2.249,46.324,46.324,0,0,0,23.432,6.231l7.063-49.437" fill="#5a4146"/>
          <path id="Trazado_8258" data-name="Trazado 8258" d="M452.478,2672.687c-15.89,0-16.994,19.2-16.994,19.2,9.16-1.545,14.788,2.317,24.057-1.545l-7.063,49.437a46.321,46.321,0,0,0,23.432-6.231,2.631,2.631,0,0,0,1.289-2.249C477.327,2706.673,480.425,2672.687,452.478,2672.687Z" fill="#694b4b"/>
          <path id="Trazado_8259" data-name="Trazado 8259" d="M477.2,2731.3c.11-21.163,2.394-49.214-14.692-56.7-.3,1.548-.838,5.87.565,8.675,3.531,7.063,7.063,7.063,10.594,12.359,3.531,19.422-6.747,40.036-10.161,42.843h0a44.439,44.439,0,0,0,12.4-4.933A2.63,2.63,0,0,0,477.2,2731.3Z" fill="#785550"/>
          <path id="Trazado_8260" data-name="Trazado 8260" d="M479.235,2736.658l-15.755-6.565a3.531,3.531,0,0,1-2.173-3.26v-4.266H443.65v4.266a3.531,3.531,0,0,1-2.173,3.26l-15.755,6.565a5.3,5.3,0,0,0-3.259,4.889v7.063a3.531,3.531,0,0,0,3.531,3.531h52.969a3.531,3.531,0,0,0,3.531-3.531v-7.063A5.3,5.3,0,0,0,479.235,2736.658Z" fill="#e6af78"/>
          <path id="Trazado_8261" data-name="Trazado 8261" d="M479.235,2736.658,464,2730.31l-11.524,4.974-11.523-4.973-15.233,6.347a5.3,5.3,0,0,0-3.259,4.889v7.063a3.531,3.531,0,0,0,3.531,3.531h52.969a3.531,3.531,0,0,0,3.531-3.531v-7.063A5.3,5.3,0,0,0,479.235,2736.658Z" fill="#eff2fa"/>
          <path id="Trazado_8262" data-name="Trazado 8262" d="M461.307,2722.567H443.65v4.266a3.531,3.531,0,0,1-2.173,3.26l-2.46,1.026C457.847,2735.92,461.307,2722.567,461.307,2722.567Z" fill="#d29b6e"/>
          <g id="Grupo_12916" data-name="Grupo 12916">
            <path id="Trazado_8263" data-name="Trazado 8263" d="M431.068,2743.488l-7.086-5.637a5.283,5.283,0,0,0-1.519,3.7v7.063a3.531,3.531,0,0,0,3.531,3.531h7.063v-4.517A5.3,5.3,0,0,0,431.068,2743.488Z" fill="#e4eaf6"/>
            <path id="Trazado_8264" data-name="Trazado 8264" d="M482.494,2748.61v-7.063a5.284,5.284,0,0,0-1.5-3.675l-7.11,5.616a5.3,5.3,0,0,0-1.988,4.136v4.516h7.063A3.529,3.529,0,0,0,482.494,2748.61Z" fill="#e4eaf6"/>
            <path id="Trazado_8265" data-name="Trazado 8265" d="M452.743,2748.61h-.529a1.5,1.5,0,0,1-1.5-1.5v-11.821h3.531v11.821A1.5,1.5,0,0,1,452.743,2748.61Z" fill="#e4eaf6"/>
            <path id="Trazado_8266" data-name="Trazado 8266" d="M452.478,2735.284l-10.105-7.579a1.414,1.414,0,0,0-2.023.346l-2,2.995,6.2,8.674a1.412,1.412,0,0,0,2.032.282Z" fill="#e4eaf6"/>
            <path id="Trazado_8267" data-name="Trazado 8267" d="M452.478,2735.284l10.106-7.579a1.412,1.412,0,0,1,2.022.346l2,2.995-6.2,8.674a1.412,1.412,0,0,1-2.032.282Z" fill="#e4eaf6"/>
          </g>
          <path id="Trazado_8268" data-name="Trazado 8268" d="M461.307,2688.578c-8.829,8.828-26.154,1.766-26.154,15.891l1.1,10.4a7.064,7.064,0,0,0,3.6,5.535l10.053,5.584a5.293,5.293,0,0,0,5.144,0l10.054-5.584a7.062,7.062,0,0,0,3.6-5.535l1.266-12.357a19.446,19.446,0,0,0,.079-2.643C469.392,2695.378,463.072,2692.109,461.307,2688.578Z" fill="#f0c087"/>
          <path id="Trazado_8269" data-name="Trazado 8269" d="M435.153,2704.469l1.1,10.4a7.064,7.064,0,0,0,3.6,5.535l10.053,5.584a5.273,5.273,0,0,0,3.6.538h0s-5.068-1.537-8.085-9.7c-.924-2.5-2.207-15.744-1.1-17.363,2.181-3.2,14.345-3.531,17.939-9.465-.177-.221-.341-.441-.491-.662-.012-.018-.026-.036-.039-.054a6.8,6.8,0,0,1-.416-.707C452.478,2697.406,435.153,2690.344,435.153,2704.469Z" fill="#e6af78"/>
          <path id="Trazado_8270" data-name="Trazado 8270" d="M465.368,2748.61h-4.591a3,3,0,0,0-3,3v.53h10.594v-.53A3,3,0,0,0,465.368,2748.61Z" fill="#e4eaf6"/>
          <path id="Trazado_8271" data-name="Trazado 8271" d="M573.109,2728.448v-9.7H548.173v9.7l12.468,11.083Z" fill="#e6af78"/>
          <path id="Trazado_8272" data-name="Trazado 8272" d="M592.387,2732.984l-17.142-4.033a2.73,2.73,0,0,1-.72-.29l-13.884,8.1L547.3,2728.27a2.757,2.757,0,0,1-1.261.681l-17.143,4.034a5.54,5.54,0,0,0-4.272,5.394v10.85a2.771,2.771,0,0,0,2.771,2.771h66.5a2.771,2.771,0,0,0,2.771-2.771v-10.85A5.543,5.543,0,0,0,592.387,2732.984Z" fill="#eff2fa"/>
          <path id="Trazado_8273" data-name="Trazado 8273" d="M548.173,2718.751v10.232c15.706,5.658,24.936-8.5,24.936-8.5v-1.728Z" fill="#d29b6e"/>
          <path id="Trazado_8274" data-name="Trazado 8274" d="M542.631,2686.888l1.208,26.559a8.312,8.312,0,0,0,3.316,6.272l5.728,4.3a8.307,8.307,0,0,0,4.987,1.663h5.541a8.314,8.314,0,0,0,4.988-1.663l5.728-4.3a8.312,8.312,0,0,0,3.316-6.272l1.207-26.559Z" fill="#f0c087"/>
          <path id="Trazado_8275" data-name="Trazado 8275" d="M556.485,2692.429c5.541,0,13.853-1.385,15.825-5.541H542.631l1.207,26.559a8.313,8.313,0,0,0,3.317,6.272l5.728,4.3a8.307,8.307,0,0,0,4.987,1.663h2.771c-2.771,0-8.312-5.542-8.312-12.469v-16.624C552.329,2695.2,553.714,2692.429,556.485,2692.429Z" fill="#e6af78"/>
          <path id="Trazado_8276" data-name="Trazado 8276" d="M586.489,2743.008l8.977-8.064a5.534,5.534,0,0,1,1.194,3.434v10.85a2.771,2.771,0,0,1-2.771,2.771h-9.7v-3.838A6.928,6.928,0,0,1,586.489,2743.008Z" fill="#e4eaf6"/>
          <path id="Trazado_8277" data-name="Trazado 8277" d="M564.1,2752h-6.927l.866-12.468h5.2Z" fill="#5b5d6e"/>
          <path id="Trazado_8278" data-name="Trazado 8278" d="M564.1,2736.76h-6.927v.8a3.356,3.356,0,0,0,3.356,3.356h.215a3.356,3.356,0,0,0,3.356-3.356v-.8Z" fill="#515262"/>
          <g id="Grupo_12917" data-name="Grupo 12917">
            <path id="Trazado_8279" data-name="Trazado 8279" d="M547.978,2725.364l12.662,11.4a47.782,47.782,0,0,0-7.922,5.4,1.778,1.778,0,0,1-2.753-.622l-5.949-13.088,1.882-2.823A1.386,1.386,0,0,1,547.978,2725.364Z" fill="#e4eaf6"/>
            <path id="Trazado_8280" data-name="Trazado 8280" d="M573.3,2725.364l-12.662,11.4a47.782,47.782,0,0,1,7.922,5.4,1.778,1.778,0,0,0,2.753-.622l5.949-13.088-1.882-2.823A1.386,1.386,0,0,0,573.3,2725.364Z" fill="#e4eaf6"/>
          </g>
          <path id="Trazado_8281" data-name="Trazado 8281" d="M569.039,2677.71l1.3,9.178c5.929,1.186,6.783,10.489,6.906,13.147a2.731,2.731,0,0,0,.438,1.353l2.262,3.509s-.774-5.8,2.771-9.7C582.715,2695.2,583.932,2672.169,569.039,2677.71Z" fill="#785550"/>
          <path id="Trazado_8282" data-name="Trazado 8282" d="M581.334,2704.3l-1.565,6.258a1.666,1.666,0,0,1-1.616,1.261h0a1.666,1.666,0,0,1-1.653-1.459l-.8-6.4a2.867,2.867,0,0,1,2.845-3.223h.006A2.868,2.868,0,0,1,581.334,2704.3Z" fill="#f0c087"/>
          <path id="Trazado_8283" data-name="Trazado 8283" d="M543.959,2675.228l2.049,1.4c-9.265,6.84-7.533,18.572-7.533,18.572,2.771,2.771,2.771,9.7,2.771,9.7l2.77-2.771s-1.069-8,4.157-11.082c4.848-2.857,9.091-1.385,13.42-1.385,11.6,0,14.849-4.373,14.287-9.7-.292-2.756-4.5-8.495-15.239-8.313C556.308,2671.723,548.173,2673.035,543.959,2675.228Z" fill="#694b4b"/>
          <path id="Trazado_8284" data-name="Trazado 8284" d="M543.151,2688.446a15.217,15.217,0,0,1,2.857-11.818c-9.265,6.84-7.533,18.572-7.533,18.572,2.771,2.771,2.771,9.7,2.771,9.7l2.77-2.771s-1.069-8,4.156-11.082c4.849-2.857,9.092-1.385,13.421-1.385a34.114,34.114,0,0,0,5-.343C557.653,2689.615,552.386,2682.848,543.151,2688.446Z" fill="#5a4146"/>
          <path id="Trazado_8285" data-name="Trazado 8285" d="M539.947,2704.3l1.565,6.258a1.666,1.666,0,0,0,1.616,1.261h0a1.666,1.666,0,0,0,1.653-1.459l.8-6.4a2.867,2.867,0,0,0-2.846-3.223h-.006A2.868,2.868,0,0,0,539.947,2704.3Z" fill="#e6af78"/>
          <path id="Trazado_8286" data-name="Trazado 8286" d="M577.265,2749.229h-6.927a2.771,2.771,0,0,0-2.771,2.77h12.468A2.77,2.77,0,0,0,577.265,2749.229Z" fill="#e4eaf6"/>
          <path id="Trazado_8287" data-name="Trazado 8287" d="M509.614,2637.939c-47.51,0-42.242,57.776-42.025,99.643a4.468,4.468,0,0,0,2.191,3.823,80.186,80.186,0,0,0,79.668,0,4.47,4.47,0,0,0,2.191-3.823C551.856,2695.714,557.124,2637.939,509.614,2637.939Z" fill="#694b4b"/>
          <path id="Trazado_8288" data-name="Trazado 8288" d="M506.553,2638.058c-44.186,2.477-39.176,58.588-38.964,99.524a4.468,4.468,0,0,0,2.191,3.823A78.74,78.74,0,0,0,509.614,2752l12.006-84.044" fill="#5a4146"/>
          <path id="Trazado_8289" data-name="Trazado 8289" d="M509.614,2637.939c-27.014,0-28.89,32.642-28.89,32.642,15.57-2.626,25.138,3.94,40.9-2.626L509.614,2752a78.756,78.756,0,0,0,39.834-10.593,4.472,4.472,0,0,0,2.191-3.823C551.856,2695.714,557.124,2637.939,509.614,2637.939Z" fill="#694b4b"/>
          <path id="Trazado_8290" data-name="Trazado 8290" d="M551.639,2737.583c.186-35.977,4.07-83.665-24.976-96.382-.507,2.632-1.424,9.979.96,14.748,6,12.006,12.007,12.006,18.01,21.011,6,33.017-11.471,68.062-17.274,72.832h0a75.531,75.531,0,0,0,21.089-8.386A4.472,4.472,0,0,0,551.639,2737.583Z" fill="#785550"/>
          <path id="Trazado_8291" data-name="Trazado 8291" d="M555.1,2746.689l-26.783-11.16a6,6,0,0,1-3.694-5.542v-7.253H494.606v7.253a6,6,0,0,1-3.694,5.542l-26.784,11.16a9.005,9.005,0,0,0-5.541,8.312v12.006a6,6,0,0,0,6,6h90.047a6,6,0,0,0,6-6V2755A9,9,0,0,0,555.1,2746.689Z" fill="#e6af78"/>
          <path id="Trazado_8292" data-name="Trazado 8292" d="M555.1,2746.689l-25.9-10.79-19.589,8.454-19.589-8.454-25.9,10.79a9.005,9.005,0,0,0-5.541,8.312v12.006c0,3.315,2.688,6,6,36.964h90.047c3.316-30.96,6-33.648,6-36.964V2755A9,9,0,0,0,555.1,2746.689Z" fill="#b4e1fa"/>
          <path id="Trazado_8293" data-name="Trazado 8293" d="M524.622,2722.734H494.606v7.253a6,6,0,0,1-3.694,5.542l-4.183,1.743C518.74,2745.434,524.622,2722.734,524.622,2722.734Z" fill="#d29b6e"/>
          <g id="Grupo_12918" data-name="Grupo 12918">
            <path id="Trazado_8294" data-name="Trazado 8294" d="M473.217,2758.3l-12.048-9.583a8.985,8.985,0,0,0-2.581,6.284v12.006a6,6,0,0,0,6,6H476.6v-7.678A9.009,9.009,0,0,0,473.217,2758.3Z" fill="#a0d2f0"/>
            <path id="Trazado_8295" data-name="Trazado 8295" d="M560.641,2767.007V2755a8.984,8.984,0,0,0-2.544-6.247l-12.086,9.546a9.006,9.006,0,0,0-3.38,7.032v24.239l12.006-16.561A6,6,0,0,0,560.641,2767.007Z" fill="#a0d2f0"/>
            <path id="Trazado_8296" data-name="Trazado 8296" d="M509.614,2767.007h0a3,3,0,0,1-3-3V2744.36h6v19.646A3,3,0,0,1,509.614,2767.007Z" fill="#a0d2f0"/>
            <path id="Trazado_8297" data-name="Trazado 8297" d="M509.614,2744.353l-17.18-12.885a2.4,2.4,0,0,0-3.438.589l-3.395,5.092,10.533,14.745a2.4,2.4,0,0,0,3.454.48Z" fill="#a0d2f0"/>
            <path id="Trazado_8298" data-name="Trazado 8298" d="M509.614,2744.353l17.179-12.885a2.4,2.4,0,0,1,3.439.589l3.4,5.092-10.533,14.745a2.4,2.4,0,0,1-3.454.48Z" fill="#a0d2f0"/>
          </g>
          <path id="Trazado_8299" data-name="Trazado 8299" d="M524.622,2664.953c-15.008,15.008-44.461,3-44.461,27.014l1.864,17.689a12.006,12.006,0,0,0,6.126,9.408l17.09,9.494a9.006,9.006,0,0,0,8.747,0l17.09-9.494a12.01,12.01,0,0,0,6.126-9.408l2.151-21.008a33.045,33.045,0,0,0,.135-4.494C538.367,2676.514,527.623,2670.956,524.622,2664.953Z" fill="#f0c087"/>
          <path id="Trazado_8300" data-name="Trazado 8300" d="M480.161,2691.967l1.864,17.689a12.006,12.006,0,0,0,6.126,9.408l17.09,9.494a8.968,8.968,0,0,0,6.112.914h0s-8.617-2.611-13.745-16.493c-1.571-4.253-3.752-26.764-1.876-29.516,3.708-5.438,24.388-6,30.5-16.092q-.453-.562-.836-1.125c-.02-.031-.045-.061-.065-.092a11.067,11.067,0,0,1-.708-1.2C509.614,2679.961,480.161,2667.955,480.161,2691.967Z" fill="#e6af78"/>
          <path id="Trazado_8301" data-name="Trazado 8301" d="M533.627,2767.007H521.62a3,3,0,0,0-3,3v3h18.009v-3A3,3,0,0,0,533.627,2767.007Z" fill="#a0d2f0"/>
        </g>
      </g>
    </g>
  </g>
</svg>
