<svg xmlns="http://www.w3.org/2000/svg" width="50.175" height="50.175" viewBox="0 0 50.175 50.175">
  <g id="Grupo_12970" data-name="Grupo 12970" transform="translate(-632.45 -3941.003)">
    <circle id="Elipse_66" data-name="Elipse 66" cx="25.087" cy="25.087" r="25.087" transform="translate(632.45 3941.003)" fill="#a5d130"/>
    <g id="Grupo_12969" data-name="Grupo 12969">
      <path id="Trazado_8547" data-name="Trazado 8547" d="M640.237,3960.063a18.333,18.333,0,0,0,0,12.054,1.142,1.142,0,0,0,.059.165,18.32,18.32,0,0,0,34.483,0,1.149,1.149,0,0,0,.059-.165,18.317,18.317,0,0,0,0-12.054,1.16,1.16,0,0,0-.059-.165,18.32,18.32,0,0,0-34.483,0,1.152,1.152,0,0,0-.059.165Zm17.3-9.667c.7,0,1.822,1.263,2.763,4.084a28.881,28.881,0,0,1,1.081,4.628h-7.689a28.656,28.656,0,0,1,1.082-4.628c.94-2.821,2.065-4.084,2.763-4.084Zm4.163,11.338c.126,1.4.193,2.861.193,4.357s-.067,2.955-.193,4.355h-8.327c-.125-1.4-.192-2.86-.192-4.355s.067-2.957.192-4.357Zm11.53,4.357a15.62,15.62,0,0,1-.615,4.355h-8.281c.123-1.429.185-2.894.185-4.355s-.062-2.928-.185-4.357h8.281a15.63,15.63,0,0,1,.615,4.357Zm-15.693,15.693c-.7,0-1.823-1.262-2.763-4.083a28.663,28.663,0,0,1-1.082-4.629h7.689a28.758,28.758,0,0,1-1.081,4.629c-.941,2.821-2.066,4.083-2.763,4.083Zm-6.8-11.338h-8.281a15.735,15.735,0,0,1,0-8.712h8.281c-.123,1.429-.184,2.894-.184,4.357s.061,2.926.184,4.355Zm-7.255,2.626h7.556a25.233,25.233,0,0,0,2.393,8.167,15.764,15.764,0,0,1-9.949-8.167Zm18.156,8.167a25.235,25.235,0,0,0,2.393-8.167h7.556a15.764,15.764,0,0,1-9.949,8.167Zm9.949-22.131h-7.556a25.236,25.236,0,0,0-2.393-8.167,15.77,15.77,0,0,1,9.949,8.167Zm-18.156-8.167a25.235,25.235,0,0,0-2.393,8.167h-7.556a15.77,15.77,0,0,1,9.949-8.167Zm0,0" fill="#fff"/>
    </g>
  </g>
</svg>
